<svg width="24" height="24" fill="none" xmlns="http://www.w3.org/2000/svg"><path fill-rule="evenodd" clip-rule="evenodd" d="M21.333 12A9.333 9.333 0 0 1 12 21.333a9.333 9.333 0 1 1 0-18.666A9.333 9.333 0 0 1 21.333 12ZM22 12c0 5.523-4.477 10-10 10S2 17.523 2 12 6.477 2 12 2s10 4.477 10 10ZM8.887 8.06c4.733-.603 6.919 3.578 6.54 3.99-.258.276-.654.293-.998.293-1.034.023-2.346-.754-3.262-1.296-.487-.288-.862-.51-1.024-.51-.878.017-2.203 1.428-3.08 2.58-.362.482-2.634 1.222-2.376-.051.809-4.13 3.597-4.938 4.2-5.007Zm6.592 7.81c-4.733.602-6.92-3.579-6.54-3.991.258-.276.653-.293.998-.293 1.033-.022 2.345.754 3.261 1.296.488.289.863.51 1.024.51.878-.017 2.203-1.427 3.081-2.58.362-.482 2.634-1.222 2.375.052-.809 4.111-3.597 4.92-4.2 5.006Z" fill="#313336"/></svg>