<svg width="393" height="402" fill="none" xmlns="http://www.w3.org/2000/svg"><path d="M342.78 268H137.65A15.001 15.001 0 0 1 123 256.33L88.46 105.85a14.998 14.998 0 0 1 14.62-18.36h274.27a15.004 15.004 0 0 1 11.756 5.644A14.99 14.99 0 0 1 392 105.85l-34.6 150.48A14.996 14.996 0 0 1 342.78 268Zm-193.19-30h181.25l27.67-120.48h-236.6L149.59 238ZM167.001 402a57.482 57.482 0 0 1-53.105-35.483 57.477 57.477 0 0 1 12.46-62.642 57.488 57.488 0 0 1 29.431-15.731 57.481 57.481 0 0 1 68.694 56.376 57.54 57.54 0 0 1-57.48 57.48Zm0-84.95a27.483 27.483 0 0 0-25.39 16.966 27.481 27.481 0 1 0 52.87 10.504 27.499 27.499 0 0 0-27.48-27.47ZM313.42 402a57.481 57.481 0 0 1-40.644-98.125 57.488 57.488 0 0 1 29.431-15.731A57.481 57.481 0 0 1 370.9 344.52 57.54 57.54 0 0 1 313.42 402Zm0-84.95a27.482 27.482 0 0 0-26.951 32.845 27.481 27.481 0 0 0 54.431-5.375 27.496 27.496 0 0 0-27.48-27.47Z" fill="#fff"/><path d="M103.08 117.49a14.994 14.994 0 0 1-14.23-10.26L63.14 30H15.7a15 15 0 1 1 0-30H74a15 15 0 0 1 14.23 10.26l29.13 87.49a14.995 14.995 0 0 1-2.063 13.512 15.013 15.013 0 0 1-12.167 6.228h-.05Z" fill="#fff"/></svg>