<svg width="24" height="24" fill="none" xmlns="http://www.w3.org/2000/svg"><rect width="24" height="24" rx="12" fill="#EEDFFF"/><path d="M9.773 11.875c.712 0 1.289.534 1.276 1.187 0 .653-.563 1.187-1.276 1.187-.7 0-1.277-.534-1.277-1.187s.563-1.187 1.277-1.187Zm4.567 0c.713 0 1.277.534 1.277 1.187s-.564 1.187-1.277 1.187c-.7 0-1.276-.534-1.276-1.187s.563-1.187 1.276-1.187Zm1.184 5.594c2.697-.087 3.736-1.894 3.736-1.894 0-4.013-1.76-7.267-1.76-7.267C15.745 6.963 14.07 7 14.07 7l-.17.2c2.076.648 3.04 1.583 3.04 1.583A9.807 9.807 0 0 0 10.8 7.61c-.074 0-.136.013-.208.025-.428.038-1.466.2-2.772.786-.45.211-.72.362-.72.362s1.013-.985 3.21-1.633L10.188 7s-1.672-.037-3.43 1.31c0 0-1.758 3.252-1.758 7.265 0 0 1.026 1.806 3.723 1.894 0 0 .451-.56.82-1.034-1.552-.475-2.137-1.472-2.137-1.472s.121.088.34.213c.012.012.024.025.05.037.036.026.073.038.11.063.305.174.61.31.89.423.5.2 1.099.4 1.796.537a8.378 8.378 0 0 0 3.162.012 7.908 7.908 0 0 0 1.77-.536c.427-.162.903-.4 1.404-.736 0 0-.61 1.022-2.21 1.484.366.474.807 1.009.807 1.009h-.002Z" fill="#6100D4"/></svg>