<svg width="120" height="28" fill="none" xmlns="http://www.w3.org/2000/svg"><path d="M4.032 10.668H8.37c.522 0 .774-.27.774-.792V8.76c0-.486-.27-.792-.774-.792H1.692A.799.799 0 0 0 .9 8.76v11.448c0 .432.342.792.792.792H3.24c.45 0 .792-.36.792-.792v-4.374h3.762c.504 0 .792-.306.792-.792v-1.116c0-.486-.288-.792-.792-.792H4.032v-2.466Zm16.206 3.888c0-4.626-1.602-6.732-5.112-6.732-3.528 0-5.112 2.106-5.112 6.732 0 4.608 1.566 6.588 5.112 6.588 3.528 0 5.112-1.98 5.112-6.588Zm-7.056 0c0-2.754.576-3.942 1.944-3.942 1.35 0 1.944 1.188 1.944 3.942 0 2.664-.594 3.798-1.944 3.798-1.368 0-1.944-1.116-1.944-3.798Zm21.655-1.098h2.322c.432 0 .648-.216.648-.63v-.648c0-.414-.216-.63-.648-.63h-2.322v-1.332h3.06c.522 0 .774-.216.774-.666v-.918c0-.45-.252-.666-.774-.666H32.91c-.504 0-.792.342-.792.792v7.524c0 .45.342.792.792.792h4.986c.522 0 .774-.216.774-.666v-.936c0-.45-.252-.666-.774-.666h-3.06v-1.35Zm-13.212 6.75c0 .45.288.792.792.792h1.548c.504 0 .792-.342.792-.792v-3.6h1.332l1.764 1.872c.738.792 1.296 1.242 2.376 1.818 1.098.558 2.646.828 4.644.828 1.098 0 2.016-.054 2.79-.18.504-.054.774-.432.774-.864v-1.134c0-.45-.288-.756-.774-.684-.864.09-1.638.144-2.34.144-2.358 0-4.122-.576-5.292-1.728l-.882-.864c1.494-.72 2.232-1.836 2.232-3.33 0-3.258-1.872-4.518-5.238-4.518h-3.726c-.504 0-.792.342-.792.792v11.448Zm6.876-7.776c0 1.152-.864 1.728-2.16 1.728h-1.584v-3.474h1.44c1.386 0 2.304.576 2.304 1.746Zm21.232-3.708c.126-.378-.126-.756-.576-.756h-1.692c-.54 0-.864.252-.972.756l-1.908 7.812-1.854-7.812c-.144-.504-.468-.756-.972-.756h-1.944c-.45 0-.702.378-.576.756l3.366 11.52c.126.504.45.756.99.756h1.782c.522 0 .864-.252 1.008-.756l3.348-11.52Zm4.045 7.11h3.762c.504 0 .774-.306.774-.792v-1.116c0-.522-.252-.792-.774-.792h-3.762v-2.448h4.932c.504 0 .792-.306.792-.792V8.76c0-.486-.288-.792-.792-.792h-7.272c-.486 0-.792.342-.792.792v11.448c0 .45.306.792.792.792h7.272c.504 0 .792-.306.792-.792v-1.116c0-.486-.288-.792-.792-.792h-4.932v-2.466Zm14.532.234c1.458-.63 2.34-1.872 2.34-3.582 0-3.258-1.872-4.518-5.238-4.518h-3.726a.776.776 0 0 0-.792.792v11.448c0 .45.306.792.792.792h1.548c.486 0 .792-.342.792-.792v-3.6H65.358l.054-.018 1.746 3.69c.234.486.594.72 1.116.72h1.566c.45 0 .648-.378.45-.72l-1.98-4.212Zm-.54-3.636c0 1.152-.864 1.728-2.16 1.728h-1.584v-3.474h1.44c1.386 0 2.304.576 2.304 1.746Zm12.848 1.8c-.486 0-.792.288-.792.774v.45c0 .486.306.792.792.792h1.224v.306c0 1.206-.522 1.8-1.872 1.8-1.44 0-1.89-1.116-1.89-3.798 0-2.664.468-3.942 1.89-3.942 1.098 0 1.818.918 1.836 2.088 0 .36.288.486.882.378l1.296-.216c.648-.09.774-.306.72-.9-.09-1.278-.504-2.286-1.224-3.024s-1.89-1.116-3.51-1.116c-3.546 0-5.058 2.25-5.058 6.732 0 4.554 1.458 6.588 5.058 6.588 1.854 0 3.168-.522 3.816-1.44.666-.936.918-1.908.918-3.258v-1.44c0-.45-.288-.774-.774-.774h-3.312Zm11.517-5.508c-.126-.504-.45-.756-.99-.756h-1.548c-.522 0-.864.252-1.008.756l-3.312 11.52c-.126.378.126.756.576.756h1.692c.504 0 .81-.252.936-.774l.342-1.53h3.024l.342 1.53c.126.45.486.774.99.774h1.71c.45 0 .684-.36.558-.774L92.135 8.724Zm-1.818 3.186 1.062 4.698h-2.106l1.044-4.698Zm14.995 8.28c0 .504.306.81.81.81h1.53c.504 0 .81-.306.81-.81V8.76c0-.486-.288-.792-.792-.792h-.99c-.504 0-.918.216-1.242.63l-3.006 4.176-3.006-4.176c-.324-.414-.738-.63-1.26-.63h-.972c-.504 0-.792.306-.792.792v11.43c0 .54.27.81.792.81h1.53c.54 0 .81-.27.81-.81v-7.02l2.412 3.222a.61.61 0 0 0 .954 0l2.412-3.222v7.02Zm8.074-4.356h3.762c.504 0 .774-.306.774-.792v-1.116c0-.522-.252-.792-.774-.792h-3.762v-2.448h4.932c.504 0 .792-.306.792-.792V8.76c0-.486-.288-.792-.792-.792h-7.272c-.486 0-.792.342-.792.792v11.448c0 .45.306.792.792.792h7.272c.504 0 .792-.306.792-.792v-1.116c0-.486-.288-.792-.792-.792h-4.932v-2.466Z" fill="#313336"/></svg>