<svg width="33" height="24" fill="none" xmlns="http://www.w3.org/2000/svg"><path d="M3.49 8.048h4.495c.336 0 .512-.176.512-.512v-.608c0-.336-.176-.512-.512-.512h-5.84a.487.487 0 0 0-.512.512v10.56c0 .304.208.512.512.512h.848a.492.492 0 0 0 .496-.512v-4.544h3.92c.336 0 .496-.16.496-.496v-.608c0-.336-.16-.512-.496-.512H3.49v-3.28Zm16.921 3.008h2.432c.304 0 .448-.144.448-.448v-.384c0-.304-.144-.464-.448-.464h-2.432V7.824h3.072c.336 0 .512-.16.512-.464v-.48c0-.304-.176-.464-.512-.464h-4.224c-.336 0-.512.176-.512.512V14c0 .304.192.512.512.512h4.224c.336 0 .512-.16.512-.464v-.48c0-.304-.176-.464-.512-.464h-3.072v-2.048ZM9.883 17.488c0 .336.176.512.512.512h.848c.336 0 .512-.176.512-.512v-3.904h1.76l1.68 1.84c.368.4.688.72.96.96.288.24.672.512 1.136.816.96.576 2.24.88 3.824.88.56 0 1.12-.032 1.664-.112.336-.048.512-.24.512-.576v-.608c0-.304-.208-.496-.512-.448-.432.048-.896.08-1.408.08a6.903 6.903 0 0 1-2.272-.368c-.688-.24-1.216-.496-1.552-.752-.336-.256-.672-.576-1.04-.944l-1.072-1.104c1.6-.448 2.56-1.488 2.56-3.136 0-2.464-1.472-3.696-4.416-3.696h-3.184c-.336 0-.512.176-.512.512v10.56Zm6.336-7.408c0 1.344-1.008 1.968-2.592 1.968h-1.872v-4h1.792c1.648 0 2.672.64 2.672 2.032Zm10.911 2.864h3.888c.336 0 .496-.16.496-.496v-.608c0-.336-.16-.512-.496-.512H27.13v-3.28h4.832c.336 0 .512-.176.512-.512v-.608c0-.336-.176-.512-.512-.512H25.77c-.32 0-.512.208-.512.512v10.56c0 .304.192.512.512.512h6.192c.336 0 .512-.176.512-.512v-.608c0-.336-.176-.496-.512-.496H27.13v-3.44Z" fill="#313336"/></svg>