<svg width="128" height="88" fill="none" xmlns="http://www.w3.org/2000/svg"><path d="M84 0H44C19.699 0 0 19.703 0 44s19.699 44 44 44c7.211 0 13.996-1.766 20-4.844C70.004 86.234 76.789 88 84 88c24.301 0 44-19.703 44-44S108.301 0 84 0Zm0 80c-5.719 0-11.223-1.336-16.352-3.961A8.004 8.004 0 0 0 64 75.156a8 8 0 0 0-3.648.883C55.223 78.664 49.719 80 44 80 24.148 80 8 63.852 8 44S24.148 8 44 8h40c19.852 0 36 16.148 36 36s-16.148 36-36 36Z" fill="#fff"/><path d="M44 72c-6.617 0-12-5.383-12-12v-4h-4c-6.617 0-12-5.383-12-12s5.383-12 12-12h4v-4c0-6.617 5.383-12 12-12s12 5.383 12 12v4h4c6.617 0 12 5.383 12 12s-5.383 12-12 12h-4v4c0 6.617-5.383 12-12 12ZM28 40c-2.207 0-4 1.797-4 4 0 2.203 1.793 4 4 4h8c2.211 0 4 1.789 4 4v8c0 2.203 1.793 4 4 4s4-1.797 4-4v-8c0-2.211 1.789-4 4-4h8c2.207 0 4-1.797 4-4 0-2.203-1.793-4-4-4h-8c-2.211 0-4-1.789-4-4v-8c0-2.203-1.793-4-4-4s-4 1.797-4 4v8c0 2.211-1.789 4-4 4h-8ZM96 40c0 4.422-3.582 8-8 8s-8-3.578-8-8c0-4.422 3.582-8 8-8s8 3.578 8 8ZM112 32c0 4.422-3.582 8-8 8s-8-3.578-8-8c0-4.422 3.582-8 8-8s8 3.578 8 8ZM96 64c0 4.422-3.582 8-8 8s-8-3.578-8-8c0-4.422 3.582-8 8-8s8 3.578 8 8ZM112 56c0 4.422-3.582 8-8 8s-8-3.578-8-8c0-4.422 3.582-8 8-8s8 3.578 8 8Z" fill="#fff"/></svg>