<svg width="24" height="24" fill="none" xmlns="http://www.w3.org/2000/svg"><rect width="24" height="24" rx="12" fill="#EEDFFF"/><path fill-rule="evenodd" clip-rule="evenodd" d="M13.254 15.068c1.56-.184 3.217-.751 3.217-3.444 0-.765-.27-1.389-.708-1.87.07-.185.297-.879-.086-1.843 0 0-.567-.184-1.899.709a6.866 6.866 0 0 0-1.77-.255c-.596 0-1.22.1-1.773.255-1.346-.893-1.913-.709-1.913-.709-.382.964-.155 1.658-.085 1.843a2.701 2.701 0 0 0-.708 1.87c0 2.693 1.658 3.26 3.217 3.444-.199.17-.383.496-.454.95-.397.17-1.431.496-2.055-.582 0 0-.368-.665-1.063-.708 0 0-.694-.014-.056.425 0 0 .467.213.78 1.02 0 0 .424 1.347 2.38.922v1.204c0 .185-.142.397-.496.34a7.001 7.001 0 0 1-4.776-6.646c0-3.87 3.132-7 7.001-7 3.855 0 7 3.13 6.987 7a7.015 7.015 0 0 1-4.776 6.646c-.355.071-.496-.141-.496-.34v-1.941c0-.652-.213-1.077-.468-1.29ZM20 12.008C20 7.584 16.415 4 12.007 4A8.008 8.008 0 0 0 4 12.007C4 16.415 7.585 20 12.007 20 16.415 20 20 16.415 20 12.007Z" fill="#6100D4"/></svg>