<svg width="24" height="24" fill="none" xmlns="http://www.w3.org/2000/svg"><rect width="24" height="24" rx="12" fill="#EEDFFF"/><path fill-rule="evenodd" clip-rule="evenodd" d="M12.004 6.261c1.872 0 2.093.008 2.83.041.683.03 1.053.145 1.299.241.325.126.56.28.804.523.246.246.397.478.523.804.095.246.21.618.24 1.3.033.738.041.96.041 2.829 0 1.871-.008 2.093-.04 2.829-.03.684-.146 1.053-.241 1.3-.126.325-.28.56-.523.804a2.156 2.156 0 0 1-.804.522c-.246.096-.619.21-1.3.24-.739.034-.96.042-2.829.042-1.871 0-2.093-.008-2.829-.041-.684-.03-1.053-.145-1.3-.24a2.167 2.167 0 0 1-.804-.523 2.154 2.154 0 0 1-.522-.805c-.096-.246-.211-.618-.241-1.3-.033-.738-.041-.96-.041-2.828 0-1.872.008-2.093.04-2.83.03-.683.146-1.053.242-1.299.125-.326.279-.56.522-.804.246-.247.479-.397.805-.523.246-.096.618-.21 1.3-.24.735-.034.957-.042 2.828-.042Zm0-1.261c-1.901 0-2.14.008-2.886.041-.745.033-1.256.153-1.7.326-.462.18-.853.418-1.242.81-.39.388-.629.78-.81 1.239-.172.446-.292.955-.325 1.699-.033.75-.041.988-.041 2.89 0 1.9.008 2.139.041 2.886.033.744.153 1.255.326 1.699.18.462.418.853.81 1.242.388.388.78.629 1.239.807.446.172.955.293 1.699.325.747.033.985.042 2.886.042 1.902 0 2.14-.009 2.887-.042.744-.032 1.256-.153 1.699-.325.46-.178.85-.419 1.24-.807.388-.389.628-.78.806-1.24.173-.446.293-.954.326-1.699.033-.747.041-.985.041-2.886 0-1.902-.008-2.14-.041-2.887-.033-.744-.153-1.255-.326-1.699a3.28 3.28 0 0 0-.801-1.245 3.423 3.423 0 0 0-1.24-.807c-.446-.172-.954-.292-1.699-.325-.75-.036-.987-.044-2.889-.044Zm0 3.406a3.599 3.599 0 0 0 0 7.196 3.599 3.599 0 0 0 0-7.196Zm0 5.932a2.334 2.334 0 1 1 0-4.669 2.334 2.334 0 0 1 0 4.669Zm3.74-5.234a.84.84 0 1 0 0-1.68.84.84 0 0 0 0 1.68Z" fill="#6100D4"/></svg>