<svg width="24" height="24" fill="none" xmlns="http://www.w3.org/2000/svg"><path d="M2.5 6.868c0-.502.151-.969.413-1.355l.039-.054A2.277 2.277 0 0 1 4.8 4.5H19.2a2.28 2.28 0 0 1 1.85.96c.283.395.45.882.45 1.407v10.267c0 1.292-1.015 2.367-2.3 2.367H4.8c-1.285 0-2.3-1.075-2.3-2.367V6.867Zm2.433-1.367h-1.13l.76.836 6.327 6.966a1.498 1.498 0 0 0 2.22 0l6.327-6.966.76-.836H4.933ZM20.5 7.949V6.655l-.87.958-5.78 6.362a2.5 2.5 0 0 1-3.7 0L4.37 7.613l-.87-.958V17.134c0 .78.605 1.367 1.3 1.367h14.4c.695 0 1.3-.587 1.3-1.367V7.95Z" fill="#313336" stroke="#FF3815"/></svg>