<svg width="144" height="28" fill="none" xmlns="http://www.w3.org/2000/svg"><path d="M14.112 13.458h2.322c.432 0 .648-.216.648-.63v-.648c0-.414-.216-.63-.648-.63h-2.322v-1.332h3.06c.522 0 .774-.216.774-.666v-.918c0-.45-.252-.666-.774-.666h-4.986c-.504 0-.792.342-.792.792v7.524c0 .45.342.792.792.792h4.986c.522 0 .774-.216.774-.666v-.936c0-.45-.252-.666-.774-.666h-3.06v-1.35ZM.9 20.208c0 .45.288.792.792.792H3.24c.504 0 .792-.342.792-.792v-3.6h1.332l1.764 1.872c.738.792 1.296 1.242 2.376 1.818 1.098.558 2.646.828 4.644.828 1.098 0 2.016-.054 2.79-.18.504-.054.774-.432.774-.864v-1.134c0-.45-.288-.756-.774-.684-.864.09-1.638.144-2.34.144-2.358 0-4.122-.576-5.292-1.728l-.882-.864c1.494-.72 2.232-1.836 2.232-3.33 0-3.258-1.872-4.518-5.238-4.518H1.692c-.504 0-.792.342-.792.792v11.448Zm6.876-7.776c0 1.152-.864 1.728-2.16 1.728H4.032v-3.474h1.44c1.386 0 2.304.576 2.304 1.746Zm15.796 6.084c-1.062 0-1.782-.63-1.8-1.332-.018-.378-.288-.504-.846-.396l-1.386.234c-.522.09-.72.396-.63.882.162.936.612 1.71 1.368 2.34.774.612 1.836.918 3.204.9 1.71-.018 2.97-.342 3.744-1.008.774-.666 1.17-1.548 1.17-2.61 0-4.752-6.318-3.78-6.318-5.778 0-.774.486-1.278 1.494-1.278 1.08 0 1.8.666 1.854 1.53 0 .27.234.36.72.306l1.494-.252c.504-.09.72-.378.648-.882-.306-2.088-1.926-3.348-4.806-3.348-3.186 0-4.536 2.034-4.536 3.852 0 4.752 6.282 3.474 6.282 5.544 0 .864-.558 1.296-1.656 1.296Zm6.07-10.548c-.485 0-.791.342-.791.792v1.116c0 .45.306.792.792.792h2.34v9.54c0 .45.306.792.792.792h1.566c.486 0 .774-.342.774-.792v-9.54h2.358c.486 0 .792-.342.792-.792V8.76c0-.45-.306-.792-.792-.792h-7.83Zm9.737 12.24c0 .45.288.792.791.792h1.548c.504 0 .792-.342.792-.792v-3.6h.54l1.765 1.872c.738.792 1.296 1.242 2.376 1.818 1.097.558 2.627.828 4.625.828.972 0 1.71-.054 2.232-.144.486-.09.738-.432.738-.864v-1.17c0-.432-.27-.738-.773-.684-.666.09-1.26.144-1.746.144-2.61 0-4.105-.594-5.275-1.728l-.611-.594c1.655-.63 2.754-1.872 2.754-3.6 0-3.258-1.872-4.518-5.238-4.518H40.17c-.504 0-.791.342-.791.792v11.448Zm6.876-7.776c0 1.152-.864 1.728-2.16 1.728H42.51v-3.474h1.44c1.386 0 2.303.576 2.303 1.746Zm7.613-2.196h.234c.523 0 .793-.216.793-.666v-.936c0-.45-.27-.666-.793-.666H50.9c-.523 0-.793.234-.793.684v.918c0 .45.27.666.792.666h.252v4.572h-.252c-.522 0-.792.234-.792.702v.9c0 .45.27.666.792.666h3.204c.523 0 .793-.216.793-.666v-.918c0-.45-.27-.684-.793-.684h-.233v-4.572Zm7.083 8.118c-1.44 0-1.89-1.116-1.89-3.798 0-2.664.468-3.942 1.89-3.942 1.17 0 1.782.936 1.836 2.178.018.36.234.414.864.288l1.314-.234c.522-.072.774-.378.72-.9-.198-2.754-1.782-4.122-4.734-4.122-3.546 0-5.058 2.25-5.058 6.732 0 4.554 1.458 6.588 5.058 6.588 1.602 0 2.772-.36 3.474-1.08.702-.738 1.116-1.728 1.242-2.97.072-.63-.18-.828-.702-.9l-1.332-.216c-.54-.108-.828.054-.864.486-.108 1.26-.72 1.89-1.818 1.89Zm6.133-10.386c-.486 0-.792.342-.792.792v1.116c0 .45.306.792.792.792h2.34v9.54c0 .45.306.792.792.792h1.566c.486 0 .774-.342.774-.792v-9.54h2.358c.486 0 .792-.342.792-.792V8.76c0-.45-.306-.792-.792-.792h-7.83Zm12.868 7.866h3.762c.504 0 .774-.306.774-.792v-1.116c0-.522-.252-.792-.774-.792h-3.762v-2.448h4.932c.504 0 .792-.306.792-.792V8.76c0-.486-.288-.792-.792-.792h-7.272c-.486 0-.792.342-.792.792v11.448c0 .45.306.792.792.792h7.272c.504 0 .792-.306.792-.792v-1.116c0-.486-.288-.792-.792-.792h-4.932v-2.466ZM90.902 21c1.854 0 3.384-.576 4.572-1.746 1.206-1.17 1.8-2.718 1.8-4.68 0-1.962-.594-3.564-1.8-4.77-1.206-1.224-2.718-1.836-4.572-1.836H87.86c-.486 0-.792.342-.792.792v11.448c0 .45.306.792.792.792h3.042Zm3.222-6.426c0 2.358-1.26 3.726-3.348 3.726H90.2v-7.614h.576c2.07 0 3.348 1.512 3.348 3.888Zm7.85 5.634c0 .45.288.792.792.792h1.548c.504 0 .792-.342.792-.792v-3.6h1.26l1.764 1.872c.81.846 1.8 1.494 2.952 1.962 1.152.45 2.79.684 4.896.684.918 0 1.872-.054 2.898-.18.504-.054.774-.432.774-.864v-1.134c0-.45-.27-.756-.774-.702-1.368.108-2.178.162-2.43.162-1.602 0-2.862-.144-3.798-.414-.936-.288-1.71-.72-2.34-1.314l-.864-.828c1.53-.738 2.286-1.872 2.286-3.366 0-3.258-1.872-4.518-5.238-4.518h-3.726c-.504 0-.792.342-.792.792v11.448Zm15.714-6.804c0 1.098-.378 1.638-1.152 1.638-.774 0-1.17-.54-1.17-1.638V8.76c0-.45-.288-.792-.792-.792h-1.134c-.504 0-.792.342-.792.792v4.482c0 2.718 1.296 4.086 3.888 4.086 2.574 0 3.87-1.368 3.87-4.086V8.76c0-.45-.288-.792-.792-.792h-1.134c-.504 0-.792.342-.792.792v4.644Zm-8.838-.972c0 1.152-.864 1.728-2.16 1.728h-1.584v-3.474h1.44c1.386 0 2.304.576 2.304 1.746Zm13.023 7.776c0 .45.288.792.792.792h9.45c.522 0 .792-.27.792-.792v-1.116c0-.522-.27-.792-.792-.792h-7.11V8.76c0-.45-.288-.792-.792-.792h-1.548c-.504 0-.792.342-.792.792v11.448Zm7.092-6.75h2.322c.432 0 .648-.216.648-.63v-.648c0-.414-.216-.63-.648-.63h-2.322v-1.332h3.042c.522 0 .792-.216.792-.666v-.918c0-.45-.27-.666-.792-.666h-4.968c-.504 0-.792.342-.792.792v7.524c0 .45.342.792.792.792h4.968c.522 0 .792-.216.792-.666v-.936c0-.45-.27-.666-.792-.666h-3.042v-1.35Zm9.533 5.058c-1.062 0-1.782-.63-1.8-1.332-.018-.378-.288-.504-.846-.396l-1.386.234c-.522.09-.72.396-.63.882.162.936.612 1.71 1.368 2.34.774.612 1.836.918 3.204.9 1.71-.018 2.97-.342 3.744-1.008.774-.666 1.17-1.548 1.17-2.61 0-4.752-6.318-3.78-6.318-5.778 0-.774.486-1.278 1.494-1.278 1.08 0 1.8.666 1.854 1.53 0 .27.234.36.72.306l1.494-.252c.504-.09.72-.378.648-.882-.306-2.088-1.926-3.348-4.806-3.348-3.186 0-4.536 2.034-4.536 3.852 0 4.752 6.282 3.474 6.282 5.544 0 .864-.558 1.296-1.656 1.296Z" fill="#313336"/></svg>