<svg width="24" height="24" fill="none" xmlns="http://www.w3.org/2000/svg"><path d="m9.538 6.855-.301-.073-2.605-.628-.024-.006-.023-.008a2.277 2.277 0 0 0-2.777 1.113l-.005.01-.005.008-2.2 3.9a.5.5 0 0 0 .33.735h.001l3.073.658.544.117-.174.528a12.92 12.92 0 0 0-.534 2.343.5.5 0 0 0 .142.418l3.1 3.1a.498.498 0 0 0 .397.145c.81-.073 1.61-.23 2.388-.47l.521-.16.115.534.644 3.003a.5.5 0 0 0 .734.33l3.898-2.198A2.535 2.535 0 0 0 17.92 17.5L9.538 6.856Zm0 0 .199-.237 1.114-1.323a10.752 10.752 0 0 1 10.91-3.462.5.5 0 0 1 .356.356 10.705 10.705 0 0 1-3.465 10.913l-.009.007-.008.008-1.237 1.137-.217.2.07.286.668 2.759L9.538 6.855Zm-6.401 3.623-.334.592.664.143 2.105.45.374.08.175-.34c.423-.822.935-1.595 1.528-2.306l.649-.77.52-.618-.785-.19-1.678-.407a1.325 1.325 0 0 0-1.666.613l-1.552 2.753Zm13.151 8.904.02-.012.02-.013a1.541 1.541 0 0 0 .615-1.643l-.403-1.662-.2-.825-.624.575-.74.68a10.841 10.841 0 0 1-2.302 1.544l-.347.173.081.379.43 2.005.142.665.592-.335 2.716-1.531ZM14.3 15.745l.006-.005.005-.005 3.676-3.378a9.72 9.72 0 0 0 3.304-9.301l-.064-.333-.334-.063a9.777 9.777 0 0 0-9.284 3.288v.001l-1.436 1.704-.01.012-.01.013a.46.46 0 0 1-.037.044l-.01.012-.01.012-1.68 1.993a11.432 11.432 0 0 0-2.51 5.445l-.043.254.182.182 2.404 2.405.173.173.243-.03a10.274 10.274 0 0 0 5.435-2.423Zm2.435-9.428a1 1 0 0 1 1 1 1 1 0 1 1-1-1Z" fill="#6100D4" stroke="#6100D4"/></svg>