<svg width="32" height="32" fill="none" xmlns="http://www.w3.org/2000/svg"><path d="M27 3H5a1 1 0 1 1 0-2h22a1 1 0 1 1 0 2ZM27 31H5a1 1 0 1 1 0-2h22a1 1 0 1 1 0 2Z" fill="#fff"/><path d="M24.4 31H7.6a1 1 0 0 1-1-.997c0-.19.005-4.728 1.782-8.602 1.202-2.62 2.568-4.465 3.34-5.401-.772-.935-2.138-2.781-3.34-5.401C6.605 6.725 6.6 2.187 6.6 1.997A1 1 0 0 1 7.6 1h16.8a1 1 0 0 1 1 .997c0 .19-.005 4.728-1.783 8.602-1.202 2.62-2.568 4.466-3.34 5.401.772.936 2.138 2.781 3.34 5.401 1.777 3.874 1.783 8.412 1.782 8.602a1 1 0 0 1-1 .997ZM8.641 29h14.715c-.1-1.472-.434-4.315-1.558-6.765-1.604-3.496-3.55-5.516-3.569-5.537a1.002 1.002 0 0 1 0-1.396c.019-.02 1.965-2.041 3.57-5.537 1.123-2.45 1.458-5.293 1.557-6.765H8.642c.1 1.472.434 4.315 1.558 6.765 1.604 3.496 3.55 5.516 3.57 5.537a1.002 1.002 0 0 1 0 1.396c-.02.02-1.966 2.041-3.57 5.537C9.076 24.685 8.74 27.528 8.642 29Z" fill="#fff"/><path d="M11.225 26.98s-.009-2.537.962-4.652c.97-2.114 2.551-3.308 3.814-3.308 1.262 0 2.844 1.194 3.814 3.308.97 2.115.962 4.652.962 4.652h-9.552Z" fill="#fff"/></svg>