<svg width="24" height="24" fill="none" xmlns="http://www.w3.org/2000/svg"><g opacity=".5" stroke="#000" stroke-width="1.5" stroke-linecap="round" stroke-linejoin="round"><path d="M12 14a2 2 0 1 0 0-4 2 2 0 0 0 0 4Z"/><path d="M17.382 14.182a1.2 1.2 0 0 0 .24 1.323l.044.044a1.455 1.455 0 1 1-2.059 2.058l-.043-.043a1.2 1.2 0 0 0-1.324-.24 1.2 1.2 0 0 0-.727 1.098v.123a1.455 1.455 0 1 1-2.91 0v-.065a1.2 1.2 0 0 0-.785-1.098 1.2 1.2 0 0 0-1.323.24l-.044.044a1.455 1.455 0 1 1-2.058-2.059l.043-.043a1.2 1.2 0 0 0 .24-1.324 1.2 1.2 0 0 0-1.098-.727h-.123a1.454 1.454 0 1 1 0-2.91h.065a1.2 1.2 0 0 0 1.098-.785 1.2 1.2 0 0 0-.24-1.323l-.043-.044a1.455 1.455 0 1 1 2.058-2.058l.043.043a1.2 1.2 0 0 0 1.324.24h.058a1.2 1.2 0 0 0 .728-1.098v-.123a1.454 1.454 0 1 1 2.909 0v.065a1.2 1.2 0 0 0 .727 1.098 1.2 1.2 0 0 0 1.323-.24l.044-.043a1.455 1.455 0 1 1 2.058 2.058l-.043.043a1.2 1.2 0 0 0-.24 1.324v.058a1.2 1.2 0 0 0 1.098.728h.123a1.455 1.455 0 1 1 0 2.909h-.065a1.2 1.2 0 0 0-1.098.727v0Z"/></g></svg>