<svg width="87" height="12" fill="none" xmlns="http://www.w3.org/2000/svg"><path d="M4.066 9.712c-1.134 0-1.764-.574-1.862-1.344-.028-.238-.196-.336-.504-.28l-.644.098c-.294.056-.42.224-.378.504.098.7.434 1.288.98 1.75.56.462 1.344.7 2.366.686 2.422-.014 3.458-1.148 3.458-2.73 0-3.696-5.054-2.786-5.054-4.872 0-.784.532-1.358 1.638-1.358 1.106 0 1.736.588 1.834 1.498 0 .224.14.308.434.266l.7-.112c.294-.042.42-.21.378-.504C7.244 1.732 6.096.752 4.024.752c-1.05 0-1.862.28-2.408.826-.546.546-.812 1.19-.812 1.918 0 3.598 5.026 2.478 5.026 4.746 0 .98-.588 1.47-1.764 1.47ZM8.46.864c-.294 0-.448.154-.448.448v.532c0 .294.154.434.448.434h2.24v8.274c0 .294.14.448.434.448h.742c.294 0 .448-.154.448-.448V2.278h2.254c.294 0 .434-.14.434-.434v-.532c0-.294-.14-.448-.434-.448H8.46ZM15.822 11c.308 0 .504-.14.574-.434l.392-1.568h3.024l.406 1.582c.07.28.252.42.56.42h.826c.266 0 .378-.21.322-.434l-2.674-9.31C19.182.99 19 .864 18.706.864h-.756c-.35 0-.448.07-.546.392l-2.674 9.31c-.07.294.028.434.294.434h.798Zm1.288-3.234 1.19-4.662 1.19 4.662h-2.38Zm10.915-.91c1.386-.448 2.072-1.372 2.072-2.758 0-2.156-1.288-3.234-3.864-3.234h-2.786c-.28 0-.448.182-.448.448v9.24c0 .294.154.448.448.448h.742c.294 0 .448-.154.448-.448V7.136h1.47c.182 0 .322 0 .392-.014l1.638 3.472c.126.266.336.406.63.406h.756c.266 0 .364-.196.266-.406l-1.764-3.738Zm.518-2.786c0 1.176-.882 1.722-2.268 1.722h-1.638v-3.5h1.568c1.442 0 2.338.56 2.338 1.778ZM30.951.864c-.294 0-.448.154-.448.448v.532c0 .294.154.434.448.434h2.24v8.274c0 .294.14.448.434.448h.742c.294 0 .448-.154.448-.448V2.278h2.254c.294 0 .434-.14.434-.434v-.532c0-.294-.14-.448-.434-.448H30.95Zm10.218 9.688c0 .294.154.448.448.448h.742c.294 0 .448-.154.448-.448V7.276h1.652c2.352 0 3.878-1.092 3.878-3.178 0-2.156-1.288-3.234-3.85-3.234h-2.87c-.28 0-.448.182-.448.448v9.24Zm3.29-8.26c1.414 0 2.324.56 2.324 1.778s-.868 1.778-2.268 1.778h-1.708V2.292h1.652Zm5.064 8.26c0 .294.154.448.448.448h7.126c.294 0 .434-.154.434-.448v-.532c0-.294-.14-.434-.434-.434H51.16V1.312c0-.294-.154-.448-.448-.448h-.742c-.294 0-.448.154-.448.448v9.24Zm6.314-3.92.238.896c.07.28.252.42.56.42h.476c.266 0 .378-.196.308-.42l-1.82-6.244c-.098-.28-.294-.42-.574-.42h-.602c-.28 0-.476.14-.574.42l-1.82 6.244c-.056.224.056.42.322.42h.476c.308 0 .49-.14.546-.42l.238-.896h2.226ZM53.89 5.596l.84-3.192.84 3.192h-1.68Zm6.213 4.956c0 .294.14.448.434.448h.742c.294 0 .448-.154.448-.448V7.08l2.814-5.81c.112-.21.014-.406-.252-.406h-.784c-.294 0-.504.126-.63.392l-1.904 4.116-1.876-4.102c-.126-.266-.336-.406-.63-.406h-.896c-.266 0-.364.196-.252.406l2.786 5.838v3.444Zm7.82-8.26h.601c.294 0 .448-.154.448-.448v-.532c0-.294-.154-.448-.448-.448H65.67c-.294 0-.434.154-.434.448v.532c0 .294.14.448.434.448h.616v7.294h-.616c-.294 0-.434.14-.434.434v.532c0 .294.14.448.434.448h2.856c.294 0 .448-.154.448-.448v-.532c0-.294-.154-.434-.448-.434h-.602V2.292Zm4.06-1.12a1.025 1.025 0 0 0-.756-.308h-.462c-.294 0-.449.154-.449.448v9.24c0 .294.155.448.449.448h.741c.294 0 .448-.154.448-.448V3.258l4.088 4.144v3.15c0 .294.154.448.448.448h.728c.294 0 .449-.154.449-.448v-9.24c0-.294-.155-.448-.449-.448h-.727c-.294 0-.449.154-.449.448v4.032l-4.06-4.172Zm10.994 4.676c-.294 0-.448.14-.448.434v.322c0 .294.154.448.448.448h1.75v.574c0 1.358-.644 2.03-1.932 2.03-1.092-.056-1.596-.448-1.834-1.414-.154-.672-.168-1.218-.168-2.24 0-1.162.07-1.834.308-2.618.266-.784.812-1.176 1.694-1.176 1.274 0 1.876.826 1.918 2.002.014.252.182.35.49.294l.63-.112c.336-.056.42-.182.406-.518-.056-.91-.28-1.582-.784-2.184-.504-.602-1.414-.938-2.66-.938-1.806 0-2.758.826-3.234 2.156-.322.91-.42 1.848-.42 3.094 0 1.722.182 2.828.7 3.766.546.91 1.498 1.344 2.954 1.344 2.296 0 3.444-1.176 3.444-3.542V6.282c0-.266-.168-.434-.448-.434h-2.814Z" fill="#fff"/></svg>