<svg width="26" height="24" fill="none" xmlns="http://www.w3.org/2000/svg"><path d="M21 24H5a3 3 0 0 1-3-3V11a1 1 0 1 1 2 0v10a1 1 0 0 0 1 1h16a1 1 0 0 0 1-1V11a1 1 0 0 1 2 0v10a3 3 0 0 1-3 3Z" fill="#fff"/><path d="M12 24H7a1 1 0 0 1-1-1v-6a3 3 0 0 1 3-3h1a3 3 0 0 1 3 3v6a1 1 0 0 1-1 1Zm-4-2h3v-5a1 1 0 0 0-1-1H9a1 1 0 0 0-1 1v5ZM22 12a4 4 0 0 1-4-4 1 1 0 0 1 2 0 2 2 0 1 0 4 0v-.76L21.38 2H4.62L2 7.24V8a2 2 0 1 0 4 0 1 1 0 0 1 2 0 4 4 0 1 1-8 0V7a1 1 0 0 1 .11-.45l3-6A1 1 0 0 1 4 0h18a1 1 0 0 1 .89.55l3 6A1 1 0 0 1 26 7v1a4 4 0 0 1-4 4Z" fill="#fff"/><path d="M10 12a4 4 0 0 1-4-4 1 1 0 0 1 2 0 2 2 0 1 0 4 0 1 1 0 0 1 2 0 4 4 0 0 1-4 4Z" fill="#fff"/><path d="M16 12a4 4 0 0 1-4-4 1 1 0 0 1 2 0 2 2 0 1 0 4 0 1 1 0 0 1 2 0 4 4 0 0 1-4 4ZM19 17h-3a1 1 0 0 1 0-2h3a1 1 0 0 1 0 2Z" fill="#fff"/></svg>