<svg width="502" height="114" fill="none" xmlns="http://www.w3.org/2000/svg"><path d="M.073 75.778h38.6V94.7a19.299 19.299 0 0 1-32.947 13.647A19.299 19.299 0 0 1 .073 94.7V75.778Z" fill="#FF240A"/><path d="M38.674 75.778h38.6V94.7a19.299 19.299 0 1 1-38.6 0V75.778Z" fill="#FFBF99"/><path d="M77.284 75.778h38.6V94.7a19.297 19.297 0 0 1-19.3 19.3 19.298 19.298 0 0 1-19.3-19.3V75.778ZM173.794 114a19.294 19.294 0 0 1-17.83-11.914 19.301 19.301 0 0 1-1.47-7.386V75.778h38.6V94.7a19.297 19.297 0 0 1-19.3 19.3Z" fill="#FF240A"/><path d="M212.395 114a19.31 19.31 0 0 1-19.3-19.3V75.778h38.61V94.7a19.307 19.307 0 0 1-19.31 19.3ZM135.195 114a19.31 19.31 0 0 1-19.311-19.3V75.778h38.611V94.7a19.3 19.3 0 0 1-19.3 19.3Z" fill="#FFBF99"/><path d="M251.005 114a19.297 19.297 0 0 1-19.3-19.3V75.779h38.6V94.7a19.297 19.297 0 0 1-19.3 19.3Z" fill="#FF240A"/><path d="M289.605 114a19.3 19.3 0 0 1-19.3-19.3V75.778h38.6V94.7a19.3 19.3 0 0 1-19.3 19.3Z" fill="#FFBF99"/><path d="M328.249 114a19.31 19.31 0 0 1-19.311-19.3V75.778h38.611V94.7a19.3 19.3 0 0 1-19.3 19.3Z" fill="#FF240A"/><path d="M366.816 114a19.297 19.297 0 0 1-19.3-19.3V75.779h38.6V94.7a19.3 19.3 0 0 1-19.3 19.3Z" fill="#FFBF99"/><path d="M405.416 114a19.298 19.298 0 0 1-19.3-19.3V75.778h38.611V94.7a19.312 19.312 0 0 1-19.311 19.3Z" fill="#FF240A"/><path d="M444.027 114a19.3 19.3 0 0 1-19.3-19.3V75.778h38.599V94.7a19.3 19.3 0 0 1-19.299 19.3Z" fill="#FFBF99"/><path d="M482.627 114a19.297 19.297 0 0 1-19.3-19.3V75.779h38.6V94.7a19.3 19.3 0 0 1-19.3 19.3Z" fill="#FF240A"/><path d="M.073 75.778h501.853l-20.487-34.846a10 10 0 0 0-8.62-4.932H29.181a10 10 0 0 0-8.62 4.932L.073 75.778Z" fill="#FFD9C2"/><path d="M.073 75.778 20.54 40.935A10 10 0 0 1 29.162 36H58.45L38.673 75.778H.073ZM77.284 75.778 93.46 36h35.011l-12.586 39.778h-38.6ZM154.494 75.778 163.479 36h35.011l-5.396 39.778h-38.6ZM501.927 75.778 481.46 40.935A9.998 9.998 0 0 0 472.838 36h-29.287l19.776 39.778h38.6ZM424.716 75.778 408.541 36h-35.01l12.585 39.778h38.6ZM347.506 75.778 338.52 36h-35.01l5.396 39.778h38.6ZM231.695 75.778 233.5 36h35l1.805 39.778h-38.61Z" fill="#FF412B"/><g filter="url(#a)"><rect x="101" width="300" height="50" rx="8" fill="#FF3815"/><rect x="102.5" y="1.5" width="297" height="47" rx="6.5" stroke="#D62000" stroke-width="3"/></g><defs><filter id="a" x="101" y="0" width="300" height="68" filterUnits="userSpaceOnUse" color-interpolation-filters="sRGB"><feFlood flood-opacity="0" result="BackgroundImageFix"/><feColorMatrix in="SourceAlpha" values="0 0 0 0 0 0 0 0 0 0 0 0 0 0 0 0 0 0 127 0" result="hardAlpha"/><feMorphology radius="9" in="SourceAlpha" result="effect1_dropShadow_522:13970"/><feOffset dy="20"/><feGaussianBlur stdDeviation="3.5"/><feColorMatrix values="0 0 0 0 0 0 0 0 0 0 0 0 0 0 0 0 0 0 0.1 0"/><feBlend in2="BackgroundImageFix" result="effect1_dropShadow_522:13970"/><feColorMatrix in="SourceAlpha" values="0 0 0 0 0 0 0 0 0 0 0 0 0 0 0 0 0 0 127 0" result="hardAlpha"/><feOffset dy="6"/><feColorMatrix values="0 0 0 0 0.839216 0 0 0 0 0.12549 0 0 0 0 0 0 0 0 1 0"/><feBlend in2="effect1_dropShadow_522:13970" result="effect2_dropShadow_522:13970"/><feBlend in="SourceGraphic" in2="effect2_dropShadow_522:13970" result="shape"/></filter></defs></svg>