<svg width="24" height="24" fill="none" xmlns="http://www.w3.org/2000/svg"><rect width="24" height="24" rx="12" fill="#EEDFFF"/><path d="M18.728 8.37c-.15-.56-.59-1-1.149-1.15C16.565 6.95 12.5 6.95 12.5 6.95s-4.065 0-5.08.271c-.558.15-.999.59-1.148 1.15C6 9.384 6 11.499 6 11.499s0 2.115.272 3.129c.15.56.59 1 1.149 1.15 1.014.27 5.079.27 5.079.27s4.065 0 5.08-.27c.558-.15.999-.59 1.148-1.15.272-1.014.272-3.13.272-3.13s0-2.114-.272-3.128ZM11.2 13.449v-3.9l3.377 1.95-3.377 1.95Z" fill="#6100D4"/></svg>