<svg width="24" height="24" viewBox="0 0 24 24" fill="none" xmlns="http://www.w3.org/2000/svg">
<path fill-rule="evenodd" clip-rule="evenodd" d="M21.3333 12C21.3333 17.1547 17.1547 21.3333 12 21.3333C6.84534 21.3333 2.66667 17.1547 2.66667 12C2.66667 6.84534 6.84534 2.66667 12 2.66667C17.1547 2.66667 21.3333 6.84534 21.3333 12ZM22 12C22 17.5228 17.5228 22 12 22C6.47715 22 2 17.5228 2 12C2 6.47715 6.47715 2 12 2C17.5228 2 22 6.47715 22 12ZM8.88673 8.05919C13.62 7.45704 15.8058 11.6377 15.4272 12.0506C15.169 12.3259 14.7731 12.3431 14.4289 12.3431C13.3953 12.3655 12.0831 11.589 11.1671 11.047C10.6798 10.7586 10.3046 10.5366 10.1432 10.5366C9.26539 10.5538 7.94009 11.9646 7.06229 13.1173C6.70085 13.599 4.4289 14.3388 4.68708 13.0656C5.49603 8.93661 8.28433 8.12801 8.88673 8.05919ZM15.4788 15.8699C10.7456 16.4721 8.5597 12.2914 8.93835 11.8785C9.19653 11.6033 9.5924 11.5861 9.93663 11.5861C10.9702 11.5636 12.2824 12.3401 13.1984 12.8821C13.6858 13.1705 14.061 13.3925 14.2223 13.3925C15.1001 13.3753 16.4254 11.9646 17.3032 10.8119C17.6647 10.3301 19.9366 9.59036 19.6785 10.8635C18.8695 14.9753 16.0812 15.7839 15.4788 15.8699Z" fill="#FF3815"/>
</svg>
