<svg width="393" height="402" viewBox="0 0 393 402" fill="none" xmlns="http://www.w3.org/2000/svg">
<path d="M342.78 268H137.65C134.247 268.006 130.942 266.853 128.28 264.733C125.618 262.612 123.756 259.649 123 256.33L88.4603 105.85C87.955 103.652 87.952 101.368 88.4515 99.1686C88.9509 96.9691 89.9399 94.9105 91.3449 93.1461C92.7499 91.3817 94.5347 89.9568 96.5665 88.9776C98.5983 87.9983 100.825 87.4898 103.08 87.49H377.35C379.608 87.4853 381.838 87.9905 383.874 88.9678C385.909 89.9451 387.698 91.3694 389.106 93.1344C390.515 94.8993 391.506 96.9595 392.007 99.1612C392.509 101.363 392.506 103.649 392 105.85L357.4 256.33C356.646 259.644 354.788 262.603 352.132 264.723C349.476 266.843 346.179 267.999 342.78 268V268ZM149.59 238H330.84L358.51 117.52H121.91L149.59 238Z" fill="white"/>
<path d="M167.001 402C155.632 402 144.519 398.629 135.066 392.313C125.614 385.997 118.246 377.02 113.896 366.517C109.545 356.014 108.407 344.456 110.625 333.306C112.843 322.156 118.317 311.914 126.356 303.875C134.395 295.837 144.637 290.362 155.787 288.144C166.937 285.927 178.494 287.065 188.997 291.415C199.5 295.766 208.477 303.133 214.793 312.586C221.109 322.038 224.481 333.152 224.481 344.52C224.465 359.76 218.404 374.371 207.627 385.147C196.851 395.923 182.24 401.984 167.001 402V402ZM167.001 317.05C161.565 317.05 156.252 318.662 151.732 321.682C147.213 324.702 143.691 328.994 141.611 334.016C139.532 339.038 138.988 344.564 140.049 349.895C141.11 355.226 143.729 360.122 147.573 363.965C151.417 367.808 156.314 370.424 161.646 371.483C166.977 372.542 172.502 371.997 177.524 369.915C182.545 367.834 186.836 364.31 189.854 359.79C192.873 355.269 194.483 349.955 194.481 344.52C194.473 337.235 191.575 330.251 186.422 325.101C181.27 319.951 174.285 317.055 167.001 317.05V317.05Z" fill="white"/>
<path d="M313.42 402C302.052 402 290.939 398.629 281.486 392.313C272.034 385.997 264.666 377.02 260.316 366.517C255.965 356.014 254.827 344.456 257.045 333.306C259.263 322.156 264.737 311.914 272.776 303.875C280.815 295.837 291.057 290.362 302.207 288.144C313.357 285.927 324.914 287.065 335.417 291.415C345.92 295.766 354.897 303.133 361.213 312.586C367.529 322.038 370.9 333.152 370.9 344.52C370.885 359.76 364.824 374.371 354.047 385.147C343.271 395.923 328.66 401.984 313.42 402V402ZM313.42 317.05C307.985 317.05 302.672 318.662 298.152 321.682C293.633 324.702 290.111 328.994 288.031 334.016C285.952 339.038 285.408 344.564 286.469 349.895C287.53 355.226 290.149 360.122 293.993 363.965C297.837 367.808 302.734 370.424 308.066 371.483C313.397 372.542 318.922 371.997 323.944 369.915C328.965 367.834 333.256 364.31 336.274 359.79C339.292 355.269 340.902 349.955 340.9 344.52C340.893 337.235 337.994 330.251 332.842 325.101C327.69 319.951 320.705 317.055 313.42 317.05Z" fill="white"/>
<path d="M103.08 117.49C99.9316 117.49 96.8629 116.499 94.3089 114.657C91.7549 112.816 89.8452 110.217 88.8502 107.23L63.1402 30H15.7002C11.7219 30 7.90664 28.4197 5.09359 25.6066C2.28055 22.7936 0.700195 18.9782 0.700195 15C0.700195 11.0218 2.28055 7.20644 5.09359 4.3934C7.90664 1.58035 11.7219 0 15.7002 0H74.0002C77.1488 0.000291324 80.2175 0.991372 82.7715 2.83282C85.3255 4.67428 87.2352 7.27272 88.2302 10.26L117.36 97.75C118.111 100.005 118.316 102.405 117.957 104.754C117.598 107.104 116.686 109.334 115.297 111.262C113.907 113.189 112.079 114.759 109.964 115.842C107.849 116.925 105.507 117.49 103.13 117.49H103.08Z" fill="white"/>
</svg>
