<svg width="24" height="24" viewBox="0 0 24 24" fill="none" xmlns="http://www.w3.org/2000/svg">
<path d="M16.8462 10.5H11.6538C11.0166 10.5 10.5 11.0166 10.5 11.6538V16.8462C10.5 17.4834 11.0166 18 11.6538 18H16.8462C17.4834 18 18 17.4834 18 16.8462V11.6538C18 11.0166 17.4834 10.5 16.8462 10.5Z" stroke="#D1D2D6" stroke-width="1.5" stroke-linecap="round" stroke-linejoin="round"/>
<path d="M7.73077 13.5H7.15385C6.84783 13.5 6.55434 13.3784 6.33795 13.162C6.12157 12.9457 6 12.6522 6 12.3462V7.15385C6 6.84783 6.12157 6.55434 6.33795 6.33795C6.55434 6.12157 6.84783 6 7.15385 6H12.3462C12.6522 6 12.9457 6.12157 13.162 6.33795C13.3784 6.55434 13.5 6.84783 13.5 7.15385V7.73077" stroke="#D1D2D6" stroke-width="1.5" stroke-linecap="round" stroke-linejoin="round"/>
</svg>
