<svg width="24" height="24" viewBox="0 0 24 24" fill="none" xmlns="http://www.w3.org/2000/svg">
<rect width="24" height="24" rx="12" fill="#EEDFFF"/>
<path d="M9.77272 11.8749C10.4849 11.8749 11.0617 12.409 11.0487 13.0618C11.0487 13.7147 10.4861 14.2488 9.77272 14.2488C9.07242 14.2488 8.49556 13.7147 8.49556 13.0618C8.49556 12.409 9.05936 11.8749 9.77272 11.8749ZM14.3401 11.8749C15.0535 11.8749 15.6173 12.409 15.6173 13.0618C15.6173 13.7147 15.0535 14.2488 14.3401 14.2488C13.6398 14.2488 13.0641 13.7147 13.0641 13.0618C13.0641 12.409 13.6267 11.8749 14.3401 11.8749ZM15.5235 17.469C18.2214 17.3823 19.26 15.5746 19.26 15.5746C19.26 11.5615 17.5009 8.30812 17.5009 8.30812C15.7443 6.9633 14.0707 7.0001 14.0707 7.0001L13.8997 7.19951C15.9757 7.84758 16.9395 8.7829 16.9395 8.7829C15.8061 8.1443 14.5569 7.73759 13.2647 7.58645C12.4451 7.49387 11.6172 7.50185 10.7994 7.61019C10.7258 7.61019 10.6641 7.62325 10.5917 7.63512C10.1644 7.6731 9.12583 7.83452 7.82019 8.42088C7.36915 8.63215 7.09971 8.7829 7.09971 8.7829C7.09971 8.7829 8.11337 7.79773 10.3104 7.14965L10.1882 7.0001C10.1882 7.0001 8.51574 6.9633 6.75787 8.3093C6.75787 8.3093 5 11.5615 5 15.5746C5 15.5746 6.02552 17.3812 8.72346 17.469C8.72346 17.469 9.1745 16.9087 9.54245 16.4352C7.99111 15.9604 7.40594 14.9633 7.40594 14.9633C7.40594 14.9633 7.52701 15.0512 7.7466 15.1758C7.75847 15.1877 7.77034 15.2007 7.79526 15.2126C7.83206 15.2387 7.86886 15.2506 7.90565 15.2755C8.2107 15.45 8.51574 15.5865 8.79586 15.6992C9.29675 15.8987 9.89498 16.0981 10.5917 16.2357C11.6354 16.4403 12.7085 16.4444 13.7537 16.2476C14.3626 16.139 14.9565 15.9593 15.5235 15.7123C15.9508 15.5497 16.4268 15.3123 16.9276 14.9764C16.9276 14.9764 16.3176 15.9984 14.7175 16.4601C15.0843 16.9337 15.5247 17.469 15.5247 17.469H15.5235Z" fill="#6100D4"/>
</svg>
