<svg width="120" height="28" viewBox="0 0 120 28" fill="none" xmlns="http://www.w3.org/2000/svg">
<path d="M4.032 10.668H8.37C8.892 10.668 9.144 10.398 9.144 9.876V8.76C9.144 8.274 8.874 7.968 8.37 7.968H1.692C1.26 7.968 0.9 8.328 0.9 8.76V20.208C0.9 20.64 1.242 21 1.692 21H3.24C3.69 21 4.032 20.64 4.032 20.208V15.834H7.794C8.298 15.834 8.586 15.528 8.586 15.042V13.926C8.586 13.44 8.298 13.134 7.794 13.134H4.032V10.668ZM20.2378 14.556C20.2378 9.93 18.6358 7.824 15.1258 7.824C11.5978 7.824 10.0138 9.93 10.0138 14.556C10.0138 19.164 11.5798 21.144 15.1258 21.144C18.6538 21.144 20.2378 19.164 20.2378 14.556ZM13.1818 14.556C13.1818 11.802 13.7578 10.614 15.1258 10.614C16.4758 10.614 17.0698 11.802 17.0698 14.556C17.0698 17.22 16.4758 18.354 15.1258 18.354C13.7578 18.354 13.1818 17.238 13.1818 14.556ZM34.8366 13.458H37.1586C37.5906 13.458 37.8066 13.242 37.8066 12.828V12.18C37.8066 11.766 37.5906 11.55 37.1586 11.55H34.8366V10.218H37.8966C38.4186 10.218 38.6706 10.002 38.6706 9.552V8.634C38.6706 8.184 38.4186 7.968 37.8966 7.968H32.9106C32.4066 7.968 32.1186 8.31 32.1186 8.76V16.284C32.1186 16.734 32.4606 17.076 32.9106 17.076H37.8966C38.4186 17.076 38.6706 16.86 38.6706 16.41V15.474C38.6706 15.024 38.4186 14.808 37.8966 14.808H34.8366V13.458ZM21.6246 20.208C21.6246 20.658 21.9126 21 22.4166 21H23.9646C24.4686 21 24.7566 20.658 24.7566 20.208V16.608H26.0886L27.8526 18.48C28.5906 19.272 29.1486 19.722 30.2286 20.298C31.3266 20.856 32.8746 21.126 34.8726 21.126C35.9706 21.126 36.8886 21.072 37.6626 20.946C38.1666 20.892 38.4366 20.514 38.4366 20.082V18.948C38.4366 18.498 38.1486 18.192 37.6626 18.264C36.7986 18.354 36.0246 18.408 35.3226 18.408C32.9646 18.408 31.2006 17.832 30.0306 16.68L29.1486 15.816C30.6426 15.096 31.3806 13.98 31.3806 12.486C31.3806 9.228 29.5086 7.968 26.1426 7.968H22.4166C21.9126 7.968 21.6246 8.31 21.6246 8.76V20.208ZM28.5006 12.432C28.5006 13.584 27.6366 14.16 26.3406 14.16H24.7566V10.686H26.1966C27.5826 10.686 28.5006 11.262 28.5006 12.432ZM49.733 8.724C49.859 8.346 49.607 7.968 49.157 7.968H47.465C46.925 7.968 46.601 8.22 46.493 8.724L44.585 16.536L42.731 8.724C42.587 8.22 42.263 7.968 41.759 7.968H39.815C39.365 7.968 39.113 8.346 39.239 8.724L42.605 20.244C42.731 20.748 43.055 21 43.595 21H45.377C45.899 21 46.241 20.748 46.385 20.244L49.733 8.724ZM53.7781 15.834H57.5401C58.0441 15.834 58.3141 15.528 58.3141 15.042V13.926C58.3141 13.404 58.0621 13.134 57.5401 13.134H53.7781V10.686H58.7101C59.2141 10.686 59.5021 10.38 59.5021 9.894V8.76C59.5021 8.274 59.2141 7.968 58.7101 7.968H51.4381C50.9521 7.968 50.6461 8.31 50.6461 8.76V20.208C50.6461 20.658 50.9521 21 51.4381 21H58.7101C59.2141 21 59.5021 20.694 59.5021 20.208V19.092C59.5021 18.606 59.2141 18.3 58.7101 18.3H53.7781V15.834ZM68.3101 16.068C69.7681 15.438 70.6501 14.196 70.6501 12.486C70.6501 9.228 68.7781 7.968 65.4121 7.968H61.6861C61.2361 7.968 60.8941 8.31 60.8941 8.76V20.208C60.8941 20.658 61.2001 21 61.6861 21H63.2341C63.7201 21 64.0261 20.658 64.0261 20.208V16.608H64.9981H65.3581L65.4121 16.59L67.1581 20.28C67.3921 20.766 67.7521 21 68.2741 21H69.8401C70.2901 21 70.4881 20.622 70.2901 20.28L68.3101 16.068ZM67.7701 12.432C67.7701 13.584 66.9061 14.16 65.6101 14.16H64.0261V10.686H65.4661C66.8521 10.686 67.7701 11.262 67.7701 12.432ZM80.6182 14.232C80.1322 14.232 79.8262 14.52 79.8262 15.006V15.456C79.8262 15.942 80.1322 16.248 80.6182 16.248H81.8422V16.554C81.8422 17.76 81.3202 18.354 79.9702 18.354C78.5302 18.354 78.0802 17.238 78.0802 14.556C78.0802 11.892 78.5482 10.614 79.9702 10.614C81.0682 10.614 81.7882 11.532 81.8062 12.702C81.8062 13.062 82.0942 13.188 82.6882 13.08L83.9842 12.864C84.6322 12.774 84.7582 12.558 84.7042 11.964C84.6142 10.686 84.2002 9.678 83.4802 8.94C82.7602 8.202 81.5902 7.824 79.9702 7.824C76.4242 7.824 74.9122 10.074 74.9122 14.556C74.9122 19.11 76.3702 21.144 79.9702 21.144C81.8242 21.144 83.1382 20.622 83.7862 19.704C84.4522 18.768 84.7042 17.796 84.7042 16.446V15.006C84.7042 14.556 84.4162 14.232 83.9302 14.232H80.6182ZM92.135 8.724C92.009 8.22 91.685 7.968 91.145 7.968H89.597C89.075 7.968 88.733 8.22 88.589 8.724L85.277 20.244C85.151 20.622 85.403 21 85.853 21H87.545C88.049 21 88.355 20.748 88.481 20.226L88.823 18.696H91.847L92.189 20.226C92.315 20.676 92.675 21 93.179 21H94.889C95.339 21 95.573 20.64 95.447 20.226L92.135 8.724ZM90.317 11.91L91.379 16.608H89.273L90.317 11.91ZM105.312 20.19C105.312 20.694 105.618 21 106.122 21H107.652C108.156 21 108.462 20.694 108.462 20.19V8.76C108.462 8.274 108.174 7.968 107.67 7.968H106.68C106.176 7.968 105.762 8.184 105.438 8.598L102.432 12.774L99.426 8.598C99.102 8.184 98.688 7.968 98.166 7.968H97.194C96.69 7.968 96.402 8.274 96.402 8.76V20.19C96.402 20.73 96.672 21 97.194 21H98.724C99.264 21 99.534 20.73 99.534 20.19V13.17L101.946 16.392C102.18 16.698 102.666 16.698 102.9 16.392L105.312 13.17V20.19ZM113.386 15.834H117.148C117.652 15.834 117.922 15.528 117.922 15.042V13.926C117.922 13.404 117.67 13.134 117.148 13.134H113.386V10.686H118.318C118.822 10.686 119.11 10.38 119.11 9.894V8.76C119.11 8.274 118.822 7.968 118.318 7.968H111.046C110.56 7.968 110.254 8.31 110.254 8.76V20.208C110.254 20.658 110.56 21 111.046 21H118.318C118.822 21 119.11 20.694 119.11 20.208V19.092C119.11 18.606 118.822 18.3 118.318 18.3H113.386V15.834Z" fill="#313336"/>
</svg>
