<svg width="33" height="24" viewBox="0 0 33 24" fill="none" xmlns="http://www.w3.org/2000/svg">
<path d="M3.48938 8.048H7.98538C8.32138 8.048 8.49738 7.872 8.49738 7.536V6.928C8.49738 6.592 8.32138 6.416 7.98538 6.416H2.14538C1.84138 6.416 1.63338 6.624 1.63338 6.928V17.488C1.63338 17.792 1.84138 18 2.14538 18H2.99338C3.26538 18 3.48938 17.792 3.48938 17.488V12.944H7.40938C7.74538 12.944 7.90538 12.784 7.90538 12.448V11.84C7.90538 11.504 7.74538 11.328 7.40938 11.328H3.48938V8.048ZM20.411 11.056H22.843C23.147 11.056 23.291 10.912 23.291 10.608V10.224C23.291 9.92 23.147 9.76 22.843 9.76H20.411V7.824H23.483C23.819 7.824 23.995 7.664 23.995 7.36V6.88C23.995 6.576 23.819 6.416 23.483 6.416H19.259C18.923 6.416 18.747 6.592 18.747 6.928V14C18.747 14.304 18.939 14.512 19.259 14.512H23.483C23.819 14.512 23.995 14.352 23.995 14.048V13.568C23.995 13.264 23.819 13.104 23.483 13.104H20.411V11.056ZM9.883 17.488C9.883 17.824 10.059 18 10.395 18H11.243C11.579 18 11.755 17.824 11.755 17.488V13.584H13.515L15.195 15.424C15.563 15.824 15.883 16.144 16.155 16.384C16.443 16.624 16.827 16.896 17.291 17.2C18.251 17.776 19.531 18.08 21.115 18.08C21.675 18.08 22.235 18.048 22.779 17.968C23.115 17.92 23.291 17.728 23.291 17.392V16.784C23.291 16.48 23.083 16.288 22.779 16.336C22.347 16.384 21.883 16.416 21.371 16.416C20.555 16.416 19.787 16.288 19.099 16.048C18.411 15.808 17.883 15.552 17.547 15.296C17.211 15.04 16.875 14.72 16.507 14.352L15.435 13.248C17.035 12.8 17.995 11.76 17.995 10.112C17.995 7.648 16.523 6.416 13.579 6.416H10.395C10.059 6.416 9.883 6.592 9.883 6.928V17.488ZM16.219 10.08C16.219 11.424 15.211 12.048 13.627 12.048H11.755V8.048H13.547C15.195 8.048 16.219 8.688 16.219 10.08ZM27.13 12.944H31.018C31.354 12.944 31.514 12.784 31.514 12.448V11.84C31.514 11.504 31.354 11.328 31.018 11.328H27.13V8.048H31.962C32.298 8.048 32.474 7.872 32.474 7.536V6.928C32.474 6.592 32.298 6.416 31.962 6.416H25.77C25.45 6.416 25.258 6.624 25.258 6.928V17.488C25.258 17.792 25.45 18 25.77 18H31.962C32.298 18 32.474 17.824 32.474 17.488V16.88C32.474 16.544 32.298 16.384 31.962 16.384H27.13V12.944Z" fill="#313336"/>
</svg>
