<svg width="128" height="88" viewBox="0 0 128 88" fill="none" xmlns="http://www.w3.org/2000/svg">
<path d="M84 0H44C19.699 0 0 19.703 0 44C0 68.297 19.699 88 44 88C51.211 88 57.996 86.234 64 83.156C70.004 86.234 76.789 88 84 88C108.301 88 128 68.297 128 44C128 19.703 108.301 0 84 0ZM84 80C78.281 80 72.777 78.664 67.648 76.039C66.503 75.453 65.253 75.156 64 75.156C62.747 75.156 61.496 75.453 60.352 76.039C55.223 78.664 49.719 80 44 80C24.148 80 8 63.852 8 44C8 24.148 24.148 8 44 8H84C103.852 8 120 24.148 120 44C120 63.852 103.852 80 84 80Z" fill="white"/>
<path d="M44 72C37.383 72 32 66.617 32 60V56H28C21.383 56 16 50.617 16 44C16 37.383 21.383 32 28 32H32V28C32 21.383 37.383 16 44 16C50.617 16 56 21.383 56 28V32H60C66.617 32 72 37.383 72 44C72 50.617 66.617 56 60 56H56V60C56 66.617 50.617 72 44 72ZM28 40C25.793 40 24 41.797 24 44C24 46.203 25.793 48 28 48H36C38.211 48 40 49.789 40 52V60C40 62.203 41.793 64 44 64C46.207 64 48 62.203 48 60V52C48 49.789 49.789 48 52 48H60C62.207 48 64 46.203 64 44C64 41.797 62.207 40 60 40H52C49.789 40 48 38.211 48 36V28C48 25.797 46.207 24 44 24C41.793 24 40 25.797 40 28V36C40 38.211 38.211 40 36 40H28Z" fill="white"/>
<path d="M96 40C96 44.422 92.418 48 88 48C83.582 48 80 44.422 80 40C80 35.578 83.582 32 88 32C92.418 32 96 35.578 96 40Z" fill="white"/>
<path d="M112 32C112 36.422 108.418 40 104 40C99.582 40 96 36.422 96 32C96 27.578 99.582 24 104 24C108.418 24 112 27.578 112 32Z" fill="white"/>
<path d="M96 64C96 68.422 92.418 72 88 72C83.582 72 80 68.422 80 64C80 59.578 83.582 56 88 56C92.418 56 96 59.578 96 64Z" fill="white"/>
<path d="M112 56C112 60.422 108.418 64 104 64C99.582 64 96 60.422 96 56C96 51.578 99.582 48 104 48C108.418 48 112 51.578 112 56Z" fill="white"/>
</svg>
