<svg width="24" height="24" viewBox="0 0 24 24" fill="none" xmlns="http://www.w3.org/2000/svg">
<rect width="24" height="24" rx="12" fill="#EEDFFF"/>
<path fill-rule="evenodd" clip-rule="evenodd" d="M13.2542 15.0679C14.8131 14.8838 16.4711 14.317 16.4711 11.6244C16.4711 10.8591 16.2016 10.2354 15.7627 9.75353C15.8335 9.56947 16.06 8.87497 15.6772 7.91144C15.6772 7.91144 15.1104 7.72713 13.7785 8.61984C13.2117 8.46413 12.5882 8.36475 12.0072 8.36475C11.4118 8.36475 10.7881 8.46413 10.2354 8.61984C8.88909 7.72713 8.32228 7.91144 8.32228 7.91144C7.93975 8.87497 8.16656 9.56947 8.23734 9.75353C7.79794 10.2354 7.52869 10.8591 7.52869 11.6244C7.52869 14.317 9.18672 14.8838 10.7456 15.0679C10.5474 15.2383 10.3631 15.564 10.2923 16.0175C9.89534 16.1875 8.86078 16.5136 8.23734 15.4365C8.23734 15.4365 7.86875 14.7706 7.17447 14.7281C7.17447 14.7281 6.47997 14.714 7.11781 15.1529C7.11781 15.1529 7.58531 15.3658 7.89728 16.1733C7.89728 16.1733 8.32228 17.5198 10.2779 17.0945V18.299C10.2779 18.4836 10.1363 18.6959 9.78209 18.6393C7.00434 17.718 5.00625 15.0821 5.00625 11.9928C5.00625 8.12384 8.138 4.99212 12.0072 4.99212C15.8618 4.99212 19.0079 8.12388 18.9937 11.9928C18.9937 15.0821 16.9954 17.7039 14.2179 18.6393C13.8634 18.7101 13.7218 18.4977 13.7218 18.299V16.3578C13.7219 15.7055 13.509 15.2808 13.2542 15.0679ZM20 12.0072C20 7.58531 16.4145 4 12.0072 4C7.58531 4 4 7.58531 4 12.0072C4 16.4145 7.58531 20 12.0072 20C16.4145 20 20 16.4145 20 12.0072Z" fill="#6100D4"/>
</svg>
