<svg width="25" height="25" viewBox="0 0 25 25" fill="none" xmlns="http://www.w3.org/2000/svg">
<path d="M3.125 7.8125H21.875C22.7375 7.8125 23.4375 7.1125 23.4375 6.25C23.4375 5.3875 22.7375 4.6875 21.875 4.6875H3.125C2.2625 4.6875 1.5625 5.3875 1.5625 6.25C1.5625 7.1125 2.2625 7.8125 3.125 7.8125ZM21.875 10.9375H3.125C2.2625 10.9375 1.5625 11.6375 1.5625 12.5C1.5625 13.3625 2.2625 14.0625 3.125 14.0625H21.875C22.7375 14.0625 23.4375 13.3625 23.4375 12.5C23.4375 11.6375 22.7375 10.9375 21.875 10.9375ZM21.875 17.1875H3.125C2.2625 17.1875 1.5625 17.8875 1.5625 18.75C1.5625 19.6125 2.2625 20.3125 3.125 20.3125H21.875C22.7375 20.3125 23.4375 19.6125 23.4375 18.75C23.4375 17.8875 22.7375 17.1875 21.875 17.1875Z" fill="#6100D4"/>
</svg>
