<svg width="24" height="24" viewBox="0 0 24 24" fill="none" xmlns="http://www.w3.org/2000/svg">
<rect width="24" height="24" rx="12" fill="#EEDFFF"/>
<path fill-rule="evenodd" clip-rule="evenodd" d="M12.0041 6.26129C13.8755 6.26129 14.0971 6.26949 14.8331 6.30233C15.5171 6.33242 15.8865 6.44733 16.1327 6.54309C16.4583 6.66895 16.6936 6.82216 16.9371 7.06566C17.1833 7.3119 17.3338 7.54446 17.4596 7.87004C17.5554 8.11628 17.6703 8.48837 17.7004 9.16963C17.7332 9.90834 17.7414 10.13 17.7414 11.9986C17.7414 13.87 17.7332 14.0917 17.7004 14.8276C17.6703 15.5116 17.5554 15.881 17.4596 16.1272C17.3338 16.4528 17.1806 16.6881 16.9371 16.9316C16.6908 17.1778 16.4583 17.3283 16.1327 17.4542C15.8865 17.5499 15.5144 17.6648 14.8331 17.6949C14.0944 17.7278 13.8728 17.736 12.0041 17.736C10.1327 17.736 9.91108 17.7278 9.1751 17.6949C8.49111 17.6648 8.12175 17.5499 7.87551 17.4542C7.54993 17.3283 7.31464 17.1751 7.07114 16.9316C6.8249 16.6854 6.67442 16.4528 6.54856 16.1272C6.4528 15.881 6.33789 15.5089 6.3078 14.8276C6.27497 14.0889 6.26676 13.8673 6.26676 11.9986C6.26676 10.1272 6.27497 9.90561 6.3078 9.16963C6.33789 8.48564 6.4528 8.11628 6.54856 7.87004C6.67442 7.54446 6.82763 7.30917 7.07114 7.06566C7.31737 6.81943 7.54993 6.66895 7.87551 6.54309C8.12175 6.44733 8.49384 6.33242 9.1751 6.30233C9.91108 6.26949 10.1327 6.26129 12.0041 6.26129ZM12.0041 5C10.1026 5 9.86457 5.00821 9.11765 5.04104C8.37346 5.07387 7.86183 5.19425 7.4186 5.36662C6.95622 5.5472 6.56498 5.78523 6.17647 6.17647C5.78523 6.56498 5.5472 6.95622 5.36662 7.41587C5.19425 7.86183 5.07387 8.37072 5.04104 9.11491C5.00821 9.86457 5 10.1026 5 12.0041C5 13.9056 5.00821 14.1436 5.04104 14.8906C5.07387 15.6347 5.19425 16.1464 5.36662 16.5896C5.5472 17.052 5.78523 17.4432 6.17647 17.8317C6.56498 18.2202 6.95622 18.461 7.41587 18.6389C7.86183 18.8112 8.37072 18.9316 9.11491 18.9644C9.86183 18.9973 10.0999 19.0055 12.0014 19.0055C13.9029 19.0055 14.1409 18.9973 14.8878 18.9644C15.632 18.9316 16.1436 18.8112 16.5869 18.6389C17.0465 18.461 17.4378 18.2202 17.8263 17.8317C18.2148 17.4432 18.4555 17.052 18.6334 16.5923C18.8057 16.1464 18.9261 15.6375 18.959 14.8933C18.9918 14.1464 19 13.9083 19 12.0068C19 10.1053 18.9918 9.86731 18.959 9.12038C18.9261 8.3762 18.8057 7.86457 18.6334 7.42134C18.461 6.95622 18.223 6.56498 17.8317 6.17647C17.4432 5.78796 17.052 5.5472 16.5923 5.36936C16.1464 5.19699 15.6375 5.07661 14.8933 5.04378C14.1436 5.00821 13.9056 5 12.0041 5ZM12.0041 8.40629C10.0178 8.40629 8.40629 10.0178 8.40629 12.0041C8.40629 13.9904 10.0178 15.6019 12.0041 15.6019C13.9904 15.6019 15.6019 13.9904 15.6019 12.0041C15.6019 10.0178 13.9904 8.40629 12.0041 8.40629ZM12.0041 14.3379C10.7155 14.3379 9.67031 13.2927 9.67031 12.0041C9.67031 10.7155 10.7155 9.67031 12.0041 9.67031C13.2927 9.67031 14.3379 10.7155 14.3379 12.0041C14.3379 13.2927 13.2927 14.3379 12.0041 14.3379ZM15.7442 9.10398C16.2066 9.10398 16.5841 8.72915 16.5841 8.26403C16.5841 7.80165 16.2066 7.42408 15.7442 7.42408C15.2818 7.42408 14.9042 7.79891 14.9042 8.26403C14.9042 8.72641 15.2791 9.10398 15.7442 9.10398Z" fill="#6100D4"/>
</svg>
