<svg width="24" height="24" viewBox="0 0 24 24" fill="none" xmlns="http://www.w3.org/2000/svg">
<rect width="24" height="24" rx="12" fill="#EEDFFF"/>
<path fill-rule="evenodd" clip-rule="evenodd" d="M5 6.56108C5 5.69929 5.69929 5 6.56108 5C7.42233 5 8.12163 5.69929 8.12217 6.56108C8.12217 7.42288 7.42288 8.13679 6.56108 8.13679C5.69929 8.13679 5 7.42288 5 6.56108ZM17.9968 18V17.9995H18V13.2317C18 10.8993 17.4979 9.10257 14.7711 9.10257C13.4603 9.10257 12.5806 9.82191 12.2215 10.5039H12.1836V9.32032H9.5982V17.9995H12.2903V13.7019C12.2903 12.5703 12.5048 11.4762 13.9061 11.4762C15.2868 11.4762 15.3074 12.7675 15.3074 13.7745V18H17.9968ZM5.21449 9.32088H7.90982V18H5.21449V9.32088Z" fill="#6100D4"/>
</svg>
