<svg width="24" height="24" viewBox="0 0 24 24" fill="none" xmlns="http://www.w3.org/2000/svg">
<path d="M2.5 6.86799C2.5 6.36615 2.65145 5.89898 2.91264 5.51331L2.95153 5.4586C3.16144 5.1633 3.43878 4.92236 3.7605 4.75579C4.08204 4.58931 4.43863 4.50192 4.8007 4.50085H19.2C19.963 4.50085 20.6338 4.88327 21.0502 5.46097C21.3334 5.85597 21.5 6.34328 21.5 6.86799V17.1345C21.5 18.4266 20.4851 19.5016 19.2 19.5016H4.8C3.51493 19.5016 2.5 18.4266 2.5 17.1345V6.86799ZM4.933 5.50095H3.80334L4.56289 6.33714L10.8899 13.3025L10.89 13.3026C11.0306 13.4573 11.2019 13.5809 11.3931 13.6654C11.5843 13.75 11.791 13.7937 12 13.7937C12.209 13.7937 12.4157 13.75 12.6069 13.6654C12.7981 13.5809 12.9694 13.4573 13.11 13.3026L13.1101 13.3025L19.4371 6.33714L20.1967 5.50095H19.067H4.933ZM20.5 7.94905V6.65509L19.6299 7.61283L13.85 13.9751C13.85 13.9751 13.8499 13.9751 13.8499 13.9751C13.6156 14.2329 13.33 14.4389 13.0115 14.5798C12.6929 14.7208 12.3484 14.7936 12 14.7936C11.6516 14.7936 11.3071 14.7208 10.9885 14.5798C10.67 14.4389 10.3844 14.2329 10.1501 13.9751C10.1501 13.9751 10.15 13.9751 10.15 13.9751L4.37008 7.61283L3.5 6.65509V7.94905V17.1345C3.5 17.9136 4.10495 18.5015 4.8 18.5015H19.2C19.895 18.5015 20.5 17.9136 20.5 17.1345V7.94905Z" fill="#313336" stroke="#FF3815"/>
</svg>
