<svg width="24" height="24" viewBox="0 0 24 24" fill="none" xmlns="http://www.w3.org/2000/svg">
<rect width="24" height="24" rx="12" fill="#EEDFFF"/>
<g clip-path="url(#clip0_124_23814)">
<path d="M6.66012 8.70975C6.67754 8.5379 6.61202 8.36798 6.48367 8.25235L5.17645 6.67762V6.44238H9.23527L12.3726 13.3228L15.1308 6.44238L19 6.44241V6.67762L17.8824 7.7492C17.786 7.82261 17.7382 7.94339 17.7582 8.06288V15.9364C17.7382 16.0559 17.786 16.1767 17.8824 16.2501L18.9738 17.3217V17.5569H13.4837V17.3217L14.6144 16.2239C14.7255 16.1129 14.7255 16.0802 14.7255 15.9103V9.54612L11.5817 17.5307H11.1569L7.4967 9.54612V14.8975C7.46624 15.1225 7.54095 15.3491 7.69932 15.5117L9.16998 17.2955V17.5307H5V17.2955L6.47066 15.5117C6.62786 15.3488 6.69818 15.1207 6.66012 14.8975V8.70975V8.70975Z" fill="#6100D4"/>
</g>
<defs>
<clipPath id="clip0_124_23814">
<rect width="14" height="14" fill="white" transform="translate(5 5)"/>
</clipPath>
</defs>
</svg>
