<svg width="24" height="24" viewBox="0 0 24 24" fill="none" xmlns="http://www.w3.org/2000/svg">
<path d="M19 11.0001H5C3.89543 11.0001 3 11.8955 3 13V19.9997C3 21.1042 3.89543 21.9996 5 21.9996H19C20.1046 21.9996 21 21.1042 21 19.9997V13C21 11.8955 20.1046 11.0001 19 11.0001Z" stroke="#313336" stroke-width="2" stroke-linecap="round" stroke-linejoin="round"/>
<path d="M7 11.0002V7.00037C7 5.67435 7.52678 4.40264 8.46447 3.46501C9.40215 2.52737 10.6739 2.00061 12 2.00061C13.3261 2.00061 14.5979 2.52737 15.5355 3.46501C16.4732 4.40264 17 5.67435 17 7.00037V11.0002" stroke="#313336" stroke-width="2" stroke-linecap="round" stroke-linejoin="round"/>
</svg>
