<svg width="24" height="24" viewBox="0 0 24 24" fill="none" xmlns="http://www.w3.org/2000/svg">
<rect width="24" height="24" rx="12" fill="#EEDFFF"/>
<path d="M18.2425 8.40425C19.2126 8.40425 20 9.19158 20 10.1617C20 10.8788 19.5641 11.4974 18.9877 11.7786C19.0158 11.9473 19.0299 12.116 19.0299 12.2988C19.0299 14.9983 15.8945 17.1775 12.0141 17.1775C8.13356 17.1775 4.99827 14.9983 4.99827 12.2988C4.99827 12.116 5.01231 11.9332 5.04043 11.7645C4.42182 11.4833 4 10.8788 4 10.1617C4 9.19158 4.78733 8.40425 5.75747 8.40425C6.22146 8.40425 6.65731 8.6011 6.96662 8.89636C8.17573 8.01056 9.84886 7.46224 11.7188 7.40603L12.6046 3.21622C12.6327 3.13183 12.6748 3.06154 12.7451 3.01937C12.8154 2.9772 12.8998 2.96312 12.9842 2.9772L15.8945 3.59582C16.0914 3.17405 16.5132 2.89282 17.0053 2.89282C17.6942 2.89282 18.2566 3.45523 18.2566 4.14414C18.2566 4.8331 17.6942 5.39546 17.0053 5.39546C16.3304 5.39546 15.7821 4.86118 15.7539 4.2004L13.1529 3.65207L12.3515 7.40603C14.1793 7.47633 15.8383 8.03869 17.0334 8.89636C17.3427 8.58701 17.7645 8.40425 18.2425 8.40425Z" fill="#6100D4"/>
<path d="M12.0001 15.6312C12.4782 15.6312 14.1091 15.575 14.9667 14.7173C15.0933 14.5908 15.0933 14.3939 14.9948 14.2534C14.8683 14.1268 14.6574 14.1268 14.5309 14.2534C13.9825 14.7876 12.8437 14.9844 12.0142 14.9844C11.1846 14.9844 10.0317 14.7876 9.4975 14.2534C9.37095 14.1268 9.16006 14.1268 9.03351 14.2534C8.90696 14.3799 8.90696 14.5908 9.03351 14.7173C9.8771 15.5609 11.5221 15.6312 12.0001 15.6312Z" fill="#EEDFFF"/>
<path d="M9.23032 10.1619C8.54136 10.1619 7.979 10.7243 7.979 11.4132C7.979 12.1021 8.54136 12.6645 9.23032 12.6645C9.91923 12.6645 10.4816 12.1021 10.4816 11.4132C10.4816 10.7243 9.91923 10.1619 9.23032 10.1619Z" fill="#EEDFFF"/>
<path d="M13.4904 11.4132C13.4904 12.1021 14.0528 12.6645 14.7417 12.6645C15.4307 12.6645 15.993 12.1021 15.993 11.4132C15.993 10.7243 15.4307 10.1619 14.7417 10.1619C14.0528 10.1619 13.4904 10.7243 13.4904 11.4132Z" fill="#EEDFFF"/>
</svg>
