<svg width="144" height="28" viewBox="0 0 144 28" fill="none" xmlns="http://www.w3.org/2000/svg">
<path d="M14.112 13.458H16.434C16.866 13.458 17.082 13.242 17.082 12.828V12.18C17.082 11.766 16.866 11.55 16.434 11.55H14.112V10.218H17.172C17.694 10.218 17.946 10.002 17.946 9.552V8.634C17.946 8.184 17.694 7.968 17.172 7.968H12.186C11.682 7.968 11.394 8.31 11.394 8.76V16.284C11.394 16.734 11.736 17.076 12.186 17.076H17.172C17.694 17.076 17.946 16.86 17.946 16.41V15.474C17.946 15.024 17.694 14.808 17.172 14.808H14.112V13.458ZM0.9 20.208C0.9 20.658 1.188 21 1.692 21H3.24C3.744 21 4.032 20.658 4.032 20.208V16.608H5.364L7.128 18.48C7.866 19.272 8.424 19.722 9.504 20.298C10.602 20.856 12.15 21.126 14.148 21.126C15.246 21.126 16.164 21.072 16.938 20.946C17.442 20.892 17.712 20.514 17.712 20.082V18.948C17.712 18.498 17.424 18.192 16.938 18.264C16.074 18.354 15.3 18.408 14.598 18.408C12.24 18.408 10.476 17.832 9.306 16.68L8.424 15.816C9.918 15.096 10.656 13.98 10.656 12.486C10.656 9.228 8.784 7.968 5.418 7.968H1.692C1.188 7.968 0.9 8.31 0.9 8.76V20.208ZM7.776 12.432C7.776 13.584 6.912 14.16 5.616 14.16H4.032V10.686H5.472C6.858 10.686 7.776 11.262 7.776 12.432ZM23.5724 18.516C22.5104 18.516 21.7904 17.886 21.7724 17.184C21.7544 16.806 21.4844 16.68 20.9264 16.788L19.5404 17.022C19.0184 17.112 18.8204 17.418 18.9104 17.904C19.0724 18.84 19.5224 19.614 20.2784 20.244C21.0524 20.856 22.1144 21.162 23.4824 21.144C25.1924 21.126 26.4524 20.802 27.2264 20.136C28.0004 19.47 28.3964 18.588 28.3964 17.526C28.3964 12.774 22.0784 13.746 22.0784 11.748C22.0784 10.974 22.5644 10.47 23.5724 10.47C24.6524 10.47 25.3724 11.136 25.4264 12C25.4264 12.27 25.6604 12.36 26.1464 12.306L27.6404 12.054C28.1444 11.964 28.3604 11.676 28.2884 11.172C27.9824 9.084 26.3624 7.824 23.4824 7.824C20.2964 7.824 18.9464 9.858 18.9464 11.676C18.9464 16.428 25.2284 15.15 25.2284 17.22C25.2284 18.084 24.6704 18.516 23.5724 18.516ZM29.6428 7.968C29.1568 7.968 28.8508 8.31 28.8508 8.76V9.876C28.8508 10.326 29.1568 10.668 29.6428 10.668H31.9828V20.208C31.9828 20.658 32.2888 21 32.7748 21H34.3408C34.8268 21 35.1148 20.658 35.1148 20.208V10.668H37.4728C37.9588 10.668 38.2648 10.326 38.2648 9.876V8.76C38.2648 8.31 37.9588 7.968 37.4728 7.968H29.6428ZM39.3785 20.208C39.3785 20.658 39.6665 21 40.1705 21H41.7185C42.2225 21 42.5105 20.658 42.5105 20.208V16.608H43.0505L44.8145 18.48C45.5525 19.272 46.1105 19.722 47.1905 20.298C48.2885 20.856 49.8185 21.126 51.8165 21.126C52.7885 21.126 53.5265 21.072 54.0485 20.982C54.5345 20.892 54.7865 20.55 54.7865 20.118V18.948C54.7865 18.516 54.5165 18.21 54.0125 18.264C53.3465 18.354 52.7525 18.408 52.2665 18.408C49.6565 18.408 48.1625 17.814 46.9925 16.68L46.3805 16.086C48.0365 15.456 49.1345 14.214 49.1345 12.486C49.1345 9.228 47.2625 7.968 43.8965 7.968H40.1705C39.6665 7.968 39.3785 8.31 39.3785 8.76V20.208ZM46.2545 12.432C46.2545 13.584 45.3905 14.16 44.0945 14.16H42.5105V10.686H43.9505C45.3365 10.686 46.2545 11.262 46.2545 12.432ZM53.8685 10.236H54.1025C54.6245 10.236 54.8945 10.02 54.8945 9.57V8.634C54.8945 8.184 54.6245 7.968 54.1025 7.968H50.8985C50.3765 7.968 50.1065 8.202 50.1065 8.652V9.57C50.1065 10.02 50.3765 10.236 50.8985 10.236H51.1505V14.808H50.8985C50.3765 14.808 50.1065 15.042 50.1065 15.51V16.41C50.1065 16.86 50.3765 17.076 50.8985 17.076H54.1025C54.6245 17.076 54.8945 16.86 54.8945 16.41V15.492C54.8945 15.042 54.6245 14.808 54.1025 14.808H53.8685V10.236ZM60.9507 18.354C59.5107 18.354 59.0607 17.238 59.0607 14.556C59.0607 11.892 59.5287 10.614 60.9507 10.614C62.1207 10.614 62.7327 11.55 62.7867 12.792C62.8047 13.152 63.0207 13.206 63.6507 13.08L64.9647 12.846C65.4867 12.774 65.7387 12.468 65.6847 11.946C65.4867 9.192 63.9027 7.824 60.9507 7.824C57.4047 7.824 55.8927 10.074 55.8927 14.556C55.8927 19.11 57.3507 21.144 60.9507 21.144C62.5527 21.144 63.7227 20.784 64.4247 20.064C65.1267 19.326 65.5407 18.336 65.6667 17.094C65.7387 16.464 65.4867 16.266 64.9647 16.194L63.6327 15.978C63.0927 15.87 62.8047 16.032 62.7687 16.464C62.6607 17.724 62.0487 18.354 60.9507 18.354ZM67.0842 7.968C66.5982 7.968 66.2922 8.31 66.2922 8.76V9.876C66.2922 10.326 66.5982 10.668 67.0842 10.668H69.4242V20.208C69.4242 20.658 69.7302 21 70.2162 21H71.7822C72.2682 21 72.5562 20.658 72.5562 20.208V10.668H74.9142C75.4002 10.668 75.7062 10.326 75.7062 9.876V8.76C75.7062 8.31 75.4002 7.968 74.9142 7.968H67.0842ZM79.9519 15.834H83.7139C84.2179 15.834 84.4879 15.528 84.4879 15.042V13.926C84.4879 13.404 84.2359 13.134 83.7139 13.134H79.9519V10.686H84.8839C85.3879 10.686 85.6759 10.38 85.6759 9.894V8.76C85.6759 8.274 85.3879 7.968 84.8839 7.968H77.6119C77.1259 7.968 76.8199 8.31 76.8199 8.76V20.208C76.8199 20.658 77.1259 21 77.6119 21H84.8839C85.3879 21 85.6759 20.694 85.6759 20.208V19.092C85.6759 18.606 85.3879 18.3 84.8839 18.3H79.9519V15.834ZM90.902 21C92.756 21 94.286 20.424 95.474 19.254C96.68 18.084 97.274 16.536 97.274 14.574C97.274 12.612 96.68 11.01 95.474 9.804C94.268 8.58 92.756 7.968 90.902 7.968H87.86C87.374 7.968 87.068 8.31 87.068 8.76V20.208C87.068 20.658 87.374 21 87.86 21H90.902ZM94.124 14.574C94.124 16.932 92.864 18.3 90.776 18.3H90.2V10.686H90.776C92.846 10.686 94.124 12.198 94.124 14.574ZM101.974 20.208C101.974 20.658 102.262 21 102.766 21H104.314C104.818 21 105.106 20.658 105.106 20.208V16.608H106.366L108.13 18.48C108.94 19.326 109.93 19.974 111.082 20.442C112.234 20.892 113.872 21.126 115.978 21.126C116.896 21.126 117.85 21.072 118.876 20.946C119.38 20.892 119.65 20.514 119.65 20.082V18.948C119.65 18.498 119.38 18.192 118.876 18.246C117.508 18.354 116.698 18.408 116.446 18.408C114.844 18.408 113.584 18.264 112.648 17.994C111.712 17.706 110.938 17.274 110.308 16.68L109.444 15.852C110.974 15.114 111.73 13.98 111.73 12.486C111.73 9.228 109.858 7.968 106.492 7.968H102.766C102.262 7.968 101.974 8.31 101.974 8.76V20.208ZM117.688 13.404C117.688 14.502 117.31 15.042 116.536 15.042C115.762 15.042 115.366 14.502 115.366 13.404V8.76C115.366 8.31 115.078 7.968 114.574 7.968H113.44C112.936 7.968 112.648 8.31 112.648 8.76V13.242C112.648 15.96 113.944 17.328 116.536 17.328C119.11 17.328 120.406 15.96 120.406 13.242V8.76C120.406 8.31 120.118 7.968 119.614 7.968H118.48C117.976 7.968 117.688 8.31 117.688 8.76V13.404ZM108.85 12.432C108.85 13.584 107.986 14.16 106.69 14.16H105.106V10.686H106.546C107.932 10.686 108.85 11.262 108.85 12.432ZM121.873 20.208C121.873 20.658 122.161 21 122.665 21H132.115C132.637 21 132.907 20.73 132.907 20.208V19.092C132.907 18.57 132.637 18.3 132.115 18.3H125.005V8.76C125.005 8.31 124.717 7.968 124.213 7.968H122.665C122.161 7.968 121.873 8.31 121.873 8.76V20.208ZM128.965 13.458H131.287C131.719 13.458 131.935 13.242 131.935 12.828V12.18C131.935 11.766 131.719 11.55 131.287 11.55H128.965V10.218H132.007C132.529 10.218 132.799 10.002 132.799 9.552V8.634C132.799 8.184 132.529 7.968 132.007 7.968H127.039C126.535 7.968 126.247 8.31 126.247 8.76V16.284C126.247 16.734 126.589 17.076 127.039 17.076H132.007C132.529 17.076 132.799 16.86 132.799 16.41V15.474C132.799 15.024 132.529 14.808 132.007 14.808H128.965V13.458ZM138.498 18.516C137.436 18.516 136.716 17.886 136.698 17.184C136.68 16.806 136.41 16.68 135.852 16.788L134.466 17.022C133.944 17.112 133.746 17.418 133.836 17.904C133.998 18.84 134.448 19.614 135.204 20.244C135.978 20.856 137.04 21.162 138.408 21.144C140.118 21.126 141.378 20.802 142.152 20.136C142.926 19.47 143.322 18.588 143.322 17.526C143.322 12.774 137.004 13.746 137.004 11.748C137.004 10.974 137.49 10.47 138.498 10.47C139.578 10.47 140.298 11.136 140.352 12C140.352 12.27 140.586 12.36 141.072 12.306L142.566 12.054C143.07 11.964 143.286 11.676 143.214 11.172C142.908 9.084 141.288 7.824 138.408 7.824C135.222 7.824 133.872 9.858 133.872 11.676C133.872 16.428 140.154 15.15 140.154 17.22C140.154 18.084 139.596 18.516 138.498 18.516Z" fill="#313336"/>
</svg>
