<svg width="24" height="24" viewBox="0 0 24 24" fill="none" xmlns="http://www.w3.org/2000/svg">
<path d="M9.53754 6.85488L9.23698 6.78236L6.63218 6.15385L6.60817 6.14805L6.58485 6.13992C6.0656 5.95889 5.49839 5.97187 4.98796 6.17646C4.47753 6.38104 4.05835 6.76343 3.80785 7.253L3.80322 7.26205L3.79822 7.27091L1.59803 11.171L1.598 11.1711C1.55945 11.2394 1.53752 11.3158 1.53396 11.3941C1.53041 11.4725 1.54533 11.5506 1.57754 11.6221C1.60974 11.6936 1.65831 11.7565 1.71933 11.8058C1.78034 11.855 1.85209 11.8893 1.92877 11.9057L1.92897 11.9057L5.00172 12.5644L5.54551 12.681L5.37195 13.2094C5.1214 13.9721 4.94248 14.7565 4.83752 15.5524C4.82771 15.6283 4.83542 15.7054 4.86007 15.7778C4.88476 15.8504 4.92577 15.9163 4.97995 15.9704L4.97997 15.9705L8.08007 19.0707L8.08021 19.0708C8.12659 19.1173 8.18166 19.1541 8.24229 19.1792C8.3029 19.2043 8.36788 19.2173 8.43351 19.2173C8.44508 19.2173 8.45921 19.2167 8.47743 19.2152C9.28742 19.1423 10.0876 18.9848 10.8648 18.7455L11.3865 18.5848L11.5009 19.1185L12.1446 22.1218C12.1446 22.1218 12.1446 22.1219 12.1446 22.1219C12.161 22.1986 12.1953 22.2703 12.2446 22.3313C12.2939 22.3923 12.3568 22.4409 12.4283 22.4731C12.4998 22.5053 12.5779 22.5202 12.6563 22.5167C12.7346 22.5132 12.8111 22.4913 12.8794 22.4527L16.7772 20.2542C17.2331 19.9753 17.5893 19.5593 17.7947 19.0657C18.001 18.57 18.0446 18.0215 17.9193 17.4995L9.53754 6.85488ZM9.53754 6.85488L9.7367 6.61839L10.8509 5.29535C10.851 5.29519 10.8512 5.29503 10.8513 5.29488C12.1594 3.74891 13.8774 2.60378 15.8076 1.99132C17.7377 1.3789 19.8015 1.32397 21.7615 1.83286C21.8469 1.85551 21.9248 1.90035 21.9873 1.96286C22.0499 2.02545 22.0948 2.10351 22.1174 2.18909C22.6322 4.14964 22.5799 6.21608 21.9664 8.14802C21.3528 10.08 20.2034 11.798 18.6518 13.1022L18.6433 13.1094L18.6351 13.1169L17.398 14.2545L17.1812 14.454L17.2506 14.7403L17.919 17.4986L9.53754 6.85488ZM3.13668 10.4781L2.80285 11.0701L3.46745 11.2126L5.57151 11.6634L5.94577 11.7436L6.12088 11.4033C6.54401 10.5809 7.05641 9.80763 7.64884 9.09745C7.64906 9.09717 7.64929 9.0969 7.64952 9.09662L8.29804 8.32656L8.81831 7.70878L8.03337 7.51855L6.35497 7.11178C6.05757 6.99262 5.72641 6.98502 5.42303 7.09151C5.10688 7.20248 4.84462 7.429 4.6888 7.72533L3.13668 10.4781ZM16.2881 19.3817L16.3084 19.3703L16.3276 19.3569C16.5855 19.1778 16.7825 18.9242 16.8923 18.6301C17.0018 18.3369 17.0194 18.0174 16.9428 17.714L16.54 16.0519L16.3401 15.2273L15.7156 15.8016L14.9765 16.4812C14.2783 17.0925 13.5044 17.6116 12.674 18.0258L12.327 18.1989L12.4082 18.578L12.8377 20.5827L12.9801 21.2475L13.5722 20.9135L16.2881 19.3817ZM14.2992 15.7452L14.3049 15.7402L14.3105 15.7351L17.9864 12.3567C19.3158 11.244 20.3234 9.79601 20.9048 8.16265C21.4875 6.52549 21.6205 4.76204 21.2901 3.05597L21.2257 2.723L20.8925 2.65979C19.1924 2.33729 17.4371 2.47177 15.806 3.0495C14.1748 3.62724 12.7262 4.62753 11.6081 5.94823L11.6073 5.94921L10.1723 7.65298L10.1622 7.66503L10.1528 7.6777C10.1412 7.69335 10.1287 7.70826 10.1152 7.72233L10.1043 7.73371L10.0942 7.74575L8.41585 9.73853L8.41503 9.73951C7.10873 11.2986 6.24204 13.178 5.90435 15.1839L5.86154 15.4381L6.04385 15.6204L8.44815 18.0248L8.6213 18.198L8.86426 18.1674C10.8752 17.9138 12.7661 17.071 14.2992 15.7452ZM16.7337 6.3165C16.865 6.31649 16.995 6.34235 17.1164 6.3926C17.2377 6.44286 17.3479 6.51652 17.4408 6.60938C17.5337 6.70225 17.6073 6.8125 17.6576 6.93384C17.7078 7.05517 17.7337 7.18522 17.7337 7.31656V7.3166C17.7337 7.5144 17.675 7.70775 17.5652 7.87222C17.4553 8.03668 17.2991 8.16486 17.1164 8.24055C16.9336 8.31624 16.7326 8.33604 16.5386 8.29745C16.3446 8.25887 16.1664 8.16362 16.0266 8.02376C15.8867 7.8839 15.7915 7.70571 15.7529 7.51171C15.7143 7.31771 15.7341 7.11662 15.8098 6.93388C15.8855 6.75113 16.0137 6.59495 16.1781 6.48506C16.3426 6.37517 16.5359 6.31652 16.7337 6.31652V6.3165Z" fill="#6100D4" stroke="#6100D4"/>
</svg>
