<svg width="32" height="32" viewBox="0 0 32 32" fill="none" xmlns="http://www.w3.org/2000/svg">
<path d="M27 3H5C4.44775 3 4 2.55273 4 2C4 1.44727 4.44775 1 5 1H27C27.5522 1 28 1.44727 28 2C28 2.55273 27.5522 3 27 3Z" fill="white"/>
<path d="M27 31H5C4.44775 31 4 30.5527 4 30C4 29.4473 4.44775 29 5 29H27C27.5522 29 28 29.4473 28 30C28 30.5527 27.5522 31 27 31Z" fill="white"/>
<path d="M24.3994 31H7.59962C7.04884 31 6.60157 30.5547 6.59962 30.0029C6.59913 29.8125 6.6045 25.2754 8.38234 21.4014C9.58448 18.7812 10.9502 16.9355 11.7227 16C10.9502 15.0645 9.58448 13.2188 8.38234 10.5986C6.6045 6.72461 6.59913 2.1875 6.59962 1.99707C6.60157 1.44531 7.04884 1 7.59962 1H24.3994C24.9502 1 25.3975 1.44531 25.3994 1.99707C25.3999 2.1875 25.3945 6.72461 23.6167 10.5986C22.4146 13.2188 21.0488 15.0645 20.2764 16C21.0488 16.9355 22.4146 18.7812 23.6167 21.4014C25.3945 25.2754 25.3999 29.8125 25.3994 30.0029C25.3975 30.5547 24.9502 31 24.3994 31ZM8.64161 29H23.3574C23.2578 27.5283 22.9229 24.6846 21.7993 22.2354C20.1948 18.7393 18.249 16.7187 18.23 16.6982C17.8521 16.3105 17.8521 15.6895 18.23 15.3018C18.249 15.2813 20.1948 13.2607 21.7993 9.76465C22.9229 7.31543 23.2578 4.47168 23.3574 3H8.64161C8.74122 4.47168 9.07618 7.31543 10.1997 9.76465C11.8042 13.2607 13.75 15.2813 13.7691 15.3018C14.147 15.6895 14.147 16.3105 13.7691 16.6982C13.75 16.7187 11.8042 18.7393 10.1997 22.2354C9.07618 24.6846 8.74122 27.5283 8.64161 29Z" fill="white"/>
<path d="M11.2246 26.98C11.2246 26.98 11.2163 24.4428 12.1865 22.3284C13.1566 20.214 14.7384 19.02 16.0007 19.02C17.2629 19.02 18.8447 20.214 19.8148 22.3284C20.785 24.4428 20.7767 26.98 20.7767 26.98H11.2246V26.98Z" fill="white"/>
</svg>
