<svg width="87" height="12" viewBox="0 0 87 12" fill="none" xmlns="http://www.w3.org/2000/svg">
<path d="M4.06583 9.712C2.93183 9.712 2.30183 9.138 2.20383 8.368C2.17583 8.13 2.00783 8.032 1.69983 8.088L1.05583 8.186C0.761828 8.242 0.635828 8.41 0.677828 8.69C0.775828 9.39 1.11183 9.978 1.65783 10.44C2.21783 10.902 3.00183 11.14 4.02383 11.126C6.44583 11.112 7.48183 9.978 7.48183 8.396C7.48183 4.7 2.42783 5.61 2.42783 3.524C2.42783 2.74 2.95983 2.166 4.06583 2.166C5.17183 2.166 5.80183 2.754 5.89983 3.664C5.89983 3.888 6.03983 3.972 6.33383 3.93L7.03383 3.818C7.32783 3.776 7.45383 3.608 7.41183 3.314C7.24383 1.732 6.09583 0.751999 4.02383 0.751999C2.97383 0.751999 2.16183 1.032 1.61583 1.578C1.06983 2.124 0.803828 2.768 0.803828 3.496C0.803828 7.094 5.82983 5.974 5.82983 8.242C5.82983 9.222 5.24183 9.712 4.06583 9.712ZM8.46041 0.863999C8.16641 0.863999 8.01241 1.018 8.01241 1.312V1.844C8.01241 2.138 8.16641 2.278 8.46041 2.278H10.7004V10.552C10.7004 10.846 10.8404 11 11.1344 11H11.8764C12.1704 11 12.3244 10.846 12.3244 10.552V2.278H14.5784C14.8724 2.278 15.0124 2.138 15.0124 1.844V1.312C15.0124 1.018 14.8724 0.863999 14.5784 0.863999H8.46041ZM15.8222 11C16.1302 11 16.3262 10.86 16.3962 10.566L16.7882 8.998H19.8122L20.2182 10.58C20.2882 10.86 20.4702 11 20.7782 11H21.6042C21.8702 11 21.9822 10.79 21.9262 10.566L19.2522 1.256C19.1822 0.99 19.0002 0.863999 18.7062 0.863999H17.9502C17.6002 0.863999 17.5022 0.933999 17.4042 1.256L14.7302 10.566C14.6602 10.86 14.7582 11 15.0242 11H15.8222ZM17.1102 7.766L18.3002 3.104L19.4902 7.766H17.1102ZM28.0252 6.856C29.4112 6.408 30.0972 5.484 30.0972 4.098C30.0972 1.942 28.8092 0.863999 26.2332 0.863999H23.4472C23.1672 0.863999 22.9992 1.046 22.9992 1.312V10.552C22.9992 10.846 23.1532 11 23.4472 11H24.1892C24.4832 11 24.6372 10.846 24.6372 10.552V7.136H26.1072C26.2892 7.136 26.4292 7.136 26.4992 7.122L28.1372 10.594C28.2632 10.86 28.4732 11 28.7672 11H29.5232C29.7892 11 29.8872 10.804 29.7892 10.594L28.0252 6.856ZM28.5432 4.07C28.5432 5.246 27.6612 5.792 26.2752 5.792H24.6372V2.292H26.2052C27.6472 2.292 28.5432 2.852 28.5432 4.07ZM30.9506 0.863999C30.6566 0.863999 30.5026 1.018 30.5026 1.312V1.844C30.5026 2.138 30.6566 2.278 30.9506 2.278H33.1906V10.552C33.1906 10.846 33.3306 11 33.6246 11H34.3666C34.6606 11 34.8146 10.846 34.8146 10.552V2.278H37.0686C37.3626 2.278 37.5026 2.138 37.5026 1.844V1.312C37.5026 1.018 37.3626 0.863999 37.0686 0.863999H30.9506ZM41.1691 10.552C41.1691 10.846 41.3231 11 41.6171 11H42.3591C42.6531 11 42.8071 10.846 42.8071 10.552V7.276H44.4591C46.8111 7.276 48.3371 6.184 48.3371 4.098C48.3371 1.942 47.0491 0.863999 44.4871 0.863999H41.6171C41.3371 0.863999 41.1691 1.046 41.1691 1.312V10.552ZM44.4591 2.292C45.8731 2.292 46.7831 2.852 46.7831 4.07C46.7831 5.288 45.9151 5.848 44.5151 5.848H42.8071V2.292H44.4591ZM49.5226 10.552C49.5226 10.846 49.6766 11 49.9706 11H57.0966C57.3906 11 57.5306 10.846 57.5306 10.552V10.02C57.5306 9.726 57.3906 9.586 57.0966 9.586H51.1606V1.312C51.1606 1.018 51.0066 0.863999 50.7126 0.863999H49.9706C49.6766 0.863999 49.5226 1.018 49.5226 1.312V10.552ZM55.8366 6.632L56.0746 7.528C56.1446 7.808 56.3266 7.948 56.6346 7.948H57.1106C57.3766 7.948 57.4886 7.752 57.4186 7.528L55.5986 1.284C55.5006 1.004 55.3046 0.863999 55.0246 0.863999H54.4226C54.1426 0.863999 53.9466 1.004 53.8486 1.284L52.0286 7.528C51.9726 7.752 52.0846 7.948 52.3506 7.948H52.8266C53.1346 7.948 53.3166 7.808 53.3726 7.528L53.6106 6.632H55.8366ZM53.8906 5.596L54.7306 2.404L55.5706 5.596H53.8906ZM60.1041 10.552C60.1041 10.846 60.2441 11 60.5381 11H61.2801C61.5741 11 61.7281 10.846 61.7281 10.552V7.08L64.5421 1.27C64.6541 1.06 64.5561 0.863999 64.2901 0.863999H63.5061C63.2121 0.863999 63.0021 0.99 62.8761 1.256L60.9721 5.372L59.0961 1.27C58.9701 1.004 58.7601 0.863999 58.4661 0.863999H57.5701C57.3041 0.863999 57.2061 1.06 57.3181 1.27L60.1041 7.108V10.552ZM67.9234 2.292H68.5254C68.8194 2.292 68.9734 2.138 68.9734 1.844V1.312C68.9734 1.018 68.8194 0.863999 68.5254 0.863999H65.6694C65.3754 0.863999 65.2354 1.018 65.2354 1.312V1.844C65.2354 2.138 65.3754 2.292 65.6694 2.292H66.2854V9.586H65.6694C65.3754 9.586 65.2354 9.726 65.2354 10.02V10.552C65.2354 10.846 65.3754 11 65.6694 11H68.5254C68.8194 11 68.9734 10.846 68.9734 10.552V10.02C68.9734 9.726 68.8194 9.586 68.5254 9.586H67.9234V2.292ZM71.9835 1.172C71.7735 0.962 71.5215 0.863999 71.2275 0.863999H70.7655C70.4715 0.863999 70.3175 1.018 70.3175 1.312V10.552C70.3175 10.846 70.4715 11 70.7655 11H71.5075C71.8015 11 71.9555 10.846 71.9555 10.552V3.258L76.0435 7.402V10.552C76.0435 10.846 76.1975 11 76.4915 11H77.2195C77.5135 11 77.6675 10.846 77.6675 10.552V1.312C77.6675 1.018 77.5135 0.863999 77.2195 0.863999H76.4915C76.1975 0.863999 76.0435 1.018 76.0435 1.312V5.344L71.9835 1.172ZM82.9784 5.848C82.6844 5.848 82.5304 5.988 82.5304 6.282V6.604C82.5304 6.898 82.6844 7.052 82.9784 7.052H84.7284V7.626C84.7284 8.984 84.0844 9.656 82.7964 9.656C81.7044 9.6 81.2004 9.208 80.9624 8.242C80.8084 7.57 80.7944 7.024 80.7944 6.002C80.7944 4.84 80.8644 4.168 81.1024 3.384C81.3684 2.6 81.9144 2.208 82.7964 2.208C84.0704 2.208 84.6724 3.034 84.7144 4.21C84.7284 4.462 84.8964 4.56 85.2044 4.504L85.8344 4.392C86.1704 4.336 86.2544 4.21 86.2404 3.874C86.1844 2.964 85.9604 2.292 85.4564 1.69C84.9524 1.088 84.0424 0.751999 82.7964 0.751999C80.9904 0.751999 80.0384 1.578 79.5624 2.908C79.2404 3.818 79.1424 4.756 79.1424 6.002C79.1424 7.724 79.3244 8.83 79.8424 9.768C80.3884 10.678 81.3404 11.112 82.7964 11.112C85.0924 11.112 86.2404 9.936 86.2404 7.57V6.282C86.2404 6.016 86.0724 5.848 85.7924 5.848H82.9784Z" fill="white"/>
</svg>
