<svg width="502" height="114" viewBox="0 0 502 114" fill="none" xmlns="http://www.w3.org/2000/svg">
<path d="M0.0732422 75.7785H38.6732V94.7C38.6732 99.8187 36.6398 104.728 33.0203 108.347C29.4009 111.967 24.4919 114 19.3732 114C14.2545 114 9.34552 111.967 5.72607 108.347C2.10663 104.728 0.0732422 99.8187 0.0732422 94.7L0.0732422 75.7785Z" fill="#FF240A"/>
<path d="M38.6736 75.7785H77.2735V94.7C77.2735 99.8168 75.2416 104.724 71.6245 108.343C68.0074 111.962 63.1012 113.997 57.9844 114C55.4489 114.001 52.9381 113.503 50.5953 112.534C48.2524 111.565 46.1235 110.143 44.3302 108.351C42.5369 106.559 41.1143 104.431 40.1437 102.088C39.1732 99.746 38.6736 97.2354 38.6736 94.7V75.7785Z" fill="#FFBF99"/>
<path d="M77.2842 75.7785H115.884V94.7C115.884 99.8187 113.851 104.728 110.231 108.347C106.612 111.967 101.703 114 96.5841 114C91.4655 114 86.5565 111.967 82.937 108.347C79.3176 104.728 77.2842 99.8187 77.2842 94.7V75.7785Z" fill="#FF240A"/>
<path d="M173.794 114C171.26 114 168.75 113.501 166.409 112.531C164.067 111.561 161.939 110.139 160.147 108.347C158.355 106.555 156.933 104.427 155.964 102.086C154.994 99.7442 154.494 97.2345 154.494 94.7V75.7785H193.094V94.7C193.094 99.8187 191.061 104.728 187.441 108.347C183.822 111.967 178.913 114 173.794 114Z" fill="#FF240A"/>
<path d="M212.395 114C207.277 113.997 202.37 111.963 198.751 108.344C195.132 104.725 193.098 99.8178 193.095 94.7V75.7785H231.705V94.7C231.703 99.8197 229.667 104.729 226.046 108.348C222.425 111.967 217.514 114 212.395 114Z" fill="#FFBF99"/>
<path d="M135.195 114C130.075 114 125.165 111.967 121.544 108.348C117.922 104.729 115.887 99.8197 115.884 94.7V75.7785H154.495V94.7C154.495 99.8187 152.461 104.728 148.842 108.347C145.222 111.967 140.313 114 135.195 114Z" fill="#FFBF99"/>
<path d="M251.005 114C245.886 114 240.977 111.967 237.358 108.347C233.738 104.728 231.705 99.8187 231.705 94.7V75.7785H270.305V94.7C270.305 99.8187 268.272 104.728 264.652 108.347C261.033 111.967 256.124 114 251.005 114Z" fill="#FF240A"/>
<path d="M289.605 114C284.487 114 279.578 111.967 275.958 108.347C272.339 104.728 270.305 99.8187 270.305 94.7V75.7785H308.905V94.7C308.905 99.8187 306.872 104.728 303.253 108.347C299.633 111.967 294.724 114 289.605 114Z" fill="#FFBF99"/>
<path d="M328.249 114C323.129 114 318.219 111.967 314.598 108.348C310.977 104.729 308.941 99.8197 308.938 94.7V75.7785H347.549V94.7C347.549 99.8187 345.515 104.728 341.896 108.347C338.276 111.967 333.367 114 328.249 114Z" fill="#FF240A"/>
<path d="M366.816 114C361.697 114 356.788 111.967 353.169 108.347C349.549 104.728 347.516 99.8187 347.516 94.7V75.7785H386.116V94.7C386.116 99.8187 384.082 104.728 380.463 108.347C376.844 111.967 371.934 114 366.816 114Z" fill="#FFBF99"/>
<path d="M405.416 114C400.298 114 395.388 111.967 391.769 108.347C388.15 104.728 386.116 99.8187 386.116 94.7V75.7785H424.727V94.7C424.724 99.8197 422.688 104.729 419.067 108.348C415.446 111.967 410.536 114 405.416 114Z" fill="#FF240A"/>
<path d="M444.027 114C438.908 114 433.999 111.967 430.379 108.347C426.76 104.728 424.727 99.8187 424.727 94.7V75.7785H463.326V94.7C463.326 99.8187 461.293 104.728 457.674 108.347C454.054 111.967 449.145 114 444.027 114Z" fill="#FFBF99"/>
<path d="M482.627 114C477.508 114 472.599 111.967 468.98 108.347C465.36 104.728 463.327 99.8187 463.327 94.7V75.7785H501.927V94.7C501.927 97.2345 501.428 99.7442 500.458 102.086C499.488 104.427 498.066 106.555 496.274 108.347C494.482 110.139 492.354 111.561 490.013 112.531C487.671 113.501 485.161 114 482.627 114Z" fill="#FF240A"/>
<path d="M0.0732422 75.7785H501.926L481.439 40.9317C479.643 37.8763 476.363 36 472.819 36H29.1812C25.6368 36 22.3572 37.8763 20.5607 40.9317L0.0732422 75.7785Z" fill="#FFD9C2"/>
<path d="M0.0732422 75.7785L20.5397 40.9352C22.3357 37.8778 25.6164 36 29.1623 36H58.4489L38.6732 75.7785H0.0732422Z" fill="#FF412B"/>
<path d="M77.2842 75.7785L93.4594 36H128.47L115.884 75.7785H77.2842Z" fill="#FF412B"/>
<path d="M154.494 75.7785L163.479 36H198.49L193.094 75.7785H154.494Z" fill="#FF412B"/>
<path d="M501.927 75.7785L481.46 40.9352C479.665 37.8778 476.384 36 472.838 36H443.551L463.327 75.7785H501.927Z" fill="#FF412B"/>
<path d="M424.716 75.7785L408.541 36H373.531L386.116 75.7785H424.716Z" fill="#FF412B"/>
<path d="M347.506 75.7785L338.52 36H303.51L308.906 75.7785H347.506Z" fill="#FF412B"/>
<path d="M231.695 75.7785L233.5 36H268.5L270.305 75.7785H231.695Z" fill="#FF412B"/>
<g filter="url(#filter0_dd_522:13970)">
<rect x="101" width="300" height="50" rx="8" fill="#FF3815"/>
<rect x="102.5" y="1.5" width="297" height="47" rx="6.5" stroke="#D62000" stroke-width="3"/>
</g>
<defs>
<filter id="filter0_dd_522:13970" x="101" y="0" width="300" height="68" filterUnits="userSpaceOnUse" color-interpolation-filters="sRGB">
<feFlood flood-opacity="0" result="BackgroundImageFix"/>
<feColorMatrix in="SourceAlpha" type="matrix" values="0 0 0 0 0 0 0 0 0 0 0 0 0 0 0 0 0 0 127 0" result="hardAlpha"/>
<feMorphology radius="9" operator="erode" in="SourceAlpha" result="effect1_dropShadow_522:13970"/>
<feOffset dy="20"/>
<feGaussianBlur stdDeviation="3.5"/>
<feColorMatrix type="matrix" values="0 0 0 0 0 0 0 0 0 0 0 0 0 0 0 0 0 0 0.1 0"/>
<feBlend mode="normal" in2="BackgroundImageFix" result="effect1_dropShadow_522:13970"/>
<feColorMatrix in="SourceAlpha" type="matrix" values="0 0 0 0 0 0 0 0 0 0 0 0 0 0 0 0 0 0 127 0" result="hardAlpha"/>
<feOffset dy="6"/>
<feColorMatrix type="matrix" values="0 0 0 0 0.839216 0 0 0 0 0.12549 0 0 0 0 0 0 0 0 1 0"/>
<feBlend mode="normal" in2="effect1_dropShadow_522:13970" result="effect2_dropShadow_522:13970"/>
<feBlend mode="normal" in="SourceGraphic" in2="effect2_dropShadow_522:13970" result="shape"/>
</filter>
</defs>
</svg>
