<svg width="24" height="24" viewBox="0 0 24 24" fill="none" xmlns="http://www.w3.org/2000/svg">
<rect width="24" height="24" rx="12" fill="#EEDFFF"/>
<path d="M18.7532 6.47789C18.6779 6.4241 18.5905 6.38981 18.4987 6.3781C18.407 6.36638 18.3137 6.37761 18.2274 6.41077C17.9274 6.53887 17.6002 6.58978 17.2755 6.55883C16.9508 6.52788 16.639 6.41607 16.3687 6.23361C16.0983 6.05114 15.878 5.80385 15.7278 5.51431C15.5776 5.22477 15.5024 4.90222 15.509 4.57612C15.5109 4.50196 15.498 4.42817 15.4711 4.35903C15.4442 4.28989 15.4039 4.22678 15.3524 4.1734C15.3004 4.11886 15.2379 4.07539 15.1687 4.04559C15.0995 4.01579 15.025 4.00029 14.9496 4H12.7123C12.5639 4 12.4216 4.05893 12.3167 4.16383C12.2118 4.26873 12.1529 4.411 12.1529 4.55934V14.1353C12.1529 14.4119 12.0709 14.6822 11.9173 14.9122C11.7636 15.1421 11.5452 15.3214 11.2897 15.4272C11.0342 15.5331 10.753 15.5607 10.4818 15.5068C10.2105 15.4528 9.96133 15.3197 9.76577 15.1241C9.57021 14.9285 9.43703 14.6794 9.38307 14.4081C9.32911 14.1369 9.35681 13.8557 9.46264 13.6002C9.56848 13.3447 9.74771 13.1263 9.97767 12.9726C10.2076 12.819 10.478 12.7369 10.7546 12.7369C10.9029 12.7369 11.0452 12.678 11.1501 12.5731C11.255 12.4682 11.3139 12.3259 11.3139 12.1776V9.94023C11.3139 9.79188 11.255 9.64961 11.1501 9.54471C11.0452 9.43981 10.9029 9.38088 10.7546 9.38088C9.49406 9.38236 8.28562 9.88375 7.39431 10.7751C6.50301 11.6664 6.00162 12.8748 6.00014 14.1353C5.9924 15.1392 6.306 16.1192 6.89509 16.932C6.94656 17.0043 7.01449 17.0633 7.09327 17.1042C7.17205 17.145 7.25942 17.1665 7.34816 17.1669C7.46919 17.1609 7.58501 17.1158 7.67817 17.0383C7.73823 16.9955 7.78922 16.9412 7.82823 16.8786C7.86723 16.816 7.89346 16.7463 7.90542 16.6735C7.91737 16.6007 7.91482 16.5263 7.8979 16.4545C7.88097 16.3827 7.85002 16.315 7.80682 16.2552C7.35915 15.6391 7.11829 14.8969 7.11883 14.1353C7.12012 13.2679 7.43054 12.4294 7.99436 11.7702C8.55819 11.111 9.33849 10.6744 10.1952 10.5387V11.6574C9.73423 11.7625 9.31216 11.9953 8.97736 12.3292C8.64256 12.663 8.40857 13.0844 8.30218 13.5451C8.19579 14.0058 8.2213 14.4871 8.37581 14.934C8.53031 15.3809 8.80755 15.7752 9.17578 16.0718C9.544 16.3683 9.98831 16.5552 10.4578 16.611C10.9273 16.6667 11.4031 16.5891 11.8305 16.387C12.258 16.1849 12.6198 15.8665 12.8747 15.4683C13.1296 15.0701 13.2671 14.6081 13.2716 14.1353V5.11869H14.4294C14.5474 5.83946 14.9175 6.49491 15.4738 6.9682C16.0301 7.44148 16.7363 7.70184 17.4667 7.70285C17.6069 7.70189 17.747 7.69255 17.8862 7.67489V8.76001C16.9753 8.91765 16.038 8.75352 15.2349 8.29576C15.1499 8.24667 15.0534 8.22082 14.9552 8.22082C14.857 8.22082 14.7606 8.24667 14.6756 8.29576C14.5902 8.34504 14.5194 8.416 14.4703 8.50145C14.4212 8.58691 14.3955 8.68382 14.3959 8.78239V14.1353C14.3945 14.7333 14.2459 15.3218 13.9631 15.8488C13.6803 16.3758 13.272 16.825 12.7744 17.1567C12.2768 17.4884 11.7052 17.6925 11.11 17.7509C10.5148 17.8092 9.91437 17.7201 9.36179 17.4914C9.22785 17.4465 9.0819 17.454 8.95326 17.5124C8.82462 17.5707 8.72282 17.6756 8.66829 17.8059C8.61376 17.9362 8.61055 18.0823 8.6593 18.2148C8.70805 18.3474 8.80515 18.4566 8.9311 18.5206C9.51153 18.766 10.1356 18.8915 10.7657 18.8897C11.9626 18.8879 13.1149 18.4359 13.9937 17.6234C14.8725 16.8109 15.4135 15.6975 15.509 14.5045C15.5121 14.4747 15.5121 14.4447 15.509 14.415V9.64937C16.5043 9.9972 17.5828 10.0285 18.5966 9.73886C18.7165 9.70399 18.8213 9.62996 18.8943 9.52859C18.9673 9.42722 19.0042 9.30434 18.9993 9.17952V6.97011C19.0042 6.87381 18.9841 6.77789 18.9409 6.69164C18.8978 6.6054 18.8331 6.53177 18.7532 6.47789V6.47789Z" fill="#6100D4"/>
</svg>
