<svg width="24" height="24" viewBox="0 0 24 24" fill="none" xmlns="http://www.w3.org/2000/svg">
<path d="M8 20.999H16" stroke="#313336" stroke-width="2" stroke-linecap="round" stroke-linejoin="round"/>
<path d="M12 16.9991V20.999" stroke="#313336" stroke-width="2" stroke-linecap="round" stroke-linejoin="round"/>
<path d="M20 2.99988H4C2.89543 2.99988 2 3.89527 2 4.99978V14.9993C2 16.1038 2.89543 16.9992 4 16.9992H20C21.1046 16.9992 22 16.1038 22 14.9993V4.99978C22 3.89527 21.1046 2.99988 20 2.99988Z" stroke="#313336" stroke-width="2" stroke-linecap="round" stroke-linejoin="round"/>
<path d="M10 6.93399C10 6.53465 10.4451 6.29645 10.7773 6.51796L15.3759 9.58353C15.6728 9.78144 15.6728 10.2177 15.3759 10.4156L10.7773 13.4812C10.4451 13.7027 10 13.4645 10 13.0651V6.93399Z" fill="#313336"/>
</svg>
