<svg width="24" height="24" viewBox="0 0 24 24" fill="none" xmlns="http://www.w3.org/2000/svg">
<rect width="24" height="24" rx="12" fill="#EEDFFF"/>
<path fill-rule="evenodd" clip-rule="evenodd" d="M11.7978 9.19219L11.8281 9.71122L11.3224 9.64767C9.48129 9.40404 7.87288 8.57782 6.50725 7.1902L5.83961 6.50169L5.66764 7.01013C5.30347 8.14353 5.53614 9.34048 6.29482 10.1455C6.69945 10.5904 6.60841 10.654 5.91042 10.3891C5.66764 10.3044 5.45521 10.2408 5.43498 10.2726C5.36417 10.3468 5.60695 11.3107 5.79915 11.692C6.06216 12.2217 6.59829 12.7407 7.18501 13.0479L7.68068 13.2915L7.09396 13.3021C6.52748 13.3021 6.50725 13.3127 6.56794 13.5351C6.77026 14.2236 7.56941 14.9545 8.45959 15.2723L9.08677 15.4947L8.54052 15.8337C7.73126 16.321 6.78038 16.5964 5.82949 16.6175C5.37428 16.6281 5 16.6705 5 16.7023C5 16.8082 6.23412 17.4014 6.95234 17.6344C9.107 18.3229 11.6663 18.0264 13.5883 16.8506C14.9539 16.0138 16.3195 14.3507 16.9568 12.7407C17.3008 11.8827 17.6447 10.315 17.6447 9.56293C17.6447 9.07567 17.6751 9.01212 18.2415 8.42953C18.5754 8.09056 18.889 7.71983 18.9496 7.6139C19.0508 7.41264 19.0407 7.41264 18.5248 7.59272C17.6649 7.91049 17.5436 7.86812 17.9684 7.39146C18.282 7.0525 18.6563 6.43813 18.6563 6.25806C18.6563 6.22628 18.5046 6.27924 18.3326 6.37458C18.1505 6.4805 17.7459 6.63939 17.4424 6.73472L16.8961 6.91479L16.4005 6.56524C16.1273 6.37458 15.7429 6.16273 15.5406 6.09917C15.0247 5.95087 14.2357 5.97206 13.7704 6.14154C12.5059 6.6182 11.7068 7.84694 11.7978 9.19219Z" fill="#6100D4"/>
</svg>
