<svg width="20" height="16" viewBox="0 0 20 16" fill="none" xmlns="http://www.w3.org/2000/svg">
<path d="M17 0H3C2.20435 0 1.44129 0.316071 0.87868 0.87868C0.316071 1.44129 0 2.20435 0 3V13C0 13.7956 0.316071 14.5587 0.87868 15.1213C1.44129 15.6839 2.20435 16 3 16H17C17.7956 16 18.5587 15.6839 19.1213 15.1213C19.6839 14.5587 20 13.7956 20 13V3C20 2.20435 19.6839 1.44129 19.1213 0.87868C18.5587 0.316071 17.7956 0 17 0V0ZM18 10.3H15C14.39 10.3 13.805 10.0577 13.3737 9.62635C12.9423 9.19501 12.7 8.61 12.7 8C12.7 7.39 12.9423 6.80499 13.3737 6.37365C13.805 5.94232 14.39 5.7 15 5.7H18V10.3ZM18 4H15C13.9391 4 12.9217 4.42143 12.1716 5.17157C11.4214 5.92172 11 6.93913 11 8C11 9.06087 11.4214 10.0783 12.1716 10.8284C12.9217 11.5786 13.9391 12 15 12H18V13C18 13.2652 17.8946 13.5196 17.7071 13.7071C17.5196 13.8946 17.2652 14 17 14H3C2.73478 14 2.48043 13.8946 2.29289 13.7071C2.10536 13.5196 2 13.2652 2 13V3C2 2.73478 2.10536 2.48043 2.29289 2.29289C2.48043 2.10536 2.73478 2 3 2H17C17.2652 2 17.5196 2.10536 17.7071 2.29289C17.8946 2.48043 18 2.73478 18 3V4ZM14 8C14 8.19778 14.0586 8.39112 14.1685 8.55557C14.2784 8.72002 14.4346 8.84819 14.6173 8.92388C14.8 8.99957 15.0011 9.01937 15.1951 8.98079C15.3891 8.9422 15.5673 8.84696 15.7071 8.70711C15.847 8.56725 15.9422 8.38907 15.9808 8.19509C16.0194 8.00111 15.9996 7.80004 15.9239 7.61732C15.8482 7.43459 15.72 7.27841 15.5556 7.16853C15.3911 7.05865 15.1978 7 15 7C14.7348 7 14.4804 7.10536 14.2929 7.29289C14.1054 7.48043 14 7.73478 14 8Z" fill="white"/>
</svg>
