<svg width="24" height="24" viewBox="0 0 24 24" fill="none" xmlns="http://www.w3.org/2000/svg">
<rect width="24" height="24" rx="12" fill="#EEDFFF"/>
<path d="M18.7284 8.36972C18.5789 7.81036 18.1384 7.36991 17.5791 7.22041C16.5652 6.94873 12.5 6.94873 12.5 6.94873C12.5 6.94873 8.43478 6.94873 7.42088 7.22041C6.86163 7.36991 6.42108 7.81036 6.2716 8.36972C6 9.38351 6 11.4988 6 11.4988C6 11.4988 6 13.614 6.2716 14.6277C6.42108 15.1871 6.86163 15.6277 7.42088 15.7772C8.43478 16.0487 12.5 16.0487 12.5 16.0487C12.5 16.0487 16.5652 16.0487 17.5791 15.7772C18.1384 15.6277 18.5789 15.1871 18.7284 14.6277C19 13.614 19 11.4988 19 11.4988C19 11.4988 19 9.38351 18.7284 8.36972V8.36972ZM11.1999 13.4488V9.54876L14.5774 11.4988L11.1999 13.4488Z" fill="#6100D4"/>
</svg>
