<svg width="1153" height="1313" viewBox="0 0 1153 1313" fill="none" xmlns="http://www.w3.org/2000/svg">
<path d="M354.739 889.755L345.589 890.477C340.578 890.872 335.321 891.108 330.227 891.337C326.997 891.482 323.831 891.624 320.835 891.802C312.8 892.279 305.133 893.039 297.694 894.764C294.925 895.406 292.182 896.702 288.5 898.44L288.174 898.593C284.664 900.25 280.165 902.358 275.223 903.175C267.163 904.509 259.039 904.214 251.759 903.95C251.428 903.938 251.099 903.926 250.772 903.914C242.963 903.634 236.055 903.466 229.411 904.74C222.795 906.009 216.28 908.607 208.981 911.518L208.178 911.838C200.845 914.761 192.653 917.976 184.069 919.213C180.111 919.784 176.198 919.654 173.008 919.549L172.757 919.541C169.292 919.426 166.607 919.358 164.069 919.723C150.543 921.672 137.714 925.289 124.375 929.049C117.699 930.931 110.895 932.85 103.811 934.613L101.999 927.335L103.811 934.613C102.238 935.004 100.685 935.383 99.1527 935.756C85.25 939.142 73.0802 942.107 64.1345 950.51C53.5587 960.445 46.5253 975.328 44.0203 991.472C41.5168 1007.61 43.6522 1024.28 50.5363 1037.54C51.923 1040.22 54.767 1042.58 59.3278 1046.37L59.6482 1046.64L59.7366 1046.71C63.6468 1049.97 69.519 1054.85 71.6567 1061.82L64.4863 1064.02L71.6567 1061.82C74.1084 1069.81 73.7378 1078.46 73.2083 1085.86C73.1128 1087.19 73.0127 1088.49 72.9155 1089.74C72.4348 1095.96 72.024 1101.27 72.5801 1106.15C73.5525 1114.69 78.2747 1123.31 85.3543 1130.14C92.4361 1136.97 101.309 1141.46 109.798 1142.37C128.483 1144.37 150.132 1139.5 168.03 1131.78M354.739 889.755L170.999 1138.67M354.739 889.755L352.209 880.932M354.739 889.755L352.209 880.932M168.03 1131.78L170.999 1138.67M168.03 1131.78C168.03 1131.78 168.03 1131.78 168.03 1131.78L170.999 1138.67M168.03 1131.78C170.422 1130.75 172.76 1129.09 175.907 1126.86C176.3 1126.58 176.706 1126.29 177.126 1126C180.479 1123.63 184.937 1120.56 190.056 1119.19C198.089 1117.03 206.924 1117.7 214.436 1118.4C215.365 1118.49 216.277 1118.57 217.17 1118.66C224.043 1119.32 229.891 1119.88 235.118 1119.27C246.842 1117.88 257.766 1115.87 268.607 1112.22C270.565 1111.56 272.42 1110.71 274.662 1109.69C275.494 1109.31 276.379 1108.91 277.343 1108.48C280.589 1107.04 284.571 1105.41 288.932 1104.79C295.056 1103.91 301.281 1104.2 306.721 1104.47L306.833 1104.47C312.483 1104.75 317.362 1104.99 322.012 1104.42C327.045 1103.82 332.117 1102.61 337.676 1101.26L338.159 1101.14C343.438 1099.86 349.176 1098.46 355.03 1097.7C382.814 1094.08 411.233 1092.09 439.207 1090.13C450.704 1089.32 462.127 1088.52 473.398 1087.62C502.657 1085.27 532.522 1085.42 561.954 1085.58C576.748 1085.66 591.432 1085.74 605.874 1085.5C607.443 1085.47 609.083 1084.95 612.074 1083.9L612.373 1083.8C614.946 1082.89 618.788 1081.53 623.044 1081.56C627.965 1081.59 632.359 1083.55 635.251 1084.85L635.472 1084.95C638.909 1086.49 640.798 1087.29 642.601 1087.43C648.725 1087.92 654.689 1088.54 660.564 1089.15C670.266 1090.16 679.727 1091.14 689.272 1091.49C693.853 1091.65 698.472 1091.5 703.403 1091.33C704.517 1091.29 705.647 1091.26 706.797 1091.22C712.872 1091.04 719.359 1090.95 725.839 1091.68L724.999 1099.13M170.999 1138.67C174.171 1137.3 177.204 1135.14 180.232 1132.99C184.073 1130.26 187.906 1127.53 191.999 1126.43C199.332 1124.47 207.905 1125.3 216.453 1126.13C223.191 1126.78 229.913 1127.43 235.999 1126.71C248.018 1125.29 259.495 1123.2 270.999 1119.33C273.356 1118.53 275.705 1117.46 278.067 1116.38C281.972 1114.6 285.916 1112.8 289.999 1112.21C295.437 1111.43 301.1 1111.7 306.792 1111.98C312.195 1112.24 317.623 1112.51 322.909 1111.87C328.565 1111.19 334.17 1109.83 339.779 1108.47C345.166 1107.16 350.557 1105.85 355.999 1105.14C383.55 1101.55 411.61 1099.58 439.49 1097.63C451.041 1096.82 462.56 1096.01 473.999 1095.09C502.955 1092.77 532.232 1092.92 561.458 1093.08C576.335 1093.16 591.199 1093.24 605.999 1092.99C608.965 1092.95 611.737 1091.97 614.486 1091C617.287 1090.02 620.064 1089.04 622.999 1089.06C626.343 1089.08 629.53 1090.51 632.757 1091.95C635.752 1093.29 638.781 1094.65 641.999 1094.91C647.743 1095.37 653.554 1095.97 659.378 1096.57C669.3 1097.6 679.261 1098.63 688.999 1098.98C693.868 1099.16 698.807 1098.99 703.753 1098.83C710.88 1098.58 718.024 1098.34 724.999 1099.13M724.999 1099.13L725.839 1091.68C732.111 1092.38 738.444 1093.61 744.51 1094.86C745.687 1095.11 746.851 1095.35 748.003 1095.59C752.896 1096.61 757.588 1097.58 762.211 1098.34C765.256 1098.84 768.499 1098.72 772.667 1098.54L772.958 1098.53C776.797 1098.36 781.491 1098.15 786.212 1098.92C819.429 1104.36 852.381 1110.29 885.55 1117.3C892.79 1118.83 900.37 1119.81 908.317 1120.83C909.586 1120.99 910.863 1121.15 912.15 1121.32C921.331 1122.52 930.919 1123.89 940 1126.41C964.147 1133.09 988.372 1139.64 1012.76 1145.55L1012.77 1145.55L1013.51 1145.73C1027.55 1149.14 1040.37 1152.24 1051.42 1148.2L1051.42 1148.2C1067.29 1142.4 1076.45 1131.15 1081.17 1117.17C1085.99 1102.91 1086.14 1085.79 1083.34 1069.25L1083.34 1069.25C1083.03 1067.36 1081.86 1065.09 1079.91 1061.31C1079.75 1060.99 1079.58 1060.66 1079.4 1060.32C1078.42 1058.4 1077.3 1056.15 1076.46 1053.83C1075.63 1051.53 1074.9 1048.7 1075.05 1045.63L1075.05 1045.63C1075.31 1040.38 1077.97 1035.66 1079.67 1032.63L1079.79 1032.42C1081.9 1028.69 1083.03 1026.62 1083.34 1024.76L1083.34 1024.75C1085.5 1012 1086.02 997.365 1083.49 983.925C1080.95 970.467 1075.48 958.832 1066.19 951.084L1066.19 951.083C1056.32 942.843 1045.41 939.88 1032.12 936.273C1029.49 935.558 1026.76 934.817 1023.93 934.005L1023.93 934.005C1019.94 932.86 1015.97 931.658 1012.03 930.464C996.563 925.781 981.442 921.202 966.659 920.531C965.882 920.496 965.11 920.459 964.344 920.422C957.744 920.106 951.627 919.812 946.506 920.862C946.098 920.946 945.436 921.15 944.328 921.572C944.087 921.664 943.624 921.847 943.091 922.057C942.253 922.387 941.241 922.787 940.637 923.012C938.287 923.89 933.961 925.436 929.568 924.581M724.999 1099.13C732.018 1099.92 739.231 1101.42 746.409 1102.92C751.314 1103.94 756.202 1104.96 760.999 1105.74C764.938 1106.39 768.963 1106.21 772.989 1106.03C777.02 1105.86 781.051 1105.68 784.999 1106.33C818.141 1111.75 850.975 1117.66 883.999 1124.64C891.56 1126.24 899.475 1127.25 907.4 1128.27C917.847 1129.61 928.31 1130.95 937.999 1133.63C962.166 1140.32 986.485 1146.9 1011 1152.84C1011.58 1152.98 1012.16 1153.12 1012.74 1153.26C1025.92 1156.47 1040.76 1160.09 1054 1155.24C1090.59 1141.86 1096.58 1102.56 1090.74 1068C1090.21 1064.88 1088.47 1061.51 1086.72 1058.13C1084.54 1053.93 1082.36 1049.72 1082.54 1046C1082.71 1042.51 1084.66 1039.05 1086.64 1035.55C1088.41 1032.42 1090.19 1029.26 1090.74 1026C1095.26 999.208 1093.11 963.778 1071 945.326C1059.77 935.946 1047.05 932.516 1033.71 928.919C1031.16 928.232 1028.59 927.538 1026 926.796C1022.27 925.727 1018.49 924.578 1014.65 923.415C999.102 918.698 982.816 913.757 966.999 913.039C966.234 913.004 965.455 912.966 964.664 912.927C958.242 912.612 951.115 912.261 944.999 913.515C943.509 913.82 941.808 914.496 940.046 915.195C936.94 916.428 933.648 917.735 930.999 917.219M929.568 924.581L315.999 661.627C344.917 646.143 374.241 631.365 403.59 616.575C419.741 608.436 435.898 600.294 451.999 592.028C454.948 590.514 457.897 589.009 460.843 587.505C469.593 583.039 478.326 578.581 486.999 573.924C488.185 573.287 489.638 572.689 491.167 572.059C494.947 570.501 499.188 568.754 500.971 565.776M929.568 924.581C929.567 924.581 929.567 924.581 929.566 924.581L930.999 917.219M929.568 924.581L930.999 917.219M929.568 924.581C925.104 923.713 921.768 920.765 919.869 918.992C919.291 918.452 918.55 917.727 917.932 917.122C917.585 916.782 917.277 916.48 917.059 916.271C916.223 915.47 915.679 915.006 915.288 914.734C909.107 910.428 901.534 907.097 893.999 905.012L893.999 905.012C886.153 902.841 878.213 902.152 869.728 901.788C867.675 901.7 865.561 901.632 863.404 901.561C856.889 901.349 849.974 901.123 843.124 900.319C838.202 899.741 833.795 897.836 830.377 896.307C830.008 896.142 829.65 895.981 829.302 895.825C826.104 894.388 823.74 893.327 821.317 892.769L821.316 892.769C816.078 891.562 810.532 891.036 804.441 890.532C803.947 890.492 803.449 890.451 802.947 890.41C797.432 889.96 791.457 889.472 785.611 888.37L773.303 886.052L781.158 876.297C789.014 866.538 800.363 860.394 810.088 855.129C811.944 854.125 813.741 853.152 815.443 852.192C826.745 845.82 835.218 839.57 839.008 828.559M929.568 924.581L839.008 828.559M930.999 917.219C928.181 916.671 925.71 914.245 923.354 911.932C922.073 910.675 920.826 909.451 919.575 908.58C912.582 903.708 904.203 900.054 895.999 897.784C885.088 894.764 874.27 894.411 863.395 894.055C856.96 893.845 850.505 893.634 843.999 892.87C839.946 892.394 836.133 890.676 832.321 888.958C829.255 887.576 826.189 886.194 822.999 885.46C816.706 884.011 810.162 883.475 803.613 882.939C801.068 882.731 798.522 882.523 795.99 882.26C794.875 883.341 793.824 884.483 792.841 885.703L786.999 881L788.388 873.63C790.072 873.947 791.776 874.206 793.51 874.427C799.4 869.494 806.35 865.713 813.297 861.935C826.934 854.517 840.555 847.108 846.099 831M846.099 831C847.354 827.353 847.874 823.543 848.393 819.735C848.841 816.454 849.288 813.174 850.205 810M846.099 831L839.008 828.559M846.099 831L839.007 828.56C839.007 828.56 839.008 828.559 839.008 828.559M850.205 810C851.269 806.319 853.187 803.085 855.098 799.862C856.973 796.702 858.841 793.552 859.891 790C863.377 778.209 864.656 764.665 865.877 751.726C866.32 747.034 866.755 742.421 867.285 738C867.491 736.283 867.734 734.477 867.985 732.606C869.573 720.777 871.505 706.386 866.697 696C859.213 679.83 838.947 671.01 821.831 663.561C818.004 661.895 814.334 660.298 810.999 658.702C766.581 637.448 722.367 614.489 678.999 591.16M850.205 810L843 807.919C844.33 803.313 846.663 799.382 848.471 796.333L848.592 796.13C850.574 792.788 851.949 790.411 852.699 787.873C855.963 776.835 857.136 764.408 858.334 751.72C858.793 746.866 859.255 741.974 859.839 737.107C860.07 735.18 860.33 733.246 860.591 731.301C861.245 726.429 861.908 721.49 862.154 716.433C862.495 709.398 861.908 703.507 859.891 699.15C856.343 691.485 848.742 685.318 838.649 679.781C833.695 677.063 828.405 674.635 823.09 672.295C821.721 671.693 820.337 671.09 818.954 670.488C815.084 668.804 811.228 667.126 807.762 665.467C763.201 644.145 718.875 621.126 675.446 597.765L678.999 591.16M850.205 810L544.923 374.214C549.174 372.479 555.376 371.62 562.423 371.518C569.323 371.418 576.376 372.047 581.924 372.851C587.013 373.588 595.959 377.922 604.726 384.392C608.957 387.513 612.839 390.911 615.896 394.219C619.037 397.619 620.927 400.519 621.707 402.615C623.582 407.655 624.152 413.761 624.131 420.748C624.12 424.204 623.97 427.705 623.814 431.3L623.808 431.437C623.656 434.93 623.499 438.541 623.499 442V525V553C623.499 553.686 623.455 554.494 623.392 555.648L623.388 555.713C623.328 556.809 623.255 558.169 623.258 559.558C623.264 562.104 623.488 566.075 625.569 569.599L632.027 565.787M678.999 591.16C674.112 588.531 669.101 586.118 664.088 583.704C657.295 580.432 650.498 577.159 643.999 573.343C642.914 572.706 641.625 572.122 640.289 571.516C637.093 570.067 633.627 568.496 632.027 565.787M678.999 591.16L675.446 597.765C670.719 595.222 665.881 592.892 660.865 590.476C659.967 590.043 659.064 589.608 658.154 589.168C652.24 586.31 646.131 583.292 640.202 579.811C639.653 579.488 638.907 579.127 637.785 578.616C637.614 578.538 637.432 578.456 637.242 578.37C636.312 577.948 635.179 577.435 634.097 576.887C631.66 575.654 627.87 573.498 625.569 569.6L632.027 565.787M632.027 565.787C630.488 563.179 630.701 559.312 630.887 555.935C630.945 554.893 630.999 553.897 630.999 553V525V442C630.999 438.705 631.15 435.233 631.305 431.681C631.771 420.951 632.268 409.493 628.736 400C623.663 386.366 596.903 367.442 582.999 365.428C571.31 363.735 553.166 362.748 542.088 367.271C537.178 369.276 532.872 372.838 528.652 376.329C526.736 377.914 524.838 379.484 522.909 380.887C522.588 381.12 522.261 381.357 521.93 381.598C515.115 386.541 506.369 392.884 503.637 401C500.726 409.651 501.216 420.093 501.675 429.88C501.839 433.374 501.999 436.784 501.999 440V518V552C501.999 552.972 502.065 554.07 502.134 555.226C502.351 558.852 502.602 563.055 500.971 565.776M500.971 565.776L507.405 569.63M500.971 565.776L507.405 569.63C507.405 569.63 507.405 569.63 507.405 569.63M507.405 569.63C509.611 565.948 509.804 561.696 509.792 559.015C509.785 557.533 509.698 556.076 509.628 554.898C509.552 553.622 509.499 552.733 509.499 552V518V440C509.499 436.742 509.346 433.34 509.192 430.049L509.169 429.566C509.02 426.387 508.875 423.292 508.837 420.224C508.755 413.703 509.183 408.036 510.746 403.392C511.596 400.867 513.634 398.124 516.85 395.14C519.76 392.44 523.072 390.036 526.369 387.643C526.687 387.413 527.004 387.183 527.321 386.952M507.405 569.63C504.882 573.842 500.493 576.117 497.749 577.391C496.454 577.992 495.112 578.545 493.993 579.006C493.799 579.086 493.613 579.163 493.434 579.236C492.101 579.788 491.2 580.181 490.548 580.531L490.547 580.532C481.799 585.229 472.966 589.738 464.199 594.213C461.265 595.71 458.338 597.204 455.425 598.7L455.425 598.7C439.214 607.022 423.008 615.189 406.838 623.338C377.551 638.096 348.386 652.793 319.54 668.239L319.539 668.239C315.4 670.455 310.929 672.52 306.62 674.511C305.972 674.81 305.328 675.108 304.688 675.404C299.694 677.719 294.915 679.995 290.495 682.56C281.642 687.698 275.081 693.519 271.892 701.719L271.892 701.719C270.141 706.221 269.869 710.324 270.234 714.889C270.423 717.251 270.775 719.665 271.188 722.418L271.253 722.855C271.64 725.425 272.068 728.272 272.361 731.27L272.361 731.27C272.77 735.455 273.118 739.643 273.464 743.807C274.456 755.75 275.433 767.501 277.786 778.419L527.321 386.952M527.321 386.952C527.321 386.952 527.321 386.952 527.321 386.952L522.911 380.889L527.321 386.952ZM352.209 880.932C350.258 874.131 344.612 869.647 340.292 866.778C337.974 865.238 335.555 863.863 333.459 862.683L332.955 862.4C330.987 861.293 329.4 860.4 328.088 859.547C326.114 858.263 324.203 857.043 322.358 855.866C307.391 846.315 296.817 839.568 292.842 824.13M352.209 880.932L283.198 792.223M287.334 801.179C286.067 798.062 284.551 794.977 283.198 792.223M287.334 801.179L280.386 804.004L287.334 801.178C287.334 801.178 287.334 801.179 287.334 801.179ZM287.334 801.179C289.016 805.314 289.964 809.633 290.701 813.472C290.917 814.597 291.113 815.663 291.301 816.686C291.794 819.373 292.233 821.762 292.842 824.13M283.198 792.223C282.653 791.113 282.134 790.056 281.668 789.074M283.198 792.223L281.668 789.074M292.842 824.13L285.607 825.993L292.843 824.131C292.843 824.13 292.842 824.13 292.842 824.13ZM281.668 789.074C279.941 785.427 278.578 782.093 277.786 778.42L281.668 789.074Z" fill="white" stroke="white" stroke-width="15"/>
<path d="M381.999 889C368.671 890.795 355.242 894.404 341.999 895.826C330.537 897.058 319.429 896.224 307.999 898.375C297.566 900.339 287.972 906.583 277.999 908.332C266.228 910.396 253.033 906.846 240.999 908.286C222.438 910.505 206.736 919.781 188.999 923.61C182.513 925.01 175.568 923.398 168.999 924.184C157.972 925.505 146.777 928.879 135.999 931.525C108.089 938.379 65.4115 941.908 53.466 973C46.9935 989.847 46.2126 1021.5 56.4089 1037C61.3507 1044.51 74.1652 1048.41 77.2569 1056.04C79.4145 1061.37 77.9992 1069.34 77.9992 1075C77.9992 1097.54 75.25 1122.86 99.9992 1133.91C119.257 1142.5 152.027 1135.13 169.999 1125.35C175.949 1122.12 180.885 1114.15 187.169 1112.15C190.679 1111.03 195.34 1113.76 198.999 1113.96C209.903 1114.55 221.063 1116.01 231.999 1114.71C243.31 1113.38 255.234 1111.45 265.999 1107.62C272.899 1105.16 279.921 1100.63 286.999 1099.02C293.128 1097.63 299.756 1100.91 305.999 1100.48C322.21 1099.39 337.224 1094.92 352.999 1092.26C361.498 1090.83 370.432 1092.74 378.999 1091.71C436.743 1084.81 495.765 1080.79 553.999 1079.46C569.073 1079.12 584.677 1081.37 599.999 1080.98C608.169 1080.78 615.474 1074.52 622.999 1074.4C626.865 1074.34 631.502 1078.15 634.999 1079.69C640.481 1082.1 647.025 1083.49 652.999 1083.91C668.533 1085 684.428 1086 699.999 1086C708.89 1086 719.283 1084.38 727.999 1085.72C733.443 1086.56 738.423 1089.64 743.999 1090.59C758.739 1093.08 773.303 1092.4 787.999 1094.18C805.492 1096.31 821.869 1101.03 839.713 1101.9C845.187 1102.17 850.652 1105.32 855.999 1106.55C868.142 1109.34 880.765 1110.77 892.999 1113.34C908.847 1116.65 925.312 1118.05 940.999 1121.39C957.633 1124.93 974.233 1130.85 990.999 1134.61C1011.82 1139.29 1034.97 1150.04 1056 1140.72C1081.96 1129.21 1083.37 1091.03 1076.98 1067C1075.14 1060.06 1067.92 1053.67 1067.29 1047C1066.66 1040.44 1075.5 1032.79 1077.24 1026C1081.23 1010.42 1081.07 987.051 1075.25 972C1066.67 949.82 1042.71 943.667 1022 938.765C989.301 931.026 957.288 916.312 926.999 937C919.295 914.955 893.113 909.73 872.999 906.83C865.497 905.749 858.676 904.667 850.999 905.04C847.631 905.204 843.712 907.279 840.423 906.559C834.274 905.214 828.315 900.626 821.999 898.876C811.365 895.929 799.96 895.213 788.999 894.17C782.707 893.571 775.219 891.87 768.999 892.21C760.572 892.67 753.32 896.01 744.999 893V891C768.471 879.502 790.479 862.437 812.575 848.457C819.512 844.067 827.414 839.383 831.481 831.996C837.272 821.476 835.564 808.659 840.428 798C842.389 793.703 845.834 790.547 847.46 786C850.286 778.093 850.22 768.339 851.285 760C852.815 748.006 855.979 736.14 855.999 724C856.011 716.601 857.741 706.695 854.136 700.001C845.02 683.067 814.255 674.977 797.999 666.448C756.561 644.706 714.633 623.852 672.999 602.511C660.341 596.022 647.545 589.833 634.999 583.134C630.244 580.595 623.211 578.507 619.602 574.366C616.966 571.341 617.999 565.71 617.999 562V532V444C617.999 432.764 621.253 415.464 616.99 405.001C613.411 396.217 592.206 380.63 582.999 378.634C562.355 374.16 546.014 379.168 529.999 391.575C525.037 395.419 518.328 398.782 516.031 405C511.999 415.92 514.999 432.438 514.999 444V529V561C514.999 564.975 515.922 570.395 513.396 573.787C510.099 578.212 502.725 580.411 497.999 582.988C485.521 589.792 472.579 595.698 459.999 602.299C417.534 624.579 374.369 645.935 331.999 667.891C316.57 675.886 291.201 682.782 280.612 697.004C273.265 706.87 275.426 715.842 276.815 727C279.596 749.341 279.065 776.528 290.986 796C298.054 807.546 294.468 823.911 302.858 834.985C321.773 859.953 361.288 865.748 381.999 889Z" fill="#393435"/>
<path d="M544.999 410C552.096 424.533 580.688 424.308 587.999 410C571.591 400.455 561.234 399.218 544.999 410ZM501.332 404.667L501.666 405.333L501.332 404.667ZM631.332 405.667L631.666 406.333L631.332 405.667ZM583.999 674L594.396 667.671L594.999 651V614V425C590.916 425.813 586.267 427.91 584.602 432.09C582.818 436.573 583.999 443.24 583.999 448V484V674Z" fill="#A39798"/>
<path d="M585.999 672C595.166 667.623 593.999 661.013 593.999 652V614V487C593.999 468.739 598.168 444.485 592.999 427C584.033 430.81 584.999 437.487 584.999 446V487C584.999 548.658 585.999 610.433 585.999 672Z" fill="#FFFEFE"/>
<path d="M539 428V611V651C539 659.933 537.661 666.722 546 672C551.086 654.793 547 630.969 547 613V486C547 471.367 553.743 435.411 539 428ZM560 435V679H572V435H560ZM347 733C352.213 739.085 361.152 742.882 368 747C382 755.418 396.163 763.693 410 772.369C430.155 785.006 450.572 797.282 471 809.453C480.723 815.246 491.02 824.243 502 827.363C514.973 831.049 526.455 827.655 539 827.04C549.767 826.513 560.665 829.514 571 829.165C575.047 829.028 578.84 827.118 583 827.015C598.53 826.627 615.782 831.581 631 827.196C642.499 823.883 653.792 814.138 664 808C687.741 793.725 711.245 779.054 735 764.8C757.748 751.15 780.444 737.393 803 723.424C810.4 718.841 824.505 714.295 829 707C809.423 693.847 786.11 684.421 765 673.881C729.885 656.349 694.693 638.613 660 620.298C646.768 613.312 633.509 606.269 620 599.833C617.491 598.637 607.186 591.686 606.693 598.148C606.441 601.448 607.023 613.864 609.028 616.397C611.586 619.628 622.993 619.527 627 620.134C640.632 622.201 654.302 627.418 667 632.603C711.636 650.832 756.769 698.163 722.56 747C716.024 756.331 708.078 763.809 699 770.625C684.995 781.141 668.485 788.17 652 793.822C596.75 812.765 526.187 811.308 473 786.219C456.839 778.596 441.312 769.325 429.167 755.985C423.987 750.296 419.731 737.932 413.61 734.028C409.422 731.357 400.801 733 396 733C380.314 733 362.393 730.55 347 733ZM393 662V664C402.07 668.309 412.428 673.295 423 669.397C429.897 666.854 435.31 658.066 441 653.461C452.396 644.236 466.26 636.567 480 631.481C489.904 627.814 499.744 624.437 510 621.873C513.718 620.944 520.422 620.88 523.258 618.142C527.848 613.71 524.116 601.607 524 596C509.423 598.6 494.217 610.145 481 616.753C451.892 631.307 420.499 644.644 393 662Z" fill="#A39798"/>
<path d="M608 596C609.296 602.088 614.873 603.682 620 606.247C629.721 611.11 639.424 616.16 649 621.308C690.992 643.883 733.827 664.969 776 687.219C787.933 693.515 799.994 699.592 812 705.742C817.135 708.373 822.305 711.776 827 707C778.303 681.48 729.178 656.62 680 632.031C656.969 620.516 632.745 603.128 608 596Z" fill="#FFFEFE"/>
<path d="M691 596L692 597L691 596ZM694 597L695 598L694 597ZM437 598L438 599L437 598Z" fill="#A39798"/>
<path d="M438 598L439 599L438 598Z" fill="#F36572"/>
<path d="M695 598L696 599L695 598ZM434 599L435 600L434 599Z" fill="#A39798"/>
<path d="M730 616L731 617L730 616ZM400 617L401 618L400 617Z" fill="#A39798"/>
<path d="M401.668 617.333L402.334 617.667L401.668 617.333Z" fill="#F36572"/>
<path d="M516 632V633L523 632H516ZM617 631V635H618L617 631Z" fill="#F36572"/>
<path d="M618 631V635L629 637C627.476 632.393 622.415 631.748 618 631Z" fill="#F20C26"/>
<path d="M621 631V632L630 637C630.083 631.848 625.347 631.565 621 631Z" fill="#F36572"/>
<path d="M760 631L761 632L760 631ZM370 632L371 633L370 632ZM513 632L500 636L503 642C509.027 641.616 516 639.229 513 632Z" fill="#A39798"/>
<path d="M515 633V637C519.664 636.958 523.444 636.926 525 632L515 633Z" fill="#F20C26"/>
<path d="M629 632V638L642 642L645 636L629 632ZM762 632L763 633L762 632Z" fill="#A39798"/>
<path d="M514 633V638H515L514 633Z" fill="#F36572"/>
<path d="M764 633L765 634L764 633ZM366 634L367 635L366 634ZM766 634L767 635L766 634Z" fill="#A39798"/>
<path d="M768 635L769 636L768 635ZM362 636L363 637L362 636ZM770 636L771 637L770 636ZM360 637L361 638L360 637ZM488 776C485.962 773.096 480.525 771.92 479.346 768.673C477.271 762.963 490.535 769.423 492 770L489 777L504 781C501.44 771.967 511.166 776.427 516 778L514 784L527 787C528.308 778.797 540.707 779.832 540 788C548.645 790.579 549.283 786.964 556.143 784.689C559.24 783.662 563.727 784.973 567 785L566 789L579 790L578 786L591 783L592 789L605 788C604.369 780.715 612.462 781.046 618 781V787L631 784C629.185 776.414 635.777 775.44 642 774L641 781C672.108 777.899 716.187 750.177 722.621 718C730.607 678.067 682.075 640.595 646 637V638L664 653C666.967 648.286 671.661 647.763 675.624 652.39C678.223 655.424 674.975 658.567 676.747 661.715C681.574 670.289 691.058 675.684 695.73 685C709.311 712.079 693.193 739.233 670 754.644C618.534 788.842 546.083 787.594 491 763.772C457.181 749.146 429.218 713.076 453.349 678C457.829 671.487 463.729 665.778 470 661V659C463.945 653.105 473.576 648.71 479 648L480 653L499 638C492.553 635.713 482.894 641.692 477 644.284C456.372 653.356 432.112 668.527 424.37 691C410.997 729.816 451.483 769.692 488 776Z" fill="#A39798"/>
<path d="M489 644H490C493.123 640.584 498.825 637.164 502 642C504.589 634.108 490.864 639.314 489 644ZM642 639C646.612 638.799 651.51 639.915 654 644C655.114 638.969 645.109 635.585 642 639Z" fill="#F36572"/>
<path d="M772.001 637L773.001 638L772.001 637ZM357.668 638.333L358.334 638.667L357.668 638.333Z" fill="#A39798"/>
<path d="M642 639V642L653 646L654 641L642 639Z" fill="#F20C26"/>
<path d="M774 638L775 639L774 638Z" fill="#A39798"/>
<path d="M490 645C494.868 644.777 500.259 644.084 502 639C496.966 639.118 491.715 639.69 490 645Z" fill="#F20C26"/>
<path d="M347 642L348 643L347 642ZM781 642L782 643L781 642ZM345 643L346 644L345 643ZM343 644L344 645L343 644Z" fill="#A39798"/>
<path d="M654 644L655 645L654 644Z" fill="#393435"/>
<path d="M785 644L786 645L785 644ZM341 645L342 646L341 645ZM787 645L788 646L787 645ZM789 646L790 647L789 646ZM338 647L339 648L338 647ZM609 647C609 654.727 611.283 666.707 608.397 673.907C605.839 680.286 588.533 691.662 581.83 693.526C565.31 698.121 549.173 693.018 535.961 683.921C529.732 679.633 523.265 676.173 523 668H522C519.984 671.918 515.759 676.687 515.113 681C513.534 691.538 525.109 700.246 533 704.445C553.62 715.418 582.513 715.907 604 707.135C615.544 702.422 630.58 692.714 626.853 678C625.251 671.677 619.909 666.942 616 662C638.684 666.514 646.109 694.401 629.907 709.711C606.52 731.809 565.792 733.043 537 723.022C524.144 718.547 508.83 710.088 504.648 696C499.729 679.429 515.141 674.127 521.972 662.675C523.86 659.51 523 654.544 523 651C491.528 655.064 440.598 685.092 459.518 723C472.145 748.301 506.899 760.825 533 765.755C574.781 773.648 625.289 771.019 662 747.164C668.075 743.217 674.308 738.471 678.985 732.91C682.463 728.776 685.293 724.052 687.214 719C703.895 675.149 640.117 654.116 609 647ZM791 647L792 648L791 647Z" fill="#A39798"/>
<path d="M466.999 657H467.999C469.058 652.602 473.53 648.746 477.999 651C479.653 646.613 466.327 649.813 466.999 657ZM665.999 648L664.999 650L665.999 648Z" fill="#F36572"/>
<path d="M665 651L676 657L677 656C674.713 651.527 669.506 647.057 665 651Z" fill="#F20C26"/>
<path d="M668.668 648.333L669.334 648.667L668.668 648.333Z" fill="#F36572"/>
<path d="M335 649L336 650L335 649Z" fill="#A39798"/>
<path d="M467 656L479 652L478 649C473.204 649.855 469.299 651.574 467 656Z" fill="#F20C26"/>
<path d="M670.668 649.333L671.334 649.667L670.668 649.333ZM672.001 650V651L677.001 656H678.001L672.001 650Z" fill="#F36572"/>
<path d="M816 660L817 661L816 660ZM819 661L820 662L819 661ZM311 662L312 663L311 662Z" fill="#A39798"/>
<path d="M446 672H447L456 663L457 667C459.925 658.41 447.693 668.739 446 672ZM687 662L686 666H687L688 663L697 672C697.823 666.668 691.563 662.923 687 662Z" fill="#F36572"/>
<path d="M820 662L821 663L820 662ZM309 663L310 664L309 663Z" fill="#A39798"/>
<path d="M455.001 663C451.131 666.181 447.25 668.727 449.001 674H450.001C453.077 670.887 457.868 667.407 455.001 663ZM688.001 663C687.22 668.409 691.912 672.163 697.001 673C695.641 668.155 692.515 665.107 688.001 663Z" fill="#F20C26"/>
<path d="M450 674H449L447 672L449 676H450L458 667L450 674ZM687 667L688 668L687 667Z" fill="#393435"/>
<path d="M299 668L300 669L299 668Z" fill="#A39798"/>
<path d="M502 670L504 675L510 670H502ZM635 668L634 669V670L635 671H636L637 670V669L635 668ZM688 668L689 669L688 668Z" fill="#393435"/>
<path d="M833 668L834 669L833 668Z" fill="#A39798"/>
<path d="M637.999 669C641.717 680.6 652.857 685.671 649.467 700C645.177 718.13 624.278 728.61 607.999 733.41C579.526 741.804 547.968 740.598 520.999 727.833C509 722.154 494.996 712.375 493.184 698C491.883 687.672 497.583 681.076 500.999 672C496.071 673.906 492.446 677.277 488.844 681.09C466.379 704.865 482.381 735.196 508.999 747.06C548.676 764.745 600.307 766.368 638.998 744.666C648.967 739.074 660.074 730.106 664.03 719C671.106 699.136 657.169 675.632 637.999 669ZM688.999 669L692.999 673L688.999 669Z" fill="#393435"/>
<path d="M835 669L836 670L835 669ZM837 670L838 671L837 670Z" fill="#A39798"/>
<path d="M372.999 671.465C366.532 672.062 346.759 676.283 354.602 686.786C359.673 693.577 372.475 693.596 379.999 692.896C385.499 692.384 399.396 689.046 397.148 681.015C394.882 672.922 379.939 670.823 372.999 671.465Z" fill="#F20C26"/>
<path d="M291 672L292 673L291 672Z" fill="#A39798"/>
<path d="M697 672L693 673V674C695.074 674.507 698.025 674.756 697 672Z" fill="#393435"/>
<path d="M841 672L842 673L841 672ZM290 673L291 674L290 673ZM287 674L288 675L287 674Z" fill="#A39798"/>
<path d="M642 678C643.198 683.238 645.29 688.55 644.546 694C641.945 713.048 620.021 722.656 604 728C578.468 736.517 550.247 734.355 526 722.777C515.43 717.73 504.366 710.345 499.828 699C497.373 692.861 498.982 686.372 499 680H498C487.636 701.822 502.752 718.039 522 727.255C552.29 741.757 594.199 741.152 624 725.742C639.41 717.773 660.96 694.255 642 678Z" fill="#FFFEFE"/>
<path d="M279 679L280 680L279 679ZM853 679L854 680L853 679ZM277 680L278 681L277 680ZM276 681L277 682L276 681ZM341 689C326.3 694.012 331.685 711.662 344 715.892C350.982 718.29 359.709 717 367 717H411L416 681C404.882 681.365 410.677 698.251 403.66 705.561C385.981 723.978 341.086 719.033 341 689ZM856 681L857 682L856 681ZM275 682L276 683L275 682Z" fill="#A39798"/>
<path d="M433 695H434C434.793 692.226 437.504 682.478 441 687H442L441 682C435.519 683.715 433.903 689.753 433 695ZM702 686H703L704 683H706L709 690C710.254 684.815 705.225 680.19 702 686Z" fill="#F36572"/>
<path d="M517 683C518.43 696.961 532.934 704.032 545 707.576C569.775 714.851 616.748 714.573 626 684C616.469 688.438 609.29 695.961 599 699.772C570.181 710.445 539.332 703.566 517 683Z" fill="#FFFEFE"/>
<path d="M704 683L703 684L707 695L711 694L706 683H704Z" fill="#F20C26"/>
<path d="M434 695H438L441 684C436.224 685.542 434.825 690.36 434 695Z" fill="#F20C26"/>
<path d="M703.332 686.667L703.666 687.333L703.332 686.667Z" fill="#393435"/>
<path d="M440 688L441 689L440 688Z" fill="#F36572"/>
<path d="M268 689L269 690L268 689Z" fill="#A39798"/>
<path d="M440 689L441 690L440 689Z" fill="#393435"/>
<path d="M704 689L705 690L704 689Z" fill="#F36572"/>
<path d="M439 690L440 691L439 690Z" fill="#393435"/>
<path d="M705.332 690.667L705.666 691.333L705.332 690.667Z" fill="#F36572"/>
<path d="M710 691L712 694L710 691ZM438 692V695H439L438 692Z" fill="#F36572"/>
<path d="M865 692L866 693L865 692Z" fill="#A39798"/>
<path d="M706.332 693.667L706.666 694.333L706.332 693.667Z" fill="#F36572"/>
<path d="M866 693L867 694L866 693Z" fill="#A39798"/>
<path d="M710 694L706 695V696C708.13 696.311 710.994 696.649 710 694Z" fill="#393435"/>
<path d="M867 694L868 695L867 694Z" fill="#A39798"/>
<path d="M434 697L438 696L434 697Z" fill="#393435"/>
<path d="M361 703V704C368.687 705.13 382.3 709.589 388 702L361 703Z" fill="#F20C26"/>
<path d="M432 707V720H433L432 709H435L437 720C438.217 714.935 437.161 708.974 432 707ZM708 715H709L711 708V721H712V707C708.502 708.928 708.125 711.122 708 715Z" fill="#F36572"/>
<path d="M710 708L708 721C713.367 719.219 713.004 711.965 710 708Z" fill="#F20C26"/>
<path d="M432 709L433 721H437L435 709H432Z" fill="#F20C26"/>
<path d="M707 716V721H708L707 716Z" fill="#F36572"/>
<path d="M832 719L757 766.061L650 831V834C660.453 837.729 679.075 820.832 688 815.448C724.092 793.678 760.165 771.779 796 749.576C806.157 743.282 816.773 738.023 826.999 731.855C831.974 728.854 836.157 724.495 832 719ZM300 721C298.663 727.056 303.234 729.398 308 732.15C317.816 737.816 327.337 744.012 337 749.939C371.942 771.372 406.884 792.843 442 814C450.831 819.321 469.687 836.428 480 832V830C443.291 805.71 404.553 784.191 367 761.255C345.76 748.281 323.231 729.805 300 721Z" fill="#A39798"/>
<path d="M433 721V722H437L433 721ZM708 721V722H711L708 721Z" fill="#393435"/>
<path d="M832 721C825.243 725.555 813.379 729.705 811 738C817.335 737.157 834.973 728.928 832 721Z" fill="#FFFEFE"/>
<path d="M439 734L450 742C448.277 738.626 443.202 729.457 439 734ZM695 742H696C697.941 739.303 701.754 731.997 705 736C706.885 727.622 696.267 738.988 695 742Z" fill="#F36572"/>
<path d="M439 734C440.794 738.665 443.467 743.817 449 743C447.082 738.441 444.489 733.187 439 734ZM696 743L700 744L705 733C700.065 734.448 697.576 738.248 696 743Z" fill="#F20C26"/>
<path d="M439 736L440 737L439 736Z" fill="#F36572"/>
<path d="M440 737L441 738L440 737Z" fill="#393435"/>
<path d="M704 737L705 738L704 737Z" fill="#F36572"/>
<path d="M868 737L869 738L868 737Z" fill="#A39798"/>
<path d="M703 738L704 739L703 738ZM441 739L442 740L441 739ZM702.333 739.667L702.667 740.333L702.333 739.667Z" fill="#F36572"/>
<path d="M264.332 740.667L264.666 741.333L264.332 740.667Z" fill="#A39798"/>
<path d="M442 740L443 741L442 740ZM443 741L444 742L443 741Z" fill="#F36572"/>
<path d="M701 741L702 742L701 741Z" fill="#393435"/>
<path d="M667 876C681.206 871.82 695.51 859.96 708 852.053C731.819 836.975 756 822.393 780 807.612C793.046 799.577 815.217 792.298 824.387 779.815C830.767 771.128 831.159 751.57 832 741C817.591 742.563 803.234 757.668 791 764.861C760.702 782.675 730.866 801.406 701 819.936C690.767 826.285 670.581 833.528 663.647 843.34C661.345 846.595 664.125 850.719 665.087 854C667.226 861.293 667 868.482 667 876ZM302 742C302.083 751.872 302.734 770.777 308.653 778.96C316.875 790.328 335.402 796.849 347 804.344C371.99 820.495 397.711 835.522 423 851.192C434.344 858.222 447.957 870.008 461 873L462.36 854L465.84 842.213L455 834.343L423 814.717L340 764L302 742Z" fill="#A39798"/>
<path d="M695 742V744H697L695 742Z" fill="#393435"/>
<path d="M700 742L701 743L700 742ZM444 743L445 744L444 743ZM448 743L449 744L448 743Z" fill="#F36572"/>
<path d="M804 792C810.475 788.941 819.069 784.888 823.347 778.96C829.15 770.919 829.799 752.73 830 743C804.401 748.871 806.683 770.767 804 792Z" fill="#FFFEFE"/>
<path d="M445 744V745H448L445 744ZM697.667 744.333L698.333 744.667L697.667 744.333Z" fill="#393435"/>
<path d="M866.332 750.667L866.666 751.333L866.332 750.667Z" fill="#A39798"/>
<path d="M456 754C461.236 752.834 465.71 755.799 467 761C469.819 755.828 459.711 748.37 456 754ZM676 760H677C678.927 757.231 685.673 749.441 687 756C691.281 749.189 677.922 753.712 676 760Z" fill="#F36572"/>
<path d="M456 754V755C459.789 757.91 463.086 760.799 468 760V758C463.949 755.012 461.029 751.876 456 754ZM677 761C682.12 760.252 685.733 757.648 688 753C682.533 752.182 678.473 755.86 677 761Z" fill="#F20C26"/>
<path d="M456 755L457 756L456 755Z" fill="#F36572"/>
<path d="M457 756L458 757L457 756ZM686 756L687 757L686 756Z" fill="#393435"/>
<path d="M459 757L460 758L459 757Z" fill="#F36572"/>
<path d="M685 757L686 758L685 757ZM460 758L461 759L460 758ZM683.667 758.333L684.333 758.667L683.667 758.333ZM462 759L463 760L462 759ZM682 759L683 760L682 759Z" fill="#393435"/>
<path d="M865.332 759.667L865.666 760.333L865.332 759.667Z" fill="#A39798"/>
<path d="M463 760L464 761L463 760ZM681 760L682 761L681 760ZM464 761V762H467L464 761ZM678 761V763L680 761H678Z" fill="#393435"/>
<path d="M478 770H479V766L486 768C482.431 764.67 478.87 764.793 478 770ZM659 767V768L666 766V770C667.757 764.638 662.338 765.427 659 767Z" fill="#F36572"/>
<path d="M479 766V770L490 774C489.739 768.189 484.131 766.526 479 766ZM654 770L656 774H657L666 770V766L654 770Z" fill="#F20C26"/>
<path d="M268 771L269 772L268 771Z" fill="#A39798"/>
<path d="M482 771L483 772L482 771ZM661.667 771.333L662.333 771.667L661.667 771.333ZM484 772V773L488 774V773L484 772Z" fill="#393435"/>
<path d="M490 772L491 773L490 772ZM654 772L655 773L654 772Z" fill="#F36572"/>
<path d="M657 773V774L661 773H657Z" fill="#393435"/>
<path d="M655 773L656 774L655 773ZM502 778H503C506.787 775.377 511.644 777.24 515 780C515.144 774.463 504.496 773.707 502 778ZM630 782H631L630 778L642 776L641 780H642V774C637.039 774.733 629.051 775.736 630 782Z" fill="#F36572"/>
<path d="M503 776C504.656 781.117 512.893 784.327 515 778L503 776ZM630 778C632.035 784.071 640.383 780.921 642 776L630 778Z" fill="#F20C26"/>
<path d="M502 778L503 779L502 778Z" fill="#393435"/>
<path d="M503 779L504 780L503 779Z" fill="#F36572"/>
<path d="M270.332 782.667L270.666 783.333L270.332 782.667Z" fill="#A39798"/>
<path d="M528 782C529.729 787.262 535.153 786.96 540 787C538.312 781.898 532.74 782.098 528 782ZM605 787C609.847 786.96 615.271 787.262 617 782C612.26 782.098 606.688 781.898 605 787Z" fill="#F20C26"/>
<path d="M585 784V785L592 788L591 783L585 784ZM553 788H554V785H560C556.501 783.583 554.193 784.404 553 788Z" fill="#F36572"/>
<path d="M554 785C555.785 790.378 561.394 789.097 566 788V786L554 785Z" fill="#F20C26"/>
<path d="M564 785V786L566 788H567L564 785ZM578 788H579H580L582 786L578 788Z" fill="#F36572"/>
<path d="M579 787L591 789V785L579 787Z" fill="#F20C26"/>
<path d="M271 788L272 789L271 788ZM861 788L862 789L861 788ZM272 791L273 792L272 791ZM860 791L861 792L860 791Z" fill="#A39798"/>
<path d="M806 824C812.678 818.729 813.375 810.876 815 803C805.676 804.899 805.106 815.999 806 824Z" fill="#FFFEFE"/>
<path d="M835 849L839 845L835 849Z" fill="#F36572"/>
<path d="M294 846L295 847L294 846ZM295 847L296 848L295 847ZM296 848L297 849L296 848ZM297 849L298 850L297 849Z" fill="#A39798"/>
<path d="M541.279 859.742C536.669 861.963 538 869.865 538 874C538 885.552 539.006 901.55 555.867 894.397C561.294 892.094 560 883.704 560 879C560 867.469 561.919 858.933 548 859.001C545.844 859.011 543.282 858.777 541.279 859.742ZM584 859V872H591V859H584ZM627 881C626.98 886.551 622.524 894.528 621 885H614C614.007 894.058 625.788 902.713 633.397 893.682C636.539 889.953 636.08 879.025 631.772 876.318C628.652 874.358 623.367 875.995 621.786 871.853C617.349 860.226 633.727 876.329 634.713 866.942C635.519 859.269 622.239 857.908 617.148 860.349C612.639 862.511 612.663 874.161 615.603 877.567C618.173 880.543 623.374 880.711 627 881ZM495.434 861.028C491.463 863.761 493.022 871.906 493.116 876C493.366 886.968 493.98 905.052 510.852 894.825C515.487 892.015 514.029 884.553 513.804 880C513.221 868.226 516.831 859.9 502 860.001C499.889 860.015 497.271 859.763 495.434 861.028Z" fill="#F20C26"/>
<path d="M819 860L820 861L819 860ZM315 861L316 862L315 861ZM817 861L818 862L817 861ZM316 862L317 863L316 862ZM816 862L817 863L816 862ZM317 863L318 864L317 863ZM319 864L320 865L319 864Z" fill="#A39798"/>
<path d="M551.999 889V879V873C551.995 871.152 551.179 860.543 547.022 865.623C542.716 870.885 544.607 888.424 551.999 889Z" fill="#393435"/>
<path d="M321 865L322 866L321 865Z" fill="#A39798"/>
<path d="M500 875C514.416 874.527 501.07 859.228 500.059 869.995C499.904 871.641 500.001 873.349 500 875Z" fill="#393435"/>
<path d="M501.599 881.086C498.045 883.482 500.632 893.512 505.401 889.953C508.737 887.464 506.038 878.093 501.599 881.086Z" fill="#393435"/>
<path d="M401.999 980C398.959 977.298 389.745 970.735 389.2 966.896C387.391 954.131 406.279 938.867 399.307 926.108C395.701 919.509 388.044 921.487 381.999 921.911C368.846 922.832 353.057 923.235 346.999 937H345.999C340.246 922.462 305.361 927.134 296.227 937.108C291.501 942.27 293.2 950.532 291.999 957H290.999C285.644 943.154 271.299 940 257.999 940C232.415 940 209.894 947.807 190.999 965C188.142 953.018 176.224 955.977 166.999 957.74C149.115 961.158 131.719 966.483 113.999 970.579C105.704 972.497 93.5425 974.265 87.2129 980.34C80.2042 987.068 82.9952 1001.16 82.9992 1010C83.0009 1013.77 82.3625 1018.58 86.1473 1020.82C92.6835 1024.69 102.13 1020.31 108.999 1020V1077C108.999 1083.98 107.078 1094.5 110.572 1100.81C113.362 1105.85 120.091 1105.4 124.999 1104.54C136.061 1102.58 156.226 1100.11 161.724 1088.98C164.823 1082.72 163.999 1074.77 163.999 1068V1028C163.999 1022.62 161.789 1010.75 165.602 1006.51C168.837 1002.92 176.618 1002.88 180.999 1001C186.077 1022.33 173.214 1055.65 188.788 1073.67C194.752 1080.57 203.72 1081.35 211.999 1082.8C231.6 1086.22 260.191 1078.35 275.999 1066.73C282.671 1061.82 289.369 1055.43 290.999 1047H291.999C292.702 1052.56 291.623 1061.55 296.227 1065.49C300.201 1068.89 306.238 1068.1 310.999 1067.42C321.743 1065.88 338.446 1067.16 344.311 1055.96C349.298 1046.44 339.955 1023.54 349.999 1018C349.999 1028.03 346.109 1048.55 352.853 1056.66C356.33 1060.83 362.129 1060.02 366.999 1060C378.153 1059.95 397.697 1060.61 401.999 1048C410.411 1057.1 418.889 1054.14 429.999 1054C448.878 1053.77 468.17 1052.41 486.999 1050.91C491.807 1050.53 496.477 1046.31 500.999 1046.63C513.335 1047.52 534.353 1054.84 545.955 1046.35C555.58 1039.3 549.544 1021.31 551.999 1011H552.999C557.434 1020.56 553.236 1034.95 558.602 1042.96C565.408 1053.11 603.471 1053.35 608.257 1041C611.721 1032.05 608.999 1017.55 608.999 1008V950C608.999 941.372 610.827 930.325 608.426 922.001C605.54 911.992 594.213 913 585.999 913C569.065 913 556.999 911.777 556.999 932C550.482 926.728 546.989 918.077 538.984 914.533C531.127 911.055 517.2 912.126 508.999 914.138C505.964 914.883 503.104 917.612 499.999 917.689C495.512 917.8 490.873 914.201 485.999 914.043C472.764 913.615 459.118 915.518 445.999 916.829C434.872 917.942 413.436 914.482 405.512 924.189C401.591 928.992 401.999 936.191 401.999 942V980Z" fill="#F20C26"/>
<path d="M667.001 1004V1005C659.94 1005 650.206 1003.26 644.276 1007.97C636.382 1014.24 637.507 1042.11 645.214 1048.15C652.353 1053.74 662.671 1051.52 671.001 1052.09C685.948 1053.11 703.132 1056.53 718.001 1053.49C725.082 1052.03 729.694 1047.89 736.001 1045C738.775 1060.32 753.14 1058.4 765.001 1060.33C771.888 1061.44 780.131 1064.23 785.487 1057.79C788.588 1054.05 786.183 1034.21 791.001 1034.21C795.474 1034.21 794.146 1053.34 795.805 1057C800.869 1068.18 819.403 1068.04 830.001 1069.17C835.775 1069.78 841.805 1070.85 845.001 1065C866.109 1079.64 895.941 1080.89 921.001 1085.25C929.558 1086.74 941.464 1092.55 949.001 1086H950.001C956.653 1094.96 967.799 1095.72 978.001 1097.8C992.477 1100.75 1006.58 1105.58 1021 1108.79C1027.54 1110.25 1037.46 1114.84 1043.58 1109.99C1048.25 1106.29 1047 1098.22 1047 1093C1047 1075.52 1042.22 1064.68 1023 1063V1062C1041.16 1061.46 1036.44 1033.16 1031 1022C1035.36 1022 1040.96 1022.73 1044.35 1019.35C1050.49 1013.21 1048.39 988.534 1043.49 982.043C1038.8 975.838 1030.04 974.468 1023 972.448C1006.54 967.724 989.747 963.481 973.001 959.92C966.438 958.524 956.087 954.475 950.654 960.419C946.985 964.432 948.001 971.014 948.001 976V1015C940.054 1007.77 907.645 995.963 901.001 1009H900.001C898.289 995.456 899.001 981.649 899.001 968C899.001 962.285 900.341 954.231 897.063 949.185C891.017 939.88 867.257 936.944 857.001 937.083C852.969 937.137 849.24 938.77 847.139 942.329C840.371 953.792 845.001 977.917 845.001 991H844.001C840.657 979.214 836.432 967.711 832.863 956C830.678 948.83 829.376 940.772 823.697 935.34C813.022 925.129 789.72 927.226 776.001 925.424C770.337 924.681 762.865 924.126 758.391 928.419C753.81 932.815 752.195 941.142 750.294 947C746.512 958.653 741.495 969.948 739.001 982L718.001 967C723.225 965.456 729.805 966.859 734.121 962.786C740.788 956.495 738.884 928.126 731.811 922.703C726.744 918.818 719.002 919.411 713.001 918.83C697.433 917.324 678.304 913.373 663.001 917.609C627.756 927.365 630.996 997.602 667.001 1004Z" fill="#F20C26"/>
<path d="M995 917L996 918L995 917ZM129 918L130 919L129 918Z" fill="#A39798"/>
<path d="M1004.67 919.333L1005.33 919.667L1004.67 919.333ZM120.668 920.333L121.334 920.667L120.668 920.333Z" fill="#A39798"/>
<path d="M521 920V921H533L521 920ZM569.667 920.333L570.333 920.667L569.667 920.333Z" fill="#A39798"/>
<path d="M567.001 960C547.081 950.488 547.955 921 522.001 921C518.991 921 515.215 920.43 512.345 921.514C505.996 923.912 509.001 942.43 509.001 948V1014C509.001 1020.42 506.394 1034.23 510.029 1039.68C513.213 1044.45 536.913 1042.74 540.259 1038.68C543.624 1034.6 542.001 1025.94 542.001 1021C542.001 1008.49 540.097 994.197 543.001 982C550.393 991.59 561.868 1003.71 566.158 1015C568.62 1021.48 563.561 1034.35 568.604 1039.4C572.656 1043.45 596.788 1042.88 598.567 1036.94C601.497 1027.16 599.001 1013.2 599.001 1003V950C599.001 942.359 600.685 932.441 598.683 925.055C596.445 916.799 582.921 920.656 577.001 920.875C574.163 920.98 570.178 919.831 568.18 922.529C566.216 925.182 567.001 929.909 567.001 933V960Z" fill="#FFFEFE"/>
<path d="M572 920V921H581L572 920ZM594.667 920.333L595.333 920.667L594.667 920.333ZM1008.67 920.333L1009.33 920.667L1008.67 920.333ZM534 921L535 922L534 921ZM597 921L598 922L597 921ZM113 922L114 923L113 922ZM465 922V923H477L465 922Z" fill="#A39798"/>
<path d="M444.999 956C452.797 955.999 460.245 954.038 467.999 954.001C473.553 953.974 484.122 956.018 488.681 952.258C492.802 948.859 493.121 926.164 488.565 923.028C484.331 920.113 476.685 922.755 471.999 922.961C457.648 923.589 443.275 924.029 428.999 925.714C424.652 926.228 417.936 924.999 414.602 928.564C410.433 933.023 412.999 947.2 412.999 953V1020C412.999 1025.71 410.193 1042.25 414.602 1046.36C417.917 1049.44 426.917 1046.22 430.999 1046.04C445.694 1045.4 460.283 1044.35 474.999 1043.98C478.817 1043.89 487.623 1044.2 489.971 1040.68C491.953 1037.71 490.999 1032.39 490.999 1029C490.999 1024.78 492.486 1016.96 489.396 1013.59C485.02 1008.81 466.31 1012.86 459.999 1013.02C455.474 1013.13 446.918 1016.54 444.702 1010.88C437.049 991.311 468.85 1000.47 476.681 994.987C481.088 991.902 479.453 977.834 478.89 973.019C478.152 966.701 471.869 968 466.999 968C454.25 968 442.866 972.896 444.999 956Z" fill="#FFFEFE"/>
<path d="M489 922L490 923L489 922ZM509.667 922.333L510.333 922.667L509.667 922.333ZM535 922L536 923L535 922ZM567 922L568 923L567 922Z" fill="#A39798"/>
<path d="M726 958C726 951.621 729.125 933.371 724.397 928.742C721.115 925.53 710.439 926.172 706 926.011C690.882 925.461 669.156 918.749 657.13 931.104C643.718 944.882 646.129 986.105 664.001 994.738C671.147 998.19 697.615 999.698 698.534 1009C699.16 1015.33 691.16 1015.08 687 1014.98C679.734 1014.81 653.513 1007.52 650.576 1017.06C648.974 1022.26 648.05 1039.33 652.728 1042.97C656.638 1046.01 666.219 1043.72 671 1044.29C688.297 1046.33 721.008 1053.58 729.518 1033C735.79 1017.83 735.358 986.312 719.996 976.979C711.272 971.679 700.609 971.425 691.001 968.607C687.663 967.629 682.985 965.33 683.832 961.019C684.686 956.666 689.41 956.025 693 956.429C703.978 957.664 714.948 958 726 958Z" fill="#FFFEFE"/>
<path d="M335.999 979L334.999 936C328.099 936.001 309.612 935.746 304.937 941.514C301.142 946.197 302.999 956.378 302.999 962V1017C302.999 1028 302.871 1039 303.003 1050C303.043 1053.33 302.735 1059.52 307.143 1060.13C312.56 1060.87 331.845 1058.77 334.681 1053.85C337.526 1048.91 335.999 1040.49 335.999 1035C335.999 1027.82 332.686 1012.34 342.004 1010.34C344.588 1009.79 347.373 1009.76 349.999 1009.42C370.926 1006.78 352.794 1041.26 361.741 1050.4C365.353 1054.09 374.528 1051.62 378.999 1051.17C382.378 1050.83 386.63 1051.27 389.681 1049.49C394.475 1046.69 391.999 1031.89 391.999 1027C391.999 1008.61 399.425 978.157 374.999 975C379.777 960.667 389.947 944.13 389.999 929C381.947 929.635 363.074 928.616 358.274 936.109C352.414 945.255 350.053 957.931 345.963 968C343.63 973.742 343.001 978.467 335.999 979Z" fill="#FFFEFE"/>
<path d="M1041.67 929.333L1042.33 929.667L1041.67 929.333ZM83 930L84 931L83 930Z" fill="#A39798"/>
<path d="M373.668 930.333L374.334 930.667L373.668 930.333ZM542.001 930L543.001 931L542.001 930ZM657.001 930L658.001 931L657.001 930Z" fill="#A39798"/>
<path d="M767.394 934.028C762.193 937.382 759.67 951.271 757.864 957C750.646 979.904 746 998.871 746 1023C746 1029.75 742.815 1047.02 750.059 1050.49C753.774 1052.27 773.311 1055.69 775.972 1052.39C781.668 1045.34 770.047 1025.07 785.001 1024.97C787.36 1024.96 789.669 1025.26 792 1025.58C794.63 1025.93 797.428 1025.95 799.981 1026.72C810.195 1029.8 802.239 1048.13 806.514 1055.7C808.958 1060.02 819.536 1060.08 824 1060.71C827.009 1061.14 832.752 1062.8 835.397 1060.81C837.926 1058.9 837 1053.73 837 1051V1024C837 1001.6 830.846 983.273 824.555 962C822.693 955.705 821.048 943.893 815.722 939.6C810.621 935.487 801.122 936.421 795 935.116C788.705 933.773 773.076 930.362 767.394 934.028Z" fill="#FFFEFE"/>
<path d="M1070 943L1071 944L1070 943ZM761.999 944L762.999 945L761.999 944ZM1071 944L1072 945L1071 944ZM354.332 945.667L354.666 946.333L354.332 945.667ZM552.999 945L553.999 946L552.999 945ZM856.999 945L857.999 946L856.999 945Z" fill="#A39798"/>
<path d="M909.001 1043C903.822 1042.96 893.206 1042.99 889.604 1038.68C886.184 1034.6 888.001 1025.01 888.001 1020V972C888.001 966.797 890.055 955.971 886.973 951.573C883.747 946.969 866.45 945.286 861.06 945.438C855.353 945.598 857.001 954.143 857.001 958V1000V1047C857.001 1051.73 855.288 1060.75 858.604 1064.57C861.099 1067.44 867.43 1067.92 871.001 1068.63C882.271 1070.87 893.707 1072.35 905.001 1074.6C912.985 1076.19 921.142 1076.96 929.001 1079.15C931.863 1079.95 936.679 1081.85 939.398 1079.81C942.484 1077.48 941.001 1069.39 941.001 1066V1031C941.001 1026.87 942.034 1020.79 938.567 1017.73C935.807 1015.29 931.418 1015.27 928.001 1014.5C923.981 1013.6 916.073 1009.98 912.229 1012.07C905.639 1015.65 909.001 1036.49 909.001 1043Z" fill="#FFFEFE"/>
<path d="M862.667 945.333L863.333 945.667L862.667 945.333ZM1072 945L1073 946L1072 945ZM55 946L56 947L55 946Z" fill="#A39798"/>
<path d="M247.001 948.424C228.213 950.921 205.799 955.313 196.53 974C187.276 992.655 193.001 1023.58 193.001 1044C193.001 1052.23 192.444 1061.31 198.341 1067.9C205.319 1075.69 218.344 1075.77 228.001 1074.83C245.433 1073.14 270.433 1067.83 279.335 1050.99C289.507 1031.73 284.009 1001.21 284.001 980C283.998 971.339 283.523 961.089 277.237 954.39C270.078 946.761 256.513 947.16 247.001 948.424Z" fill="#FFFEFE"/>
<path d="M265.001 948L266.001 949L265.001 948ZM555.001 948L556.001 949L555.001 948ZM878.668 948.333L879.334 948.667L878.668 948.333ZM1075 948L1076 949L1075 948ZM238.001 949L239.001 950L238.001 949ZM269.001 949L270.001 950L269.001 949ZM820.001 949L821.001 950L820.001 949ZM885.001 949L886.001 950L885.001 949ZM1076 949L1077 950L1076 949ZM234.668 950.333L235.334 950.667L234.668 950.333ZM557.001 950L558.001 951L557.001 950ZM760.001 950L761.001 951L760.001 950Z" fill="#A39798"/>
<path d="M382 955L379 966H380L382 955Z" fill="#F36572"/>
<path d="M485 961C488.531 970.721 492.119 984.606 488.106 994.996C486.593 998.916 482.873 1001.29 481 1005L498 1007C502.265 992.571 499 973.056 499 958L485 961Z" fill="#393435"/>
<path d="M205 962L206 963L205 962ZM379 962L380 963L379 962ZM824 962L825 963L824 962ZM42 963L43 964L42 963ZM204 963L205 964L204 963ZM282 963L283 964L282 963ZM1086 963L1087 964L1086 963ZM170 964V965H173L170 964Z" fill="#A39798"/>
<path d="M92.9995 1014L118.999 1009C124.154 1036.77 119.999 1068.75 119.999 1097C127.588 1096.84 146.194 1094.6 151.396 1088.57C155.306 1084.03 152.999 1071.68 152.999 1066V1023C152.999 1017.31 151.601 1009.38 153.741 1004.02C157.322 995.051 171.13 999.088 177.485 993.911C181.774 990.417 179.999 980.882 179.999 976C179.999 973.009 180.829 968.122 178.82 965.604C175.7 961.695 163.054 966.239 158.999 967.269C144.397 970.981 129.706 975.129 114.999 978.338C109.462 979.546 98.8203 980.477 94.7418 984.728C89.8884 989.786 92.9995 1007.28 92.9995 1014Z" fill="#FFFEFE"/>
<path d="M179.332 964.667L179.666 965.333L179.332 964.667ZM202.999 964L203.999 965L202.999 964Z" fill="#A39798"/>
<path d="M755 964L756 965L755 964Z" fill="#A39798"/>
<path d="M1087 964L1088 965L1087 964ZM41 965L42 966L41 965ZM167 965L168 966L167 965ZM202 965L203 966L202 965ZM378.333 965.667L378.667 966.333L378.333 965.667ZM684 965L685 966L684 965ZM960 965V966H963L960 965ZM161 966L162 967L161 966ZM685 966L686 967L685 966ZM789 966L790 967L789 966Z" fill="#A39798"/>
<path d="M792 966L793 967L792 966Z" fill="#A39798"/>
<path d="M991.999 1046C997.966 1048.89 1015.33 1055.46 1021.77 1053.29C1027.52 1051.35 1026.03 1031.22 1023.14 1027.23C1014.38 1015.12 986.47 1027.23 991.999 1004C998.973 1005.81 1005.97 1007.61 1013 1009.21C1018.29 1010.41 1028.4 1015.64 1033.68 1013.36C1038.07 1011.46 1037.42 987.819 1034.4 984.563C1030.73 980.613 1021.07 979.595 1016 978.552C1003.31 975.938 990.546 972.265 977.999 969C973.578 967.849 963.873 963.687 959.741 967.028C955.234 970.672 957.999 987.592 957.999 993V1062C957.999 1068.27 955.552 1081.61 961.418 1085.86C966.248 1089.36 975.265 1089.39 980.999 1090.6C993.413 1093.23 1005.76 1097.05 1018 1100.44C1021.79 1101.5 1034.03 1106.34 1035.68 1100.85C1037.22 1095.74 1038.03 1077.38 1033.68 1073.85C1018.91 1061.89 986.828 1073.85 991.999 1046Z" fill="#FFFEFE"/>
<path d="M968 966L969 967L968 966ZM40 967L41 968L40 967ZM158 967L159 968L158 967ZM200 967L201 968L200 967ZM346 967L347 968L346 967Z" fill="#A39798"/>
<path d="M378 967L377 971H378V967Z" fill="#F36572"/>
<path d="M782 994L801 996C800.588 990.959 797.854 969.185 791.806 968.466C784.784 967.632 782.216 989.037 782 994Z" fill="#F20C26"/>
<path d="M376 971L375 974L390 981L376 971Z" fill="#F36572"/>
<path d="M236.001 983.61C221.666 987.312 227.001 1011.36 227.001 1023C227.001 1027.07 225.67 1034.15 228.029 1037.68C230.278 1041.05 236.629 1040.25 240.001 1039.47C254.503 1036.12 249.001 1010.57 249.001 999C249.001 995.269 250.424 987.698 247.973 984.603C245.75 981.797 238.978 982.841 236.001 983.61Z" fill="#F20C26"/>
<path d="M249 983L250 984L249 983ZM544 983L545 984L544 983ZM652 983L653 984L652 983ZM727 983L728 984L727 983ZM831.333 983.667L831.667 984.333L831.333 983.667ZM229 984L230 985L229 984ZM782 984L783 985L782 984ZM93 985L94 986L93 985ZM228 985L229 986L228 985ZM250 985L251 986L250 985ZM391 985L392 986L391 985ZM545 985L546 986L545 985ZM653 985L654 986L653 985ZM728 985L729 986L728 985ZM781.333 985.667L781.667 986.333L781.333 985.667ZM227 986L228 987L227 986ZM546 986L547 987L546 986Z" fill="#A39798"/>
<path d="M653 986L657 991L653 986Z" fill="#F36572"/>
<path d="M236 990L237 1034C241.733 1031.39 241 1026.9 241 1022V990H236Z" fill="#393435"/>
<path d="M657 991L658 992L657 991Z" fill="#F36572"/>
<path d="M747.333 991.667L747.667 992.333L747.333 991.667ZM225 992L226 993L225 992ZM550 992L551 993L550 992Z" fill="#A39798"/>
<path d="M659 992L660 993L659 992Z" fill="#A39798"/>
<path d="M1016 1010V1011H1019L1016 1010ZM109 1011L110 1012L109 1011Z" fill="#A39798"/>
<path d="M1086 1129L1087 1130L1086 1129Z" fill="#A39798"/>
<path d="M576.5 1313C894.892 1313 1153 1280.54 1153 1240.5C1153 1200.46 894.892 1168 576.5 1168C258.108 1168 0 1200.46 0 1240.5C0 1280.54 258.108 1313 576.5 1313Z" fill="url(#paint0_radial_9_24056)" fill-opacity="0.5"/>
<defs>
<radialGradient id="paint0_radial_9_24056" cx="0" cy="0" r="1" gradientUnits="userSpaceOnUse" gradientTransform="translate(576.5 1240.5) rotate(90) scale(72.5 576.5)">
<stop/>
<stop offset="1" stop-opacity="0"/>
</radialGradient>
</defs>
</svg>
