<svg width="216" height="56" viewBox="0 0 216 56" fill="none" xmlns="http://www.w3.org/2000/svg">
<rect width="216" height="56" rx="8" fill="white"/>
<g clip-path="url(#clip0_573_13777)">
<rect x="172" y="12" width="50" height="50" rx="6" fill="#F6F6F7"/>
<path d="M181.476 21.5059C182.311 20.6702 182.311 19.3154 181.476 18.4797C180.64 17.644 179.285 17.644 178.449 18.4797C177.614 19.3154 177.614 20.6702 178.449 21.5059C179.285 22.3416 180.64 22.3416 181.476 21.5059Z" fill="#000061"/>
<path d="M185.498 18.1958C185.688 17.0293 184.897 15.9297 183.73 15.7398C182.564 15.5498 181.464 16.3414 181.274 17.5078C181.084 18.6743 181.876 19.7739 183.042 19.9638C184.209 20.1538 185.308 19.3622 185.498 18.1958Z" fill="#000061"/>
<path d="M187.668 20.447C188.85 20.447 189.808 19.4889 189.808 18.3071C189.808 17.1253 188.85 16.1672 187.668 16.1672C186.487 16.1672 185.529 17.1253 185.529 18.3071C185.529 19.4889 186.487 20.447 187.668 20.447Z" fill="#000061"/>
<path d="M192.511 21.9692C193.602 21.5133 194.118 20.2589 193.662 19.1675C193.206 18.076 191.951 17.5608 190.86 18.0167C189.768 18.4726 189.253 19.727 189.709 20.8184C190.165 21.9099 191.419 22.4251 192.511 21.9692Z" fill="#000061"/>
<path d="M194.194 24.5682C195.286 24.1155 195.805 22.8627 195.353 21.7699C194.9 20.6771 193.647 20.1582 192.554 20.6108C191.462 21.0635 190.943 22.3163 191.395 23.4091C191.848 24.5019 193.101 25.0208 194.194 24.5682Z" fill="#000061"/>
<path d="M194.832 27.6847C195.022 26.5182 194.23 25.4186 193.064 25.2286C191.897 25.0387 190.798 25.8303 190.608 26.9967C190.418 28.1632 191.209 29.2628 192.376 29.4527C193.542 29.6427 194.642 28.8511 194.832 27.6847Z" fill="#000061"/>
<path d="M193.938 31.0241C194.211 29.8742 193.5 28.7208 192.35 28.4479C191.201 28.175 190.047 28.886 189.774 30.0359C189.501 31.1858 190.212 32.3391 191.362 32.612C192.512 32.8849 193.665 32.1739 193.938 31.0241Z" fill="#000061"/>
<path d="M181.475 27.3586C182.311 26.5229 182.311 25.168 181.475 24.3323C180.639 23.4967 179.284 23.4967 178.449 24.3323C177.613 25.168 177.613 26.5229 178.449 27.3586C179.284 28.1942 180.639 28.1942 181.475 27.3586Z" fill="#000061"/>
<path d="M181.475 24.1013C182.311 23.2656 182.311 21.9107 181.475 21.075C180.64 20.2393 179.285 20.2393 178.449 21.075C177.613 21.9107 177.613 23.2656 178.449 24.1013C179.285 24.9369 180.64 24.9369 181.475 24.1013Z" fill="#000061"/>
<path d="M184.012 21.3306C185.194 21.3306 186.152 20.3726 186.152 19.1908C186.152 18.009 185.194 17.0509 184.012 17.0509C182.83 17.0509 181.872 18.009 181.872 19.1908C181.872 20.3726 182.83 21.3306 184.012 21.3306Z" fill="#000061"/>
<path d="M183.954 20.2094C184.227 19.0595 183.516 17.9061 182.366 17.6332C181.216 17.3603 180.063 18.0713 179.79 19.2212C179.517 20.3711 180.228 21.5244 181.378 21.7973C182.528 22.0702 183.681 21.3592 183.954 20.2094Z" fill="#000061"/>
<path d="M189.754 20.4871C190.024 19.3366 189.31 18.1849 188.16 17.9146C187.009 17.6443 185.858 18.3579 185.587 19.5084C185.317 20.6589 186.031 21.8107 187.181 22.0809C188.332 22.3512 189.483 21.6376 189.754 20.4871Z" fill="#000061"/>
<path d="M192.666 23.0837C192.936 21.9332 192.222 20.7814 191.072 20.5112C189.921 20.2409 188.77 20.9544 188.499 22.1049C188.229 23.2554 188.943 24.4072 190.093 24.6775C191.244 24.9478 192.395 24.2342 192.666 23.0837Z" fill="#000061"/>
<path d="M191.858 26.2836C193.04 26.2836 193.998 25.3256 193.998 24.1438C193.998 22.962 193.04 22.0039 191.858 22.0039C190.676 22.0039 189.718 22.962 189.718 24.1438C189.718 25.3256 190.676 26.2836 191.858 26.2836Z" fill="#000061"/>
<path d="M190.58 21.5273C191.429 20.7053 191.451 19.3506 190.629 18.5014C189.807 17.6523 188.453 17.6303 187.604 18.4523C186.755 19.2743 186.733 20.629 187.555 21.4782C188.377 22.3273 189.731 22.3493 190.58 21.5273Z" fill="#000061"/>
<path d="M186.108 20.8067C187.29 20.8067 188.248 19.8487 188.248 18.6668C188.248 17.485 187.29 16.527 186.108 16.527C184.926 16.527 183.968 17.485 183.968 18.6668C183.968 19.8487 184.926 20.8067 186.108 20.8067Z" fill="#000061"/>
<path d="M187.329 39.656C187.329 39.656 182.631 38.6026 179.83 41.9453C177.03 45.2879 176.842 46.677 176.842 46.677C176.842 46.677 186.128 47.1824 191.181 45.6679C196.234 44.1534 204.321 46.0461 204.321 46.0461C204.321 46.0461 201.478 39.0361 194.404 39.1616C187.329 39.287 187.329 39.656 187.329 39.656Z" fill="#FF5776"/>
<path d="M191.646 26.2062C191.646 26.2062 190.736 19.947 185.615 19.7201C180.494 19.4932 178.559 27.8 180.836 32.694C183.112 37.5881 186.981 36.2211 186.981 36.2211L186.154 40.7776C187.109 41.221 188.162 41.4073 189.211 41.318C190.26 41.2287 191.267 40.8669 192.133 40.2684L192.415 40.084L191.646 26.2062Z" fill="#CE8463"/>
<path d="M189.845 34.1108C189.845 34.1108 190.569 37.9073 186.224 40.084L186.981 36.2249C186.981 36.2249 188.873 35.2656 189.845 34.1108Z" fill="#000061"/>
<path d="M189.952 25.0015C189.952 25.0015 191.574 23.6162 192.998 24.367C194.422 25.1178 193.736 28.6006 192.998 29.3145C192.26 30.0284 189.438 28.4825 189.952 25.0015Z" fill="#CE8463"/>
<path d="M185.123 22.3223C185.959 21.4866 185.959 20.1318 185.123 19.2961C184.288 18.4604 182.933 18.4604 182.097 19.2961C181.262 20.1318 181.262 21.4867 182.097 22.3223C182.933 23.158 184.288 23.158 185.123 22.3223Z" fill="#000061"/>
<path d="M187.778 21.9692C188.869 21.5133 189.385 20.2589 188.929 19.1675C188.473 18.076 187.218 17.5608 186.127 18.0167C185.035 18.4726 184.52 19.727 184.976 20.8184C185.432 21.9099 186.686 22.4251 187.778 21.9692Z" fill="#000061"/>
<path d="M188.227 22.9484C189.186 22.9484 189.963 22.1713 189.963 21.2126C189.963 20.2539 189.186 19.4767 188.227 19.4767C187.269 19.4767 186.491 20.2539 186.491 21.2126C186.491 22.1713 187.269 22.9484 188.227 22.9484Z" fill="#000061"/>
<path d="M191.232 23.5922C192.191 23.5922 192.968 22.8151 192.968 21.8564C192.968 20.8977 192.191 20.1205 191.232 20.1205C190.274 20.1205 189.497 20.8977 189.497 21.8564C189.497 22.8151 190.274 23.5922 191.232 23.5922Z" fill="#000061"/>
<path d="M189.89 26.0605C190.848 26.0605 191.626 25.2833 191.626 24.3246C191.626 23.3659 190.848 22.5887 189.89 22.5887C188.931 22.5887 188.154 23.3659 188.154 24.3246C188.154 25.2833 188.931 26.0605 189.89 26.0605Z" fill="#000061"/>
<path d="M189.093 24.3245C190.051 24.3245 190.828 23.5474 190.828 22.5887C190.828 21.63 190.051 20.8528 189.093 20.8528C188.134 20.8528 187.357 21.63 187.357 22.5887C187.357 23.5474 188.134 24.3245 189.093 24.3245Z" fill="#000061"/>
<path d="M180.981 23.869C181.94 23.869 182.717 23.0918 182.717 22.1331C182.717 21.1744 181.94 20.3972 180.981 20.3972C180.023 20.3972 179.246 21.1744 179.246 22.1331C179.246 23.0918 180.023 23.869 180.981 23.869Z" fill="#000061"/>
<path fill-rule="evenodd" clip-rule="evenodd" d="M182.626 25.1896L182.808 25.2158L182.212 29.3741L184.422 29.0326V28.3885H184.606V29.1907L181.994 29.5944L182.626 25.1896Z" fill="#000061"/>
<path fill-rule="evenodd" clip-rule="evenodd" d="M184.212 26.8005C184.212 26.8004 184.212 26.8003 184.038 26.7375C183.865 26.6746 183.865 26.6745 183.865 26.6744L183.865 26.6741L183.865 26.6734L183.866 26.6716L183.868 26.6657C183.87 26.661 183.872 26.6544 183.876 26.6462C183.883 26.6299 183.892 26.607 183.905 26.579C183.931 26.523 183.97 26.4459 184.024 26.3582C184.132 26.1841 184.301 25.9624 184.548 25.7861C184.797 25.608 185.122 25.478 185.531 25.4892C185.938 25.5003 186.411 25.6504 186.961 26.0051L186.761 26.315C186.251 25.9863 185.843 25.8668 185.521 25.858C185.202 25.8493 184.954 25.9491 184.763 26.0862C184.568 26.2251 184.429 26.4041 184.338 26.5518C184.293 26.6251 184.261 26.6891 184.24 26.7342C184.23 26.7566 184.222 26.7742 184.217 26.7857C184.215 26.7914 184.213 26.7956 184.212 26.7981L184.212 26.8005L184.212 26.8005Z" fill="#000061"/>
<path fill-rule="evenodd" clip-rule="evenodd" d="M179.93 27.2469C179.93 27.2469 179.93 27.2468 179.757 27.1839C179.583 27.121 179.583 27.1209 179.583 27.1207L179.583 27.1205L179.584 27.1198L179.584 27.1181L179.586 27.113C179.588 27.1088 179.59 27.1031 179.593 27.096C179.599 27.0819 179.607 27.0623 179.618 27.0383C179.64 26.9904 179.674 26.9246 179.72 26.8499C179.811 26.7015 179.956 26.512 180.168 26.3609C180.382 26.208 180.662 26.0965 181.012 26.106C181.36 26.1155 181.764 26.2438 182.229 26.5436L182.029 26.8538C181.604 26.5798 181.266 26.482 181.002 26.4748C180.741 26.4678 180.539 26.5492 180.382 26.6611C180.223 26.7747 180.109 26.9216 180.034 27.0435C179.997 27.1039 179.97 27.1567 179.953 27.1936C179.944 27.212 179.938 27.2263 179.934 27.2356C179.933 27.2402 179.931 27.2435 179.931 27.2454L179.93 27.2472L179.93 27.2471L179.93 27.2469ZM179.93 27.2473C179.93 27.2473 179.93 27.2473 179.93 27.2472Z" fill="#000061"/>
<path d="M182.717 31.0191C182.717 31.0191 184.807 31.685 186.154 29.9547C187.501 28.2243 188.228 29.6226 188.229 30.7534C188.231 31.8842 188.098 33.9761 185.138 34.1108C182.177 34.2455 181.363 31.5522 182.717 31.0191Z" fill="white"/>
<path fill-rule="evenodd" clip-rule="evenodd" d="M193.331 41.1216C192.463 42.0874 191.02 43.0504 188.727 43.0504C186.44 43.0504 185.144 42.2259 184.421 41.3905C184.061 40.9743 183.846 40.558 183.72 40.2453C183.658 40.0889 183.617 39.9582 183.592 39.8661C183.58 39.82 183.571 39.7835 183.566 39.7583C183.563 39.7456 183.561 39.7358 183.56 39.729L183.558 39.721L183.558 39.7187L183.558 39.718L183.558 39.7178C183.558 39.7177 183.558 39.7177 183.649 39.7022C183.74 39.6867 183.74 39.6867 183.74 39.6867L183.74 39.6869L183.74 39.6881L183.741 39.6941C183.742 39.6996 183.744 39.7081 183.746 39.7193C183.751 39.7417 183.759 39.7752 183.771 39.8181C183.794 39.904 183.832 40.0277 183.892 40.1766C184.011 40.4744 184.217 40.8721 184.561 41.2698C185.246 42.0624 186.49 42.8659 188.727 42.8659C190.96 42.8659 192.355 41.9307 193.194 40.9982C193.614 40.5311 193.895 40.0638 194.071 39.7135C194.158 39.5385 194.22 39.3928 194.259 39.2914C194.279 39.2407 194.293 39.2011 194.302 39.1744C194.307 39.1611 194.31 39.1509 194.312 39.1443L194.315 39.1369L194.315 39.1353L194.315 39.1349L194.315 39.1349C194.315 39.1349 194.315 39.1349 194.404 39.1617C194.492 39.1885 194.492 39.1885 194.492 39.1886L194.492 39.1888L194.491 39.1895L194.491 39.192L194.488 39.2009C194.485 39.2086 194.482 39.2198 194.477 39.2343C194.467 39.2632 194.452 39.3051 194.431 39.3582C194.39 39.4644 194.326 39.6154 194.235 39.7963C194.054 40.1578 193.764 40.6396 193.331 41.1216Z" fill="white"/>
<path fill-rule="evenodd" clip-rule="evenodd" d="M195.895 42.3135C194.522 43.6302 192.243 44.9412 188.619 44.9412C185.004 44.9412 183.162 43.9896 182.224 43.0185C181.756 42.5336 181.517 42.0475 181.396 41.681C181.335 41.4979 181.303 41.3447 181.287 41.2365C181.279 41.1824 181.274 41.1395 181.272 41.1097C181.271 41.0948 181.27 41.0832 181.27 41.075C181.27 41.071 181.269 41.0678 181.269 41.0655L181.269 41.0627L181.269 41.0619L181.269 41.0615C181.269 41.0614 181.269 41.0613 181.362 41.0599C181.454 41.0585 181.454 41.0584 181.454 41.0583L181.454 41.0585L181.454 41.0598C181.454 41.0612 181.454 41.0634 181.454 41.0665C181.454 41.0727 181.455 41.0823 181.456 41.0952C181.458 41.1209 181.462 41.1594 181.469 41.2089C181.484 41.3079 181.514 41.4508 181.571 41.6229C181.685 41.9668 181.911 42.4279 182.357 42.8904C183.249 43.8138 185.035 44.7567 188.619 44.7567C192.193 44.7567 194.427 43.4657 195.767 42.1804C196.438 41.5369 196.887 40.8936 197.167 40.4117C197.307 40.1708 197.405 39.9704 197.468 39.8307C197.5 39.7609 197.522 39.7063 197.537 39.6694C197.544 39.6509 197.549 39.6369 197.553 39.6276C197.555 39.623 197.556 39.6196 197.557 39.6174L197.558 39.615L197.558 39.6145L197.558 39.6144C197.558 39.6144 197.558 39.6144 197.645 39.645C197.732 39.6756 197.732 39.6756 197.732 39.6757L197.732 39.676L197.731 39.6769L197.73 39.6802C197.729 39.683 197.728 39.687 197.726 39.6922C197.722 39.7026 197.716 39.7178 197.708 39.7375C197.693 39.7768 197.669 39.834 197.636 39.9065C197.571 40.0514 197.47 40.2575 197.326 40.5045C197.039 40.9984 196.581 41.656 195.895 42.3135Z" fill="white"/>
<g style="mix-blend-mode:multiply" opacity="0.53">
<path d="M191.613 25.7874C191.613 25.7874 191.898 24.8263 192.854 25.3521C193.81 25.8778 192.95 28.2298 192.432 28.2778C191.913 28.3258 191.932 27.8203 192.031 27.3997C192.131 26.9791 192.015 26.5622 191.544 26.7374" fill="#FF8080"/>
</g>
</g>
<rect x="100" y="32" width="62" height="9" rx="4.5" fill="#D5D5E2"/>
<rect x="29" y="15" width="133" height="9" rx="4.5" fill="#D5D5E2"/>
<defs>
<clipPath id="clip0_573_13777">
<path d="M172 28C172 19.1634 179.163 12 188 12V12C196.837 12 204 19.1634 204 28V28C204 36.8366 196.837 44 188 44V44C179.163 44 172 36.8366 172 28V28Z" fill="white"/>
</clipPath>
</defs>
</svg>
