<svg width="216" height="56" viewBox="0 0 216 56" fill="none" xmlns="http://www.w3.org/2000/svg">
<rect width="216" height="56" rx="8" fill="white"/>
<g clip-path="url(#clip0_408:13788)">
<rect x="12" y="12" width="50" height="50" rx="6" fill="#F6F6F7"/>
<path d="M27.9178 40.1188C27.9178 40.1188 22.7895 38.9677 19.7346 42.6184C16.6798 46.2691 16.4731 47.7836 16.4731 47.7836C16.4731 47.7836 26.608 48.337 32.1237 46.6767C37.6394 45.0165 46.4664 47.09 46.4664 47.09C46.4664 47.09 43.3636 39.4399 35.6471 39.5783C27.9307 39.7166 27.9178 40.1188 27.9178 40.1188Z" fill="#00CCBE"/>
<path d="M25.7134 39.9527C25.7134 39.9527 25.2061 43.2548 30.2016 43.2548C35.1971 43.2548 35.6472 39.5782 35.6472 39.5782" fill="#00CCBE"/>
<path fill-rule="evenodd" clip-rule="evenodd" d="M34.8697 41.4741C34.114 42.4166 32.7254 43.3469 30.2016 43.3469C27.6824 43.3469 26.5244 42.5127 26.0052 41.6513C25.7475 41.2239 25.6518 40.797 25.6204 40.4776C25.6046 40.3178 25.6049 40.1844 25.6092 40.0903C25.6113 40.0433 25.6145 40.0061 25.6172 39.9803C25.6185 39.9674 25.6197 39.9573 25.6206 39.9503C25.6211 39.9468 25.6214 39.9441 25.6217 39.9421L25.622 39.9398L25.6222 39.9391L25.6222 39.9388C25.6222 39.9387 25.6222 39.9387 25.7134 39.9527C25.8045 39.9667 25.8046 39.9666 25.8046 39.9666L25.8045 39.9667L25.8044 39.968L25.8036 39.974C25.8028 39.9794 25.8018 39.9879 25.8007 39.9992C25.7983 40.0218 25.7955 40.0555 25.7935 40.0987C25.7895 40.1853 25.7892 40.3098 25.804 40.4596C25.8335 40.7593 25.9232 41.158 26.1632 41.5561C26.6391 42.3457 27.7253 43.1625 30.2016 43.1625C32.6733 43.1625 34.0074 42.2546 34.7257 41.3587C35.0863 40.909 35.2941 40.4593 35.4117 40.1223C35.4705 39.9538 35.5066 39.8138 35.528 39.7164C35.5387 39.6677 35.5457 39.6297 35.5499 39.6042C35.5521 39.5915 35.5535 39.5818 35.5544 39.5756L35.5554 39.5687L35.5556 39.5672L35.5556 39.5669L35.5556 39.5669C35.5556 39.5669 35.5558 39.567 35.6472 39.5782C35.7387 39.5894 35.7387 39.5895 35.7387 39.5896L35.7387 39.5898L35.7386 39.5905L35.7383 39.593C35.738 39.5951 35.7376 39.5981 35.737 39.6019C35.7359 39.6095 35.7343 39.6206 35.7319 39.6347C35.7271 39.6631 35.7196 39.7041 35.7082 39.7559C35.6854 39.8596 35.6474 40.0068 35.5859 40.183C35.463 40.5353 35.246 41.0047 34.8697 41.4741Z" fill="white"/>
<path d="M32.6329 25.4366C32.6329 25.4366 31.6386 18.6111 26.0491 18.3566C20.4596 18.102 18.3474 27.1762 20.8304 32.5185C23.3134 37.8608 27.5396 36.3684 27.5396 36.3684L26.6357 41.3491C27.6775 41.8334 28.8278 42.037 29.9726 41.94C31.1173 41.8429 32.2169 41.4484 33.1623 40.7957L33.4704 40.5891L32.6329 25.4366Z" fill="#FFB2A8"/>
<path d="M30.6663 34.0662C30.6663 34.0662 31.4577 38.2094 26.715 40.5817L27.5414 36.3684C27.5414 36.3684 29.6056 35.3261 30.6663 34.0662Z" fill="#000061"/>
<path d="M30.7826 24.1213C30.7826 24.1213 32.5535 22.6086 34.1031 23.4295C35.6526 24.2504 34.9 28.0413 34.1031 28.829C33.3061 29.6167 30.2199 27.9214 30.7826 24.1213Z" fill="#FFB2A8"/>
<path d="M31.2199 21.6218C31.2199 21.6218 29.0431 19.9505 26.6302 21.5941C24.2174 23.2378 19.517 22.0996 18.7533 18.3511C17.9896 14.6026 21.1625 13.4884 22.6899 15.5434C24.2174 17.5985 25.0881 12.4498 27.7408 14.5252C30.3935 16.6005 32.8433 14.9956 33.6808 18.3511C34.0829 19.9449 33.8911 21.2694 31.2199 21.6218Z" fill="#000061"/>
<path fill-rule="evenodd" clip-rule="evenodd" d="M21.0166 13.92V13.92C21.4889 13.92 21.9961 14.0596 22.4699 14.4557C22.9424 14.8507 23.3759 15.4959 23.7125 16.4972L23.5376 16.556C23.2083 15.5761 22.7904 14.9641 22.3516 14.5973C21.9143 14.2317 21.4504 14.1046 21.0171 14.1045C20.514 14.1098 20.027 14.2822 19.6327 14.5947C19.2382 14.9073 18.959 15.3423 18.839 15.831L18.8388 15.832L18.8388 15.832C18.4051 17.5171 18.9788 18.8324 19.6649 19.731C20.0083 20.1807 20.3793 20.525 20.6645 20.7569C20.8071 20.8727 20.9279 20.9603 21.0128 21.0187C21.0553 21.0479 21.0887 21.0698 21.1114 21.0843C21.1227 21.0915 21.1314 21.0969 21.1371 21.1004L21.1434 21.1043L21.1449 21.1052L21.1452 21.1054L21.1452 21.1054C21.1452 21.1054 21.1452 21.1054 21.0978 21.1845C21.0504 21.2637 21.0504 21.2637 21.0503 21.2636L21.0501 21.2635L21.0496 21.2632L21.0475 21.2619L21.04 21.2573C21.0336 21.2533 21.0241 21.2474 21.012 21.2397C20.9877 21.2241 20.9525 21.2011 20.9083 21.1707C20.8198 21.1098 20.695 21.0193 20.5482 20.9C20.2548 20.6615 19.8726 20.307 19.5183 19.8429C18.8089 18.9139 18.2085 17.5416 18.66 15.7865C18.7898 15.2582 19.0917 14.7881 19.5181 14.4502C19.9446 14.1121 20.4715 13.9256 21.0157 13.9201L21.0166 13.92Z" fill="#000061"/>
<path fill-rule="evenodd" clip-rule="evenodd" d="M32.6203 15.8439C33.5667 16.3489 34.2491 17.3657 34.2397 18.7594C34.2349 19.4465 34.0385 19.97 33.7426 20.3666C33.4475 20.7622 33.0573 21.0266 32.6718 21.2034C32.2864 21.3801 31.9028 21.4706 31.6163 21.5171C31.4729 21.5403 31.3532 21.5527 31.2691 21.5592C31.227 21.5624 31.1937 21.5642 31.1708 21.5652C31.1594 21.5657 31.1505 21.566 31.1444 21.5662L31.1373 21.5663L31.1353 21.5664L31.1347 21.5664C31.1347 21.5664 31.1344 21.5664 31.1332 21.4742C31.1319 21.3819 31.1319 21.3819 31.1319 21.3819L31.1322 21.3819L31.1335 21.3819L31.1392 21.3818C31.1444 21.3816 31.1524 21.3814 31.1628 21.3809C31.1838 21.38 31.215 21.3783 31.2548 21.3752C31.3346 21.3691 31.4491 21.3573 31.5868 21.335C31.8626 21.2903 32.2291 21.2035 32.595 21.0357C32.9607 20.868 33.323 20.6207 33.5948 20.2563C33.8658 19.8931 34.0507 19.4084 34.0552 18.7581C34.0642 17.4309 33.4175 16.4784 32.5335 16.0066C31.6475 15.5338 30.5169 15.5404 29.5515 16.1472L29.4534 15.9911C30.4747 15.349 31.6759 15.3399 32.6203 15.8439Z" fill="#000061"/>
<path fill-rule="evenodd" clip-rule="evenodd" d="M23.1714 24.1791L23.3556 24.189L23.0866 29.1882L25.0019 29.6768L24.9563 29.8555L22.8943 29.3295L23.1714 24.1791Z" fill="#000061"/>
<path d="M21.2952 27.6392C21.5907 27.6392 21.8302 27.1445 21.8302 26.5342C21.8302 25.9239 21.5907 25.4292 21.2952 25.4292C20.9998 25.4292 20.7603 25.9239 20.7603 26.5342C20.7603 27.1445 20.9998 27.6392 21.2952 27.6392Z" fill="#000061"/>
<path d="M25.7097 27.6392C26.0051 27.6392 26.2446 27.1445 26.2446 26.5342C26.2446 25.9239 26.0051 25.4292 25.7097 25.4292C25.4142 25.4292 25.1747 25.9239 25.1747 26.5342C25.1747 27.1445 25.4142 27.6392 25.7097 27.6392Z" fill="#000061"/>
<path fill-rule="evenodd" clip-rule="evenodd" d="M23.9714 32.8624C23.9714 32.8624 23.9713 32.8624 23.9848 32.7712C23.9983 32.6799 23.9983 32.6799 23.9982 32.6799L23.9983 32.6799L23.9985 32.6799L23.9996 32.6801L24.0046 32.6808C24.0091 32.6814 24.0161 32.6823 24.0254 32.6834C24.044 32.6856 24.0719 32.6885 24.1079 32.6916C24.18 32.6976 24.2849 32.7038 24.4145 32.7044C24.6739 32.7055 25.0311 32.6838 25.4224 32.593C26.2042 32.4116 27.1177 31.9559 27.6674 30.8557L27.8324 30.9382C27.2512 32.1014 26.2822 32.5829 25.4641 32.7727C25.0556 32.8675 24.6835 32.89 24.4137 32.8889C24.2787 32.8883 24.1689 32.8818 24.0925 32.8754C24.0543 32.8722 24.0244 32.869 24.0039 32.8666C23.9937 32.8654 23.9857 32.8644 23.9802 32.8636L23.9739 32.8628L23.9721 32.8625L23.9716 32.8625L23.9714 32.8624Z" fill="#000061"/>
<path d="M32.5757 24.9219C32.5757 24.9219 32.8875 23.8722 33.9316 24.4441C34.9757 25.016 34.0368 27.5801 33.4704 27.6391C32.9041 27.6982 32.917 27.1392 33.0332 26.6817C33.1494 26.2242 33.0148 25.7594 32.502 25.9568" fill="#FF8080"/>
<path fill-rule="evenodd" clip-rule="evenodd" d="M24.5647 25.1801C24.2651 25.575 24.0772 26.1245 24.0772 26.7353C24.0772 27.3462 24.2651 27.8957 24.5647 28.2905C24.8642 28.6853 25.2712 28.9213 25.7134 28.9213C26.1557 28.9213 26.5627 28.6853 26.8622 28.2905C27.1617 27.8957 27.3497 27.3462 27.3497 26.7353C27.3497 26.1245 27.1617 25.575 26.8622 25.1801C26.5627 24.7854 26.1557 24.5493 25.7134 24.5493C25.2712 24.5493 24.8642 24.7854 24.5647 25.1801ZM24.4177 25.0686C24.7438 24.6388 25.201 24.3649 25.7134 24.3649C26.2258 24.3649 26.6831 24.6388 27.0092 25.0686C27.3352 25.4984 27.5342 26.0879 27.5342 26.7353C27.5342 27.3827 27.3352 27.9723 27.0092 28.402C26.6831 28.8318 26.2258 29.1058 25.7134 29.1058C25.201 29.1058 24.7438 28.8318 24.4177 28.402C24.0917 27.9723 23.8927 27.3827 23.8927 26.7353C23.8927 26.0879 24.0917 25.4984 24.4177 25.0686Z" fill="#000061"/>
<path fill-rule="evenodd" clip-rule="evenodd" d="M19.6117 25.0141C19.3121 25.4089 19.1242 25.9585 19.1242 26.5693C19.1242 27.1801 19.3121 27.7297 19.6117 28.1245C19.9112 28.5193 20.3182 28.7553 20.7604 28.7553C21.2027 28.7553 21.6097 28.5193 21.9092 28.1245C22.2087 27.7297 22.3967 27.1801 22.3967 26.5693C22.3967 25.9585 22.2087 25.4089 21.9092 25.0141C21.6097 24.6194 21.2027 24.3833 20.7604 24.3833C20.3182 24.3833 19.9112 24.6194 19.6117 25.0141ZM19.4647 24.9026C19.7908 24.4728 20.248 24.1989 20.7604 24.1989C21.2728 24.1989 21.7301 24.4728 22.0561 24.9026C22.3822 25.3323 22.5812 25.9219 22.5812 26.5693C22.5812 27.2167 22.3822 27.8063 22.0561 28.236C21.7301 28.6658 21.2728 28.9398 20.7604 28.9398C20.248 28.9398 19.7908 28.6658 19.4647 28.236C19.1387 27.8063 18.9397 27.2167 18.9397 26.5693C18.9397 25.9219 19.1387 25.3323 19.4647 24.9026Z" fill="#000061"/>
<path fill-rule="evenodd" clip-rule="evenodd" d="M24.6287 25.0567H21.9871V24.8722H24.6287V25.0567Z" fill="#000061"/>
<path fill-rule="evenodd" clip-rule="evenodd" d="M27.1552 25.4778L32.0326 23.301L32.1078 23.4695L27.2303 25.6462L27.1552 25.4778Z" fill="#000061"/>
</g>
<rect x="54" y="32" width="62" height="9" rx="4.5" fill="#D5D5E2"/>
<rect x="54" y="15" width="133" height="9" rx="4.5" fill="#D5D5E2"/>
<defs>
<clipPath id="clip0_408:13788">
<path d="M12 28C12 19.1634 19.1634 12 28 12V12C36.8366 12 44 19.1634 44 28V28C44 36.8366 36.8366 44 28 44V44C19.1634 44 12 36.8366 12 28V28Z" fill="white"/>
</clipPath>
</defs>
</svg>
