<svg width="136" height="93" viewBox="0 0 136 93" fill="none" xmlns="http://www.w3.org/2000/svg">
<rect x="4" y="4" width="128" height="85" rx="4" fill="white" stroke="white" stroke-width="8"/>
<circle opacity="0.1" cx="18.5" cy="18.5" r="10.5" fill="#FF3815"/>
<circle opacity="0.1" cx="18.5" cy="46.5" r="10.5" fill="#FF3815"/>
<circle opacity="0.1" cx="18.5" cy="74.5" r="10.5" fill="#FF3815"/>
<path d="M15.4926 15.264C15.0866 15.32 14.8906 15.558 14.8906 15.978V16.818C14.8906 17.14 15.1006 17.364 15.4926 17.35C16.0666 17.322 16.6546 17.112 17.2706 16.72V23.384C17.2706 23.734 17.5086 24 17.8866 24H19.0906C19.4966 24 19.7066 23.79 19.7066 23.384V14.48C19.7066 14.13 19.4406 13.864 19.0906 13.864H18.5166C18.0966 13.864 17.7186 14.004 17.3826 14.284C16.8506 14.83 16.2206 15.152 15.4926 15.264Z" fill="#FF5151"/>
<path d="M18.1627 49.872C18.1627 49.326 19.6607 48.528 20.8367 47.604C21.6347 46.946 22.2927 45.98 22.2927 44.93C22.2927 43.992 21.9707 43.222 21.3407 42.634C20.7107 42.046 19.8007 41.752 18.6247 41.752C17.4347 41.752 16.5387 42.046 15.9367 42.634C15.3347 43.208 15.0127 43.922 14.9987 44.748C14.9987 45.07 15.1807 45.266 15.5307 45.336L16.5387 45.518C17.0287 45.616 17.2387 45.588 17.2527 45.266C17.2667 44.58 17.7707 43.922 18.4987 43.922C19.2687 43.922 19.7167 44.426 19.7167 45.112C19.7167 45.798 18.9887 46.554 18.0787 47.226C16.7907 48.15 15.0687 49.354 15.0967 50.726V51.384C15.0967 51.79 15.2927 52 15.6987 52H21.4387C21.8447 52 22.0547 51.79 22.0547 51.384V50.516C22.0547 50.166 21.8307 49.9 21.4387 49.9H18.1627V49.872Z" fill="#FF5151"/>
<path d="M17.0828 76.864C17.0688 76.64 16.9428 76.598 16.5368 76.668L15.3468 76.878C14.8848 76.948 14.8288 77.06 14.8428 77.564C14.8568 78.25 15.1788 78.838 15.8088 79.356C16.4388 79.86 17.3348 80.112 18.4688 80.112C21.0028 80.112 22.4728 78.95 22.4728 77.214C22.4728 75.912 21.7168 75.114 20.3868 74.89C21.4368 74.652 22.1508 73.896 22.1508 72.51C22.1508 70.872 20.8208 69.752 18.4688 69.752C15.8088 69.738 14.8708 71.264 14.8288 72.3C14.8288 72.706 14.9968 72.944 15.3328 72.986L16.4388 73.168C16.9288 73.266 17.0688 73.21 17.0688 72.972C17.1108 72.454 17.6148 71.936 18.3428 71.922C19.0848 71.908 19.5748 72.342 19.5748 73C19.5748 73.7 18.9868 74.036 17.8248 74.022H17.6848C17.5868 74.022 17.5448 74.064 17.5448 74.134V75.548C17.5448 75.632 17.5868 75.674 17.6848 75.674H17.8248C19.2108 75.66 19.8968 76.024 19.8968 76.794C19.8968 77.48 19.3648 77.942 18.5388 77.942C17.7128 77.942 17.0968 77.438 17.0828 76.864Z" fill="#FF5151"/>
<rect x="35" y="14" width="85" height="9" rx="4.5" fill="#D5D5E2"/>
<rect x="35" y="42" width="85" height="9" rx="4.5" fill="#D5D5E2"/>
<rect x="35" y="70" width="85" height="9" rx="4.5" fill="#D5D5E2"/>
</svg>
