<svg width="73" height="386" viewBox="0 0 73 386" fill="none" xmlns="http://www.w3.org/2000/svg">
<path d="M36.6044 1.4892C38.7282 1.4892 40.9317 2.62622 43.1961 5.08261C45.4591 7.53751 47.6893 11.2144 49.8424 16.0423C54.1457 25.6914 58.0454 39.7162 61.3292 57.1244C67.8937 91.9243 71.9603 140.042 71.9603 193.221C71.9603 246.4 67.8937 294.518 61.3292 329.318C58.0454 346.726 54.1457 360.751 49.8424 370.4C47.6893 375.228 45.4591 378.904 43.1961 381.359C40.9317 383.816 38.7282 384.953 36.6044 384.953C34.4806 384.953 32.277 383.816 30.0126 381.359C27.7496 378.904 25.5195 375.228 23.3663 370.4C19.063 360.751 15.1633 346.726 11.8795 329.318C5.31508 294.518 1.24848 246.4 1.24848 193.221C1.24848 140.042 5.31508 91.9243 11.8795 57.1244C15.1633 39.7162 19.063 25.6914 23.3663 16.0423C25.5195 11.2144 27.7496 7.53751 30.0127 5.08261C32.277 2.62622 34.4806 1.4892 36.6044 1.4892Z" stroke="#DEDEE8" stroke-width="2"/>
</svg>
