<svg width="101" height="532" viewBox="0 0 101 532" fill="none" xmlns="http://www.w3.org/2000/svg">
<path d="M50.6043 530.805C47.5317 530.805 44.4019 529.158 41.243 525.731C38.0853 522.306 34.9922 517.198 32.017 510.527C26.0696 497.191 20.6893 477.832 16.1621 453.832C7.11072 405.848 1.50594 339.517 1.50595 266.221C1.50595 192.925 7.11073 126.594 16.1621 78.6102C20.6893 54.6103 26.0696 35.2509 32.017 21.9154C34.9922 15.2442 38.0854 10.136 41.243 6.71068C44.402 3.28383 47.5318 1.63717 50.6043 1.63717C53.6768 1.63717 56.8066 3.28383 59.9656 6.71068C63.1232 10.136 66.2163 15.2442 69.1915 21.9154C75.1389 35.2509 80.5192 54.6103 85.0465 78.6103C94.0978 126.594 99.7026 192.925 99.7026 266.221C99.7026 339.517 94.0978 405.848 85.0464 453.832C80.5192 477.832 75.1389 497.191 69.1915 510.527C66.2163 517.198 63.1232 522.306 59.9655 525.731C56.8066 529.158 53.6768 530.805 50.6043 530.805Z" stroke="#DEDEE8" stroke-width="2"/>
</svg>
