<svg width="209" height="380" viewBox="0 0 209 380" fill="none" xmlns="http://www.w3.org/2000/svg">
<path d="M128.719 29.1279L128.259 29.658L131.155 32.1696L131.615 31.6395L128.719 29.1279Z" fill="#CACAD5"/>
<path d="M151.49 70.7028C151.49 70.7028 143.268 42.0535 133.664 21.4237C133.664 21.4237 115.089 58.9784 144.569 75.5007L151.49 70.7028Z" fill="#E3A473" stroke="#672938" stroke-width="3.42" stroke-linecap="round" stroke-linejoin="round"/>
<path d="M132.535 29.7538C132.535 29.7538 127.399 48.094 131.717 58.2881C134.125 64.2178 138.288 69.2716 143.648 72.7738L145.156 68.8043C145.156 68.8043 144.109 63.9834 137.855 52.121C134.133 45.2666 132.298 37.5485 132.535 29.7538V29.7538Z" fill="#CE8655"/>
<path d="M133.71 24.5762C133.71 24.5762 132.731 37.2325 135.149 44.5272C137.568 51.8218 146.849 68.2865 145.203 71.9223" stroke="#672938" stroke-width="1.71" stroke-linecap="round" stroke-linejoin="round"/>
<path d="M165.298 97.9138L169.04 150.656C169.155 159.182 138.673 156.409 140.4 147.975L153.955 94.6807L165.298 97.9138Z" fill="#E3A473" stroke="#672938" stroke-width="3.42" stroke-linecap="round" stroke-linejoin="round"/>
<path d="M152.089 110.294L142.231 148.919C142.231 148.919 142.565 150.207 144.938 151.22L154.001 110.674L152.089 110.294Z" fill="#F7C79A"/>
<path d="M163.708 104.023L167.163 151.001C168.914 151.531 161.728 155.304 150.638 153.245L160.392 106.831L163.708 104.023Z" fill="#CE8655"/>
<path d="M139.042 58.4146C139.637 58.9702 140.114 59.6392 140.447 60.3821C140.447 60.5202 140.596 60.7503 140.516 60.8539C139.663 59.6342 139.525 57.8163 139.283 56.1365C138.647 47.6567 140.868 39.2079 145.594 32.1355C150.385 25.1401 156.73 18.5818 157.835 9.74537C158.196 7.41909 157.714 5.04043 156.476 3.03753C156.347 2.81222 156.14 2.6422 155.893 2.55982C155.647 2.47743 155.379 2.48843 155.14 2.59072C154.901 2.693 154.708 2.87944 154.598 3.11456C154.488 3.34969 154.468 3.6171 154.542 3.86594C155.993 9.14707 150.707 15.3717 145.813 19.3987C134.021 27.9359 124.704 40.4081 122.678 55.3771C122.113 59.6918 121.895 64.6738 123.829 68.9079C124.368 70.2134 125.192 71.3821 126.242 72.3282C127.291 73.2743 128.539 73.974 129.894 74.3759C131.249 74.7779 132.676 74.872 134.072 74.6513C135.468 74.4306 136.797 73.9007 137.962 73.1004C139.126 72.3002 140.097 71.2497 140.803 70.0262C141.509 68.8026 141.931 67.4368 142.041 66.0288C142.15 64.6209 141.942 63.2063 141.433 61.8889C140.924 60.5714 140.127 59.3844 139.099 58.4146H139.042Z" fill="#672938"/>
<path d="M139.249 50.7518C139.249 50.7518 140.228 50.6137 134.758 47.3921C128.746 43.8369 143.636 29.2246 149.291 23.4832C152.285 20.4342 157.421 13.0475 157.352 7.07603C157.352 3.90044 156.2 2.88794 156.2 2.88794C156.2 2.88794 158.354 4.88993 157.72 10.4472C157.087 16.0045 151.72 24.8179 146.918 30.214C142.116 35.6102 139.065 47.0124 139.249 50.7518Z" fill="#491A27"/>
<path d="M164.791 99.8928C175.627 87.4436 176.998 69.5752 164.538 58.7483C152.077 47.9214 131.948 49.0605 126.063 64.5012C121.584 76.2485 118.002 88.1915 109.515 99.237C103.562 107.015 101.961 116.277 108.985 122.387C117.046 129.348 120.893 120.856 131.28 116.772C144.742 111.468 155.693 110.34 164.791 99.8928Z" fill="#E3A473" stroke="#672938" stroke-width="3.42" stroke-linecap="round" stroke-linejoin="round"/>
<path d="M149.602 54.5487C144.511 55.5832 139.783 57.9418 135.897 61.3863C132.011 64.8308 129.103 69.2392 127.468 74.166C125.157 80.4264 122.143 86.4052 118.486 91.9884C114.651 97.7413 110.701 106.946 107.074 112.883L107.35 116.519C107.35 116.519 102.352 110.973 113.615 96.9589C117.806 91.7468 120.167 83.8423 123.023 78.078C125.879 72.3136 125.326 63.5577 138.811 57.1375C138.788 57.1375 144.742 53.6973 149.602 54.5487Z" fill="#F7C79A"/>
<path d="M169.927 69.7593C169.927 69.7593 163.536 63.8799 163.017 65.4677C161.279 70.8754 162.614 90.5502 154.185 98.1669C148.427 103.356 140.043 107.372 133.456 110.052C126.201 112.963 114.536 114.033 108.962 119.51C109.464 120.136 110.01 120.724 110.598 121.27C111.775 122.266 113.23 122.876 114.766 123.019C116.435 122.886 118.032 122.283 119.373 121.282C120.697 120.385 122.827 118.981 126.282 116.864C128.713 115.36 131.357 114.231 134.124 113.516C140.527 111.882 150.742 108.315 154.979 105.462C160.288 101.837 166.173 98.9148 170.652 84.6707C170.629 84.6477 172.668 76.168 169.927 69.7593Z" fill="#CE8655"/>
<path d="M123.426 108.281C123.426 108.281 123.046 116.691 121.814 119.234C121.065 120.799 118.451 122.053 116.54 122.801C114.958 123.433 113.193 123.433 111.611 122.801C110.478 122.41 109.476 121.71 108.719 120.781C107.962 119.852 107.48 118.731 107.327 117.543C106.74 112.181 123.426 108.281 123.426 108.281Z" fill="#E5E3E8" stroke="#672938" stroke-width="0.86" stroke-linecap="round" stroke-linejoin="round"/>
<path d="M107.131 108.856C109.435 110.478 112.763 108.258 116.344 101.86C116.344 101.86 128.562 82.7147 131.614 76.4901C132.316 74.915 133.243 73.45 134.366 72.141C137.015 69.276 141.736 68.9654 145.145 70.5417C148.876 72.2676 150.995 76.3866 151.433 80.3331C151.974 85.2 149.786 89.7908 146.907 93.5877C145.549 95.2569 143.857 96.6246 141.939 97.6033C140.022 98.5819 137.921 99.1502 135.771 99.2715C132.835 99.5477 129.852 99.191 126.985 99.8468C125.828 100.014 124.778 100.615 124.048 101.527C123.323 102.677 123.795 104.357 123.749 105.634C123.761 108.049 123.15 110.427 121.975 112.538C120.878 114.112 119.49 115.463 117.887 116.519C116.456 117.576 114.839 118.357 113.12 118.82C111.968 119.096 110.022 119.625 108.628 119.015C105.807 117.784 105.692 114.62 105.842 111.698C105.83 111.191 106.014 108.073 107.131 108.856Z" fill="white" stroke="#672938" stroke-width="0.81" stroke-miterlimit="10"/>
<path d="M138.753 91.3549C141.069 91.204 142.76 88.2185 142.53 84.6866C142.299 81.1547 140.235 78.4138 137.918 78.5647C135.602 78.7156 133.911 81.7011 134.141 85.233C134.372 88.7649 136.436 91.5058 138.753 91.3549Z" fill="#672938"/>
<path d="M156.143 54.6177C156.241 55.2421 156.517 55.8251 156.937 56.2976C166.495 67.1015 172.391 80.8853 170.883 93.2885C169.397 105.45 167.67 121.293 162.142 133.501C161.509 134.905 168.269 130.233 181.489 107.038C190.701 90.8723 186.291 56.0329 165.701 48.1285C165.402 48.0136 165.087 47.9438 164.768 47.9214L159.171 47.4497C158.672 47.409 158.17 47.482 157.703 47.663C157.235 47.8441 156.815 48.1286 156.474 48.4951C156.133 48.8616 155.879 49.3006 155.732 49.7791C155.585 50.2576 155.548 50.7633 155.624 51.258L156.143 54.6177Z" fill="#D77EDA" stroke="#672938" stroke-width="1.86" stroke-linecap="round" stroke-linejoin="round"/>
<path d="M140.055 45.4361C140.055 45.6893 139.94 45.9424 139.894 46.1955C138.836 43.9534 137.089 42.1072 134.908 40.9256C132.727 39.744 130.226 39.2886 127.768 39.6257L128.251 38.8664C135.322 37.8884 138.903 43.1465 140.055 45.4361Z" fill="#F0CBFF"/>
<path d="M133.929 30.4327C140.101 30.4902 142.404 35.7598 142.899 37.1175C142.83 37.2556 142.761 37.3937 142.704 37.5317L142.416 37.7849C142.335 37.4857 140.32 31.031 133.318 31.2381L133.929 30.4327Z" fill="#F0CBFF"/>
<path d="M139.71 24.3807C139.905 24.2196 140.331 23.7709 140.516 23.6098C142.144 23.6333 143.727 24.1556 145.049 25.1062C146.371 26.0568 147.369 27.3899 147.909 28.9254L147.437 29.5468C146.917 27.9437 145.871 26.5622 144.47 25.625C143.068 24.6878 141.391 24.2495 139.71 24.3807V24.3807Z" fill="#F0CBFF"/>
<path d="M145.893 19.2951C146.078 19.1455 146.55 18.8234 146.734 18.6623C148.012 18.7084 149.246 19.1397 150.273 19.8995C151.301 20.6593 152.074 21.7121 152.492 22.9194L152.008 23.6328C151.611 22.3372 150.795 21.2094 149.689 20.4248C148.583 19.6403 147.249 19.2431 145.893 19.2951V19.2951Z" fill="#F0CBFF"/>
<path d="M151.41 13.7493C152.329 13.9444 153.191 14.3519 153.925 14.9394C154.658 15.5268 155.245 16.2777 155.636 17.132C155.555 17.3161 155.475 17.5002 155.382 17.6728C154.967 16.793 154.335 16.0328 153.545 15.4633C152.756 14.8939 151.835 14.5338 150.868 14.4167L151.41 13.7493Z" fill="#F0CBFF"/>
<path d="M154.277 8.58325C155.443 8.78565 156.511 9.36345 157.317 10.2286C157.466 10.3897 157.6 10.5629 157.72 10.7463L157.547 11.6668C157.377 11.3251 157.155 11.0109 156.891 10.7348C156.089 9.98158 155.061 9.51263 153.966 9.40015C154.024 9.25058 154.231 8.74433 154.277 8.58325Z" fill="#F0CBFF"/>
<path d="M154.692 4.45273C154.692 4.29165 154.622 4.14207 154.576 3.98099C155.005 3.86836 155.447 3.81797 155.889 3.83141C156.098 3.83159 156.307 3.85474 156.511 3.90044C156.701 3.92766 156.883 3.99856 157.041 4.10755C157.139 4.22236 157.22 4.35014 157.283 4.48724C157.283 4.56778 157.432 5.0165 157.467 5.05101C157.272 4.83113 157.042 4.64458 156.787 4.49874C156.112 4.25657 155.377 4.24042 154.692 4.45273V4.45273Z" fill="#F0CBFF"/>
<g style="mix-blend-mode:multiply" opacity="0.81">
<path d="M165.102 129.071C165.102 129.071 174.683 107.107 175.385 96.7403C175.809 91.0383 175.836 85.3139 175.466 79.6082C174.718 70.2426 168.937 64.9384 161.854 58.7483L160.703 57.7013C160.703 57.7013 169.604 74.8333 170.652 78.4116C171.7 81.9899 174.683 94.6692 165.102 129.071Z" fill="#CDB1DA"/>
</g>
<path d="M134.838 81.2305C136.059 77.5486 139.871 77.5717 143.026 78.6532C140.723 79.4586 138.512 78.8488 136.416 80.1375L136.485 80.0684C135.974 80.5033 135.423 80.8886 134.838 81.219V81.2305Z" fill="#672938"/>
<path d="M144.742 75.6042H144.673C143.998 75.0385 143.219 74.6118 142.378 74.3488C141.538 74.0858 140.654 73.9917 139.777 74.0719C138.9 74.1521 138.048 74.4051 137.269 74.8162C136.491 75.2273 135.802 75.7884 135.241 76.4671L134.343 77.8708" stroke="#672938" stroke-width="0.86" stroke-linecap="round" stroke-linejoin="round"/>
<path d="M125.038 67.6767C128.056 69.3681 131.833 67.6077 133.698 64.8693C133.631 65.477 133.496 66.0753 133.295 66.6527C132.981 67.5799 132.482 68.4339 131.828 69.1634C131.175 69.8929 130.38 70.4828 129.493 70.8977C128.605 71.3125 127.643 71.5438 126.664 71.5775C125.685 71.6112 124.709 71.4468 123.795 71.0939C122.252 70.4381 123.921 67.0439 125.038 67.6767Z" fill="#FBE854" stroke="#672938" stroke-width="0.81" stroke-linecap="round" stroke-linejoin="round"/>
<path d="M152.861 54.5372C153.102 49.2791 150.442 37.6008 138.708 33.9649C132.328 31.9975 126.823 36.1741 122.85 39.5107C118.117 43.4802 112.751 49.4056 111.968 55.7913C111.765 58.874 111.977 61.97 112.601 64.9959C112.96 68.0899 112.67 71.2248 111.749 74.2005C110.252 79.4241 109.032 89.158 108.801 89.4226C108.801 89.4226 114.766 83.8078 119.925 77.9169C124.75 72.3596 127.238 59.7263 136.808 58.5297C139.364 58.2075 151.778 58.242 152.653 59.8528C152.665 59.8298 152.722 57.4597 152.861 54.5372Z" fill="#D77EDA" stroke="#672938" stroke-width="1.86" stroke-linecap="round" stroke-linejoin="round"/>
<g style="mix-blend-mode:multiply" opacity="0.81">
<path d="M151.813 60.3246C151.813 60.3246 148.3 50.2226 141.276 50.2916C135.852 50.2916 128.447 50.119 124.002 60.8539C120.206 69.7594 115.579 78.2882 110.183 86.3276C110.183 86.3276 119.741 77.7558 121.952 73.1305C128.677 59.1856 132.662 53.03 151.813 60.3246Z" fill="#CDB1DA"/>
</g>
<path d="M145.352 38.9354C144.454 38.7974 138.88 36.6343 134.481 37.2786C127.1 38.4292 122.39 44.6307 118.474 50.4872C116.779 52.8156 115.744 55.5586 115.48 58.4261C115.365 61.153 116.217 63.8108 116.125 66.5377C115.893 69.4336 115.222 72.2775 114.133 74.9714C113.546 76.9713 112.64 78.8634 111.45 80.5747C111.789 79.7962 112.003 78.9691 112.083 78.124C112.325 77.169 112.555 76.2255 112.774 75.259C113.38 72.6162 113.7 69.9161 113.73 67.205C113.73 64.5012 112.843 61.9009 112.878 59.22C112.663 56.2629 113.307 53.3067 114.732 50.7058C116.313 47.8104 118.351 45.1881 120.766 42.9394C124.152 39.8213 127.411 36.1395 132.385 35.0005C134.032 34.5862 138.696 33.2516 145.352 38.9354Z" fill="#F0CBFF"/>
<path d="M159.632 48.3816C160.993 39.9907 165.123 32.2956 171.366 26.5207C177.642 20.8254 185.346 15.924 188.479 7.5823C189.374 5.40564 189.456 2.9798 188.709 0.747894C188.628 0.510941 188.464 0.310571 188.249 0.182438C188.033 0.0543056 187.78 0.00671464 187.532 0.048132C187.285 0.0895495 187.06 0.217297 186.898 0.408634C186.736 0.599972 186.648 0.842481 186.648 1.09305C186.821 6.58129 180.234 11.4482 174.545 14.1866C161.071 19.7439 149.118 29.7078 143.659 43.8023C142.105 47.8639 140.665 52.6733 141.575 57.218C141.851 58.5872 143.878 61.5097 156.119 63.6267C161.267 64.5012 159.482 50.073 159.632 48.3816Z" fill="#672938"/>
<path d="M159.943 58.6102C159.756 59.9597 159.05 61.1832 157.975 62.0211C156.9 62.8589 155.54 63.245 154.185 63.0975C151.974 62.8328 147.886 61.9469 147.068 60.9574C146.619 60.4396 147.356 55.6417 148.058 53.5477C152.814 39.5222 163.616 25.7383 176.548 18.3516C179.772 16.4808 182.526 13.9001 184.602 10.8058C186.677 7.71151 188.019 4.18509 188.525 0.494751C188.525 0.494751 191.588 5.17758 184.748 13.8414C177.907 22.5052 171.251 25.2206 166.553 31.8249C159.16 42.1801 159.309 50.6137 159.851 54.169C160.058 55.6113 160.058 57.0759 159.851 58.5182L159.943 58.6102Z" fill="#491A27"/>
<path d="M162.799 38.176C162.684 38.4062 162.568 38.6363 162.465 38.8779C162.154 37.0255 159.966 30.3176 152.388 29.5697L152.953 28.983C160.058 29.6503 162.211 35.6908 162.799 38.176Z" fill="#F0CBFF"/>
<path d="M159.839 47.8524C159.735 48.1515 159.689 49.4977 159.586 49.7969C158.918 47.5878 154.91 39.2921 145.559 39.5567L146.158 38.7398C149.115 38.5945 152.04 39.4015 154.503 41.042C156.966 42.6825 158.836 45.0698 159.839 47.8524Z" fill="#F0CBFF"/>
<path d="M160.334 22.1716C166.323 23.6443 167.336 29.3051 167.497 30.7548L167.209 31.1L166.99 31.3762C166.99 31.077 166.553 24.116 159.701 22.7008C159.862 22.5743 160.162 22.2981 160.334 22.1716Z" fill="#F0CBFF"/>
<path d="M167.578 17.5117L168.349 17.1436C169.919 17.5284 171.33 18.3883 172.392 19.6054C173.454 20.8226 174.113 22.3377 174.28 23.9435C174.13 24.0585 173.877 24.3461 173.727 24.4612C173.645 22.7772 172.991 21.1714 171.873 19.9083C170.755 18.6451 169.24 17.7999 167.578 17.5117V17.5117Z" fill="#F0CBFF"/>
<path d="M174.856 14.014L175.489 13.6688C176.718 13.9846 177.819 14.671 178.643 15.6345C179.467 16.598 179.974 17.7918 180.095 19.0535L179.669 19.4562C179.615 18.1344 179.108 16.8715 178.231 15.8802C177.354 14.8889 176.162 14.2299 174.856 14.014V14.014Z" fill="#F0CBFF"/>
<path d="M181.166 10.0905C182.02 10.4813 182.771 11.067 183.357 11.8005C183.943 12.5339 184.348 13.3945 184.541 14.3131L184.172 14.7734C184.026 13.8102 183.631 12.902 183.024 12.139C182.418 11.376 181.623 10.7848 180.717 10.4242L181.166 10.0905Z" fill="#F0CBFF"/>
<path d="M185.231 5.84491C186.296 6.24071 187.196 6.98222 187.788 7.95046C187.903 8.14836 187.999 8.35633 188.076 8.57176C187.984 8.80188 187.88 9.02049 187.776 9.2391C187.694 8.87059 187.554 8.51731 187.362 8.19209C186.806 7.29028 185.956 6.60757 184.955 6.25912L185.231 5.84491Z" fill="#F0CBFF"/>
<path d="M186.648 1.67985C186.648 1.53027 186.648 1.36919 186.648 1.20811C187.47 1.15469 188.285 1.39082 188.951 1.87544C189.02 1.87544 189.078 1.99049 189.147 2.04802C189.147 2.32416 189.216 2.6003 189.239 2.87644C189.074 2.64211 188.876 2.43285 188.652 2.25513C188.07 1.83782 187.362 1.63454 186.648 1.67985V1.67985Z" fill="#F0CBFF"/>
<path d="M154.887 66.0314L183.389 24.6108C183.389 24.6108 192.74 60.4627 160.91 71.9224" fill="#E3A473"/>
<path d="M154.887 66.0314L183.389 24.6108C183.389 24.6108 192.74 60.4627 160.91 71.9224" stroke="#672938" stroke-width="3.42" stroke-linecap="round" stroke-linejoin="round"/>
<path d="M181.915 30.2371C181.915 30.2371 182.203 46.5753 176.733 56.1941C170.618 66.9404 163.098 68.8504 163.098 68.8504L159.022 70.8179C159.022 70.8179 160.265 61.5557 168.407 50.8899C173.403 44.341 177.918 37.4387 181.915 30.2371V30.2371Z" fill="#CE8655"/>
<path d="M113.562 108.172C114.824 106.872 115.384 105.37 114.813 104.817C114.243 104.264 112.757 104.87 111.495 106.17C110.233 107.47 109.673 108.972 110.244 109.525C110.814 110.078 112.3 109.472 113.562 108.172Z" fill="#672938"/>
<path d="M162.211 258.707H148.98V376.675H162.211V258.707Z" fill="#BCBCBC" stroke="#672938" stroke-width="3" stroke-miterlimit="10"/>
<path d="M197.392 254.795C197.392 253.098 197.058 251.418 196.408 249.85C195.758 248.282 194.805 246.858 193.604 245.658C192.403 244.458 190.978 243.507 189.409 242.857C187.84 242.208 186.158 241.874 184.46 241.874H104.598C102.9 241.874 101.218 242.208 99.6489 242.857C98.0799 243.507 96.6543 244.458 95.4534 245.658C94.2526 246.858 93.3 248.282 92.6501 249.85C92.0002 251.418 91.6657 253.098 91.6657 254.795V377.124L104.241 376.698V259.765C104.241 259.587 104.276 259.411 104.345 259.247C104.413 259.083 104.513 258.934 104.64 258.809C104.766 258.684 104.916 258.585 105.081 258.518C105.245 258.451 105.422 258.417 105.6 258.419H184.333C184.511 258.417 184.688 258.451 184.852 258.518C185.017 258.585 185.167 258.684 185.293 258.809C185.42 258.934 185.52 259.083 185.588 259.247C185.657 259.411 185.692 259.587 185.692 259.765V376.675H198.267L197.392 254.795Z" fill="#DDDDDD" stroke="#672938" stroke-width="3" stroke-miterlimit="10"/>
<path d="M110.909 160.574C110.909 150.875 119.05 143.741 127.031 143.741C135.011 143.741 135.644 150.196 135.644 159.849C135.644 169.503 134.942 178.822 127.031 178.822C119.119 178.822 110.909 170.285 110.909 160.574Z" fill="#E5B656"/>
<path d="M183.538 206.678C181.94 204.145 180.162 201.731 178.218 199.452L177.677 198.808C177.357 198.33 176.93 197.933 176.431 197.648C175.931 197.362 175.372 197.196 174.798 197.162L135.264 193.711C133.433 193.607 132.673 195.448 131.441 196.679L122.735 206.609L83.3857 213.972C78.7366 214.844 74.4558 217.088 71.0955 220.415C67.7353 223.741 65.4499 227.998 64.5344 232.635L48.6771 313.175C48.521 314.29 48.5912 315.426 48.8834 316.514C49.1755 317.602 49.6837 318.62 50.3778 319.508C51.0719 320.396 51.9376 321.135 52.9234 321.682C53.9093 322.228 54.9952 322.571 56.1164 322.69L62.7955 323.392L61.9433 329.478L86.3569 332.93L87.3242 326.027L91.8269 326.498C92.9883 326.62 94.1622 326.499 95.2742 326.142C96.3861 325.786 97.4117 325.202 98.2857 324.429C99.1597 323.655 99.863 322.708 100.351 321.648C100.839 320.588 101.101 319.438 101.12 318.272L94.2106 241.402L162.891 242.449C168.557 242.322 174.314 243.082 178.829 241.402C186.89 238.41 189.297 230.69 189.435 223.246C189.504 217.366 186.728 211.798 183.538 206.678Z" fill="#7CAFDD" stroke="#672938" stroke-width="3" stroke-linecap="round" stroke-linejoin="round"/>
<path d="M173.071 199.935L176.445 200.085C180.89 204.948 184.337 210.636 186.59 216.826C189.976 226.617 184.978 234.936 182.617 237.145C180.257 239.354 176.088 240.758 170.595 240.781C165.102 240.804 103.654 240.125 103.654 240.125L110.195 236.558L169.294 237.432C169.294 237.432 180.372 237.985 184.264 229.574C185.258 227.262 185.554 224.711 185.116 222.233C183.377 211.499 173.071 199.935 173.071 199.935Z" fill="#88BDE5"/>
<path d="M156.258 201.719L159.92 207.886C161.245 210.099 163.147 211.91 165.423 213.126C167.699 214.342 170.263 214.917 172.84 214.789L176.641 214.617" stroke="#672938" stroke-width="3" stroke-linecap="round" stroke-linejoin="round"/>
<path d="M66.803 327.649L64.0853 327.43L64.3732 321.677L54.677 320.941C53.3431 320.352 52.213 319.383 51.4283 318.155C50.6437 316.927 50.2394 315.494 50.2664 314.038C50.4852 309.044 66.803 230.391 66.803 230.391C67.732 227.491 69.3285 224.849 71.4644 222.677C73.6003 220.505 76.2162 218.863 79.1019 217.884C79.1019 217.884 70.4305 224.419 68.8874 230.656C67.3443 236.892 53.5254 313.946 53.5254 313.946C53.3254 314.934 53.4398 315.96 53.8528 316.881C54.2658 317.801 54.9567 318.569 55.8286 319.077L67.448 319.376L66.803 327.649Z" fill="#629DC4"/>
<path d="M139.686 257.073L104.241 211.959L148.911 213.029L148.473 207.817L128.171 201.868L85.355 193.906L84.5834 193.757L83.4318 193.538L83.5008 193.607C80.808 193.359 78.0964 193.8 75.6211 194.888C73.1458 195.976 70.9882 197.675 69.3516 199.826C67.7149 201.977 66.6528 204.509 66.2654 207.183C65.878 209.857 66.1779 212.585 67.137 215.111L93.5542 284.859C94.0935 285.913 94.843 286.846 95.7567 287.6C96.6705 288.354 97.7289 288.913 98.8671 289.243C100.005 289.573 101.199 289.666 102.375 289.518C103.55 289.37 104.683 288.982 105.703 288.38L113.891 283.547L119.349 290.957L139.191 276.333L135.23 270.96L137.222 269.81C138.279 269.186 139.191 268.345 139.898 267.343C140.605 266.34 141.091 265.199 141.324 263.995C141.557 262.791 141.531 261.552 141.249 260.358C140.967 259.165 140.434 258.045 139.686 257.073V257.073Z" fill="#7CAFDD" stroke="#672938" stroke-width="3" stroke-linecap="round" stroke-linejoin="round"/>
<path d="M146.826 209.14L147.114 211.199L103.608 210.313C103.608 210.313 101.638 211.199 102.329 211.982C103.02 212.764 126.443 243.047 126.443 243.047L138.88 259.006C138.88 259.006 140.85 262.722 138.788 265.76L99.1969 211.809C99.1969 211.809 97.8266 208.484 101.155 208.185C104.483 207.886 146.826 209.14 146.826 209.14Z" fill="#88BDE5"/>
<path d="M124.025 211.383L163.708 204.48V205.861L125.58 214.306L124.025 211.383Z" fill="#DDDDDD" stroke="#672938" stroke-linecap="round" stroke-linejoin="round"/>
<path d="M125.154 199.061L163.708 204.48L125.752 211.729L125.154 199.061Z" fill="white" stroke="#672938" stroke-linecap="round" stroke-linejoin="round"/>
<path d="M206.421 167.57C203.825 158.303 200.486 149.261 196.436 140.531C192.982 133.075 182.813 132.316 179.785 132.247L171.286 131.407L140.539 129.52L125.96 129.451C118.682 129.163 116.137 133.616 114.559 136.355L93.3931 173.173L77.6855 180.64C73.5168 182.481 69.9354 185.53 69.9354 190.04V192.928C69.9354 197.669 73.7355 198.681 78.4685 198.681L98.3793 194.482C102.882 193.619 108.053 191.916 110.575 187.578L118.636 176.21L120.121 190.754C120.168 191.838 120.631 192.864 121.413 193.617C122.195 194.371 123.238 194.796 124.324 194.804L175.811 198.255C176.793 198.265 177.747 197.935 178.512 197.32C179.276 196.705 179.803 195.844 180.003 194.884L184.61 174.588L194.813 179.444C194.813 179.444 206.444 167.65 206.421 167.57Z" fill="#3B92E2" stroke="#672938" stroke-width="3" stroke-linecap="round" stroke-linejoin="round"/>
<g style="mix-blend-mode:multiply">
<path d="M141.552 131.361L124.117 132.96C122.934 132.997 121.781 133.341 120.771 133.959C119.762 134.576 118.93 135.445 118.359 136.481L96.6751 174.726C95.9846 175.989 94.8839 176.98 93.5543 177.534L76.8564 184.494C75.78 184.937 74.7958 185.577 73.9544 186.381C72.7905 187.394 71.9831 188.753 71.6513 190.259C71.6513 190.259 71.2367 185.91 76.2576 183.114C81.0827 180.456 94.5447 174.404 94.5447 174.404L116.862 134.997C118.22 133.542 119.852 132.369 121.664 131.545C124.509 130.406 141.552 131.361 141.552 131.361Z" fill="#96C5EF"/>
</g>
<path d="M181.731 164.452L180.268 158.503" stroke="#672938" stroke-width="3.65" stroke-linecap="round" stroke-linejoin="round"/>
<path d="M121.802 177.338C121.802 177.338 113.741 172.667 111.726 165.936C111.108 163.838 110.981 161.627 111.354 159.472C111.727 157.317 112.591 155.277 113.879 153.51L121.019 143.603" fill="#FF3815"/>
<path d="M121.802 177.338C121.802 177.338 113.741 172.667 111.726 165.936C111.108 163.838 110.981 161.627 111.354 159.472C111.727 157.317 112.591 155.277 113.879 153.51L121.019 143.603" stroke="#672938" stroke-width="3" stroke-linecap="round" stroke-linejoin="round"/>
<path d="M144.742 150.898L146.273 160.77L156.154 162.024C156.817 162.11 157.438 162.398 157.931 162.849C158.425 163.299 158.768 163.89 158.914 164.542C159.06 165.194 159.001 165.875 158.746 166.493C158.492 167.111 158.053 167.635 157.49 167.995L148.277 173.806L149.936 184.552C150.043 185.237 149.929 185.938 149.608 186.554C149.288 187.169 148.779 187.665 148.156 187.97C147.532 188.275 146.828 188.372 146.145 188.248C145.462 188.124 144.837 187.784 144.362 187.279L137.855 180.375L129.794 185.438C129.207 185.806 128.518 185.977 127.826 185.927C127.135 185.877 126.478 185.608 125.95 185.158C125.422 184.709 125.052 184.104 124.892 183.43C124.732 182.756 124.791 182.049 125.061 181.411L129.357 171.412L121.883 163.497C121.426 163.008 121.131 162.39 121.037 161.727C120.944 161.064 121.057 160.389 121.362 159.793C121.666 159.197 122.147 158.709 122.739 158.396C123.331 158.083 124.005 157.96 124.67 158.043L134.55 159.297L138.489 150.092C138.759 149.425 139.243 148.866 139.865 148.503C140.487 148.14 141.212 147.993 141.926 148.085C142.641 148.177 143.305 148.503 143.814 149.012C144.324 149.521 144.65 150.184 144.742 150.898V150.898Z" stroke="white" stroke-width="1.07" stroke-miterlimit="10"/>
<path d="M142.611 153.912L144.063 163.324L152.964 164.475C153.27 164.513 153.557 164.645 153.785 164.853C154.013 165.061 154.172 165.334 154.239 165.635C154.305 165.936 154.278 166.25 154.159 166.535C154.04 166.819 153.836 167.06 153.575 167.224L145.456 172.356L146.965 182.159C147.013 182.474 146.959 182.797 146.811 183.079C146.663 183.362 146.429 183.59 146.142 183.73C145.855 183.87 145.531 183.915 145.217 183.858C144.903 183.801 144.616 183.645 144.396 183.413L138.247 176.889L130.67 181.676C130.4 181.846 130.082 181.926 129.763 181.903C129.445 181.881 129.142 181.757 128.899 181.55C128.656 181.343 128.485 181.064 128.412 180.753C128.339 180.442 128.368 180.117 128.493 179.823L132.409 170.699L125.81 163.704C125.596 163.481 125.458 163.197 125.413 162.892C125.368 162.587 125.419 162.276 125.56 162.001C125.701 161.726 125.923 161.502 126.197 161.36C126.471 161.218 126.783 161.164 127.088 161.207L136.001 162.357L139.756 153.602C139.88 153.303 140.097 153.053 140.376 152.889C140.654 152.724 140.978 152.654 141.3 152.689C141.621 152.724 141.923 152.862 142.159 153.083C142.396 153.303 142.554 153.594 142.611 153.912V153.912Z" fill="white"/>
<path d="M187.35 161.794L143.752 190.029C142.849 190.61 142.072 191.366 141.466 192.252C140.86 193.138 140.437 194.137 140.222 195.188C140.008 196.24 140.006 197.323 140.216 198.376C140.427 199.428 140.846 200.428 141.448 201.316C142.478 202.864 144.011 204.009 145.789 204.556C147.567 205.104 149.479 205.02 151.202 204.319L199.338 184.564C206.087 181.342 209.403 172.678 205.856 166.097" fill="#3B92E2"/>
<path d="M187.35 161.794L143.752 190.029C142.849 190.61 142.072 191.366 141.466 192.252C140.86 193.138 140.437 194.137 140.222 195.188C140.008 196.24 140.006 197.323 140.216 198.376C140.427 199.428 140.846 200.428 141.448 201.316C142.478 202.864 144.011 204.009 145.789 204.556C147.567 205.104 149.479 205.02 151.202 204.319L199.338 184.564C206.087 181.342 209.403 172.678 205.856 166.097" stroke="#672938" stroke-width="3" stroke-linecap="round" stroke-linejoin="round"/>
<g style="mix-blend-mode:multiply">
<path d="M122.689 147.492L115.607 158.169C115.607 158.169 113.626 163.922 117 167.938C119.453 170.86 122.597 172.897 123.91 174.346C124.456 174.938 124.823 175.672 124.969 176.464L126.984 193.204L123.461 192.871C123.054 192.87 122.662 192.717 122.362 192.442C122.061 192.168 121.874 191.791 121.837 191.386L120.685 178.73C120.685 178.73 125.292 179.49 122.908 176.164C122.908 176.164 115.607 171.827 113.776 166.695C112.722 163.937 112.572 160.915 113.35 158.066C113.57 157.388 113.892 156.748 114.306 156.167L122.735 143.994C123.067 144.519 123.239 145.129 123.231 145.75C123.223 146.371 123.034 146.976 122.689 147.492V147.492Z" fill="#E2C727"/>
</g>
<path d="M86.1381 332.332L82.7294 349.579L60.6882 345.356L61.7592 328.661L86.1381 332.332Z" fill="#E3A473" stroke="#672938" stroke-width="3" stroke-linecap="round" stroke-linejoin="round"/>
<path d="M139.157 276.322L145.064 284.813L130.382 303.51L119.315 290.946L139.157 276.322Z" fill="#E3A473" stroke="#672938" stroke-width="3" stroke-linecap="round" stroke-linejoin="round"/>
<path d="M136.738 194.85L122.551 196.368V200.971C122.551 202.409 122.893 203.827 123.548 205.108C124.203 206.388 125.154 207.495 126.32 208.338C127.487 209.18 128.838 209.734 130.26 209.953C131.683 210.173 133.138 210.052 134.504 209.6L140.447 207.644C141.376 207.338 142.214 206.805 142.885 206.094C143.556 205.383 144.04 204.516 144.291 203.572C144.543 202.627 144.554 201.635 144.326 200.684C144.097 199.734 143.634 198.856 142.98 198.129L141.748 196.76C141.125 196.067 140.345 195.532 139.474 195.2C138.603 194.868 137.665 194.748 136.738 194.85V194.85Z" fill="#E3A473" stroke="#672938" stroke-width="3" stroke-linecap="round" stroke-linejoin="round"/>
<path d="M124.209 214.179L56.7843 198.336C55.893 198.124 55.0992 197.618 54.5309 196.9C53.9627 196.182 53.653 195.293 53.6521 194.378V138.61C53.6513 137.997 53.7895 137.391 54.0562 136.839C54.3229 136.287 54.7112 135.803 55.1921 135.422C55.6729 135.041 56.2337 134.774 56.8325 134.641C57.4314 134.507 58.0527 134.511 58.6499 134.652L126.063 150.461C126.957 150.67 127.753 151.175 128.324 151.894C128.894 152.612 129.206 153.501 129.207 154.418V210.187C129.211 210.802 129.075 211.41 128.81 211.965C128.545 212.521 128.157 213.009 127.676 213.393C127.195 213.777 126.634 214.047 126.033 214.184C125.433 214.32 124.809 214.318 124.209 214.179V214.179Z" fill="white" stroke="#672938" stroke-linecap="round" stroke-linejoin="round"/>
<path d="M86.7024 180.548C89.0365 180.548 90.9286 177.828 90.9286 174.473C90.9286 171.118 89.0365 168.398 86.7024 168.398C84.3682 168.398 82.4761 171.118 82.4761 174.473C82.4761 177.828 84.3682 180.548 86.7024 180.548Z" fill="#DDDDDD"/>
<path d="M89.1206 336.071L103.481 368.126C103.967 369.16 104.183 370.299 104.109 371.439C104.036 372.578 103.674 373.681 103.059 374.643C102.444 375.606 101.596 376.397 100.592 376.943C99.5884 377.49 98.4627 377.773 97.3198 377.768H40.0174C32.387 378.08 24.7721 376.847 17.6307 374.144L8.10708 370.542C6.40972 369.935 4.89291 368.91 3.69659 367.562C2.0268 365.595 1.39338 363.213 1.92311 359.186C2.34919 356.321 6.44882 352.824 9.98416 352.041L21.4079 349.027C24.9297 348.096 28.2725 346.587 31.2999 344.562L51.464 326.383C52.3504 325.533 53.4097 324.884 54.5699 324.48C55.73 324.077 56.9638 323.928 58.1868 324.043C59.4099 324.159 60.5935 324.537 61.6572 325.151C62.7208 325.766 63.6393 326.602 64.3501 327.603V327.603C65.9303 329.758 67.2305 332.105 68.2196 334.587L68.6457 335.657C70.0275 339.224 69.1177 340.823 71.6972 341.525L74.772 342.353C75.7823 342.625 76.8568 342.521 77.7967 342.062C78.7366 341.603 79.4785 340.82 79.8851 339.857L80.6335 338.062C81.0125 337.165 81.6033 336.373 82.3554 335.754C83.1074 335.135 83.9983 334.707 84.9519 334.506L86.0114 334.276C86.6643 334.142 87.3436 334.251 87.9222 334.581C88.5009 334.911 88.9392 335.441 89.1552 336.071H89.1206Z" fill="#FADCBE" stroke="#672938" stroke-width="3" stroke-linecap="round" stroke-linejoin="round"/>
<path d="M99.2661 358.887L103.25 368.195C103.714 369.282 103.902 370.466 103.796 371.642C103.69 372.819 103.295 373.951 102.645 374.937C101.995 375.924 101.111 376.734 100.071 377.296C99.0315 377.859 97.8687 378.155 96.6866 378.159L34.294 378.286C34.294 378.286 12.4141 375.34 4.88274 368.885L2.211 362.58C3.36258 363.225 4.59478 363.823 5.82697 364.375C17.6307 369.668 31.7721 369.944 44.3128 367.413C49.8864 366.262 55.0684 363.961 60.6075 362.741C69.0371 360.923 77.6164 363.501 86.115 362.741C90.7838 362.353 95.223 360.55 98.84 357.575L99.2661 358.887Z" fill="white" stroke="#672938" stroke-width="3" stroke-linecap="round" stroke-linejoin="round"/>
<path d="M94.7174 351.569C90.802 355.631 81.4512 355.217 76.4073 354.181C68.4844 352.547 60.6191 354.239 53.0417 356.574C46.6612 358.768 40.0437 360.201 33.3267 360.843C25.8875 361.545 17.4694 361.763 10.2951 359.324C9.07444 358.899 3.60437 356.586 3.60437 356.586" stroke="#672938" stroke-width="3" stroke-linecap="round" stroke-linejoin="round"/>
<path d="M79.0214 347.301C87.7158 350.338 85.3896 342.767 87.6121 339.879C89.8347 336.992 90.7559 340.156 90.7559 340.156L88.303 334.483L83.2937 335.162L80.5299 339.949C79.9886 342.503 76.3152 342.192 73.7011 342.192L79.0214 347.301Z" fill="#672938"/>
<path d="M86.2187 354.285L73.7011 342.837C73.0141 342.196 72.1676 341.751 71.25 341.549C70.3325 341.346 69.3774 341.394 68.4844 341.686C62.2659 343.768 48.1821 348.141 41.883 359.037" stroke="#672938" stroke-width="3" stroke-linecap="round" stroke-linejoin="round"/>
<path d="M41.3647 358.967L41.1344 353.617C41.1434 353.265 41.0664 352.915 40.9102 352.599C40.754 352.283 40.5232 352.009 40.2376 351.802C39.952 351.595 39.6201 351.46 39.2708 351.41C38.9215 351.359 38.5652 351.394 38.2324 351.512L31.749 353.813C29.3537 354.664 26.8893 353.629 24.7704 352.49C23.2503 351.673 17.9532 348.164 17.2622 351.558C17.0089 352.777 17.9762 354.25 17.2622 355.401C17.0734 355.656 16.8315 355.867 16.5532 356.02C16.2749 356.173 15.9668 356.264 15.65 356.287C14.8298 356.398 13.9951 356.335 13.2012 356.101C12.4072 355.867 11.672 355.467 11.0437 354.929L8.3029 352.708" stroke="#672938" stroke-width="3" stroke-linecap="round" stroke-linejoin="round"/>
<path d="M29.7338 354.112L30.9544 352.57C31.149 352.373 31.2887 352.128 31.3594 351.86C31.43 351.592 31.429 351.31 31.3568 351.043C31.2846 350.775 31.1436 350.531 30.9478 350.335C30.7519 350.138 30.508 349.997 30.2404 349.924L26.5784 347.876" stroke="#672938" stroke-width="3" stroke-linecap="round" stroke-linejoin="round"/>
<path d="M70.1887 341.352L61.2064 334.61C60.297 333.928 59.2059 333.53 58.0706 333.466C56.9352 333.403 55.8065 333.677 54.8267 334.253L45.6141 339.695L32.9467 346.599C32.5901 346.852 32.1634 346.988 31.726 346.988C31.2885 346.988 30.862 346.852 30.5054 346.599" stroke="#672938" stroke-width="3" stroke-linecap="round" stroke-linejoin="round"/>
<path d="M49.61 350.534L57.2911 343.699C57.5865 343.455 57.8161 343.141 57.9594 342.786C58.1027 342.431 58.1549 342.046 58.1115 341.665C58.068 341.285 57.9303 340.921 57.7106 340.607C57.4909 340.293 57.1963 340.039 56.8535 339.868C56.39 339.651 55.8672 339.594 55.3679 339.707L48.9766 342.917C48.3671 343.243 47.6736 343.379 46.9858 343.308C46.298 343.236 45.6477 342.959 45.1188 342.514C44.7556 342.226 44.5067 341.818 44.4164 341.364" stroke="#672938" stroke-width="3" stroke-linecap="round" stroke-linejoin="round"/>
<path d="M49.2414 337.693C49.3336 336.761 46.2704 331.285 42.4702 334.564" stroke="#672938" stroke-width="3" stroke-linecap="round" stroke-linejoin="round"/>
<path d="M41.0998 341.905C41.192 340.973 39.7064 337.164 35.9062 340.432" stroke="#672938" stroke-width="3" stroke-linecap="round" stroke-linejoin="round"/>
<path d="M124.428 322.115L121.399 306.939C121.143 305.661 121.314 304.335 121.886 303.164C122.458 301.994 123.4 301.044 124.566 300.461L148.197 288.644C149.374 288.052 150.717 287.869 152.01 288.126C153.303 288.382 154.474 289.063 155.336 290.06L166.069 302.405L124.428 322.115Z" fill="#FADCBE" stroke="#672938" stroke-width="3" stroke-linecap="round" stroke-linejoin="round"/>
<path d="M130.923 307.859L124.923 299.333C124.413 298.608 124.064 297.783 123.899 296.912C123.734 296.041 123.758 295.145 123.969 294.284C124.179 293.423 124.572 292.617 125.12 291.921C125.668 291.224 126.358 290.652 127.146 290.244L138.305 284.433C139.104 284.02 139.983 283.783 140.882 283.741C141.781 283.698 142.678 283.851 143.513 284.187C144.348 284.524 145.1 285.037 145.717 285.691C146.335 286.345 146.804 287.125 147.091 287.977L150.684 298.735C150.943 299.506 150.905 300.347 150.577 301.091C150.249 301.836 149.655 302.432 148.911 302.762L134.93 308.975C134.237 309.283 133.457 309.339 132.726 309.136C131.995 308.932 131.357 308.481 130.923 307.859V307.859Z" fill="#FADCBE" stroke="#672938" stroke-width="3" stroke-linecap="round" stroke-linejoin="round"/>
<path d="M125.395 333.874L125.015 332.47C123.792 327.916 123.991 323.097 125.587 318.659C127.182 314.221 130.096 310.377 133.94 307.64C136.475 305.859 139.122 304.241 141.863 302.797C143.628 301.967 145.443 301.248 147.298 300.645C151.988 299.079 157.057 299.063 161.756 300.598C166.456 302.134 170.536 305.139 173.393 309.171V309.171L125.395 333.874Z" fill="#FADCBE" stroke="#672938" stroke-width="3" stroke-linecap="round" stroke-linejoin="round"/>
<path d="M125.395 333.874C125.395 333.874 142.278 308.561 173.393 309.171L177.861 313.6C178.289 314.217 178.579 314.918 178.714 315.655C178.849 316.393 178.824 317.151 178.642 317.879C178.46 318.606 178.125 319.286 177.658 319.874C177.192 320.462 176.606 320.943 175.938 321.286L133.33 343.032C132.637 343.387 131.874 343.583 131.096 343.608C130.318 343.632 129.544 343.484 128.83 343.174C128.117 342.863 127.481 342.399 126.968 341.813C126.456 341.228 126.08 340.536 125.868 339.788L125.395 333.874Z" fill="white" stroke="#672938" stroke-width="3" stroke-linecap="round" stroke-linejoin="round"/>
<path d="M130.474 311.38L136.635 310.736C139.109 310.478 141.504 309.714 143.67 308.49C145.835 307.267 147.725 305.611 149.222 303.625L151.248 300.933" stroke="#672938" stroke-width="3" stroke-linecap="round" stroke-linejoin="round"/>
<path d="M126.42 319.388C126.42 319.388 143.901 322.759 162.257 301.726" stroke="#672938" stroke-width="3" stroke-linecap="round" stroke-linejoin="round"/>
<path d="M130.025 305.121C130.025 305.121 134.17 294.673 149.083 295.237" stroke="#672938" stroke-width="3" stroke-linecap="round" stroke-linejoin="round"/>
<path d="M127.526 304.591L123.668 313.083" stroke="#672938" stroke-width="3" stroke-linecap="round" stroke-linejoin="round"/>
<path d="M147.506 133.858L175.593 121.961C182.79 117.036 191.531 115.978 193.223 124.527L194.375 131.752C194.47 132.29 194.436 132.844 194.275 133.366C194.115 133.889 193.832 134.366 193.451 134.758C193.07 135.15 192.601 135.446 192.083 135.621C191.565 135.797 191.012 135.847 190.471 135.768L147.506 133.858Z" fill="#3B92E2" stroke="#672938" stroke-width="3" stroke-linecap="round" stroke-linejoin="round"/>
<path d="M149.279 293.753L158.48 295.076" stroke="#672938" stroke-width="3" stroke-linecap="round" stroke-linejoin="round"/>
<path d="M179.416 136.504C183.536 137.103 187.531 138.37 191.243 140.255C191.959 141.046 192.596 141.905 193.143 142.821C195.446 146.687 201.665 167.409 201.665 167.409C201.665 167.409 202.92 171.505 202.079 174.577C201.089 178.247 198.267 179.363 197.254 180.191C196.24 181.02 149.083 201.442 149.083 201.442L146.458 202.098C146.458 202.098 146.757 203.813 153.125 201.258C159.494 198.704 198.866 182.516 198.866 182.516C198.866 182.516 204.624 180.042 205.568 174.323C206.513 168.605 202.482 159.861 202.482 159.861L195.573 142.602C195.573 142.602 194.133 138.713 192.037 138C189.941 137.287 189.918 137.091 179.416 136.504Z" fill="#1871C4"/>
<path d="M184.805 243.588C184.805 243.588 193.822 244.739 194.697 253.863C195.573 262.987 195.434 374.167 195.434 374.167" stroke="white" stroke-linecap="round" stroke-linejoin="round"/>
<path d="M67.2406 214.651L74.1501 212.35C75.064 212.044 76.0534 212.047 76.9655 212.358C77.8776 212.67 78.6616 213.273 79.1963 214.074C79.731 214.876 79.9866 215.831 79.9237 216.792C79.8609 217.753 79.4831 218.666 78.8486 219.391L72.1348 227.123L67.2406 214.651Z" fill="#E3A473" stroke="#672938" stroke-width="3.42" stroke-linecap="round" stroke-linejoin="round"/>
<path d="M149.129 134.525L138.972 131.58C137.918 131.217 136.975 130.588 136.235 129.754C135.496 128.919 134.986 127.908 134.754 126.818C134.522 125.727 134.576 124.596 134.912 123.533C135.248 122.47 135.853 121.512 136.669 120.753L137.13 120.327C138.19 119.339 139.597 118.81 141.045 118.854V118.854C142.133 118.892 143.187 119.244 144.078 119.868C144.969 120.492 145.66 121.362 146.066 122.371C146.472 123.38 146.576 124.485 146.366 125.552C146.155 126.619 145.639 127.602 144.88 128.381L149.129 134.525Z" fill="#3B92E2" stroke="#672938" stroke-width="3" stroke-linecap="round" stroke-linejoin="round"/>
<path d="M163.778 131.419C163.778 131.419 155.647 136.216 152.262 148.355" stroke="#672938" stroke-width="3" stroke-linecap="round" stroke-linejoin="round"/>
<path d="M142.807 128.968C142.807 128.968 137.902 135.434 134.574 147.573" stroke="#672938" stroke-width="3" stroke-linecap="round" stroke-linejoin="round"/>
<path d="M151.824 152.555C153.338 152.555 154.565 151.329 154.565 149.816C154.565 148.304 153.338 147.078 151.824 147.078C150.31 147.078 149.083 148.304 149.083 149.816C149.083 151.329 150.31 152.555 151.824 152.555Z" fill="#672938"/>
<path d="M133.894 151.381C135.408 151.381 136.635 150.155 136.635 148.643C136.635 147.13 135.408 145.904 133.894 145.904C132.38 145.904 131.153 147.13 131.153 148.643C131.153 150.155 132.38 151.381 133.894 151.381Z" fill="#672938"/>
<path d="M113.857 283.547L135.852 270.258" stroke="#672938" stroke-width="3" stroke-linecap="round" stroke-linejoin="round"/>
<path d="M60.4809 323.047L91.8269 326.441" stroke="#672938" stroke-width="3" stroke-linecap="round" stroke-linejoin="round"/>
<path d="M62.8301 239.906L70.1311 245.509C70.5666 245.839 70.8934 246.292 71.0696 246.809C71.2457 247.326 71.2631 247.884 71.1195 248.411C70.9758 248.938 70.6778 249.41 70.2636 249.766C69.8495 250.123 69.3382 250.347 68.7954 250.411L60.7343 251.366L62.8301 239.906Z" fill="#E3A473" stroke="#672938" stroke-width="3.42" stroke-linecap="round" stroke-linejoin="round"/>
</svg>
