<svg width="296" height="273" viewBox="0 0 296 273" fill="none" xmlns="http://www.w3.org/2000/svg">
<g filter="url(#filter0_dddd_408:13814)">
<rect x="80" width="136" height="93" rx="8" fill="white"/>
<rect x="84" y="4" width="128" height="85" rx="4" stroke="white" stroke-width="8"/>
</g>
<circle opacity="0.1" cx="98.5" cy="18.5" r="10.5" fill="#FF3815"/>
<circle opacity="0.1" cx="98.5" cy="46.5" r="10.5" fill="#FF3815"/>
<circle opacity="0.1" cx="98.5" cy="74.5" r="10.5" fill="#FF3815"/>
<path d="M95.4926 15.264C95.0866 15.32 94.8906 15.558 94.8906 15.978V16.818C94.8906 17.14 95.1006 17.364 95.4926 17.35C96.0666 17.322 96.6546 17.112 97.2706 16.72V23.384C97.2706 23.734 97.5086 24 97.8866 24H99.0906C99.4966 24 99.7066 23.79 99.7066 23.384V14.48C99.7066 14.13 99.4406 13.864 99.0906 13.864H98.5166C98.0966 13.864 97.7186 14.004 97.3826 14.284C96.8506 14.83 96.2206 15.152 95.4926 15.264Z" fill="#FF5151"/>
<path d="M98.1627 49.872C98.1627 49.326 99.6607 48.528 100.837 47.604C101.635 46.946 102.293 45.98 102.293 44.93C102.293 43.992 101.971 43.222 101.341 42.634C100.711 42.046 99.8007 41.752 98.6247 41.752C97.4347 41.752 96.5387 42.046 95.9367 42.634C95.3347 43.208 95.0127 43.922 94.9987 44.748C94.9987 45.07 95.1807 45.266 95.5307 45.336L96.5387 45.518C97.0287 45.616 97.2387 45.588 97.2527 45.266C97.2667 44.58 97.7707 43.922 98.4987 43.922C99.2687 43.922 99.7167 44.426 99.7167 45.112C99.7167 45.798 98.9887 46.554 98.0787 47.226C96.7907 48.15 95.0687 49.354 95.0967 50.726V51.384C95.0967 51.79 95.2927 52 95.6987 52H101.439C101.845 52 102.055 51.79 102.055 51.384V50.516C102.055 50.166 101.831 49.9 101.439 49.9H98.1627V49.872Z" fill="#FF5151"/>
<path d="M97.0828 76.864C97.0688 76.64 96.9428 76.598 96.5368 76.668L95.3468 76.878C94.8848 76.948 94.8288 77.06 94.8428 77.564C94.8568 78.25 95.1788 78.838 95.8088 79.356C96.4388 79.86 97.3348 80.112 98.4688 80.112C101.003 80.112 102.473 78.95 102.473 77.214C102.473 75.912 101.717 75.114 100.387 74.89C101.437 74.652 102.151 73.896 102.151 72.51C102.151 70.872 100.821 69.752 98.4688 69.752C95.8088 69.738 94.8708 71.264 94.8288 72.3C94.8288 72.706 94.9968 72.944 95.3328 72.986L96.4388 73.168C96.9288 73.266 97.0688 73.21 97.0688 72.972C97.1108 72.454 97.6148 71.936 98.3428 71.922C99.0848 71.908 99.5748 72.342 99.5748 73C99.5748 73.7 98.9868 74.036 97.8248 74.022H97.6848C97.5868 74.022 97.5448 74.064 97.5448 74.134V75.548C97.5448 75.632 97.5868 75.674 97.6848 75.674H97.8248C99.2108 75.66 99.8968 76.024 99.8968 76.794C99.8968 77.48 99.3648 77.942 98.5388 77.942C97.7128 77.942 97.0968 77.438 97.0828 76.864Z" fill="#FF5151"/>
<rect x="115" y="14" width="85" height="9" rx="4.5" fill="#D5D5E2"/>
<rect x="115" y="42" width="85" height="9" rx="4.5" fill="#D5D5E2"/>
<rect x="115" y="70" width="85" height="9" rx="4.5" fill="#D5D5E2"/>
<defs>
<filter id="filter0_dddd_408:13814" x="0" y="0" width="296" height="273" filterUnits="userSpaceOnUse" color-interpolation-filters="sRGB">
<feFlood flood-opacity="0" result="BackgroundImageFix"/>
<feColorMatrix in="SourceAlpha" type="matrix" values="0 0 0 0 0 0 0 0 0 0 0 0 0 0 0 0 0 0 127 0" result="hardAlpha"/>
<feOffset dy="2.89469"/>
<feGaussianBlur stdDeviation="1.29596"/>
<feColorMatrix type="matrix" values="0 0 0 0 0.333333 0 0 0 0 0.109804 0 0 0 0 0.0313726 0 0 0 0.0638375 0"/>
<feBlend mode="normal" in2="BackgroundImageFix" result="effect1_dropShadow_408:13814"/>
<feColorMatrix in="SourceAlpha" type="matrix" values="0 0 0 0 0 0 0 0 0 0 0 0 0 0 0 0 0 0 127 0" result="hardAlpha"/>
<feOffset dy="13.6936"/>
<feGaussianBlur stdDeviation="6.77239"/>
<feColorMatrix type="matrix" values="0 0 0 0 0.333333 0 0 0 0 0.109804 0 0 0 0 0.0313726 0 0 0 0.101532 0"/>
<feBlend mode="normal" in2="effect1_dropShadow_408:13814" result="effect2_dropShadow_408:13814"/>
<feColorMatrix in="SourceAlpha" type="matrix" values="0 0 0 0 0 0 0 0 0 0 0 0 0 0 0 0 0 0 127 0" result="hardAlpha"/>
<feOffset dy="24.325"/>
<feGaussianBlur stdDeviation="11.8556"/>
<feColorMatrix type="matrix" values="0 0 0 0 0.333333 0 0 0 0 0.109804 0 0 0 0 0.0313726 0 0 0 0.118113 0"/>
<feBlend mode="normal" in2="effect2_dropShadow_408:13814" result="effect3_dropShadow_408:13814"/>
<feColorMatrix in="SourceAlpha" type="matrix" values="0 0 0 0 0 0 0 0 0 0 0 0 0 0 0 0 0 0 127 0" result="hardAlpha"/>
<feOffset dy="100"/>
<feGaussianBlur stdDeviation="40"/>
<feColorMatrix type="matrix" values="0 0 0 0 0.333333 0 0 0 0 0.109804 0 0 0 0 0.0313726 0 0 0 0.19 0"/>
<feBlend mode="normal" in2="effect3_dropShadow_408:13814" result="effect4_dropShadow_408:13814"/>
<feBlend mode="normal" in="SourceGraphic" in2="effect4_dropShadow_408:13814" result="shape"/>
</filter>
</defs>
</svg>
