<svg width="290" height="340" viewBox="0 0 290 340" fill="none" xmlns="http://www.w3.org/2000/svg">
<path fill-rule="evenodd" clip-rule="evenodd" d="M0.778652 55.7376C0.778652 55.7376 -14.5491 312.131 145 340C304.549 312.131 289.221 55.7376 289.221 55.7376L145 26.4753L0.778652 55.7376Z" fill="#3E0086"/>
<g filter="url(#filter0_i_511_13778)">
<path fill-rule="evenodd" clip-rule="evenodd" d="M0.778839 43.1967C0.778839 43.1967 -14.549 299.59 145 327.459C304.549 299.59 289.221 43.1967 289.221 43.1967C211.189 43.1966 145 0 145 0C145 0 83.6885 43.1966 0.778839 43.1967Z" fill="#6100D4"/>
</g>
<path d="M8.16689 50.7503C47.8087 49.5686 82.1523 39.0871 106.95 28.6635C120.131 23.1231 130.671 17.5758 137.945 13.3935C140.886 11.7024 143.297 10.2326 145.135 9.07418C147.101 10.2397 149.707 11.7405 152.891 13.4776C160.517 17.6372 171.484 23.1641 184.938 28.6879C210.13 39.0317 244.349 49.4929 281.833 50.7374C281.86 51.8368 281.885 53.0548 281.905 54.3847C282.011 61.3229 281.987 71.2965 281.467 83.3633C280.424 107.529 277.394 139.932 269.487 173.1C253.63 239.611 219.062 306.028 145 319.673C70.9384 306.028 36.3699 239.611 20.5136 173.1C12.6064 139.932 9.57638 107.529 8.53363 83.3633C8.01295 71.2965 7.98932 61.3229 8.09489 54.3847C8.11504 53.06 8.1399 51.8464 8.16689 50.7503Z" stroke="#4B00A3" stroke-width="15.3279"/>
<path d="M167.295 132.755C167.295 144.684 157.625 151.885 145.697 151.885C133.768 151.885 124.098 144.684 124.098 132.755C124.098 120.827 133.768 108.688 145.697 108.688C157.625 108.688 167.295 120.827 167.295 132.755Z" fill="#3E0086"/>
<path d="M182.623 182.282C182.623 164.197 163.782 157.459 145.697 157.459C127.612 157.459 107.377 162.804 107.377 180.889C107.377 198.974 119.918 220.164 145.697 220.164C171.475 220.164 182.623 200.367 182.623 182.282Z" fill="#3E0086"/>
<defs>
<filter id="filter0_i_511_13778" x="0.380676" y="0" width="289.239" height="327.459" filterUnits="userSpaceOnUse" color-interpolation-filters="sRGB">
<feFlood flood-opacity="0" result="BackgroundImageFix"/>
<feBlend mode="normal" in="SourceGraphic" in2="BackgroundImageFix" result="shape"/>
<feColorMatrix in="SourceAlpha" type="matrix" values="0 0 0 0 0 0 0 0 0 0 0 0 0 0 0 0 0 0 127 0" result="hardAlpha"/>
<feOffset dy="26.4754"/>
<feComposite in2="hardAlpha" operator="arithmetic" k2="-1" k3="1"/>
<feColorMatrix type="matrix" values="0 0 0 0 0.241684 0 0 0 0 0 0 0 0 0 0.52526 0 0 0 1 0"/>
<feBlend mode="normal" in2="shape" result="effect1_innerShadow_511_13778"/>
</filter>
</defs>
</svg>
