<svg width="188" height="248" viewBox="0 0 188 248" fill="none" xmlns="http://www.w3.org/2000/svg">
<ellipse cx="174.5" cy="92" rx="13.5" ry="5" fill="#F9CA56"/>
<rect x="161" y="88" width="27" height="4" fill="#F9CA56"/>
<ellipse cx="174.5" cy="88" rx="13.5" ry="5" fill="#FFE7A3"/>
<ellipse cx="174.5" cy="86" rx="8.5" ry="3" fill="#F9CA56"/>
<rect x="166" y="82" width="17" height="4" fill="#F9CA56"/>
<ellipse cx="174.5" cy="82" rx="8.5" ry="3" fill="#FFE7A3"/>
<ellipse cx="174.5" cy="81" rx="2.5" ry="1" fill="#F9CA56"/>
<rect x="172" y="11" width="5" height="70" fill="#F9CA56"/>
<circle cx="174.5" cy="6.5" r="6.5" fill="#FFE7A3"/>
<path d="M175.965 14.3747C176.172 13.2897 175.46 12.2424 174.375 12.0354C173.29 11.8285 172.242 12.5402 172.035 13.6253L175.965 14.3747ZM109.703 60.9019C108.82 60.2378 107.566 60.4149 106.902 61.2975C106.238 62.1801 106.415 63.434 107.297 64.0981L109.703 60.9019ZM172.035 13.6253C169.306 27.9351 163.113 47.2379 152.824 59.1555C147.712 65.0756 141.726 69.0203 134.778 69.8145C127.837 70.6079 119.538 68.3029 109.703 60.9019L107.297 64.0981C117.662 71.8971 126.963 74.7338 135.232 73.7886C143.493 72.8443 150.325 68.1702 155.851 61.7695C166.837 49.0454 173.194 28.8982 175.965 14.3747L172.035 13.6253Z" fill="#FF3815"/>
<ellipse cx="107" cy="159.037" rx="16" ry="5.92593" fill="#F9CA56"/>
<rect x="91" y="154.296" width="32" height="4.74074" fill="#F9CA56"/>
<ellipse cx="107" cy="154.296" rx="16" ry="5.92593" fill="#FFE7A3"/>
<ellipse cx="107" cy="151.926" rx="10.0741" ry="3.55556" fill="#F9CA56"/>
<rect x="96.9259" y="147.185" width="20.1482" height="4.74074" fill="#F9CA56"/>
<ellipse cx="107" cy="147.185" rx="10.0741" ry="3.55556" fill="#FFE7A3"/>
<ellipse cx="107" cy="146" rx="2.96296" ry="1.18519" fill="#F9CA56"/>
<rect x="104.037" y="63.037" width="5.92593" height="82.963" fill="#F9CA56"/>
<circle cx="107" cy="57.7037" r="7.7037" fill="#FFE7A3"/>
<path d="M109.453 67.4839C109.72 66.1293 108.838 64.8145 107.484 64.5473C106.129 64.28 104.815 65.1615 104.547 66.5161L109.453 67.4839ZM24.4708 114.612C23.3543 113.799 21.7907 114.046 20.9784 115.162C20.1661 116.279 20.4127 117.843 21.5292 118.655L24.4708 114.612ZM104.547 66.5161C101.8 80.4404 91.5569 99.9531 76.967 112.172C69.7071 118.253 61.5054 122.415 52.7423 123.316C44.0316 124.212 34.5059 121.913 24.4708 114.612L21.5292 118.655C32.4422 126.595 43.1777 129.326 53.2536 128.29C63.277 127.26 72.3873 122.53 80.1774 116.006C95.6876 103.015 106.496 82.4705 109.453 67.4839L104.547 66.5161Z" fill="#FF3815"/>
<ellipse cx="21" cy="240.111" rx="21" ry="7.77778" fill="#F9CA56"/>
<rect y="233.889" width="42" height="6.22222" fill="#F9CA56"/>
<ellipse cx="21" cy="233.889" rx="21" ry="7.77778" fill="#FFE7A3"/>
<ellipse cx="20.9999" cy="230.778" rx="13.2222" ry="4.66667" fill="#F9CA56"/>
<rect x="7.77771" y="224.555" width="26.4444" height="6.22222" fill="#F9CA56"/>
<ellipse cx="20.9999" cy="224.556" rx="13.2222" ry="4.66667" fill="#FFE7A3"/>
<ellipse cx="21.0001" cy="223" rx="3.88889" ry="1.55556" fill="#F9CA56"/>
<rect x="17.1112" y="114.111" width="7.77778" height="108.889" fill="#F9CA56"/>
<circle cx="20.9999" cy="107.111" r="10.1111" fill="#FFE7A3"/>
</svg>
