<svg width="56" height="48" fill="none" xmlns="http://www.w3.org/2000/svg"><g filter="url(#a)"><path d="M0 8a8 8 0 0 1 8-8h40a8 8 0 0 1 8 8v26a8 8 0 0 1-8 8H8a8 8 0 0 1-8-8V8Z" fill="#6100D4"/><path d="m30 16-5 5 5 5" stroke="#fff" stroke-width="2" stroke-linecap="round" stroke-linejoin="round"/><path d="M8 3h40v-6H8v6Zm45 5v26h6V8h-6Zm-5 31H8v6h40v-6ZM3 34V8h-6v26h6Zm5 5a5 5 0 0 1-5-5h-6c0 6.075 4.925 11 11 11v-6Zm45-5a5 5 0 0 1-5 5v6c6.075 0 11-4.925 11-11h-6ZM48 3a5 5 0 0 1 5 5h6c0-6.075-4.925-11-11-11v6ZM8-3C1.925-3-3 1.925-3 8h6a5 5 0 0 1 5-5v-6Z" fill="#fff"/></g><defs><filter id="a" x="0" y="0" width="56" height="48" filterUnits="userSpaceOnUse" color-interpolation-filters="sRGB"><feFlood flood-opacity="0" result="BackgroundImageFix"/><feColorMatrix in="SourceAlpha" values="0 0 0 0 0 0 0 0 0 0 0 0 0 0 0 0 0 0 127 0" result="hardAlpha"/><feOffset dy="6"/><feColorMatrix values="0 0 0 0 1 0 0 0 0 1 0 0 0 0 1 0 0 0 1 0"/><feBlend in2="BackgroundImageFix" result="effect1_dropShadow_199:1503"/><feBlend in="SourceGraphic" in2="effect1_dropShadow_199:1503" result="shape"/></filter></defs></svg>