<svg width="212" height="223" fill="none" xmlns="http://www.w3.org/2000/svg"><g clip-path="url(#a)"><path d="M192.026 178.996H19.934a15.5 15.5 0 0 1-15.2-12.452 15.484 15.484 0 0 1 .22-7.026l24.664-92.214a15.493 15.493 0 0 1 5.543-8.274 15.511 15.511 0 0 1 9.438-3.194H167.42a15.511 15.511 0 0 1 9.438 3.194 15.494 15.494 0 0 1 5.543 8.274l24.665 92.214c.612 2.3.686 4.709.217 7.041a15.504 15.504 0 0 1-2.925 6.409 15.507 15.507 0 0 1-12.333 6.028v0Z" fill="#562030" stroke="#672938" stroke-width="4.44" stroke-linecap="round" stroke-linejoin="round"/><path d="M29.296 77.727 25.39 9.115a5.59 5.59 0 0 1 2.896-5.49 5.6 5.6 0 0 1 6.185.56l51.585 41.208" fill="#FADCBE"/><path d="M29.296 77.727 25.39 9.115a5.59 5.59 0 0 1 2.896-5.49 5.6 5.6 0 0 1 6.185.56l51.585 41.208" stroke="#672938" stroke-width="3" stroke-linecap="round" stroke-linejoin="round"/><path d="m182.825 79.236 3.906-70.121a5.595 5.595 0 0 0-6.075-6.063 5.6 5.6 0 0 0-2.986 1.194l-51.585 41.207" fill="#FADCBE"/><path d="m182.825 79.236 3.906-70.121a5.595 5.595 0 0 0-6.075-6.063 5.6 5.6 0 0 0-2.986 1.194l-51.585 41.207" stroke="#672938" stroke-width="3" stroke-linecap="round" stroke-linejoin="round"/><path d="M138.87 218.553H70.552l4.188-68.27h59.922l4.208 68.27Z" fill="#FADCBE" stroke="#672938" stroke-width="4.44" stroke-linecap="round" stroke-linejoin="round"/><path d="m134.5 182 2 34.5h-6.906l-1.594-33 6.5-1.5Z" fill="#fff"/><path d="M133.635 40.544a48.94 48.94 0 0 1 34.68 14.13 48.844 48.844 0 0 1 14.509 34.503v2.796c2.276 46.62-17.738 93.984-77.78 93.984-61.935 0-78.93-49.437-76.634-97.465a48.837 48.837 0 0 1 14.644-33.616 48.905 48.905 0 0 1 33.921-13.97l56.66-.362Z" fill="#FADCBE" stroke="#672938" stroke-width="4.44" stroke-linecap="round" stroke-linejoin="round"/><path d="M146.078 114.609c0 8.048-3.282 8.229-7.349 8.229s-7.349-.241-7.349-8.229c0-7.988 3.322-14.467 7.349-14.467s7.349 6.479 7.349 14.467Z" fill="#672938"/><path d="M92.419 160.726a12.994 12.994 0 0 0 11.477-.865c3-1.892 3.523-3.26 3.523-3.26s3.403 6.036 16.108 4.547l-.946-1.891s-10.531.765-12.846-4.024c-2.316-4.789-2.738-3.682-2.738-3.682s-4.47 7.123-9.524 7.123c-5.054 0-4.712-.524-4.712-.524l-.342 2.576Z" fill="#E5B589"/><path d="M120.084 127.707v-.442a4.87 4.87 0 0 1 4.873-4.869h32.618a4.854 4.854 0 0 0 4.853-4.85v-1.509a4.854 4.854 0 0 0-4.853-4.849h-1.308" stroke="#672938" stroke-miterlimit="10" stroke-linecap="round"/><path d="M64.593 114.609c0 8.048 3.281 8.229 7.349 8.229 4.067 0 7.349-.241 7.349-8.229 0-7.988-3.302-14.467-7.35-14.467-4.046 0-7.349 6.479-7.349 14.467Z" fill="#672938"/><path d="M90.406 127.707v-.442a4.847 4.847 0 0 0-4.853-4.869H52.935a4.872 4.872 0 0 1-4.813-4.85v-1.509a4.868 4.868 0 0 1 4.873-4.849h1.168" stroke="#672938" stroke-miterlimit="10" stroke-linecap="round"/><path d="M85.513 153.362a12.077 12.077 0 0 0 10.349 5.332c6.423 0 11.618-4.367 11.618-9.739M107.5 149.056c0 5.372 5.195 9.738 11.598 9.738a12.085 12.085 0 0 0 10.269-5.191" stroke="#672938" stroke-linecap="round" stroke-linejoin="round"/><path d="M99.346 141.651c0-3.702 5.033-1.308 8.214-1.308 3.182 0 8.155-2.394 8.155 1.308s-5.013 6.66-8.195 6.66c-3.181 0-8.174-2.978-8.174-6.66ZM73.01 192h63.238l.752 14-65-.343L73.01 192Z" fill="#672938"/><path d="m85.05 141.993-18.907-5.935M127.917 141.993l18.906-5.935M129.004 145.293l18.987 3.159M83.801 144.71l-18.987 3.138" stroke="#fff" stroke-width=".5" stroke-linecap="round" stroke-linejoin="round"/><path d="m40.5 57-3.29-32.815 23.577 18.793L40.5 57ZM152 41.793 173.283 23l.583 34.165L152 41.793Z" fill="#672938"/><path d="M74.55 183.173 72 216.5l11.054-.08 2.208-30.692-10.712-2.555Z" fill="#CDB1DA" style="mix-blend-mode:multiply"/><path d="M75.022 42h63.103a45.23 45.23 0 0 1 31.992 13.25 45.181 45.181 0 0 1 13.231 31.982H29.8A45.164 45.164 0 0 1 43.03 55.25 45.227 45.227 0 0 1 75.023 42Z" fill="#672938"/><path d="M30.625 83c-.448-8.896 4.304-13.353 8.875-21 7.732-13.501 19.396-17.109 29-19 6.842-1.157 13.44-2.08 20.376-1.833a48.276 48.276 0 0 0-2.9 7.284s-6.866-2.012-26.054 4.447c-19.189 6.459-21.585 31.51-21.585 31.51L30.625 83Z" fill="#CDB1DA" style="mix-blend-mode:multiply"/><path d="M88.916 43.26a36.942 36.942 0 0 0-1.611 7.525h38.256a36.894 36.894 0 0 0-1.631-7.525H88.916ZM106.514 27.364a16.12 16.12 0 0 0-12.242 6.258h24.504a16.275 16.275 0 0 0-12.262-6.258ZM106.514 85.132a43.68 43.68 0 0 0 9.523-7.526H96.849a41.998 41.998 0 0 0 9.665 7.526ZM89.983 67.968h32.84a29.79 29.79 0 0 0 2.496-7.444H87.546a29.44 29.44 0 0 0 2.437 7.444Z" fill="#E5B656" stroke="#672938" stroke-miterlimit="10"/><path d="M118.695 33.622H94.191a28.644 28.644 0 0 0-5.275 9.638h35.034a28.249 28.249 0 0 0-5.255-9.638ZM87.063 55.07c-.006 1.803.156 3.601.483 5.373h37.773c.335-1.771.504-3.57.504-5.372a42.612 42.612 0 0 0-.242-4.286H87.325a42.65 42.65 0 0 0-.262 4.286ZM96.768 77.606h19.189a37.7 37.7 0 0 0 6.866-9.638h-32.84a36.358 36.358 0 0 0 6.785 9.638Z" fill="#67B1D1" stroke="#672938" stroke-miterlimit="10"/><path d="m101.56 74.97-4.027-42.253h17.679l-4.35 42.254a4.651 4.651 0 0 1-4.61 4.165 4.652 4.652 0 0 1-4.692-4.165Z" fill="#E5B656" stroke="#672938" stroke-miterlimit="10"/><path d="M106.413 49.316c7.539 0 13.651-4.91 13.651-10.966 0-6.056-6.112-10.966-13.651-10.966-7.54 0-13.651 4.91-13.651 10.966 0 6.057 6.111 10.966 13.651 10.966Z" fill="#E5B656" stroke="#672938" stroke-miterlimit="10"/><path d="M113.057 40.08a1.49 1.49 0 1 0 .001-2.978 1.49 1.49 0 0 0-.001 2.979ZM100.03 40.08a1.49 1.49 0 1 0 .001-2.978 1.49 1.49 0 0 0-.001 2.979Z" fill="#672938" stroke="#672938" stroke-miterlimit="10"/><path d="M20.437 72.898A11.525 11.525 0 0 1 12 69.718c-2.98-2.997-3.906-7.585-2.577-12.957a32.189 32.189 0 0 1 8.698-14.527 48.313 48.313 0 0 1 5.84-4.99l.342 4.547A46.127 46.127 0 0 0 21 45.071a28.165 28.165 0 0 0-7.652 12.656c-.966 4.024-.443 7.183 1.53 9.155 4.25 4.245 14.236 1.449 21.807-6.036a28.327 28.327 0 0 0 7.63-12.656c.987-4.025.444-7.184-1.51-9.135l.142-.141a3.101 3.101 0 0 1 5.134 1.167c.942 2.945.99 6.102.141 9.074a32.189 32.189 0 0 1-8.698 14.528c-6.06 5.955-13.168 9.215-19.088 9.215Z" fill="#E5B656"/><path d="M89.781 163.402a.726.726 0 0 1-.664-.523l-1.772-5.493a.726.726 0 0 1 .222-.805.782.782 0 0 1 .503-.201.831.831 0 0 1 .322 0l3.624 1.67a.675.675 0 0 1 .403.442.788.788 0 0 1 0 .604l-1.872 3.803a.787.787 0 0 1-.685.443l-.08.06Z" fill="#fff"/><path d="m88.07 157.104 3.624 1.67-1.852 3.803-1.772-5.473Zm0-1.549a1.67 1.67 0 0 0-1.027.382 1.592 1.592 0 0 0-.443 1.63l1.792 5.573a1.546 1.546 0 0 0 1.35 1.047h.12a1.519 1.519 0 0 0 1.37-.866l1.872-3.823a1.504 1.504 0 0 0 0-1.187 1.495 1.495 0 0 0-.806-.865l-3.624-1.69a1.765 1.765 0 0 0-.644-.141l.04-.06Z" fill="#672938"/><path d="M125.783 163.342a.791.791 0 0 1-.705-.443l-1.691-3.823a.742.742 0 0 1 .302-.966l3.523-2.012a.826.826 0 0 1 .383 0c.173.004.342.06.483.161a.764.764 0 0 1 .242.825l-1.813 5.815a.783.783 0 0 1-.684.543l-.04-.1Z" fill="#fff"/><path d="m127.595 156.762-1.812 5.815-1.712-3.803 3.524-2.012Zm0-1.529a1.594 1.594 0 0 0-.745.201l-3.524 2.012a1.506 1.506 0 0 0-.644 2.012l1.711 3.823a1.515 1.515 0 0 0 1.39.885 1.573 1.573 0 0 0 1.369-1.046l1.812-5.835a1.536 1.536 0 0 0-.753-1.843 1.525 1.525 0 0 0-.697-.169l.081-.04Z" fill="#672938"/><path d="M50.418 94.609s.684 5.15 7.37 5.653c6.684.504 14.98-2.313 18.926 5.393M160.354 94.609s-.684 5.15-7.369 5.653c-6.685.504-15-2.313-18.947 5.393" stroke="#672938" stroke-miterlimit="10" stroke-linecap="round"/><path d="M174.592 87a200.738 200.738 0 0 1-3.451 44.312C166.526 155.26 137.574 175.081 127 180c15.868-3.148 29.979-12.475 39.446-26.074 15.369-22.614 14.727-54.191 14.466-66.51l-6.32-.416ZM179.5 66 181 4.5h1c.717-.043 2.061.687 2.62 1.138.559.45.929 1.093 1.038 1.802.383 2.193-3.721 63.69-3.721 63.69L179.5 66Z" fill="#FFF9F3"/><path d="M28.5 5 33 63.5l-2.92 2.758L26.5 7.5l2-2.5ZM30.5 87s-1.977 23.687 3.46 42.541c5.436 18.853 11.094 27.344 18.644 34.366 7.551 7.022 15.424 11.912 29.136 15.493 0 0-18.806-5.01-32.518-32.052-13.712-27.043-5.654-60.308-5.654-60.308L30.5 87Z" fill="#E5B589"/><path d="M84.949 124.086H52.894a2.818 2.818 0 0 0-2.819 2.817v.02a2.818 2.818 0 0 0 2.82 2.817h32.054a2.818 2.818 0 0 0 2.819-2.817v-.02a2.818 2.818 0 0 0-2.819-2.817ZM157.092 124.086h-32.054a2.818 2.818 0 0 0-2.819 2.817v.02a2.818 2.818 0 0 0 2.819 2.817h32.054a2.818 2.818 0 0 0 2.819-2.817v-.02a2.818 2.818 0 0 0-2.819-2.817ZM110.702 29.014s6.584 4.025 7.188 8.713c.644 5.09-6.625 9.819-6.625 9.819s8.316-2.234 7.732-9.88c-.523-6.66-8.295-8.652-8.295-8.652Z" fill="#FFF9F3"/><path d="M100.473 29.558s-5.013 3.42-4.812 8.33a15.428 15.428 0 0 0 3.443 8.551 9.664 9.664 0 0 1-5.356-8.35c.06-5.735 6.725-8.531 6.725-8.531Z" fill="#CDB1DA" style="mix-blend-mode:multiply"/><path d="m112.393 49.276-2.698 26.037a3.743 3.743 0 0 1-2.134 2.515l3.604-28.17 1.228-.382Z" fill="#FFF9F3"/><path opacity=".48" d="M124 43s29 1 41 10.5c9.625 7.62 14.997 17.526 14.997 29.566v3.44h-5.539c.617-5.79-2.362-15.634-6.458-21.506-11.5-16.487-43-19.5-43-19.5l-1-2.5Z" fill="#fff"/><path d="m36 8 39.122 30.865h-4.027L36 8Z" fill="#fff"/><path d="M92.097 40.604s-4.43 14.085 1.289 26.439c5.718 12.354 13.43 16.64 13.43 16.64l-.222.644s-16.108-7.022-19.53-19.095c-2.014-7.284-2.014-19.236 1.811-24.145 3.826-4.91 3.222-.483 3.222-.483Z" fill="#CDB1DA" style="mix-blend-mode:multiply"/></g><defs><clipPath id="a"><path fill="#fff" d="M0 0h212v223H0z"/></clipPath></defs></svg>