<svg width="173" height="223" fill="none" xmlns="http://www.w3.org/2000/svg"><g clip-path="url(#a)"><path d="M66.912 63.177a86.01 86.01 0 0 1 16.68-45.94l6.49-8.763 10.363 45.09c.583 2.575.338 5.27-.7 7.696a12.5 12.5 0 0 1-5.078 5.816c-4.95 2.895-5.509 1.544-10.112 7.18-.097.116 5.046-4.575 4.95-4.478-8.051 9.226-27.813 4.324-22.593-6.601Z" fill="#FADCBE" stroke="#672938" stroke-width="4" stroke-linecap="round" stroke-linejoin="round"/><path d="m80.26 74.41-.578-4.593c-1.503-11.987.366-31.869 8.185-41.056l1.734 7.836 5.951 29.301-15.293 8.513Z" fill="#672938"/><path d="M119.147 220.105H53.795l4.007-65.493h57.32l4.025 65.493Z" fill="#FADCBE" stroke="#672938" stroke-width="4" stroke-linecap="round" stroke-linejoin="round"/><path d="m112.868 186.519 1.772 29.339h-6.606l-.944-29.339h5.778Z" fill="#fff"/><path d="M114.139 49.356c25.848-.154 35.363 20.75 35.498 46.654l-5.22 14.573c7.878 12.817 15.678 27.236 17.027 40.188.366 3.532-4.873 13.357-5.586 16.6-3.64 16.407-17.701 21.985-69.069 21.483-59.246-.56-75.502-47.426-73.306-93.5a46.913 46.913 0 0 1 14.029-32.27 46.713 46.713 0 0 1 32.485-13.38l54.142-.348Z" fill="#FADCBE" stroke="#672938" stroke-width="4" stroke-linecap="round" stroke-linejoin="round"/><path d="M117.433 120.408c0 7.721 3.139 7.895 7.03 7.895 3.891 0 7.03-.232 7.03-7.895 0-7.663-3.159-13.878-7.03-13.878-3.871 0-7.03 6.215-7.03 13.878Z" fill="#672938"/><path d="M142.125 132.974v-.425a4.639 4.639 0 0 0-.348-1.786 4.636 4.636 0 0 0-2.513-2.529 4.63 4.63 0 0 0-1.781-.356h-31.26a4.655 4.655 0 0 1-3.289-1.361 4.675 4.675 0 0 1-1.372-3.291v-1.448a4.674 4.674 0 0 1 1.372-3.29 4.655 4.655 0 0 1 3.289-1.361h1.252" stroke="#672938" stroke-width="3" stroke-miterlimit="10" stroke-linecap="round"/><path d="M138.562 155.616a11.544 11.544 0 0 0 9.9 5.115c6.125 0 11.094-4.189 11.094-9.343" stroke="#672938" stroke-width="2" stroke-linecap="round" stroke-linejoin="round"/><path d="M162.175 152.257c-4.661 0-11.999-4.401-11.999-9.825 0-3.957 3.948-3.146 7.878-2.432a5.082 5.082 0 0 1 2.98 1.747 5.102 5.102 0 0 1 1.18 3.252l-.039 7.258ZM55.98 196h61.285l.735 14-63-.363.98-13.637Z" fill="#672938"/><path d="m137.002 146.678-18.086-5.694M135.808 149.265l-18.163 3.03" stroke="#fff" stroke-width=".5" stroke-linecap="round" stroke-linejoin="round"/><path d="M136.578 129.326h-30.663a2.7 2.7 0 0 0-2.697 2.702v.019a2.7 2.7 0 0 0 2.697 2.703h30.663a2.7 2.7 0 0 0 2.696-2.703v-.019a2.7 2.7 0 0 0-2.696-2.702Z" fill="#FFF9F3"/><path d="M136.578 130.793h-30.663a2.7 2.7 0 0 0-2.697 2.702v.019a2.7 2.7 0 0 0 2.697 2.703h30.663a2.7 2.7 0 0 0 2.696-2.703v-.019a2.7 2.7 0 0 0-2.696-2.702Z" fill="#FFF9F3"/><path d="M59.439 47.947h62.404a46.54 46.54 0 0 1 32.925 13.655 46.742 46.742 0 0 1 13.667 32.98v.772H12.847v-.772a46.744 46.744 0 0 1 13.667-32.98 46.541 46.541 0 0 1 32.925-13.655Z" fill="#672938" stroke="#672938" stroke-width="4" stroke-miterlimit="10"/><path opacity=".48" d="M67.701 50.707s67.413-7.605 84.574 9.651c10.825 10.848 11.981 18.396 11.981 30.884v1.93l-10.324.753a62.2 62.2 0 0 0-1.734-21.232c-5.316-19.534-88.002-16.678-88.002-16.678l3.505-5.308Z" fill="#fff"/><path d="M145.977 53.081a73.793 73.793 0 0 0-.732 7.239h17.335a73.488 73.488 0 0 0-.732-7.239h-15.871Z" fill="#E5B656" stroke="#672938" stroke-width="4" stroke-miterlimit="10"/><path d="M157.456 37.64c-2.118 0-4.064 2.258-5.585 6.022h11.152c-1.522-3.745-3.448-6.023-5.567-6.023Z" fill="#E5B656" stroke="#2C3435" stroke-width=".45" stroke-miterlimit="10"/><path d="M153.951 93.327a32.102 32.102 0 0 0 4.276-7.258h-8.667a30.514 30.514 0 0 0 4.391 7.258ZM146.459 76.785h14.946c.541-2.391.921-4.816 1.136-7.258h-17.18c.21 2.44.577 4.865 1.098 7.258Z" fill="#E5B656" stroke="#672938" stroke-width="2" stroke-miterlimit="10"/><path d="M159.537 43.681h-2.658a10.984 10.984 0 0 0-7.124 2.593 11.023 11.023 0 0 0-3.758 6.595v.212h15.947a43.623 43.623 0 0 0-2.407-9.4ZM145.13 64.354c0 1.814 0 3.532.231 5.173h17.18a55.61 55.61 0 0 0 .231-5.173c0-1.409 0-2.78-.115-4.13h-17.335a41.463 41.463 0 0 0-.192 4.13ZM149.56 86.07h8.667a47.693 47.693 0 0 0 3.12-9.285h-14.946a46.88 46.88 0 0 0 3.159 9.284Z" fill="#67B1D1" stroke="#672938" stroke-width="2" stroke-miterlimit="10"/><path d="m155.242 83.521-1.927-40.728h8.032l2.1 16.678a43.149 43.149 0 0 1-3.294 23.047 15.45 15.45 0 0 1-2.831 5.037c-1.021 0-1.984-1.66-2.08-4.034Z" fill="#E5B656" stroke="#672938" stroke-width="2" stroke-miterlimit="10"/><path d="M172.018 48.101c0 5.791-11.152 10.694-14.581 10.694-3.428 0-6.202-4.73-6.202-10.559 0-5.829 2.774-10.596 6.202-10.596 3.429 0 14.581 4.632 14.581 10.461Z" fill="#E5B656" stroke="#672938" stroke-width="2" stroke-miterlimit="10"/><path d="M160.461 51.113c.692 0 1.252-1.184 1.252-2.645 0-1.46-.56-2.644-1.252-2.644-.691 0-1.252 1.184-1.252 2.644 0 1.46.561 2.645 1.252 2.645Z" fill="#672938" stroke="#672938" stroke-miterlimit="10"/><path d="M28.564 57.598a85.623 85.623 0 0 1 16.68-45.94l6.471-8.763L62.02 47.966c.573 2.588.311 5.29-.748 7.72a12.5 12.5 0 0 1-5.145 5.792c-4.95 2.895-5.49 1.525-10.112 7.18 0 0 5.065-4.594 4.97-4.478-7.898 9.246-27.582 4.343-22.42-6.582Z" fill="#FADCBE" stroke="#672938" stroke-width="4" stroke-linecap="round" stroke-linejoin="round"/><path d="m47.786 66.709-1.271-4.189c-1.503-11.967-4.623-29.243 3.197-38.43l.25-.985L57.147 60.3l-9.361 6.409Z" fill="#672938"/><path d="M79.913 92.748 90.41 197.405a7.482 7.482 0 0 1-1.894 5.749 7.448 7.448 0 0 1-5.522 2.455H32.687a29.74 29.74 0 0 1-22.252-9.983 29.866 29.866 0 0 1-6.164-10.859 29.904 29.904 0 0 1-1.188-12.436l9.457-82.575 67.374 2.992Z" fill="#672938" stroke="#672938" stroke-width="3" stroke-miterlimit="10"/><path d="M32.801 89.119a11.071 11.071 0 0 1-8.533-1.1c-3.466-2.143-5.335-6.216-5.277-11.582a31.066 31.066 0 0 1 4.854-15.441 103.31 103.31 0 0 1 6.394-8.648l.174 5.656c-1.137 1.582-2.254 3.339-3.275 5.018a27.064 27.064 0 0 0-4.295 13.512c0 3.86 1.175 6.794 3.429 8.184 4.911 3.03 13.578-1.814 18.952-10.558a27.2 27.2 0 0 0 4.295-13.512 11.273 11.273 0 0 0-1.637-6.466 3.865 3.865 0 0 1-.231-4.324.715.715 0 0 1 1.04-.232c3.043 2.22 4.68 6.12 4.642 11.1a30.93 30.93 0 0 1-4.892 15.518C44.223 83.154 38.31 87.826 32.8 89.12Z" fill="#E5B656"/><path d="m12.272 86-8.147 87.492s-3.252 26.821 23.447 30.169l25.054 1.004L79 205s-52.9-6.203-58.102-10.89c-10.768-9.708-8.3-7.877-8.626-24.3-.325-16.423 4.227-79.438 4.227-79.438L12.272 86Z" fill="#562030"/><path d="M148.443 169.05a.75.75 0 0 1-.713-.521l-2.061-6.891a.785.785 0 0 1 .135-.676.716.716 0 0 1 .578-.27l3.852.193a.79.79 0 0 1 .558.309.713.713 0 0 1 .116.618l-1.811 6.697a.695.695 0 0 1-.693.541h.039Z" fill="#fff"/><path d="m146.382 161.426 3.852.193-1.811 6.697-2.041-6.89Zm0-1.487a1.487 1.487 0 0 0-1.406 1.93l2.041 6.891a1.499 1.499 0 0 0 1.406 1.062 1.482 1.482 0 0 0 1.406-1.1l1.811-6.698a1.499 1.499 0 0 0-.2-1.298 1.492 1.492 0 0 0-1.148-.632l-3.852-.193-.058.038Z" fill="#672938"/></g><defs><clipPath id="a"><path fill="#fff" d="M0 0h173v223H0z"/></clipPath></defs></svg>