<svg width="128" height="248" fill="none" xmlns="http://www.w3.org/2000/svg"><g clip-path="url(#a)"><path d="m98.066 52.54-4.803 3.513.64.874 4.803-3.512-.64-.874Z" fill="#CACAD5"/><path d="M57.462 113.938s16.402-43.207 33.903-73.843c0 0 23.833 60.417-23.833 82.234l-10.07-8.391Z" fill="#E3A473" stroke="#672938" stroke-width="4" stroke-linecap="round" stroke-linejoin="round"/><path d="M92.006 53.094s5.539 28.988-2.441 44.245a48.683 48.683 0 0 1-20.278 20.84l-1.83-6.331s2.242-7.308 13.441-24.838a68.468 68.468 0 0 0 11.108-33.916Z" fill="#CE8655"/><path d="M90.892 44.947s-.122 19.742-4.806 30.65c-4.684 10.91-21.148 35.198-19.057 41.042" stroke="#672938" stroke-width="2" stroke-linecap="round" stroke-linejoin="round"/><path d="M32.637 154.216 20.034 235.23c-1.282 13.167 46.14 12.877 44.569-.443l-14.114-84.126-17.852 3.555Z" fill="#E3A473" stroke="#672938" stroke-width="4" stroke-linecap="round" stroke-linejoin="round"/><path d="m51.435 175.057 10.223 61.027s-.687 1.938-4.486 3.25l-8.758-63.835 3.02-.442Z" fill="#F7C79A"/><path d="m34.285 163.859-11.398 72.164c-2.762.58 7.843 7.339 25.237 5.6l-9.063-73.004-4.776-4.76Z" fill="#CE8655"/><path d="M78.274 96.484a9.43 9.43 0 0 0-2.41 2.853c-.092.214-.275.565-.184.733 1.526-1.785 1.938-4.577 2.533-7.14 2.289-12.801-.381-25.937-6.652-37.899-6.485-11.427-15.442-22.381-16.006-36.189A15.256 15.256 0 0 1 58.53 8.666a1.633 1.633 0 0 1 2.869 1.526c-2.915 7.994 4.424 18.308 11.474 25.143 17.12 14.723 29.89 35.197 31.065 58.586.321 6.744 0 14.479-3.433 20.78a14.68 14.68 0 0 1-27.687-6.851 14.672 14.672 0 0 1 5.456-11.366Z" fill="#672938"/><path d="M78.945 84.675s-1.525-.32 7.37-4.577C96.05 75.4 74.948 50.882 66.968 41.285c-4.242-5.096-11.2-17.18-10.33-26.394.473-4.913 2.243-6.332 2.243-6.332s-3.586 2.807-3.311 11.489c.275 8.68 7.4 22.976 14.129 31.947 6.729 8.971 10.1 26.944 9.246 32.68Z" fill="#491A27"/><path d="M33.156 157.328c-15.121-20.642-14.938-48.425 5.706-63.544 20.645-15.12 51.572-10.772 58.667 13.807 5.402 18.751 9.415 37.669 21.072 55.84 8.194 12.77 9.46 27.295-2.182 35.823-13.29 9.734-18.188-3.89-33.69-11.534-20.095-9.902-36.879-13.075-49.573-30.392Z" fill="#E3A473" stroke="#672938" stroke-width="4" stroke-linecap="round" stroke-linejoin="round"/><path d="M62.467 89.222a45.777 45.777 0 0 1 31.69 33.184 136.788 136.788 0 0 0 11.581 28.698c5.188 9.398 10.086 24.182 14.938 33.748l-.915 5.584s8.437-7.918-7.141-31.033c-5.813-8.589-8.407-21.161-12.1-30.315-3.692-9.154-1.678-22.748-21.697-34.42 0-.06-8.651-6.133-16.356-5.446Z" fill="#F7C79A"/><path d="M29.128 110.093s10.68-8.254 11.2-5.736c1.983 8.589-2.625 38.813 9.413 51.675 8.21 8.772 20.63 16.096 30.516 21.054 10.819 5.432 28.716 8.59 36.62 17.774-.858.9-1.776 1.741-2.747 2.518a11.764 11.764 0 0 1-6.667 2.151 13.733 13.733 0 0 1-6.882-3.28c-1.922-1.526-5.05-3.982-10.131-7.72a43.908 43.908 0 0 0-11.672-6.103c-9.659-3.341-24.978-10.176-31.142-15.257-7.751-6.286-16.448-11.565-21.53-34.16 0 0-2.044-13.365 3.022-22.916Z" fill="#CE8655"/><path d="M95.943 175.637s-.488 13.044 1.068 17.133c.946 2.518 4.822 4.791 7.629 6.194a10.144 10.144 0 0 0 7.629.595 9.964 9.964 0 0 0 7.293-7.628c1.603-8.117-23.62-16.294-23.62-16.294Z" fill="#E5E3E8" stroke="#672938" stroke-linecap="round" stroke-linejoin="round"/><path d="M120.997 178.627c-3.83 2.212-8.621-1.648-13.26-11.992 0 0-16.402-31.154-20.308-41.193a27.624 27.624 0 0 0-3.677-7.079c-3.723-4.776-10.971-5.859-16.449-3.86-5.996 2.181-9.78 8.269-10.97 14.31-1.526 7.461 1.327 14.83 5.28 21.07a23.937 23.937 0 0 0 16.463 10.222c4.486.794 9.154.641 13.488 2.029a7.145 7.145 0 0 1 4.318 2.975c.961 1.908 0 4.394-.077 6.393-.336 3.735.3 7.493 1.847 10.909a23.329 23.329 0 0 0 5.798 6.667 21.675 21.675 0 0 0 7.064 4.165c1.831.58 4.685 1.648 6.912.885 4.501-1.526 5.112-6.408 5.249-10.939.061-.794.183-5.615-1.678-4.562Z" fill="#fff" stroke="#672938" stroke-width=".95" stroke-miterlimit="10"/><path d="M78.091 147.215c3.593-.202 6.255-4.813 5.946-10.298-.309-5.485-3.471-9.768-7.064-9.566-3.592.202-6.254 4.813-5.946 10.298.309 5.485 3.472 9.768 7.064 9.566Z" fill="#672938"/><path d="M52.335 88.474a5.08 5.08 0 0 1-1.45 2.502c-16.142 15.471-27.037 36.007-26.32 55.352.718 18.995 1.343 43.711 8.3 63.286.81 2.258-9.032-5.859-26.472-43.33-12.206-26.18-.808-79.442 32.042-88.993a5.312 5.312 0 0 1 1.526-.213h8.712a5.127 5.127 0 0 1 4.974 6.346l-1.312 5.05Z" fill="#D77EDA" stroke="#672938" stroke-width="2.18" stroke-linecap="round" stroke-linejoin="round"/><path d="M78.38 76.36c0 .397.123.794.169 1.206a18.019 18.019 0 0 1 19.56-8.59l-.64-1.236c-10.788-2.425-17.013 5.233-19.088 8.62ZM89.794 53.979c-9.537-.717-13.733 7.125-14.709 9.154 0 .229.168.442.244.656l.397.427c.168-.442 4.135-10.161 14.907-8.925l-.84-1.312ZM81.646 43.879c-.275-.275-.87-1.023-1.144-1.297a12.207 12.207 0 0 0-12.1 7.262l.641 1.007a11.672 11.672 0 0 1 12.603-6.972ZM72.812 35.213c-.26-.275-.962-.824-1.221-1.099a9.843 9.843 0 0 0-9.414 5.828l.656 1.175a9.475 9.475 0 0 1 9.979-5.904ZM64.954 25.921a9.385 9.385 0 0 0-6.973 4.7c.106.29.213.58.335.87a8.788 8.788 0 0 1 7.385-4.456c-.167-.168-.595-.87-.747-1.114ZM61.185 17.576a8.392 8.392 0 0 0-4.898 2.166 5.14 5.14 0 0 0-.686.733c0 .381.106 1.068.152 1.449a5.811 5.811 0 0 1 1.13-1.358 7.797 7.797 0 0 1 4.699-1.678 18.634 18.634 0 0 1-.397-1.312ZM61.093 11.137c.068-.238.15-.472.245-.701a7.067 7.067 0 0 0-2.03-.412 4.874 4.874 0 0 0-.946 0c-.299.017-.59.1-.854.244a2.196 2.196 0 0 0-.428.564 9.18 9.18 0 0 1-.366.84 4.011 4.011 0 0 1 1.145-.748 4.99 4.99 0 0 1 3.234.213Z" fill="#F0CBFF"/><path d="M28.899 202.321S16.952 167.23 17.24 151.104c.077-8.871.77-17.726 2.076-26.501 2.38-14.388 11.977-21.818 23.726-30.514l1.983-1.526s-15.975 25.311-18.05 30.773c-2.075 5.462-8.346 24.64 1.923 78.985Z" fill="#CDB1DA" style="mix-blend-mode:multiply" opacity=".81"/><path d="M82.18 130.782c-.958-.42-1.872-.93-2.731-1.526l.107.091c-3.464-1.525-6.836-.228-10.437-1.052 4.684-2.258 10.437-3.052 13.061 2.441v.046Z" fill="#672938"/><path d="M66.174 125.915v-.107a10.327 10.327 0 0 1 10.28-5.237c1.354.165 2.663.597 3.85 1.27l2.09 1.526" stroke="#672938" stroke-linecap="round" stroke-linejoin="round"/><path d="M98.704 112.672c-4.882 2.227-10.482-.977-13-5.462.006.953.134 1.902.382 2.822a11.273 11.273 0 0 0 9.604 8.473c1.508.18 3.037.054 4.494-.371 2.503-.824.336-6.286-1.48-5.462Z" fill="#FBE854" stroke="#672938" stroke-width=".95" stroke-linecap="round" stroke-linejoin="round"/><path d="M57.431 88.78c.306-8.163 5.936-25.86 24.535-29.965 10.101-2.227 18.051 4.943 23.757 10.68 6.79 6.743 14.312 16.584 14.709 26.562.168 4.653-1.068 9.383-2.167 14.067a34.424 34.424 0 0 0 .123 14.402c1.632 8.254 2.258 23.389 2.578 23.908 0 0-8.499-9.459-15.685-19.285-6.729-9.154-8.941-28.988-23.559-32.13-3.906-.825-23.07-2.38-24.641 0-.03.03.183-3.708.35-8.24Z" fill="#D77EDA" stroke="#672938" stroke-width="2.18" stroke-linecap="round" stroke-linejoin="round"/><path d="M58.316 97.857s6.73-15.165 17.562-14.143c8.377.778 19.836 1.389 25.283 18.568a238.909 238.909 0 0 0 17.959 41.117s-13.656-14.479-16.433-21.939c-8.499-22.367-13.854-32.39-44.37-23.603Z" fill="#CDB1DA" style="mix-blend-mode:multiply" opacity=".81"/><path d="M71.057 65.635c1.388-.092 10.284-2.777 16.997-1.144 11.246 2.746 17.73 12.907 23.01 22.473a24.636 24.636 0 0 1 3.6 12.648c-.183 4.226-1.846 8.239-2.059 12.449a44.675 44.675 0 0 0 1.998 13.289 29.705 29.705 0 0 0 3.418 9.017 12.813 12.813 0 0 1-.671-3.875 210.22 210.22 0 0 1-.687-4.501 59.117 59.117 0 0 1-.442-12.633c.381-4.18 2.075-8.086 2.365-12.205.366-5.096.58-7.629-1.77-13.41a47.896 47.896 0 0 0-8.316-12.786c-4.821-5.248-9.383-11.366-16.921-13.731-2.487-.794-9.521-3.525-20.522 4.409Z" fill="#F0CBFF"/><path d="M47.758 78.39C47.01 65.406 41.349 53.2 32.5 43.07 23.543 33.474 12.283 24.9 8.53 11.595a15.256 15.256 0 0 1 .518-10.588 1.648 1.648 0 0 1 3.158.808c-.991 8.453 8.56 16.783 16.998 21.787 20.064 10.33 37.245 27.28 43.836 49.753 1.892 6.484 3.48 14.097 1.526 21.008-.61 2.076-4.196 6.332-23.284 8.026-8.102.762-3.524-21.36-3.524-24Z" fill="#672938"/><path d="M45.973 94.165a8.132 8.132 0 0 0 8.239 7.629c3.448-.138 9.872-.992 11.276-2.396.747-.747.244-8.254-.58-11.58-5.523-22.275-20.43-44.977-39.442-58.082A37.96 37.96 0 0 1 9.276.595s-5.34 6.85 4.12 21.115c9.46 14.266 19.363 19.346 25.771 30.148 10.07 16.996 8.743 29.98 7.447 35.396a23.659 23.659 0 0 0-.641 6.713v.198Z" fill="#491A27"/><path d="M44.203 62.202c.152.382.305.763.442 1.13.717-2.823 4.959-12.908 16.784-13.076l-.793-.992c-11.093.153-15.198 9.17-16.433 12.938ZM47.529 77.535c.122.489 0 2.579.137 3.052 1.312-3.372 8.575-15.578 22.979-14.052l-.809-1.327A21.484 21.484 0 0 0 47.53 77.535ZM50.092 37.791c-9.444 1.526-11.748 10.13-12.206 12.343l.396.58.306.457c0-.473 1.602-11.168 12.374-12.48-.153-.213-.64-.686-.87-.9ZM39.488 29.66c-.32-.214-.809-.474-1.13-.672a12.207 12.207 0 0 0-10.039 9.75c.214.197.58.655.778.869a11.534 11.534 0 0 1 10.391-9.948ZM28.716 23.313l-.946-.61a9.582 9.582 0 0 0-7.736 7.72l.626.686a8.925 8.925 0 0 1 8.056-7.797ZM19.485 16.386a9.277 9.277 0 0 0-5.753 6.103l.52.762a8.513 8.513 0 0 1 5.874-6.27l-.641-.595ZM13.747 9.352a7.781 7.781 0 0 0-4.21 2.93 5.687 5.687 0 0 0-.535.915c.107.366.244.717.366 1.068.195-.54.456-1.052.779-1.526a7.17 7.17 0 0 1 4.043-2.654l-.443-.733ZM12.115 2.73V2a5.493 5.493 0 0 0-3.57.732 2.64 2.64 0 0 0-.32.26c-.092.411-.184.838-.245 1.266.276-.35.606-.653.977-.9a4.852 4.852 0 0 1 3.158-.626Z" fill="#F0CBFF"/><path d="M52.824 106.279S31.66 69.281 14.19 38.646c0 0-19.072 54.207 28.594 76.024" fill="#E3A473"/><path d="M52.824 106.279S31.66 69.281 14.19 38.646c0 0-19.072 54.207 28.594 76.024" stroke="#672938" stroke-width="4" stroke-linecap="round" stroke-linejoin="round"/><path d="M15.716 47.48s-2.563 25.188 4.577 40.766c8.057 17.408 19.424 21.359 19.424 21.359l6.103 3.57s-.717-14.463-11.916-32.04A267.075 267.075 0 0 1 15.716 47.48Z" fill="#CE8655"/><path d="M116.11 179.278c.952-.78.281-3.172-1.498-5.342-1.779-2.17-3.992-3.297-4.944-2.517-.951.78-.28 3.171 1.498 5.341 1.779 2.17 3.993 3.297 4.944 2.518Z" fill="#672938"/></g><defs><clipPath id="a"><path fill="#fff" d="M0 0h128v248H0z"/></clipPath></defs></svg>