<svg width="154" height="257" fill="none" xmlns="http://www.w3.org/2000/svg"><g clip-path="url(#a)"><path d="m151.507 31.35-5.15 3.76.686.937 5.15-3.761-.686-.936Z" fill="#CACAD5"/><path d="M67.012 156.582 53.5 243.327c-1.375 14.098 49.473 13.787 47.805-.474l-15.15-90.077-19.142 3.806Z" fill="#E3A473" stroke="#672938" stroke-width="4" stroke-linecap="round" stroke-linejoin="round"/><path d="m92.5 202.5 6.985 41.988s-1.98 3.741-8.556 4.786L88 206l4.5-3.5Z" fill="#F7C79A"/><path d="M61.266 207.144 55 244.488s1.98 3.741 8.556 4.786L66.485 206l-5.219 1.144Z" fill="#CE8655"/><path d="M45.89 94.766a10.1 10.1 0 0 0-2.617 3.055c-.098.228-.294.604-.18.784 1.636-1.912 2.061-4.901 2.7-7.645 2.454-13.706-.41-27.772-7.134-40.58-6.953-12.235-16.556-23.965-17.162-38.749A16.32 16.32 0 0 1 24.77.735a1.767 1.767 0 0 1 3.092 1.634c-3.142 8.56 4.728 19.603 12.286 26.922 18.357 15.764 32.05 37.687 33.31 62.73.36 7.221 0 15.503-3.681 22.25a15.743 15.743 0 0 1-10.797 8.143 15.758 15.758 0 0 1-13.137-3.234 15.727 15.727 0 0 1-4.267-5.461 15.695 15.695 0 0 1 4.364-18.937l-.05-.016Z" fill="#672938"/><path d="M50.128 78.168a7.863 7.863 0 0 0 3.19-9.524c-3.19-8.168-9.816-22.87-19.403-33.652C19.813 19.358 25.065.408 25.065.408s-7.265 5.816-.966 23.018c6.299 17.202 15.28 24.994 19.354 37.818 4.074 12.824 3.272 19 3.272 19l3.403-2.076Z" fill="#491A27"/><path d="M108.976 94.766a10.1 10.1 0 0 1 2.585 3.055c.098.228.311.604.197.784-1.636-1.911-2.078-4.9-2.7-7.645-2.47-13.706.393-27.772 7.133-40.58 6.937-12.235 16.557-23.965 17.146-38.749a16.11 16.11 0 0 0-3.19-10.896 1.752 1.752 0 0 0-3.076 1.634c3.141 8.56-4.745 19.603-12.287 26.922-18.356 15.764-32.05 37.687-33.326 62.73-.343 7.221 0 15.503 3.698 22.25a15.74 15.74 0 0 0 10.799 8.164 15.76 15.76 0 0 0 13.151-3.236 15.7 15.7 0 0 0-.13-24.417v-.016Z" fill="#672938"/><path d="M46.022 97.118S28.434 50.838 9.669 18.052c0 0-25.555 64.69 25.555 88.051l10.798-8.985Z" fill="#E3A473" stroke="#672938" stroke-width="4" stroke-linecap="round" stroke-linejoin="round"/><path d="M108.256 82.122s1.636-.343-7.902-4.901c-10.438-5.032 12.189-31.284 20.745-41.56 4.548-5.456 12.009-18.394 11.076-28.26-.507-5.261-2.405-6.78-2.405-6.78s3.845 3.006 3.55 12.3c-.294 9.296-7.934 24.603-15.133 34.209-7.198 9.605-10.765 28.85-9.931 34.992Z" fill="#895264"/><path d="M107.978 97.118s17.588-46.28 36.353-79.066c0 0 25.571 64.69-25.555 88.051l-10.798-8.985Z" fill="#E3A473" stroke="#672938" stroke-width="4" stroke-linecap="round" stroke-linejoin="round"/><path d="M30.66 123.959c0-27.396 17.767-51.28 45.203-51.28 27.436 0 45.695 23.884 45.695 51.28 0 21.563-8.295 37.573-20.86 59.332-8.18 14.082-9.113 29.569-24.54 29.569-17.653 0-16.508-13.151-25.08-29.569C40 162.022 30.658 146.96 30.658 123.959Z" fill="#E3A473" stroke="#672938" stroke-width="4" stroke-linecap="round" stroke-linejoin="round"/><path d="M100.067 82.362s16.917 23.361 13.989 47.555C111.127 154.111 91.5 182 91.5 182l-2.329 18.603S97.092 184.302 102 177c6.332-10.389 12.015-22.642 15.391-34.328 2.716-10.324 5.614-22.769-4.301-45.509.033 0-5.922-10.52-13.023-14.8Z" fill="#F7C79A"/><path d="M52.567 85s-16.916 23.361-13.988 47.554c2.928 24.194 21.612 51.084 21.612 51.084l2.961 22.707s-7.656-21.237-12.565-28.539a136.936 136.936 0 0 1-14.626-33.261c-2.715-10.324-6.364-22.005 3.55-44.744-.032 0 5.252-10.456 13.056-14.801Z" fill="#CE8655"/><path d="M117.304 120.136c-1.636-8.952-9.375-25.91-18.978-27.183a3.538 3.538 0 0 0-2.605.64 3.528 3.528 0 0 0-1.404 2.284l-11.24 62.681c-.457 3.268 1.637 7.662 1.539 10.995 0 2.826-2.912 4.819-2.422 7.139-2.045 8.266-10.797 8.021-12.04-.392.474-1.863-2.57-3.758-2.504-5.865.098-3.267 1.898-8.626 1.44-11.877-2.045-14.62-8.671-46.574-10.929-62.305a3.985 3.985 0 0 0-1.586-2.546 3.996 3.996 0 0 0-2.913-.722c-9.57 1.275-17.326 18.215-18.978 27.167-1.652 8.952.916 24.619 10.634 29.781 9.718 5.162 16.688-3.006 16.36 10.651-.278 11.435-1.014 17.415-.932 23.688 0 4.214-.556 8.511.294 12.676a19.59 19.59 0 0 0 4.009 8.773 11.574 11.574 0 0 0 7.116 3.676c6.185.914 12.565-.605 15.92-6.061 2.846-4.607 3.353-13.412 3.14-18.77-.327-8.691-.212-14.703-.212-23.345-.082-12.546 5.89-6.126 15.607-11.272 9.718-5.146 12.32-20.845 10.684-29.813Z" fill="#fff" stroke="#672938" stroke-width=".95" stroke-miterlimit="10"/><path d="M103.692 140.164c3.605 0 6.528-4.52 6.528-10.096 0-5.575-2.923-10.095-6.528-10.095-3.605 0-6.528 4.52-6.528 10.095 0 5.576 2.923 10.096 6.528 10.096ZM49.228 141.144c3.858 0 6.986-4.769 6.986-10.651s-3.127-10.651-6.986-10.651c-3.858 0-6.986 4.769-6.986 10.651s3.128 10.651 6.986 10.651Z" fill="#672938"/><path d="M46.136 73.219c0 .424.115.849.164 1.29 1.456-2.76 8.393-12.22 20.745-9.459l-.573-1.225c-11.583-2.597-18.11 5.767-20.336 9.394ZM58.357 49.253c-10.225-.767-14.724 7.63-15.771 9.802.082.245.18.474.262.703l.212.555c.18-.474 4.45-11.223 16.017-9.9a12.025 12.025 0 0 1-.72-1.16ZM49.343 38.194c-.295-.294-.736-.686-1.015-.98-2.678-.2-5.354.428-7.664 1.798a13.075 13.075 0 0 0-5.244 5.863c.164.262.442.834.605 1.095a12.355 12.355 0 0 1 5.296-6.215 12.384 12.384 0 0 1 8.022-1.561ZM39.69 28.85l-.834-.866a10.302 10.302 0 0 0-5.958 1.502 10.28 10.28 0 0 0-4.038 4.624l.474.85a9.577 9.577 0 0 1 4.1-4.879 9.6 9.6 0 0 1 6.256-1.231ZM31.82 19.342a9.989 9.989 0 0 0-7.525 4.9l.344.932a9.203 9.203 0 0 1 7.69-5.064l-.508-.768ZM27.55 10.602a8.285 8.285 0 0 0-5.12 1.993 7.319 7.319 0 0 0-.785.817c0 .408 0 .817.114 1.209a7.532 7.532 0 0 1 1.211-1.438 7.696 7.696 0 0 1 4.81-1.797c-.082-.261-.164-.522-.23-.784ZM27.502 3.3c0-.261.163-.507.245-.768a5.93 5.93 0 0 0-3.893-.114l-.41.18c-.212.424-.392.833-.572 1.274a4.355 4.355 0 0 1 1.243-.686 5.062 5.062 0 0 1 3.387.114ZM108.862 73.219c0 .424-.131.85-.164 1.29a19.326 19.326 0 0 0-8.983-8.039 19.365 19.365 0 0 0-12.007-1.158l.687-1.323c11.583-2.598 18.242 5.603 20.467 9.23ZM96.64 49.253c10.226-.767 14.725 7.63 15.772 9.802-.098.245-.18.474-.262.703l-.442.457c-.18-.474-4.417-10.88-15.984-9.557l.916-1.405ZM105.442 38.439c.279-.294.933-1.095 1.211-1.389a13.219 13.219 0 0 1 7.723 1.844 13.185 13.185 0 0 1 5.267 5.932l-.703 1.078a12.478 12.478 0 0 0-5.455-6.064 12.501 12.501 0 0 0-8.043-1.401ZM114.833 29.16c.295-.294 1.031-.882 1.309-1.176a10.545 10.545 0 0 1 6.011 1.565 10.52 10.52 0 0 1 4.083 4.675c-.147.294-.539.98-.687 1.258a10.163 10.163 0 0 0-4.277-4.988 10.189 10.189 0 0 0-6.439-1.334ZM123.259 19.211a10.008 10.008 0 0 1 7.477 5.032l-.344.931a9.453 9.453 0 0 0-7.935-4.77c.18-.18.638-.931.802-1.193ZM127.3 10.275a9.053 9.053 0 0 1 5.268 2.32c.265.237.506.5.72.784 0 .409-.098 1.144-.147 1.552a7.185 7.185 0 0 0-1.211-1.454 8.369 8.369 0 0 0-5.039-1.797c.082-.261.343-1.127.409-1.405ZM127.414 3.382c-.081-.245-.163-.507-.261-.752a7.465 7.465 0 0 1 2.159-.441 5.443 5.443 0 0 1 1.031 0c.32.022.633.11.916.261.179.176.329.38.442.605.082.13.327.85.392.898a4.444 4.444 0 0 0-1.21-.8 5.342 5.342 0 0 0-3.469.229Z" fill="#F0CBFF"/><path d="M54.61 123.812c-.999-.49-1.952-1.07-2.846-1.732l.115.098c-3.616-1.911-7.297-.654-11.109-1.748 5.153-2.14 11.354-2.614 13.84 3.382ZM98.898 123.844c2.471-6.011 8.671-5.521 13.841-3.398-3.812 1.095-7.493-.163-11.125 1.748l.115-.098a18.184 18.184 0 0 1-2.83 1.748Z" fill="#672938"/><path d="m41.048 112.687.099-.082a11.063 11.063 0 0 1 12.338-.884c1.269.728 2.38 1.7 3.27 2.861l1.423 2.368M111.496 112.687l-.098-.082a11.072 11.072 0 0 0-15.608 1.977l-1.423 2.646" stroke="#672938" stroke-linecap="round" stroke-linejoin="round"/><path d="M84.318 175.726c.88-2.262.842-4.387-.084-4.747-.927-.359-2.391 1.184-3.271 3.446-.88 2.262-.843 4.387.083 4.747.927.359 2.391-1.184 3.272-3.446ZM70.776 179.158c.847-.315.843-2.414-.008-4.688-.85-2.273-2.226-3.86-3.073-3.544-.846.315-.842 2.414.008 4.688.851 2.273 2.227 3.86 3.073 3.544Z" fill="#672938"/><path d="M76.108 100.059a12.317 12.317 0 0 1-7.559-2.594 12.283 12.283 0 0 1-4.367-6.685 12.284 12.284 0 0 0 2.185 10.611 12.315 12.315 0 0 0 9.741 4.771 12.333 12.333 0 0 0 9.742-4.771 12.29 12.29 0 0 0 2.185-10.611 12.283 12.283 0 0 1-4.367 6.685 12.318 12.318 0 0 1-7.56 2.594v0Z" fill="#FBE854" stroke="#672938" stroke-width=".95" stroke-linecap="round" stroke-linejoin="round"/><path d="M9.064 31.97s-5.955 31.038 2.601 47.375c8.557 16.336 20.369 21.384 20.369 21.384l3.272-5.849S32.9 87.055 20.892 68.285A73.144 73.144 0 0 1 9.064 31.97Z" fill="#CE8655"/><path d="M10.274 23.246s.131 21.14 5.154 32.82S37.711 91.923 35.469 98.18" stroke="#672938" stroke-width="2" stroke-linecap="round" stroke-linejoin="round"/><path d="M145.051 31.97s5.955 31.038-2.618 47.375a52.167 52.167 0 0 1-21.743 22.315l-1.963-6.78s2.405-7.825 14.414-26.595a73.282 73.282 0 0 0 11.91-36.315Z" fill="#CE8655"/><path d="M143.824 23.246s-.131 21.14-5.137 32.82c-5.007 11.68-22.676 37.687-20.451 43.944" stroke="#672938" stroke-width="2" stroke-linecap="round" stroke-linejoin="round"/><path d="M76.37 182.85s-2.127 8.168 6.086 9.949a6.962 6.962 0 0 0 7.73-2.728 6.942 6.942 0 0 0 1.105-2.679" stroke="#672938" stroke-linecap="round" stroke-linejoin="round"/><path d="M75.847 182.85s2.127 8.168-6.07 9.949c-5.824 1.242-8.377-3.088-9.08-5.93" stroke="#672938" stroke-linecap="round" stroke-linejoin="round"/><path d="M89.786 190.986c-14.218 14.392-28.516-.311-28.516-.311s-.737 17.072 12.286 18.182c13.023 1.111 16.017-8.968 16.36-12.938.215-1.641.17-3.306-.13-4.933v0Z" fill="#E5E3E8" stroke="#672938" stroke-linecap="round" stroke-linejoin="round"/><path d="m116.895 67.746 8.982 13.592c9.129 13.804 12.45 28.13 9.914 43.584a67.53 67.53 0 0 1-3.469 12.481l-5.12 10.978-4.663-25.827a68.92 68.92 0 0 0-8.916-27.641l-8.459-14.703 11.731-12.464Z" fill="#D77EDA" stroke="#672938" stroke-width="2" stroke-linecap="round" stroke-linejoin="round"/><path d="M118.187 78.054a67.807 67.807 0 0 1 10.438 21.907c3.763 13.444 4.041 31.872 4.041 31.872 2.786-9.417 3.616-20.283 1.334-29.833-5.366-19.963-15.616-28.847-15.616-28.847l-.197 4.901Z" fill="#F0CBFF"/><path d="M64.215 71.781a74.288 74.288 0 0 1 5.006-13.069c3.795-7.498 15.951-21.237 32.442-15.487 8.982 3.12 12.156 13.951 14.201 22.218 2.438 9.801 4.123 22.952.082 32.508a57.266 57.266 0 0 1-7.82 12.089 34.802 34.802 0 0 0-5.661 12.759c-2.29 8.593-3.109 27.869-3.076 28.523 0 0-9.816-20.796-12.532-29.618-3.55-11.435 2.078-37.115-8.18-47.554-2.732-2.777-12.908-1.193-15.199.228 0 .066.311-1.061.736-2.597Z" fill="#D77EDA" stroke="#672938" stroke-width="2" stroke-linecap="round" stroke-linejoin="round"/><path d="M65.867 71.912s17.014-18.15 23.068-8.969c6.053 9.181-.41 27.102 1.26 46.297a144.462 144.462 0 0 0 8.36 36.07S87.007 128.781 86.5 113c-.36-15.013 2.435-48.5-20.633-41.088Z" fill="#CDB1DA" style="mix-blend-mode:multiply" opacity=".81"/><path d="M103.14 45c1.146.62 2.242 2.826 2.929 3.872 4.368 6.534 5.955 14.555 6.544 22.315.556 8.168.867 16.712-1.112 24.651-1.391 5.62-4.68 10.373-7.248 15.503-1.996 3.97-3.812 8.005-3.092 12.383 4.172-10.7 7.542-14.278 11.976-22.381a29.04 29.04 0 0 0 4.041-13.624c.407-5.33.071-10.69-.998-15.928-1.522-7.416-2.127-15.731-7.052-21.874A19.622 19.622 0 0 0 103.14 45Z" fill="#F0CBFF"/><path d="M64.918 72.124 61.4 67.599a19.17 19.17 0 0 0-7.512-5.821 19.2 19.2 0 0 0-18.346 1.685 19.156 19.156 0 0 0-6.322 7.093l-2.307 4.541a87.918 87.918 0 0 0-7.297 61.44l16.459 55.364c1.112 4.459 5.088 4.361 4.908-.229l-3.19-73.333a40.699 40.699 0 0 1 6.953-24.602L57.62 74.869l7.297-2.745Z" fill="#D77EDA" stroke="#672938" stroke-width="2" stroke-linecap="round" stroke-linejoin="round"/><path d="M62.071 71.487s-5.71-2.254-8.49-.13c-2.782 2.123-22.905 20.991-23.118 37.393-.196 11.582 4.68 58.548 7.559 85.127a.637.637 0 0 0 .687.588.639.639 0 0 0 .589-.686l-3.273-78.495s.148-11.533 9.342-25.305c9.195-13.77 11.829-16.826 11.829-16.826l4.875-1.666Z" fill="#CDB1DA" style="mix-blend-mode:multiply" opacity=".81"/></g><defs><clipPath id="a"><path fill="#fff" d="M0 0h154v257H0z"/></clipPath></defs></svg>