<svg width="179" height="187" fill="none" xmlns="http://www.w3.org/2000/svg"><path d="M68.184 24.206a96.855 96.855 0 0 1 25.604 3.043c.916-2.046 11.974-27.984-14.81-24.24-15.091 2.133-18.895 12.47-19.194 21.512 2.7-.21 5.5-.315 8.4-.315Z" fill="#E5E3E8" stroke="#672938" stroke-width="4" stroke-linecap="round" stroke-linejoin="round"/><path d="M97.803 184.534H2.5l4.931-75.608 97.574 17.857-7.202 57.751Z" fill="#2B2B2B" stroke="#672938" stroke-width="4" stroke-linecap="round" stroke-linejoin="round"/><path d="M6.533 94.637c0 36.483 27.277 48.411 74.946 57.016 45.784 8.255 90.512 21.792 90.512-46.452-33.968-34.787-38.212-78.879-86.885-89.758-20.075-4.495-78.573 9.095-78.573 79.194Z" fill="#fff" stroke="#672938" stroke-width="4" stroke-linecap="round" stroke-linejoin="round"/><path d="M109.408 93.57c-4.491-8.238-4.244-18.434 1.76-25.64a16.121 16.121 0 0 1 6.239-4.922 16.228 16.228 0 0 1 7.849-1.357c11.076.997 16.887 13.992 15.426 30.013-1.462 16.02-7.713 22.264-18.789 21.267h-.441a9.977 9.977 0 0 1-5.774-2.871 9.855 9.855 0 0 1-2.784-5.786 31.839 31.839 0 0 0-3.486-10.704Z" fill="#2B2B2B"/><path d="M170.952 117.846h-8.487a5.537 5.537 0 0 1-3.174-1.156 5.481 5.481 0 0 1-1.898-2.78v0c-1.338-3.97 1.286-8.22 5.072-8.22h8.487c3.787 0 6.393 4.25 5.054 8.22a5.45 5.45 0 0 1-1.887 2.778 5.523 5.523 0 0 1-3.167 1.158Z" fill="#2B2B2B" stroke="#672938" stroke-width="3" stroke-linecap="round" stroke-linejoin="round"/><path d="M130.38 93.955c-3.944 0-6.392-6.454-3.891-10.721a4.001 4.001 0 0 1 1.446-2.11 4.052 4.052 0 0 1 4.873 0 4.001 4.001 0 0 1 1.446 2.11c2.501 4.267 0 10.72-3.874 10.72Z" fill="#fff"/><path d="M36.663 28.543s-8.805 38.635-10.795 64.712c-1.99 26.077 24.513 45.473 42.263 49.566C85.88 146.914 112.5 156 112.5 156s-47.929-7.364-67-14.5c-19.071-7.136-33.408-12.978-37-40C4.908 74.478 20.052 46.699 25 40c2.992-4.048 8.067-7.926 11.663-11.457Z" fill="#E5E3E8"/><path d="M104.847 69.297s8.241-22.177 27.576-8.342" stroke="#2B2B2B" stroke-width="2" stroke-linecap="round" stroke-linejoin="round"/><path d="M39.322 53.361s-44.165-12.837-12.75-36.448C49.026.053 57.496 27.406 57.496 27.406s8.857 18.784-18.173 25.955Z" fill="#fff" stroke="#672938" stroke-width="4" stroke-linecap="round" stroke-linejoin="round"/><path d="M45.712 49.451s-11.288-5.841-10.689-12.4a15.102 15.102 0 0 1 2.14-5.586 15.208 15.208 0 0 1 4.147-4.33 5.468 5.468 0 0 1 7.554.856l7.625 8.063s2.483 7.59-10.777 13.397ZM167.729 130l-19.106.752a3.804 3.804 0 0 0-1.891.598 3.764 3.764 0 0 0-1.326 1.465 3.735 3.735 0 0 0 .241 3.796l9.668 14.114s11.886-9.042 12.414-20.725Z" fill="#2B2B2B"/><path d="M43.5 50s-14.622-1.756-15.804-13.674c-1.183-11.918 2.803-16.018 8.773-17.516 4.102-.918 8.823-1.545 13.031-1.31-1.5-2.78-4.131-3.446-6.5-4a13.324 13.324 0 0 0-7.163.307c-8.64 2.311-17.468 12.262-18.689 15.296a10.06 10.06 0 0 0-.928 6.753c.486 2.287 1.758 4.357 3.618 5.887C25.064 46.691 39.063 52 39.063 52l4.437-2Z" fill="#E5E3E8"/></svg>