<svg width="191" height="192" fill="none" xmlns="http://www.w3.org/2000/svg"><path d="M142.71 127.714h-95.5v61.653h95.5v-61.653Z" fill="#000" stroke="#672938" stroke-width="2.83" stroke-linecap="round" stroke-linejoin="round"/><path d="M15.818 50.992s-26.555-23.694-3.313-42.01C35.747-9.337 44.96 20.183 44.96 20.183S20.432 37.586 15.817 51.086" fill="#fff"/><path d="M15.818 50.992s-26.555-23.694-3.313-42.01C35.747-9.337 44.96 20.183 44.96 20.183S20.432 37.586 15.817 51.086" stroke="#672938" stroke-width="3.18" stroke-linecap="round" stroke-linejoin="round"/><path d="M175.201 50.992s26.555-23.694 3.312-42.01C155.271-9.337 146.06 20.183 146.06 20.183s24.526 17.402 29.141 30.902" fill="#fff"/><path d="M175.201 50.992s26.555-23.694 3.312-42.01C155.271-9.337 146.06 20.183 146.06 20.183s24.526 17.402 29.141 30.902" stroke="#672938" stroke-width="3.18" stroke-linecap="round" stroke-linejoin="round"/><path d="M171.449 41.666s8.299-11.091 4.187-17.44c-2.289-3.547-6.848-6.199-10.44-7.842a6.624 6.624 0 0 0-8.113 2.129l-3.61 4.929 17.976 18.224ZM19.338 42.883s-8.318-11.091-4.187-17.44c2.289-3.547 6.848-6.199 10.42-7.842a6.642 6.642 0 0 1 4.444-.384 6.66 6.66 0 0 1 3.689 2.513l3.61 4.929-17.976 18.224Z" fill="#000"/><path d="M5.862 84.32c0 38.95 39.897 70.524 89.098 70.524 49.202 0 89.099-31.574 89.099-70.523S144.534 5.658 95.333 5.658C46.13 5.658 5.862 45.372 5.862 84.32Z" fill="#fff" stroke="#672938" stroke-width="3.18" stroke-linecap="round" stroke-linejoin="round"/><path d="M62.953 105.532c0-17.458 10.05-28.288 24.862-28.288 14.812 0 26.852 14.135 26.852 31.574s-10.998 28.344-25.81 28.344c-14.813 0-25.904-14.191-25.904-31.63Z" fill="#E5E3E8"/><path d="M132.587 50.077c-11.76 0-21.288 13.836-21.307 30.92a33.111 33.111 0 0 1 10.868 22.817 21.137 21.137 0 0 0 10.439 2.614c11.78 0 21.307-8.309 21.307-25.393 0-17.085-9.527-30.958-21.307-30.958ZM80.539 80.157C80.222 63.465 72.22 51.59 60.665 51.59S37.962 63.93 37.962 81.035c0 17.103 9.528 25.393 21.307 25.393a21.34 21.34 0 0 0 9.397-2.091 33.046 33.046 0 0 1 3.36-13.364 32.94 32.94 0 0 1 8.513-10.816Z" fill="#000"/><path d="M95.426 138.002c14.819 0 26.833-14.136 26.833-31.574 0-17.438-12.014-31.574-26.833-31.574-14.82 0-26.834 14.136-26.834 31.574 0 17.438 12.014 31.574 26.834 31.574Z" fill="#fff"/><path d="M100.655 110.554h-10.83a5.688 5.688 0 0 1-3.253-1.029 5.728 5.728 0 0 1-2.088-2.705 5.75 5.75 0 0 1 .627-5.304 5.698 5.698 0 0 1 4.713-2.482h10.831a5.732 5.732 0 0 1 4.701 2.49 5.766 5.766 0 0 1 .639 5.296 5.746 5.746 0 0 1-2.09 2.702 5.716 5.716 0 0 1-3.25 1.032Z" fill="#000"/><path d="M131.024 94.721c-4.168 0-6.755-6.89-4.112-11.464a4.292 4.292 0 0 1 1.539-2.242 4.27 4.27 0 0 1 5.146 0 4.294 4.294 0 0 1 1.54 2.242c2.642 4.574 0 11.464-4.113 11.464ZM61.185 94.721c-4.168 0-6.754-6.89-4.112-11.464a4.295 4.295 0 0 1 1.54-2.242 4.27 4.27 0 0 1 5.146 0 4.295 4.295 0 0 1 1.54 2.242c2.623 4.574 0 11.464-4.114 11.464Z" fill="#fff"/><path d="M115.932 53.793s9.509-18.112 29.923-3.324M44.419 53.793s9.509-18.112 29.941-3.324" stroke="#000" stroke-linecap="round" stroke-linejoin="round"/><path d="M48.489 21a19.661 19.661 0 0 0-4.95 3.884 64.348 64.348 0 0 0-5.136 4.948c-10.532 11.203-15.668 25.262-16.748 40.61a122.96 122.96 0 0 0 2.736 36.055 63.957 63.957 0 0 0 21.065 33.366s-28.36-11.912-36.752-41.787C.31 68.202 25.656 39.111 25.656 39.111S39 23.763 48.49 21ZM18 43.472s-5.24-.959-8.404-13.189C6.433 18.053 21 6 21 6S5.3 12.09 4.5 26c.167 6.124 1.5 12.5 10.82 21.617L18 43.472Z" fill="#E5E3E8"/><path d="m82.158 117.836 29.383-1.867a2.218 2.218 0 0 1 2.131.937 2.227 2.227 0 0 1 .12 2.331c-4.317 8.514-17.064 28.007-33.272 2.035a2.266 2.266 0 0 1 .598-3.027 2.251 2.251 0 0 1 1.04-.409Z" fill="#000"/></svg>