<svg width="155" height="193" fill="none" xmlns="http://www.w3.org/2000/svg"><path d="M107.176 144.44a10.555 10.555 0 0 1 1.001-5.659l10.028-9.942 12.564-31.703 16.171 20.057 5.178-14.741-35.449-33.973c-1.726-2.425 0-8.274-2.917-12.918a58.264 58.264 0 0 0-30.34-24.289A57.575 57.575 0 0 0 65.98 28.28l-15.757-.258a46.292 46.292 0 0 0-21.382 5.106A46.123 46.123 0 0 0 12.254 47.51a50.55 50.55 0 0 0-9.682 27.987V190.454l86.793-.309v-44.724l23.593 5.848c-3.624-1.685-5.385-3.612-5.782-6.829Z" fill="#E3A473" stroke="#672938" stroke-width="4" stroke-linecap="round" stroke-linejoin="round"/><path d="M75.82 61.157s2.641 22.534 22.437 29.57C118.053 97.762 124 109 124 109l5-12.5-21.164-27s-.587-10.837-32.015-8.343Z" fill="#CE8655"/><path d="m45.045 28.021 15.757.258c.639 0 1.26 0 1.899.103V2.58c-13.307 0-24.162 11.508-24.766 25.923a44.22 44.22 0 0 1 7.11-.482v0Z" fill="#E3A473" stroke="#672938" stroke-width="4" stroke-linecap="round" stroke-linejoin="round"/><path d="M51.141 25.989H48s.431-2.677.708-3.417a29.55 29.55 0 0 1 9.82-12.488A12.92 12.92 0 0 1 60.513 9v17.144s-4.056-.207-9.372-.155Z" fill="#F7C79A"/><path d="M40.178 36.845V2.58C26.371 2.58 15.188 15 15.36 30.103l.035 30.463c6.679-7.328 13.15-20.78 24.783-23.72Z" fill="#E3A473" stroke="#672938" stroke-width="4" stroke-linecap="round" stroke-linejoin="round"/><path d="m118.205 128.839 12.564-31.703 16.43 20.453-3.452 28.503c-1.19 11.215-6.506 13.176-13.064 11.267l-12.806-4.197c-7.059-2.202-10.114-4.232-10.666-8.601a10.544 10.544 0 0 1 1.001-5.659l9.993-10.063Z" fill="#fff" stroke="#672938" stroke-width="4" stroke-linecap="round" stroke-linejoin="round"/><path d="m147.717 118.449-19.796-14.415 3.469-7.052 20.641 5.487-4.314 15.98Z" fill="#FF8496" stroke="#672938" stroke-width="4" stroke-linecap="round" stroke-linejoin="round"/><path d="m136 107.821.897-2.821 7.784 6.296-.846 2.236-7.835-5.711Z" fill="#3A3A3A"/><path d="m76.87 60.652 12.34.207c10.51 0 16.206 0 21.366 10.768l20.21 25.32" stroke="#672938" stroke-width="4" stroke-linecap="round" stroke-linejoin="round"/><path d="M129.302 135.238s2.709 7.964 14.721 3.767" stroke="#672938" stroke-width="2.4" stroke-linecap="round" stroke-linejoin="round"/><path d="m132.201 114.854-30.651 5.676M132.201 119.223l-26.233 6.932" stroke="#CACAD5" stroke-width=".83" stroke-miterlimit="10"/><path d="m29.599 70.44-2.917 17.907a40.554 40.554 0 0 0 5.538 27.915 40.783 40.783 0 0 0 22.542 17.462l58.507 17.907" stroke="#672938" stroke-width="2.4" stroke-linecap="round" stroke-linejoin="round"/><path d="M98.012 87.074c3.088 0 5.592-3.543 5.592-7.913s-2.504-7.913-5.592-7.913c-3.088 0-5.592 3.543-5.592 7.913s2.504 7.913 5.592 7.913Z" fill="#672938"/><path d="M30.5 73s-6.51 42.129 22.708 54.033C82.428 138.936 106.5 137.5 106.5 137.5c-.862 2.895-2 4-1 10 0 0-55.5-14.5-61.5-20.467 0 0-25.84-13.334-13.5-54.033Z" fill="#CE8655"/><path d="m28.253 81.604 32.36.412a2.181 2.181 0 0 1 2.258 1.342 2.16 2.16 0 0 1-.688 2.529L29 108c-3.858-8.273-3.663-17.75-.747-26.396ZM31.911 114.923l19.917-12.041a2.198 2.198 0 0 1 2.584.227 2.182 2.182 0 0 1 .557 2.525L44.999 128s-11.897-7.814-13.088-13.077Z" fill="#672938"/><path d="M28.191 41.145c-.48-5.615-.002-13.102.822-18.676.75-5.001 3.456-9.503 7.525-12.523A8.463 8.463 0 0 1 38.264 9v26s-4.573 1.645-10.073 6.145ZM87.905 144.943l-.034 43.402-9.545.155 1.174-46 8.405 2.443Z" fill="#F7C79A"/><path d="M15.566 76.53 14 48.53C5 60 5 76.752 5 76.752v111.035h10.584l.12-111.259h-.138Z" fill="#CE8655"/><path d="M109.659 141s-1.984 4.335.932 6.537c2.917 2.201 22.695 8.643 22.695 8.643s4.677 1.806 7.214-4.18l-30.841-11Z" fill="#EAEAEA"/><path d="M20.02 22.224c3.165 0 5.73-2.557 5.73-5.71 0-3.155-2.565-5.711-5.73-5.711-3.164 0-5.73 2.556-5.73 5.71s2.566 5.711 5.73 5.711Z" fill="#EAEAEA" stroke="#672938" stroke-width="4" stroke-linecap="round" stroke-linejoin="round"/></svg>