<svg width="176" height="198" fill="none" xmlns="http://www.w3.org/2000/svg"><path d="M41.724 26.477 7.942 1.71a22.063 22.063 0 0 0-6.2 14.758 22.067 22.067 0 0 0 5.406 15.067l11.826 13.531a29.75 29.75 0 0 1 8.922-12.309 29.662 29.662 0 0 1 13.828-6.28v0ZM168.167 1.71l-33.711 24.64a29.585 29.585 0 0 1 14.028 5.888 29.67 29.67 0 0 1 9.263 12.088l11.105-12.646a22.085 22.085 0 0 0 5.519-15.12 22.082 22.082 0 0 0-6.204-14.85ZM119.061 135.772a29.945 29.945 0 0 1-20.443 8.057H79.221a29.959 29.959 0 0 1-20.263-7.877L46.34 124.427v71.845l84.331-2.15v-69.189l-11.609 10.839Z" fill="#E3A473" stroke="#672938" stroke-width="3" stroke-linecap="round" stroke-linejoin="round"/><path d="m148.084 108.674-29.023 27.098a29.945 29.945 0 0 1-20.443 8.057H79.22a29.96 29.96 0 0 1-20.263-7.877l-29.6-27.242a42.492 42.492 0 0 1-10.751-15.595 42.57 42.57 0 0 1-2.914-18.729l1.46-20.684a29.796 29.796 0 0 1 9.37-19.591 29.675 29.675 0 0 1 20.159-7.995h83.628a29.638 29.638 0 0 1 20.241 7.974 29.758 29.758 0 0 1 9.377 19.666l1.478 20.901a42.521 42.521 0 0 1-2.819 18.52 42.436 42.436 0 0 1-10.503 15.497Z" fill="#E3A473" stroke="#672938" stroke-width="3" stroke-linecap="round" stroke-linejoin="round"/><path d="M44 28S26.74 38.365 26 48.5c-.74 10.135-2.042 39.092-2.042 39.092l38.686 42.092-.721 6.63-36.866-33.927a125.316 125.316 0 0 1-7.48-12.23c-2.038-4.245 1.982-39.96 1.982-39.96S22.5 30 44 28Z" fill="#CE8655"/><path d="M107 99.5 104 67l-4 34.5 7-2Z" fill="#F7C79A"/><path d="M88.74 42.212v21.227" stroke="#672938" stroke-width="1.2" stroke-linecap="round" stroke-linejoin="round"/><path d="m112 135 1 3.5 31.515-28.422-2.343-7.172L112 135Z" fill="#F7C79A"/><path d="m67.774 108.276 20.605 8.166 21.019-9.033 3.209 39.906a11.576 11.576 0 0 1-3.036 8.778 11.543 11.543 0 0 1-3.863 2.746 11.497 11.497 0 0 1-4.638.959l-25.78-.108a11.515 11.515 0 0 1-8.5-3.794 11.548 11.548 0 0 1-2.928-8.852l3.912-38.768Z" fill="#fff" stroke="#672938" stroke-width="2.4" stroke-linecap="round" stroke-linejoin="round"/><path d="M68.657 110.79 65 148a9.242 9.242 0 0 0 1.311 5.139c.93 1.548 3.063 3.581 4.69 4.361 0 0-1.64-3.392-.92-11.63.721-8.238.92-33.87.92-33.87l-2.344-1.21Z" fill="#EAEAEA"/><path d="M73.118 55.557 56.786 131.9l7.03 6.16 9.302-82.504Z" fill="#CE8655"/><path d="m68.91 100.96 5.516-45.94a10.85 10.85 0 0 0-3.168-7.664 10.805 10.805 0 0 0-7.648-3.175H49.44" stroke="#672938" stroke-width="2.4" stroke-linecap="round" stroke-linejoin="round"/><path d="M58.147 79.083c3.226 0 5.841-3.72 5.841-8.31s-2.615-8.31-5.84-8.31c-3.227 0-5.842 3.72-5.842 8.31s2.615 8.31 5.841 8.31Z" fill="#672938"/><path d="m108.191 100.725-2.65-32.788c0-3.047 1.207-5.97 3.358-8.124a11.452 11.452 0 0 1 8.107-3.366h13.069" stroke="#672938" stroke-width="2.4" stroke-linecap="round" stroke-linejoin="round"/><path d="M117.853 78.902c3.146 0 5.697-3.64 5.697-8.129 0-4.49-2.551-8.13-5.697-8.13s-5.697 3.64-5.697 8.13 2.551 8.13 5.697 8.13Z" fill="#672938"/><path d="M101.178 137.416v.469a6.243 6.243 0 0 1-3.714 5.167 24.797 24.797 0 0 1-19.631-.379 6.15 6.15 0 0 1-3.48-5.637v0M88.523 143.305v-29.067" stroke="#672938" stroke-width="2.4" stroke-linecap="round" stroke-linejoin="round"/><path d="m109.489 109.162-21.273 8.364-20.55-8.166 1.1-9.249 19.126 6.269 20.984-6.45.613 9.232Z" fill="#FF8496" stroke="#672938" stroke-width="2.4" stroke-linecap="round" stroke-linejoin="round"/><path d="m72.677 109.216.36-2.818 11.466 5.925-.343 1.391-11.483-4.498ZM104.243 108.981l-.631-2.457-11.484 5.655.18 1.481 11.935-4.679Z" fill="#3A3A3A"/><path d="M74.624 120.38 42.5 126.757M101.448 115.99l15.017 2.132 19.235 2.728M101.16 120.38l32.124 6.377M74.336 115.99l-34.252 4.86" stroke="#CACAD5" stroke-width=".58" stroke-miterlimit="10"/><path d="m145.235 97.95 7.049-12.176-2.073-41.207S148.552 35.426 143 31c2.632 1.41 12.206 7.408 14.423 17.47L158 51l2 25.5s.203 16.86-10 27.5l-4.765-6.05Z" fill="#F7C79A"/><path d="m18.397 76 13.917.524a2.142 2.142 0 0 1 1.838 1.179 2.153 2.153 0 0 1-.143 2.181l-10.564 15.41a2.166 2.166 0 0 1-1.832.916 2.161 2.161 0 0 1-1.773-1.024 26.946 26.946 0 0 1-3.606-17.307A2.151 2.151 0 0 1 18.397 76ZM25.356 99.855l10.816-4.68a2.141 2.141 0 0 1 2.927 1.438c.104.401.089.825-.043 1.219l-3.984 12.157a2.144 2.144 0 0 1-3.605.777l-6.814-7.497a2.154 2.154 0 0 1 .703-3.414ZM160.77 76l-13.917.524a2.142 2.142 0 0 0-1.837 1.179 2.155 2.155 0 0 0 .142 2.181l10.564 15.41a2.154 2.154 0 0 0 1.833.931 2.139 2.139 0 0 0 1.773-1.04 26.944 26.944 0 0 0 3.605-17.306A2.15 2.15 0 0 0 160.77 76ZM153.811 99.855l-10.816-4.68a2.14 2.14 0 0 0-2.927 1.438c-.103.401-.089.825.043 1.219l4.002 12.157a2.142 2.142 0 0 0 3.605.777l6.814-7.497a2.149 2.149 0 0 0 .079-2.802 2.134 2.134 0 0 0-.8-.612Z" fill="#672938"/></svg>