<svg width="142" height="254" fill="none" xmlns="http://www.w3.org/2000/svg"><path d="M53.883 75.939s-56.532 38.507-51.02 79.23c5.513 40.723 46.07 62.954 18.36 83.25-20.528 15.052 71.43 6.533 71.43 6.533l18.093 1.059L93.894 71.903s-28.622-3.954-40.01 4.036Z" fill="#DE2E5C" stroke="#672938" stroke-width="3" stroke-linecap="round" stroke-linejoin="round"/><path d="M130.594 96.499s16.554-35.48 4.602-61.4c0 0-16.835 8.784-24.831 50.533l20.229 10.867ZM28.307 94.597S11.39 58.687 24.45 33.396c0 0 16.422 9.51 22.63 51.574l-18.773 9.627ZM39.332 244.423l2.566-90.213h72.026l2.566 90.213c.414 9.461-77.572 9.461-77.158 0Z" fill="#F0CBFF" stroke="#672938" stroke-width="3" stroke-linecap="round" stroke-linejoin="round"/><path d="m43 165.5-2.234 79.807s4.088 2.597 14.55 3.507c0 0 1.656-44.164 4.85-50.499C63.363 191.98 49.656 152.416 43 165.5Z" fill="#CDB1DA" style="mix-blend-mode:multiply" opacity=".81"/><path d="m115 244.5-2-77.5-3.214.508L108.5 247.5s5.126-1.214 6.5-3Z" fill="#fff"/><path d="M78.085 64.922c-16.72 0-53.734 5.21-53.734 48.382 0 26.052.447 40.161 14.27 48.399 7.796 4.664 9.932 12.389 9.551 20.99-.58 16.838 2.582 44.147 25.228 44.147h12.101c23.176 0 24.037-29.211 22.994-45.867-.613-9.693 1.059-14.738 9.154-20.114 12.101-8.022 14.154-22.677 14.154-47.555 0-43.171-37.015-48.382-53.718-48.382Z" fill="#F0CBFF" stroke="#672938" stroke-width="3" stroke-linecap="round" stroke-linejoin="round"/><path d="M113.459 161.477s10.032-11.199 10.975-14.887a91.37 91.37 0 0 0 2.649-23.753c-.53-8.766-.099-18.195-2.003-25.654-1.904-7.46-13.177-17.104-17.862-20.809L105 73.844V71.5s14 4.874 19.517 17.76c5.595 11.297 5.215 12.571 5.811 26.283.612 13.993-2.003 27.391-4.222 32.519a30.195 30.195 0 0 1-12.647 13.415Z" fill="#fff"/><path d="m61.58 97.376 5.331 77.245 23.424.364 4.619-76.898-33.373-.712Z" fill="#fff" stroke="#672938" stroke-width=".95" stroke-miterlimit="10"/><path d="M60.919 59.249c-5.81 6.765-7.665 13.365-5.513 22.727 5.248 22.892 34.88 29.773 34.88 29.773s-9.006-13.943-7.897-22.015c0 0 9.237 26.366 26.056 35.397 0 0-6.125-16.954-5.496-32.834.629-15.879 3.443-28.83-10.015-37.282a24.843 24.843 0 0 0-21.52-2.697 23.672 23.672 0 0 0-10.495 6.931v0Z" fill="#DE2E5C" stroke="#672938" stroke-width="3" stroke-linecap="round" stroke-linejoin="round"/><path d="M107.336 115.438s10.263 9.743 18.209-2.465M109.935 117.605l-1.589 4.912M115.315 119.672l-.033 3.639M120.778 117.952l2.036 3.772M125.181 115.421l1.755 2.184" stroke="#672938" stroke-width="2.52" stroke-linecap="round" stroke-linejoin="round"/><path d="M51.764 74.748 53.5 70.5S34.86 76.7 29 93.422c-5.86 16.723-2 46.078-2 46.078s1.538 14.512 12 20.5c10.462 5.988 10.5 17 10.5 17s.1 8.374 0 11.5c-.1 3.126 1.95 15.541 1.883 16.5l1.656-11.589s2.317-19.319-1.656-27.127c-3.973-7.807-11.72-10.139-14.782-14.572-3.063-4.433-4.768-7.394-5.182-22.281-.413-14.886.1-30.93 3.311-36.009 3.212-5.078 4.155-8.75 17.034-18.674Z" fill="#CDB1DA" style="mix-blend-mode:multiply" opacity=".81"/><path d="M105.901 201.847c0 14.01-7.863 24.368-27 24.153-17.63-.198-26.784-10.143-26.784-24.153 0-14.01-3.426-28.847 26.785-28.847 29.565 0 26.999 14.837 26.999 28.847Z" fill="#fff" stroke="#672938" stroke-width=".95" stroke-miterlimit="10"/><path d="M31.022 115.438s10.28 9.743 18.21-2.465M33.638 117.605l-1.59 4.912M39.034 119.325l-.05 3.986M44.58 118.085l1.92 3.639M48.09 114.892l2.532 2.713" stroke="#672938" stroke-width="2.52" stroke-linecap="round" stroke-linejoin="round"/><path d="M91.097 195.363c2.788 0 5.049-2.518 5.049-5.624s-2.261-5.624-5.05-5.624c-2.788 0-5.048 2.518-5.048 5.624s2.26 5.624 5.049 5.624ZM64.643 195.363c2.908 0 5.264-2.518 5.264-5.624s-2.356-5.624-5.264-5.624c-2.907 0-5.264 2.518-5.264 5.624s2.357 5.624 5.264 5.624Z" fill="#672938"/><path d="M31.039 106.771s8.79-11.695 16.256-1.654M107.667 107.432s5.86-10.635 15.71-.926" stroke="#672938" stroke-width="2.52" stroke-linecap="round" stroke-linejoin="round"/><path d="M79.41 75.773a9.639 9.639 0 0 1-6.622-2.58 7.399 7.399 0 0 0 1.788 1.654 8.447 8.447 0 0 0 9.584-.298c.38-.257.73-.557 1.043-.893a9.473 9.473 0 0 1-5.794 2.117Z" fill="#E5B656" stroke="#DE2E5C" stroke-width="3" stroke-linecap="round" stroke-linejoin="round"/><path d="M85.137 73.458a5.972 5.972 0 0 0 1.804-4.963l-.695-5.508a9.75 9.75 0 0 1-6.97 3.308 10.022 10.022 0 0 1-7.846-3.936l-.496 4.267a8.693 8.693 0 0 0 1.92 6.617 8.875 8.875 0 0 0 8.078 2.431 7.981 7.981 0 0 0 4.205-2.216v0Z" fill="#E5B656" stroke="#672938" stroke-width="2" stroke-linecap="round" stroke-linejoin="round"/><path d="M79.277 66.295a9.754 9.754 0 0 0 6.97-3.308l-1.093-8.6a9.44 9.44 0 0 1-6.01 2.315 9.655 9.655 0 0 1-6.753-2.746l-.96 8.27a10.014 10.014 0 0 0 7.846 4.07v0Z" fill="#E5B656" stroke="#672938" stroke-width="2" stroke-linecap="round" stroke-linejoin="round"/><path d="m85.154 54.42-1.11-8.784a9.143 9.143 0 0 1-10.644-.248l-1.01 8.601a9.655 9.655 0 0 0 6.755 2.746 9.44 9.44 0 0 0 6.009-2.316v0Z" fill="#E5B656" stroke="#672938" stroke-width="2" stroke-linecap="round" stroke-linejoin="round"/><path d="m84.045 45.636-1.126-8.949a9.077 9.077 0 0 1-8.509-.099l-1.01 8.8a9.143 9.143 0 0 0 10.645.248v0Z" fill="#E5B656" stroke="#672938" stroke-width="2" stroke-linecap="round" stroke-linejoin="round"/><path d="m82.919 36.687-1.159-9.064a9.096 9.096 0 0 1-3.013.563 8.863 8.863 0 0 1-3.31-.58l-1.027 8.916a9.076 9.076 0 0 0 8.509.1v.065Z" fill="#E5B656" stroke="#672938" stroke-width="2" stroke-linecap="round" stroke-linejoin="round"/><path d="m81.76 27.623-1.126-8.932a10.07 10.07 0 0 1-2.003.265 9.938 9.938 0 0 1-2.135-.232l-1.043 8.883a8.863 8.863 0 0 0 3.31.579 9.097 9.097 0 0 0 2.997-.563v0Z" fill="#E5B656" stroke="#672938" stroke-width="2" stroke-linecap="round" stroke-linejoin="round"/><path d="M80.634 18.691 78.466 1.654l-1.97 17.07a9.939 9.939 0 0 0 2.135.232 10.07 10.07 0 0 0 2.003-.265v0Z" fill="#E5B656" stroke="#672938" stroke-width="2" stroke-linecap="round" stroke-linejoin="round"/><path d="M51.383 207.554c14.783 14.158 35.708 16.54 54.513 1.488M89.623 178.921a9.938 9.938 0 0 1 6.436 2.332 9.925 9.925 0 0 1 3.397 5.939l.43 2.398" stroke="#672938" stroke-width="1.26" stroke-linecap="round" stroke-linejoin="round"/><path d="M28 89.5 26 85c-5.599-11.003-6.016-33.006-3-46l15 32v5.5l-4.581 4.609-5.42 8.391Z" fill="#A285B1" style="mix-blend-mode:multiply" opacity=".81"/><path d="M66.497 178.921a9.938 9.938 0 0 0-6.435 2.332 9.925 9.925 0 0 0-3.398 5.939l-.413 2.398" stroke="#672938" stroke-width="1.26" stroke-linecap="round" stroke-linejoin="round"/><path d="M23.87 35.331s2.832 19.485 5.927 24c3.096 4.516 9.568 11.745 9.006 16.26" fill="#F0CBFF"/><path d="M23.87 35.331s2.832 19.485 5.927 24c3.096 4.516 9.568 11.745 9.006 16.26" stroke="#672938" stroke-width="2" stroke-linecap="round" stroke-linejoin="round"/><path d="m117.781 76.931 7.93-13.232a21.716 21.716 0 0 0 3.112-9.925c.265-4.665 1.424-11.794 5.794-16.69" fill="#F0CBFF"/><path d="m117.781 76.931 7.93-13.232a21.716 21.716 0 0 0 3.112-9.925c.265-4.665 1.424-11.794 5.794-16.69" stroke="#672938" stroke-width="2" stroke-linecap="round" stroke-linejoin="round"/><path d="M128.773 90.406S135.086 71.186 135.5 65c.414-6.186-1.943-24.5-1.943-24.5l1.443-2s4 9 2.5 24c0 9.365-3.098 21.008-7.469 31.28l-1.258-3.374Z" fill="#fff"/><path opacity=".48" d="M86 53s14.833 5.234 15.743 17.905a76.915 76.915 0 0 1 0 14.506 61.765 61.765 0 0 0-.414 8.915c0 2.184.182 4.863.331 7.841.103 1.936.363 3.861.778 5.756.778 3.44 2.02 8.932 2.235 9.643.315 1.059-5.43-16.16-6.903-23.157-1.473-6.997 1.656-14.225 0-22.959C95.98 62 86.5 57.5 86.5 57.5L86 53Z" fill="#fff"/><path d="M114.5 73.5S122 49 130.5 41c-.864 3.279-2.951 11.61-3 15 .149 4.003-10 19.5-10 19.5l-3-2Z" fill="#CDB1DA" style="mix-blend-mode:multiply" opacity=".81"/><path d="M69.593 55.627a22.21 22.21 0 0 0-8.816 7.766 22.186 22.186 0 0 0-3.616 11.173c-.96 14.258 11.836 25.87 19.235 28.4l8.658 4.549s-7.93-6.335-15.213-24.183c-7.284-17.847-.248-27.705-.248-27.705Z" fill="#DE2E5C" style="mix-blend-mode:multiply" opacity=".46"/><path d="M64.681 175s-7.4 3.474-8.277 9.924c-.877 6.451-.646 24.911 3.063 29.658a31.17 31.17 0 0 0 6.538 9.081c-4.043-2.185-7.699-4.312-10.247-8.965-5.28-6.765-3.452-27.847-3.452-27.847.816-2.564 2.5-7.5 5.248-8.37A14.895 14.895 0 0 1 64.681 175Z" fill="#CDB1DA" style="mix-blend-mode:multiply" opacity=".81"/><path d="M77.125 73.755 78.4 15.548l-5.927 51.806s-.347 5.707 4.652 6.401Z" fill="#CDB1DA" style="mix-blend-mode:multiply"/><path d="M20.768 109.516s-25.08 25.341-13.955 55.743c11.125 30.402 20.99 34.636 25.642 55.61 1.559 8.472-5.54 14.848-11.801 20.572-.54.493-.38 1.374.31 1.616 3.012 1.058 6.468 1.762 9.536 1.943 0 0 5.614-16.539 5.2-26.1-.414-9.56-17.763-38.159-20.428-50.267-2.665-12.108-10.015-31.675 5.496-59.117Z" fill="#DE2E5C" style="mix-blend-mode:multiply" opacity=".46"/></svg>