<svg width="193" height="238" fill="none" xmlns="http://www.w3.org/2000/svg"><path d="m169.327 93.195 7.007 139.142-87.078 1.048.794-71.253 79.277-68.937ZM119.65 79.925l21.782 33.928 5.369-12.696c5.657-13.371.102-24.883-6.838-37.646L128.97 35.145c-.878-1.606-1.553-6.035-3.377-6.002-3.343.068-5.943 50.782-5.943 50.782Z" fill="#F0CBFF" stroke="#672938" stroke-width="4" stroke-linecap="round" stroke-linejoin="round"/><path d="m123.213 76.882 13.761 25.847.895-9.703c.861-7.692-1.384-16.905-4.508-26.861 0 0-7.261-28.028-8.595-28.011l-1.553 38.728Z" fill="#805623"/><path d="M89.324 70.425 9.962 143.808a23.15 23.15 0 0 0-6.754 22.28l5.387 23.024c-4.272 3.381-2.972 5.359-1.216 6.914l9.405 6.119a16.281 16.281 0 0 0 17.426.203v0l74.143-27.453a12.735 12.735 0 0 1 6.923-1.69l8.038.304a46.653 46.653 0 0 0 25.666-6.525v0a46.774 46.774 0 0 0 17.297-18.132 46.829 46.829 0 0 0 5.464-24.468l-2.313-44.24a12.81 12.81 0 0 0-2.904-7.488l-3.614-4.361c-12.495-15.215-53.256-8.3-70.834.405a12.982 12.982 0 0 0-2.752 1.725v0Z" fill="#F0CBFF" stroke="#672938" stroke-width="4" stroke-linecap="round" stroke-linejoin="round"/><path d="M10 146s3.019-2.987 13.724 7.376c.996.963 111.984-83.526 111.984-83.526l-36.32-6.458L10 146Z" fill="#fff" stroke="#672938" stroke-width="2" stroke-miterlimit="10"/><path d="M152.272 64.406s-21.41-29.938-41.065-23.463c-19.654 6.474-29.786 39.945-39.005 44.899-9.22 4.953-23.353 1.572-23.353 1.572s15.197 20.065 35.764 7.472c20.566-12.594 22.71-21.537 22.71-21.537s-3.579 7.337-8.628 17.023c.068 0 35.324-21.232 53.577-25.966Z" fill="#DE2E5C" stroke="#672938" stroke-width="4" stroke-linecap="round" stroke-linejoin="round"/><path d="M38 176.419V199.5s-18.116 11.445-31.773-5.381c0 0 3.536-7.18 1.424-13.914-2.111-6.733-9.116-21.281-.352-32.435l4.726-3.77c11.429 2.313 26.058 13.314 25.975 32.419Z" fill="#fff" stroke="#672938" stroke-width="2" stroke-miterlimit="10"/><path opacity=".48" d="M52.21 89.104s14.808 10.498 33.77-2.502c18.963-13 30.934-40.334 46.638-33.2l8.932 5.832s-3.225-11.834-18.337-15.519C108.1 40.03 94.626 62.31 87.635 73.062c-6.99 10.751-11.212 19.626-35.426 16.042Z" fill="#fff"/><path d="M93.393 76.882c-1.25-.169-2.128-1.133-2.786-2.67l-2.482-5.833a11.353 11.353 0 0 0 8.882-.828 11.66 11.66 0 0 0 5.572-8.57l3.005 4.005c1.689 2.232 2.06 2.756 1.182 5.342a14.024 14.024 0 0 1-6.011 6.272c-2.06 1.15-4.914 2.603-7.362 2.282Z" fill="#E5B656" stroke="#672938" stroke-width="2.52" stroke-linecap="round" stroke-linejoin="round"/><path d="M97.007 67.55a11.353 11.353 0 0 1-8.882.83l-3.951-9.281c2.524.475 5.134.05 7.378-1.2a11.156 11.156 0 0 0 5.167-6.763l5.86 7.81a11.663 11.663 0 0 1-5.572 8.605v0Z" fill="#E5B656" stroke="#672938" stroke-width="2.52" stroke-linecap="round" stroke-linejoin="round"/><path d="m84.174 59.099-4.036-9.484a10.594 10.594 0 0 0 6.312-1.548 10.613 10.613 0 0 0 4.224-4.943l6.045 8.046a11.155 11.155 0 0 1-5.167 6.762 10.981 10.981 0 0 1-7.379 1.166v0Z" fill="#E5B656" stroke="#672938" stroke-width="2.52" stroke-linecap="round" stroke-linejoin="round"/><path d="m80.138 49.615-4.103-9.653a10.512 10.512 0 0 0 8.442-5.07l6.18 8.248a10.612 10.612 0 0 1-4.224 4.944 10.594 10.594 0 0 1-6.312 1.548l.017-.017Z" fill="#E5B656" stroke="#672938" stroke-width="2.52" stroke-linecap="round" stroke-linejoin="round"/><path d="m76.035 39.962-4.171-9.804a10.13 10.13 0 0 0 6.315-3.702l6.315 8.452a10.526 10.526 0 0 1-8.442 5.071l-.017-.017Z" fill="#E5B656" stroke="#672938" stroke-width="2.52" stroke-linecap="round" stroke-linejoin="round"/><path d="m71.864 30.158-4.103-9.636a10.432 10.432 0 0 0 4.17-2.383l6.248 8.317a10.129 10.129 0 0 1-6.315 3.702v0Z" fill="#E5B656" stroke="#672938" stroke-width="2.52" stroke-linecap="round" stroke-linejoin="round"/><path d="M67.761 20.455 59.943 2.079l11.989 15.992a10.434 10.434 0 0 1-4.17 2.384v0Z" fill="#E5B656" stroke="#672938" stroke-width="2.52" stroke-linecap="round" stroke-linejoin="round"/><path d="M25.499 173.053c1.756-.93 1.993-3.931.528-6.705-1.464-2.773-4.075-4.268-5.83-3.338-1.757.929-1.993 3.93-.53 6.704 1.465 2.773 4.076 4.268 5.832 3.339Z" fill="#672938"/><path d="M34.919 187.709s-8.713 8.621-23.403 2.907a19.373 19.373 0 0 1-4.424-2.586" stroke="#672938" stroke-width="2" stroke-linecap="round" stroke-linejoin="round"/><path d="M32.69 167.525s.371-10.853-11.719-11.039Z" fill="#fff"/><path d="M32.69 167.525s.371-10.853-11.719-11.039" stroke="#672938" stroke-width="2" stroke-linecap="round" stroke-linejoin="round"/><path d="M134.104 113.328s-7.464 14.691-20.905 4.362" stroke="#672938" stroke-width="3" stroke-linecap="round" stroke-linejoin="round"/><path d="m132.094 116.709 3.647 4.768M127 120.5l1.447 4.543M120.5 121.5l-.918 4.71M115 119.5l-1.53 3.785" stroke="#672938" stroke-width="3" stroke-miterlimit="10" stroke-linecap="round"/><path d="M131.487 105.704s-15.197-9.196-18.574 2.84" stroke="#672938" stroke-width="3" stroke-linecap="round" stroke-linejoin="round"/><path d="M169.36 82.562c.828-14.707 2.027-22.669-.523-35.347l-3.968-25.56a4.9 4.9 0 0 0-4.39-2.553c-2.499 0-11.28 23.092-15.704 35.111a15.136 15.136 0 0 0 1.469 13.405" fill="#F0CBFF"/><path d="M169.36 82.562c.828-14.707 2.027-22.669-.523-35.347l-3.968-25.56a4.9 4.9 0 0 0-4.39-2.553v0c-2.499 0-11.28 23.092-15.704 35.111a15.136 15.136 0 0 0 1.469 13.405" stroke="#672938" stroke-width="4" stroke-linecap="round" stroke-linejoin="round"/><path d="m150.314 70.171 6.433 9.162a2.211 2.211 0 0 0 4.019-1.065l.354-3.719a157.99 157.99 0 0 0 1.588-23.954s0-25.813-1.334-25.779l-12.512 34.52a11.833 11.833 0 0 0 1.452 10.835Z" fill="#A285B1" style="mix-blend-mode:multiply" opacity=".81"/><path d="m89.813 182.029-.472 45.642a100.938 100.938 0 0 1 47.025-54.382l15.569-8.452a44.045 44.045 0 0 1-18.946 7.438 111.38 111.38 0 0 1-20.144.27l-23.032 9.484ZM161.374 24.816s-6.248 31.172-8.004 49.564c0 0-5.961-6-5.201-11.833.203-1.555.338-2.705.406-3.55.185-1.886.64-3.737 1.35-5.494l11.449-28.687Z" fill="#672938"/><path d="M125.509 133.208c-8.122 1.522-13.694-7.1-12.58-1.099 1.115 6.002 6.468 10.464 14.572 8.96 8.105-1.505 9.524-7.793 8.443-13.794-1.08-6.001-2.33 4.412-10.435 5.933Z" fill="#CDB1DA" style="mix-blend-mode:multiply" opacity=".81"/><path opacity=".48" d="M144.067 65.566s-34.632 15.4-37.84 18.105c-3.209 2.704 28.705-21.064 28.705-21.064l.726-.236a6.967 6.967 0 0 1 8.324 3.195h.085Z" fill="#fff"/><path d="m170.5 143.5 4 87.5H165v-77l5.5-10.5ZM160.5 20.5c1.942 2.13 2.562 5.313 2.917 8.17.591 4.649 1.688 8.858 2.246 13.524.557 4.666.962 9.111 1.182 13.693a59.138 59.138 0 0 1 0 8.097c-.946 9.754-1.689 22.213-1.689 22.213s4.036 41.298-2.026 54.703c-6.062 13.405-16.362 18.496-30.63 30.6 0 0 23.133-4.229 34.007-25.715a50.589 50.589 0 0 0 4.204-27.368c-.962-9.163-1.469-18.376-1.823-27.588-.135-3.381-.372-6.762-.237-10.245.237-5.375.507-9.957.76-15.332a78.163 78.163 0 0 0-1.283-15.214c-.777-5.173-1.689-10.6-2.246-15.806a97.437 97.437 0 0 0-1.688-10.143 2.923 2.923 0 0 0-.297-1.16c-.178-.362-.397-.929-.397-1.429-.308-.26-1.114-.885-1.5-1-.386-.115-1.1-.05-1.5 0Z" fill="#fff"/><path d="m63.455 8.182 29.01 67.534s4.12 1.369 5.571-1.184l-34.58-66.35Z" fill="#CDB1DA" style="mix-blend-mode:multiply"/></svg>