<svg width="24" height="24" fill="none" xmlns="http://www.w3.org/2000/svg"><rect width="24" height="24" rx="12" fill="#EEDFFF"/><path fill-rule="evenodd" clip-rule="evenodd" d="m11.798 9.192.03.52-.506-.064c-1.84-.244-3.45-1.07-4.815-2.458l-.667-.688-.172.508c-.365 1.134-.132 2.33.627 3.136.404.444.313.508-.385.243-.242-.085-.455-.148-.475-.116-.07.074.172 1.038.364 1.419.263.53.8 1.049 1.386 1.356l.496.243-.587.011c-.567 0-.587.01-.526.233.202.689 1.001 1.42 1.892 1.737l.627.223-.546.339a5.54 5.54 0 0 1-2.712.784c-.455.01-.829.053-.829.084 0 .106 1.234.7 1.952.932 2.155.689 4.714.392 6.636-.783 1.366-.837 2.732-2.5 3.369-4.11.344-.858.688-2.426.688-3.178 0-.487.03-.55.596-1.133.334-.34.648-.71.709-.816.1-.201.09-.201-.425-.021-.86.317-.981.275-.557-.202.314-.338.688-.953.688-1.133 0-.032-.151.021-.323.117-.182.106-.587.264-.89.36l-.547.18-.495-.35c-.274-.19-.658-.402-.86-.466-.516-.148-1.305-.127-1.77.043a3.034 3.034 0 0 0-1.973 3.05Z" fill="#6100D4"/></svg>