<svg width="470" height="431" fill="none" xmlns="http://www.w3.org/2000/svg"><path fill-rule="evenodd" clip-rule="evenodd" d="M61.766 430.323c-8.258-.674-17.033-2.201-25.633-6.584a66.172 66.172 0 0 1-28.92-28.92c-4.382-8.6-5.91-17.374-6.584-25.632-.63-7.712-.63-17.98-.629-28.279v-1.911c0-10.299-.001-19.568.629-27.279.675-8.258 2.202-17.032 6.584-25.633a66.178 66.178 0 0 1 28.92-28.92c8.6-4.382 17.375-5.909 25.633-6.584 7.711-.63 16.98-.629 27.279-.629 84.198.004 208.396-.002 292.595 0 10.025 0 19.054.013 26.594.629 8.258.675 17.033 2.202 25.633 6.584a66.18 66.18 0 0 1 28.92 28.92c4.382 8.601 5.909 17.375 6.584 25.633.63 7.711.63 16.98.629 27.279v1.911c.001 10.299.001 20.567-.629 28.279-.675 8.258-2.202 17.032-6.584 25.632a66.169 66.169 0 0 1-28.92 28.92c-8.6 4.383-17.375 5.91-25.633 6.584-7.54.617-16.57.63-26.596.629H89.045c-10.3.001-19.568.001-27.28-.629Z" fill="#E2E1E5"/><path fill-rule="evenodd" clip-rule="evenodd" d="M22.323 364.547c-.205-4.088-.28-8.736-.307-14.105C22 347.36 22 344.04 22 340.452s0-6.907.016-9.989c.027-5.369.102-10.017.307-14.105.463-9.246 1.592-15.63 4.343-21.03a42.811 42.811 0 0 1 18.71-18.709c5.4-2.752 11.784-3.881 21.03-4.344 4.088-.205 8.735-.28 14.104-.307 3.082-.016 6.402-.016 9.99-.016s6.908 0 9.99.016c5.369.027 10.016.102 14.104.307 9.246.463 15.63 1.592 21.03 4.344a42.813 42.813 0 0 1 18.71 18.709c2.751 5.4 3.88 11.784 4.344 21.03.204 4.088.279 8.736.306 14.105.016 3.082.016 6.401.016 9.989 0 3.588 0 6.908-.016 9.99-.027 5.369-.102 10.017-.306 14.105-.464 9.245-1.593 15.629-4.344 21.029a42.815 42.815 0 0 1-18.71 18.71c-5.4 2.751-11.784 3.881-21.03 4.344-4.088.205-8.735.279-14.104.307-3.082.015-6.402.015-9.99.015s-6.908 0-9.99-.015c-5.369-.028-10.016-.102-14.104-.307-9.246-.463-15.63-1.593-21.03-4.344a42.814 42.814 0 0 1-18.71-18.71c-2.751-5.4-3.88-11.784-4.343-21.029ZM311.322 364.547c-.204-4.088-.279-8.736-.306-14.105-.016-3.082-.016-6.402-.016-9.99s0-6.907.016-9.989c.027-5.369.102-10.017.306-14.105.464-9.246 1.593-15.63 4.344-21.03a42.813 42.813 0 0 1 18.71-18.709c5.4-2.752 11.784-3.881 21.03-4.344 4.088-.205 8.735-.28 14.104-.307 3.082-.016 6.402-.016 9.99-.016s6.908 0 9.99.016c5.369.027 10.016.102 14.104.307 9.246.463 15.63 1.592 21.03 4.344a42.813 42.813 0 0 1 18.71 18.709c2.751 5.4 3.88 11.784 4.344 21.03.204 4.088.279 8.736.306 14.105.016 3.082.016 6.401.016 9.989 0 3.588 0 6.908-.016 9.99-.027 5.369-.102 10.017-.306 14.105-.464 9.245-1.593 15.629-4.344 21.029a42.815 42.815 0 0 1-18.71 18.71c-5.4 2.751-11.784 3.881-21.03 4.344-4.088.205-8.735.279-14.104.307-3.082.015-6.402.015-9.99.015s-6.908 0-9.99-.015c-5.369-.028-10.016-.102-14.104-.307-9.246-.463-15.63-1.593-21.03-4.344a42.815 42.815 0 0 1-18.71-18.71c-2.751-5.4-3.88-11.784-4.344-21.029Z" fill="#fff"/><path fill-rule="evenodd" clip-rule="evenodd" d="M75.765 301.381a4.284 4.284 0 0 1 4.282-4.286h19.983a4.284 4.284 0 0 1 4.282 4.286v15.367a4.289 4.289 0 0 1-1.254 3.031l-9.992 10a4.28 4.28 0 0 1-6.055 0l-9.992-10a4.289 4.289 0 0 1-1.254-3.031v-15.367Zm4.282 81.427a4.284 4.284 0 0 1-4.282-4.286v-15.367c0-1.137.451-2.227 1.254-3.03l9.992-10a4.279 4.279 0 0 1 6.056 0l9.991 10a4.285 4.285 0 0 1 1.254 3.03v15.367a4.284 4.284 0 0 1-4.282 4.286H80.047Zm48.53-57.142a4.284 4.284 0 0 1 4.282 4.286v20a4.284 4.284 0 0 1-4.282 4.285h-15.354a4.278 4.278 0 0 1-3.028-1.255l-9.992-10a4.289 4.289 0 0 1 0-6.061l9.992-9.999a4.28 4.28 0 0 1 3.028-1.256h15.354Zm-81.36 4.286a4.284 4.284 0 0 1 4.283-4.286h15.355a4.28 4.28 0 0 1 3.027 1.256l9.992 9.999a4.288 4.288 0 0 1 0 6.061l-9.992 10a4.279 4.279 0 0 1-3.028 1.255H51.5a4.284 4.284 0 0 1-4.282-4.285v-20Z" fill="#C3C2CA"/><path fill-rule="evenodd" clip-rule="evenodd" d="M350.527 324.238c-8.671 0-15.701 7.035-15.701 15.714s7.03 15.714 15.701 15.714c8.672 0 15.701-7.035 15.701-15.714s-7.029-15.714-15.701-15.714Z" fill="#FFA722"/><path fill-rule="evenodd" clip-rule="evenodd" d="M363.374 368.523c0 8.678 7.03 15.714 15.701 15.714s15.701-7.036 15.701-15.714c0-8.679-7.03-15.714-15.701-15.714s-15.701 7.035-15.701 15.714Z" fill="#26E1ED"/><path fill-rule="evenodd" clip-rule="evenodd" d="M423.323 339.952c0-8.679-7.03-15.714-15.701-15.714-8.672 0-15.701 7.035-15.701 15.714s7.029 15.714 15.701 15.714c8.671 0 15.701-7.035 15.701-15.714Z" fill="#FF3815"/><path fill-rule="evenodd" clip-rule="evenodd" d="M379.075 295.667c-8.671 0-15.701 7.035-15.701 15.714s7.03 15.714 15.701 15.714 15.701-7.035 15.701-15.714-7.03-15.714-15.701-15.714Z" fill="#6100D4"/><path d="M234.999 242.953S216.944 74.093 268 31.453c91-76 194.5 28.5 108 102.999-83.384 71.817-209.5 0-231-97" stroke="#716F83" stroke-width="10" stroke-linecap="round" stroke-linejoin="round"/><rect x="195" y="370.952" width="35" height="15" rx="6" fill="#716F83"/><rect x="240" y="370.952" width="35" height="15" rx="6" fill="#716F83"/><path d="M222 243.952a4 4 0 0 1 4-4h18a4 4 0 0 1 4 4v6h-26v-6Z" fill="#504E62"/></svg>