<svg width="160" height="55" fill="none" xmlns="http://www.w3.org/2000/svg"><path fill-rule="evenodd" clip-rule="evenodd" d="m158.335 20.426.007.013c1.661 3.327 1.66 7.014 1.658 12.13v1.102c.002 5.114.003 8.78-1.574 12.058l-.012.025-.012.024c-1.505 2.971-3.867 5.288-6.767 6.78h-.003c-3.334 1.71-7.032 1.708-12.138 1.706h-1.109c-5.104.002-8.801.004-12.133-1.702a15.318 15.318 0 0 1-4.791-3.794c-2.956 3.338-7.266 5.462-12.067 5.462h-10.06a16.075 16.075 0 0 1-12.074-5.449 15.58 15.58 0 0 1-4.776 3.776l-.003.002c-3.333 1.709-7.031 1.707-12.138 1.705a1012.107 1012.107 0 0 0-1.109 0c-5.1.002-8.795.004-12.126-1.7a15.163 15.163 0 0 1-2.052-1.24 6.786 6.786 0 0 1-.742.878c-2.07 2.072-4.64 2.065-5.857 2.062H19.119c-3.097 0-5.147.001-7.205-.562C6.394 52.245 2.017 47.864.562 42.34-.001 40.28 0 38.23 0 35.13V19.898c-.003-1.219-.01-3.791 2.06-5.863 2.07-2.072 4.642-2.066 5.858-2.062H48.456c1.217-.004 3.788-.01 5.858 2.062.283.283.528.576.739.873a15.5 15.5 0 0 1 2.056-1.236c3.33-1.703 7.025-1.701 12.125-1.7h.004a998.926 998.926 0 0 0 1.106 0h.007c5.098-.002 8.79-.003 12.085 1.666l.001.001a15.308 15.308 0 0 1 4.797 3.796c2.956-3.338 7.266-5.462 12.066-5.462h.67V8.15c-.002-1.218-.01-3.79 2.061-5.862 2.07-2.073 4.641-2.066 5.858-2.063h.252c1.26 0 2.05 0 2.883.08l.015.001.016.002c7.361.788 13.252 6.539 14.26 13.838.286-.167.579-.325.877-.474 3.33-1.703 7.025-1.701 12.126-1.7h.007a986.526 986.526 0 0 0 1.097 0c5.111-.001 8.795-.003 12.119 1.66l.007.004.006.003c2.969 1.506 5.284 3.87 6.774 6.773l.007.013Z" fill="#ABABAB"/><path fill-rule="evenodd" clip-rule="evenodd" d="M108.019 6.267c1.246 0 1.869 0 2.394.056a10.066 10.066 0 0 1 8.954 8.96c.055.526.055 1.15.055 2.396v20.474c0 5.166-3.889 9.424-8.897 10.002h-12.39a10.068 10.068 0 0 1-8.896-10.002v-10.07c0-5.56 4.505-10.068 10.061-10.068h4.695c.949 0 1.423 0 1.718-.295.294-.295.294-.77.294-1.72V8.282c0-.95 0-1.424.295-1.719.295-.295.769-.295 1.717-.295Zm-58.42 41.888a.873.873 0 0 0 .444-.228c.295-.295.295-.77.295-1.72V20.029c0-.949 0-1.424-.295-1.718-.294-.295-.768-.295-1.717-.295h-9.155c-.949 0-1.423 0-1.718.294-.294.295-.294.77-.294 1.72v13.576a1.19 1.19 0 1 1-2.382 0V20.029c0-.949 0-1.424-.294-1.718-.295-.295-.77-.295-1.718-.295h-9.39c-.948 0-1.188 0-1.483.294-.294.295-.294.77-.294 1.72v13.576a1.19 1.19 0 0 1-2.382 0V20.029c0-.949 0-1.424-.294-1.718-.295-.295-.77-.295-1.718-.295H8.049c-.948 0-1.423 0-1.717.294-.295.295-.295.77-.295 1.72v14.767c0 3.122 0 4.682.343 5.963a10.065 10.065 0 0 0 7.114 7.12c.538.144 1.125.228 1.858.276h34.246Zm51.648-17.386c-.27.467-.27 1.094-.27 2.35 0 1.254 0 1.881.27 2.349.176.306.43.56.736.737.467.27 1.094.27 2.348.27 1.253 0 1.88 0 2.347-.27.306-.177.56-.431.736-.737.27-.468.27-1.095.27-2.35 0-1.255 0-1.882-.27-2.35a2.007 2.007 0 0 0-.736-.736c-.467-.27-1.094-.27-2.347-.27-1.254 0-1.881 0-2.348.27-.306.176-.56.43-.736.737Zm22.625-8.263c-1.097 2.153-1.097 4.973-1.097 10.612 0 5.64 0 8.459 1.097 10.613a10.06 10.06 0 0 0 4.396 4.4c2.153 1.098 4.97 1.098 10.604 1.098 5.635 0 8.452 0 10.604-1.098a10.068 10.068 0 0 0 4.397-4.4c1.096-2.154 1.096-4.974 1.096-10.613 0-5.639 0-8.459-1.096-10.613a10.068 10.068 0 0 0-4.397-4.4c-1.084-.553-2.337-.827-4.034-.963h-13.139c-1.697.136-2.95.41-4.035.963a10.06 10.06 0 0 0-4.396 4.4Zm11.914 8.33c-.27.468-.27 1.095-.27 2.35 0 1.255 0 1.882.27 2.35.176.305.43.56.736.736.467.27 1.094.27 2.348.27 1.253 0 1.88 0 2.347-.27.306-.176.56-.43.737-.737.269-.467.269-1.094.269-2.35 0-1.254 0-1.881-.269-2.349a2.017 2.017 0 0 0-.737-.737c-.467-.27-1.094-.27-2.347-.27-1.254 0-1.881 0-2.348.27-.306.177-.56.431-.736.737ZM76.358 17.142c1.697.137 2.95.41 4.034.964a10.065 10.065 0 0 1 4.397 4.4c1.097 2.154 1.097 4.974 1.097 10.613 0 5.639 0 8.459-1.097 10.612a10.065 10.065 0 0 1-4.397 4.4c-2.152 1.098-4.969 1.098-10.604 1.098-5.634 0-8.451 0-10.603-1.097a10.065 10.065 0 0 1-4.397-4.4c-1.097-2.154-1.097-4.974-1.097-10.613 0-5.64 0-8.459 1.097-10.613a10.065 10.065 0 0 1 4.397-4.4c1.084-.553 2.337-.827 4.034-.964h13.139Zm-9.653 13.694c-.27.468-.27 1.095-.27 2.35 0 1.255 0 1.882.27 2.35.176.305.43.56.736.736.467.27 1.094.27 2.347.27 1.254 0 1.881 0 2.348-.27a2.01 2.01 0 0 0 .736-.737c.27-.467.27-1.094.27-2.35 0-1.254 0-1.881-.27-2.349a2.01 2.01 0 0 0-.736-.737c-.467-.27-1.094-.27-2.347-.27-1.254 0-1.881 0-2.348.27-.306.177-.56.431-.736.737Z" fill="#fff"/></svg>