<svg width="100" height="40" fill="none" xmlns="http://www.w3.org/2000/svg"><path d="M3 11h49l3 2 9-3.5L65.5 3l7.75 1.5L77.5 11 97 12v20l-16 1-5-2.5-2.75 1.5H61.375L55 30.5 49.5 32H25.75L3.5 30.5 3 11Z" fill="#fff"/><path fill-rule="evenodd" clip-rule="evenodd" d="m98.963 13.633-.004-.009-.004-.008a9.64 9.64 0 0 0-4.233-4.233l-.005-.002-.004-.002c-2.077-1.04-4.38-1.039-7.574-1.037h-.69c-3.188-.002-5.498-.003-7.58 1.062a9.857 9.857 0 0 0-.547.296c-.63-4.562-4.312-8.156-8.913-8.649h-.01l-.01-.002C68.87 1 68.376 1 67.59 1h-.159c-.76-.001-2.367-.006-3.66 1.29-1.295 1.294-1.29 2.902-1.288 3.663V8.342h-.42c-3 0-5.693 1.328-7.541 3.414a9.568 9.568 0 0 0-2.998-2.373c-2.06-1.044-4.367-1.043-7.554-1.041h-.698c-3.187-.002-5.497-.003-7.578 1.061-.45.226-.88.484-1.285.773a4.242 4.242 0 0 0-.462-.546c-1.293-1.295-2.9-1.29-3.66-1.288H4.948c-.76-.002-2.367-.007-3.661 1.288S-.002 12.533 0 13.294V22.814c0 1.937 0 3.22.351 4.507a10.022 10.022 0 0 0 7.095 7.1c1.287.353 2.568.352 4.503.352h18.336c.76.002 2.368.006 3.662-1.289.177-.178.33-.362.463-.549.403.29.831.55 1.283.776 2.081 1.064 4.39 1.063 7.578 1.062h.694c3.191.001 5.502.002 7.586-1.066h.002a9.74 9.74 0 0 0 2.984-2.36 10.047 10.047 0 0 0 7.547 3.405h6.287c3.001 0 5.695-1.328 7.542-3.414a9.57 9.57 0 0 0 2.995 2.371c2.082 1.066 4.393 1.065 7.582 1.064h.694c3.191.001 5.502.002 7.586-1.066h.002a9.64 9.64 0 0 0 4.23-4.238l.007-.015.007-.015c.986-2.05.985-4.34.984-7.537v-.689c.001-3.197.002-5.501-1.037-7.58ZM69.008 4.81c-.328-.035-.717-.035-1.496-.035-.593 0-.889 0-1.073.185-.184.184-.184.48-.184 1.074v4.825c0 .593 0 .89-.185 1.074-.184.184-.48.184-1.073.184h-2.934a6.29 6.29 0 0 0-6.288 6.293v6.293c0 3.23 2.43 5.89 5.56 6.252h7.743a6.292 6.292 0 0 0 5.56-6.252V11.907c0-.779 0-1.168-.034-1.496a6.29 6.29 0 0 0-5.596-5.601Zm-37.73 26.002a.545.545 0 0 1-.28.143H9.596a5.935 5.935 0 0 1-1.161-.173 6.29 6.29 0 0 1-4.447-4.45c-.214-.8-.214-1.775-.214-3.726v-9.23c0-.593 0-.89.184-1.074.184-.185.48-.185 1.074-.185h5.722c.592 0 .889 0 1.073.184.184.185.184.482.184 1.075v8.486a.744.744 0 1 0 1.489 0v-8.486c0-.593 0-.89.184-1.074.184-.185.334-.185.927-.185h5.868c.593 0 .89 0 1.074.184.184.185.184.482.184 1.075v8.486a.744.744 0 1 0 1.488 0v-8.486c0-.593 0-.89.184-1.074.185-.185.481-.185 1.074-.185h5.722c.593 0 .889 0 1.073.184.184.185.184.482.184 1.075v16.362c0 .593 0 .89-.184 1.074Zm31.833-9.255c0-.784 0-1.176.168-1.468.11-.192.27-.35.46-.461.292-.169.684-.169 1.468-.169.783 0 1.175 0 1.467.169.191.11.35.27.46.46.169.293.169.685.169 1.469s0 1.176-.169 1.468c-.11.192-.269.35-.46.461-.292.169-.684.169-1.467.169-.784 0-1.176 0-1.467-.169-.192-.11-.35-.27-.46-.46-.17-.293-.17-.685-.17-1.47Zm13.623 0c0-3.525 0-5.287.686-6.633a6.29 6.29 0 0 1 2.748-2.75c.677-.346 1.46-.517 2.521-.602h8.212c1.06.085 1.844.256 2.522.602a6.29 6.29 0 0 1 2.748 2.75c.685 1.346.685 3.108.685 6.633 0 3.524 0 5.287-.685 6.633a6.29 6.29 0 0 1-2.748 2.75c-1.345.686-3.106.686-6.628.686-3.521 0-5.282 0-6.627-.686a6.29 6.29 0 0 1-2.748-2.75c-.686-1.346-.686-3.109-.686-6.633Zm7.964.042c0-.784 0-1.176.168-1.468.11-.192.27-.35.46-.46.292-.17.684-.17 1.468-.17.783 0 1.175 0 1.467.17.191.11.35.268.46.46.169.292.169.684.169 1.468 0 .784 0 1.177-.169 1.469-.11.191-.269.35-.46.46-.292.169-.684.169-1.467.169-.784 0-1.176 0-1.468-.169-.19-.11-.35-.269-.46-.46-.168-.292-.168-.685-.168-1.469Zm-34.453-9.425c-.677-.345-1.46-.517-2.521-.602h-8.212c-1.06.085-1.844.257-2.522.602a6.29 6.29 0 0 0-2.748 2.75c-.685 1.347-.685 3.109-.685 6.633 0 3.525 0 5.287.685 6.633a6.29 6.29 0 0 0 2.748 2.75c1.345.686 3.106.686 6.628.686 3.521 0 5.282 0 6.627-.686a6.291 6.291 0 0 0 2.748-2.75c.685-1.346.685-3.108.685-6.633 0-3.524 0-5.286-.685-6.633a6.291 6.291 0 0 0-2.748-2.75ZM41.522 21.6c0-.784 0-1.176.168-1.468.11-.192.27-.35.46-.46.293-.17.684-.17 1.468-.17.783 0 1.175 0 1.467.17.191.11.35.268.46.46.169.292.169.684.169 1.468 0 .785 0 1.177-.169 1.469-.11.191-.269.35-.46.46-.292.169-.684.169-1.467.169-.784 0-1.175 0-1.467-.169-.192-.11-.35-.269-.46-.46-.17-.292-.17-.684-.17-1.469Z" fill="#FF3815"/></svg>