<svg width="233" height="180" fill="none" xmlns="http://www.w3.org/2000/svg"><path d="M231.317 12.495s2.76 156.964.014 154.991a28.888 28.888 0 0 1-3.155 3.737c-8.812 8.819-19.753 8.79-24.932 8.777l-.557-.001H81.376c-13.183.003-21.907.005-30.669-2.392-23.49-6.201-42.12-24.848-48.316-48.357C-.003 120.481 0 111.75.001 98.558l.001-1.415V33.73C-.013 28.547-.042 17.597 8.77 8.778 17.582-.042 28.523-.012 33.7 0l.558.001H203.244c5.179-.014 16.12-.043 24.932 8.776a28.885 28.885 0 0 1 3.141 3.717Z" fill="#450096"/><path fill-rule="evenodd" clip-rule="evenodd" d="M208.103 153.998c.797-.182 1.404-.481 1.894-.971 1.255-1.255 1.255-3.276 1.255-7.316V34.284c0-4.04 0-6.06-1.255-7.316-1.254-1.255-3.272-1.255-7.309-1.255h-39.966c-4.037 0-6.057 0-7.311 1.255-1.254 1.256-1.254 3.276-1.254 7.316V93.57a3.57 3.57 0 0 1-3.568 3.571 3.57 3.57 0 0 1-3.568-3.571V34.284c0-4.04 0-6.06-1.254-7.316-1.255-1.255-3.274-1.255-7.311-1.255H98.49c-4.037 0-6.055 0-7.31 1.255-1.254 1.256-1.254 3.276-1.254 7.316V93.57a3.57 3.57 0 0 1-3.569 3.571 3.57 3.57 0 0 1-3.568-3.571V34.284c0-4.04 0-6.06-1.254-7.316-1.255-1.255-3.273-1.255-7.31-1.255H34.259c-4.037 0-6.056 0-7.31 1.255-1.255 1.256-1.255 3.276-1.255 7.316V97.14c0 13.285 0 19.928 1.46 25.378a42.84 42.84 0 0 0 30.279 30.304c2.29.614 4.79.97 7.908 1.176h142.762Z" fill="#fff"/></svg>