<svg width="300" height="300" fill="none" xmlns="http://www.w3.org/2000/svg"><g clip-path="url(#a)"><mask id="b" style="mask-type:alpha" maskUnits="userSpaceOnUse" x="5" y="48" width="180" height="219"><path d="m5 147.569 103.093 119.425 61.243-32.663 15.311-44.912L89.72 60.809l-38.788-12.25L5 147.57Z" fill="#DF85FF" fill-opacity=".5"/></mask><g mask="url(#b)"><path d="M216.785 97.815s12.206 95.367 10.412 94.349a17.763 17.763 0 0 1-1.659 2.485c-4.742 5.957-11.366 6.669-14.501 7.007l-.338.037-72.569 8.001-.856.094c-7.978.882-13.258 1.465-18.722.591-14.634-2.208-27.162-12.315-32.49-26.213-2.037-5.178-2.622-10.493-3.506-18.524l-.095-.861-4.219-38.263c-.011-.109-.024-.222-.038-.34-.356-3.154-1.108-9.818 3.634-15.774 4.74-5.957 11.365-6.67 14.5-7.007l.337-.036 101.943-11.24.153-.017.184-.021c3.134-.354 9.754-1.102 15.68 3.679.81.654 1.523 1.343 2.15 2.053Z" fill="#450096"/><path fill-rule="evenodd" clip-rule="evenodd" d="M212.232 185.503c.471-.164.818-.386 1.082-.717.675-.848.539-2.078.268-4.538l-7.479-67.83c-.271-2.459-.406-3.689-1.25-4.37-.844-.68-2.065-.545-4.508-.276l-24.19 2.667c-2.444.27-3.666.404-4.341 1.252-.675.848-.539 2.078-.268 4.537l3.979 36.09a2.18 2.18 0 0 1-1.92 2.412 2.18 2.18 0 0 1-2.399-1.936l-3.979-36.089c-.271-2.46-.407-3.69-1.25-4.37-.844-.681-2.066-.546-4.509-.277l-24.19 2.668c-2.444.269-3.665.404-4.341 1.252-.674.847-.539 2.077-.268 4.537l3.98 36.089a2.18 2.18 0 0 1-1.921 2.412 2.18 2.18 0 0 1-2.399-1.936l-3.979-36.089c-.271-2.46-.407-3.689-1.25-4.37-.844-.68-2.066-.546-4.509-.276l-24.19 2.667c-2.443.269-3.665.404-4.34 1.252-.675.848-.54 2.078-.268 4.537l4.218 38.263c.892 8.087 1.338 12.131 2.587 15.352 3.389 8.738 11.151 15 20.361 16.426 1.427.221 2.965.271 4.865.188l86.408-9.527Z" fill="#fff"/></g><mask id="c" style="mask-type:alpha" maskUnits="userSpaceOnUse" x="89" y="21" width="185" height="169"><path d="M273.45 78.16 120.341 21 89.72 60.808l94.927 128.611L273.45 78.16Z" fill="#EBB3FF" fill-opacity=".5"/></mask><g mask="url(#c)"><path d="M237.991 91.175s1.595 95.888-.073 94.681a17.526 17.526 0 0 1-1.919 2.281c-5.359 5.383-12.008 5.36-15.155 5.349l-.338-.001-72.858-.062-.859-.001c-8.01-.005-13.312-.008-18.635-1.477-14.27-3.8-25.582-15.201-29.335-29.565-1.45-5.358-1.444-10.692-1.435-18.751v-.864l.033-38.397v-.341c-.006-3.166-.017-9.855 5.342-15.238 5.359-5.383 12.008-5.36 15.154-5.349l.339.001 102.348.087H220.938c3.147-.005 9.796-.017 15.146 5.375a17.728 17.728 0 0 1 1.907 2.272Z" fill="#450096"/><path fill-rule="evenodd" clip-rule="evenodd" d="M223.81 177.604c.485-.11.854-.293 1.152-.592.763-.766.764-2 .766-4.468l.058-68.069c.002-2.468.004-3.702-.758-4.47-.762-.767-1.988-.768-4.441-.77l-24.286-.02c-2.453-.003-3.681-.004-4.443.762-.763.766-.764 2-.766 4.469l-.031 36.216a2.174 2.174 0 0 1-2.17 2.179 2.173 2.173 0 0 1-2.166-2.183l.03-36.216c.003-2.468.004-3.702-.758-4.47-.762-.767-1.989-.768-4.442-.77l-24.286-.021c-2.453-.002-3.679-.003-4.443.763-.762.766-.763 2-.765 4.468l-.031 36.216a2.175 2.175 0 0 1-2.17 2.18 2.175 2.175 0 0 1-2.167-2.183l.031-36.216c.002-2.469.003-3.703-.758-4.47-.762-.768-1.989-.769-4.442-.77l-24.286-.022c-2.453-.002-3.68-.003-4.442.764-.763.766-.764 2-.767 4.468l-.032 38.398c-.007 8.115-.011 12.173.873 15.503 2.399 9.036 9.406 16.099 18.384 18.528 1.391.376 2.911.595 4.805.722l86.751.074Z" fill="#fff"/></g><mask id="d" style="mask-type:alpha" maskUnits="userSpaceOnUse" x="184" y="78" width="110" height="174"><path d="m260.179 251.682 33.684-73.492-109.217 11.228 27.559 44.912 47.974 17.352Z" fill="#E496FF" fill-opacity=".5"/><path d="M293.863 178.19 273.448 78.16l-88.802 111.258 109.217-11.228Z" fill="#E496FF" fill-opacity=".5"/></mask><g mask="url(#d)"><path d="M252.222 123.162s-16.373 94.493-17.786 92.996c-.683.66-1.45 1.293-2.312 1.881-6.272 4.285-12.798 3.018-15.888 2.419l-.332-.064-71.56-13.693-.843-.162h-.001c-7.867-1.503-13.075-2.498-18.029-4.937-13.307-6.404-22.286-19.719-23.285-34.532-.422-5.535.582-10.773 2.098-18.688l.163-.849 7.216-37.713.064-.335c.587-3.111 1.827-9.684 8.098-13.97 6.272-4.284 12.799-3.017 15.888-2.418l.332.064 100.524 19.236.151.029.182.034c3.093.583 9.626 1.816 13.873 8.113.58.861 1.057 1.728 1.447 2.589Z" fill="#450096"/><path fill-rule="evenodd" clip-rule="evenodd" d="M222.122 205.412c.496-.018.893-.128 1.241-.366.894-.61 1.126-1.823 1.589-4.247l12.793-66.855c.464-2.424.696-3.636.091-4.533-.604-.896-1.808-1.127-4.218-1.588l-23.853-4.564c-2.409-.461-3.615-.692-4.508-.082-.892.61-1.124 1.822-1.588 4.247l-6.806 35.57a2.176 2.176 0 0 1-2.54 1.735 2.174 2.174 0 0 1-1.719-2.55l6.806-35.57c.464-2.425.696-3.637.092-4.533-.605-.897-1.81-1.127-4.22-1.588l-23.853-4.565c-2.409-.461-3.614-.691-4.507-.081-.893.609-1.125 1.822-1.588 4.246l-6.807 35.57a2.175 2.175 0 0 1-2.54 1.736 2.175 2.175 0 0 1-1.719-2.551l6.806-35.57c.464-2.424.696-3.637.092-4.533-.605-.896-1.81-1.127-4.219-1.588l-23.853-4.564c-2.41-.461-3.615-.692-4.507-.082-.893.61-1.125 1.822-1.589 4.246l-7.217 37.714c-1.525 7.97-2.288 11.956-2.043 15.393.666 9.325 6.228 17.574 14.593 21.64 1.296.63 2.748 1.129 4.585 1.609l85.206 16.304Z" fill="#fff"/></g><path d="m119.625 21.285-68.07 27.042a2 2 0 0 0-1.076 1.019L5.542 146.399a2 2 0 0 0 .301 2.147l101.75 117.869a2 2 0 0 0 1.258.677l85.481 11.062c.342.044.69-.001 1.01-.13l64.102-26.042a2 2 0 0 0 1.066-1.021l33.083-72.361c.176-.386.225-.817.14-1.233l-20.061-98.121a2.003 2.003 0 0 0-1.26-1.473L121.063 21.27a2 2 0 0 0-1.438.015Z" fill="#AB3CD2" fill-opacity=".5"/><path d="m119.625 21.285-68.07 27.042a2 2 0 0 0-1.076 1.019L5.542 146.399a2 2 0 0 0 .301 2.147l101.75 117.869a2 2 0 0 0 1.258.677l85.481 11.062c.342.044.69-.001 1.01-.13l64.102-26.042a2 2 0 0 0 1.066-1.021l33.083-72.361c.176-.386.225-.817.14-1.233l-20.061-98.121a2.003 2.003 0 0 0-1.26-1.473L121.063 21.27a2 2 0 0 0-1.438.015Z" stroke="#DB71FF"/><path d="m194.854 278.222 65.326-26.539-47.974-17.352-17.352 43.891ZM108.093 266.994l86.761 11.228 17.352-43.891h-42.87l-61.243 32.663Z" fill="#C64FF0" fill-opacity=".5"/><path d="m184.647 189.419 27.559 44.912h-42.87l15.311-44.912Z" fill="#D477F4" fill-opacity=".5"/><path d="m260.18 251.683 33.684-73.492-109.217 11.228 27.559 44.912 47.974 17.352Z" fill="#E496FF" fill-opacity=".5"/><path d="M120.341 21 50.932 48.56 89.72 60.807 120.34 21Z" fill="#FCF2FF"/><path d="m5 147.569 103.093 119.425 61.243-32.663 15.311-44.912L89.72 60.809l-38.788-12.25L5 147.57Z" fill="#DF85FF" fill-opacity=".5"/><path d="M293.864 178.191 273.45 78.161l-88.803 111.258 109.217-11.228Z" fill="#E496FF" fill-opacity=".5"/><path d="M273.45 78.16 120.341 21 89.72 60.808l94.927 128.611L273.45 78.16Z" fill="#EBB3FF" fill-opacity=".5"/><path d="m179.543 180.232-39.808-51.546c11.228 15.651 34.5 48.382 37.767 54.098 3.266 5.716 3.402 9.867 3.062 11.228l-3.573 17.863c1.872-3.573 6.431-11.841 7.656-14.29 1.225-2.45 2.211-1.021 2.552 0l13.779 18.373c-3.402-7.315-9.492-20.517-10.717-22.967-1.225-2.449-.511-4.763 0-5.613l20.925-31.132c-5.955 6.464-18.68 20.312-21.946 23.986-3.266 3.675-7.825 1.532-9.697 0Z" fill="#fff" fill-opacity=".6"/><path d="m273.45 78.16-32.664-12.248c8.847 3.742 26.845 11.432 28.07 12.248.511.34 1.531 1.021 1.021 2.042l-8.676 13.27c2.722-2.382 8.472-7.452 9.697-8.677 1.225-1.225 2.041-2.041 2.552-.51l6.634 26.538-6.634-32.663Z" fill="#fff" fill-opacity=".5"/><path d="m93.803 62.85 10.207 17.352c-3.403-4.083-10.82-12.861-13.27-15.311-2.45-2.45-3.742-3.402-4.082-3.573L76.45 56.725c2.042.34 6.84 1.123 9.697 1.531 2.858.409 4.253-.51 4.593-1.02l10.718-11.739c-2.212 3.913-6.839 12.147-7.655 13.78-.817 1.633-.34 3.062 0 3.573Z" fill="#fff"/><path d="m166.784 234.331-10.717 7.145c3.232-1.361 10.219-4.601 11.738-5.614 1.531-1.021 2.552-1.021 3.572-1.021l5.104-.51c-.51-.17-1.939-.613-3.572-1.021-1.634-.408-1.702-1.531-1.532-2.042l1.532-7.145-3.573 7.145c-.817 1.634-2.041 2.722-2.552 3.063Z" fill="#fff" fill-opacity=".1"/><path d="m211.186 231.268-4.594-6.124c.511 1.361 1.736 4.491 2.552 6.124.817 1.634-1.021 2.042-2.041 2.042l-12.249 1.021c4.083.51 12.657 1.02 14.29 1.02 1.633 0 3.913.341 4.593.511l9.697 2.552c-1.871-1.021-6.124-3.267-8.166-4.083-2.041-.817-3.572-2.382-4.082-3.063Z" fill="#fff" fill-opacity=".2"/><path d="m10.614 141.955 9.697-27.559L5 147.569l31.642 36.746c-6.634-8.846-22.047-28.478-24.497-32.152-2.45-3.675-2.041-8.336-1.531-10.208Z" fill="#fff" fill-opacity=".5"/><path d="m105.031 258.828-19.394-17.863 22.456 26.029 35.215 4.593c-5.955-1.361-18.884-4.287-22.967-5.104-4.082-.816-3.062-2.041-2.041-2.551l19.394-12.759c-6.465 2.551-20.415 7.961-24.498 9.186-4.082 1.225-7.145-.51-8.165-1.531ZM260.18 251.683l8.166-17.863c-1.871 3.062-6.431 11.228-7.655 13.27-1.225 2.041-3.233 1.871-4.083 1.531l-10.718-2.042c1.361.851 4.491 2.858 6.124 4.083 1.634 1.225.681 2.212 0 2.552l-16.842 8.676 25.008-10.207Z" fill="#fff" fill-opacity=".3"/><path d="m293.864 178.191-3.573-17.863c.171 2.892.613 9.493 1.021 12.759.408 3.267-.51 6.465-1.021 7.656l-5.103 16.331 8.676-18.883Z" fill="#fff" fill-opacity=".4"/><path d="m123.914 24.062 12.759 3.062L120.341 21l-15.31 6.124c2.722-.68 8.165-2.551 10.207-3.062 1.771-.443 1.361 0 1.021.51l-5.614 9.187c2.892-2.722 8.982-8.37 10.207-9.186 1.225-.817 2.552-.681 3.062-.51ZM50.932 48.56l-6.124 13.269c1.701-2.722 5.308-8.472 6.124-9.697.817-1.225 2.382-1.19 3.063-1.02l13.269 2.551c-2.212-1.19-7.043-3.777-8.676-4.593-1.633-.817-1.02-1.701-.51-2.042l12.248-6.124-19.394 7.655Z" fill="#fff"/><mask id="e" style="mask-type:alpha" maskUnits="userSpaceOnUse" x="5" y="48" width="180" height="219"><path d="m5 147.569 103.093 119.425 61.243-32.663 15.311-44.912L89.72 60.809l-38.788-12.25L5 147.57Z" fill="#DF85FF" fill-opacity=".5"/></mask><g mask="url(#e)"><path d="M216.785 97.815s12.206 95.367 10.412 94.349a17.763 17.763 0 0 1-1.659 2.485c-4.742 5.957-11.366 6.669-14.501 7.007l-.338.037-72.569 8.001-.856.094c-7.978.882-13.258 1.465-18.722.591-14.634-2.208-27.162-12.315-32.49-26.213-2.037-5.178-2.622-10.493-3.506-18.524l-.095-.861-4.219-38.263c-.011-.109-.024-.222-.038-.34-.356-3.154-1.108-9.818 3.634-15.774 4.74-5.957 11.365-6.67 14.5-7.007l.337-.036 101.943-11.24.153-.017.184-.021c3.134-.354 9.754-1.102 15.68 3.679.81.654 1.523 1.343 2.15 2.053Z" fill="#450096"/><path fill-rule="evenodd" clip-rule="evenodd" d="M212.232 185.503c.471-.164.818-.386 1.082-.717.675-.848.539-2.078.268-4.538l-7.479-67.83c-.271-2.459-.406-3.689-1.25-4.37-.844-.68-2.065-.545-4.508-.276l-24.19 2.667c-2.444.27-3.666.404-4.341 1.252-.675.848-.539 2.078-.268 4.537l3.979 36.09a2.18 2.18 0 0 1-1.92 2.412 2.18 2.18 0 0 1-2.399-1.936l-3.979-36.089c-.271-2.46-.407-3.69-1.25-4.37-.844-.681-2.066-.546-4.509-.277l-24.19 2.668c-2.444.269-3.665.404-4.341 1.252-.674.847-.539 2.077-.268 4.537l3.98 36.089a2.18 2.18 0 0 1-1.921 2.412 2.18 2.18 0 0 1-2.399-1.936l-3.979-36.089c-.271-2.46-.407-3.689-1.25-4.37-.844-.68-2.066-.546-4.509-.276l-24.19 2.667c-2.443.269-3.665.404-4.34 1.252-.675.848-.54 2.078-.268 4.537l4.218 38.263c.892 8.087 1.338 12.131 2.587 15.352 3.389 8.738 11.151 15 20.361 16.426 1.427.221 2.965.271 4.865.188l86.408-9.527Z" fill="#fff"/></g><mask id="f" style="mask-type:alpha" maskUnits="userSpaceOnUse" x="89" y="21" width="185" height="169"><path d="M273.45 78.16 120.341 21 89.72 60.808l94.927 128.611L273.45 78.16Z" fill="#EBB3FF" fill-opacity=".5"/></mask><g mask="url(#f)"><path d="M237.991 91.175s1.595 95.888-.073 94.681a17.526 17.526 0 0 1-1.919 2.281c-5.359 5.383-12.008 5.36-15.155 5.349l-.338-.001-72.858-.062-.859-.001c-8.01-.005-13.312-.008-18.635-1.477-14.27-3.8-25.582-15.201-29.335-29.565-1.45-5.358-1.444-10.692-1.435-18.751v-.864l.033-38.397v-.341c-.006-3.166-.017-9.855 5.342-15.238 5.359-5.383 12.008-5.36 15.154-5.349l.339.001 102.348.087H220.938c3.147-.005 9.796-.017 15.146 5.375a17.728 17.728 0 0 1 1.907 2.272Z" fill="#450096"/><path fill-rule="evenodd" clip-rule="evenodd" d="M223.81 177.604c.485-.11.854-.293 1.152-.592.763-.766.764-2 .766-4.468l.058-68.069c.002-2.468.004-3.702-.758-4.47-.762-.767-1.988-.768-4.441-.77l-24.286-.02c-2.453-.003-3.681-.004-4.443.762-.763.766-.764 2-.766 4.469l-.031 36.216a2.174 2.174 0 0 1-2.17 2.179 2.173 2.173 0 0 1-2.166-2.183l.03-36.216c.003-2.468.004-3.702-.758-4.47-.762-.767-1.989-.768-4.442-.77l-24.286-.021c-2.453-.002-3.679-.003-4.443.763-.762.766-.763 2-.765 4.468l-.031 36.216a2.175 2.175 0 0 1-2.17 2.18 2.175 2.175 0 0 1-2.167-2.183l.031-36.216c.002-2.469.003-3.703-.758-4.47-.762-.768-1.989-.769-4.442-.77l-24.286-.022c-2.453-.002-3.68-.003-4.442.764-.763.766-.764 2-.767 4.468l-.032 38.398c-.007 8.115-.011 12.173.873 15.503 2.399 9.036 9.406 16.099 18.384 18.528 1.391.376 2.911.595 4.805.722l86.751.074Z" fill="#fff"/></g><mask id="g" style="mask-type:alpha" maskUnits="userSpaceOnUse" x="184" y="78" width="110" height="174"><path d="m260.179 251.682 33.684-73.492-109.217 11.228 27.559 44.912 47.974 17.352Z" fill="#E496FF" fill-opacity=".5"/><path d="M293.863 178.19 273.448 78.16l-88.802 111.258 109.217-11.228Z" fill="#E496FF" fill-opacity=".5"/></mask><g mask="url(#g)"><path d="M252.222 123.162s-16.373 94.493-17.786 92.996c-.683.66-1.45 1.293-2.312 1.881-6.272 4.285-12.798 3.018-15.888 2.419l-.332-.064-71.56-13.693-.843-.162h-.001c-7.867-1.503-13.075-2.498-18.029-4.937-13.307-6.404-22.286-19.719-23.285-34.532-.422-5.535.582-10.773 2.098-18.688l.163-.849 7.216-37.713.064-.335c.587-3.111 1.827-9.684 8.098-13.97 6.272-4.284 12.799-3.017 15.888-2.418l.332.064 100.524 19.236.151.029.182.034c3.093.583 9.626 1.816 13.873 8.113.58.861 1.057 1.728 1.447 2.589Z" fill="#450096"/><path fill-rule="evenodd" clip-rule="evenodd" d="M222.122 205.412c.496-.018.893-.128 1.241-.366.894-.61 1.126-1.823 1.589-4.247l12.793-66.855c.464-2.424.696-3.636.091-4.533-.604-.896-1.808-1.127-4.218-1.588l-23.853-4.564c-2.409-.461-3.615-.692-4.508-.082-.892.61-1.124 1.822-1.588 4.247l-6.806 35.57a2.176 2.176 0 0 1-2.54 1.735 2.174 2.174 0 0 1-1.719-2.55l6.806-35.57c.464-2.425.696-3.637.092-4.533-.605-.897-1.81-1.127-4.22-1.588l-23.853-4.565c-2.409-.461-3.614-.691-4.507-.081-.893.609-1.125 1.822-1.588 4.246l-6.807 35.57a2.175 2.175 0 0 1-2.54 1.736 2.175 2.175 0 0 1-1.719-2.551l6.806-35.57c.464-2.424.696-3.637.092-4.533-.605-.896-1.81-1.127-4.219-1.588l-23.853-4.564c-2.41-.461-3.615-.692-4.507-.082-.893.61-1.125 1.822-1.589 4.246l-7.217 37.714c-1.525 7.97-2.288 11.956-2.043 15.393.666 9.325 6.228 17.574 14.593 21.64 1.296.63 2.748 1.129 4.585 1.609l85.206 16.304Z" fill="#fff"/></g></g><defs><clipPath id="a"><path fill="#fff" d="M0 0h300v300H0z"/></clipPath></defs></svg>