<svg width="678" height="230" fill="none" xmlns="http://www.w3.org/2000/svg"><path fill-rule="evenodd" clip-rule="evenodd" d="m670.913 85.976.028.056c7.073 14.159 7.067 29.853 7.058 51.625v4.692c.009 21.765.015 37.37-6.697 51.322l-.051.105-.052.104c-6.406 12.647-16.458 22.505-28.804 28.854l-.013.007c-14.188 7.273-29.927 7.267-51.661 7.258l-2.36-.001h-.832l-1.529.001c-21.722.009-37.456.015-51.638-7.246a65.168 65.168 0 0 1-20.394-16.147c-12.582 14.206-30.925 23.249-51.358 23.249h-42.821c-20.483 0-38.845-9-51.39-23.192-5.63 6.639-12.519 12.057-20.325 16.071l-.014.007c-14.188 7.273-29.927 7.267-51.661 7.258l-2.36-.001-2.361.001c-21.708.009-37.436.015-51.611-7.232a64.566 64.566 0 0 1-8.736-5.282 28.888 28.888 0 0 1-3.155 3.737c-8.812 8.819-19.753 8.79-24.932 8.777l-.557-.001H81.376c-13.183.003-21.907.005-30.669-2.392-23.49-6.201-42.12-24.848-48.316-48.357-2.394-8.769-2.392-17.5-2.39-30.692l.001-1.415V83.729c-.014-5.183-.043-16.133 8.769-24.952 8.811-8.819 19.752-8.79 24.93-8.777l.558.001H203.244c5.179-.014 16.12-.043 24.932 8.776a28.878 28.878 0 0 1 3.141 3.717 65.93 65.93 0 0 1 8.751-5.262c14.175-7.247 29.902-7.24 51.61-7.231h.016a4528.332 4528.332 0 0 0 4.706 0h.03c21.702-.01 37.413-.016 51.439 7.09l.005.002a65.153 65.153 0 0 1 20.414 16.157C380.871 59.044 399.213 50 419.646 50h2.855V34.287l-.001-.557c-.013-5.183-.042-16.133 8.77-24.952 8.811-8.82 19.752-8.79 24.931-8.777l.557.001h.517c5.361 0 8.726 0 12.27.337l.066.007.066.007c31.332 3.354 56.403 27.83 60.695 58.9a67.685 67.685 0 0 1 3.731-2.02c14.175-7.248 29.903-7.242 51.612-7.232h.03a4473.579 4473.579 0 0 0 4.671 0c21.754-.01 37.435-.015 51.581 7.064l.028.014.028.014c12.637 6.41 22.487 16.471 28.831 28.827l.029.056ZM466.943 25.95c-2.232-.235-4.883-.235-10.185-.235-4.037 0-6.056 0-7.31 1.255-1.254 1.255-1.254 3.276-1.254 7.316v32.857c0 4.04 0 6.06-1.255 7.316-1.254 1.255-3.272 1.255-7.31 1.255H419.646c-23.649 0-42.82 19.188-42.82 42.856v42.857c0 23.669 19.171 42.856 42.82 42.856h42.821c23.649 0 42.821-19.187 42.821-42.856V74.287c0-5.307 0-7.96-.235-10.194-2.113-20.125-18.002-36.027-38.11-38.142ZM426.783 140c0-5.341 0-8.011 1.148-10a8.567 8.567 0 0 1 3.134-3.138c1.988-1.148 4.656-1.148 9.992-1.148 5.336 0 8.004 0 9.991 1.148a8.578 8.578 0 0 1 3.135 3.138c1.147 1.989 1.147 4.659 1.147 10 0 5.34 0 8.01-1.147 9.999a8.578 8.578 0 0 1-3.135 3.138c-1.987 1.148-4.655 1.148-9.991 1.148-5.336 0-8.004 0-9.992-1.148a8.567 8.567 0 0 1-3.134-3.138c-1.148-1.989-1.148-4.659-1.148-9.999ZM81.535 76.97c1.254 1.255 1.254 3.276 1.254 7.316v59.285a3.57 3.57 0 0 0 3.569 3.571 3.57 3.57 0 0 0 3.568-3.571V84.286c0-4.04 0-6.06 1.254-7.316 1.254-1.255 3.273-1.255 7.31-1.255h39.966c4.037 0 6.056 0 7.31 1.255 1.254 1.255 1.254 3.276 1.254 7.316v59.285a3.57 3.57 0 0 0 3.569 3.571 3.57 3.57 0 0 0 3.568-3.571V84.286c0-4.04 0-6.06 1.254-7.316 1.255-1.255 3.273-1.255 7.31-1.255h39.966c4.038 0 6.056 0 7.31 1.255 1.255 1.255 1.255 3.276 1.255 7.316v111.427c0 4.04 0 6.061-1.255 7.316-1.254 1.255-3.272 1.255-7.31 1.255H82.789c-13.274 0-19.911 0-25.356-1.46a42.84 42.84 0 0 1-30.28-30.304c-1.458-5.45-1.458-12.093-1.458-25.378V84.286c0-4.04 0-6.06 1.254-7.316 1.254-1.255 3.273-1.255 7.31-1.255h39.966c4.037 0 6.056 0 7.31 1.255Zm148.657 17.86c-4.667 9.167-4.667 21.168-4.667 45.17 0 24.001 0 36.002 4.667 45.17a42.846 42.846 0 0 0 18.714 18.729c9.16 4.671 21.151 4.671 45.133 4.671 23.981 0 35.972 0 45.132-4.671a42.84 42.84 0 0 0 18.714-18.729c4.667-9.168 4.667-21.169 4.667-45.17 0-24.002 0-36.003-4.667-45.17a42.84 42.84 0 0 0-18.714-18.73c-9.16-4.67-21.151-4.67-45.132-4.67-23.982 0-35.973 0-45.133 4.67a42.844 42.844 0 0 0-18.714 18.73Zm49.573 6.599a4.284 4.284 0 0 1 4.282-4.286h19.983a4.284 4.284 0 0 1 4.282 4.286v15.367a4.289 4.289 0 0 1-1.254 3.031l-9.992 9.999a4.278 4.278 0 0 1-6.055 0l-9.992-9.999a4.289 4.289 0 0 1-1.254-3.031v-15.367Zm4.282 81.427a4.284 4.284 0 0 1-4.282-4.286v-15.367c0-1.137.451-2.227 1.254-3.031l9.992-9.999a4.278 4.278 0 0 1 6.055 0l9.992 9.999a4.289 4.289 0 0 1 1.254 3.031v15.367a4.284 4.284 0 0 1-4.282 4.286h-19.983Zm48.53-57.142a4.284 4.284 0 0 1 4.282 4.286v19.999a4.284 4.284 0 0 1-4.282 4.286h-15.354a4.283 4.283 0 0 1-3.028-1.255l-9.992-10a4.289 4.289 0 0 1 0-6.061l9.992-10a4.283 4.283 0 0 1 3.028-1.255h15.354ZM251.218 130a4.284 4.284 0 0 1 4.282-4.286h15.354c1.136 0 2.225.452 3.028 1.255l9.992 10a4.289 4.289 0 0 1 0 6.061l-9.992 10a4.283 4.283 0 0 1-3.028 1.255H255.5a4.284 4.284 0 0 1-4.282-4.286V130Zm268.344 10c0-24.002 0-36.003 4.667-45.17a42.837 42.837 0 0 1 18.713-18.73c9.16-4.67 21.151-4.67 45.133-4.67 23.982 0 35.973 0 45.133 4.67a42.837 42.837 0 0 1 18.713 18.73c4.667 9.167 4.667 21.168 4.667 45.17 0 24.001 0 36.002-4.667 45.17a42.838 42.838 0 0 1-18.713 18.729c-9.16 4.671-21.151 4.671-45.133 4.671-23.982 0-35.973 0-45.133-4.671a42.838 42.838 0 0 1-18.713-18.729c-4.667-9.168-4.667-21.169-4.667-45.17Zm68.513-44.285c-8.671 0-15.701 7.035-15.701 15.714 0 8.678 7.03 15.714 15.701 15.714s15.701-7.036 15.701-15.714c0-8.679-7.03-15.714-15.701-15.714Zm-15.701 72.855c0 8.679 7.03 15.714 15.701 15.714s15.701-7.035 15.701-15.714c0-8.678-7.03-15.714-15.701-15.714s-15.701 7.036-15.701 15.714ZM632.323 140c0-8.679-7.029-15.714-15.701-15.714-8.671 0-15.701 7.035-15.701 15.714 0 8.678 7.03 15.714 15.701 15.714 8.672 0 15.701-7.036 15.701-15.714Zm-72.795-15.714c-8.672 0-15.701 7.035-15.701 15.714 0 8.678 7.029 15.714 15.701 15.714 8.671 0 15.701-7.036 15.701-15.714 0-8.679-7.03-15.714-15.701-15.714Z" fill="#4B00A3"/><path fill-rule="evenodd" clip-rule="evenodd" d="M321.999 71.997c7.224.58 12.558 1.747 17.172 4.1a42.84 42.84 0 0 1 18.714 18.73c4.667 9.167 4.667 21.168 4.667 45.17 0 24.002 0 36.002-4.667 45.17a42.84 42.84 0 0 1-18.714 18.729c-9.159 4.671-21.15 4.671-45.133 4.671-23.981 0-35.973 0-45.132-4.671a42.846 42.846 0 0 1-18.714-18.729c-4.667-9.168-4.667-21.168-4.667-45.17 0-24.002 0-36.003 4.667-45.17a42.845 42.845 0 0 1 18.714-18.73c4.615-2.353 9.948-3.52 17.171-4.1h55.922Zm134.759-46.284c5.303 0 7.953 0 10.185.235 20.108 2.115 35.997 18.018 38.111 38.142.234 2.233.234 4.887.234 10.194v87.141c0 21.991-16.55 40.113-37.864 42.572h-52.735c-21.314-2.459-37.864-20.581-37.864-42.572v-42.856c0-23.67 19.172-42.857 42.821-42.857H439.629c4.038 0 6.057 0 7.31-1.255 1.254-1.255 1.254-3.275 1.254-7.316V34.284c0-4.04 0-6.06 1.255-7.316 1.254-1.255 3.273-1.255 7.31-1.255ZM208.103 203.997c.797-.182 1.404-.481 1.894-.971 1.255-1.255 1.255-3.275 1.255-7.316V84.283c0-4.04 0-6.06-1.255-7.316-1.254-1.255-3.272-1.255-7.309-1.255h-39.966c-4.037 0-6.057 0-7.311 1.255-1.254 1.256-1.254 3.276-1.254 7.317v59.284a3.569 3.569 0 1 1-7.136 0V84.283c0-4.04 0-6.06-1.254-7.316-1.255-1.255-3.274-1.255-7.311-1.255H98.49c-4.037 0-6.055 0-7.31 1.255-1.254 1.256-1.254 3.276-1.254 7.317v59.284a3.57 3.57 0 1 1-7.137 0V84.283c0-4.04 0-6.06-1.254-7.316-1.255-1.255-3.273-1.255-7.31-1.255H34.259c-4.037 0-6.056 0-7.31 1.255-1.255 1.256-1.255 3.276-1.255 7.317v62.855c0 13.286 0 19.928 1.46 25.378a42.84 42.84 0 0 0 30.279 30.304c2.29.614 4.79.97 7.908 1.176h142.762Zm219.828-74c-1.148 1.989-1.148 4.659-1.148 10 0 5.34 0 8.011 1.148 10a8.572 8.572 0 0 0 3.134 3.137c1.988 1.148 4.656 1.148 9.992 1.148 5.336 0 8.004 0 9.991-1.148a8.552 8.552 0 0 0 3.135-3.137c1.147-1.989 1.147-4.66 1.147-10 0-5.341 0-8.011-1.147-10a8.552 8.552 0 0 0-3.135-3.137c-1.987-1.149-4.655-1.149-9.991-1.149-5.336 0-8.004 0-9.992 1.149a8.572 8.572 0 0 0-3.134 3.137Zm96.298-35.17c-4.667 9.167-4.667 21.168-4.667 45.17 0 24.002 0 36.002 4.667 45.17a42.838 42.838 0 0 0 18.713 18.729c9.161 4.671 21.151 4.671 45.133 4.671 23.982 0 35.973 0 45.133-4.671a42.843 42.843 0 0 0 18.713-18.729c4.667-9.168 4.667-21.168 4.667-45.17 0-24.002 0-36.003-4.667-45.17a42.843 42.843 0 0 0-18.713-18.73c-4.615-2.353-9.948-3.52-17.172-4.1h-55.922c-7.223.58-12.556 1.747-17.172 4.1a42.837 42.837 0 0 0-18.713 18.73Z" fill="#fff"/><path fill-rule="evenodd" clip-rule="evenodd" d="M279.765 101.429a4.284 4.284 0 0 1 4.282-4.286h19.983a4.284 4.284 0 0 1 4.282 4.286v15.367a4.285 4.285 0 0 1-1.254 3.03l-9.991 10a4.28 4.28 0 0 1-6.056 0l-9.992-10a4.285 4.285 0 0 1-1.254-3.03v-15.367Zm4.282 81.427a4.284 4.284 0 0 1-4.282-4.286v-15.367c0-1.137.451-2.227 1.254-3.031l9.992-9.999a4.28 4.28 0 0 1 6.056 0l9.991 9.999a4.289 4.289 0 0 1 1.254 3.031v15.367a4.284 4.284 0 0 1-4.282 4.286h-19.983Zm48.53-57.142a4.284 4.284 0 0 1 4.282 4.286v19.999a4.284 4.284 0 0 1-4.282 4.286h-15.354a4.283 4.283 0 0 1-3.028-1.255l-9.992-10a4.289 4.289 0 0 1 0-6.061l9.992-10a4.278 4.278 0 0 1 3.028-1.255h15.354ZM251.218 130a4.284 4.284 0 0 1 4.282-4.286h15.354c1.136 0 2.225.451 3.028 1.255l9.992 10a4.289 4.289 0 0 1 0 6.061l-9.992 10a4.283 4.283 0 0 1-3.028 1.255H255.5a4.284 4.284 0 0 1-4.282-4.286V130Z" fill="#C3C2CA"/><path fill-rule="evenodd" clip-rule="evenodd" d="M559.527 124.286c-8.671 0-15.701 7.035-15.701 15.714 0 8.678 7.03 15.714 15.701 15.714 8.672 0 15.701-7.036 15.701-15.714 0-8.679-7.029-15.714-15.701-15.714Z" fill="#FFA722"/><path fill-rule="evenodd" clip-rule="evenodd" d="M572.374 168.57c0 8.679 7.03 15.714 15.701 15.714s15.701-7.035 15.701-15.714c0-8.678-7.03-15.714-15.701-15.714s-15.701 7.036-15.701 15.714Z" fill="#26E1ED"/><path fill-rule="evenodd" clip-rule="evenodd" d="M632.323 140c0-8.679-7.03-15.714-15.701-15.714-8.672 0-15.701 7.035-15.701 15.714 0 8.678 7.029 15.714 15.701 15.714 8.671 0 15.701-7.036 15.701-15.714Z" fill="#FF3815"/><path fill-rule="evenodd" clip-rule="evenodd" d="M588.075 95.715c-8.671 0-15.701 7.035-15.701 15.714 0 8.678 7.03 15.714 15.701 15.714s15.701-7.036 15.701-15.714c0-8.679-7.03-15.714-15.701-15.714Z" fill="#6100D4"/></svg>