<svg width="56" height="48" viewBox="0 0 56 48" fill="none" xmlns="http://www.w3.org/2000/svg">
<g filter="url(#filter0_d_199:1503)">
<path d="M0 8C0 3.58172 3.58172 0 8 0H48C52.4183 0 56 3.58172 56 8V34C56 38.4183 52.4183 42 48 42H8C3.58172 42 0 38.4183 0 34V8Z" fill="#6100D4"/>
<path d="M30 16.0003L25 21.0006L30 26.0008" stroke="white" stroke-width="2" stroke-linecap="round" stroke-linejoin="round"/>
<path d="M8 3H48V-3H8V3ZM53 8V34H59V8H53ZM48 39H8V45H48V39ZM3 34V8H-3V34H3ZM8 39C5.23858 39 3 36.7614 3 34H-3C-3 40.0751 1.92487 45 8 45V39ZM53 34C53 36.7614 50.7614 39 48 39V45C54.0751 45 59 40.0751 59 34H53ZM48 3C50.7614 3 53 5.23858 53 8H59C59 1.92487 54.0751 -3 48 -3V3ZM8 -3C1.92487 -3 -3 1.92487 -3 8H3C3 5.23858 5.23858 3 8 3V-3Z" fill="white"/>
</g>
<defs>
<filter id="filter0_d_199:1503" x="0" y="0" width="56" height="48" filterUnits="userSpaceOnUse" color-interpolation-filters="sRGB">
<feFlood flood-opacity="0" result="BackgroundImageFix"/>
<feColorMatrix in="SourceAlpha" type="matrix" values="0 0 0 0 0 0 0 0 0 0 0 0 0 0 0 0 0 0 127 0" result="hardAlpha"/>
<feOffset dy="6"/>
<feColorMatrix type="matrix" values="0 0 0 0 1 0 0 0 0 1 0 0 0 0 1 0 0 0 1 0"/>
<feBlend mode="normal" in2="BackgroundImageFix" result="effect1_dropShadow_199:1503"/>
<feBlend mode="normal" in="SourceGraphic" in2="effect1_dropShadow_199:1503" result="shape"/>
</filter>
</defs>
</svg>
