<svg width="24" height="24" viewBox="0 0 24 24" fill="none" xmlns="http://www.w3.org/2000/svg">
<path d="M15 16.9994H20L18.595 15.5944C18.4063 15.4057 18.2567 15.1817 18.1546 14.9351C18.0525 14.6885 18 14.4243 18 14.1574V10.9994C18.0002 9.75835 17.6156 8.54775 16.8992 7.5343C16.1829 6.52085 15.17 5.75438 14 5.34041V4.99941C14 4.46898 13.7893 3.96027 13.4142 3.5852C13.0391 3.21013 12.5304 2.99941 12 2.99941C11.4696 2.99941 10.9609 3.21013 10.5858 3.5852C10.2107 3.96027 10 4.46898 10 4.99941V5.34041C7.67 6.16441 6 8.38741 6 10.9994V14.1584C6 14.6964 5.786 15.2134 5.405 15.5944L4 16.9994H9M15 16.9994H9M15 16.9994V17.9994C15 18.7951 14.6839 19.5581 14.1213 20.1207C13.5587 20.6833 12.7956 20.9994 12 20.9994C11.2044 20.9994 10.4413 20.6833 9.87868 20.1207C9.31607 19.5581 9 18.7951 9 17.9994V16.9994" stroke="#313336" stroke-width="2" stroke-linecap="round" stroke-linejoin="round"/>
</svg>
