<svg width="37" height="13" viewBox="0 0 37 13" fill="none" xmlns="http://www.w3.org/2000/svg">
<path d="M4.92388 10.992C3.57988 10.992 2.98788 10.48 2.60388 9.696C2.36388 9.232 2.29988 8.272 2.25188 7.632C2.23588 7.296 2.23588 6.864 2.23588 6.304C2.23588 5.52 2.23588 5.104 2.31588 4.352C2.39588 3.6 2.52387 3.2 2.77988 2.64C3.13188 1.888 3.81988 1.424 4.92388 1.424C6.49188 1.424 7.32388 2.288 7.41988 4C7.43588 4.24 7.57988 4.336 7.81988 4.288L8.33188 4.176C8.63588 4.112 8.69988 4.016 8.68388 3.712C8.52388 2.272 8.15588 1.168 6.68388 0.559999C6.18788 0.384 5.61188 0.287999 4.92388 0.287999C4.23588 0.287999 3.65988 0.4 3.16388 0.639999C2.18788 1.104 1.65988 1.776 1.33988 2.912C1.01988 4.016 0.955875 4.944 0.955875 6.304C0.955875 7.856 1.03588 8.832 1.35588 9.872C1.51588 10.384 1.73988 10.8 2.02788 11.104C2.60388 11.728 3.56388 12.128 4.92388 12.128C6.25188 12.128 7.17988 11.824 7.73988 11.2C8.29988 10.576 8.61987 9.728 8.66788 8.656C8.68388 8.4 8.55588 8.256 8.31588 8.208L7.83588 8.128C7.57988 8.08 7.43588 8.192 7.41988 8.448C7.32388 10.144 6.49188 10.992 4.92388 10.992ZM19.1038 4.464C19.1038 1.632 18.1118 0.287999 15.9198 0.287999C13.7278 0.287999 12.7518 1.632 12.7518 4.464C12.7518 7.328 13.7278 8.656 15.9198 8.656C18.1438 8.656 19.1038 7.328 19.1038 4.464ZM15.9198 7.616C14.5278 7.616 13.9358 6.672 13.9358 4.48C13.9358 2.288 14.5278 1.312 15.9198 1.312C17.3278 1.312 17.9038 2.272 17.9038 4.464C17.9038 6.688 17.3278 7.616 15.9198 7.616ZM10.4958 11.616C10.4958 11.872 10.6238 12 10.8798 12H18.6238C18.8798 12 19.0078 11.872 19.0078 11.616V11.264C19.0078 11.008 18.8798 10.88 18.6238 10.88H11.7598V0.799999C11.7598 0.544 11.6318 0.415999 11.3758 0.415999H10.8798C10.6238 0.415999 10.4958 0.544 10.4958 0.799999V11.616ZM23.9755 11.008C22.4555 11.008 21.6555 10.272 21.5115 9.248C21.4795 8.992 21.3355 8.88 21.0635 8.928L20.6315 8.992C20.4235 9.008 20.2795 9.232 20.2955 9.44C20.3755 10.208 20.7275 10.848 21.3195 11.376C21.9275 11.904 22.8075 12.16 23.9435 12.144C26.5195 12.128 27.6395 10.88 27.6395 9.104C27.6395 4.864 21.7675 6.064 21.7675 3.264C21.7675 2.224 22.4875 1.424 23.9755 1.424C25.4315 1.424 26.2155 2.08 26.3595 3.376C26.3755 3.616 26.5195 3.728 26.7755 3.696L27.2235 3.632C27.4795 3.6 27.5915 3.456 27.5755 3.184C27.4475 1.392 26.1995 0.287999 23.9435 0.287999C22.8075 0.287999 21.9595 0.591999 21.3675 1.184C20.7915 1.776 20.5035 2.464 20.5035 3.248C20.5035 7.28 26.3595 5.904 26.3595 8.992C26.3595 10.336 25.5595 11.008 23.9755 11.008ZM30.7129 6.656H34.9529C35.2089 6.656 35.3369 6.528 35.3369 6.272V5.92C35.3369 5.664 35.2089 5.536 34.9529 5.536H30.7129V1.536H35.8489C36.1049 1.536 36.2329 1.408 36.2329 1.152V0.799999C36.2329 0.544 36.1049 0.415999 35.8489 0.415999H29.8329C29.5929 0.415999 29.4489 0.591999 29.4489 0.799999V11.616C29.4489 11.824 29.5929 12 29.8329 12H35.8489C36.1049 12 36.2329 11.872 36.2329 11.616V11.264C36.2329 11.008 36.1049 10.88 35.8489 10.88H30.7129V6.656Z" fill="#B7BAC6"/>
<path d="M0.171875 13.6H36.8249V14.4H0.171875V13.6Z" fill="#B7BAC6"/>
</svg>
