<svg width="191" height="157" viewBox="0 0 191 157" fill="none" xmlns="http://www.w3.org/2000/svg">
<path d="M15.8174 50.9921C15.8174 50.9921 -10.7372 27.2978 12.5051 8.98101C35.7474 -9.33582 44.9587 20.184 44.9587 20.184C44.9587 20.184 20.4324 37.5859 15.8174 51.0854" fill="white"/>
<path d="M15.8174 50.9921C15.8174 50.9921 -10.7372 27.2978 12.5051 8.98101C35.7474 -9.33582 44.9587 20.184 44.9587 20.184C44.9587 20.184 20.4324 37.5859 15.8174 51.0854" stroke="#672938" stroke-width="4" stroke-linecap="round" stroke-linejoin="round"/>
<path d="M175.201 50.9921C175.201 50.9921 201.756 27.2978 178.514 8.98101C155.271 -9.33582 146.06 20.184 146.06 20.184C146.06 20.184 170.586 37.5859 175.201 51.0854" fill="white"/>
<path d="M175.201 50.9921C175.201 50.9921 201.756 27.2978 178.514 8.98101C155.271 -9.33582 146.06 20.184 146.06 20.184C146.06 20.184 170.586 37.5859 175.201 51.0854" stroke="#672938" stroke-width="4" stroke-linecap="round" stroke-linejoin="round"/>
<path d="M171.449 41.6654C171.449 41.6654 179.748 30.5745 175.636 24.2261C173.347 20.6785 168.788 18.0272 165.196 16.3841C163.806 15.7489 162.24 15.6138 160.763 16.0015C159.285 16.3892 157.985 17.276 157.083 18.5126L153.473 23.4419L171.449 41.6654Z" fill="black"/>
<path d="M19.3379 42.8825C19.3379 42.8825 11.0198 31.7916 15.1509 25.4432C17.4398 21.8956 21.999 19.2442 25.5718 17.6011C26.9647 16.9647 28.5336 16.8288 30.0146 17.2165C31.4956 17.6041 32.7983 18.4916 33.7038 19.7297L37.3139 24.659L19.3379 42.8825Z" fill="black"/>
<path d="M5.86182 84.3209C5.86182 123.27 45.7589 154.844 94.9604 154.844C144.162 154.844 184.059 123.27 184.059 84.3209C184.059 45.3719 144.534 5.65747 95.3326 5.65747C46.1311 5.65747 5.86182 45.3719 5.86182 84.3209Z" fill="white" stroke="#672938" stroke-width="4" stroke-linecap="round" stroke-linejoin="round"/>
<path d="M113 123C113 125.667 113 131.2 113 132" stroke="black"/>
<path d="M62.9532 105.532C62.9532 88.0739 73.002 77.2444 87.8145 77.2444C102.627 77.2444 114.667 91.3788 114.667 108.818C114.667 126.257 103.669 137.162 88.8566 137.162C74.0441 137.162 62.9532 122.971 62.9532 105.532Z" fill="#E5E3E8"/>
<path d="M95.4256 138.002C110.245 138.002 122.259 123.866 122.259 106.428C122.259 88.9905 110.245 74.8545 95.4256 74.8545C80.6057 74.8545 68.5918 88.9905 68.5918 106.428C68.5918 123.866 80.6057 138.002 95.4256 138.002Z" fill="white"/>
<path d="M100.655 110.555H89.8244C88.6611 110.552 87.5265 110.193 86.5721 109.525C85.6177 108.858 84.8891 107.914 84.4837 106.82C84.1514 105.951 84.0349 105.015 84.1442 104.091C84.2536 103.166 84.5854 102.283 85.1112 101.517C85.637 100.75 86.3409 100.123 87.1621 99.6909C87.9832 99.2584 88.897 99.033 89.8244 99.0342H100.655C101.581 99.0374 102.492 99.2656 103.311 99.6993C104.129 100.133 104.831 100.759 105.356 101.525C105.881 102.29 106.213 103.171 106.325 104.094C106.436 105.016 106.323 105.951 105.995 106.82C105.588 107.913 104.859 108.855 103.905 109.522C102.951 110.189 101.817 110.549 100.655 110.555Z" fill="black"/>
<path d="M131.024 94.7211C126.856 94.7211 124.269 87.8313 126.912 83.2568C127.169 82.3617 127.709 81.5748 128.451 81.0148C129.193 80.4547 130.096 80.1519 131.024 80.1519C131.952 80.1519 132.856 80.4547 133.597 81.0148C134.339 81.5748 134.879 82.3617 135.137 83.2568C137.779 87.8313 135.137 94.7211 131.024 94.7211V94.7211Z" fill="white"/>
<path d="M61.1855 94.7211C57.0172 94.7211 54.4306 87.8313 57.073 83.2568C57.3302 82.3617 57.8704 81.5748 58.6122 81.0148C59.354 80.4547 60.2572 80.1519 61.1855 80.1519C62.1139 80.1519 63.0171 80.4547 63.7589 81.0148C64.5007 81.5748 65.0409 82.3617 65.2981 83.2568C67.9219 87.8313 65.2981 94.7211 61.1855 94.7211V94.7211Z" fill="white"/>
<path d="M48.489 21C46.6421 22.0198 44.9708 23.3311 43.5391 24.8837C41.7373 26.4365 40.0226 28.0884 38.4031 29.8317C27.8705 41.0346 22.7345 55.0943 21.6552 70.4424C20.7854 82.5303 21.7072 94.6807 24.3907 106.497C27.7265 119.571 35.1002 131.251 45.4558 139.863C45.4558 139.863 17.0961 127.951 8.70354 98.0763C0.310998 68.2018 25.6561 39.1114 25.6561 39.1114C25.6561 39.1114 38.9986 23.7634 48.489 21Z" fill="#E5E3E8"/>
<path d="M18 43.4716C18 43.4716 12.7598 42.5134 9.59636 30.2835C6.43287 18.0536 21 6 21 6C21 6 5.30018 12.0897 4.5 26C4.66748 32.1243 6 38.5 15.3203 47.6167L18 43.4716Z" fill="#E5E3E8"/>
<line x1="53.7678" y1="55.2322" x2="69.7678" y2="71.2322" stroke="black" stroke-width="5"/>
<line x1="69.7678" y1="55.7678" x2="53.7678" y2="71.7678" stroke="black" stroke-width="5"/>
<line x1="123.768" y1="55.2322" x2="139.768" y2="71.2322" stroke="black" stroke-width="5"/>
<line x1="139.768" y1="55.7678" x2="123.768" y2="71.7678" stroke="black" stroke-width="5"/>
<path d="M107.5 135.5C104.3 133.1 104.5 125.5 105 122C110.167 121 120.874 120.994 121 122C122 130 120.5 134 118.5 135.5C116.168 137.249 111.5 138.5 107.5 135.5Z" fill="#D03737" stroke="black"/>
<ellipse cx="98.5" cy="121.5" rx="23.5" ry="1.5" fill="black"/>
<line x1="113" y1="122" x2="113" y2="133" stroke="black"/>
</svg>
