<svg width="446" height="345" viewBox="0 0 446 345" fill="none" xmlns="http://www.w3.org/2000/svg">
<path d="M0 258.106C0 144.582 92.0281 52.554 205.552 52.554C319.075 52.554 411.104 144.582 411.104 258.106H0V258.106Z" fill="#CCFFDA"/>
<mask id="mask0_2_14190" style="mask-type:alpha" maskUnits="userSpaceOnUse" x="63" y="0" width="237" height="258">
<rect x="63" width="237" height="258" fill="#C4C4C4"/>
</mask>
<g mask="url(#mask0_2_14190)">
<path d="M162.224 168.395C157.814 174.423 152.08 177.804 146.2 177.804H145.318H144.436C138.555 177.804 132.822 174.423 128.411 168.395L127.382 166.778V182.656L122.972 184.42L124.736 186.919C129.44 193.682 137.085 197.651 145.318 197.651C153.55 197.651 161.195 193.682 165.899 186.919L167.664 184.42L163.253 182.656V166.778L162.224 168.395Z" fill="#BD6C67"/>
<path d="M144.582 177.804H145.464H146.346C152.227 177.804 157.96 174.423 162.371 168.395L163.547 166.778V145.755H145.317H127.382V166.778L128.558 168.395C132.821 174.423 138.555 177.804 144.582 177.804Z" fill="#3C3247"/>
<path d="M145.318 169.425C185.752 169.425 218.53 136.646 218.53 96.2123C218.53 55.7783 185.752 23 145.318 23C104.884 23 72.1055 55.7783 72.1055 96.2123C72.1055 136.646 104.884 169.425 145.318 169.425Z" fill="#302A37"/>
<path d="M104.21 136.494C110.967 133.713 114.19 125.98 111.409 119.223C108.628 112.466 100.895 109.243 94.1381 112.024C87.381 114.805 84.1579 122.538 86.9391 129.295C89.7203 136.052 97.4526 139.275 104.21 136.494Z" fill="#A64F5A"/>
<path d="M106.506 124.292C106.506 128.408 103.125 131.789 99.0084 131.789C94.892 131.789 91.5107 128.408 91.5107 124.292C91.5107 120.175 94.892 116.794 99.0084 116.794C103.272 116.794 106.506 120.175 106.506 124.292Z" fill="#8C404C"/>
<path d="M203.945 129.33C206.726 122.573 203.503 114.841 196.746 112.06C189.989 109.279 182.256 112.502 179.475 119.259C176.694 126.016 179.917 133.748 186.674 136.529C193.431 139.311 201.164 136.087 203.945 129.33Z" fill="#A64F5A"/>
<path d="M184.276 124.292C184.276 128.408 187.658 131.789 191.774 131.789C195.89 131.789 199.272 128.408 199.272 124.292C199.272 120.175 195.89 116.794 191.774 116.794C187.511 116.794 184.276 120.175 184.276 124.292Z" fill="#8C404C"/>
<path d="M101.066 118.705H105.183L107.829 95.0361H99.1553L101.066 118.705Z" fill="url(#paint0_linear_2_14190)"/>
<path d="M182.806 95.0364L185.599 118.705H189.715L191.626 95.0364H182.806Z" fill="url(#paint1_linear_2_14190)"/>
<path d="M145.318 72.5432C129.146 72.5432 115.327 75.7775 108.564 80.6289C106.359 85.6273 105.036 91.2138 105.036 96.9473V120.469C105.036 135.318 111.358 149.578 122.237 159.722L123.854 161.192C129.44 166.19 136.644 168.984 144.142 168.984H145.171H146.494C153.991 168.984 161.195 166.19 166.781 161.192L168.399 159.722C179.425 149.578 185.599 135.465 185.599 120.469V96.9473C185.599 91.0668 184.276 85.6273 182.071 80.6289C175.455 75.9245 161.489 72.5432 145.318 72.5432Z" fill="#BD6C67"/>
<path d="M127.382 114.736C129.412 114.736 131.058 113.09 131.058 111.061C131.058 109.031 129.412 107.385 127.382 107.385C125.353 107.385 123.707 109.031 123.707 111.061C123.707 113.09 125.353 114.736 127.382 114.736Z" fill="#3C3247"/>
<path d="M163.4 114.736C165.43 114.736 167.075 113.09 167.075 111.061C167.075 109.031 165.43 107.385 163.4 107.385C161.37 107.385 159.725 109.031 159.725 111.061C159.725 113.09 161.37 114.736 163.4 114.736Z" fill="#3C3247"/>
<path d="M154.727 129.878C148.552 128.555 142.084 128.555 135.909 129.878C138.114 132.818 141.79 135.024 145.465 135.171C149.287 135.318 153.11 133.112 154.727 129.878Z" fill="#A64F5A"/>
<path d="M126.5 96.2122C121.648 95.9182 117.091 97.8294 113.856 101.211C122.089 102.093 130.322 102.681 138.555 102.681C135.761 99.0055 131.498 96.5063 126.5 96.2122Z" fill="#3C3247"/>
<path d="M164.135 96.2122C168.987 95.9182 173.544 97.8294 176.778 101.211C168.545 102.093 160.313 102.681 152.08 102.681C155.02 99.0055 159.284 96.5063 164.135 96.2122Z" fill="#3C3247"/>
<path opacity="0.3" d="M127.382 126.791C134.04 126.791 139.437 121.394 139.437 114.736C139.437 108.078 134.04 102.681 127.382 102.681C120.724 102.681 115.327 108.078 115.327 114.736C115.327 121.394 120.724 126.791 127.382 126.791Z" fill="white"/>
<path opacity="0.3" d="M163.401 126.791C170.059 126.791 175.456 121.394 175.456 114.736C175.456 108.078 170.059 102.681 163.401 102.681C156.743 102.681 151.346 108.078 151.346 114.736C151.346 121.394 156.743 126.791 163.401 126.791Z" fill="white"/>
<path d="M163.401 99.5935C156.785 99.5935 151.199 103.857 149.14 109.884C148.111 109.149 146.788 108.708 145.465 108.708C143.995 108.708 142.819 109.149 141.79 109.884C139.732 103.857 134.145 99.5935 127.529 99.5935C119.15 99.5935 112.534 106.356 112.534 114.589C112.534 122.969 119.297 129.584 127.529 129.584C135.909 129.584 142.672 122.822 142.672 114.589C142.672 114.148 142.672 113.854 142.672 113.413C142.672 112.531 143.848 111.649 145.612 111.649C147.376 111.649 148.552 112.678 148.552 113.413C148.552 113.854 148.552 114.148 148.552 114.589C148.552 122.969 155.315 129.584 163.548 129.584C171.927 129.584 178.543 122.822 178.543 114.589C178.396 106.356 171.633 99.5935 163.401 99.5935ZM115.327 114.736C115.327 108.12 120.767 102.681 127.382 102.681C133.998 102.681 139.585 108.12 139.585 114.736C139.585 121.351 134.145 126.791 127.382 126.791C120.767 126.791 115.327 121.351 115.327 114.736ZM151.199 114.736C151.199 108.12 156.638 102.681 163.254 102.681C169.869 102.681 175.309 108.12 175.309 114.736C175.309 121.351 169.869 126.791 163.254 126.791C156.638 126.791 151.199 121.351 151.199 114.736Z" fill="#454F6B"/>
<path d="M185.746 118.705L179.865 135.171C179.13 137.082 177.072 137.964 175.308 136.935L171.191 134.73C168.545 133.406 165.605 132.965 162.665 133.259L145.317 135.171L128.264 133.259C125.323 132.965 122.383 133.553 119.884 134.877L115.621 136.935C113.857 137.817 111.651 136.935 111.063 135.171L105.183 118.705H101.066V128.996C101.066 138.552 103.713 147.961 108.564 156.193L109.74 158.252C115.768 168.248 126.5 174.423 138.261 174.423H145.464H152.668C164.429 174.423 175.161 168.248 181.188 158.252L182.364 156.193C187.216 147.961 189.862 138.552 189.862 128.996V118.705H185.746ZM164.282 143.844L161.195 152.959C160.313 155.605 157.813 157.223 155.02 156.928H153.844C151.786 156.781 150.022 155.899 148.552 154.429H145.464H142.377C141.054 155.899 139.143 156.781 137.085 156.928L135.761 157.076C133.115 157.37 130.469 155.605 129.587 153.106L126.5 143.991C125.912 142.227 127.382 140.61 129.146 140.757L135.467 141.492C138.702 141.933 141.936 141.492 145.023 140.463L145.317 140.316L145.758 140.463C148.846 141.492 152.08 141.933 155.314 141.492L161.636 140.757C163.4 140.463 164.87 142.08 164.282 143.844Z" fill="#3C3247"/>
<path d="M130.853 144.027H159.178V144.027C159.178 148.293 155.719 151.752 151.453 151.752H138.578C134.311 151.752 130.853 148.293 130.853 144.027V144.027Z" fill="white"/>
<path d="M192.209 262.395L220.146 255.779L192.679 199.476C192.206 198.109 191.319 196.923 190.141 196.082C188.964 195.242 187.554 194.788 186.108 194.784H103.33C102.095 194.785 100.883 195.113 99.8159 195.734C98.7491 196.356 97.866 197.248 97.2561 198.321H97.1621L69 255.798L97.1621 262.366L95.8198 283.752C95.7461 284.71 95.8713 285.673 96.1874 286.581C96.5036 287.488 97.0038 288.32 97.657 289.025C98.3101 289.73 99.1021 290.292 99.9829 290.677C100.864 291.061 101.815 291.26 102.776 291.259H186.577C187.538 291.26 188.489 291.061 189.37 290.677C190.251 290.292 191.043 289.73 191.696 289.025C192.349 288.32 192.849 287.488 193.166 286.581C193.482 285.673 193.607 284.71 193.533 283.752L192.209 262.395Z" fill="#FBE854" stroke="#672938" stroke-width="3" stroke-linecap="round" stroke-linejoin="round"/>
<path d="M144.493 197.28V290.565" stroke="#672938" stroke-width="3" stroke-linecap="round" stroke-linejoin="round"/>
<path d="M183.517 215.747L181.292 209.563" stroke="#42A54B" stroke-width="0.3"/>
<path d="M179.518 210.201L181.752 216.385" stroke="#42A54B" stroke-width="0.3"/>
<path d="M171.717 214.19L173.331 207.818" stroke="#42A54B" stroke-width="0.3"/>
<path d="M171.52 207.358L169.896 213.72" stroke="#42A54B" stroke-width="0.3"/>
<path d="M166.422 214.039L160.367 211.478" stroke="#42A54B" stroke-width="0.3"/>
<path d="M151.478 213.692L153.271 207.367" stroke="#42A54B" stroke-width="0.3"/>
<path d="M151.459 206.861L149.676 213.176" stroke="#42A54B" stroke-width="0.3"/>
<path d="M145.769 213.326L143.873 207.039" stroke="#42A54B" stroke-width="0.3"/>
<path d="M142.071 207.574L143.968 213.871" stroke="#42A54B" stroke-width="0.3"/>
<path d="M185.413 208.043L189.572 213.129" stroke="#42A54B" stroke-width="0.3"/>
<path d="M191.027 211.937L186.868 206.851" stroke="#42A54B" stroke-width="0.3"/>
<path d="M185.413 208.043L189.572 213.129" stroke="#42A54B" stroke-width="0.3"/>
<path d="M191.027 211.937L186.868 206.851" stroke="#42A54B" stroke-width="0.3"/>
<path d="M179.518 210.201L181.752 216.385" stroke="#42A54B" stroke-width="0.3"/>
<path d="M183.517 215.747L181.292 209.563" stroke="#42A54B" stroke-width="0.3"/>
<path d="M171.52 207.358L169.896 213.72" stroke="#42A54B" stroke-width="0.3"/>
<path d="M171.717 214.19L173.331 207.818" stroke="#42A54B" stroke-width="0.3"/>
<path d="M151.459 206.861L149.676 213.176" stroke="#42A54B" stroke-width="0.3"/>
<path d="M151.478 213.692L153.271 207.367" stroke="#42A54B" stroke-width="0.3"/>
<path d="M142.071 207.574L143.968 213.871" stroke="#42A54B" stroke-width="0.3"/>
<path d="M145.769 213.326L143.873 207.039" stroke="#42A54B" stroke-width="0.3"/>
<path d="M156.894 186.235L152.979 193.066" stroke="#42A54B" stroke-width="0.36"/>
<path d="M154.932 194.193L158.856 187.352" stroke="#42A54B" stroke-width="0.36"/>
<path d="M165.746 198.734L167.633 205.031" stroke="#42A54B" stroke-width="0.3"/>
<path d="M169.435 204.487L167.539 198.19" stroke="#42A54B" stroke-width="0.3"/>
<path d="M183.488 199.748L176.982 200.658" stroke="#42A54B" stroke-width="0.3"/>
<path d="M177.246 202.516L183.752 201.606" stroke="#42A54B" stroke-width="0.3"/>
<path d="M170.158 184.18L165.943 190.833" stroke="#42A54B" stroke-width="0.36"/>
<path d="M159.344 196.773L155.354 201.981" stroke="#42A54B" stroke-width="0.3"/>
<path d="M156.838 203.126L160.837 197.909" stroke="#42A54B" stroke-width="0.3"/>
<path d="M152.031 200.911L147.479 196.172" stroke="#42A54B" stroke-width="0.3"/>
<path d="M146.127 197.468L150.67 202.206" stroke="#42A54B" stroke-width="0.3"/>
<path d="M134.674 195.825L141.038 197.449" stroke="#42A54B" stroke-width="0.3"/>
<path d="M141.499 195.628L135.135 194.014" stroke="#42A54B" stroke-width="0.3"/>
<path d="M135.641 205.19L141.883 203.126" stroke="#42A54B" stroke-width="0.3"/>
<path d="M141.292 201.352L135.05 203.407" stroke="#42A54B" stroke-width="0.3"/>
<path d="M209.041 248.253L206.638 254.371" stroke="#42A54B" stroke-width="0.3"/>
<path d="M137.266 235.266L143.386 232.873" stroke="#42A54B" stroke-width="0.3"/>
<path d="M141.452 248.253L139.049 254.371" stroke="#42A54B" stroke-width="0.3"/>
<path d="M140.795 255.056L143.198 248.938" stroke="#42A54B" stroke-width="0.3"/>
<path d="M202.226 243.345L208.628 244.79" stroke="#42A54B" stroke-width="0.3"/>
<path d="M209.05 242.961L202.639 241.506" stroke="#42A54B" stroke-width="0.3"/>
<path d="M183.517 215.747L181.292 209.563" stroke="#42A54B" stroke-width="0.3"/>
<path d="M179.518 210.201L181.752 216.385" stroke="#42A54B" stroke-width="0.3"/>
<path d="M171.717 214.19L173.331 207.818" stroke="#42A54B" stroke-width="0.3"/>
<path d="M171.52 207.358L169.896 213.72" stroke="#42A54B" stroke-width="0.3"/>
<path d="M166.422 214.039L160.367 211.478" stroke="#42A54B" stroke-width="0.3"/>
<path d="M159.635 213.204L165.68 215.766" stroke="#42A54B" stroke-width="0.3"/>
<path d="M151.478 213.692L153.271 207.367" stroke="#42A54B" stroke-width="0.3"/>
<path d="M151.459 206.861L149.676 213.176" stroke="#42A54B" stroke-width="0.3"/>
<path d="M145.769 213.326L143.873 207.039" stroke="#42A54B" stroke-width="0.3"/>
<path d="M142.071 207.574L143.968 213.871" stroke="#42A54B" stroke-width="0.3"/>
<path d="M154.829 254.812L151.562 260.509" stroke="#42A54B" stroke-width="0.3"/>
<path d="M153.195 261.437L156.462 255.741" stroke="#42A54B" stroke-width="0.3"/>
<path d="M183.047 224.606L178.889 219.52" stroke="#42A54B" stroke-width="0.3"/>
<path d="M177.434 220.711L181.592 225.797" stroke="#42A54B" stroke-width="0.3"/>
<path d="M171.539 222.87L173.773 229.054" stroke="#42A54B" stroke-width="0.3"/>
<path d="M175.537 228.416L173.312 222.232" stroke="#42A54B" stroke-width="0.3"/>
<path d="M196.64 251.143L194.856 257.459" stroke="#42A54B" stroke-width="0.3"/>
<path d="M196.659 257.975L198.443 251.65" stroke="#42A54B" stroke-width="0.3"/>
<path d="M186.868 246.123L188.755 252.42" stroke="#42A54B" stroke-width="0.3"/>
<path d="M190.557 251.875L188.661 245.579" stroke="#42A54B" stroke-width="0.3"/>
<path d="M168.516 241.15L171.782 235.453" stroke="#42A54B" stroke-width="0.3"/>
<path d="M170.149 234.515L166.892 240.221" stroke="#42A54B" stroke-width="0.3"/>
<path d="M154.904 234.787L159.063 239.873" stroke="#42A54B" stroke-width="0.3"/>
<path d="M160.518 238.682L156.359 233.595" stroke="#42A54B" stroke-width="0.3"/>
<path d="M147.601 236.476L149.835 242.66" stroke="#42A54B" stroke-width="0.3"/>
<path d="M151.6 242.022L149.375 235.838" stroke="#42A54B" stroke-width="0.3"/>
<path d="M196.395 234.571L194.771 240.934" stroke="#42A54B" stroke-width="0.3"/>
<path d="M196.594 241.403L198.208 235.031" stroke="#42A54B" stroke-width="0.3"/>
<path d="M181.536 237.978L187.591 240.54" stroke="#42A54B" stroke-width="0.3"/>
<path d="M188.322 238.813L182.268 236.251" stroke="#42A54B" stroke-width="0.3"/>
<path d="M183.62 255.845L182.155 262.245" stroke="#42A54B" stroke-width="0.3"/>
<path d="M183.986 262.667L185.451 256.267" stroke="#42A54B" stroke-width="0.3"/>
<path d="M165.888 253.095L162.377 258.641" stroke="#42A54B" stroke-width="0.3"/>
<path d="M163.963 259.645L167.474 254.099" stroke="#42A54B" stroke-width="0.3"/>
<path d="M167.454 245.025L161.428 247.653" stroke="#42A54B" stroke-width="0.3"/>
<path d="M162.188 249.37L168.206 246.752" stroke="#42A54B" stroke-width="0.3"/>
<path d="M154.764 250.289L156.557 243.965" stroke="#42A54B" stroke-width="0.3"/>
<path d="M154.745 243.458L152.961 249.773" stroke="#42A54B" stroke-width="0.3"/>
<path d="M178.748 247.108L176.852 240.821" stroke="#42A54B" stroke-width="0.3"/>
<path d="M175.049 241.356L176.945 247.653" stroke="#42A54B" stroke-width="0.3"/>
<path d="M165.869 225.375L160.621 229.326" stroke="#42A54B" stroke-width="0.3"/>
<path d="M161.757 230.827L167.004 226.867" stroke="#42A54B" stroke-width="0.3"/>
<path d="M157.176 225.544L155.346 219.238" stroke="#42A54B" stroke-width="0.3"/>
<path d="M153.543 219.754L155.374 226.07" stroke="#42A54B" stroke-width="0.3"/>
<path d="M147.281 219.426L146.896 225.985" stroke="#42A54B" stroke-width="0.3"/>
<path d="M148.773 226.098L149.149 219.538" stroke="#42A54B" stroke-width="0.3"/>
<path d="M189.619 233.577L193.75 228.472" stroke="#42A54B" stroke-width="0.3"/>
<path d="M192.295 227.29L188.164 232.394" stroke="#42A54B" stroke-width="0.3"/>
<path d="M192.463 224.033L193.195 217.511" stroke="#42A54B" stroke-width="0.3"/>
<path d="M191.336 217.296L190.595 223.827" stroke="#42A54B" stroke-width="0.3"/>
<path d="M170.9 256.839L176.946 259.401" stroke="#42A54B" stroke-width="0.3"/>
<path d="M177.688 257.675L171.633 255.113" stroke="#42A54B" stroke-width="0.3"/>
<path d="M185.413 208.043L189.572 213.129" stroke="#42A54B" stroke-width="0.3"/>
<path d="M191.027 211.937L186.868 206.851" stroke="#42A54B" stroke-width="0.3"/>
<path d="M134.899 215.897L140.691 219.013" stroke="#42A54B" stroke-width="0.3"/>
<path d="M141.574 217.352L135.791 214.246" stroke="#42A54B" stroke-width="0.3"/>
<path d="M137.266 235.266L143.386 232.873" stroke="#42A54B" stroke-width="0.3"/>
<path d="M142.701 231.127L136.58 233.52" stroke="#42A54B" stroke-width="0.3"/>
<path d="M134.637 243.345L141.039 244.79" stroke="#42A54B" stroke-width="0.3"/>
<path d="M141.461 242.961L135.05 241.506" stroke="#42A54B" stroke-width="0.3"/>
<path d="M185.413 208.043L189.572 213.129" stroke="#42A54B" stroke-width="0.3"/>
<path d="M191.027 211.937L186.868 206.851" stroke="#42A54B" stroke-width="0.3"/>
<path d="M179.518 210.201L181.752 216.385" stroke="#42A54B" stroke-width="0.3"/>
<path d="M183.517 215.747L181.292 209.563" stroke="#42A54B" stroke-width="0.3"/>
<path d="M171.52 207.358L169.896 213.72" stroke="#42A54B" stroke-width="0.3"/>
<path d="M171.717 214.19L173.331 207.818" stroke="#42A54B" stroke-width="0.3"/>
<path d="M151.459 206.861L149.676 213.176" stroke="#42A54B" stroke-width="0.3"/>
<path d="M151.478 213.692L153.271 207.367" stroke="#42A54B" stroke-width="0.3"/>
<path d="M142.071 207.574L143.968 213.871" stroke="#42A54B" stroke-width="0.3"/>
<path d="M145.769 213.326L143.873 207.039" stroke="#42A54B" stroke-width="0.3"/>
<path d="M129.727 214.987L132.993 209.291" stroke="#42A54B" stroke-width="0.3"/>
<path d="M131.361 208.362L128.094 214.058" stroke="#42A54B" stroke-width="0.3"/>
<path d="M115.928 215.747L113.703 209.563" stroke="#42A54B" stroke-width="0.3"/>
<path d="M111.929 210.201L114.163 216.385" stroke="#42A54B" stroke-width="0.3"/>
<path d="M104.127 214.19L105.742 207.818" stroke="#42A54B" stroke-width="0.3"/>
<path d="M103.931 207.358L102.307 213.72" stroke="#42A54B" stroke-width="0.3"/>
<path d="M98.8332 214.039L92.7783 211.478" stroke="#42A54B" stroke-width="0.3"/>
<path d="M117.824 208.043L121.983 213.129" stroke="#42A54B" stroke-width="0.3"/>
<path d="M123.438 211.937L119.279 206.851" stroke="#42A54B" stroke-width="0.3"/>
<path d="M134.674 195.825L141.038 197.449" stroke="#42A54B" stroke-width="0.3"/>
<path d="M141.499 195.628L135.135 194.014" stroke="#42A54B" stroke-width="0.3"/>
<path d="M135.641 205.19L141.883 203.126" stroke="#42A54B" stroke-width="0.3"/>
<path d="M141.292 201.352L135.05 203.407" stroke="#42A54B" stroke-width="0.3"/>
<path d="M131.361 208.362L128.094 214.058" stroke="#42A54B" stroke-width="0.3"/>
<path d="M129.727 214.987L132.993 209.291" stroke="#42A54B" stroke-width="0.3"/>
<path d="M117.824 208.043L121.983 213.129" stroke="#42A54B" stroke-width="0.3"/>
<path d="M123.438 211.937L119.279 206.851" stroke="#42A54B" stroke-width="0.3"/>
<path d="M111.929 210.201L114.163 216.385" stroke="#42A54B" stroke-width="0.3"/>
<path d="M115.928 215.747L113.703 209.563" stroke="#42A54B" stroke-width="0.3"/>
<path d="M103.931 207.358L102.307 213.72" stroke="#42A54B" stroke-width="0.3"/>
<path d="M104.127 214.19L105.742 207.818" stroke="#42A54B" stroke-width="0.3"/>
<path d="M128.873 200.433L122.818 197.871" stroke="#42A54B" stroke-width="0.3"/>
<path d="M122.086 199.598L128.131 202.159" stroke="#42A54B" stroke-width="0.3"/>
<path d="M125.982 181.843L123.842 189.416" stroke="#42A54B" stroke-width="0.36"/>
<path d="M126 190.026L128.15 182.453" stroke="#42A54B" stroke-width="0.36"/>
<path d="M98.1572 198.734L100.044 205.031" stroke="#42A54B" stroke-width="0.3"/>
<path d="M101.846 204.487L99.9502 198.19" stroke="#42A54B" stroke-width="0.3"/>
<path d="M115.9 199.748L109.395 200.658" stroke="#42A54B" stroke-width="0.3"/>
<path d="M109.656 202.516L116.162 201.606" stroke="#42A54B" stroke-width="0.3"/>
<path d="M137.266 235.266L143.386 232.873" stroke="#42A54B" stroke-width="0.3"/>
<path d="M141.452 248.253L139.049 254.371" stroke="#42A54B" stroke-width="0.3"/>
<path d="M73.8622 248.253L71.459 254.371" stroke="#42A54B" stroke-width="0.3"/>
<path d="M73.2051 255.056L75.6082 248.938" stroke="#42A54B" stroke-width="0.3"/>
<path d="M134.899 215.897L140.691 219.013" stroke="#42A54B" stroke-width="0.3"/>
<path d="M141.574 217.352L135.791 214.246" stroke="#42A54B" stroke-width="0.3"/>
<path d="M134.946 229.438L139.922 225.141" stroke="#42A54B" stroke-width="0.3"/>
<path d="M138.692 223.724L133.717 228.012" stroke="#42A54B" stroke-width="0.3"/>
<path d="M137.266 235.266L143.386 232.873" stroke="#42A54B" stroke-width="0.3"/>
<path d="M142.701 231.127L136.58 233.52" stroke="#42A54B" stroke-width="0.3"/>
<path d="M134.637 243.345L141.039 244.79" stroke="#42A54B" stroke-width="0.3"/>
<path d="M141.461 242.961L135.05 241.506" stroke="#42A54B" stroke-width="0.3"/>
<path d="M129.727 214.987L132.993 209.291" stroke="#42A54B" stroke-width="0.3"/>
<path d="M131.361 208.362L128.094 214.058" stroke="#42A54B" stroke-width="0.3"/>
<path d="M115.928 215.747L113.703 209.563" stroke="#42A54B" stroke-width="0.3"/>
<path d="M111.929 210.201L114.163 216.385" stroke="#42A54B" stroke-width="0.3"/>
<path d="M104.127 214.19L105.742 207.818" stroke="#42A54B" stroke-width="0.3"/>
<path d="M103.931 207.358L102.307 213.72" stroke="#42A54B" stroke-width="0.3"/>
<path d="M98.8332 214.039L92.7783 211.478" stroke="#42A54B" stroke-width="0.3"/>
<path d="M92.0459 213.204L98.0914 215.766" stroke="#42A54B" stroke-width="0.3"/>
<path d="M87.2395 254.812L83.9727 260.509" stroke="#42A54B" stroke-width="0.3"/>
<path d="M85.6064 261.437L88.8733 255.741" stroke="#42A54B" stroke-width="0.3"/>
<path d="M115.457 224.606L111.299 219.52" stroke="#42A54B" stroke-width="0.3"/>
<path d="M109.845 220.711L114.003 225.797" stroke="#42A54B" stroke-width="0.3"/>
<path d="M103.949 222.87L106.183 229.054" stroke="#42A54B" stroke-width="0.3"/>
<path d="M107.948 228.416L105.724 222.232" stroke="#42A54B" stroke-width="0.3"/>
<path d="M129.051 251.143L127.268 257.459" stroke="#42A54B" stroke-width="0.3"/>
<path d="M129.07 257.975L130.854 251.65" stroke="#42A54B" stroke-width="0.3"/>
<path d="M119.279 246.123L121.166 252.42" stroke="#42A54B" stroke-width="0.3"/>
<path d="M122.969 251.875L121.072 245.579" stroke="#42A54B" stroke-width="0.3"/>
<path d="M100.926 241.15L104.193 235.453" stroke="#42A54B" stroke-width="0.3"/>
<path d="M102.56 234.515L99.3027 240.221" stroke="#42A54B" stroke-width="0.3"/>
<path d="M87.3145 234.787L91.4731 239.873" stroke="#42A54B" stroke-width="0.3"/>
<path d="M92.9281 238.682L88.7695 233.595" stroke="#42A54B" stroke-width="0.3"/>
<path d="M80.0117 236.476L82.2459 242.66" stroke="#42A54B" stroke-width="0.3"/>
<path d="M84.01 242.022L81.7852 235.838" stroke="#42A54B" stroke-width="0.3"/>
<path d="M128.808 234.571L127.184 240.934" stroke="#42A54B" stroke-width="0.3"/>
<path d="M129.004 241.403L130.619 235.031" stroke="#42A54B" stroke-width="0.3"/>
<path d="M113.947 237.978L120.002 240.54" stroke="#42A54B" stroke-width="0.3"/>
<path d="M120.735 238.813L114.68 236.251" stroke="#42A54B" stroke-width="0.3"/>
<path d="M116.031 255.845L114.566 262.245" stroke="#42A54B" stroke-width="0.3"/>
<path d="M116.396 262.667L117.861 256.267" stroke="#42A54B" stroke-width="0.3"/>
<path d="M98.298 253.095L94.7871 258.641" stroke="#42A54B" stroke-width="0.3"/>
<path d="M96.373 259.645L99.8839 254.099" stroke="#42A54B" stroke-width="0.3"/>
<path d="M99.8656 245.025L93.8389 247.653" stroke="#42A54B" stroke-width="0.3"/>
<path d="M94.5996 249.37L100.617 246.752" stroke="#42A54B" stroke-width="0.3"/>
<path d="M87.1738 250.289L88.9668 243.965" stroke="#42A54B" stroke-width="0.3"/>
<path d="M87.1547 243.458L85.3711 249.773" stroke="#42A54B" stroke-width="0.3"/>
<path d="M111.159 247.108L109.263 240.821" stroke="#42A54B" stroke-width="0.3"/>
<path d="M107.46 241.356L109.356 247.653" stroke="#42A54B" stroke-width="0.3"/>
<path d="M98.2788 225.375L93.0312 229.326" stroke="#42A54B" stroke-width="0.3"/>
<path d="M94.168 230.827L99.4155 226.867" stroke="#42A54B" stroke-width="0.3"/>
<path d="M89.5864 225.544L87.7559 219.238" stroke="#42A54B" stroke-width="0.3"/>
<path d="M85.9531 219.754L87.7837 226.07" stroke="#42A54B" stroke-width="0.3"/>
<path d="M122.029 233.577L126.16 228.472" stroke="#42A54B" stroke-width="0.3"/>
<path d="M124.705 227.29L120.574 232.394" stroke="#42A54B" stroke-width="0.3"/>
<path d="M124.873 224.033L125.605 217.511" stroke="#42A54B" stroke-width="0.3"/>
<path d="M123.747 217.296L123.006 223.827" stroke="#42A54B" stroke-width="0.3"/>
<path d="M103.311 256.839L109.356 259.401" stroke="#42A54B" stroke-width="0.3"/>
<path d="M110.098 257.675L104.043 255.113" stroke="#42A54B" stroke-width="0.3"/>
<path d="M117.824 208.043L121.983 213.129" stroke="#42A54B" stroke-width="0.3"/>
<path d="M123.438 211.937L119.279 206.851" stroke="#42A54B" stroke-width="0.3"/>
<path d="M131.361 208.362L128.094 214.058" stroke="#42A54B" stroke-width="0.3"/>
<path d="M129.727 214.987L132.993 209.291" stroke="#42A54B" stroke-width="0.3"/>
<path d="M117.824 208.043L121.983 213.129" stroke="#42A54B" stroke-width="0.3"/>
<path d="M123.438 211.937L119.279 206.851" stroke="#42A54B" stroke-width="0.3"/>
<path d="M111.929 210.201L114.163 216.385" stroke="#42A54B" stroke-width="0.3"/>
<path d="M115.928 215.747L113.703 209.563" stroke="#42A54B" stroke-width="0.3"/>
<path d="M103.931 207.358L102.307 213.72" stroke="#42A54B" stroke-width="0.3"/>
<path d="M104.127 214.19L105.742 207.818" stroke="#42A54B" stroke-width="0.3"/>
<path d="M97.2842 263.549L103.255 214.724" stroke="#672938" stroke-width="3" stroke-linecap="round" stroke-linejoin="round"/>
<path d="M192.04 263.868L185.807 215.794" stroke="#672938" stroke-width="3" stroke-linecap="round" stroke-linejoin="round"/>
<g style="mix-blend-mode:screen">
<path d="M217.921 254.681L212.965 256.042L191.299 200.217L217.921 254.681Z" fill="#FFF1A1"/>
</g>
<path d="M184.605 216.864L187.966 268.203L190.717 263.23L184.605 216.864Z" fill="#FFF1A1"/>
<path d="M120.451 195.544C120.451 195.544 139.01 227.074 144.689 232.864C144.689 232.864 159.043 214.931 168.026 196.266" stroke="#E5B656" stroke-width="1.48" stroke-miterlimit="10"/>
<path d="M144.633 241.956C148.024 241.956 150.773 239.209 150.773 235.819C150.773 232.43 148.024 229.682 144.633 229.682C141.243 229.682 138.494 232.43 138.494 235.819C138.494 239.209 141.243 241.956 144.633 241.956Z" fill="#E5B656"/>
<path d="M144.634 240.633C147.294 240.633 149.45 238.478 149.45 235.819C149.45 233.161 147.294 231.005 144.634 231.005C141.974 231.005 139.818 233.161 139.818 235.819C139.818 238.478 141.974 240.633 144.634 240.633Z" stroke="#CE9C52" stroke-width="0.75" stroke-miterlimit="10"/>
<path d="M144.502 196.097L130.722 210.642L113.055 196.848L122.902 179L144.502 196.097Z" fill="#FBE854" stroke="#672938" stroke-width="3" stroke-linecap="round" stroke-linejoin="round"/>
<path d="M144.381 196.097L158.152 210.642L175.829 196.848L165.981 179L144.381 196.097Z" fill="#FBE854" stroke="#672938" stroke-width="3" stroke-linecap="round" stroke-linejoin="round"/>
<path d="M165.445 181.468L173.706 196.407L170.327 198.772L163.146 183.41L165.445 181.468Z" fill="#FFF1A1"/>
<g style="mix-blend-mode:multiply">
<path d="M123.259 181.327L126.357 183.833L118.021 198.772L115.148 196.266L123.259 181.327Z" fill="#E2C727"/>
</g>
<g style="mix-blend-mode:multiply">
<path d="M77.1113 256.042L98.7867 198.537L71.2441 254.719L77.1113 256.042Z" fill="#E2C727"/>
</g>
<path d="M204.978 193.071L221.834 297.512C222.066 298.932 221.989 300.384 221.61 301.771C221.23 303.159 220.556 304.448 219.634 305.551C218.712 306.655 217.562 307.547 216.265 308.167C214.967 308.787 213.551 309.12 212.113 309.144L199.675 309.372L196.773 264.238L204.978 193.071Z" fill="#6576B2" stroke="#313344" stroke-width="3.11" stroke-linecap="round" stroke-linejoin="round"/>
<g style="mix-blend-mode:multiply" opacity="0.58">
<path d="M205.241 203.107L220.484 298.029C220.681 299.252 220.604 300.504 220.258 301.694C219.913 302.884 219.307 303.983 218.486 304.91V304.91L204.715 207.394L205.241 203.107Z" fill="#6576B2"/>
</g>
<path d="M105.639 116.109C105.639 116.109 101.273 117.626 100.607 124.638C99.9411 131.651 106.2 134.447 106.2 134.447L105.639 116.109Z" fill="#DBB08D"/>
<path d="M100.572 125.129C100.572 125.129 99.8967 116.802 106.401 115.794" stroke="#313344" stroke-width="1.75" stroke-miterlimit="10"/>
<path d="M182.758 100.437V101.05C182.758 101.05 182.767 100.831 182.758 100.437Z" fill="#53152D"/>
<path d="M140.578 259.18C141.28 259.18 141.849 258.572 141.849 257.822C141.849 257.071 141.28 256.463 140.578 256.463C139.876 256.463 139.307 257.071 139.307 257.822C139.307 258.572 139.876 259.18 140.578 259.18Z" fill="white" stroke="#313344" stroke-width="0.97" stroke-miterlimit="10"/>
<g style="mix-blend-mode:multiply" opacity="0.58">
<path d="M198.265 308.741L195.88 309.968L193.487 264.308L198.861 233.208L195.284 264.01L198.265 308.741Z" fill="#6576B2"/>
</g>
</g>
<path d="M444.115 257.05H3.55078" stroke="#313344" stroke-width="3" stroke-miterlimit="10"/>
<path d="M30.324 266.167H29.6522C26.6774 266.167 24.2783 263.768 24.2783 260.793V253.404C24.2783 250.429 26.6774 248.03 29.6522 248.03H30.324C33.2988 248.03 35.6979 250.429 35.6979 253.404V260.793C35.6979 263.768 33.2988 266.167 30.324 266.167Z" fill="#BD6C67" stroke="#313344" stroke-width="3" stroke-miterlimit="10"/>
<path d="M103.255 141.607C103.255 141.607 98.1694 168.381 116.69 198.417C135.211 228.453 143.848 231.428 147.878 246.302C151.908 261.177 150.277 267.99 150.277 267.99" stroke="black" stroke-miterlimit="10"/>
<path d="M190.774 126.253C190.774 126.253 195.476 143.91 181.082 168.765C166.591 193.619 148.934 239.009 148.646 249.085" stroke="black" stroke-width="1.1138" stroke-miterlimit="10"/>
<path d="M102.584 115.218H108.15C108.15 115.218 112.181 131.435 106.711 142.759H101.145C100.473 142.951 106.039 134.602 102.584 115.218Z" fill="#5E5E5E" stroke="#313344" stroke-miterlimit="10"/>
<path d="M190.773 128.556C192.734 128.556 194.324 126.967 194.324 125.006C194.324 123.045 192.734 121.455 190.773 121.455C188.812 121.455 187.223 123.045 187.223 125.006C187.223 126.967 188.812 128.556 190.773 128.556Z" fill="#313344"/>
<path d="M105.079 128.94C105.079 136.521 102.584 142.663 101.241 142.663C99.8974 142.663 100.281 135.082 100.281 127.501C100.281 119.92 101.241 115.218 102.584 115.218C104.024 115.218 105.079 121.359 105.079 128.94Z" fill="#8DFFE4" stroke="#313344" stroke-miterlimit="10"/>
<path d="M102.775 115.889C102.584 116.081 102.488 116.369 102.488 116.657C102.392 116.945 102.392 117.233 102.392 117.425C102.296 118 102.296 118.48 102.2 119.056C102.104 120.112 102.104 121.263 102.008 122.319L101.912 128.844L101.72 135.466L101.624 138.728C101.528 139.784 101.528 140.936 101.432 141.991C101.24 139.784 101.048 137.577 101.048 135.37C100.952 133.163 100.952 130.955 100.952 128.748C101.048 126.541 101.048 124.334 101.336 122.127C101.432 121.071 101.624 119.92 101.72 118.864C101.816 118.288 101.912 117.809 102.104 117.233C102.2 116.945 102.296 116.657 102.392 116.465C102.392 116.369 102.488 116.081 102.775 115.889Z" fill="white"/>
<path d="M103.256 128.94C103.256 132.491 102.104 135.274 101.528 135.274C100.856 135.274 99.0332 131.531 99.0332 127.981C99.0332 124.43 101.528 122.607 102.104 122.607C102.68 122.607 103.256 125.486 103.256 128.94Z" fill="#8DFFE4" stroke="#313344" stroke-miterlimit="10"/>
<path d="M195.188 240.737L193.077 242.944C190.486 245.631 186.263 245.919 183.288 243.519L177.819 239.105C175.899 237.57 173.02 238.05 171.773 240.161L169.47 243.999C168.318 246.014 168.99 248.51 171.005 249.661L182.137 255.899H197.971L195.188 240.737Z" fill="#BD6C67" stroke="#313344" stroke-width="3" stroke-miterlimit="10"/>
<path d="M105.367 141.031C107.958 145.926 113.044 148.996 118.514 149.092L132.812 149.38" stroke="#313344" stroke-miterlimit="10"/>
<path d="M132.908 151.971C134.286 151.971 135.403 150.854 135.403 149.476C135.403 148.098 134.286 146.981 132.908 146.981C131.53 146.981 130.413 148.098 130.413 149.476C130.413 150.854 131.53 151.971 132.908 151.971Z" fill="#313344"/>
<path d="M201.233 247.742H199.506C197.107 247.742 195.188 245.823 195.188 243.424V237.954C195.188 236.61 196.339 235.459 197.683 235.459H203.056C204.4 235.459 205.551 236.61 205.551 237.954V243.424C205.551 245.727 203.632 247.742 201.233 247.742Z" fill="#BD6C67" stroke="#313344" stroke-width="3" stroke-miterlimit="10"/>
<path d="M211.693 247.742H209.966C207.567 247.742 205.647 245.823 205.647 243.424V237.954C205.647 236.61 206.799 235.459 208.142 235.459H213.516C214.86 235.459 216.011 236.61 216.011 237.954V243.424C216.011 245.727 213.996 247.742 211.693 247.742Z" fill="#FCDEC0" stroke="#313344" stroke-width="3" stroke-miterlimit="10"/>
<path d="M222.537 247.742H220.81C218.41 247.742 216.491 245.823 216.491 243.424V237.954C216.491 236.61 217.643 235.459 218.986 235.459H224.36C225.704 235.459 226.855 236.61 226.855 237.954V243.424C226.759 245.727 224.84 247.742 222.537 247.742Z" fill="#FCDEC0" stroke="#313344" stroke-width="3" stroke-miterlimit="10"/>
<path d="M233.477 247.838L231.654 248.126C229.159 248.509 226.856 246.782 226.472 244.383L225.608 238.721C225.416 237.282 226.376 235.938 227.816 235.746L233.381 234.883C234.821 234.691 236.164 235.65 236.356 237.09L237.22 242.752C237.7 245.151 235.972 247.454 233.477 247.838Z" fill="#FCDEC0" stroke="#313344" stroke-width="3" stroke-miterlimit="10"/>
<path d="M260.155 256.858H135.403V271.541H260.155V256.858Z" fill="#DDDDDD" stroke="#313344" stroke-width="2" stroke-miterlimit="10" stroke-linecap="round" stroke-linejoin="round"/>
<path d="M148.358 249.181H135.403V256.762H148.358V249.181Z" fill="#DDDDDD" stroke="#313344" stroke-width="2" stroke-miterlimit="10" stroke-linecap="round" stroke-linejoin="round"/>
<path d="M180.506 249.181H148.358V256.762H180.506V249.181Z" fill="#DDDDDD" stroke="#313344" stroke-width="2" stroke-miterlimit="10" stroke-linecap="round" stroke-linejoin="round"/>
<path d="M192.501 249.277H180.506V256.858H192.501V249.277Z" fill="#DDDDDD" stroke="#313344" stroke-width="2" stroke-miterlimit="10" stroke-linecap="round" stroke-linejoin="round"/>
<path d="M204.401 249.277H192.405V256.858H204.401V249.277Z" fill="#E54554" stroke="#313344" stroke-width="2" stroke-miterlimit="10" stroke-linecap="round" stroke-linejoin="round"/>
<path d="M216.396 249.277H204.4V256.858H216.396V249.277Z" fill="#E54554" stroke="#313344" stroke-width="2" stroke-miterlimit="10" stroke-linecap="round" stroke-linejoin="round"/>
<path d="M228.391 249.277H216.396V256.858H228.391V249.277Z" fill="#E54554" stroke="#313344" stroke-width="2" stroke-miterlimit="10" stroke-linecap="round" stroke-linejoin="round"/>
<path d="M240.386 249.277H228.391V256.858H240.386V249.277Z" fill="#DDDDDD" stroke="#313344" stroke-width="2" stroke-miterlimit="10" stroke-linecap="round" stroke-linejoin="round"/>
<path d="M260.155 249.277H251.614V256.858H260.155V249.277Z" fill="#DDDDDD" stroke="#313344" stroke-width="2" stroke-miterlimit="10" stroke-linecap="round" stroke-linejoin="round"/>
<path d="M71.0123 274.036H32.1475V269.717C32.1475 258.969 40.8801 250.237 51.6279 250.237C62.3757 250.237 71.1083 258.969 71.1083 269.717V274.036H71.0123Z" fill="white" stroke="#313344" stroke-width="2" stroke-miterlimit="10"/>
<path d="M223.401 251.868L199.026 251.964L200.082 249.277C202.385 243.136 203.249 236.61 202.481 230.085L202.097 227.014H225.128L223.401 251.868Z" fill="#FFB450" stroke="#313344" stroke-miterlimit="10"/>
<path d="M241.442 251.868L225.128 251.964L226.855 249.277C229.158 243.136 227.623 238.242 226.855 231.716L224.36 227.014H253.053L251.998 242.08C251.518 247.55 246.912 251.868 241.442 251.868Z" fill="#EE9CFF" stroke="#313344" stroke-miterlimit="10"/>
<path d="M271.766 251.868L255.452 251.964L257.18 249.277C259.483 243.136 257.947 238.242 257.18 231.716L254.685 227.014H283.377L282.322 242.08C281.938 247.55 277.332 251.868 271.766 251.868Z" fill="#FFDB43" stroke="#313344" stroke-miterlimit="10"/>
<path d="M281.074 251.868L264.761 251.964L266.488 249.277C268.791 243.136 267.256 238.242 266.488 231.716L263.993 227.014H292.59L291.534 242.08C291.151 247.55 286.544 251.868 281.074 251.868Z" fill="#FFDB43" stroke="#313344" stroke-miterlimit="10"/>
<path d="M313.221 253.02L296.908 253.116L299.403 250.621C301.514 247.358 299.211 244.767 298.923 240.928C298.731 238.05 298.155 235.171 297.771 231.812L295.276 227.11H323.969L322.914 242.176C322.53 247.55 323.969 252.828 313.221 253.02Z" fill="#FFDB43" stroke="#313344" stroke-miterlimit="10"/>
<path d="M339.036 253.02L322.722 253.116L325.217 250.621C327.328 247.358 325.025 244.767 324.737 240.928C324.545 238.05 323.97 235.171 323.586 231.812L321.091 227.11H349.784L348.728 242.176C348.344 247.55 349.688 252.828 339.036 253.02Z" fill="#FFB450" stroke="#313344" stroke-miterlimit="10"/>
<path d="M404.098 243.519H212.461C207.951 243.519 204.208 239.873 204.208 235.267V135.754C204.208 131.243 207.855 127.501 212.461 127.501H404.098C408.608 127.501 412.351 131.147 412.351 135.754V235.267C412.255 239.873 408.608 243.519 404.098 243.519Z" fill="#CCCCCC" stroke="#313344" stroke-width="3" stroke-miterlimit="10"/>
<path d="M105.943 273.748H20.8242V290.445H105.943V273.748Z" fill="#FFEFE1" stroke="#313344" stroke-width="2" stroke-miterlimit="10"/>
<path d="M20.8242 275.091H103.832" stroke="#313344" stroke-width="2" stroke-miterlimit="10"/>
<path d="M20.8242 277.682L103.832 276.339" stroke="#313344" stroke-width="2" stroke-miterlimit="10"/>
<path d="M20.8242 282.096L103.832 278.738" stroke="#313344" stroke-width="2" stroke-miterlimit="10"/>
<path d="M20.8242 284.975L103.832 284.016" stroke="#313344" stroke-width="2" stroke-miterlimit="10"/>
<path d="M20.8242 287.566H103.832" stroke="#313344" stroke-width="2" stroke-miterlimit="10"/>
<path d="M105.942 273.748C105.942 273.748 110.453 282.288 105.942 290.445" stroke="#313344" stroke-width="2" stroke-miterlimit="10"/>
<path d="M223.4 226.054C223.4 226.054 223.784 226.726 224.84 227.686C227.911 230.756 232.133 232.388 236.451 232.388H387.976C387.976 232.388 390.951 232.196 393.734 229.797C396.229 227.686 397.476 224.519 397.476 221.256V155.618C397.476 151.587 395.845 147.749 392.966 144.87L392.87 144.774V222.024L388.84 228.933L223.4 226.054Z" fill="#AAAAAA"/>
<path d="M345.657 155.33C345.657 155.33 353.238 156.098 354.389 163.87V215.402C354.389 215.402 355.733 223.751 347.768 224.135H270.326C270.326 224.135 267.159 222.887 266.008 219.433H345.561H349.303V161.567L345.657 155.33Z" fill="#8C8C8C"/>
<path d="M344.41 220.68H272.054C268.407 220.68 265.528 217.801 265.528 214.155V163.487C265.528 159.84 268.407 156.961 272.054 156.961H344.41C348.056 156.961 350.935 159.84 350.935 163.487V214.155C350.935 217.705 348.056 220.68 344.41 220.68Z" fill="#CCCCCC" stroke="#313344" stroke-width="3" stroke-miterlimit="10"/>
<path d="M312.934 210.22H303.529V274.227H312.934V210.22Z" fill="#CCCCCC" stroke="#313344" stroke-width="3" stroke-miterlimit="10"/>
<path d="M279.059 274.228H337.405C343.354 274.228 348.152 279.026 348.152 284.975H268.312C268.312 279.026 273.11 274.228 279.059 274.228Z" fill="#CCCCCC" stroke="#313344" stroke-width="3" stroke-miterlimit="10"/>
<path d="M436.246 256.091L399.972 263.096V283.536C399.972 283.824 400.26 284.016 400.547 284.016L439.508 273.652C439.508 273.652 445.458 271.637 443.827 263.096C442.483 256.187 436.246 256.091 436.246 256.091Z" fill="white" stroke="#313344" stroke-width="2" stroke-miterlimit="10"/>
<path d="M51.6279 250.237V266.071H70.8204" fill="white"/>
<path d="M51.6279 250.237V266.071H70.8204" stroke="#313344" stroke-width="2" stroke-miterlimit="10" stroke-linecap="round" stroke-linejoin="round"/>
<path d="M51.6279 266.071H32.1475" stroke="#313344" stroke-width="2" stroke-miterlimit="10" stroke-linecap="round" stroke-linejoin="round"/>
<path d="M264.473 233.156H254.685V237.57H264.473V233.156Z" fill="#313344"/>
<path d="M312.55 210.22H304.009C301.514 210.22 299.499 208.205 299.499 205.71V193.907C299.499 191.412 301.514 189.397 304.009 189.397H312.55C315.045 189.397 317.06 191.412 317.06 193.907V205.71C317.06 208.109 315.045 210.22 312.55 210.22Z" fill="#313344"/>
<path d="M365.137 278.162H375.117C380.299 278.162 385.098 275.667 387.976 271.445L396.997 258.49H343.258L352.086 271.349C355.157 275.571 359.955 278.162 365.137 278.162Z" fill="#E54554" stroke="#313344" stroke-width="2" stroke-miterlimit="10"/>
<path d="M370.223 263.192C385.063 263.192 397.093 261.087 397.093 258.49C397.093 255.893 385.063 253.787 370.223 253.787C355.383 253.787 343.354 255.893 343.354 258.49C343.354 261.087 355.383 263.192 370.223 263.192Z" fill="#C43748" stroke="#313344" stroke-width="2" stroke-miterlimit="10"/>
<path d="M373.199 262.136L400.068 242.656L401.699 244.383L374.062 263.096H372.719L373.199 262.136Z" fill="#313344"/>
<path d="M399.972 284.208C404.583 284.208 408.321 279.482 408.321 273.652C408.321 267.822 404.583 263.096 399.972 263.096C395.361 263.096 391.623 267.822 391.623 273.652C391.623 279.482 395.361 284.208 399.972 284.208Z" fill="white" stroke="#313344" stroke-width="2" stroke-miterlimit="10"/>
<path d="M399.972 281.617C403.47 281.617 406.306 278.051 406.306 273.652C406.306 269.253 403.47 265.687 399.972 265.687C396.474 265.687 393.639 269.253 393.639 273.652C393.639 278.051 396.474 281.617 399.972 281.617Z" fill="white" stroke="#313344" stroke-miterlimit="10"/>
<path d="M38.1931 263.48H37.5214C34.5465 263.48 32.1475 261.081 32.1475 258.106V250.717C32.1475 247.742 34.5465 245.343 37.5214 245.343H38.1931C41.1679 245.343 43.567 247.742 43.567 250.717V258.106C43.567 261.081 41.1679 263.48 38.1931 263.48Z" fill="#BD6C67" stroke="#313344" stroke-width="3" stroke-miterlimit="10"/>
<path d="M49.3249 259.737H48.6532C45.6784 259.737 43.2793 257.338 43.2793 254.363V246.974C43.2793 243.999 45.6784 241.6 48.6532 241.6H49.3249C52.2998 241.6 54.6988 243.999 54.6988 246.974V254.363C54.6988 257.338 52.2998 259.737 49.3249 259.737Z" fill="#BD6C67" stroke="#313344" stroke-width="3" stroke-miterlimit="10"/>
<path d="M60.7439 259.737H60.0721C57.0973 259.737 54.6982 257.338 54.6982 254.363V246.974C54.6982 243.999 57.0973 241.6 60.0721 241.6H60.7439C63.7187 241.6 66.1178 243.999 66.1178 246.974V254.363C66.1178 257.338 63.7187 259.737 60.7439 259.737Z" fill="#BD6C67" stroke="#313344" stroke-width="3" stroke-miterlimit="10"/>
<path d="M232.997 227.11C232.997 227.11 228.007 226.15 226.856 220.68V150.82C226.856 150.436 226.952 150.052 227.144 149.668C227.815 148.133 230.31 144.006 236.548 143.718H230.79C230.79 143.718 225.896 144.102 224.073 149.764C223.977 150.148 223.881 150.436 223.881 150.82V220.584C223.977 220.68 224.649 227.782 232.997 227.11Z" fill="#CCCCCC"/>
<path d="M216.395 175.29L236.644 177.881L232.229 197.458L223.785 194.387L219.946 201.488L209.198 201.008L216.395 175.29Z" fill="#FFB450" stroke="#313344" stroke-miterlimit="10" stroke-linecap="round" stroke-linejoin="round"/>
<path d="M232.23 197.457C232.23 197.457 228.007 201.488 219.946 201.488L222.153 192.083L232.23 197.457Z" fill="#E8922D" stroke="#313344" stroke-miterlimit="10" stroke-linecap="round" stroke-linejoin="round"/>
<path d="M408.321 273.652L440.564 258.49C440.564 258.49 440.948 257.146 436.246 256.091L420.892 259.065C420.892 259.065 435.382 266.55 427.129 276.914L403.811 283.152C403.811 283.152 407.457 281.041 408.321 273.652Z" fill="#2E49E5" stroke="#313344" stroke-width="2" stroke-miterlimit="10" stroke-linecap="round" stroke-linejoin="round"/>
<path d="M397.573 271.349C397.573 271.349 397.957 273.364 397.189 273.94C396.422 274.515 395.75 276.819 397.381 277.874C399.109 279.026 399.78 279.026 401.7 278.45C403.619 277.874 403.043 274.419 401.7 273.748C400.356 273.076 402.083 271.061 402.083 271.061L397.573 271.349Z" fill="#313344"/>
<path d="M401.315 272.02H397.861L397.381 270.101C397.381 269.717 397.765 269.333 398.149 269.333H401.027C401.411 269.333 401.795 269.717 401.795 270.101L401.315 272.02Z" fill="white" stroke="#313344" stroke-width="1.6892" stroke-miterlimit="10"/>
<path d="M292.206 233.251H282.322V237.282H292.206V233.251Z" fill="#313344"/>
<path d="M200.369 263H195.188V267.51H200.369V263Z" fill="#313344"/>
<path d="M390.663 129.036C390.663 129.036 407.169 127.405 408.512 135.85V235.171C408.512 235.171 409.184 240.833 401.027 242.08C401.027 242.08 409.568 243.328 410.815 236.418V135.37C410.815 135.37 411.679 128.748 401.219 128.844L390.663 129.036Z" fill="#AAAAAA"/>
<path d="M394.022 128.94L357.269 129.132L320.515 129.228L247.008 129.42H228.679H219.467H214.86C214.093 129.42 213.325 129.42 212.653 129.42C211.886 129.516 211.214 129.708 210.542 129.996C207.855 131.147 205.936 133.93 206.032 136.905V146.118V164.446L205.936 201.2L205.744 237.954L205.552 201.2L205.456 164.446V146.118V136.905C205.456 135.274 205.936 133.738 206.8 132.395C207.663 131.051 209.007 129.996 210.446 129.324C211.214 129.036 211.982 128.844 212.749 128.748C213.613 128.652 214.285 128.748 215.052 128.652H219.659H228.871H247.2L320.707 128.844L357.461 128.94H394.022Z" fill="white"/>
<path d="M344.985 158.593H271.766C271.766 158.593 266.968 158.305 266.872 165.214C266.776 172.123 266.872 215.115 266.872 215.115C266.872 215.115 267.543 217.13 268.983 218.185V165.118C268.983 165.118 268.407 161.184 272.438 160.608L344.985 158.593Z" fill="white"/>
<path d="M259.099 267.03H136.555V270.581H259.099V267.03Z" fill="#AAAAAA"/>
<path d="M269.847 283.536C270.231 281.617 271.19 279.889 272.534 278.45C273.877 277.01 275.7 276.051 277.716 275.571H277.812C287.408 275.187 297.004 274.995 306.6 274.995C316.197 274.995 325.793 275.091 335.389 275.475C325.793 276.147 316.197 276.435 306.6 276.531C297.004 276.722 287.408 276.722 277.812 276.531H277.908C276.084 276.818 274.357 277.586 272.917 278.834C272.246 279.409 271.574 280.177 271.094 280.945C270.518 281.808 270.135 282.672 269.847 283.536Z" fill="white"/>
<path d="M51.6278 270.101C51.6278 270.101 44.1427 317.411 67.9414 332.093C91.7401 346.775 148.646 314.148 177.339 328.158C206.127 342.169 274.645 363.473 297.868 300.713C321.091 237.954 260.154 235.459 260.154 235.459" stroke="#313344" stroke-width="2" stroke-miterlimit="10"/>
<path d="M197.779 264.151C197.779 264.151 195.38 293.996 210.35 295.051C225.32 296.107 277.044 286.223 286.832 295.051C296.62 303.88 328.192 248.51 289.327 235.363" stroke="#313344" stroke-width="2" stroke-miterlimit="10"/>
<defs>
<linearGradient id="paint0_linear_2_14190" x1="103.492" y1="95.0361" x2="103.492" y2="118.705" gradientUnits="userSpaceOnUse">
<stop stop-color="#302A37"/>
<stop offset="1" stop-color="#3C3247"/>
</linearGradient>
<linearGradient id="paint1_linear_2_14190" x1="187.216" y1="95.0364" x2="187.216" y2="118.705" gradientUnits="userSpaceOnUse">
<stop stop-color="#302A37"/>
<stop offset="1" stop-color="#3C3247"/>
</linearGradient>
</defs>
</svg>
