<svg width="183" height="182" viewBox="0 0 183 182" fill="none" xmlns="http://www.w3.org/2000/svg">
<path fill-rule="evenodd" clip-rule="evenodd" d="M6.23281 30.4236C0 42.6407 0 58.6337 0 90.6198C0 122.606 0 138.599 6.23281 150.816C11.7157 161.562 20.4643 170.3 31.2254 175.775C43.4588 182 59.4719 182 91.5007 182C123.528 182 139.542 182 151.776 175.775C162.536 170.3 171.284 161.562 176.767 150.816C183 138.599 183 122.606 183 90.6198C183 58.6337 183 42.6407 176.767 30.4236C171.284 19.6772 162.536 10.9401 151.776 5.46447C145.612 2.32826 138.49 0.772128 128.843 0H54.1586C44.5113 0.772128 37.389 2.32826 31.2254 5.46447C20.4643 10.9401 11.7157 19.6772 6.23281 30.4236Z" fill="#6100D4"/>
<path fill-rule="evenodd" clip-rule="evenodd" d="M28.2285 45.8265C23.5615 54.994 23.5615 66.9949 23.5615 90.9967C23.5615 114.999 23.5615 126.999 28.2285 136.167C32.334 144.231 38.8848 150.787 46.9424 154.896C56.1025 159.567 68.0928 159.567 92.0752 159.567C116.057 159.567 128.048 159.567 137.208 154.896C145.265 150.787 151.815 144.231 155.921 136.167C160.588 126.999 160.588 114.999 160.588 90.9967C160.588 66.9949 160.588 54.994 155.921 45.8265C151.815 37.7626 145.265 31.2064 137.208 27.0976C132.593 24.7443 127.26 23.5766 120.036 22.9972H64.1143C56.8906 23.5766 51.5576 24.7443 46.9424 27.0976C38.8848 31.2064 32.334 37.7626 28.2285 45.8265Z" fill="white"/>
<path fill-rule="evenodd" clip-rule="evenodd" d="M63.5272 75.2856C54.8557 75.2856 47.8262 82.321 47.8262 90.9996C47.8262 99.6782 54.8557 106.714 63.5272 106.714C72.1986 106.714 79.2281 99.6782 79.2281 90.9996C79.2281 82.321 72.1986 75.2856 63.5272 75.2856Z" fill="#FFA722"/>
<path fill-rule="evenodd" clip-rule="evenodd" d="M76.374 119.57C76.374 128.249 83.4035 135.284 92.075 135.284C100.746 135.284 107.776 128.249 107.776 119.57C107.776 110.892 100.746 103.856 92.075 103.856C83.4035 103.856 76.374 110.892 76.374 119.57Z" fill="#26E1ED"/>
<path fill-rule="evenodd" clip-rule="evenodd" d="M136.323 90.9996C136.323 82.321 129.293 75.2856 120.622 75.2856C111.95 75.2856 104.921 82.321 104.921 90.9996C104.921 99.6782 111.95 106.714 120.622 106.714C129.293 106.714 136.323 99.6782 136.323 90.9996Z" fill="#FF3815"/>
<path fill-rule="evenodd" clip-rule="evenodd" d="M92.075 46.7146C83.4035 46.7146 76.374 53.75 76.374 62.4286C76.374 71.1072 83.4035 78.1426 92.075 78.1426C100.746 78.1426 107.776 71.1072 107.776 62.4286C107.776 53.75 100.746 46.7146 92.075 46.7146Z" fill="#6100D4"/>
</svg>
