<svg width="38" height="38" viewBox="0 0 38 38" fill="none" xmlns="http://www.w3.org/2000/svg">
<path fill-rule="evenodd" clip-rule="evenodd" d="M19 4C10.7157 4 3.99996 10.7157 3.99996 19C3.99996 27.2843 10.7157 34 19 34C27.2842 34 34 27.2843 34 19C34 10.7157 27.2842 4 19 4ZM0.666626 19C0.666626 8.87478 8.87474 0.666668 19 0.666668C29.1252 0.666668 37.3333 8.87478 37.3333 19C37.3333 29.1252 29.1252 37.3333 19 37.3333C8.87474 37.3333 0.666626 29.1252 0.666626 19ZM19 17.3333C19.9204 17.3333 20.6666 18.0795 20.6666 19V25.6667C20.6666 26.5871 19.9204 27.3333 19 27.3333C18.0795 27.3333 17.3333 26.5871 17.3333 25.6667V19C17.3333 18.0795 18.0795 17.3333 19 17.3333ZM19 10.6667C18.0795 10.6667 17.3333 11.4129 17.3333 12.3333C17.3333 13.2538 18.0795 14 19 14H19.0166C19.9371 14 20.6833 13.2538 20.6833 12.3333C20.6833 11.4129 19.9371 10.6667 19.0166 10.6667H19Z" fill="#B7BAC6"/>
</svg>
