<svg width="386" height="375" viewBox="0 0 386 375" fill="none" xmlns="http://www.w3.org/2000/svg">
<g clip-path="url(#clip0_2_13994)">
<path d="M266.659 112.201L119.85 112.001C111.848 112 104.156 115.104 98.3879 120.661C92.6195 126.219 89.2221 133.8 88.9082 141.813L84.9524 243.209C84.8057 246.932 85.4105 250.647 86.7305 254.13C88.0504 257.613 90.0584 260.794 92.6342 263.481C95.2099 266.168 98.3004 268.306 101.72 269.768C105.141 271.229 108.82 271.984 112.538 271.986V271.986C119.867 271.996 126.9 269.09 132.093 263.906C137.285 258.722 140.212 251.684 140.23 244.339C140.23 241.713 140.746 239.113 141.749 236.688C142.752 234.263 144.222 232.059 146.076 230.204C147.929 228.349 150.13 226.878 152.551 225.875C154.972 224.873 157.567 224.359 160.187 224.363L226.317 224.453C228.937 224.456 231.53 224.978 233.948 225.986C236.367 226.995 238.563 228.472 240.412 230.333C242.26 232.193 243.725 234.4 244.721 236.828C245.718 239.257 246.227 241.858 246.219 244.483C246.217 251.828 249.124 258.874 254.303 264.072C259.481 269.27 266.507 272.196 273.836 272.206C277.557 272.21 281.24 271.461 284.664 270.003C288.089 268.545 291.185 266.409 293.765 263.723C296.346 261.037 298.359 257.856 299.683 254.372C301.006 250.887 301.614 247.17 301.47 243.444L297.55 142.007C297.242 134.001 293.854 126.425 288.095 120.869C282.336 115.312 274.654 112.206 266.659 112.201V112.201Z" fill="#DDDDDD" stroke="#672938" stroke-width="3" stroke-miterlimit="10"/>
<path d="M132.138 116.506L108.339 132.892L101.784 244.678C101.784 244.678 108.155 268.003 123.249 264.68C123.249 264.68 104.809 274.928 91.2792 254.906L89.4861 247.222L95.0272 129.53C95.0272 129.53 103.496 113.153 132.138 116.506Z" fill="#C4C4C4"/>
<path d="M109.525 189.017C127.604 189.042 142.28 174.374 142.304 156.255C142.329 138.137 127.693 123.429 109.614 123.404C91.5356 123.38 76.8599 138.048 76.8351 156.166C76.8104 174.284 91.4462 188.992 109.525 189.017Z" fill="#DDDDDD" stroke="#672938" stroke-width="2" stroke-miterlimit="10"/>
<path d="M275.195 267.598C275.195 267.598 281.45 265.589 287.415 255.957C292.156 248.011 294.273 238.768 293.463 229.545L286.406 135.816L276.716 121.855C276.716 121.855 282.216 122.374 288.726 132.234C295.235 142.094 295.411 211.352 295.411 211.352L297.413 242.233C297.413 242.233 297.832 265.701 275.195 267.598Z" fill="white"/>
<path d="M276.324 189.244C294.403 189.269 309.078 174.601 309.103 156.483C309.128 138.364 294.492 123.656 276.413 123.632C258.334 123.607 243.659 138.275 243.634 156.393C243.609 174.512 258.245 189.22 276.324 189.244Z" fill="#FBE854" stroke="#672938" stroke-width="2" stroke-linecap="round" stroke-linejoin="round"/>
<path d="M137.808 234.846C137.808 234.846 138.591 211.771 143.015 207.951C147.439 204.131 236.203 205.066 236.203 205.066C240.803 213.59 244.809 222.423 248.191 231.502C251.184 240.935 247.27 223.156 228.066 220.81C208.861 218.464 156.495 219.959 156.495 219.959C156.495 219.959 141.551 223.584 137.808 234.846Z" fill="#C4C4C4"/>
<path d="M158.08 226.017C170.515 226.034 180.608 215.945 180.625 203.484C180.642 191.022 170.576 180.906 158.142 180.889C145.707 180.872 135.614 190.961 135.597 203.422C135.58 215.884 145.646 226 158.08 226.017Z" fill="#DDDDDD" stroke="#672938" stroke-width="2" stroke-miterlimit="10"/>
<path d="M229.712 226.114C242.146 226.131 252.24 216.043 252.257 203.581C252.274 191.12 242.208 181.004 229.773 180.987C217.339 180.97 207.245 191.058 207.228 203.52C207.211 215.982 217.277 226.097 229.712 226.114Z" fill="#DDDDDD" stroke="#672938" stroke-width="2" stroke-miterlimit="10"/>
<path d="M193.861 174.401C199.506 174.408 204.088 169.829 204.095 164.172C204.103 158.515 199.534 153.923 193.889 153.916C188.245 153.908 183.663 158.487 183.655 164.144C183.647 169.801 188.217 174.393 193.861 174.401Z" fill="#DE2E5C" stroke="#672938" stroke-linecap="round" stroke-linejoin="round"/>
<path d="M229.727 214.817C235.936 214.826 240.976 209.788 240.985 203.566C240.993 197.343 235.967 192.292 229.758 192.284C223.549 192.275 218.509 197.313 218.5 203.535C218.492 209.758 223.518 214.809 229.727 214.817Z" fill="#DE2E5C" stroke="#672938" stroke-width="2" stroke-linecap="round" stroke-linejoin="round"/>
<path d="M109.547 172.629C118.595 172.641 125.939 165.301 125.952 156.233C125.964 147.166 118.639 139.805 109.592 139.792C100.544 139.78 93.1994 147.121 93.1871 156.188C93.1747 165.256 100.499 172.617 109.547 172.629Z" fill="#DE2E5C" stroke="#672938" stroke-width="2" stroke-linecap="round" stroke-linejoin="round"/>
<path d="M276.378 149.449C282.023 149.457 286.605 144.877 286.612 139.221C286.62 133.564 282.051 128.972 276.406 128.964C270.762 128.956 266.18 133.536 266.172 139.193C266.164 144.849 270.734 149.441 276.378 149.449Z" fill="#672938"/>
<path d="M276.331 183.942C281.975 183.95 286.557 179.371 286.565 173.714C286.573 168.057 282.003 163.465 276.359 163.457C270.714 163.45 266.132 168.029 266.125 173.686C266.117 179.343 270.686 183.935 276.331 183.942Z" fill="#672938"/>
<path d="M259.16 166.657C264.805 166.665 269.387 162.085 269.395 156.429C269.402 150.772 264.833 146.18 259.188 146.172C253.544 146.164 248.962 150.744 248.954 156.401C248.947 162.058 253.516 166.65 259.16 166.657Z" fill="#672938"/>
<path d="M293.578 166.704C299.223 166.712 303.805 162.132 303.813 156.476C303.82 150.819 299.251 146.227 293.606 146.219C287.962 146.211 283.38 150.791 283.372 156.448C283.365 162.104 287.934 166.696 293.578 166.704Z" fill="#672938"/>
<path d="M168.953 144.513L158.192 144.498C154.805 144.493 152.056 147.241 152.051 150.635L152.051 150.665C152.047 154.059 154.788 156.815 158.175 156.819L168.936 156.834C172.323 156.838 175.072 154.091 175.077 150.697L175.077 150.667C175.081 147.272 172.34 144.517 168.953 144.513Z" fill="#FBE854" stroke="#672938" stroke-linecap="round" stroke-linejoin="round"/>
<path d="M228.049 144.593L217.288 144.579C213.901 144.574 211.152 147.322 211.147 150.716L211.147 150.746C211.143 154.14 213.884 156.895 217.271 156.9L228.032 156.914C231.419 156.919 234.168 154.171 234.173 150.777L234.173 150.747C234.177 147.353 231.436 144.598 228.049 144.593Z" fill="#FBE854" stroke="#672938" stroke-linecap="round" stroke-linejoin="round"/>
<path d="M120.922 97.7832L136.643 97.8047C138.304 97.807 139.95 98.1372 141.484 98.7767C143.019 99.4162 144.412 100.352 145.586 101.532C146.759 102.711 147.69 104.11 148.324 105.65C148.957 107.189 149.282 108.839 149.28 110.505L149.275 113.969L108.245 113.913L108.249 110.449C108.254 107.085 109.592 103.861 111.968 101.486C114.345 99.1105 117.565 97.7787 120.922 97.7832V97.7832Z" fill="#672938"/>
<path d="M249.605 97.9587L265.326 97.9802C268.683 97.9848 271.9 99.3254 274.27 101.707C276.64 104.089 277.969 107.316 277.964 110.68L277.959 114.145L236.898 114.089L236.903 110.624C236.905 108.956 237.236 107.305 237.876 105.765C238.516 104.225 239.453 102.827 240.633 101.651C241.812 100.474 243.212 99.5424 244.752 98.9089C246.292 98.2754 247.941 97.9525 249.605 97.9587V97.9587Z" fill="#672938"/>
<path d="M170.202 198.228L165.453 198.221C164.895 198.22 164.36 197.997 163.966 197.601C163.572 197.205 163.351 196.669 163.351 196.11L163.358 191.35C163.358 191.073 163.304 190.799 163.199 190.543C163.093 190.287 162.939 190.054 162.744 189.858C162.548 189.662 162.317 189.506 162.062 189.4C161.806 189.293 161.533 189.238 161.257 189.238L155.004 189.23C154.728 189.229 154.454 189.283 154.199 189.389C153.943 189.495 153.711 189.65 153.516 189.845C153.32 190.041 153.165 190.273 153.058 190.529C152.952 190.784 152.898 191.059 152.897 191.335L152.891 196.095C152.89 196.655 152.668 197.191 152.272 197.585C151.877 197.98 151.342 198.202 150.784 198.201L146.034 198.195C145.476 198.194 144.941 198.415 144.546 198.81C144.15 199.205 143.928 199.741 143.927 200.301L143.919 206.597C143.918 207.156 144.139 207.693 144.533 208.089C144.927 208.485 145.462 208.708 146.02 208.708L150.769 208.715C151.327 208.716 151.862 208.938 152.256 209.334C152.65 209.73 152.871 210.267 152.871 210.826L152.864 215.586C152.864 215.863 152.918 216.137 153.023 216.393C153.129 216.649 153.283 216.882 153.478 217.078C153.673 217.274 153.905 217.43 154.16 217.536C154.416 217.643 154.689 217.697 154.965 217.698L161.218 217.706C161.494 217.707 161.768 217.653 162.023 217.547C162.279 217.441 162.511 217.286 162.706 217.091C162.902 216.895 163.057 216.663 163.163 216.407C163.27 216.152 163.324 215.877 163.325 215.6L163.331 210.78C163.332 210.221 163.555 209.685 163.95 209.29C164.345 208.895 164.88 208.674 165.438 208.675L170.188 208.681C170.746 208.682 171.281 208.46 171.676 208.065C172.072 207.67 172.294 207.134 172.295 206.575L172.303 200.279C172.288 199.73 172.061 199.209 171.668 198.826C171.276 198.443 170.75 198.228 170.202 198.228V198.228Z" fill="#672938"/>
</g>
<defs>
<clipPath id="clip0_2_13994">
<rect width="238.31" height="178.733" fill="white" transform="translate(73.9087 97.7191) rotate(0.0781322)"/>
</clipPath>
</defs>
</svg>
