<svg width="487" height="507" viewBox="0 0 487 507" fill="none" xmlns="http://www.w3.org/2000/svg">
<g filter="url(#filter0_d_2_17654)">
<rect x="21.9961" y="93.5693" width="460" height="391" rx="8" fill="white"/>
<rect x="23.4961" y="95.0693" width="457" height="388" rx="6.5" stroke="#FF3815" stroke-width="3"/>
</g>
<path d="M1.06641 73.2881H38.1079V91.4457C38.1079 96.3577 36.1566 101.069 32.6833 104.542C29.21 108.015 24.4992 109.966 19.5871 109.966C14.6751 109.966 9.96432 108.015 6.49101 104.542C3.01769 101.069 1.06641 96.3577 1.06641 91.4457L1.06641 73.2881Z" fill="#FF240A"/>
<path d="M38.1084 73.2881H75.1499V91.4457C75.1499 96.3559 73.2 101.065 69.729 104.538C66.2579 108.011 61.5497 109.964 56.6395 109.966V109.966C54.2065 109.968 51.797 109.49 49.5487 108.56C47.3005 107.629 45.2576 106.265 43.5367 104.545C41.8158 102.826 40.4506 100.783 39.5192 98.5356C38.5878 96.2879 38.1084 93.8787 38.1084 91.4457V73.2881Z" fill="#FFBF99"/>
<path d="M75.1602 73.2881H112.202V91.4457C112.202 96.3577 110.25 101.069 106.777 104.542C103.304 108.015 98.5929 109.966 93.6809 109.966C88.7689 109.966 84.0581 108.015 80.5848 104.542C77.1114 101.069 75.1602 96.3577 75.1602 91.4457V73.2881Z" fill="#FF240A"/>
<path d="M167.774 109.966C165.341 109.966 162.933 109.487 160.686 108.557C158.439 107.626 156.397 106.262 154.678 104.542C152.958 102.822 151.594 100.78 150.663 98.5332C149.732 96.2862 149.253 93.8779 149.253 91.4457V73.2881H186.294V91.4457C186.294 96.3577 184.343 101.068 180.87 104.542C177.397 108.015 172.686 109.966 167.774 109.966Z" fill="#FF240A"/>
<path d="M204.816 109.966C199.905 109.964 195.195 108.011 191.723 104.539C188.25 101.066 186.298 96.3568 186.295 91.4457V73.2881H223.347V91.4457C223.344 96.3586 221.39 101.069 217.915 104.542C214.441 108.015 209.729 109.966 204.816 109.966V109.966Z" fill="#FFBF99"/>
<path d="M130.732 109.966C125.819 109.966 121.107 108.015 117.632 104.542C114.158 101.069 112.204 96.3586 112.201 91.4457V73.2881H149.253V91.4457C149.253 96.3577 147.302 101.068 143.828 104.542C140.355 108.015 135.644 109.966 130.732 109.966Z" fill="#FFBF99"/>
<path d="M241.867 109.966C236.955 109.966 232.245 108.015 228.771 104.542C225.298 101.068 223.347 96.3577 223.347 91.4457V73.2881H260.388V91.4457C260.388 96.3577 258.437 101.068 254.964 104.542C251.49 108.015 246.779 109.966 241.867 109.966Z" fill="#FF240A"/>
<path d="M278.909 109.966C273.997 109.966 269.287 108.015 265.813 104.542C262.34 101.068 260.389 96.3577 260.389 91.4457V73.2881H297.43V91.4457C297.43 96.3577 295.479 101.068 292.006 104.542C288.532 108.015 283.821 109.966 278.909 109.966Z" fill="#FFBF99"/>
<path d="M315.992 109.966C311.079 109.966 306.367 108.015 302.892 104.542C299.417 101.069 297.464 96.3586 297.461 91.4457V73.2881H334.513V91.4457C334.513 96.3577 332.561 101.068 329.088 104.542C325.615 108.015 320.904 109.966 315.992 109.966Z" fill="#FF240A"/>
<path d="M353.002 109.966C348.09 109.966 343.379 108.015 339.906 104.542C336.433 101.068 334.481 96.3577 334.481 91.4457V73.2881H371.523V91.4457C371.523 96.3577 369.572 101.068 366.098 104.542C362.625 108.015 357.914 109.966 353.002 109.966Z" fill="#FFBF99"/>
<path d="M390.044 109.966C385.132 109.966 380.421 108.015 376.948 104.542C373.475 101.068 371.523 96.3577 371.523 91.4457V73.2881H408.575V91.4457C408.573 96.3586 406.619 101.069 403.144 104.542C399.669 108.015 394.957 109.966 390.044 109.966Z" fill="#FF240A"/>
<path d="M427.095 109.966C422.183 109.966 417.472 108.015 413.999 104.542C410.526 101.068 408.574 96.3577 408.574 91.4457V73.2881H445.616V91.4457C445.616 96.3577 443.664 101.068 440.191 104.542C436.718 108.015 432.007 109.966 427.095 109.966Z" fill="#FFBF99"/>
<path d="M464.137 109.966C459.225 109.966 454.514 108.015 451.041 104.542C447.568 101.068 445.616 96.3577 445.616 91.4457V73.2881H482.658V91.4457C482.658 93.8779 482.179 96.2862 481.248 98.5332C480.317 100.78 478.953 102.822 477.233 104.542C475.513 106.262 473.472 107.626 471.225 108.557C468.977 109.487 466.569 109.966 464.137 109.966Z" fill="#FF240A"/>
<path d="M1.06641 73.2882H482.658L463.114 40.0475C461.318 36.992 458.038 35.1157 454.494 35.1157H29.2301C25.6857 35.1157 22.4061 36.992 20.6097 40.0475L1.06641 73.2882Z" fill="#FFD9C2"/>
<path d="M1.06641 73.2882L20.5895 40.0509C22.3855 36.9935 25.6662 35.1157 29.2121 35.1157H57.0852L38.1079 73.2882H1.06641Z" fill="#FF412B"/>
<path d="M75.1602 73.2882L90.6823 35.1157H124.279L112.202 73.2882H75.1602Z" fill="#FF412B"/>
<path d="M149.253 73.2882L157.875 35.1157H191.472L186.294 73.2882H149.253Z" fill="#FF412B"/>
<path d="M482.658 73.2882L463.135 40.051C461.339 36.9935 458.059 35.1157 454.513 35.1157H426.64L445.617 73.2882H482.658Z" fill="#FF412B"/>
<path d="M408.564 73.2882L393.042 35.1157H359.445L371.523 73.2882H408.564Z" fill="#FF412B"/>
<path d="M334.471 73.2882L325.849 35.1157H292.252L297.429 73.2882H334.471Z" fill="#FF412B"/>
<path d="M223.336 73.2882L225.069 35.1157H258.655L260.388 73.2882H223.336Z" fill="#FF412B"/>
<g filter="url(#filter1_dd_2_17654)">
<rect x="101.996" y="0.569214" width="300" height="50" rx="8" fill="#FF3815"/>
<rect x="103.496" y="2.06921" width="297" height="47" rx="6.5" stroke="#D62000" stroke-width="3"/>
</g>
<path d="M204.224 31.9812C202.69 31.9812 201.65 31.0712 201.624 30.0572C201.598 29.5112 201.208 29.3292 200.402 29.4852L198.4 29.8232C197.646 29.9532 197.36 30.3952 197.49 31.0972C197.724 32.4492 198.374 33.5672 199.466 34.4772C200.584 35.3612 202.118 35.8032 204.094 35.7772C206.564 35.7512 208.384 35.2832 209.502 34.3212C210.62 33.3592 211.192 32.0852 211.192 30.5512C211.192 23.6872 202.066 25.0912 202.066 22.2052C202.066 21.0872 202.768 20.3592 204.224 20.3592C205.784 20.3592 206.824 21.3212 206.902 22.5692C206.902 22.9592 207.24 23.0892 207.942 23.0112L210.1 22.6472C210.828 22.5172 211.14 22.1012 211.036 21.3732C210.594 18.3572 208.254 16.5372 204.094 16.5372C199.492 16.5372 197.542 19.4752 197.542 22.1012C197.542 28.9652 206.616 27.1192 206.616 30.1092C206.616 31.3572 205.81 31.9812 204.224 31.9812ZM217.411 28.1072H222.845C223.573 28.1072 223.963 27.6652 223.963 26.9632V25.3512C223.963 24.5972 223.599 24.2072 222.845 24.2072H217.411V20.6712H224.535C225.263 20.6712 225.679 20.2292 225.679 19.5272V17.8892C225.679 17.1872 225.263 16.7452 224.535 16.7452H214.031C213.329 16.7452 212.887 17.2392 212.887 17.8892V34.4252C212.887 35.0752 213.329 35.5692 214.031 35.5692H224.535C225.263 35.5692 225.679 35.1272 225.679 34.4252V32.8132C225.679 32.1112 225.263 31.6692 224.535 31.6692H217.411V28.1072ZM238.454 17.8892C238.454 17.2392 238.038 16.7452 237.31 16.7452H235.672C234.944 16.7452 234.528 17.2392 234.528 17.8892V28.7572C234.528 29.4072 234.944 29.9012 235.672 29.9012H242.224C242.952 29.9012 243.368 29.4072 243.368 28.7572V27.7692C243.368 27.1192 242.952 26.6252 242.224 26.6252H238.454V17.8892ZM227.69 34.4252C227.69 35.0752 228.106 35.5692 228.834 35.5692H241.704C242.458 35.5692 242.848 35.1792 242.848 34.4252V32.8132C242.848 32.0592 242.458 31.6692 241.704 31.6692H232.214V17.8892C232.214 17.2392 231.798 16.7452 231.07 16.7452H228.834C228.106 16.7452 227.69 17.2392 227.69 17.8892V34.4252ZM260.313 34.3992C260.313 35.1792 260.703 35.5692 261.457 35.5692H263.667C264.395 35.5692 264.837 35.1272 264.837 34.3992V17.9152C264.837 17.1872 264.395 16.7452 263.667 16.7452H261.457C260.703 16.7452 260.313 17.1352 260.313 17.9152V24.2592H254.177V17.9152C254.177 17.1352 253.787 16.7452 253.007 16.7452H250.797C250.043 16.7452 249.653 17.1352 249.653 17.9152V34.3992C249.653 35.1792 250.043 35.5692 250.797 35.5692H253.007C253.787 35.5692 254.177 35.1792 254.177 34.3992V28.1592H260.313V34.3992ZM271.925 28.1072H277.359C278.087 28.1072 278.477 27.6652 278.477 26.9632V25.3512C278.477 24.5972 278.113 24.2072 277.359 24.2072H271.925V20.6712H279.049C279.777 20.6712 280.193 20.2292 280.193 19.5272V17.8892C280.193 17.1872 279.777 16.7452 279.049 16.7452H268.545C267.843 16.7452 267.401 17.2392 267.401 17.8892V34.4252C267.401 35.0752 267.843 35.5692 268.545 35.5692H279.049C279.777 35.5692 280.193 35.1272 280.193 34.4252V32.8132C280.193 32.1112 279.777 31.6692 279.049 31.6692H271.925V28.1072ZM301.288 24.6752H304.642C305.266 24.6752 305.578 24.3632 305.578 23.7652V22.8292C305.578 22.2312 305.266 21.9192 304.642 21.9192H301.288V19.9952H305.708C306.462 19.9952 306.826 19.6832 306.826 19.0332V17.7072C306.826 17.0572 306.462 16.7452 305.708 16.7452H298.506C297.778 16.7452 297.362 17.2392 297.362 17.8892V28.7572C297.362 29.4072 297.856 29.9012 298.506 29.9012H305.708C306.462 29.9012 306.826 29.5892 306.826 28.9392V27.5872C306.826 26.9372 306.462 26.6252 305.708 26.6252H301.288V24.6752ZM282.204 34.4252C282.204 35.0752 282.62 35.5692 283.348 35.5692H285.584C286.312 35.5692 286.728 35.0752 286.728 34.4252V29.2252H288.652L291.2 31.9292C292.266 33.0732 293.072 33.7232 294.632 34.5552C296.218 35.3612 298.454 35.7512 301.34 35.7512C302.926 35.7512 304.252 35.6732 305.37 35.4912C306.098 35.4132 306.488 34.8672 306.488 34.2432V32.6052C306.488 31.9552 306.072 31.5132 305.37 31.6172C304.122 31.7472 303.004 31.8252 301.99 31.8252C298.584 31.8252 296.036 30.9932 294.346 29.3292L293.072 28.0812C295.23 27.0412 296.296 25.4292 296.296 23.2712C296.296 18.5652 293.592 16.7452 288.73 16.7452H283.348C282.62 16.7452 282.204 17.2392 282.204 17.8892V34.4252ZM292.136 23.1932C292.136 24.8572 290.888 25.6892 289.016 25.6892H286.728V20.6712H288.808C290.81 20.6712 292.136 21.5032 292.136 23.1932Z" fill="white"/>
<g clip-path="url(#clip0_2_17654)">
<path d="M392.046 185.634L405.212 177.145C405.709 176.802 405.843 176.187 405.497 175.694C405.151 175.201 404.532 175.067 404.036 175.411C403.967 175.428 403.985 175.497 403.916 175.514L392.046 185.634Z" fill="#871EF0"/>
<path d="M387.347 183.559L387.732 167.13C387.73 166.55 387.315 166.074 386.714 166.009C386.13 166.011 385.651 166.423 385.585 167.02C385.603 167.088 385.603 167.088 385.62 167.157L387.347 183.559Z" fill="#871EF0"/>
<path d="M382.772 185.661L368.347 175.017C367.899 174.695 367.195 174.801 366.871 175.246C366.547 175.691 366.653 176.39 367.101 176.712L367.187 176.762L382.772 185.661Z" fill="#871EF0"/>
<path d="M382.212 190.594L365.261 194.017C364.712 194.156 364.337 194.687 364.408 195.249C364.479 195.812 365.082 196.167 365.648 196.097C365.717 196.079 365.717 196.079 365.786 196.062L382.212 190.594Z" fill="#871EF0"/>
<path d="M385.892 195.25L378.766 209.903C378.528 210.399 378.703 211.08 379.271 211.299C379.839 211.519 380.456 211.362 380.677 210.798C380.677 210.798 380.728 210.713 380.71 210.644L385.892 195.25Z" fill="#871EF0"/>
<path d="M390.265 193.78L397.554 209.643C397.763 210.171 398.416 210.441 398.93 210.166C399.462 209.959 399.733 209.309 399.456 208.799C399.439 208.73 399.439 208.73 399.421 208.662L390.265 193.78Z" fill="#871EF0"/>
<path d="M393.477 190.353L408.771 192.14C409.372 192.205 409.851 191.794 409.917 191.196C409.983 190.599 409.568 190.123 408.967 190.058C408.898 190.075 408.898 190.075 408.812 190.024L393.477 190.353Z" fill="#871EF0"/>
<path d="M422.015 325.388L422.025 316.603C422.006 316.245 421.712 315.956 421.352 315.975C420.991 315.994 420.701 316.285 420.719 316.643L420.737 316.711L422.015 325.388Z" fill="#871EF0"/>
<path d="M419.571 327.822L410.547 322.56C410.202 322.356 409.791 322.461 409.655 322.786C409.519 323.11 409.555 323.537 409.882 323.671L409.968 323.722L419.571 327.822Z" fill="#871EF0"/>
<path d="M418.73 331.374L408.788 335.344C408.462 335.499 408.258 335.842 408.414 336.165C408.57 336.488 408.914 336.691 409.24 336.536L409.309 336.519L418.73 331.374Z" fill="#871EF0"/>
<path d="M421.484 332.709L418.081 342.789C417.945 343.114 418.118 343.505 418.514 343.623C418.841 343.758 419.235 343.585 419.353 343.193C419.353 343.193 419.336 343.124 419.404 343.107L421.484 332.709Z" fill="#871EF0"/>
<path d="M424.642 332.199L430.745 340.597C430.969 340.903 431.347 340.952 431.655 340.729C431.963 340.506 432.013 340.13 431.788 339.824L431.771 339.756L424.642 332.199Z" fill="#871EF0"/>
<path d="M426.329 329.666L436.415 330.523C436.793 330.572 437.083 330.281 437.133 329.905C437.183 329.53 436.889 329.241 436.511 329.192L436.443 329.209L426.329 329.666Z" fill="#871EF0"/>
<path d="M424.737 326.876L430.505 319.173C430.726 318.899 430.69 318.473 430.346 318.27C430.07 318.049 429.641 318.085 429.436 318.427L429.385 318.513L424.737 326.876Z" fill="#871EF0"/>
<path d="M394.046 176.635L397.86 169.572C397.962 169.401 397.909 169.196 397.737 169.095C397.565 168.993 397.359 169.045 397.257 169.217L394.046 176.635Z" fill="#871EF0"/>
<path d="M403.738 184.777L413.036 182.567C413.242 182.515 413.344 182.344 413.291 182.139C413.239 181.935 413.067 181.833 412.861 181.885L403.738 184.777Z" fill="#871EF0"/>
<path d="M401.571 198.537L409.257 203.993C409.429 204.095 409.635 204.043 409.755 203.94C409.857 203.769 409.804 203.564 409.701 203.445L401.571 198.537Z" fill="#871EF0"/>
<path d="M388.775 201.924L389.295 213.623C389.279 213.845 389.451 213.946 389.674 213.962C389.898 213.979 390 213.807 390.016 213.586L388.775 201.924Z" fill="#871EF0"/>
<path d="M377.098 198.567L368.302 205.296C368.114 205.416 368.098 205.638 368.219 205.825C368.34 206.012 368.564 206.028 368.752 205.908L377.098 198.567Z" fill="#871EF0"/>
<path d="M373.415 186.217L362.639 184.665C362.416 184.649 362.296 184.752 362.212 184.991C362.196 185.213 362.299 185.332 362.54 185.416L373.415 186.217Z" fill="#871EF0"/>
<path d="M380.774 177.312L376.707 167.164C376.655 166.96 376.414 166.876 376.225 166.996C376.037 167.116 375.935 167.288 376.056 167.475L380.774 177.312Z" fill="#871EF0"/>
</g>
<path d="M95.1877 344.152L80.5201 349.706C79.9622 349.938 79.7007 350.511 79.9346 351.065C80.1685 351.619 80.7454 351.879 81.3033 351.647C81.3741 351.644 81.3714 351.574 81.4422 351.571L95.1877 344.152Z" fill="#871EF0"/>
<path d="M99.3425 347.162L95.4923 363.144C95.3724 363.712 95.677 364.264 96.2512 364.453C96.8227 364.572 97.3779 364.27 97.5686 363.699C97.5659 363.629 97.5659 363.629 97.5632 363.559L99.3425 347.162Z" fill="#871EF0"/>
<path d="M104.261 346.061L116.114 359.477C116.484 359.885 117.194 359.929 117.605 359.561C118.016 359.194 118.06 358.488 117.69 358.08L117.617 358.012L104.261 346.061Z" fill="#871EF0"/>
<path d="M105.851 341.355L123.149 341.544C123.715 341.523 124.194 341.082 124.243 340.517C124.292 339.952 123.778 339.479 123.209 339.43C123.139 339.433 123.139 339.433 123.068 339.436L105.851 341.355Z" fill="#871EF0"/>
<path d="M103.238 336.035L113.303 323.195C113.64 322.76 113.613 322.057 113.104 321.725C112.596 321.392 111.959 321.416 111.624 321.922C111.624 321.922 111.556 321.995 111.559 322.065L103.238 336.035Z" fill="#871EF0"/>
<path d="M98.6518 336.56L94.8795 319.53C94.7871 318.97 94.2048 318.57 93.6442 318.732C93.0808 318.824 92.6779 319.402 92.841 319.959C92.8437 320.029 92.8437 320.029 92.8464 320.1L98.6518 336.56Z" fill="#871EF0"/>
<path d="M94.7861 339.241L80.2115 334.303C79.6374 334.114 79.0821 334.416 78.8914 334.987C78.7007 335.557 79.0054 336.109 79.5796 336.298C79.6503 336.295 79.6503 336.295 79.7238 336.363L94.7861 339.241Z" fill="#871EF0"/>
<path d="M95.4366 201.264L93.5698 209.851C93.5126 210.205 93.7383 210.549 94.0948 210.606C94.4513 210.662 94.797 210.438 94.8543 210.084L94.8516 210.014L95.4366 201.264Z" fill="#871EF0"/>
<path d="M98.3408 199.394L106.051 206.422C106.345 206.692 106.77 206.676 106.971 206.387C107.173 206.098 107.227 205.673 106.936 205.473L106.863 205.406L98.3408 199.394Z" fill="#871EF0"/>
<path d="M99.9155 196.097L110.475 194.289C110.826 194.205 111.099 193.913 111.014 193.565C110.93 193.216 110.636 192.945 110.285 193.029L110.214 193.032L99.9155 196.097Z" fill="#871EF0"/>
<path d="M97.5047 194.218L102.964 185.072C103.165 184.783 103.078 184.364 102.717 184.166C102.425 183.966 102.004 184.052 101.805 184.412C101.805 184.412 101.807 184.482 101.737 184.485L97.5047 194.218Z" fill="#871EF0"/>
<path d="M94.3093 194.057L90.1184 184.573C89.9634 184.227 89.6042 184.1 89.2558 184.254C88.9074 184.408 88.7794 184.765 88.9344 185.111L88.9371 185.181L94.3093 194.057Z" fill="#871EF0"/>
<path d="M92.1233 196.181L82.4439 193.24C82.0848 193.113 81.7391 193.337 81.6111 193.694C81.483 194.051 81.7088 194.394 82.068 194.521L82.1388 194.518L92.1233 196.181Z" fill="#871EF0"/>
<path d="M93.0912 199.241L85.823 205.57C85.5481 205.791 85.4935 206.216 85.7874 206.486C86.0105 206.759 86.4377 206.813 86.7099 206.522L86.778 206.449L93.0912 199.241Z" fill="#871EF0"/>
<path d="M91.328 352.534L86.1064 358.644C85.9703 358.79 85.9784 359.001 86.1253 359.136C86.2722 359.271 86.4845 359.263 86.6206 359.117L91.328 352.534Z" fill="#871EF0"/>
<path d="M83.5757 342.551L74.0179 342.773C73.8056 342.781 73.6695 342.927 73.6776 343.138C73.6857 343.349 73.8326 343.484 74.0449 343.476L83.5757 342.551Z" fill="#871EF0"/>
<path d="M88.6027 329.551L82.242 322.613C82.0951 322.478 81.8828 322.486 81.744 322.561C81.6079 322.707 81.616 322.918 81.6922 323.056L88.6027 329.551Z" fill="#871EF0"/>
<path d="M101.829 328.909L103.795 317.362C103.857 317.148 103.711 317.013 103.496 316.951C103.281 316.889 103.144 317.035 103.082 317.248L101.829 328.909Z" fill="#871EF0"/>
<path d="M112.536 334.626L122.558 329.883C122.768 329.804 122.83 329.591 122.751 329.383C122.673 329.175 122.458 329.112 122.248 329.191L112.536 334.626Z" fill="#871EF0"/>
<path d="M113.526 347.469L123.733 351.235C123.948 351.297 124.087 351.222 124.221 351.005C124.283 350.792 124.207 350.654 123.989 350.521L113.526 347.469Z" fill="#871EF0"/>
<path d="M104.448 354.64L106.279 365.41C106.287 365.621 106.505 365.753 106.715 365.675C106.924 365.597 107.06 365.451 106.981 365.243L104.448 354.64Z" fill="#871EF0"/>
<path d="M272.798 231.825C269.527 236.295 265.275 238.802 260.914 238.802H260.26H259.606C255.245 238.802 250.993 236.295 247.722 231.825L246.959 230.625V242.4L243.688 243.708L244.997 245.562C248.486 250.577 254.155 253.521 260.26 253.521C266.365 253.521 272.035 250.577 275.524 245.562L276.832 243.708L273.561 242.4V230.625L272.798 231.825Z" fill="#BD6C67"/>
<path d="M259.715 238.802H260.369H261.023C265.384 238.802 269.636 236.295 272.907 231.825L273.779 230.625V215.035H260.26H246.959V230.625L247.831 231.825C250.993 236.295 255.245 238.802 259.715 238.802Z" fill="#3C3247"/>
<path d="M260.26 232.588C290.246 232.588 314.554 208.28 314.554 178.294C314.554 148.308 290.246 124 260.26 124C230.274 124 205.966 148.308 205.966 178.294C205.966 208.28 230.274 232.588 260.26 232.588Z" fill="#302A37"/>
<path d="M229.773 208.167C234.784 206.104 237.174 200.37 235.112 195.359C233.049 190.348 227.315 187.957 222.304 190.02C217.293 192.082 214.902 197.817 216.965 202.828C219.027 207.839 224.762 210.229 229.773 208.167Z" fill="#A64F5A"/>
<path d="M231.476 199.118C231.476 202.17 228.968 204.678 225.916 204.678C222.863 204.678 220.355 202.17 220.355 199.118C220.355 196.065 222.863 193.557 225.916 193.557C229.077 193.557 231.476 196.065 231.476 199.118Z" fill="#8C404C"/>
<path d="M303.737 202.854C305.799 197.843 303.409 192.109 298.398 190.046C293.387 187.984 287.652 190.374 285.59 195.385C283.527 200.396 285.918 206.13 290.929 208.193C295.94 210.256 301.674 207.865 303.737 202.854Z" fill="#A64F5A"/>
<path d="M289.15 199.117C289.15 202.17 291.658 204.678 294.711 204.678C297.763 204.678 300.271 202.17 300.271 199.117C300.271 196.065 297.763 193.557 294.711 193.557C291.549 193.557 289.15 196.065 289.15 199.117Z" fill="#8C404C"/>
<path d="M227.443 194.975H230.495L232.458 177.422H226.025L227.443 194.975Z" fill="url(#paint0_linear_2_17654)"/>
<path d="M288.06 177.422L290.131 194.975H293.184L294.601 177.422H288.06Z" fill="url(#paint1_linear_2_17654)"/>
<path d="M260.26 160.741C248.268 160.741 238.019 163.139 233.004 166.737C231.369 170.444 230.388 174.587 230.388 178.839V196.283C230.388 207.294 235.076 217.87 243.144 225.392L244.343 226.483C248.486 230.189 253.828 232.261 259.388 232.261H260.151H261.132C266.693 232.261 272.035 230.189 276.178 226.483L277.377 225.392C285.554 217.87 290.133 207.403 290.133 196.283V178.839C290.133 174.478 289.152 170.444 287.516 166.737C282.61 163.249 272.253 160.741 260.26 160.741Z" fill="#BD6C67"/>
<path d="M246.959 192.031C248.464 192.031 249.685 190.811 249.685 189.305C249.685 187.8 248.464 186.58 246.959 186.58C245.454 186.58 244.233 187.8 244.233 189.305C244.233 190.811 245.454 192.031 246.959 192.031Z" fill="#3C3247"/>
<path d="M273.669 192.031C275.174 192.031 276.395 190.811 276.395 189.305C276.395 187.8 275.174 186.58 273.669 186.58C272.164 186.58 270.943 187.8 270.943 189.305C270.943 190.811 272.164 192.031 273.669 192.031Z" fill="#3C3247"/>
<path d="M267.237 203.261C262.658 202.279 257.861 202.279 253.282 203.261C254.918 205.441 257.643 207.076 260.369 207.185C263.203 207.294 266.038 205.659 267.237 203.261Z" fill="#A64F5A"/>
<path d="M246.305 178.294C242.707 178.076 239.327 179.493 236.929 182.001C243.034 182.655 249.139 183.091 255.245 183.091C253.173 180.365 250.012 178.512 246.305 178.294Z" fill="#3C3247"/>
<path d="M274.215 178.294C277.813 178.076 281.193 179.493 283.591 182.001C277.486 182.655 271.381 183.091 265.275 183.091C267.456 180.365 270.618 178.512 274.215 178.294Z" fill="#3C3247"/>
<path opacity="0.3" d="M246.959 200.971C251.896 200.971 255.899 196.968 255.899 192.031C255.899 187.094 251.896 183.091 246.959 183.091C242.021 183.091 238.019 187.094 238.019 192.031C238.019 196.968 242.021 200.971 246.959 200.971Z" fill="white"/>
<path opacity="0.3" d="M273.669 200.971C278.607 200.971 282.609 196.968 282.609 192.031C282.609 187.094 278.607 183.091 273.669 183.091C268.732 183.091 264.729 187.094 264.729 192.031C264.729 196.968 268.732 200.971 273.669 200.971Z" fill="white"/>
<path d="M273.67 180.802C268.764 180.802 264.621 183.963 263.094 188.433C262.331 187.888 261.35 187.561 260.369 187.561C259.278 187.561 258.406 187.888 257.643 188.433C256.117 183.963 251.974 180.802 247.068 180.802C240.853 180.802 235.947 185.817 235.947 191.922C235.947 198.136 240.962 203.042 247.068 203.042C253.282 203.042 258.297 198.027 258.297 191.922C258.297 191.595 258.297 191.377 258.297 191.05C258.297 190.396 259.169 189.741 260.478 189.741C261.786 189.741 262.658 190.505 262.658 191.05C262.658 191.377 262.658 191.595 262.658 191.922C262.658 198.136 267.673 203.042 273.779 203.042C279.993 203.042 284.899 198.027 284.899 191.922C284.79 185.817 279.775 180.802 273.67 180.802ZM238.019 192.031C238.019 187.125 242.053 183.091 246.959 183.091C251.865 183.091 256.008 187.125 256.008 192.031C256.008 196.937 251.974 200.971 246.959 200.971C242.053 200.971 238.019 196.937 238.019 192.031ZM264.621 192.031C264.621 187.125 268.655 183.091 273.561 183.091C278.467 183.091 282.501 187.125 282.501 192.031C282.501 196.937 278.467 200.971 273.561 200.971C268.655 200.971 264.621 196.937 264.621 192.031Z" fill="#454F6B"/>
<path d="M290.241 194.975L285.88 207.185C285.335 208.603 283.809 209.257 282.501 208.494L279.448 206.858C277.485 205.877 275.305 205.55 273.124 205.768L260.26 207.185L247.613 205.768C245.432 205.55 243.252 205.986 241.398 206.967L238.237 208.494C236.928 209.148 235.293 208.494 234.857 207.185L230.496 194.975H227.443V202.606C227.443 209.693 229.406 216.67 233.004 222.776L233.876 224.302C238.346 231.716 246.305 236.295 255.026 236.295H260.369H265.711C274.433 236.295 282.392 231.716 286.861 224.302L287.734 222.776C291.331 216.67 293.294 209.693 293.294 202.606V194.975H290.241ZM274.324 213.618L272.034 220.377C271.38 222.34 269.527 223.539 267.455 223.321H266.583C265.057 223.212 263.748 222.558 262.658 221.467H260.369H258.079C257.098 222.558 255.681 223.212 254.154 223.321L253.173 223.43C251.211 223.648 249.248 222.34 248.594 220.486L246.305 213.727C245.868 212.418 246.959 211.219 248.267 211.328L252.955 211.873C255.354 212.2 257.752 211.873 260.042 211.11L260.26 211.001L260.587 211.11C262.876 211.873 265.275 212.2 267.673 211.873L272.361 211.328C273.67 211.11 274.76 212.309 274.324 213.618Z" fill="#3C3247"/>
<path d="M249.532 213.753H270.538V213.753C270.538 216.917 267.973 219.482 264.809 219.482H255.261C252.097 219.482 249.532 216.917 249.532 213.753V213.753Z" fill="white"/>
<g clip-path="url(#clip1_2_17654)">
<path d="M247.016 444.745H228.768V454.315H247.016V444.745Z" fill="#E3A473" stroke="#672938" stroke-width="2.35" stroke-linecap="round" stroke-linejoin="round"/>
<path d="M292.143 454.308L273.895 456.199V444.745H292.143V454.308Z" fill="#E3A473" stroke="#672938" stroke-width="2.35" stroke-linecap="round" stroke-linejoin="round"/>
<path d="M247.015 437.816H228.767V447.386H247.015V437.816Z" fill="#2B2B2B" stroke="#672938" stroke-width="3" stroke-linecap="round" stroke-linejoin="round"/>
<path d="M292.143 437.816H273.895V447.386H292.143V437.816Z" fill="#2B2B2B" stroke="#672938" stroke-width="3" stroke-linecap="round" stroke-linejoin="round"/>
<path d="M302.017 430.317L292.615 324.393H291.629V324.164H228.329V324.692L218.892 431.325C218.819 432.514 218.99 433.705 219.395 434.825C219.799 435.945 220.429 436.971 221.245 437.839C222.06 438.707 223.045 439.398 224.138 439.871C225.231 440.344 226.409 440.589 227.6 440.589H249.448C251.668 440.588 253.804 439.741 255.422 438.22C257.04 436.699 258.017 434.619 258.155 432.402L258.28 345.743H262.991L264.326 431.513C264.476 433.97 265.559 436.278 267.352 437.965C269.146 439.652 271.516 440.59 273.978 440.589H292.365C293.686 440.589 294.992 440.318 296.204 439.794C297.416 439.269 298.507 438.502 299.412 437.54C300.316 436.578 301.014 435.441 301.462 434.198C301.91 432.956 302.099 431.635 302.017 430.317Z" fill="#2B2B2B" stroke="#672938" stroke-width="3" stroke-linecap="round" stroke-linejoin="round"/>
<path d="M295.277 302.807L315.958 297.907L295.625 256.207C295.274 255.195 294.618 254.317 293.746 253.694C292.875 253.071 291.831 252.735 290.76 252.732H229.483C228.569 252.733 227.672 252.976 226.882 253.436C226.092 253.896 225.439 254.558 224.987 255.352H224.918L204.07 297.921L224.918 302.786L223.924 318.625C223.869 319.334 223.962 320.047 224.196 320.719C224.43 321.391 224.8 322.008 225.284 322.53C225.767 323.052 226.354 323.468 227.006 323.753C227.658 324.038 228.362 324.185 229.073 324.185H291.108C291.819 324.185 292.523 324.038 293.175 323.753C293.827 323.468 294.414 323.052 294.897 322.53C295.381 322.008 295.751 321.391 295.985 320.719C296.219 320.047 296.312 319.334 296.257 318.625L295.277 302.807Z" fill="#FBE854" stroke="#672938" stroke-width="3" stroke-linecap="round" stroke-linejoin="round"/>
<path d="M259.955 254.581V323.67" stroke="#672938" stroke-width="3" stroke-linecap="round" stroke-linejoin="round"/>
<path d="M288.842 268.258L287.195 263.678" stroke="#42A54B" stroke-width="0.3"/>
<path d="M285.882 264.151L287.536 268.731" stroke="#42A54B" stroke-width="0.3"/>
<path d="M280.107 267.105L281.303 262.386" stroke="#42A54B" stroke-width="0.3"/>
<path d="M279.961 262.045L278.759 266.757" stroke="#42A54B" stroke-width="0.3"/>
<path d="M276.188 266.994L271.706 265.096" stroke="#42A54B" stroke-width="0.3"/>
<path d="M265.125 266.737L266.452 262.052" stroke="#42A54B" stroke-width="0.3"/>
<path d="M265.111 261.677L263.791 266.354" stroke="#42A54B" stroke-width="0.3"/>
<path d="M260.9 266.465L259.496 261.809" stroke="#42A54B" stroke-width="0.3"/>
<path d="M258.162 262.205L259.566 266.868" stroke="#42A54B" stroke-width="0.3"/>
<path d="M290.246 262.552L293.325 266.319" stroke="#42A54B" stroke-width="0.3"/>
<path d="M294.402 265.437L291.323 261.67" stroke="#42A54B" stroke-width="0.3"/>
<path d="M290.246 262.552L293.325 266.319" stroke="#42A54B" stroke-width="0.3"/>
<path d="M294.402 265.437L291.323 261.67" stroke="#42A54B" stroke-width="0.3"/>
<path d="M285.882 264.151L287.536 268.731" stroke="#42A54B" stroke-width="0.3"/>
<path d="M288.842 268.258L287.195 263.678" stroke="#42A54B" stroke-width="0.3"/>
<path d="M279.961 262.045L278.759 266.757" stroke="#42A54B" stroke-width="0.3"/>
<path d="M280.107 267.105L281.303 262.386" stroke="#42A54B" stroke-width="0.3"/>
<path d="M265.111 261.677L263.791 266.354" stroke="#42A54B" stroke-width="0.3"/>
<path d="M265.125 266.737L266.452 262.052" stroke="#42A54B" stroke-width="0.3"/>
<path d="M258.162 262.205L259.566 266.868" stroke="#42A54B" stroke-width="0.3"/>
<path d="M260.9 266.465L259.496 261.809" stroke="#42A54B" stroke-width="0.3"/>
<path d="M269.135 246.401L266.237 251.46" stroke="#42A54B" stroke-width="0.36"/>
<path d="M267.683 252.295L270.587 247.228" stroke="#42A54B" stroke-width="0.36"/>
<path d="M275.688 255.658L277.084 260.322" stroke="#42A54B" stroke-width="0.3"/>
<path d="M278.418 259.919L277.015 255.255" stroke="#42A54B" stroke-width="0.3"/>
<path d="M288.822 256.409L284.006 257.083" stroke="#42A54B" stroke-width="0.3"/>
<path d="M284.2 258.459L289.016 257.785" stroke="#42A54B" stroke-width="0.3"/>
<path d="M278.954 244.879L275.834 249.806" stroke="#42A54B" stroke-width="0.36"/>
<path d="M270.948 254.206L267.995 258.063" stroke="#42A54B" stroke-width="0.3"/>
<path d="M269.093 258.911L272.053 255.047" stroke="#42A54B" stroke-width="0.3"/>
<path d="M265.535 257.271L262.165 253.761" stroke="#42A54B" stroke-width="0.3"/>
<path d="M261.164 254.72L264.527 258.23" stroke="#42A54B" stroke-width="0.3"/>
<path d="M252.687 253.504L257.398 254.706" stroke="#42A54B" stroke-width="0.3"/>
<path d="M257.738 253.358L253.026 252.162" stroke="#42A54B" stroke-width="0.3"/>
<path d="M253.402 260.44L258.023 258.911" stroke="#42A54B" stroke-width="0.3"/>
<path d="M257.585 257.597L252.964 259.119" stroke="#42A54B" stroke-width="0.3"/>
<path d="M299.058 317.735L301.476 313.516" stroke="#42A54B" stroke-width="0.3"/>
<path d="M300.267 312.828L297.849 317.047" stroke="#42A54B" stroke-width="0.3"/>
<path d="M288.842 318.298L287.195 313.718" stroke="#42A54B" stroke-width="0.3"/>
<path d="M285.882 314.191L287.536 318.771" stroke="#42A54B" stroke-width="0.3"/>
<path d="M280.107 317.144L281.303 312.425" stroke="#42A54B" stroke-width="0.3"/>
<path d="M279.961 312.085L278.759 316.797" stroke="#42A54B" stroke-width="0.3"/>
<path d="M276.188 317.033L271.706 315.136" stroke="#42A54B" stroke-width="0.3"/>
<path d="M265.125 316.776L266.452 312.092" stroke="#42A54B" stroke-width="0.3"/>
<path d="M265.111 311.717L263.791 316.394" stroke="#42A54B" stroke-width="0.3"/>
<path d="M260.9 316.505L259.496 311.848" stroke="#42A54B" stroke-width="0.3"/>
<path d="M258.162 312.245L259.566 316.908" stroke="#42A54B" stroke-width="0.3"/>
<path d="M290.246 312.592L293.325 316.359" stroke="#42A54B" stroke-width="0.3"/>
<path d="M294.402 315.476L291.323 311.709" stroke="#42A54B" stroke-width="0.3"/>
<path d="M307.737 292.333L305.958 296.864" stroke="#42A54B" stroke-width="0.3"/>
<path d="M254.604 282.714L259.135 280.942" stroke="#42A54B" stroke-width="0.3"/>
<path d="M257.704 292.333L255.925 296.864" stroke="#42A54B" stroke-width="0.3"/>
<path d="M257.217 297.372L258.996 292.84" stroke="#42A54B" stroke-width="0.3"/>
<path d="M302.692 288.698L307.432 289.769" stroke="#42A54B" stroke-width="0.3"/>
<path d="M307.744 288.413L302.998 287.336" stroke="#42A54B" stroke-width="0.3"/>
<path d="M302.72 303.543L307.431 304.746" stroke="#42A54B" stroke-width="0.3"/>
<path d="M307.772 303.397L303.061 302.202" stroke="#42A54B" stroke-width="0.3"/>
<path d="M303.436 310.479L308.057 308.95" stroke="#42A54B" stroke-width="0.3"/>
<path d="M307.619 307.637L302.998 309.159" stroke="#42A54B" stroke-width="0.3"/>
<path d="M288.842 268.258L287.195 263.678" stroke="#42A54B" stroke-width="0.3"/>
<path d="M285.882 264.151L287.536 268.731" stroke="#42A54B" stroke-width="0.3"/>
<path d="M280.107 267.105L281.303 262.386" stroke="#42A54B" stroke-width="0.3"/>
<path d="M279.961 262.045L278.759 266.757" stroke="#42A54B" stroke-width="0.3"/>
<path d="M276.188 266.994L271.706 265.096" stroke="#42A54B" stroke-width="0.3"/>
<path d="M271.164 266.375L275.639 268.272" stroke="#42A54B" stroke-width="0.3"/>
<path d="M265.125 266.737L266.452 262.052" stroke="#42A54B" stroke-width="0.3"/>
<path d="M265.111 261.677L263.791 266.354" stroke="#42A54B" stroke-width="0.3"/>
<path d="M260.9 266.465L259.496 261.809" stroke="#42A54B" stroke-width="0.3"/>
<path d="M258.162 262.205L259.566 266.868" stroke="#42A54B" stroke-width="0.3"/>
<path d="M300.267 312.828L297.849 317.047" stroke="#42A54B" stroke-width="0.3"/>
<path d="M299.058 317.735L301.476 313.516" stroke="#42A54B" stroke-width="0.3"/>
<path d="M290.246 312.592L293.325 316.359" stroke="#42A54B" stroke-width="0.3"/>
<path d="M294.402 315.476L291.323 311.709" stroke="#42A54B" stroke-width="0.3"/>
<path d="M285.882 314.191L287.536 318.771" stroke="#42A54B" stroke-width="0.3"/>
<path d="M288.842 318.298L287.195 313.718" stroke="#42A54B" stroke-width="0.3"/>
<path d="M279.961 312.085L278.759 316.797" stroke="#42A54B" stroke-width="0.3"/>
<path d="M280.107 317.144L281.303 312.425" stroke="#42A54B" stroke-width="0.3"/>
<path d="M265.111 311.717L263.791 316.394" stroke="#42A54B" stroke-width="0.3"/>
<path d="M265.125 316.776L266.452 312.092" stroke="#42A54B" stroke-width="0.3"/>
<path d="M258.162 312.245L259.566 316.908" stroke="#42A54B" stroke-width="0.3"/>
<path d="M260.9 316.505L259.496 311.848" stroke="#42A54B" stroke-width="0.3"/>
<path d="M267.606 297.191L265.188 301.41" stroke="#42A54B" stroke-width="0.3"/>
<path d="M266.396 302.098L268.815 297.879" stroke="#42A54B" stroke-width="0.3"/>
<path d="M288.494 274.819L285.416 271.052" stroke="#42A54B" stroke-width="0.3"/>
<path d="M284.34 271.935L287.418 275.702" stroke="#42A54B" stroke-width="0.3"/>
<path d="M279.976 273.533L281.629 278.113" stroke="#42A54B" stroke-width="0.3"/>
<path d="M282.936 277.641L281.289 273.061" stroke="#42A54B" stroke-width="0.3"/>
<path d="M298.426 306.956L293.943 305.058" stroke="#42A54B" stroke-width="0.3"/>
<path d="M293.401 306.337L297.877 308.234" stroke="#42A54B" stroke-width="0.3"/>
<path d="M298.558 294.474L297.237 299.151" stroke="#42A54B" stroke-width="0.3"/>
<path d="M298.571 299.533L299.892 294.849" stroke="#42A54B" stroke-width="0.3"/>
<path d="M291.323 290.755L292.72 295.419" stroke="#42A54B" stroke-width="0.3"/>
<path d="M294.054 295.016L292.65 290.352" stroke="#42A54B" stroke-width="0.3"/>
<path d="M277.737 287.072L280.156 282.853" stroke="#42A54B" stroke-width="0.3"/>
<path d="M278.946 282.158L276.535 286.384" stroke="#42A54B" stroke-width="0.3"/>
<path d="M267.661 282.36L270.74 286.127" stroke="#42A54B" stroke-width="0.3"/>
<path d="M271.817 285.244L268.738 281.477" stroke="#42A54B" stroke-width="0.3"/>
<path d="M262.255 283.611L263.909 288.191" stroke="#42A54B" stroke-width="0.3"/>
<path d="M265.215 287.718L263.568 283.138" stroke="#42A54B" stroke-width="0.3"/>
<path d="M298.377 282.2L297.175 286.912" stroke="#42A54B" stroke-width="0.3"/>
<path d="M298.522 287.26L299.718 282.541" stroke="#42A54B" stroke-width="0.3"/>
<path d="M287.376 284.723L291.858 286.62" stroke="#42A54B" stroke-width="0.3"/>
<path d="M292.4 285.341L287.918 283.444" stroke="#42A54B" stroke-width="0.3"/>
<path d="M275.688 305.698L277.084 310.361" stroke="#42A54B" stroke-width="0.3"/>
<path d="M278.418 309.958L277.015 305.295" stroke="#42A54B" stroke-width="0.3"/>
<path d="M288.822 306.448L284.006 307.123" stroke="#42A54B" stroke-width="0.3"/>
<path d="M284.2 308.499L289.016 307.824" stroke="#42A54B" stroke-width="0.3"/>
<path d="M288.919 297.956L287.835 302.695" stroke="#42A54B" stroke-width="0.3"/>
<path d="M289.189 303.008L290.274 298.268" stroke="#42A54B" stroke-width="0.3"/>
<path d="M275.792 295.919L273.193 300.027" stroke="#42A54B" stroke-width="0.3"/>
<path d="M274.367 300.77L276.966 296.663" stroke="#42A54B" stroke-width="0.3"/>
<path d="M276.953 289.942L272.491 291.888" stroke="#42A54B" stroke-width="0.3"/>
<path d="M273.054 293.16L277.508 291.221" stroke="#42A54B" stroke-width="0.3"/>
<path d="M267.558 293.841L268.885 289.157" stroke="#42A54B" stroke-width="0.3"/>
<path d="M267.543 288.782L266.223 293.459" stroke="#42A54B" stroke-width="0.3"/>
<path d="M285.312 291.485L283.908 286.829" stroke="#42A54B" stroke-width="0.3"/>
<path d="M282.574 287.225L283.978 291.888" stroke="#42A54B" stroke-width="0.3"/>
<path d="M275.778 275.389L271.894 278.315" stroke="#42A54B" stroke-width="0.3"/>
<path d="M272.734 279.427L276.619 276.494" stroke="#42A54B" stroke-width="0.3"/>
<path d="M269.343 275.514L267.988 270.844" stroke="#42A54B" stroke-width="0.3"/>
<path d="M266.654 271.226L268.009 275.903" stroke="#42A54B" stroke-width="0.3"/>
<path d="M262.019 270.983L261.734 275.841" stroke="#42A54B" stroke-width="0.3"/>
<path d="M263.124 275.924L263.402 271.066" stroke="#42A54B" stroke-width="0.3"/>
<path d="M270.948 304.245L267.995 308.103" stroke="#42A54B" stroke-width="0.3"/>
<path d="M269.093 308.95L272.053 305.086" stroke="#42A54B" stroke-width="0.3"/>
<path d="M265.535 307.31L262.165 303.801" stroke="#42A54B" stroke-width="0.3"/>
<path d="M261.164 304.76L264.527 308.269" stroke="#42A54B" stroke-width="0.3"/>
<path d="M293.359 281.463L296.417 277.683" stroke="#42A54B" stroke-width="0.3"/>
<path d="M295.34 276.807L292.282 280.588" stroke="#42A54B" stroke-width="0.3"/>
<path d="M295.465 274.395L296.007 269.565" stroke="#42A54B" stroke-width="0.3"/>
<path d="M294.631 269.405L294.082 274.242" stroke="#42A54B" stroke-width="0.3"/>
<path d="M279.503 298.692L283.978 300.589" stroke="#42A54B" stroke-width="0.3"/>
<path d="M284.527 299.311L280.045 297.414" stroke="#42A54B" stroke-width="0.3"/>
<path d="M290.246 262.552L293.325 266.319" stroke="#42A54B" stroke-width="0.3"/>
<path d="M294.402 265.437L291.323 261.67" stroke="#42A54B" stroke-width="0.3"/>
<path d="M252.853 268.37L257.14 270.677" stroke="#42A54B" stroke-width="0.3"/>
<path d="M257.793 269.447L253.513 267.146" stroke="#42A54B" stroke-width="0.3"/>
<path d="M254.604 282.714L259.135 280.942" stroke="#42A54B" stroke-width="0.3"/>
<path d="M258.627 279.649L254.097 281.422" stroke="#42A54B" stroke-width="0.3"/>
<path d="M252.658 288.698L257.397 289.769" stroke="#42A54B" stroke-width="0.3"/>
<path d="M257.71 288.413L252.964 287.336" stroke="#42A54B" stroke-width="0.3"/>
<path d="M252.687 303.543L257.398 304.746" stroke="#42A54B" stroke-width="0.3"/>
<path d="M257.738 303.397L253.026 302.202" stroke="#42A54B" stroke-width="0.3"/>
<path d="M253.402 310.479L258.023 308.95" stroke="#42A54B" stroke-width="0.3"/>
<path d="M257.585 307.637L252.964 309.159" stroke="#42A54B" stroke-width="0.3"/>
<path d="M290.246 262.552L293.325 266.319" stroke="#42A54B" stroke-width="0.3"/>
<path d="M294.402 265.437L291.323 261.67" stroke="#42A54B" stroke-width="0.3"/>
<path d="M285.882 264.151L287.536 268.731" stroke="#42A54B" stroke-width="0.3"/>
<path d="M288.842 268.258L287.195 263.678" stroke="#42A54B" stroke-width="0.3"/>
<path d="M279.961 262.045L278.759 266.757" stroke="#42A54B" stroke-width="0.3"/>
<path d="M280.107 267.105L281.303 262.386" stroke="#42A54B" stroke-width="0.3"/>
<path d="M265.111 261.677L263.791 266.354" stroke="#42A54B" stroke-width="0.3"/>
<path d="M265.125 266.737L266.452 262.052" stroke="#42A54B" stroke-width="0.3"/>
<path d="M258.162 262.205L259.566 266.868" stroke="#42A54B" stroke-width="0.3"/>
<path d="M260.9 266.465L259.496 261.809" stroke="#42A54B" stroke-width="0.3"/>
<path d="M299.058 317.735L301.476 313.516" stroke="#42A54B" stroke-width="0.3"/>
<path d="M300.267 312.828L297.849 317.047" stroke="#42A54B" stroke-width="0.3"/>
<path d="M288.842 318.298L287.195 313.718" stroke="#42A54B" stroke-width="0.3"/>
<path d="M285.882 314.191L287.536 318.771" stroke="#42A54B" stroke-width="0.3"/>
<path d="M280.107 317.144L281.303 312.425" stroke="#42A54B" stroke-width="0.3"/>
<path d="M279.961 312.085L278.759 316.797" stroke="#42A54B" stroke-width="0.3"/>
<path d="M276.188 317.033L271.706 315.136" stroke="#42A54B" stroke-width="0.3"/>
<path d="M271.164 316.415L275.639 318.312" stroke="#42A54B" stroke-width="0.3"/>
<path d="M265.125 316.776L266.452 312.092" stroke="#42A54B" stroke-width="0.3"/>
<path d="M265.111 311.717L263.791 316.394" stroke="#42A54B" stroke-width="0.3"/>
<path d="M260.9 316.505L259.496 311.848" stroke="#42A54B" stroke-width="0.3"/>
<path d="M258.162 312.245L259.566 316.908" stroke="#42A54B" stroke-width="0.3"/>
<path d="M288.494 324.859L285.416 321.092" stroke="#42A54B" stroke-width="0.3"/>
<path d="M284.34 321.975L287.418 325.741" stroke="#42A54B" stroke-width="0.3"/>
<path d="M291.323 340.795L292.72 345.458" stroke="#42A54B" stroke-width="0.3"/>
<path d="M294.054 345.055L292.65 340.392" stroke="#42A54B" stroke-width="0.3"/>
<path d="M277.737 337.111L280.156 332.893" stroke="#42A54B" stroke-width="0.3"/>
<path d="M298.377 332.24L297.175 336.952" stroke="#42A54B" stroke-width="0.3"/>
<path d="M287.376 334.762L291.858 336.66" stroke="#42A54B" stroke-width="0.3"/>
<path d="M292.4 335.381L287.918 333.484" stroke="#42A54B" stroke-width="0.3"/>
<path d="M285.312 341.525L283.908 336.868" stroke="#42A54B" stroke-width="0.3"/>
<path d="M282.574 337.264L283.978 341.928" stroke="#42A54B" stroke-width="0.3"/>
<path d="M293.359 331.503L296.417 327.722" stroke="#42A54B" stroke-width="0.3"/>
<path d="M295.34 326.846L292.282 330.627" stroke="#42A54B" stroke-width="0.3"/>
<path d="M295.465 324.435L296.007 319.605" stroke="#42A54B" stroke-width="0.3"/>
<path d="M294.631 319.445L294.082 324.282" stroke="#42A54B" stroke-width="0.3"/>
<path d="M290.246 312.592L293.325 316.359" stroke="#42A54B" stroke-width="0.3"/>
<path d="M294.402 315.476L291.323 311.709" stroke="#42A54B" stroke-width="0.3"/>
<path d="M252.853 318.409L257.14 320.717" stroke="#42A54B" stroke-width="0.3"/>
<path d="M257.793 319.486L253.513 317.186" stroke="#42A54B" stroke-width="0.3"/>
<path d="M300.267 312.828L297.849 317.047" stroke="#42A54B" stroke-width="0.3"/>
<path d="M299.058 317.735L301.476 313.516" stroke="#42A54B" stroke-width="0.3"/>
<path d="M290.246 312.592L293.325 316.359" stroke="#42A54B" stroke-width="0.3"/>
<path d="M294.402 315.476L291.323 311.709" stroke="#42A54B" stroke-width="0.3"/>
<path d="M285.882 314.191L287.536 318.771" stroke="#42A54B" stroke-width="0.3"/>
<path d="M288.842 318.298L287.195 313.718" stroke="#42A54B" stroke-width="0.3"/>
<path d="M279.961 312.085L278.759 316.797" stroke="#42A54B" stroke-width="0.3"/>
<path d="M280.107 317.144L281.303 312.425" stroke="#42A54B" stroke-width="0.3"/>
<path d="M265.111 311.717L263.791 316.394" stroke="#42A54B" stroke-width="0.3"/>
<path d="M265.125 316.776L266.452 312.092" stroke="#42A54B" stroke-width="0.3"/>
<path d="M258.162 312.245L259.566 316.908" stroke="#42A54B" stroke-width="0.3"/>
<path d="M260.9 316.505L259.496 311.848" stroke="#42A54B" stroke-width="0.3"/>
<path d="M249.024 267.695L251.443 263.477" stroke="#42A54B" stroke-width="0.3"/>
<path d="M250.233 262.789L247.814 267.007" stroke="#42A54B" stroke-width="0.3"/>
<path d="M238.809 268.258L237.162 263.678" stroke="#42A54B" stroke-width="0.3"/>
<path d="M235.849 264.151L237.503 268.731" stroke="#42A54B" stroke-width="0.3"/>
<path d="M230.074 267.105L231.269 262.386" stroke="#42A54B" stroke-width="0.3"/>
<path d="M229.928 262.045L228.726 266.757" stroke="#42A54B" stroke-width="0.3"/>
<path d="M226.155 266.994L221.673 265.096" stroke="#42A54B" stroke-width="0.3"/>
<path d="M240.213 262.552L243.291 266.319" stroke="#42A54B" stroke-width="0.3"/>
<path d="M244.368 265.437L241.29 261.67" stroke="#42A54B" stroke-width="0.3"/>
<path d="M252.687 253.504L257.398 254.706" stroke="#42A54B" stroke-width="0.3"/>
<path d="M257.738 253.358L253.026 252.162" stroke="#42A54B" stroke-width="0.3"/>
<path d="M253.402 260.44L258.023 258.911" stroke="#42A54B" stroke-width="0.3"/>
<path d="M257.585 257.597L252.964 259.119" stroke="#42A54B" stroke-width="0.3"/>
<path d="M250.233 262.789L247.814 267.007" stroke="#42A54B" stroke-width="0.3"/>
<path d="M249.024 267.695L251.443 263.477" stroke="#42A54B" stroke-width="0.3"/>
<path d="M240.213 262.552L243.291 266.319" stroke="#42A54B" stroke-width="0.3"/>
<path d="M244.368 265.437L241.29 261.67" stroke="#42A54B" stroke-width="0.3"/>
<path d="M235.849 264.151L237.503 268.731" stroke="#42A54B" stroke-width="0.3"/>
<path d="M238.809 268.258L237.162 263.678" stroke="#42A54B" stroke-width="0.3"/>
<path d="M229.928 262.045L228.726 266.757" stroke="#42A54B" stroke-width="0.3"/>
<path d="M230.074 267.105L231.269 262.386" stroke="#42A54B" stroke-width="0.3"/>
<path d="M248.391 256.916L243.909 255.019" stroke="#42A54B" stroke-width="0.3"/>
<path d="M243.367 256.298L247.842 258.195" stroke="#42A54B" stroke-width="0.3"/>
<path d="M246.251 243.148L244.667 248.757" stroke="#42A54B" stroke-width="0.36"/>
<path d="M246.266 249.209L247.857 243.6" stroke="#42A54B" stroke-width="0.36"/>
<path d="M225.654 255.658L227.051 260.322" stroke="#42A54B" stroke-width="0.3"/>
<path d="M228.385 259.919L226.981 255.255" stroke="#42A54B" stroke-width="0.3"/>
<path d="M238.788 256.409L233.973 257.083" stroke="#42A54B" stroke-width="0.3"/>
<path d="M234.167 258.459L238.983 257.785" stroke="#42A54B" stroke-width="0.3"/>
<path d="M249.024 317.735L251.443 313.516" stroke="#42A54B" stroke-width="0.3"/>
<path d="M250.233 312.828L247.814 317.047" stroke="#42A54B" stroke-width="0.3"/>
<path d="M238.809 318.298L237.162 313.718" stroke="#42A54B" stroke-width="0.3"/>
<path d="M235.849 314.191L237.503 318.771" stroke="#42A54B" stroke-width="0.3"/>
<path d="M230.074 317.144L231.269 312.425" stroke="#42A54B" stroke-width="0.3"/>
<path d="M229.928 312.085L228.726 316.797" stroke="#42A54B" stroke-width="0.3"/>
<path d="M226.155 317.033L221.673 315.136" stroke="#42A54B" stroke-width="0.3"/>
<path d="M215.092 316.776L216.419 312.092" stroke="#42A54B" stroke-width="0.3"/>
<path d="M215.078 311.717L213.758 316.394" stroke="#42A54B" stroke-width="0.3"/>
<path d="M240.213 312.592L243.291 316.359" stroke="#42A54B" stroke-width="0.3"/>
<path d="M244.368 315.476L241.29 311.709" stroke="#42A54B" stroke-width="0.3"/>
<path d="M254.604 282.714L259.135 280.942" stroke="#42A54B" stroke-width="0.3"/>
<path d="M257.704 292.333L255.925 296.864" stroke="#42A54B" stroke-width="0.3"/>
<path d="M207.67 292.333L205.891 296.864" stroke="#42A54B" stroke-width="0.3"/>
<path d="M207.184 297.372L208.963 292.84" stroke="#42A54B" stroke-width="0.3"/>
<path d="M252.853 268.37L257.14 270.677" stroke="#42A54B" stroke-width="0.3"/>
<path d="M257.793 269.447L253.513 267.146" stroke="#42A54B" stroke-width="0.3"/>
<path d="M252.888 278.398L256.571 275.215" stroke="#42A54B" stroke-width="0.3"/>
<path d="M255.661 274.166L251.978 277.342" stroke="#42A54B" stroke-width="0.3"/>
<path d="M254.604 282.714L259.135 280.942" stroke="#42A54B" stroke-width="0.3"/>
<path d="M258.627 279.649L254.097 281.422" stroke="#42A54B" stroke-width="0.3"/>
<path d="M252.658 288.698L257.397 289.769" stroke="#42A54B" stroke-width="0.3"/>
<path d="M257.71 288.413L252.964 287.336" stroke="#42A54B" stroke-width="0.3"/>
<path d="M252.687 303.543L257.398 304.746" stroke="#42A54B" stroke-width="0.3"/>
<path d="M257.738 303.397L253.026 302.202" stroke="#42A54B" stroke-width="0.3"/>
<path d="M253.402 310.479L258.023 308.95" stroke="#42A54B" stroke-width="0.3"/>
<path d="M257.585 307.637L252.964 309.159" stroke="#42A54B" stroke-width="0.3"/>
<path d="M249.024 267.695L251.443 263.477" stroke="#42A54B" stroke-width="0.3"/>
<path d="M250.233 262.789L247.814 267.007" stroke="#42A54B" stroke-width="0.3"/>
<path d="M238.809 268.258L237.162 263.678" stroke="#42A54B" stroke-width="0.3"/>
<path d="M235.849 264.151L237.503 268.731" stroke="#42A54B" stroke-width="0.3"/>
<path d="M230.074 267.105L231.269 262.386" stroke="#42A54B" stroke-width="0.3"/>
<path d="M229.928 262.045L228.726 266.757" stroke="#42A54B" stroke-width="0.3"/>
<path d="M226.155 266.994L221.673 265.096" stroke="#42A54B" stroke-width="0.3"/>
<path d="M221.13 266.375L225.605 268.272" stroke="#42A54B" stroke-width="0.3"/>
<path d="M250.233 312.828L247.814 317.047" stroke="#42A54B" stroke-width="0.3"/>
<path d="M249.024 317.735L251.443 313.516" stroke="#42A54B" stroke-width="0.3"/>
<path d="M240.213 312.592L243.291 316.359" stroke="#42A54B" stroke-width="0.3"/>
<path d="M244.368 315.476L241.29 311.709" stroke="#42A54B" stroke-width="0.3"/>
<path d="M235.849 314.191L237.503 318.771" stroke="#42A54B" stroke-width="0.3"/>
<path d="M238.809 318.298L237.162 313.718" stroke="#42A54B" stroke-width="0.3"/>
<path d="M229.928 312.085L228.726 316.797" stroke="#42A54B" stroke-width="0.3"/>
<path d="M230.074 317.144L231.269 312.425" stroke="#42A54B" stroke-width="0.3"/>
<path d="M215.078 311.717L213.758 316.394" stroke="#42A54B" stroke-width="0.3"/>
<path d="M215.092 316.776L216.419 312.092" stroke="#42A54B" stroke-width="0.3"/>
<path d="M217.573 297.191L215.154 301.41" stroke="#42A54B" stroke-width="0.3"/>
<path d="M216.363 302.098L218.782 297.879" stroke="#42A54B" stroke-width="0.3"/>
<path d="M238.461 274.819L235.383 271.052" stroke="#42A54B" stroke-width="0.3"/>
<path d="M234.306 271.935L237.384 275.702" stroke="#42A54B" stroke-width="0.3"/>
<path d="M229.941 273.533L231.595 278.113" stroke="#42A54B" stroke-width="0.3"/>
<path d="M232.902 277.641L231.255 273.061" stroke="#42A54B" stroke-width="0.3"/>
<path d="M248.391 306.956L243.909 305.058" stroke="#42A54B" stroke-width="0.3"/>
<path d="M243.367 306.337L247.842 308.234" stroke="#42A54B" stroke-width="0.3"/>
<path d="M248.523 294.474L247.203 299.151" stroke="#42A54B" stroke-width="0.3"/>
<path d="M248.538 299.533L249.858 294.849" stroke="#42A54B" stroke-width="0.3"/>
<path d="M241.29 290.755L242.687 295.419" stroke="#42A54B" stroke-width="0.3"/>
<path d="M244.021 295.016L242.617 290.352" stroke="#42A54B" stroke-width="0.3"/>
<path d="M227.704 287.072L230.122 282.853" stroke="#42A54B" stroke-width="0.3"/>
<path d="M228.913 282.158L226.502 286.384" stroke="#42A54B" stroke-width="0.3"/>
<path d="M217.628 282.36L220.706 286.127" stroke="#42A54B" stroke-width="0.3"/>
<path d="M221.784 285.244L218.705 281.477" stroke="#42A54B" stroke-width="0.3"/>
<path d="M212.222 283.611L213.876 288.191" stroke="#42A54B" stroke-width="0.3"/>
<path d="M215.182 287.718L213.535 283.138" stroke="#42A54B" stroke-width="0.3"/>
<path d="M248.343 282.2L247.141 286.912" stroke="#42A54B" stroke-width="0.3"/>
<path d="M248.489 287.26L249.685 282.541" stroke="#42A54B" stroke-width="0.3"/>
<path d="M237.343 284.723L241.825 286.62" stroke="#42A54B" stroke-width="0.3"/>
<path d="M242.367 285.341L237.885 283.444" stroke="#42A54B" stroke-width="0.3"/>
<path d="M225.654 305.698L227.051 310.361" stroke="#42A54B" stroke-width="0.3"/>
<path d="M228.385 309.958L226.981 305.295" stroke="#42A54B" stroke-width="0.3"/>
<path d="M238.788 306.448L233.973 307.123" stroke="#42A54B" stroke-width="0.3"/>
<path d="M234.167 308.499L238.983 307.824" stroke="#42A54B" stroke-width="0.3"/>
<path d="M238.885 297.956L237.801 302.695" stroke="#42A54B" stroke-width="0.3"/>
<path d="M239.156 303.008L240.24 298.268" stroke="#42A54B" stroke-width="0.3"/>
<path d="M225.758 295.919L223.159 300.027" stroke="#42A54B" stroke-width="0.3"/>
<path d="M224.334 300.77L226.933 296.663" stroke="#42A54B" stroke-width="0.3"/>
<path d="M226.919 289.942L222.458 291.888" stroke="#42A54B" stroke-width="0.3"/>
<path d="M223.021 293.16L227.475 291.221" stroke="#42A54B" stroke-width="0.3"/>
<path d="M217.523 293.841L218.851 289.157" stroke="#42A54B" stroke-width="0.3"/>
<path d="M217.51 288.782L216.189 293.459" stroke="#42A54B" stroke-width="0.3"/>
<path d="M235.279 291.485L233.875 286.829" stroke="#42A54B" stroke-width="0.3"/>
<path d="M232.541 287.225L233.945 291.888" stroke="#42A54B" stroke-width="0.3"/>
<path d="M225.745 275.389L221.86 278.315" stroke="#42A54B" stroke-width="0.3"/>
<path d="M222.701 279.427L226.586 276.494" stroke="#42A54B" stroke-width="0.3"/>
<path d="M219.31 275.514L217.955 270.844" stroke="#42A54B" stroke-width="0.3"/>
<path d="M216.62 271.226L217.975 275.903" stroke="#42A54B" stroke-width="0.3"/>
<path d="M220.915 304.245L217.962 308.103" stroke="#42A54B" stroke-width="0.3"/>
<path d="M219.06 308.95L222.02 305.086" stroke="#42A54B" stroke-width="0.3"/>
<path d="M215.501 307.31L212.131 303.801" stroke="#42A54B" stroke-width="0.3"/>
<path d="M211.131 304.76L214.494 308.269" stroke="#42A54B" stroke-width="0.3"/>
<path d="M243.326 281.463L246.384 277.683" stroke="#42A54B" stroke-width="0.3"/>
<path d="M245.307 276.807L242.249 280.588" stroke="#42A54B" stroke-width="0.3"/>
<path d="M245.432 274.395L245.974 269.565" stroke="#42A54B" stroke-width="0.3"/>
<path d="M244.598 269.405L244.049 274.242" stroke="#42A54B" stroke-width="0.3"/>
<path d="M229.47 298.692L233.945 300.589" stroke="#42A54B" stroke-width="0.3"/>
<path d="M234.494 299.311L230.012 297.414" stroke="#42A54B" stroke-width="0.3"/>
<path d="M240.213 262.552L243.291 266.319" stroke="#42A54B" stroke-width="0.3"/>
<path d="M244.368 265.437L241.29 261.67" stroke="#42A54B" stroke-width="0.3"/>
<path d="M250.233 262.789L247.814 267.007" stroke="#42A54B" stroke-width="0.3"/>
<path d="M249.024 267.695L251.443 263.477" stroke="#42A54B" stroke-width="0.3"/>
<path d="M240.213 262.552L243.291 266.319" stroke="#42A54B" stroke-width="0.3"/>
<path d="M244.368 265.437L241.29 261.67" stroke="#42A54B" stroke-width="0.3"/>
<path d="M235.849 264.151L237.503 268.731" stroke="#42A54B" stroke-width="0.3"/>
<path d="M238.809 268.258L237.162 263.678" stroke="#42A54B" stroke-width="0.3"/>
<path d="M229.928 262.045L228.726 266.757" stroke="#42A54B" stroke-width="0.3"/>
<path d="M230.074 267.105L231.269 262.386" stroke="#42A54B" stroke-width="0.3"/>
<path d="M252.853 318.409L257.14 320.717" stroke="#42A54B" stroke-width="0.3"/>
<path d="M257.793 319.486L253.513 317.186" stroke="#42A54B" stroke-width="0.3"/>
<path d="M249.024 317.735L251.443 313.516" stroke="#42A54B" stroke-width="0.3"/>
<path d="M250.233 312.828L247.814 317.047" stroke="#42A54B" stroke-width="0.3"/>
<path d="M238.809 318.298L237.162 313.718" stroke="#42A54B" stroke-width="0.3"/>
<path d="M235.849 314.191L237.503 318.771" stroke="#42A54B" stroke-width="0.3"/>
<path d="M230.074 317.144L231.269 312.425" stroke="#42A54B" stroke-width="0.3"/>
<path d="M229.928 312.085L228.726 316.797" stroke="#42A54B" stroke-width="0.3"/>
<path d="M226.155 317.033L221.673 315.136" stroke="#42A54B" stroke-width="0.3"/>
<path d="M221.13 316.415L225.605 318.312" stroke="#42A54B" stroke-width="0.3"/>
<path d="M215.092 316.776L216.419 312.092" stroke="#42A54B" stroke-width="0.3"/>
<path d="M215.078 311.717L213.758 316.394" stroke="#42A54B" stroke-width="0.3"/>
<path d="M236.78 322.885L235.383 321.092" stroke="#42A54B" stroke-width="0.3"/>
<path d="M234.306 321.975L237.384 325.741" stroke="#42A54B" stroke-width="0.3"/>
<path d="M229.941 323.573L231.595 328.153" stroke="#42A54B" stroke-width="0.3"/>
<path d="M232.902 327.68L231.255 323.1" stroke="#42A54B" stroke-width="0.3"/>
<path d="M227.704 337.111L230.122 332.893" stroke="#42A54B" stroke-width="0.3"/>
<path d="M228.913 332.198L226.502 336.424" stroke="#42A54B" stroke-width="0.3"/>
<path d="M235.279 341.525L233.875 336.868" stroke="#42A54B" stroke-width="0.3"/>
<path d="M225.745 325.429L221.86 328.355" stroke="#42A54B" stroke-width="0.3"/>
<path d="M222.701 329.467L226.586 326.534" stroke="#42A54B" stroke-width="0.3"/>
<path d="M219.31 325.554L217.955 320.883" stroke="#42A54B" stroke-width="0.3"/>
<path d="M216.62 321.266L217.975 325.943" stroke="#42A54B" stroke-width="0.3"/>
<path d="M245.64 322.864L245.973 319.605" stroke="#42A54B" stroke-width="0.3"/>
<path d="M244.597 319.445L244.257 322.704" stroke="#42A54B" stroke-width="0.3"/>
<path d="M240.213 312.592L243.291 316.359" stroke="#42A54B" stroke-width="0.3"/>
<path d="M244.368 315.476L241.29 311.709" stroke="#42A54B" stroke-width="0.3"/>
<path d="M250.233 312.828L247.814 317.047" stroke="#42A54B" stroke-width="0.3"/>
<path d="M249.024 317.735L251.443 313.516" stroke="#42A54B" stroke-width="0.3"/>
<path d="M240.213 312.592L243.291 316.359" stroke="#42A54B" stroke-width="0.3"/>
<path d="M244.368 315.476L241.29 311.709" stroke="#42A54B" stroke-width="0.3"/>
<path d="M235.849 314.191L237.503 318.771" stroke="#42A54B" stroke-width="0.3"/>
<path d="M238.809 318.298L237.162 313.718" stroke="#42A54B" stroke-width="0.3"/>
<path d="M229.928 312.085L228.726 316.797" stroke="#42A54B" stroke-width="0.3"/>
<path d="M230.074 317.144L231.269 312.425" stroke="#42A54B" stroke-width="0.3"/>
<path d="M215.078 311.717L213.758 316.394" stroke="#42A54B" stroke-width="0.3"/>
<path d="M215.092 316.776L216.419 312.092" stroke="#42A54B" stroke-width="0.3"/>
<path d="M225.008 303.662L229.427 267.501" stroke="#672938" stroke-width="3" stroke-linecap="round" stroke-linejoin="round"/>
<g style="mix-blend-mode:multiply">
<path d="M235.063 319.41L292.073 319.174L291.955 323.198H232.457L235.063 319.41Z" fill="#E2C727"/>
</g>
<path d="M295.152 303.898L290.538 268.293" stroke="#672938" stroke-width="3" stroke-linecap="round" stroke-linejoin="round"/>
<path d="M221.408 467.465H254V473.775C254 474.354 253.77 474.909 253.361 475.318C252.951 475.728 252.396 475.957 251.818 475.957H223.583C223.005 475.957 222.45 475.728 222.04 475.318C221.631 474.909 221.401 474.354 221.401 473.775V467.465H221.408Z" fill="white" stroke="#672938" stroke-width="3" stroke-linecap="round" stroke-linejoin="round"/>
<path d="M253.937 466.631H221.464C221.349 466.631 221.256 466.724 221.256 466.839V467.388C221.256 467.503 221.349 467.597 221.464 467.597H253.937C254.053 467.597 254.146 467.503 254.146 467.388V466.839C254.146 466.724 254.053 466.631 253.937 466.631Z" fill="#222222"/>
<path d="M246.287 453.335H229.109C228.627 453.336 228.156 453.472 227.749 453.729C227.342 453.986 227.016 454.353 226.808 454.788L221.541 466.672H253.993L248.587 454.788C248.38 454.353 248.054 453.986 247.647 453.729C247.24 453.472 246.768 453.336 246.287 453.335V453.335Z" fill="#FBE854" stroke="#672938" stroke-width="3" stroke-linecap="round" stroke-linejoin="round"/>
<path d="M246.982 460.876H228.914L230.54 452.015C230.65 451.43 230.961 450.901 231.419 450.52C231.877 450.14 232.453 449.931 233.049 449.93H242.826C243.422 449.931 243.998 450.14 244.456 450.52C244.914 450.901 245.225 451.43 245.335 452.015L246.982 460.876Z" fill="#FBE854" stroke="#672938" stroke-width="3" stroke-linecap="round" stroke-linejoin="round"/>
<path d="M221.457 466.631C221.457 466.631 226.321 460.834 230.901 460.195L245.098 460.237C248.601 461.454 251.666 463.678 253.909 466.631" fill="#FBE854"/>
<path d="M221.457 466.631C221.457 466.631 226.321 460.834 230.901 460.195L245.098 460.237C248.601 461.454 251.666 463.678 253.909 466.631" stroke="#672938" stroke-width="3" stroke-linecap="round" stroke-linejoin="round"/>
<path d="M230.582 460.146L230.227 453.196L228.143 453.558L228.296 459.02C228.296 459.02 228.184 460.271 228.844 460.654L230.582 460.146Z" fill="#672938"/>
<path d="M244.994 460.202L245.571 453.203L247.315 453.509C247.413 453.526 247.5 453.579 247.561 453.658C247.621 453.736 247.65 453.834 247.642 453.933L247.218 459.055C247.228 459.683 247.069 460.302 246.759 460.848L244.994 460.202Z" fill="#672938"/>
<path d="M246.224 453.078H229.859C229.609 453.078 229.4 453.426 229.4 453.857V454.844C229.4 455.275 229.609 455.622 229.866 455.622L246.224 455.553C246.481 455.553 246.683 455.205 246.683 454.774V453.857C246.683 453.426 246.481 453.078 246.224 453.078Z" fill="white" stroke="#672938" stroke-linecap="round" stroke-linejoin="round"/>
<path d="M246.224 455.671H229.859C229.609 455.671 229.4 456.018 229.4 456.449V457.429C229.4 457.86 229.609 458.214 229.866 458.214L246.224 458.145C246.481 458.145 246.683 457.79 246.683 457.366V456.449C246.683 456.018 246.481 455.671 246.224 455.671Z" fill="white" stroke="#672938" stroke-linecap="round" stroke-linejoin="round"/>
<path d="M266.821 467.465H299.42V473.775C299.42 474.354 299.19 474.909 298.78 475.318C298.371 475.728 297.816 475.957 297.237 475.957H269.017C268.439 475.957 267.883 475.728 267.474 475.318C267.065 474.909 266.835 474.354 266.835 473.775V467.465H266.821Z" fill="white" stroke="#672938" stroke-width="3" stroke-linecap="round" stroke-linejoin="round"/>
<path d="M299.35 466.631H266.876C266.761 466.631 266.668 466.724 266.668 466.839V467.388C266.668 467.503 266.761 467.597 266.876 467.597H299.35C299.465 467.597 299.558 467.503 299.558 467.388V466.839C299.558 466.724 299.465 466.631 299.35 466.631Z" fill="#672938"/>
<path d="M291.706 453.335H274.528C274.046 453.336 273.575 453.472 273.168 453.729C272.761 453.986 272.435 454.353 272.228 454.788L266.953 466.672H299.447L294.041 454.788C293.831 454.348 293.5 453.977 293.086 453.72C292.672 453.463 292.193 453.329 291.706 453.335V453.335Z" fill="#FBE854" stroke="#672938" stroke-width="3" stroke-linecap="round" stroke-linejoin="round"/>
<path d="M292.401 460.876H274.333L275.959 452.015C276.069 451.43 276.38 450.901 276.838 450.52C277.296 450.14 277.872 449.931 278.468 449.93H288.252C288.847 449.931 289.424 450.14 289.882 450.52C290.34 450.901 290.651 451.43 290.761 452.015L292.401 460.876Z" fill="#FBE854" stroke="#672938" stroke-width="3" stroke-linecap="round" stroke-linejoin="round"/>
<path d="M266.876 466.631C266.876 466.631 271.74 460.834 276.313 460.195L290.517 460.237C294.019 461.456 297.084 463.68 299.328 466.631" fill="#FBE854"/>
<path d="M266.876 466.631C266.876 466.631 271.74 460.834 276.313 460.195L290.517 460.237C294.019 461.456 297.084 463.68 299.328 466.631" stroke="#672938" stroke-width="3" stroke-linecap="round" stroke-linejoin="round"/>
<path d="M275.994 460.146L275.639 453.196L273.555 453.558L273.708 459.02C273.708 459.02 273.596 460.271 274.257 460.654L275.994 460.146Z" fill="#672938"/>
<path d="M290.413 460.202L290.99 453.203L292.727 453.509C292.826 453.525 292.914 453.577 292.975 453.656C293.036 453.735 293.064 453.834 293.054 453.933L292.637 459.055C292.647 459.684 292.486 460.304 292.171 460.848L290.413 460.202Z" fill="#672938"/>
<path d="M291.643 453.078H275.278C275.028 453.078 274.819 453.426 274.819 453.857V454.844C274.819 455.275 275.028 455.622 275.278 455.622L291.643 455.553C291.893 455.553 292.102 455.205 292.102 454.774V453.857C292.102 453.426 291.893 453.078 291.643 453.078Z" fill="white" stroke="#672938" stroke-linecap="round" stroke-linejoin="round"/>
<path d="M291.643 455.58H275.278C275.028 455.58 274.819 455.935 274.819 456.359V457.346C274.819 457.777 275.028 458.124 275.278 458.124L291.643 458.055C291.893 458.055 292.102 457.707 292.102 457.276V456.359C292.102 455.935 291.893 455.58 291.643 455.58Z" fill="white" stroke="#672938" stroke-linecap="round" stroke-linejoin="round"/>
<path d="M295.674 302.668L278.071 336.868C277.946 337.133 277.874 337.42 277.86 337.713C277.846 338.006 277.89 338.299 277.989 338.575C278.089 338.85 278.242 339.104 278.44 339.32C278.637 339.537 278.827 339.955 279.093 340.079C282.214 342.539 285.919 343.987 289.815 344.77L292.665 345.347L311.26 306.205C312.405 303.903 312.784 301.295 312.344 298.762L295.674 302.668Z" fill="#BD6C67" stroke="#672938" stroke-width="3" stroke-linecap="round" stroke-linejoin="round"/>
<path d="M274.485 333.435C274.485 333.435 279.266 347.391 293.095 345.132" stroke="#672938" stroke-width="3" stroke-linecap="round" stroke-linejoin="round"/>
<path d="M224.397 303.376L207.024 298.81C206.737 301.165 207.145 303.552 208.198 305.677L229.261 345.125C229.567 345.771 232.152 345.854 232.735 345.465L238.295 343.526L244.062 338.661L224.397 303.376Z" fill="#BD6C67" stroke="#672938" stroke-width="3" stroke-linecap="round" stroke-linejoin="round"/>
<path d="M246.238 333.435C246.238 333.435 241.45 347.391 227.628 345.132" stroke="#672938" stroke-width="3" stroke-linecap="round" stroke-linejoin="round"/>
<path d="M260.97 345.417V324.483" stroke="#672938" stroke-width="3" stroke-linecap="round" stroke-linejoin="round"/>
<path d="M293.491 346.042C293.491 346.042 293.873 346.598 289.231 346.244L296.924 430.234C296.924 430.234 296.799 436.141 292.06 439.456C292.06 439.456 299.155 440.075 300.864 432.249C302.601 424.292 293.491 346.042 293.491 346.042Z" fill="#4C4C4C"/>
<path d="M230.567 346.835L223.291 433.132C223.291 433.132 222.847 436.774 224.535 438.81C224.535 438.81 220.804 438.282 220.011 432.694C219.219 427.106 227.655 345.924 227.655 345.924L230.567 346.835Z" fill="black"/>
<path d="M292.08 344.166C290.997 344.01 289.927 343.778 288.877 343.471L309.578 303.481C309.748 302.485 309.827 301.475 309.815 300.464L311.468 300.054C311.468 300.054 311.587 302.772 310.822 304.308C310.058 305.844 292.08 344.166 292.08 344.166Z" fill="#F7C79A"/>
<g style="mix-blend-mode:screen">
<path d="M314.311 297.094L310.642 298.102L294.604 256.756L314.311 297.094Z" fill="#FFF1A1"/>
</g>
<path d="M289.648 269.085L292.136 307.109L294.172 303.425L289.648 269.085Z" fill="#FFF1A1"/>
<path d="M242.158 253.295C242.158 253.295 255.896 276.647 260.101 280.935C260.101 280.935 270.726 267.654 277.376 253.83" stroke="#E5B656" stroke-width="1.48" stroke-miterlimit="10"/>
<path d="M260.059 287.67C262.569 287.67 264.604 285.635 264.604 283.124C264.604 280.614 262.569 278.579 260.059 278.579C257.549 278.579 255.515 280.614 255.515 283.124C255.515 285.635 257.549 287.67 260.059 287.67Z" fill="#E5B656"/>
<path d="M260.059 286.69C262.028 286.69 263.624 285.093 263.624 283.124C263.624 281.155 262.028 279.559 260.059 279.559C258.09 279.559 256.494 281.155 256.494 283.124C256.494 285.093 258.09 286.69 260.059 286.69Z" stroke="#CE9C52" stroke-width="0.75" stroke-miterlimit="10"/>
<path d="M259.962 253.705L249.761 264.478L236.683 254.261L243.972 241.042L259.962 253.705Z" fill="#FBE854" stroke="#672938" stroke-width="3" stroke-linecap="round" stroke-linejoin="round"/>
<path d="M259.872 253.705L270.066 264.478L283.152 254.261L275.862 241.042L259.872 253.705Z" fill="#FBE854" stroke="#672938" stroke-width="3" stroke-linecap="round" stroke-linejoin="round"/>
<path d="M275.465 242.87L281.58 253.935L279.079 255.686L273.763 244.309L275.465 242.87Z" fill="#FFF1A1"/>
<g style="mix-blend-mode:multiply">
<path d="M244.236 242.766L246.53 244.622L240.359 255.686L238.232 253.83L244.236 242.766Z" fill="#E2C727"/>
</g>
<g style="mix-blend-mode:multiply">
<path d="M210.075 298.101L226.12 255.512L205.731 297.122L210.075 298.101Z" fill="#E2C727"/>
</g>
<path d="M223.646 304.308L209.449 301.736L232.52 344.326H229.956L208.108 303.599L207.656 300.527C207.645 300.452 207.653 300.375 207.68 300.303C207.706 300.231 207.75 300.168 207.807 300.117C207.864 300.067 207.933 300.032 208.008 300.015C208.082 299.997 208.159 299.999 208.233 300.02L223.646 304.308Z" fill="#CE8655"/>
<path d="M229.858 441.68L229.796 446.295H232.784L232.756 441.68H229.858Z" fill="black"/>
<path d="M291.045 441.68L291.136 446.358L288.655 446.337L288.564 441.632L291.045 441.68Z" fill="#4C4C4C"/>
</g>
<defs>
<filter id="filter0_d_2_17654" x="21.9961" y="93.5693" width="460" height="397" filterUnits="userSpaceOnUse" color-interpolation-filters="sRGB">
<feFlood flood-opacity="0" result="BackgroundImageFix"/>
<feColorMatrix in="SourceAlpha" type="matrix" values="0 0 0 0 0 0 0 0 0 0 0 0 0 0 0 0 0 0 127 0" result="hardAlpha"/>
<feOffset dy="6"/>
<feColorMatrix type="matrix" values="0 0 0 0 1 0 0 0 0 0.219608 0 0 0 0 0.0823529 0 0 0 1 0"/>
<feBlend mode="normal" in2="BackgroundImageFix" result="effect1_dropShadow_2_17654"/>
<feBlend mode="normal" in="SourceGraphic" in2="effect1_dropShadow_2_17654" result="shape"/>
</filter>
<filter id="filter1_dd_2_17654" x="101.996" y="0.569214" width="300" height="68" filterUnits="userSpaceOnUse" color-interpolation-filters="sRGB">
<feFlood flood-opacity="0" result="BackgroundImageFix"/>
<feColorMatrix in="SourceAlpha" type="matrix" values="0 0 0 0 0 0 0 0 0 0 0 0 0 0 0 0 0 0 127 0" result="hardAlpha"/>
<feMorphology radius="9" operator="erode" in="SourceAlpha" result="effect1_dropShadow_2_17654"/>
<feOffset dy="20"/>
<feGaussianBlur stdDeviation="3.5"/>
<feColorMatrix type="matrix" values="0 0 0 0 0 0 0 0 0 0 0 0 0 0 0 0 0 0 0.1 0"/>
<feBlend mode="normal" in2="BackgroundImageFix" result="effect1_dropShadow_2_17654"/>
<feColorMatrix in="SourceAlpha" type="matrix" values="0 0 0 0 0 0 0 0 0 0 0 0 0 0 0 0 0 0 127 0" result="hardAlpha"/>
<feOffset dy="6"/>
<feColorMatrix type="matrix" values="0 0 0 0 0.839216 0 0 0 0 0.12549 0 0 0 0 0 0 0 0 1 0"/>
<feBlend mode="normal" in2="effect1_dropShadow_2_17654" result="effect2_dropShadow_2_17654"/>
<feBlend mode="normal" in="SourceGraphic" in2="effect2_dropShadow_2_17654" result="shape"/>
</filter>
<linearGradient id="paint0_linear_2_17654" x1="229.242" y1="177.422" x2="229.242" y2="194.975" gradientUnits="userSpaceOnUse">
<stop stop-color="#302A37"/>
<stop offset="1" stop-color="#3C3247"/>
</linearGradient>
<linearGradient id="paint1_linear_2_17654" x1="291.33" y1="177.422" x2="291.33" y2="194.975" gradientUnits="userSpaceOnUse">
<stop stop-color="#302A37"/>
<stop offset="1" stop-color="#3C3247"/>
</linearGradient>
<clipPath id="clip0_2_17654">
<rect width="240.848" height="315.824" fill="white" transform="matrix(-0.248727 -0.968574 -0.969374 0.245587 464.699 373.222)"/>
</clipPath>
<clipPath id="clip1_2_17654">
<rect width="114" height="237" fill="white" transform="translate(203 240)"/>
</clipPath>
</defs>
</svg>
