<svg width="117" height="21" viewBox="0 0 117 21" fill="none" xmlns="http://www.w3.org/2000/svg">
<path d="M0.5714 18.83C0.5714 19.61 0.961401 20 1.7154 20H3.9254C4.7054 20 5.0954 19.61 5.0954 18.83V14.072H7.2794C9.5674 14.072 11.4134 13.526 12.7914 12.434C14.1694 11.342 14.8714 9.756 14.8714 7.702C14.8714 2.996 12.1414 1.176 7.3314 1.176H1.7154C1.0654 1.176 0.5714 1.67 0.5714 2.32V18.83ZM7.4094 5.102C9.4114 5.102 10.7114 5.934 10.7114 7.624C10.7114 9.314 9.4894 10.146 7.5914 10.146H5.0954V5.102H7.4094ZM16.6183 18.856C16.6183 19.506 17.0343 20 17.7623 20H32.3743C33.1283 20 33.4923 19.61 33.4923 18.856V17.244C33.4923 16.49 33.1283 16.1 32.3743 16.1H21.1423V2.32C21.1423 1.67 20.7263 1.176 19.9983 1.176H17.7623C17.0343 1.176 16.6183 1.67 16.6183 2.32V18.856ZM29.6703 12.356L29.9043 13.24C30.0863 13.968 30.5803 14.332 31.3343 14.332H32.6863C33.3883 14.332 33.6743 13.838 33.4923 13.24L30.2423 2.268C30.0343 1.54 29.5403 1.176 28.7863 1.176H26.9923C26.2383 1.176 25.7443 1.54 25.5363 2.268L22.2863 13.24C22.1043 13.838 22.4423 14.332 23.0923 14.332H24.4443C25.2763 14.332 25.6663 14.046 25.8743 13.24L26.1083 12.356H29.6703ZM26.7843 9.652L27.9023 5.284L29.0203 9.652H26.7843ZM37.712 18.856C37.712 19.506 38.128 20 38.83 20H41.092C41.794 20 42.236 19.506 42.236 18.856V13.162L47.202 2.216C47.41 1.722 47.15 1.176 46.526 1.176H44.186C43.432 1.176 42.912 1.54 42.626 2.242L40.156 8.482L37.738 2.242C37.478 1.54 36.958 1.176 36.178 1.176H33.474C32.85 1.176 32.616 1.722 32.824 2.242L37.712 13.266V18.856ZM60.4191 10.224C59.7171 10.224 59.2751 10.64 59.2751 11.342V11.992C59.2751 12.694 59.7171 13.136 60.4191 13.136H62.1871V13.578C62.1871 15.32 61.4331 16.178 59.4831 16.178C57.4031 16.178 56.7531 14.566 56.7531 10.692C56.7531 6.844 57.4291 4.998 59.4831 4.998C61.0691 4.998 62.1091 6.324 62.1351 8.014C62.1351 8.534 62.5511 8.716 63.4091 8.56L65.2811 8.248C66.2171 8.118 66.3991 7.806 66.3211 6.948C66.1911 5.102 65.5931 3.646 64.5531 2.58C63.5131 1.514 61.8231 0.967999 59.4831 0.967999C54.3611 0.967999 52.1771 4.218 52.1771 10.692C52.1771 17.27 54.2831 20.208 59.4831 20.208C62.1611 20.208 64.0591 19.454 64.9951 18.128C65.9571 16.776 66.3211 15.372 66.3211 13.422V11.342C66.3211 10.692 65.9051 10.224 65.2031 10.224H60.4191ZM77.0545 2.268C76.8725 1.54 76.4045 1.176 75.6245 1.176H73.3885C72.6345 1.176 72.1405 1.54 71.9325 2.268L67.1485 18.908C66.9665 19.454 67.3305 20 67.9805 20H70.4245C71.1525 20 71.5945 19.636 71.7765 18.882L72.2705 16.672H76.6385L77.1325 18.882C77.3145 19.532 77.8345 20 78.5625 20H81.0325C81.6825 20 82.0205 19.48 81.8385 18.882L77.0545 2.268ZM74.4285 6.87L75.9625 13.656H72.9205L74.4285 6.87ZM96.0879 18.83C96.0879 19.558 96.5299 20 97.2579 20H99.4679C100.196 20 100.638 19.558 100.638 18.83V2.32C100.638 1.618 100.222 1.176 99.4939 1.176H98.0639C97.3359 1.176 96.7379 1.488 96.2699 2.086L91.9279 8.118L87.5859 2.086C87.1179 1.488 86.5199 1.176 85.7659 1.176H84.3619C83.6339 1.176 83.2179 1.618 83.2179 2.32V18.83C83.2179 19.61 83.6079 20 84.3619 20H86.5719C87.3519 20 87.7419 19.61 87.7419 18.83V8.69L91.2259 13.344C91.5639 13.786 92.2659 13.786 92.6039 13.344L96.0879 8.69V18.83ZM107.75 12.538H113.184C113.912 12.538 114.302 12.096 114.302 11.394V9.782C114.302 9.028 113.938 8.638 113.184 8.638H107.75V5.102H114.874C115.602 5.102 116.018 4.66 116.018 3.958V2.32C116.018 1.618 115.602 1.176 114.874 1.176H104.37C103.668 1.176 103.226 1.67 103.226 2.32V18.856C103.226 19.506 103.668 20 104.37 20H114.874C115.602 20 116.018 19.558 116.018 18.856V17.244C116.018 16.542 115.602 16.1 114.874 16.1H107.75V12.538Z" fill="white"/>
</svg>
