<svg width="24" height="24" viewBox="0 0 24 24" fill="none" xmlns="http://www.w3.org/2000/svg">
<path d="M22.601 2.06205C22.5559 1.89077 22.4661 1.73453 22.3409 1.60929C22.2156 1.48404 22.0594 1.39428 21.8881 1.34916C19.8368 0.816345 17.6766 0.873732 15.6564 1.51471C13.6362 2.15569 11.8381 3.35419 10.4692 4.97222L9.35426 6.29605L6.74946 5.66757C6.1162 5.4468 5.42444 5.46262 4.80194 5.71212C4.17943 5.96161 3.66823 6.42793 3.36274 7.02495L1.16255 10.9248C1.08546 11.0614 1.04158 11.2143 1.03447 11.371C1.02737 11.5277 1.05722 11.6838 1.12163 11.8268C1.18603 11.9699 1.28318 12.0957 1.40523 12.1943C1.52727 12.2928 1.67078 12.3612 1.82417 12.394L4.89692 13.0527C4.63663 13.8451 4.45077 14.66 4.34175 15.4868C4.32198 15.6387 4.33737 15.7931 4.38673 15.9382C4.43608 16.0832 4.51808 16.2149 4.62641 16.3232L7.72651 19.4233C7.81933 19.5162 7.92954 19.5899 8.05085 19.6402C8.17216 19.6905 8.30219 19.7163 8.43351 19.7163C8.46232 19.7163 8.49113 19.7149 8.52043 19.7124C9.36577 19.6364 10.2008 19.4722 11.012 19.2224L11.6557 22.2256C11.6886 22.379 11.7571 22.5224 11.8556 22.6444C11.9542 22.7664 12.08 22.8635 12.223 22.9279C12.366 22.9923 12.5221 23.0222 12.6788 23.0151C12.8355 23.0081 12.9883 22.9642 13.1249 22.8872L17.0302 20.6846C17.5798 20.3506 18.0092 19.8507 18.2563 19.2569C18.5034 18.6631 18.5556 18.0062 18.4052 17.3809L17.7365 14.6219L18.9735 13.4844C20.5976 12.1193 21.8007 10.3211 22.4429 8.299C23.0851 6.27692 23.1399 4.11407 22.601 2.06205ZM3.57222 10.7232L5.12837 7.96343C5.22502 7.77607 5.3897 7.63279 5.58862 7.56297C5.78754 7.49315 6.00564 7.50208 6.19819 7.58794L7.9156 8.00414L7.2656 8.77593C6.64936 9.5145 6.11637 10.3187 5.67628 11.174L3.57222 10.7232ZM16.0424 18.9454L13.3266 20.477L12.8971 18.4724C13.7677 18.0382 14.5789 17.4938 15.3105 16.8525L16.054 16.1689L16.4575 17.8335C16.5098 18.039 16.4981 18.2557 16.4239 18.4544C16.3497 18.6531 16.2166 18.8244 16.0424 18.9454ZM17.6567 11.98L13.9721 15.3663C12.5137 16.6276 10.7147 17.4293 8.80171 17.6705L6.39741 15.2662C6.72033 13.3482 7.54912 11.551 8.79829 10.0602L10.4766 8.0675C10.5046 8.03824 10.5307 8.00726 10.5548 7.97473L11.9897 6.27105C13.0507 5.01794 14.4252 4.06885 15.9729 3.52069C17.5206 2.97253 19.1861 2.84493 20.7993 3.15093C21.1127 4.76915 20.9864 6.44179 20.4337 7.99465C19.881 9.5475 18.922 10.9238 17.6567 11.98ZM16.7337 5.81629C16.437 5.81629 16.147 5.90426 15.9003 6.06908C15.6537 6.2339 15.4614 6.46817 15.3479 6.74226C15.2343 7.01635 15.2046 7.31795 15.2625 7.60892C15.3204 7.89989 15.4632 8.16717 15.673 8.37695C15.8828 8.58672 16.1501 8.72959 16.4411 8.78746C16.732 8.84534 17.0336 8.81564 17.3077 8.70211C17.5818 8.58857 17.8161 8.39632 17.9809 8.14964C18.1457 7.90297 18.2337 7.61296 18.2337 7.31629C18.2337 7.1193 18.1949 6.92423 18.1195 6.74223C18.0442 6.56024 17.9337 6.39487 17.7944 6.25558C17.6551 6.11628 17.4897 6.00579 17.3077 5.93042C17.1257 5.85504 16.9306 5.81625 16.7336 5.81627L16.7337 5.81629Z" fill="#FF3815"/>
</svg>
