<svg width="329" height="433" viewBox="0 0 329 433" fill="none" xmlns="http://www.w3.org/2000/svg">
<g opacity="0.2">
<path opacity="0.2" d="M197.364 251.458C197.364 268.581 232.87 353.947 232.87 353.947C235.858 364.253 246.158 363.604 252.287 344.83L272.623 275.69C283.33 238.187 284.491 230.027 256.898 203.072L220.209 175.352C207.642 165.855 197.359 172.089 197.359 189.212L197.364 251.458Z" fill="#231F20"/>
</g>
<g opacity="0.2">
<path opacity="0.2" d="M142.078 251.459C142.078 268.581 106.573 353.948 106.573 353.948C103.585 364.253 93.2848 363.604 87.1553 344.83L66.8193 275.69C56.1121 238.187 54.9511 230.028 82.5445 203.072L119.233 175.352C131.8 165.856 142.084 172.09 142.084 189.212L142.078 251.459Z" fill="#231F20"/>
</g>
<path d="M187.86 240.454V240.454L187.855 178.208C187.855 178.208 187.855 178.208 187.855 178.208C187.855 169.852 190.37 164.686 193.845 162.578C197.229 160.526 202.247 160.969 208.301 165.544L208.301 165.545L244.914 193.207C258.661 206.644 264.918 215.118 266.643 224.687C268.389 234.368 265.563 245.409 260.179 264.268C260.178 264.27 260.177 264.272 260.177 264.274L239.85 333.381C238.354 337.957 236.628 341.356 234.877 343.729C233.114 346.118 231.391 347.383 229.928 347.864C228.526 348.325 227.275 348.102 226.19 347.3C225.054 346.46 223.995 344.899 223.307 342.525L223.283 342.444L223.251 342.367L221.866 342.943C223.251 342.367 223.251 342.367 223.251 342.366L223.249 342.363L223.245 342.352L223.226 342.306L223.15 342.123C223.083 341.962 222.983 341.721 222.854 341.407C222.594 340.779 222.213 339.855 221.728 338.672C220.758 336.307 219.373 332.909 217.71 328.777C214.384 320.512 209.95 309.317 205.516 297.589C201.082 285.858 196.654 273.609 193.337 263.235C191.678 258.046 190.303 253.344 189.343 249.418C188.375 245.458 187.86 242.401 187.86 240.454Z" fill="#FF3815" stroke="#4F5D73" stroke-width="3"/>
<path d="M129.574 240.454V240.454C129.574 242.401 129.059 245.458 128.091 249.418C127.132 253.344 125.757 258.047 124.098 263.235C120.781 273.61 116.353 285.858 111.918 297.589C107.485 309.317 103.051 320.513 99.7248 328.777C98.0619 332.909 96.6762 336.307 95.7064 338.673C95.2215 339.855 94.8406 340.779 94.581 341.408C94.4512 341.722 94.3518 341.962 94.2848 342.123L94.209 342.306L94.1899 342.352L94.1852 342.363L94.184 342.366C94.1837 342.367 94.1836 342.367 95.5686 342.943L94.1836 342.367L94.1513 342.445L94.1279 342.525C93.4398 344.899 92.3804 346.461 91.2446 347.3C90.1597 348.102 88.9085 348.325 87.5065 347.864C86.044 347.384 84.321 346.118 82.558 343.729C80.8067 341.356 79.0802 337.958 77.5842 333.381L57.2578 264.274C57.2572 264.272 57.2567 264.27 57.2562 264.268C51.8718 245.409 49.046 234.369 50.7915 224.688C52.5168 215.119 58.7734 206.645 72.5208 193.207L109.133 165.545L109.133 165.545C115.188 160.97 120.205 160.526 123.589 162.578C127.064 164.686 129.58 169.852 129.58 178.208C129.58 178.208 129.58 178.208 129.58 178.208L129.574 240.454Z" fill="#FF3815" stroke="#4F5D73" stroke-width="3"/>
<g opacity="0.2">
<path opacity="0.2" d="M136.917 310.398C136.917 254.562 168.89 239.623 168.89 239.623C168.89 239.623 200.869 254.556 200.863 310.398C200.858 366.239 175.933 431.726 168.89 431.726C162.062 431.721 136.912 366.239 136.917 310.398Z" fill="#231F20"/>
</g>
<path d="M125.913 299.393C125.913 243.557 157.886 228.619 157.886 228.619C157.886 228.619 189.865 243.552 189.859 299.393C189.854 355.235 164.929 420.722 157.886 420.722C151.058 420.716 125.908 355.235 125.913 299.393Z" fill="#FFA722"/>
<path d="M125.907 252.707C125.907 196.871 157.88 181.933 157.88 181.933C157.88 181.933 189.859 196.866 189.854 252.707C189.848 308.549 164.923 374.036 157.88 374.036C151.058 374.036 125.907 308.544 125.907 252.707Z" fill="#F5CF87"/>
<g opacity="0.2">
<path opacity="0.2" d="M246.52 173.647C246.52 259.59 168.885 313.71 168.885 313.71C168.885 313.71 91.2546 259.596 91.2491 173.646C91.2436 87.697 151.784 18.023 168.885 18.023C185.468 18.023 246.526 87.697 246.52 173.647Z" fill="#231F20"/>
</g>
<path d="M234.017 162.642L235.517 162.642L234.017 162.642C234.017 205.151 214.816 239.844 195.527 263.966C185.888 276.021 176.248 285.409 169.02 291.781C165.406 294.967 162.398 297.397 160.297 299.027C159.257 299.835 158.439 300.446 157.881 300.856C157.323 300.446 156.505 299.835 155.465 299.028C153.364 297.397 150.356 294.968 146.743 291.782C139.515 285.41 129.875 276.022 120.237 263.968C100.949 239.847 81.7479 205.154 81.7452 162.642C81.7425 120.011 96.7606 81.3736 113.927 53.3837C122.508 39.3914 131.604 28.0978 139.582 20.3226C143.573 16.433 147.258 13.45 150.434 11.4498C153.66 9.41827 156.178 8.51883 157.881 8.51883C159.511 8.51882 161.976 9.41081 165.173 11.4459C168.316 13.4466 171.98 16.4306 175.96 20.321C183.916 28.0978 193.028 39.3929 201.642 53.3859C218.874 81.3774 234.019 120.014 234.017 162.642Z" fill="#F7F7F7" stroke="#4F5D73" stroke-width="3"/>
<g opacity="0.2">
<path opacity="0.2" d="M176.67 352.616C176.67 361.21 177.485 368.176 168.89 368.176C160.296 368.176 161.11 361.21 161.11 352.616L145.544 228.118C145.544 219.524 160.296 196.992 168.89 196.992C177.485 196.992 192.236 219.524 192.236 228.118L176.67 352.616Z" fill="#231F20"/>
</g>
<path d="M164.178 341.425L164.166 341.518V341.611C164.166 342.338 164.172 343.04 164.177 343.721C164.188 345.102 164.198 346.394 164.16 347.622C164.103 349.445 163.941 350.959 163.566 352.171C163.2 353.355 162.656 354.171 161.871 354.717C161.07 355.274 159.843 355.671 157.886 355.671C155.93 355.671 154.702 355.274 153.901 354.717C153.116 354.171 152.573 353.355 152.206 352.171C151.832 350.959 151.669 349.445 151.613 347.622C151.574 346.394 151.584 345.102 151.595 343.721C151.601 343.04 151.606 342.338 151.606 341.611L151.606 341.518L151.595 341.425L136.041 217.025C136.067 215.21 136.871 212.471 138.344 209.248C139.818 206.022 141.881 202.482 144.214 199.196C146.55 195.906 149.121 192.921 151.595 190.776C154.137 188.572 156.312 187.488 157.886 187.488C159.46 187.488 161.635 188.572 164.177 190.776C166.651 192.921 169.223 195.906 171.559 199.196C173.892 202.482 175.955 206.022 177.428 209.248C178.901 212.471 179.706 215.21 179.731 217.025L164.178 341.425Z" fill="#FF3815" stroke="#4F5D73" stroke-width="3"/>
<g opacity="0.2">
<path opacity="0.2" d="M200.847 141.198C200.847 124.009 186.912 110.074 169.722 110.074C152.533 110.074 138.598 124.009 138.598 141.198C138.598 158.388 152.533 172.323 169.722 172.323C186.912 172.323 200.847 158.388 200.847 141.198Z" fill="#231F20"/>
</g>
<g opacity="0.2">
<path opacity="0.2" d="M185.284 78.9467C185.284 70.3519 178.316 63.3844 169.722 63.3844C161.127 63.3844 154.159 70.3518 154.159 78.9467C154.159 87.5415 161.127 94.509 169.722 94.509C178.316 94.509 185.284 87.5415 185.284 78.9467Z" fill="#231F20"/>
</g>
<path d="M189.843 130.193C189.843 113.004 175.908 99.0687 158.718 99.0687C141.529 99.0687 127.594 113.004 127.594 130.193C127.594 147.383 141.529 161.318 158.718 161.318C175.908 161.318 189.843 147.383 189.843 130.193Z" fill="#4F5D73"/>
<path fill-rule="evenodd" clip-rule="evenodd" d="M243.159 235.462L243.166 235.461C244.841 235.187 246.448 235.688 248.678 236.381C248.757 236.406 248.837 236.431 248.918 236.456L249.029 236.491L249.159 236.531C251.388 237.223 252.987 237.719 254.202 238.85L254.211 238.859L254.22 238.868C255.312 239.926 256.002 241.27 256.259 242.736L256.259 242.738C256.553 244.422 256.051 246.034 255.358 248.26C255.334 248.34 255.308 248.42 255.283 248.502L255.257 248.587C255.24 248.64 255.224 248.692 255.208 248.744C254.518 250.969 254.018 252.581 252.822 253.802C252.155 254.489 251.373 255.017 250.519 255.377C251.574 257.118 251.916 259.285 251.266 261.377L249.903 265.763C249.251 267.861 247.745 269.456 245.892 270.289C246.393 271.077 246.729 271.955 246.891 272.882L246.892 272.884C247.185 274.569 246.683 276.18 245.991 278.406C245.966 278.486 245.941 278.567 245.915 278.648C245.89 278.729 245.865 278.81 245.84 278.89C245.15 281.114 244.65 282.725 243.457 283.946C243.201 284.212 242.927 284.454 242.638 284.673C242.74 284.805 242.835 284.952 242.92 285.115C243.543 286.298 243.192 287.418 243.026 287.948C243.02 287.968 243.014 287.987 243.008 288.005L239.192 300.285L239.147 300.43C238.728 301.781 238.45 302.674 237.926 303.495C236.543 305.704 234.04 307.019 231.435 306.905C230.461 306.871 229.566 306.593 228.215 306.173L228.07 306.128L221.632 304.127C221.614 304.122 221.595 304.116 221.575 304.11C221.044 303.946 219.921 303.6 219.298 302.417C218.676 301.234 219.027 300.114 219.193 299.584C219.199 299.564 219.205 299.545 219.211 299.527L224.572 282.276C224.574 282.267 224.577 282.259 224.58 282.25C224.583 282.24 224.586 282.229 224.589 282.219C224.753 281.688 225.098 280.566 226.282 279.944C226.444 279.859 226.604 279.793 226.762 279.741C226.649 279.396 226.562 279.04 226.502 278.677C226.211 276.995 226.712 275.384 227.404 273.161L227.404 273.159C227.429 273.08 227.454 273 227.479 272.919C227.504 272.838 227.529 272.757 227.554 272.677L227.555 272.676L227.555 272.674C228.245 270.451 228.744 268.842 229.919 267.631L229.919 267.631C230.587 266.943 231.369 266.414 232.224 266.054C231.169 264.313 230.827 262.146 231.477 260.054L231.568 259.761L229.958 259.261C229.94 259.255 229.921 259.25 229.901 259.243C229.37 259.08 228.247 258.734 227.625 257.551C227.002 256.368 227.353 255.248 227.519 254.718C227.525 254.698 227.531 254.679 227.537 254.661L227.553 254.608C227.724 254.059 227.831 253.714 227.978 253.362L227.981 253.356L227.984 253.349C229.325 250.246 232.63 248.458 235.949 249.007C235.915 248.859 235.885 248.711 235.861 248.56C235.569 246.878 236.071 245.267 236.763 243.044L236.763 243.042L236.764 243.041C236.788 242.962 236.813 242.882 236.838 242.802C236.863 242.721 236.888 242.642 236.912 242.562C237.604 240.334 238.102 238.728 239.277 237.504L239.28 237.501L239.282 237.499C240.341 236.409 241.685 235.72 243.152 235.464L243.159 235.462ZM230.519 254.444C230.424 254.665 230.339 254.936 230.171 255.479C230.042 255.893 229.978 256.1 230.067 256.268C230.155 256.437 230.362 256.501 230.776 256.629L234.141 257.675C234.555 257.804 234.762 257.868 234.851 258.037C234.939 258.205 234.875 258.412 234.747 258.825L234.565 259.41L234.111 260.872C233.358 263.294 234.713 265.869 237.137 266.622L241.527 267.986C243.951 268.739 246.527 267.386 247.28 264.964L247.734 263.502L248.188 262.04L248.642 260.578C249.395 258.156 248.04 255.582 245.616 254.828L236.69 252.055C236.147 251.886 235.875 251.801 235.639 251.754C233.51 251.33 231.376 252.452 230.519 254.444ZM240.922 262.187C240.375 262.017 240.102 261.932 239.935 261.751C239.825 261.633 239.749 261.488 239.713 261.33C239.659 261.09 239.744 260.817 239.913 260.27C240.083 259.724 240.168 259.451 240.349 259.284C240.468 259.174 240.613 259.098 240.77 259.062C241.01 259.008 241.284 259.093 241.831 259.263C242.378 259.433 242.651 259.518 242.819 259.699C242.928 259.817 243.005 259.963 243.04 260.12C243.095 260.36 243.01 260.633 242.84 261.18C242.67 261.726 242.585 262 242.404 262.167C242.286 262.276 242.14 262.352 241.983 262.388C241.743 262.442 241.469 262.357 240.922 262.187ZM223.478 295.543C223.646 295.455 223.853 295.519 224.267 295.648L230.339 297.535C230.541 297.597 230.756 297.485 230.819 297.283C230.882 297.081 230.769 296.866 230.567 296.804L224.494 294.917C224.08 294.788 223.874 294.724 223.785 294.555C223.696 294.387 223.76 294.18 223.889 293.767L225.161 289.673C225.289 289.26 225.354 289.053 225.522 288.964C225.691 288.876 225.898 288.94 226.311 289.069L232.384 290.956C232.586 291.018 232.8 290.906 232.863 290.704C232.926 290.502 232.813 290.288 232.611 290.225L226.539 288.338C226.125 288.209 225.918 288.145 225.829 287.976C225.741 287.808 225.805 287.601 225.933 287.188L227.205 283.094C227.334 282.681 227.398 282.474 227.567 282.385C227.735 282.297 227.942 282.361 228.356 282.49L239.769 286.036C240.183 286.165 240.39 286.229 240.478 286.398C240.567 286.566 240.503 286.773 240.374 287.186L238.83 292.157L238.602 292.888L236.785 298.736L236.558 299.467C236.136 300.827 235.924 301.506 235.601 302.018C234.725 303.405 233.175 304.22 231.534 304.155C230.929 304.131 230.249 303.919 228.888 303.496L222.45 301.496C222.036 301.367 221.829 301.303 221.741 301.134C221.652 300.966 221.716 300.759 221.845 300.346L223.117 296.252C223.245 295.839 223.309 295.632 223.478 295.543ZM230.039 280.885C230.829 281.655 232.058 282.037 234.517 282.801C236.975 283.565 238.204 283.947 239.292 283.761C240.248 283.597 241.128 283.135 241.806 282.44C242.576 281.651 242.957 280.422 243.721 277.966C244.484 275.51 244.866 274.281 244.679 273.195C244.514 272.239 244.051 271.359 243.356 270.682C242.566 269.912 241.336 269.53 238.878 268.766C236.42 268.002 235.19 267.62 234.103 267.806C233.146 267.97 232.266 268.433 231.589 269.127C230.819 269.917 230.437 271.145 229.674 273.601C228.911 276.057 228.529 277.286 228.716 278.373C228.88 279.329 229.343 280.208 230.039 280.885ZM232.292 276.018C232.05 275.943 231.914 275.685 231.99 275.443L232.626 273.396C232.701 273.154 232.959 273.019 233.201 273.094L234.775 273.583C234.891 273.619 234.989 273.7 235.045 273.808L235.752 275.15C235.87 275.374 235.784 275.652 235.559 275.77L234.217 276.475C234.109 276.532 233.983 276.543 233.866 276.507L232.292 276.018ZM240.769 278.171C240.694 278.413 240.436 278.549 240.194 278.473L238.62 277.984C238.503 277.948 238.406 277.867 238.349 277.759L237.643 276.417C237.525 276.193 237.611 275.915 237.836 275.797L239.178 275.092C239.286 275.035 239.412 275.024 239.528 275.06L241.102 275.549C241.345 275.625 241.48 275.882 241.405 276.124L240.769 278.171ZM236.461 271.382C236.536 271.139 236.794 271.004 237.036 271.079L239.084 271.716C239.327 271.791 239.462 272.049 239.387 272.291L238.898 273.864C238.862 273.98 238.781 274.077 238.673 274.134L237.331 274.839C237.107 274.957 236.829 274.871 236.71 274.646L236.004 273.304C235.947 273.196 235.936 273.071 235.972 272.954L236.461 271.382ZM234.31 279.851C234.068 279.776 233.932 279.518 234.007 279.276L234.496 277.704C234.532 277.587 234.613 277.49 234.721 277.433L236.063 276.728C236.288 276.61 236.566 276.697 236.684 276.921L237.39 278.263C237.447 278.371 237.459 278.497 237.423 278.613L236.934 280.186C236.859 280.428 236.601 280.563 236.359 280.488L234.31 279.851ZM243.875 252.684C241.417 251.92 240.188 251.538 239.397 250.768C238.702 250.091 238.239 249.212 238.074 248.256C237.888 247.169 238.269 245.941 239.033 243.484C239.796 241.028 240.177 239.8 240.947 239.01C241.625 238.316 242.505 237.853 243.461 237.689C244.549 237.503 245.778 237.885 248.237 238.649C250.695 239.413 251.924 239.795 252.715 240.565C253.41 241.242 253.873 242.122 254.037 243.078C254.224 244.165 253.843 245.393 253.079 247.849C252.316 250.305 251.934 251.534 251.164 252.323C250.487 253.018 249.607 253.48 248.65 253.644C247.563 253.83 246.334 253.448 243.875 252.684ZM241.52 244.257C241.244 245.145 241.741 246.089 242.63 246.365C243.519 246.642 244.463 246.146 244.739 245.257C245.015 244.369 244.518 243.425 243.629 243.149C242.74 242.873 241.796 243.369 241.52 244.257ZM248.483 248.184C249.371 248.46 250.316 247.964 250.592 247.076C250.868 246.188 250.371 245.244 249.482 244.968C248.593 244.692 247.649 245.188 247.373 246.076C247.097 246.964 247.594 247.908 248.483 248.184ZM247.464 241.134C246.575 240.858 245.631 241.354 245.355 242.243C245.079 243.131 245.576 244.075 246.465 244.351C247.354 244.627 248.298 244.131 248.574 243.243C248.85 242.355 248.353 241.411 247.464 241.134ZM243.538 248.09C243.262 248.979 243.759 249.923 244.648 250.199C245.536 250.475 246.481 249.979 246.757 249.091C247.033 248.203 246.536 247.259 245.647 246.982C244.758 246.706 243.814 247.202 243.538 248.09Z" fill="#4F5D73"/>
<path fill-rule="evenodd" clip-rule="evenodd" d="M230.623 270.755C230.912 270.034 231.201 269.525 231.589 269.127C232.267 268.433 233.147 267.97 234.103 267.806C235.191 267.62 236.42 268.002 238.878 268.766C241.337 269.53 242.566 269.912 243.356 270.682C244.052 271.359 244.515 272.239 244.679 273.195C244.866 274.281 244.484 275.51 243.721 277.966C242.958 280.422 242.576 281.651 241.806 282.44C241.129 283.135 240.249 283.597 239.292 283.761C238.205 283.947 236.975 283.565 234.517 282.801C232.059 282.037 230.829 281.655 230.039 280.885C229.344 280.208 228.881 279.329 228.716 278.373C228.622 277.825 228.672 277.242 228.843 276.483L230.623 270.755ZM230.171 255.48C230.34 254.936 230.424 254.665 230.519 254.444C231.376 252.452 233.511 251.33 235.639 251.754C235.875 251.801 236.147 251.886 236.691 252.055L245.616 254.828C247.869 255.528 249.198 257.8 248.771 260.061L247.093 265.463C246.163 267.568 243.78 268.686 241.527 267.986L237.138 266.622C234.713 265.869 233.358 263.294 234.111 260.872L234.565 259.41L234.747 258.825C234.876 258.412 234.94 258.205 234.851 258.037C234.763 257.868 234.556 257.804 234.142 257.675L230.776 256.63C230.363 256.501 230.156 256.437 230.067 256.268C229.978 256.1 230.043 255.893 230.171 255.48ZM240.518 286.623C240.525 286.535 240.513 286.464 240.479 286.398C240.39 286.229 240.183 286.165 239.769 286.036L228.356 282.49C227.942 282.361 227.735 282.297 227.567 282.386C227.398 282.474 227.334 282.681 227.206 283.094L225.934 287.188C225.805 287.601 225.741 287.808 225.83 287.977C225.918 288.145 226.125 288.209 226.539 288.338L232.611 290.225C232.813 290.288 232.926 290.502 232.864 290.704C232.801 290.906 232.586 291.019 232.384 290.956L226.312 289.069C225.898 288.94 225.691 288.876 225.523 288.964C225.354 289.053 225.29 289.26 225.161 289.673L223.889 293.767C223.761 294.18 223.697 294.387 223.785 294.556C223.874 294.724 224.081 294.788 224.495 294.917L230.567 296.804C230.769 296.867 230.882 297.081 230.819 297.283C230.756 297.485 230.542 297.597 230.34 297.535L224.268 295.648C223.854 295.519 223.647 295.455 223.478 295.543C223.31 295.632 223.245 295.839 223.117 296.252L221.845 300.346C221.716 300.759 221.652 300.966 221.741 301.134C221.83 301.303 222.036 301.367 222.45 301.496L228.888 303.496C230.249 303.919 230.929 304.131 231.534 304.155C233.175 304.22 234.726 303.405 235.602 302.018C235.738 301.803 235.854 301.558 235.974 301.245L240.518 286.623ZM239.935 261.751C240.102 261.932 240.376 262.017 240.923 262.187C241.47 262.357 241.743 262.442 241.983 262.388C242.141 262.352 242.286 262.276 242.405 262.167C242.585 262 242.67 261.726 242.84 261.18C243.01 260.633 243.095 260.36 243.041 260.12C243.005 259.963 242.929 259.817 242.819 259.699C242.652 259.518 242.378 259.433 241.831 259.263C241.284 259.093 241.011 259.008 240.77 259.062C240.613 259.098 240.468 259.174 240.349 259.284C240.168 259.451 240.084 259.724 239.914 260.27C239.744 260.817 239.659 261.09 239.713 261.33C239.749 261.488 239.825 261.633 239.935 261.751ZM239.398 250.769C240.188 251.538 241.417 251.92 243.876 252.684C246.334 253.448 247.563 253.83 248.651 253.644C249.607 253.48 250.487 253.018 251.165 252.323C251.935 251.534 252.316 250.306 253.08 247.849C253.843 245.393 254.225 244.165 254.038 243.078C253.873 242.122 253.41 241.242 252.715 240.565C251.925 239.795 250.695 239.413 248.237 238.649C245.778 237.885 244.549 237.503 243.462 237.69C242.505 237.853 241.625 238.316 240.948 239.01C240.56 239.408 240.271 239.917 239.981 240.638L238.201 246.366C238.031 247.125 237.981 247.708 238.075 248.256C238.239 249.212 238.702 250.091 239.398 250.769Z" fill="white"/>
<path fill-rule="evenodd" clip-rule="evenodd" d="M232.292 276.018C232.049 275.943 231.914 275.685 231.989 275.443L232.625 273.396C232.701 273.154 232.958 273.019 233.201 273.094L234.775 273.583C234.891 273.619 234.988 273.7 235.045 273.808L235.751 275.15C235.869 275.374 235.783 275.652 235.558 275.77L234.216 276.475C234.108 276.532 233.982 276.543 233.866 276.507L232.292 276.018ZM240.768 278.171C240.693 278.413 240.436 278.548 240.193 278.473L238.619 277.984C238.503 277.948 238.405 277.867 238.349 277.759L237.642 276.417C237.524 276.193 237.611 275.915 237.835 275.797L239.177 275.092C239.285 275.035 239.411 275.024 239.528 275.06L241.102 275.549C241.344 275.624 241.48 275.882 241.404 276.124L240.768 278.171ZM236.46 271.381C236.536 271.139 236.793 271.004 237.036 271.079L239.084 271.716C239.326 271.791 239.462 272.049 239.387 272.291L238.898 273.864C238.862 273.98 238.781 274.077 238.673 274.134L237.331 274.839C237.106 274.957 236.828 274.87 236.71 274.646L236.004 273.304C235.947 273.196 235.935 273.07 235.972 272.954L236.46 271.381ZM234.31 279.851C234.067 279.776 233.932 279.518 234.007 279.276L234.496 277.703C234.532 277.587 234.613 277.49 234.721 277.433L236.063 276.728C236.288 276.61 236.566 276.697 236.684 276.921L237.39 278.263C237.447 278.371 237.458 278.497 237.422 278.613L236.933 280.186C236.858 280.428 236.601 280.563 236.358 280.488L234.31 279.851Z" fill="#C3C2CA"/>
<path fill-rule="evenodd" clip-rule="evenodd" d="M243.538 248.091C243.262 248.979 243.759 249.923 244.648 250.199C245.537 250.475 246.481 249.979 246.757 249.091C247.033 248.203 246.536 247.259 245.647 246.983C244.758 246.706 243.814 247.202 243.538 248.091Z" fill="#FFA722"/>
<path fill-rule="evenodd" clip-rule="evenodd" d="M248.483 248.184C249.371 248.46 250.316 247.964 250.592 247.076C250.868 246.188 250.371 245.244 249.482 244.968C248.593 244.692 247.649 245.188 247.373 246.076C247.097 246.964 247.594 247.908 248.483 248.184Z" fill="#26E1ED"/>
<path fill-rule="evenodd" clip-rule="evenodd" d="M247.464 241.134C246.576 240.858 245.631 241.354 245.355 242.242C245.079 243.131 245.576 244.075 246.465 244.351C247.354 244.627 248.298 244.131 248.574 243.243C248.85 242.355 248.353 241.411 247.464 241.134Z" fill="#FF3815"/>
<path fill-rule="evenodd" clip-rule="evenodd" d="M241.52 244.257C241.244 245.145 241.741 246.089 242.63 246.365C243.519 246.642 244.463 246.146 244.739 245.257C245.015 244.369 244.518 243.425 243.629 243.149C242.741 242.873 241.796 243.369 241.52 244.257Z" fill="#E2A135"/>
<path d="M174.28 67.9423C174.28 59.3475 167.312 52.38 158.718 52.38C150.123 52.38 143.155 59.3475 143.155 67.9423C143.155 76.5371 150.123 83.5046 158.718 83.5046C167.312 83.5046 174.28 76.5372 174.28 67.9423Z" fill="#4F5D73"/>
</svg>
