<svg width="18" height="18" viewBox="0 0 18 18" fill="none" xmlns="http://www.w3.org/2000/svg">
<path d="M12.7838 11.9843C12.4178 11.6183 12.3997 11.0374 12.6704 10.5963C13.3509 9.48792 13.6757 8.18872 13.5871 6.87619C13.478 5.25777 12.7489 3.74383 11.5516 2.64947C10.3543 1.55511 8.78103 0.964593 7.15935 1.001C5.53766 1.03741 3.9924 1.69783 2.8454 2.84482C1.69841 3.99181 1.038 5.53708 1.00159 7.15876C0.96518 8.78044 1.5557 10.3537 2.65006 11.551C3.74442 12.7483 5.25836 13.4774 6.87678 13.5865C8.18895 13.675 9.48779 13.3504 10.596 12.6704C11.0375 12.3995 11.619 12.418 11.9849 12.7847L15.7961 16.6049C16.0192 16.8286 16.3818 16.8275 16.6036 16.6025C16.823 16.38 16.8217 16.0222 16.6008 15.8012L12.7838 11.9843ZM10.9737 10.9611C10.9778 10.9591 10.9816 10.9643 10.9783 10.9676C10.017 11.919 8.71961 12.4541 7.3664 12.4565C6.35051 12.4565 5.35737 12.1553 4.51268 11.5909C3.668 11.0265 3.0097 10.2243 2.62094 9.2857C2.23217 8.34714 2.13042 7.31438 2.32861 6.31801C2.5268 5.32164 3.01602 4.40641 3.73436 3.68807C4.4527 2.96973 5.36793 2.48051 6.3643 2.28232C7.36067 2.08413 8.39343 2.18588 9.33199 2.57465C10.2706 2.96341 11.0727 3.62185 11.6371 4.46653C12.2015 5.31122 12.5028 6.30422 12.5028 7.32011C12.4986 8.00137 12.3592 8.67501 12.0928 9.30201C11.8297 9.92103 11.4479 10.4825 10.9691 10.9546C10.9658 10.9578 10.9696 10.9632 10.9737 10.9611Z" fill="#313336" stroke="#313336" stroke-linejoin="bevel"/>
</svg>
