<svg width="128" height="128" viewBox="0 0 128 128" fill="none" xmlns="http://www.w3.org/2000/svg">
<g clip-path="url(#clip0_4_17766)">
<path d="M64 128.1C99.3462 128.1 128 99.4462 128 64.1C128 28.7538 99.3462 0.100006 64 0.100006C28.6538 0.100006 0 28.7538 0 64.1C0 99.4462 28.6538 128.1 64 128.1Z" fill="#FF4848"/>
<path opacity="0.5" d="M113.5 49C111 49 109 47 109 44.5C109 42 111 40 113.5 40C116 40 118 42 118 44.5C117.9 47 115.9 49 113.5 49ZM113.5 42.2C112.2 42.2 111.1 43.3 111.1 44.6C111.1 45.9 112.2 47 113.5 47C114.8 47 115.9 45.9 115.9 44.6C115.8 43.2 114.8 42.2 113.5 42.2Z" fill="white"/>
<path opacity="0.5" d="M49 18C46.8 18 45 16.2 45 14C45 11.8 46.8 10 49 10C51.2 10 53 11.8 53 14C53 16.2 51.2 18 49 18ZM49 11.9C47.8 11.9 46.9 12.9 46.9 14C46.9 15.2 47.8 16.1 49 16.1C50.2 16.1 51.1 15.1 51.1 14C51.1 12.8 50.2 11.9 49 11.9Z" fill="white"/>
<path opacity="0.5" d="M17 53C14.8 53 13 51.2 13 49C13 46.8 14.8 45 17 45C19.2 45 21 46.8 21 49C21 51.2 19.2 53 17 53ZM17 46.9C15.8 46.9 14.9 47.9 14.9 49C14.9 50.2 15.9 51.1 17 51.1C18.2 51.1 19.1 50.1 19.1 49C19.1 47.8 18.2 46.9 17 46.9Z" fill="white"/>
<path opacity="0.5" d="M92 110C89.8 110 88 108.2 88 106C88 103.8 89.8 102 92 102C94.2 102 96 103.8 96 106C96 108.2 94.2 110 92 110ZM92 103.9C90.8 103.9 89.9 104.9 89.9 106C89.9 107.2 90.9 108.1 92 108.1C93.2 108.1 94.1 107.1 94.1 106C94.1 104.8 93.2 103.9 92 103.9Z" fill="white"/>
<path opacity="0.5" d="M19.7 72.3C19.7 71.9 19.3 71.5 18.7 71.4L16.8 71.1C16.3 71 15.7 70.5 15.7 70L15.4 68.1C15.3 67.6 14.9 67.1 14.5 67.1C14.1 67.1 13.7 67.5 13.6 68.1L13.5 70C13.4 70.5 12.9 71.1 12.4 71.1L10.5 71.4C10 71.5 9.5 71.9 9.5 72.3C9.5 72.7 9.9 73.1 10.5 73.2L12.4 73.5C12.9 73.6 13.5 74.1 13.5 74.6L13.8 76.5C13.9 77 14.3 77.5 14.7 77.5C15.1 77.5 15.5 77.1 15.5 76.5L15.8 74.4C15.9 73.9 16.4 73.4 16.9 73.3L18.7 73.2C19.3 73 19.7 72.6 19.7 72.3Z" fill="white"/>
<path opacity="0.5" d="M120.6 68.9C120.6 68.5 120.2 68.1 119.6 68L117.7 67.7C117.2 67.6 116.6 67.1 116.6 66.6L116.3 64.7C116.2 64.2 115.8 63.7 115.4 63.7C115 63.7 114.6 64.1 114.5 64.7L114.2 66.6C114.1 67.1 113.6 67.7 113.1 67.7L111.2 68C110.7 68.1 110.2 68.5 110.2 68.9C110.2 69.3 110.6 69.7 111.2 69.8L113.1 70.1C113.6 70.2 114.2 70.7 114.2 71.2L114.5 73.1C114.6 73.6 115 74.1 115.4 74.1C115.8 74.1 116.2 73.7 116.2 73.1L116.5 71C116.6 70.5 117.1 70 117.6 69.9L119.4 69.8C120.1 69.7 120.6 69.3 120.6 68.9Z" fill="white"/>
<path opacity="0.5" d="M47.8004 39.8C47.3004 39.8 46.9004 39.5 46.8004 39C46.7004 38.5 47.0004 37.9 47.5004 37.8L53.9004 36.3C54.4004 36.2 55.0004 36.5 55.1004 37C55.2004 37.5 54.9004 38.1 54.4004 38.2L48.0004 39.7C48.0004 39.7 47.9004 39.8 47.8004 39.8Z" fill="white"/>
<g clip-path="url(#clip1_4_17766)">
<path d="M72.5456 77.2419C64.8049 78.4906 56.8837 76.644 50.4931 72.1009C49.8398 72.4656 49.1285 72.715 48.3905 72.838C47.5075 72.9796 46.6053 72.9458 45.7353 72.7387C44.8654 72.5316 44.0447 72.1551 43.3202 71.6308C42.5958 71.1065 41.9816 70.4447 41.513 69.6831C41.0443 68.9214 40.7302 68.075 40.5886 67.192L39.5107 60.468L40.6403 60.2869C39.4727 57.782 38.6573 55.1276 38.2172 52.3992L36.0613 38.9512L21.2686 41.3226L29.8919 95.1146L107.89 82.6106L106.166 71.8522L72.5456 77.2419Z" fill="#FF4848"/>
<path d="M27.9414 48.5291L34.409 88.873L66.6841 83.699L60.2166 43.355L27.9414 48.5291ZM54.0367 65.0361C54.3226 66.8194 53.8884 68.6433 52.8295 70.1064C51.7707 71.5696 50.174 72.5521 48.3907 72.838C46.6074 73.1239 44.7835 72.6897 43.3204 71.6308C41.8572 70.572 40.8746 68.9753 40.5888 67.192L39.5108 60.468L52.9588 58.3121L54.0367 65.0361Z" fill="#79BD9A"/>
<path d="M95.2943 55.6634L69.7432 59.7595L70.6055 65.1387L96.1567 61.0426L95.2943 55.6634Z" fill="#ADC1F6"/>
<path d="M93.4056 35.2758L86.6816 36.3538L87.7596 43.0778L94.4835 41.9998L93.4056 35.2758Z" fill="#79BD9A"/>
<path d="M43.011 73.7004L53.7694 71.9757C55.1961 71.747 56.6551 72.0944 57.8256 72.9415C58.9962 73.7885 59.7822 75.0659 60.0109 76.4926L61.3045 84.5613L39.7877 88.0107L38.4942 79.9419C38.2655 78.5153 38.6129 77.0562 39.4599 75.8857C40.307 74.7152 41.5844 73.9291 43.011 73.7004V73.7004Z" fill="#ADC1F6"/>
<path d="M38.2168 52.3992L48.9752 50.6745C50.7585 50.3886 52.5823 50.8229 54.0455 51.8817C55.5086 52.9405 56.4912 54.5372 56.7771 56.3206L46.0187 58.0452C44.2354 58.3311 42.4116 57.8969 40.9484 56.838C39.4853 55.7792 38.5027 54.1825 38.2168 52.3992Z" fill="#C4F236"/>
<path d="M48.3906 72.838C46.9357 73.0713 45.4445 72.8263 44.1406 72.14L44.3562 73.4848L49.4685 79.562L52.425 72.1913L52.2094 70.8465C51.1855 71.906 49.8455 72.6048 48.3906 72.838Z" fill="#FF4848"/>
<path d="M43.2783 66.7608C43.1067 65.6908 43.3673 64.5965 44.0026 63.7186C44.6379 62.8407 45.5959 62.2512 46.6659 62.0796L53.3899 61.0017L52.9587 58.3121L39.5107 60.468L40.5887 67.1919C40.7302 68.075 41.0443 68.9214 41.513 69.6831C41.9817 70.4447 42.5958 71.1065 43.3203 71.6308C44.0448 72.1551 44.8654 72.5315 45.7354 72.7387C46.6053 72.9458 47.5076 72.9796 48.3906 72.838C48.8415 72.7622 49.2844 72.645 49.7138 72.4879C48.1454 72.4214 46.648 71.815 45.4753 70.7713C44.3026 69.7277 43.5264 68.3109 43.2783 66.7608V66.7608Z" fill="#FF4848"/>
<path d="M49.7867 64.3381C50.5294 64.219 51.035 63.5204 50.9159 62.7777C50.7969 62.035 50.0983 61.5294 49.3555 61.6485C48.6128 61.7675 48.1073 62.4661 48.2263 63.2088C48.3454 63.9516 49.044 64.4571 49.7867 64.3381Z" fill="#3B5986"/>
<path d="M44.4078 65.2004C45.1505 65.0813 45.6561 64.3827 45.537 63.64C45.418 62.8973 44.7193 62.3917 43.9766 62.5108C43.2339 62.6299 42.7284 63.3285 42.8474 64.0712C42.9665 64.8139 43.6651 65.3195 44.4078 65.2004Z" fill="#3B5986"/>
<path d="M48.9754 50.6745L34.1826 53.0459L35.045 58.4251C35.2732 59.8399 35.8695 61.1697 36.774 62.2812C37.6785 63.3927 38.8594 64.2468 40.1982 64.7579L39.5105 60.468L52.9585 58.3121L53.7303 63.1265C55.0447 62.2807 56.0282 61.0085 56.5157 59.5234C57.0031 58.0383 56.9648 56.4307 56.4072 54.9704C55.8496 53.5102 54.8067 52.2863 53.4534 51.504C52.1002 50.7218 50.519 50.4289 48.9754 50.6745V50.6745Z" fill="#ADC1F6"/>
<path d="M99.0511 27.4739L21.0528 39.9778C20.6961 40.035 20.3768 40.2315 20.165 40.5242C19.9533 40.8168 19.8664 41.1816 19.9236 41.5382L28.547 95.3301C28.6042 95.6868 28.8007 96.0061 29.0933 96.2179C29.3859 96.4297 29.7507 96.5165 30.1074 96.4594L108.106 83.9554C108.462 83.8983 108.782 83.7017 108.993 83.4091C109.205 83.1165 109.292 82.7517 109.235 82.395L100.611 28.6031C100.554 28.2465 100.358 27.9271 100.065 27.7154C99.7725 27.5036 99.4078 27.4167 99.0511 27.4739ZM106.33 81.4814L31.021 93.5542L22.8288 42.4518L98.1375 30.3791L106.33 81.4814Z" fill="#3B5986"/>
<path d="M34.6244 90.2178L66.8995 85.0438C67.2562 84.9866 67.5755 84.7901 67.7873 84.4975C67.9991 84.2048 68.0859 83.8401 68.0287 83.4834L61.5612 43.1395C61.504 42.7828 61.3075 42.4635 61.0149 42.2517C60.7222 42.0399 60.3575 41.9531 60.0008 42.0103L27.7257 47.1843C27.369 47.2415 27.0497 47.438 26.8379 47.7306C26.6261 48.0232 26.5393 48.388 26.5964 48.7447L33.064 89.0886C33.1212 89.4453 33.3177 89.7646 33.6103 89.9764C33.9029 90.1882 34.2677 90.275 34.6244 90.2178ZM50.2602 73.9177L49.0502 76.9531L46.952 74.448L50.2602 73.9177ZM52.3878 63.3555L52.6918 65.2517C52.9205 66.6784 52.5731 68.1374 51.726 69.3079C50.8789 70.4784 49.6016 71.2645 48.1749 71.4932C46.7483 71.7219 45.2892 71.3745 44.1187 70.5275C42.9482 69.6804 42.1621 68.403 41.9334 66.9764L41.0711 61.5972L51.8294 59.8725L52.3878 63.3555ZM52.7431 56.9673L39.2951 59.1232C38.9384 59.1804 38.6191 59.3769 38.4073 59.6695C38.1956 59.9621 38.1087 60.3269 38.1659 60.6836L38.3815 62.0284C37.322 61.0044 36.6231 59.6644 36.3899 58.2095L35.7432 54.1752L49.1911 52.0193C50.2251 51.8549 51.2845 51.9919 52.2427 52.4139C53.2008 52.8359 54.017 53.5251 54.5937 54.3989C55.1704 55.2728 55.483 56.2943 55.4942 57.3412C55.5055 58.388 55.2148 59.416 54.657 60.302L54.3035 58.0965C54.2463 57.7399 54.0498 57.4205 53.7571 57.2088C53.4645 56.997 53.0997 56.9101 52.7431 56.9673ZM43.2269 75.0452L43.8052 74.9525L48.184 80.1541L48.986 85.1568L40.9172 86.4503L39.8393 79.7263C39.6677 78.6563 39.9283 77.562 40.5636 76.6841C41.1989 75.8063 42.1569 75.2167 43.2269 75.0452V75.0452ZM51.6756 84.7256L50.8736 79.723L53.407 73.4132L53.9853 73.3205C55.0553 73.149 56.1496 73.4095 57.0275 74.0448C57.9054 74.6801 58.4949 75.6381 58.6664 76.7081L59.7444 83.4321L51.6756 84.7256ZM29.5016 49.6583L59.0872 44.9154L65.1236 82.5698L62.434 83.0009L61.356 76.277C61.0911 74.5864 60.1995 73.0575 58.8585 71.9945C57.5174 70.9315 55.8254 70.4124 54.1189 70.5403C55.2321 68.8552 55.6818 66.8176 55.3814 64.8205L55.2046 63.7178C56.589 62.5801 57.5611 61.0188 57.9712 59.2745C58.3812 57.5301 58.2066 55.6993 57.4741 54.0639C56.7416 52.4285 55.4918 51.0793 53.9173 50.2238C52.3427 49.3684 50.5306 49.0542 48.76 49.3297L33.9672 51.7011C33.6105 51.7583 33.2912 51.9548 33.0794 52.2475C32.8676 52.5401 32.7808 52.9049 32.838 53.2615L33.7003 58.6407C33.948 60.1518 34.556 61.581 35.4729 62.8073C36.3898 64.0337 37.5886 65.0212 38.9679 65.6862L39.2438 67.4075C39.5827 69.3985 40.6468 71.1934 42.2309 72.4461C40.57 72.8579 39.125 73.88 38.1835 75.3089C37.2419 76.7378 36.8728 78.4688 37.1497 80.1575L38.2276 86.8815L35.538 87.3126L29.5016 49.6583Z" fill="#3B5986"/>
<path d="M75.6663 79.5003L72.9767 79.9315C72.62 79.9887 72.3007 80.1852 72.0889 80.4778C71.8772 80.7704 71.7903 81.1352 71.8475 81.4919C71.9047 81.8485 72.1012 82.1679 72.3938 82.3796C72.6864 82.5914 73.0512 82.6782 73.4079 82.6211L76.0975 82.1899C77.1675 82.0184 78.1255 81.4288 78.7608 80.5509C79.3961 79.673 79.6566 78.5787 79.4851 77.5088C79.3236 76.5157 78.8014 75.6171 78.0184 74.9852C78.5646 74.1402 78.7798 73.1234 78.6228 72.1296C78.4512 71.0596 77.8617 70.1015 76.9838 69.4662C76.1059 68.8309 75.0116 68.5704 73.9416 68.7419L71.252 69.1731C70.8954 69.2303 70.576 69.4268 70.3643 69.7194C70.1525 70.012 70.0656 70.3768 70.1228 70.7335C70.18 71.0901 70.3765 71.4095 70.6691 71.6212C70.9618 71.833 71.3265 71.9199 71.6832 71.8627L74.3728 71.4315C74.7295 71.3743 75.0942 71.4612 75.3868 71.673C75.6795 71.8847 75.876 72.2041 75.9332 72.5607C75.9903 72.9174 75.9035 73.2822 75.6917 73.5748C75.48 73.8674 75.1606 74.0639 74.804 74.1211L72.1144 74.5523C71.7577 74.6095 71.4384 74.806 71.2266 75.0986C71.0148 75.3912 70.928 75.756 70.9852 76.1127C71.0423 76.4693 71.2388 76.7887 71.5315 77.0004C71.8241 77.2122 72.1889 77.2991 72.5455 77.2419L75.2351 76.8107C75.5918 76.7535 75.9566 76.8404 76.2492 77.0521C76.5418 77.2639 76.7383 77.5833 76.7955 77.9399C76.8527 78.2966 76.7658 78.6614 76.5541 78.954C76.3423 79.2466 76.023 79.4431 75.6663 79.5003Z" fill="#3B5986"/>
<path d="M87.8202 69.2757C88.1769 69.2185 88.4962 69.022 88.708 68.7294C88.9197 68.4367 89.0066 68.072 88.9494 67.7153C88.8922 67.3586 88.6957 67.0393 88.4031 66.8275C88.1105 66.6157 87.7457 66.5289 87.389 66.5861L82.0098 67.4484C81.6532 67.5056 81.3338 67.7021 81.1221 67.9947C80.9103 68.2874 80.8234 68.6521 80.8806 69.0088L81.743 74.388C81.8001 74.7447 81.9967 75.064 82.2893 75.2758C82.5819 75.4875 82.9467 75.5744 83.3033 75.5172L85.9929 75.086C86.3496 75.0289 86.7144 75.1157 87.007 75.3275C87.2996 75.5392 87.4961 75.8586 87.5533 76.2153C87.6105 76.5719 87.5237 76.9367 87.3119 77.2293C87.1001 77.5219 86.7808 77.7185 86.4241 77.7756L83.7345 78.2068C83.3779 78.264 83.0585 78.4605 82.8467 78.7531C82.635 79.0458 82.5481 79.4105 82.6053 79.7672C82.6625 80.1238 82.859 80.4432 83.1516 80.655C83.4443 80.8667 83.809 80.9536 84.1657 80.8964L86.8553 80.4652C87.9253 80.2937 88.8833 79.7041 89.5186 78.8263C90.1539 77.9484 90.4145 76.8541 90.2429 75.7841C90.0714 74.7141 89.4818 73.7561 88.604 73.1208C87.7261 72.4855 86.6318 72.2249 85.5618 72.3964L84.217 72.612L83.7858 69.9224L87.8202 69.2757Z" fill="#3B5986"/>
<path d="M95.4582 65.2925C94.3882 65.4641 93.4302 66.0536 92.7949 66.9315C92.1596 67.8094 91.8991 68.9037 92.0706 69.9737C92.2361 70.968 92.7632 71.866 93.5507 72.4951C92.9993 73.3389 92.7793 74.3567 92.9329 75.3529C93.1045 76.4229 93.694 77.3809 94.5719 78.0162C95.4498 78.6515 96.5441 78.9121 97.6141 78.7405C98.6841 78.569 99.6421 77.9794 100.277 77.1016C100.913 76.2237 101.173 75.1294 101.002 74.0594C100.836 73.0651 100.309 72.1671 99.5216 71.5379C100.073 70.6942 100.293 69.6764 100.139 68.6802C99.9678 67.6102 99.3783 66.6522 98.5004 66.0169C97.6225 65.3816 96.5282 65.121 95.4582 65.2925ZM95.8894 67.9821C96.1554 67.9395 96.428 67.9767 96.6728 68.089C96.9177 68.2013 97.1237 68.3837 97.2649 68.6131C97.4061 68.8425 97.4761 69.1087 97.466 69.3779C97.4559 69.647 97.3663 69.9072 97.2083 70.1254C97.0504 70.3436 96.8313 70.5101 96.5788 70.6038C96.3262 70.6976 96.0516 70.7143 95.7895 70.6519C95.5275 70.5895 95.2898 70.4508 95.1066 70.2533C94.9234 70.0559 94.8028 69.8085 94.7602 69.5425C94.703 69.1859 94.7898 68.8211 95.0016 68.5285C95.2134 68.2358 95.5327 68.0393 95.8894 67.9821ZM97.1829 76.0509C96.9169 76.0936 96.6443 76.0564 96.3994 75.9441C96.1546 75.8318 95.9486 75.6494 95.8074 75.4199C95.6662 75.1905 95.5962 74.9244 95.6063 74.6552C95.6164 74.386 95.706 74.1259 95.864 73.9077C96.0219 73.6894 96.241 73.5229 96.4935 73.4292C96.7461 73.3355 97.0207 73.3188 97.2828 73.3812C97.5448 73.4436 97.7825 73.5823 97.9657 73.7798C98.1489 73.9772 98.2695 74.2246 98.3121 74.4906C98.3693 74.8472 98.2824 75.212 98.0707 75.5046C97.8589 75.7972 97.5396 75.9938 97.1829 76.0509Z" fill="#3B5986"/>
<path d="M70.8209 66.4835L96.3721 62.3874C96.7287 62.3302 97.0481 62.1337 97.2599 61.841C97.4716 61.5484 97.5585 61.1837 97.5013 60.827L96.639 55.4478C96.5818 55.0911 96.3853 54.7718 96.0926 54.56C95.8 54.3483 95.4352 54.2614 95.0786 54.3186L69.5274 58.4147C69.1708 58.4719 68.8514 58.6684 68.6396 58.961C68.4279 59.2536 68.341 59.6184 68.3982 59.9751L69.2605 65.3543C69.3177 65.7109 69.5142 66.0303 69.8069 66.242C70.0995 66.4538 70.4643 66.5407 70.8209 66.4835ZM71.3034 60.8887L94.1649 57.2238L94.5961 59.9134L71.7346 63.5783L71.3034 60.8887Z" fill="#3B5986"/>
<path d="M68.8805 54.3803L89.0524 51.1465C89.4091 51.0893 89.7284 50.8928 89.9402 50.6002C90.152 50.3076 90.2388 49.9428 90.1816 49.5861C90.1245 49.2295 89.928 48.9101 89.6353 48.6984C89.3427 48.4866 88.9779 48.3997 88.6213 48.4569L68.4493 51.6907C68.0926 51.7479 67.7733 51.9444 67.5615 52.237C67.3497 52.5296 67.2629 52.8944 67.3201 53.2511C67.3773 53.6077 67.5738 53.9271 67.8664 54.1389C68.159 54.3506 68.5238 54.4375 68.8805 54.3803Z" fill="#3B5986"/>
<path d="M67.8023 47.6563L81.2503 45.5005C81.607 45.4433 81.9263 45.2468 82.1381 44.9542C82.3499 44.6615 82.4367 44.2968 82.3795 43.9401C82.3224 43.5834 82.1258 43.2641 81.8332 43.0523C81.5406 42.8406 81.1758 42.7537 80.8191 42.8109L67.3712 44.9667C67.0145 45.0239 66.6952 45.2204 66.4834 45.5131C66.2716 45.8057 66.1848 46.1704 66.242 46.5271C66.2991 46.8838 66.4956 47.2031 66.7883 47.4149C67.0809 47.6267 67.4457 47.7135 67.8023 47.6563Z" fill="#3B5986"/>
<path d="M87.975 44.4226L94.699 43.3446C95.0556 43.2875 95.375 43.0909 95.5867 42.7983C95.7985 42.5057 95.8854 42.1409 95.8282 41.7842L94.7503 35.0603C94.6931 34.7036 94.4966 34.3842 94.2039 34.1725C93.9113 33.9607 93.5465 33.8739 93.1899 33.931L86.4659 35.009C86.1092 35.0661 85.7899 35.2627 85.5781 35.5553C85.3663 35.8479 85.2795 36.2127 85.3367 36.5693L86.4146 43.2933C86.4718 43.65 86.6683 43.9693 86.9609 44.1811C87.2536 44.3929 87.6183 44.4797 87.975 44.4226ZM88.2419 37.483L92.2762 36.8362L92.923 40.8706L88.8886 41.5174L88.2419 37.483Z" fill="#3B5986"/>
</g>
<path d="M47.9998 119C36.2998 119 26.2998 111.1 23.6998 99.7C20.5998 86.3 28.8998 72.8 42.2998 69.7C44.1998 69.3 46.0998 69 47.9998 69C59.6998 69 69.6998 76.9 72.2998 88.3C75.3998 101.7 67.0998 115.2 53.6998 118.3C51.7998 118.8 49.8998 119 47.9998 119ZM47.9998 71C46.1998 71 44.4998 71.2 42.6998 71.6C30.2998 74.5 22.6998 86.9 25.4998 99.2C27.9998 109.7 37.2998 117 47.9998 117C49.7998 117 51.4998 116.8 53.2998 116.4C65.6998 113.5 73.2998 101.1 70.4998 88.8C67.9998 78.3 58.6998 71 47.9998 71Z" fill="#0C508E"/>
<path d="M48.0005 113C39.1005 113 31.5005 107 29.5005 98.3C27.1005 88.1 33.5005 77.9 43.7005 75.5C45.1005 75.2 46.6005 75 48.0005 75C56.9005 75 64.5005 81 66.5005 89.7C67.7005 94.6 66.8005 99.7 64.1005 104C61.4005 108.3 57.2005 111.3 52.3005 112.5C50.9005 112.8 49.4005 113 48.0005 113ZM48.0005 77C46.7005 77 45.4005 77.2 44.1005 77.5C35.0005 79.6 29.3005 88.8 31.5005 97.9C33.3005 105.6 40.1005 111 48.0005 111C49.3005 111 50.6005 110.8 51.9005 110.5C56.3005 109.5 60.1005 106.8 62.5005 102.9C64.9005 99 65.6005 94.5 64.6005 90.1C62.7005 82.4 55.9005 77 48.0005 77Z" fill="#0C508E"/>
<path d="M7.9997 102.6C6.4997 102.6 4.9997 102.2 3.6997 101.4C3.1997 101.1 3.0997 100.5 3.2997 100C3.5997 99.5 4.1997 99.4 4.6997 99.6C7.6997 101.4 11.6997 100.4 13.4997 97.5C15.9997 93.7 21.0997 92.5 24.9997 94.8C27.9997 96.6 31.9997 95.6 33.7997 92.7C36.2997 88.9 41.3997 87.7 45.2997 90C45.7997 90.3 45.8997 90.9 45.6997 91.4C45.3997 91.9 44.7997 92 44.2997 91.8C41.2997 90 37.2997 91 35.4997 93.9C32.9997 97.7 27.8997 98.9 23.9997 96.6C20.9997 94.8 16.9997 95.8 15.1997 98.7C13.5997 101.2 10.7997 102.6 7.9997 102.6Z" fill="#0C508E"/>
<path d="M9.90009 111C8.40009 111 6.90009 110.6 5.60009 109.8C5.10009 109.5 5.00009 108.9 5.20009 108.4C5.50009 107.9 6.10009 107.8 6.60009 108C9.60009 109.8 13.6001 108.8 15.4001 105.9C17.9001 102.1 23.0001 100.9 26.9001 103.2C29.9001 105 33.9001 104 35.7001 101.1C38.2001 97.3 43.3001 96.1 47.2001 98.4C47.7001 98.7 47.8001 99.3 47.6001 99.8C47.3001 100.3 46.7001 100.4 46.2001 100.2C43.2001 98.4 39.2001 99.4 37.4001 102.3C34.9001 106.1 29.8001 107.3 25.9001 105C22.9001 103.2 18.9001 104.2 17.1001 107.1C15.6001 109.7 12.8001 111 9.90009 111Z" fill="#0C508E"/>
<path d="M11.9997 119.6C10.4997 119.6 8.9997 119.2 7.6997 118.4C7.1997 118.1 7.0997 117.5 7.2997 117C7.5997 116.5 8.1997 116.4 8.6997 116.6C11.6997 118.4 15.6997 117.4 17.4997 114.5C19.9997 110.7 25.0997 109.5 28.9997 111.8C31.9997 113.6 35.9997 112.6 37.7997 109.7C40.2997 105.9 45.3997 104.7 49.2997 107C49.7997 107.3 49.8997 107.9 49.6997 108.4C49.3997 108.9 48.7997 109 48.2997 108.8C45.2997 107 41.2997 108 39.4997 110.9C36.9997 114.7 31.8997 115.9 27.9997 113.6C24.9997 111.8 20.9997 112.8 19.1997 115.7C17.5997 118.2 14.7997 119.6 11.9997 119.6Z" fill="#0C508E"/>
</g>
<defs>
<clipPath id="clip0_4_17766">
<rect width="128" height="128" fill="white"/>
</clipPath>
<clipPath id="clip1_4_17766">
<rect width="87.166" height="87.166" fill="white" transform="translate(14 21.7974) rotate(-9.1076)"/>
</clipPath>
</defs>
</svg>
