<svg width="242" height="252" viewBox="0 0 242 252" fill="none" xmlns="http://www.w3.org/2000/svg">
<path d="M241.339 119.288H234.531V89.601C234.506 73.913 221.775 61.191 206.091 61.152H29.1012C13.4132 61.191 0.687227 73.913 0.657227 89.601V223.044C0.687227 238.732 13.4132 251.467 29.1012 251.488H206.091C221.775 251.467 234.505 238.732 234.531 223.044V194.155L233.6 192.125H241.339V119.288Z" fill="#4F5A69"/>
<path d="M211.356 192.126H219.779V223.044C219.771 230.531 213.57 236.719 206.091 236.732H29.1013C21.6223 236.719 15.4133 230.531 15.4043 223.044V89.601C15.4133 82.118 21.6223 75.917 29.1013 75.904H206.091C213.57 75.917 219.77 82.118 219.779 89.601V119.288H170.382C150.271 119.301 133.972 135.591 133.963 155.715C133.972 175.826 150.271 192.116 170.382 192.125H207.142" fill="#A8B6C0"/>
<path d="M170.382 177.382H226.591V134.036H170.382C158.416 134.066 148.741 143.741 148.711 155.715C148.741 167.677 158.416 177.352 170.382 177.382Z" fill="white"/>
<path d="M28.0499 146.605H23.8449V131.87H28.0499V146.605ZM28.0499 152.925H23.8449V167.677H28.0499V152.925ZM28.0499 173.989H23.8449V188.754H28.0499V173.989ZM28.0499 195.07H23.8449V209.813H28.0499V195.07ZM28.0499 216.369V216.13H23.8449V216.369C23.8449 222.497 28.2599 227.587 34.0709 228.762L34.9089 224.63C31.0029 223.848 28.0329 220.403 28.0499 216.369ZM198.587 224.801H188.275V229.015H198.587C200.416 229.015 202.172 228.626 203.749 227.929L202.056 224.07C200.989 224.531 199.818 224.801 198.587 224.801ZM207.143 216.369C207.143 218.006 206.673 219.523 205.852 220.805L209.408 223.074C210.626 221.134 211.357 218.822 211.357 216.369V207.506H207.144V216.369H207.143ZM47.5879 83.631H36.6049C35.0489 83.631 33.5659 83.913 32.1859 84.417L33.6339 88.374V88.37C34.5659 88.033 35.5569 87.849 36.6039 87.849H47.5869V83.631H47.5879ZM146.134 229.014H160.89V224.8H146.134V229.014ZM28.0499 110.789H23.8449V125.537H28.0499V110.789ZM167.207 229.014H181.95V224.8H167.207V229.014ZM28.0499 96.28C28.0499 94.451 28.6439 92.78 29.6479 91.391L26.2419 88.904C24.7379 90.972 23.8319 93.536 23.8439 96.28V104.472H28.0489V96.28H28.0499ZM174.006 83.631H159.258V87.849H174.006V83.631ZM131.861 83.631H117.122V87.849H131.861V83.631ZM125.071 229.014H139.819V224.8H125.071V229.014V229.014ZM152.942 83.631H138.177V87.849H152.942V83.631ZM207.143 118.254H211.356V103.502H207.143V118.254ZM201.916 84.067L200.809 88.14H200.817C204.45 89.127 207.155 92.426 207.142 96.281V97.191H211.355V96.281C211.347 90.425 207.33 85.524 201.916 84.067ZM195.066 83.631H180.331V87.849H195.066V83.631ZM61.8609 229.014H76.6089V224.8H61.8609V229.014ZM89.7239 83.631H74.9759V87.849H89.7239V83.631ZM40.7929 229.014H55.5409V224.8H40.7929V229.014ZM68.6569 83.631H53.8999V87.849H68.6559V83.631H68.6569ZM110.797 83.631H96.0409V87.849H110.797V83.631ZM82.9249 229.014H97.6809V224.8H82.9249V229.014ZM103.998 229.014H118.742V224.8H103.998V229.014ZM211.356 192.126V201.19H207.143V192.126" fill="white"/>
<path d="M172.98 142.844C165.878 142.844 160.113 148.605 160.113 155.707C160.113 162.814 165.878 168.574 172.98 168.574C180.083 168.574 185.856 162.813 185.856 155.707C185.856 148.605 180.083 142.844 172.98 142.844Z" fill="#59616A"/>
<path d="M162.117 6.10999C160.228 1.51599 154.916 -0.689013 150.322 1.19999L31.1652 50.315C29.6482 50.943 28.4262 51.965 27.4902 53.187H181.527L162.117 6.10999Z" fill="#4F5A69"/>
</svg>
