<svg width="591" height="561" viewBox="0 0 591 561" fill="none" xmlns="http://www.w3.org/2000/svg">
<path d="M331.229 22.8896L294.71 204.05L313.559 39.076L331.229 22.8896Z" fill="url(#paint0_linear_2_16149)"/>
<path d="M275.861 39.076L294.71 204.05L258.237 22.8896L275.861 39.076Z" fill="url(#paint1_linear_2_16149)"/>
<path d="M294.709 51.8696V204.05L270.3 63.8622L294.709 51.8696Z" fill="url(#paint2_linear_2_16149)"/>
<path d="M319.119 63.8622L294.71 204.05V51.8696L319.119 63.8622Z" fill="url(#paint3_linear_2_16149)"/>
<path d="M294.71 0.530273L305.925 19.6618L331.229 22.8897L313.558 39.0761L319.119 63.8622L294.71 51.8697L270.301 63.8622L275.861 39.0761L258.237 22.8897L283.518 19.6618L294.71 0.530273Z" fill="#FFE029"/>
<path d="M270.301 155.75L274.117 162.253L282.741 163.36L276.709 168.873L278.618 177.332L270.301 173.256L261.984 177.332L263.868 168.873L257.86 163.36L266.484 162.253L270.301 155.75Z" fill="#FFE029"/>
<path d="M464.528 61.397L351.199 214.284L448.53 75.9105L464.528 61.397Z" fill="url(#paint4_linear_2_16149)"/>
<path d="M412.882 74.6853L351.199 214.284L394.457 58.6167L412.882 74.6853Z" fill="url(#paint5_linear_2_16149)"/>
<path d="M454.538 98.4113L351.199 214.284L431.495 87.0549L454.538 98.4113Z" fill="url(#paint6_linear_2_16149)"/>
<path d="M409.324 97.2332L351.199 214.284L412.882 74.6853L409.324 97.2332Z" fill="url(#paint7_linear_2_16149)"/>
<path d="M431.495 87.0549L351.199 214.284L409.324 97.2333L431.495 87.0549Z" fill="url(#paint8_linear_2_16149)"/>
<path d="M428.691 38.26L440.495 57.3915L464.527 61.3969L448.529 75.9105L454.538 98.4112L431.495 87.0548L409.324 97.2332L412.882 74.6853L394.457 58.6167L418.937 56.4962L428.691 38.26Z" fill="#FFE029"/>
<path d="M121.523 63.7026L234.852 216.59L137.521 78.2162L121.523 63.7026Z" fill="url(#paint9_linear_2_16149)"/>
<path d="M173.169 76.991L234.852 216.59L191.594 60.9224L173.169 76.991Z" fill="url(#paint10_linear_2_16149)"/>
<path d="M131.514 100.717L234.852 216.59L154.556 89.3606L131.514 100.717Z" fill="url(#paint11_linear_2_16149)"/>
<path d="M176.727 99.5624L234.852 216.59L173.169 76.991L176.727 99.5624Z" fill="url(#paint12_linear_2_16149)"/>
<path d="M154.556 89.3606L234.852 216.59L176.727 99.5625L154.556 89.3606Z" fill="url(#paint13_linear_2_16149)"/>
<path d="M157.336 40.5657L145.532 59.6972L121.523 63.7026L137.521 78.2161L131.513 100.717L154.556 89.3605L176.727 99.5624L173.169 76.991L191.594 60.9224L167.114 58.8019L157.336 40.5657Z" fill="#FFE029"/>
<path d="M87.8553 76.4854L84.2975 83.2002L77.2764 84.7317L81.9179 89.5381L80.1744 97.0305L86.8657 93.2137L93.3685 96.5829L92.4496 88.9727L98.1278 83.318L90.7061 82.7526L87.8553 76.4854Z" fill="#FFE029"/>
<path d="M229.446 25.959L225.959 32.7681L218.891 34.2053L223.603 39.3888L221.836 47.3995L228.621 43.347L235.171 46.9754L234.111 38.9411L239.554 33.2158L232.32 32.4618L229.446 25.959Z" fill="#FFE029"/>
<path d="M189.181 171.472L186.589 175.666L181.335 176.537L184.822 179.718L183.526 184.642L188.568 182.168L193.422 184.407L192.644 179.459L196.697 175.925L191.325 175.477L189.181 171.472Z" fill="#FFE029"/>
<path d="M353.306 22.4331L356.769 29.2422L363.861 30.6795L359.149 35.8393L360.916 43.8736L354.131 39.8211L347.581 43.4495L348.617 35.4152L343.198 29.6899L350.431 28.9359L353.306 22.4331Z" fill="#FFE029"/>
<path d="M485.875 95.0583L489.339 101.867L496.431 103.305L491.718 108.465L493.485 116.499L486.7 112.446L480.15 116.075L481.187 108.04L475.768 102.315L483.001 101.561L485.875 95.0583Z" fill="#FFE029"/>
<path d="M335.636 164.875L338.228 169.069L343.505 169.94L339.995 173.121L341.314 178.069L336.249 175.571L331.395 177.81L332.172 172.862L328.144 169.328L333.515 168.88L335.636 164.875Z" fill="#FFE029"/>
<path fill-rule="evenodd" clip-rule="evenodd" d="M591 223.495C504.542 199.743 413.502 187.058 319.5 187.058V237.058C413.731 237.058 504.832 250.46 591 275.462L567.5 242.558L591 223.495Z" fill="#9E9E9E"/>
<path fill-rule="evenodd" clip-rule="evenodd" d="M591 223.495C504.542 199.743 413.502 187.058 319.5 187.058V237.058C413.731 237.058 504.832 250.46 591 275.462L567.5 242.558L591 223.495Z" fill="#9E9E9E"/>
<path fill-rule="evenodd" clip-rule="evenodd" d="M591 223.495C504.542 199.743 413.502 187.058 319.5 187.058V237.058C413.731 237.058 504.832 250.46 591 275.462L567.5 242.558L591 223.495Z" fill="#FF3815"/>
<path fill-rule="evenodd" clip-rule="evenodd" d="M0.5 223.495C86.9584 199.743 177.998 187.058 272 187.058V237.058C177.769 237.058 86.6683 250.46 0.5 275.462L24 242.558L0.5 223.495Z" fill="#9E9E9E"/>
<path fill-rule="evenodd" clip-rule="evenodd" d="M0.5 223.495C86.9584 199.743 177.998 187.058 272 187.058V237.058C177.769 237.058 86.6683 250.46 0.5 275.462L24 242.558L0.5 223.495Z" fill="#9E9E9E"/>
<path fill-rule="evenodd" clip-rule="evenodd" d="M0.5 223.495C86.9584 199.743 177.998 187.058 272 187.058V237.058C177.769 237.058 86.6683 250.46 0.5 275.462L24 242.558L0.5 223.495Z" fill="#FF3815"/>
<path fill-rule="evenodd" clip-rule="evenodd" d="M567 209.558C480.542 233.31 389.502 245.462 295.5 245.462V195.462C389.731 195.462 480.832 182.06 567 157.058V209.558Z" fill="#9E9E9E"/>
<path fill-rule="evenodd" clip-rule="evenodd" d="M567 209.558C480.542 233.31 389.502 245.462 295.5 245.462V195.462C389.731 195.462 480.832 182.06 567 157.058V209.558Z" fill="#9E9E9E"/>
<path fill-rule="evenodd" clip-rule="evenodd" d="M567 209.558C480.542 233.31 389.502 245.462 295.5 245.462V195.462C389.731 195.462 480.832 182.06 567 157.058V209.558Z" fill="#D62000"/>
<path fill-rule="evenodd" clip-rule="evenodd" d="M24.5 209.558C110.958 233.31 201.998 245.462 296 245.462V195.462C201.769 195.462 110.668 182.06 24.5 157.058V209.558Z" fill="#9E9E9E"/>
<path fill-rule="evenodd" clip-rule="evenodd" d="M24.5 209.558C110.958 233.31 201.998 245.462 296 245.462V195.462C201.769 195.462 110.668 182.06 24.5 157.058V209.558Z" fill="#9E9E9E"/>
<path fill-rule="evenodd" clip-rule="evenodd" d="M24.5 209.558C110.958 233.31 201.998 245.462 296 245.462V195.462C201.769 195.462 110.668 182.06 24.5 157.058V209.558Z" fill="#D62000"/>
<g filter="url(#filter0_d_2_16149)">
<rect x="66" y="163.058" width="460" height="391" rx="8" fill="white"/>
<rect x="67.5" y="164.558" width="457" height="388" rx="6.5" stroke="#FF3815" stroke-width="3"/>
</g>
<path fill-rule="evenodd" clip-rule="evenodd" d="M567 157.495C480.542 133.743 389.502 121.058 295.5 121.058V171.058C389.731 171.058 480.832 184.46 567 209.462V157.495Z" fill="#FF3815"/>
<path fill-rule="evenodd" clip-rule="evenodd" d="M24.5 157.495C110.958 133.743 201.998 121.058 296 121.058V171.058C201.769 171.058 110.668 184.46 24.5 209.462V157.495Z" fill="#FF3815"/>
<circle cx="205.731" cy="276.093" r="66.3646" fill="#7E87D8"/>
<mask id="mask0_2_16149" style="mask-type:alpha" maskUnits="userSpaceOnUse" x="139" y="209" width="134" height="134">
<circle cx="205.731" cy="276.093" r="66.3646" fill="#C4C4C4"/>
</mask>
<g mask="url(#mask0_2_16149)">
<path d="M218.317 327.22C214.973 331.789 210.627 334.352 206.169 334.352H205.5H204.832C200.374 334.352 196.027 331.789 192.684 327.22L191.904 325.994V338.03L188.561 339.367L189.898 341.262C193.464 346.388 199.259 349.397 205.5 349.397C211.741 349.397 217.536 346.388 221.103 341.262L222.44 339.367L219.097 338.03V325.994L218.317 327.22Z" fill="#BD6C67"/>
<path d="M204.943 334.352H205.612H206.281C210.739 334.352 215.085 331.789 218.428 327.22L219.32 325.994V310.057H205.501H191.904V325.994L192.796 327.22C196.028 331.789 200.374 334.352 204.943 334.352Z" fill="#3C3247"/>
<path d="M205.5 328C236.152 328 261 303.152 261 272.5C261 241.848 236.152 217 205.5 217C174.848 217 150 241.848 150 272.5C150 303.152 174.848 328 205.5 328Z" fill="#302A37"/>
<path d="M174.337 303.036C179.459 300.928 181.902 295.066 179.794 289.944C177.686 284.822 171.824 282.378 166.702 284.487C161.579 286.595 159.136 292.457 161.244 297.579C163.353 302.701 169.214 305.145 174.337 303.036Z" fill="#A64F5A"/>
<path d="M176.077 293.786C176.077 296.907 173.514 299.47 170.394 299.47C167.273 299.47 164.71 296.907 164.71 293.786C164.71 290.666 167.273 288.103 170.394 288.103C173.626 288.103 176.077 290.666 176.077 293.786Z" fill="#8C404C"/>
<path d="M249.942 297.606C252.051 292.484 249.607 286.622 244.485 284.514C239.363 282.406 233.501 284.849 231.393 289.971C229.284 295.094 231.728 300.955 236.85 303.064C241.972 305.172 247.834 302.729 249.942 297.606Z" fill="#A64F5A"/>
<path d="M235.033 293.787C235.033 296.907 237.596 299.47 240.717 299.47C243.837 299.47 246.401 296.907 246.401 293.787C246.401 290.666 243.837 288.103 240.717 288.103C237.485 288.103 235.033 290.666 235.033 293.787Z" fill="#8C404C"/>
<path d="M171.954 289.551H175.074L177.08 271.608H170.505L171.954 289.551Z" fill="url(#paint14_linear_2_16149)"/>
<path d="M233.917 271.608L236.034 289.551H239.155L240.604 271.608H233.917Z" fill="url(#paint15_linear_2_16149)"/>
<path d="M205.5 254.557C193.241 254.557 182.765 257.009 177.639 260.687C175.967 264.476 174.964 268.711 174.964 273.057V290.888C174.964 302.144 179.756 312.955 188.003 320.644L189.229 321.759C193.464 325.548 198.925 327.666 204.608 327.666H205.389H206.392C212.075 327.666 217.536 325.548 221.771 321.759L222.997 320.644C231.355 312.955 236.036 302.256 236.036 290.888V273.057C236.036 268.599 235.033 264.476 233.361 260.687C228.346 257.12 217.759 254.557 205.5 254.557Z" fill="#BD6C67"/>
<path d="M191.903 286.542C193.442 286.542 194.689 285.295 194.689 283.756C194.689 282.217 193.442 280.97 191.903 280.97C190.365 280.97 189.117 282.217 189.117 283.756C189.117 285.295 190.365 286.542 191.903 286.542Z" fill="#3C3247"/>
<path d="M219.208 286.542C220.747 286.542 221.994 285.295 221.994 283.756C221.994 282.217 220.747 280.97 219.208 280.97C217.669 280.97 216.422 282.217 216.422 283.756C216.422 285.295 217.669 286.542 219.208 286.542Z" fill="#3C3247"/>
<path d="M212.632 298.021C207.952 297.018 203.048 297.018 198.367 298.021C200.039 300.25 202.825 301.922 205.611 302.033C208.509 302.145 211.406 300.473 212.632 298.021Z" fill="#A64F5A"/>
<path d="M191.236 272.5C187.558 272.277 184.103 273.726 181.651 276.289C187.892 276.958 194.133 277.404 200.374 277.404C198.257 274.617 195.025 272.723 191.236 272.5Z" fill="#3C3247"/>
<path d="M219.766 272.5C223.443 272.277 226.898 273.726 229.35 276.289C223.109 276.958 216.868 277.404 210.627 277.404C212.856 274.617 216.088 272.723 219.766 272.5Z" fill="#3C3247"/>
<path opacity="0.3" d="M191.904 295.681C196.951 295.681 201.043 291.589 201.043 286.542C201.043 281.495 196.951 277.404 191.904 277.404C186.857 277.404 182.766 281.495 182.766 286.542C182.766 291.589 186.857 295.681 191.904 295.681Z" fill="white"/>
<path opacity="0.3" d="M219.21 295.681C224.257 295.681 228.348 291.589 228.348 286.542C228.348 281.495 224.257 277.404 219.21 277.404C214.163 277.404 210.071 281.495 210.071 286.542C210.071 291.589 214.163 295.681 219.21 295.681Z" fill="white"/>
<path d="M219.209 275.063C214.194 275.063 209.959 278.295 208.398 282.864C207.618 282.307 206.615 281.973 205.612 281.973C204.498 281.973 203.606 282.307 202.826 282.864C201.266 278.295 197.031 275.063 192.016 275.063C185.663 275.063 180.648 280.19 180.648 286.431C180.648 292.783 185.775 297.798 192.016 297.798C198.368 297.798 203.495 292.672 203.495 286.431C203.495 286.096 203.495 285.873 203.495 285.539C203.495 284.87 204.386 284.202 205.724 284.202C207.061 284.202 207.953 284.982 207.953 285.539C207.953 285.873 207.953 286.096 207.953 286.431C207.953 292.783 213.079 297.798 219.32 297.798C225.673 297.798 230.688 292.672 230.688 286.431C230.576 280.19 225.45 275.063 219.209 275.063ZM182.766 286.542C182.766 281.527 186.889 277.404 191.904 277.404C196.92 277.404 201.154 281.527 201.154 286.542C201.154 291.557 197.031 295.681 191.904 295.681C186.889 295.681 182.766 291.557 182.766 286.542ZM209.959 286.542C209.959 281.527 214.082 277.404 219.097 277.404C224.112 277.404 228.236 281.527 228.236 286.542C228.236 291.557 224.112 295.681 219.097 295.681C214.082 295.681 209.959 291.557 209.959 286.542Z" fill="#454F6B"/>
<path d="M236.147 289.551L231.689 302.033C231.132 303.482 229.572 304.15 228.234 303.37L225.114 301.699C223.108 300.696 220.879 300.361 218.65 300.584L205.499 302.033L192.572 300.584C190.343 300.361 188.114 300.807 186.219 301.81L182.987 303.37C181.65 304.039 179.978 303.37 179.532 302.033L175.075 289.551H171.954V297.352C171.954 304.596 173.96 311.729 177.638 317.97L178.529 319.53C183.099 327.108 191.234 331.789 200.15 331.789H205.611H211.072C219.987 331.789 228.123 327.108 232.692 319.53L233.584 317.97C237.261 311.729 239.267 304.596 239.267 297.352V289.551H236.147ZM219.876 308.608L217.535 315.518C216.867 317.524 214.972 318.75 212.855 318.527H211.963C210.403 318.415 209.066 317.747 207.951 316.632H205.611H203.27C202.267 317.747 200.819 318.415 199.258 318.527L198.255 318.638C196.249 318.861 194.243 317.524 193.575 315.629L191.234 308.72C190.788 307.382 191.903 306.156 193.24 306.268L198.032 306.825C200.484 307.159 202.936 306.825 205.276 306.045L205.499 305.934L205.834 306.045C208.174 306.825 210.626 307.159 213.078 306.825L217.87 306.268C219.207 306.045 220.322 307.271 219.876 308.608Z" fill="#3C3247"/>
<path d="M194.534 308.747H216.007V308.747C216.007 311.981 213.385 314.603 210.151 314.603H200.39C197.156 314.603 194.534 311.981 194.534 308.747V308.747Z" fill="white"/>
</g>
<circle cx="382.365" cy="276.093" r="66.3646" fill="#95D87E"/>
<mask id="mask1_2_16149" style="mask-type:alpha" maskUnits="userSpaceOnUse" x="316" y="209" width="133" height="134">
<circle cx="382.365" cy="276.093" r="66.3646" fill="#C4C4C4"/>
</mask>
<g mask="url(#mask1_2_16149)">
<path d="M394.95 327.22C391.607 331.789 387.261 334.352 382.803 334.352H382.134H381.465C377.008 334.352 372.661 331.789 369.318 327.22L368.538 325.994V338.03L365.194 339.367L366.532 341.262C370.098 346.388 375.893 349.397 382.134 349.397C388.375 349.397 394.17 346.388 397.737 341.262L399.074 339.367L395.73 338.03V325.994L394.95 327.22Z" fill="#BD6C67"/>
<path d="M381.577 334.352H382.246H382.915C387.372 334.352 391.719 331.789 395.062 327.22L395.954 325.994V310.057H382.134H368.538V325.994L369.43 327.22C372.662 331.789 377.008 334.352 381.577 334.352Z" fill="#3C3247"/>
<path d="M382.134 328C412.786 328 437.634 303.152 437.634 272.5C437.634 241.848 412.786 217 382.134 217C351.482 217 326.634 241.848 326.634 272.5C326.634 303.152 351.482 328 382.134 328Z" fill="#302A37"/>
<path d="M350.97 303.036C356.093 300.928 358.536 295.066 356.428 289.944C354.319 284.822 348.458 282.378 343.335 284.487C338.213 286.595 335.77 292.457 337.878 297.579C339.986 302.701 345.848 305.145 350.97 303.036Z" fill="#A64F5A"/>
<path d="M352.711 293.786C352.711 296.907 350.148 299.47 347.027 299.47C343.907 299.47 341.344 296.907 341.344 293.786C341.344 290.666 343.907 288.103 347.027 288.103C350.259 288.103 352.711 290.666 352.711 293.786Z" fill="#8C404C"/>
<path d="M426.576 297.606C428.684 292.484 426.241 286.622 421.119 284.514C415.996 282.406 410.135 284.849 408.026 289.971C405.918 295.094 408.361 300.955 413.484 303.064C418.606 305.172 424.468 302.729 426.576 297.606Z" fill="#A64F5A"/>
<path d="M411.667 293.787C411.667 296.907 414.23 299.47 417.351 299.47C420.471 299.47 423.034 296.907 423.034 293.787C423.034 290.666 420.471 288.103 417.351 288.103C414.119 288.103 411.667 290.666 411.667 293.787Z" fill="#8C404C"/>
<path d="M348.587 289.551H351.708L353.714 271.608H347.139L348.587 289.551Z" fill="url(#paint16_linear_2_16149)"/>
<path d="M410.551 271.608L412.668 289.551H415.789L417.238 271.608H410.551Z" fill="url(#paint17_linear_2_16149)"/>
<path d="M382.134 254.557C369.875 254.557 359.399 257.009 354.272 260.687C352.601 264.476 351.598 268.711 351.598 273.057V290.888C351.598 302.144 356.39 312.955 364.637 320.644L365.863 321.759C370.098 325.548 375.559 327.666 381.242 327.666H382.022H383.025C388.709 327.666 394.17 325.548 398.405 321.759L399.631 320.644C407.989 312.955 412.67 302.256 412.67 290.888V273.057C412.67 268.599 411.667 264.476 409.995 260.687C404.98 257.12 394.393 254.557 382.134 254.557Z" fill="#BD6C67"/>
<path d="M368.537 286.542C370.076 286.542 371.323 285.295 371.323 283.756C371.323 282.217 370.076 280.97 368.537 280.97C366.998 280.97 365.751 282.217 365.751 283.756C365.751 285.295 366.998 286.542 368.537 286.542Z" fill="#3C3247"/>
<path d="M395.842 286.542C397.381 286.542 398.628 285.295 398.628 283.756C398.628 282.217 397.381 280.97 395.842 280.97C394.303 280.97 393.056 282.217 393.056 283.756C393.056 285.295 394.303 286.542 395.842 286.542Z" fill="#3C3247"/>
<path d="M389.266 298.021C384.585 297.018 379.682 297.018 375.001 298.021C376.673 300.25 379.459 301.922 382.245 302.033C385.143 302.145 388.04 300.473 389.266 298.021Z" fill="#A64F5A"/>
<path d="M367.869 272.5C364.192 272.277 360.737 273.726 358.285 276.289C364.526 276.958 370.767 277.404 377.008 277.404C374.891 274.617 371.659 272.723 367.869 272.5Z" fill="#3C3247"/>
<path d="M396.399 272.5C400.077 272.277 403.532 273.726 405.984 276.289C399.743 276.958 393.502 277.404 387.261 277.404C389.49 274.617 392.722 272.723 396.399 272.5Z" fill="#3C3247"/>
<path opacity="0.3" d="M368.538 295.681C373.585 295.681 377.677 291.589 377.677 286.542C377.677 281.495 373.585 277.404 368.538 277.404C363.491 277.404 359.399 281.495 359.399 286.542C359.399 291.589 363.491 295.681 368.538 295.681Z" fill="white"/>
<path opacity="0.3" d="M395.844 295.681C400.891 295.681 404.982 291.589 404.982 286.542C404.982 281.495 400.891 277.404 395.844 277.404C390.797 277.404 386.705 281.495 386.705 286.542C386.705 291.589 390.797 295.681 395.844 295.681Z" fill="white"/>
<path d="M395.842 275.063C390.827 275.063 386.592 278.295 385.032 282.864C384.252 282.307 383.249 281.973 382.246 281.973C381.132 281.973 380.24 282.307 379.46 282.864C377.9 278.295 373.665 275.063 368.65 275.063C362.297 275.063 357.282 280.19 357.282 286.431C357.282 292.783 362.409 297.798 368.65 297.798C375.002 297.798 380.129 292.672 380.129 286.431C380.129 286.096 380.129 285.873 380.129 285.539C380.129 284.87 381.02 284.202 382.358 284.202C383.695 284.202 384.586 284.982 384.586 285.539C384.586 285.873 384.586 286.096 384.586 286.431C384.586 292.783 389.713 297.798 395.954 297.798C402.306 297.798 407.321 292.672 407.321 286.431C407.21 280.19 402.083 275.063 395.842 275.063ZM359.4 286.542C359.4 281.527 363.523 277.404 368.538 277.404C373.553 277.404 377.788 281.527 377.788 286.542C377.788 291.557 373.665 295.681 368.538 295.681C363.523 295.681 359.4 291.557 359.4 286.542ZM386.592 286.542C386.592 281.527 390.716 277.404 395.731 277.404C400.746 277.404 404.87 281.527 404.87 286.542C404.87 291.557 400.746 295.681 395.731 295.681C390.716 295.681 386.592 291.557 386.592 286.542Z" fill="#454F6B"/>
<path d="M412.781 289.551L408.323 302.033C407.766 303.482 406.205 304.15 404.868 303.37L401.748 301.699C399.742 300.696 397.513 300.361 395.284 300.584L382.133 302.033L369.205 300.584C366.976 300.361 364.748 300.807 362.853 301.81L359.621 303.37C358.284 304.039 356.612 303.37 356.166 302.033L351.708 289.551H348.588V297.352C348.588 304.596 350.594 311.729 354.272 317.97L355.163 319.53C359.732 327.108 367.868 331.789 376.784 331.789H382.245H387.705C396.621 331.789 404.757 327.108 409.326 319.53L410.217 317.97C413.895 311.729 415.901 304.596 415.901 297.352V289.551H412.781ZM396.51 308.608L394.169 315.518C393.501 317.524 391.606 318.75 389.489 318.527H388.597C387.037 318.415 385.699 317.747 384.585 316.632H382.245H379.904C378.901 317.747 377.452 318.415 375.892 318.527L374.889 318.638C372.883 318.861 370.877 317.524 370.208 315.629L367.868 308.72C367.422 307.382 368.537 306.156 369.874 306.268L374.666 306.825C377.118 307.159 379.57 306.825 381.91 306.045L382.133 305.934L382.467 306.045C384.808 306.825 387.26 307.159 389.711 306.825L394.504 306.268C395.841 306.045 396.955 307.271 396.51 308.608Z" fill="#3C3247"/>
<path d="M371.168 308.747H392.641V308.747C392.641 311.981 390.019 314.603 386.784 314.603H377.024C373.79 314.603 371.168 311.981 371.168 308.747V308.747Z" fill="white"/>
</g>
<circle cx="382.365" cy="441.365" r="66.3646" fill="#FC4E4E"/>
<mask id="mask2_2_16149" style="mask-type:alpha" maskUnits="userSpaceOnUse" x="316" y="375" width="133" height="133">
<circle cx="382.365" cy="441.365" r="66.3646" fill="#C4C4C4"/>
</mask>
<g mask="url(#mask2_2_16149)">
<path d="M394.95 492.491C391.607 497.06 387.261 499.624 382.803 499.624H382.134H381.465C377.008 499.624 372.661 497.06 369.318 492.491L368.538 491.265V503.301L365.194 504.639L366.532 506.533C370.098 511.66 375.893 514.669 382.134 514.669C388.375 514.669 394.17 511.66 397.737 506.533L399.074 504.639L395.73 503.301V491.265L394.95 492.491Z" fill="#BD6C67"/>
<path d="M381.577 499.624H382.246H382.915C387.372 499.624 391.719 497.06 395.062 492.491L395.954 491.265V475.328H382.134H368.538V491.265L369.43 492.491C372.662 497.06 377.008 499.624 381.577 499.624Z" fill="#3C3247"/>
<path d="M382.134 493.271C412.786 493.271 437.634 468.423 437.634 437.771C437.634 407.12 412.786 382.271 382.134 382.271C351.482 382.271 326.634 407.12 326.634 437.771C326.634 468.423 351.482 493.271 382.134 493.271Z" fill="#302A37"/>
<path d="M350.97 468.308C356.093 466.2 358.536 460.338 356.428 455.216C354.319 450.093 348.458 447.65 343.335 449.758C338.213 451.867 335.77 457.728 337.878 462.851C339.986 467.973 345.848 470.416 350.97 468.308Z" fill="#A64F5A"/>
<path d="M352.711 459.058C352.711 462.178 350.148 464.741 347.027 464.741C343.907 464.741 341.344 462.178 341.344 459.058C341.344 455.937 343.907 453.374 347.027 453.374C350.259 453.374 352.711 455.937 352.711 459.058Z" fill="#8C404C"/>
<path d="M426.576 462.878C428.684 457.755 426.241 451.894 421.119 449.785C415.996 447.677 410.135 450.12 408.026 455.243C405.918 460.365 408.361 466.227 413.484 468.335C418.606 470.443 424.468 468 426.576 462.878Z" fill="#A64F5A"/>
<path d="M411.667 459.058C411.667 462.178 414.23 464.742 417.351 464.742C420.471 464.742 423.034 462.178 423.034 459.058C423.034 455.938 420.471 453.374 417.351 453.374C414.119 453.374 411.667 455.938 411.667 459.058Z" fill="#8C404C"/>
<path d="M348.587 454.822H351.708L353.714 436.88H347.139L348.587 454.822Z" fill="url(#paint18_linear_2_16149)"/>
<path d="M410.551 436.88L412.668 454.823H415.789L417.238 436.88H410.551Z" fill="url(#paint19_linear_2_16149)"/>
<path d="M382.134 419.829C369.875 419.829 359.399 422.28 354.272 425.958C352.601 429.747 351.598 433.982 351.598 438.329V456.16C351.598 467.416 356.39 478.226 364.637 485.916L365.863 487.03C370.098 490.82 375.559 492.937 381.242 492.937H382.022H383.025C388.709 492.937 394.17 490.82 398.405 487.03L399.631 485.916C407.989 478.226 412.67 467.527 412.67 456.16V438.329C412.67 433.871 411.667 429.747 409.995 425.958C404.98 422.392 394.393 419.829 382.134 419.829Z" fill="#BD6C67"/>
<path d="M368.537 451.814C370.076 451.814 371.323 450.566 371.323 449.028C371.323 447.489 370.076 446.241 368.537 446.241C366.998 446.241 365.751 447.489 365.751 449.028C365.751 450.566 366.998 451.814 368.537 451.814Z" fill="#3C3247"/>
<path d="M395.842 451.814C397.381 451.814 398.628 450.566 398.628 449.028C398.628 447.489 397.381 446.241 395.842 446.241C394.303 446.241 393.056 447.489 393.056 449.028C393.056 450.566 394.303 451.814 395.842 451.814Z" fill="#3C3247"/>
<path d="M389.266 463.293C384.585 462.29 379.682 462.29 375.001 463.293C376.673 465.522 379.459 467.193 382.245 467.305C385.143 467.416 388.04 465.745 389.266 463.293Z" fill="#A64F5A"/>
<path d="M367.869 437.771C364.192 437.549 360.737 438.997 358.285 441.561C364.526 442.229 370.767 442.675 377.008 442.675C374.891 439.889 371.659 437.994 367.869 437.771Z" fill="#3C3247"/>
<path d="M396.399 437.771C400.077 437.549 403.532 438.997 405.984 441.561C399.743 442.229 393.502 442.675 387.261 442.675C389.49 439.889 392.722 437.994 396.399 437.771Z" fill="#3C3247"/>
<path opacity="0.3" d="M368.538 460.952C373.585 460.952 377.677 456.861 377.677 451.814C377.677 446.767 373.585 442.675 368.538 442.675C363.491 442.675 359.399 446.767 359.399 451.814C359.399 456.861 363.491 460.952 368.538 460.952Z" fill="white"/>
<path opacity="0.3" d="M395.844 460.952C400.891 460.952 404.982 456.861 404.982 451.814C404.982 446.767 400.891 442.675 395.844 442.675C390.797 442.675 386.705 446.767 386.705 451.814C386.705 456.861 390.797 460.952 395.844 460.952Z" fill="white"/>
<path d="M395.842 440.335C390.827 440.335 386.592 443.567 385.032 448.136C384.252 447.579 383.249 447.244 382.246 447.244C381.132 447.244 380.24 447.579 379.46 448.136C377.9 443.567 373.665 440.335 368.65 440.335C362.297 440.335 357.282 445.461 357.282 451.702C357.282 458.055 362.409 463.07 368.65 463.07C375.002 463.07 380.129 457.943 380.129 451.702C380.129 451.368 380.129 451.145 380.129 450.811C380.129 450.142 381.02 449.473 382.358 449.473C383.695 449.473 384.586 450.253 384.586 450.811C384.586 451.145 384.586 451.368 384.586 451.702C384.586 458.055 389.713 463.07 395.954 463.07C402.306 463.07 407.321 457.943 407.321 451.702C407.21 445.461 402.083 440.335 395.842 440.335ZM359.4 451.814C359.4 446.799 363.523 442.675 368.538 442.675C373.553 442.675 377.788 446.799 377.788 451.814C377.788 456.829 373.665 460.952 368.538 460.952C363.523 460.952 359.4 456.829 359.4 451.814ZM386.592 451.814C386.592 446.799 390.716 442.675 395.731 442.675C400.746 442.675 404.87 446.799 404.87 451.814C404.87 456.829 400.746 460.952 395.731 460.952C390.716 460.952 386.592 456.829 386.592 451.814Z" fill="#454F6B"/>
<path d="M412.781 454.823L408.323 467.304C407.766 468.753 406.205 469.422 404.868 468.642L401.748 466.97C399.742 465.967 397.513 465.633 395.284 465.856L382.133 467.304L369.205 465.856C366.976 465.633 364.748 466.079 362.853 467.082L359.621 468.642C358.284 469.31 356.612 468.642 356.166 467.304L351.708 454.823H348.588V462.624C348.588 469.868 350.594 477 354.272 483.241L355.163 484.801C359.732 492.38 367.868 497.06 376.784 497.06H382.245H387.705C396.621 497.06 404.757 492.38 409.326 484.801L410.217 483.241C413.895 477 415.901 469.868 415.901 462.624V454.823H412.781ZM396.51 473.88L394.169 480.789C393.501 482.795 391.606 484.021 389.489 483.798H388.597C387.037 483.687 385.699 483.018 384.585 481.904H382.245H379.904C378.901 483.018 377.452 483.687 375.892 483.798L374.889 483.91C372.883 484.133 370.877 482.795 370.208 480.901L367.868 473.991C367.422 472.654 368.537 471.428 369.874 471.539L374.666 472.097C377.118 472.431 379.57 472.097 381.91 471.316L382.133 471.205L382.467 471.316C384.808 472.097 387.26 472.431 389.711 472.097L394.504 471.539C395.841 471.316 396.955 472.542 396.51 473.88Z" fill="#3C3247"/>
<path d="M371.168 474.018H392.641V474.018C392.641 477.253 390.019 479.874 386.784 479.874H377.024C373.79 479.874 371.168 477.253 371.168 474.018V474.018Z" fill="white"/>
</g>
<circle cx="206.365" cy="441.365" r="66.3646" fill="#D87ED4"/>
<mask id="mask3_2_16149" style="mask-type:alpha" maskUnits="userSpaceOnUse" x="140" y="375" width="133" height="133">
<circle cx="206.365" cy="441.365" r="66.3646" fill="#C4C4C4"/>
</mask>
<g mask="url(#mask3_2_16149)">
<path d="M218.95 492.491C215.607 497.06 211.261 499.624 206.803 499.624H206.134H205.465C201.008 499.624 196.661 497.06 193.318 492.491L192.538 491.265V503.301L189.194 504.639L190.532 506.533C194.098 511.66 199.893 514.669 206.134 514.669C212.375 514.669 218.17 511.66 221.737 506.533L223.074 504.639L219.73 503.301V491.265L218.95 492.491Z" fill="#BD6C67"/>
<path d="M205.577 499.624H206.246H206.915C211.372 499.624 215.719 497.06 219.062 492.491L219.954 491.265V475.328H206.134H192.538V491.265L193.43 492.491C196.662 497.06 201.008 499.624 205.577 499.624Z" fill="#3C3247"/>
<path d="M206.134 493.271C236.786 493.271 261.634 468.423 261.634 437.771C261.634 407.12 236.786 382.271 206.134 382.271C175.482 382.271 150.634 407.12 150.634 437.771C150.634 468.423 175.482 493.271 206.134 493.271Z" fill="#302A37"/>
<path d="M174.97 468.308C180.093 466.2 182.536 460.338 180.428 455.216C178.319 450.093 172.458 447.65 167.335 449.758C162.213 451.867 159.77 457.728 161.878 462.851C163.986 467.973 169.848 470.416 174.97 468.308Z" fill="#A64F5A"/>
<path d="M176.711 459.058C176.711 462.178 174.148 464.741 171.027 464.741C167.907 464.741 165.344 462.178 165.344 459.058C165.344 455.937 167.907 453.374 171.027 453.374C174.259 453.374 176.711 455.937 176.711 459.058Z" fill="#8C404C"/>
<path d="M250.576 462.878C252.684 457.755 250.241 451.894 245.119 449.785C239.996 447.677 234.135 450.12 232.026 455.243C229.918 460.365 232.361 466.227 237.484 468.335C242.606 470.443 248.468 468 250.576 462.878Z" fill="#A64F5A"/>
<path d="M235.667 459.058C235.667 462.178 238.23 464.742 241.351 464.742C244.471 464.742 247.034 462.178 247.034 459.058C247.034 455.938 244.471 453.374 241.351 453.374C238.119 453.374 235.667 455.938 235.667 459.058Z" fill="#8C404C"/>
<path d="M172.587 454.822H175.708L177.714 436.88H171.139L172.587 454.822Z" fill="url(#paint20_linear_2_16149)"/>
<path d="M234.551 436.88L236.668 454.823H239.789L241.238 436.88H234.551Z" fill="url(#paint21_linear_2_16149)"/>
<path d="M206.134 419.829C193.875 419.829 183.399 422.28 178.272 425.958C176.601 429.747 175.598 433.982 175.598 438.329V456.16C175.598 467.416 180.39 478.226 188.637 485.916L189.863 487.03C194.098 490.82 199.559 492.937 205.242 492.937H206.022H207.025C212.709 492.937 218.17 490.82 222.405 487.03L223.631 485.916C231.989 478.226 236.67 467.527 236.67 456.16V438.329C236.67 433.871 235.667 429.747 233.995 425.958C228.98 422.392 218.393 419.829 206.134 419.829Z" fill="#BD6C67"/>
<path d="M192.537 451.814C194.076 451.814 195.323 450.566 195.323 449.028C195.323 447.489 194.076 446.241 192.537 446.241C190.998 446.241 189.751 447.489 189.751 449.028C189.751 450.566 190.998 451.814 192.537 451.814Z" fill="#3C3247"/>
<path d="M219.842 451.814C221.381 451.814 222.628 450.566 222.628 449.028C222.628 447.489 221.381 446.241 219.842 446.241C218.303 446.241 217.056 447.489 217.056 449.028C217.056 450.566 218.303 451.814 219.842 451.814Z" fill="#3C3247"/>
<path d="M213.266 463.293C208.585 462.29 203.682 462.29 199.001 463.293C200.673 465.522 203.459 467.193 206.245 467.305C209.143 467.416 212.04 465.745 213.266 463.293Z" fill="#A64F5A"/>
<path d="M191.869 437.771C188.192 437.549 184.737 438.997 182.285 441.561C188.526 442.229 194.767 442.675 201.008 442.675C198.891 439.889 195.659 437.994 191.869 437.771Z" fill="#3C3247"/>
<path d="M220.399 437.771C224.077 437.549 227.532 438.997 229.984 441.561C223.743 442.229 217.502 442.675 211.261 442.675C213.49 439.889 216.722 437.994 220.399 437.771Z" fill="#3C3247"/>
<path opacity="0.3" d="M192.538 460.952C197.585 460.952 201.677 456.861 201.677 451.814C201.677 446.767 197.585 442.675 192.538 442.675C187.491 442.675 183.399 446.767 183.399 451.814C183.399 456.861 187.491 460.952 192.538 460.952Z" fill="white"/>
<path opacity="0.3" d="M219.844 460.952C224.891 460.952 228.982 456.861 228.982 451.814C228.982 446.767 224.891 442.675 219.844 442.675C214.797 442.675 210.705 446.767 210.705 451.814C210.705 456.861 214.797 460.952 219.844 460.952Z" fill="white"/>
<path d="M219.842 440.335C214.827 440.335 210.592 443.567 209.032 448.136C208.252 447.579 207.249 447.244 206.246 447.244C205.132 447.244 204.24 447.579 203.46 448.136C201.9 443.567 197.665 440.335 192.65 440.335C186.297 440.335 181.282 445.461 181.282 451.702C181.282 458.055 186.409 463.07 192.65 463.07C199.002 463.07 204.129 457.943 204.129 451.702C204.129 451.368 204.129 451.145 204.129 450.811C204.129 450.142 205.02 449.473 206.358 449.473C207.695 449.473 208.586 450.253 208.586 450.811C208.586 451.145 208.586 451.368 208.586 451.702C208.586 458.055 213.713 463.07 219.954 463.07C226.306 463.07 231.321 457.943 231.321 451.702C231.21 445.461 226.083 440.335 219.842 440.335ZM183.4 451.814C183.4 446.799 187.523 442.675 192.538 442.675C197.553 442.675 201.788 446.799 201.788 451.814C201.788 456.829 197.665 460.952 192.538 460.952C187.523 460.952 183.4 456.829 183.4 451.814ZM210.592 451.814C210.592 446.799 214.716 442.675 219.731 442.675C224.746 442.675 228.87 446.799 228.87 451.814C228.87 456.829 224.746 460.952 219.731 460.952C214.716 460.952 210.592 456.829 210.592 451.814Z" fill="#454F6B"/>
<path d="M236.781 454.823L232.323 467.304C231.766 468.753 230.205 469.422 228.868 468.642L225.748 466.97C223.742 465.967 221.513 465.633 219.284 465.856L206.133 467.304L193.205 465.856C190.976 465.633 188.748 466.079 186.853 467.082L183.621 468.642C182.284 469.31 180.612 468.642 180.166 467.304L175.708 454.823H172.588V462.624C172.588 469.868 174.594 477 178.272 483.241L179.163 484.801C183.732 492.38 191.868 497.06 200.784 497.06H206.245H211.705C220.621 497.06 228.757 492.38 233.326 484.801L234.217 483.241C237.895 477 239.901 469.868 239.901 462.624V454.823H236.781ZM220.51 473.88L218.169 480.789C217.501 482.795 215.606 484.021 213.489 483.798H212.597C211.037 483.687 209.699 483.018 208.585 481.904H206.245H203.904C202.901 483.018 201.452 483.687 199.892 483.798L198.889 483.91C196.883 484.133 194.877 482.795 194.208 480.901L191.868 473.991C191.422 472.654 192.537 471.428 193.874 471.539L198.666 472.097C201.118 472.431 203.57 472.097 205.91 471.316L206.133 471.205L206.467 471.316C208.808 472.097 211.26 472.431 213.711 472.097L218.504 471.539C219.841 471.316 220.955 472.542 220.51 473.88Z" fill="#3C3247"/>
<path d="M195.168 474.018H216.641V474.018C216.641 477.253 214.019 479.874 210.784 479.874H201.024C197.79 479.874 195.168 477.253 195.168 474.018V474.018Z" fill="white"/>
</g>
<defs>
<filter id="filter0_d_2_16149" x="66" y="163.058" width="460" height="397" filterUnits="userSpaceOnUse" color-interpolation-filters="sRGB">
<feFlood flood-opacity="0" result="BackgroundImageFix"/>
<feColorMatrix in="SourceAlpha" type="matrix" values="0 0 0 0 0 0 0 0 0 0 0 0 0 0 0 0 0 0 127 0" result="hardAlpha"/>
<feOffset dy="6"/>
<feColorMatrix type="matrix" values="0 0 0 0 1 0 0 0 0 0.219608 0 0 0 0 0.0823529 0 0 0 1 0"/>
<feBlend mode="normal" in2="BackgroundImageFix" result="effect1_dropShadow_2_16149"/>
<feBlend mode="normal" in="SourceGraphic" in2="effect1_dropShadow_2_16149" result="shape"/>
</filter>
<linearGradient id="paint0_linear_2_16149" x1="294.71" y1="113.458" x2="331.229" y2="113.458" gradientUnits="userSpaceOnUse">
<stop stop-color="#EDA826"/>
<stop offset="0.33" stop-color="#EFAE2C"/>
<stop offset="0.77" stop-color="#F3BF3D"/>
<stop offset="1" stop-color="#F6CB49"/>
</linearGradient>
<linearGradient id="paint1_linear_2_16149" x1="2965.22" y1="8705.91" x2="3529.81" y2="8705.91" gradientUnits="userSpaceOnUse">
<stop stop-color="#EDA826"/>
<stop offset="0.33" stop-color="#EFAE2C"/>
<stop offset="0.77" stop-color="#F3BF3D"/>
<stop offset="1" stop-color="#F6CB49"/>
</linearGradient>
<linearGradient id="paint2_linear_2_16149" x1="270.3" y1="127.972" x2="294.709" y2="127.972" gradientUnits="userSpaceOnUse">
<stop stop-color="#F2BA38"/>
<stop offset="1" stop-color="#EDA826"/>
</linearGradient>
<linearGradient id="paint3_linear_2_16149" x1="2484.21" y1="8283.31" x2="2737.09" y2="8283.31" gradientUnits="userSpaceOnUse">
<stop stop-color="#F2BA38"/>
<stop offset="1" stop-color="#EDA826"/>
</linearGradient>
<linearGradient id="paint4_linear_2_16149" x1="12124.9" y1="9346.24" x2="17576" y2="9346.24" gradientUnits="userSpaceOnUse">
<stop stop-color="#F2BA38"/>
<stop offset="1" stop-color="#EDA826"/>
</linearGradient>
<linearGradient id="paint5_linear_2_16149" x1="6759.41" y1="9420.46" x2="8374.27" y2="9420.46" gradientUnits="userSpaceOnUse">
<stop stop-color="#F2BA38"/>
<stop offset="1" stop-color="#EDA826"/>
</linearGradient>
<linearGradient id="paint6_linear_2_16149" x1="11087" y1="8505.82" x2="15619.5" y2="8505.82" gradientUnits="userSpaceOnUse">
<stop stop-color="#EDA826"/>
<stop offset="0.33" stop-color="#EFAE2C"/>
<stop offset="0.77" stop-color="#F3BF3D"/>
<stop offset="1" stop-color="#F6CB49"/>
</linearGradient>
<linearGradient id="paint7_linear_2_16149" x1="6759.41" y1="8944.8" x2="8374.27" y2="8944.8" gradientUnits="userSpaceOnUse">
<stop stop-color="#EDA826"/>
<stop offset="0.33" stop-color="#EFAE2C"/>
<stop offset="0.77" stop-color="#F3BF3D"/>
<stop offset="1" stop-color="#F6CB49"/>
</linearGradient>
<linearGradient id="paint8_linear_2_16149" x1="8693.14" y1="8505.82" x2="11429.6" y2="8505.82" gradientUnits="userSpaceOnUse">
<stop stop-color="#F2BA38"/>
<stop offset="1" stop-color="#EDA826"/>
</linearGradient>
<linearGradient id="paint9_linear_2_16149" x1="3065.79" y1="9348.55" x2="8516.89" y2="9348.55" gradientUnits="userSpaceOnUse">
<stop stop-color="#F2BA38"/>
<stop offset="1" stop-color="#EDA826"/>
</linearGradient>
<linearGradient id="paint10_linear_2_16149" x1="3127.77" y1="9422.76" x2="4742.62" y2="9422.76" gradientUnits="userSpaceOnUse">
<stop stop-color="#F2BA38"/>
<stop offset="1" stop-color="#EDA826"/>
</linearGradient>
<linearGradient id="paint11_linear_2_16149" x1="3254.4" y1="8508.13" x2="7786.83" y2="8508.13" gradientUnits="userSpaceOnUse">
<stop stop-color="#EDA826"/>
<stop offset="0.33" stop-color="#EFAE2C"/>
<stop offset="0.77" stop-color="#F3BF3D"/>
<stop offset="1" stop-color="#F6CB49"/>
</linearGradient>
<linearGradient id="paint12_linear_2_16149" x1="3127.77" y1="8947.1" x2="4742.62" y2="8947.1" gradientUnits="userSpaceOnUse">
<stop stop-color="#EDA826"/>
<stop offset="0.33" stop-color="#EFAE2C"/>
<stop offset="0.77" stop-color="#F3BF3D"/>
<stop offset="1" stop-color="#F6CB49"/>
</linearGradient>
<linearGradient id="paint13_linear_2_16149" x1="3366.39" y1="8508.13" x2="6102.87" y2="8508.13" gradientUnits="userSpaceOnUse">
<stop stop-color="#F2BA38"/>
<stop offset="1" stop-color="#EDA826"/>
</linearGradient>
<linearGradient id="paint14_linear_2_16149" x1="173.793" y1="271.608" x2="173.793" y2="289.551" gradientUnits="userSpaceOnUse">
<stop stop-color="#302A37"/>
<stop offset="1" stop-color="#3C3247"/>
</linearGradient>
<linearGradient id="paint15_linear_2_16149" x1="237.26" y1="271.608" x2="237.26" y2="289.551" gradientUnits="userSpaceOnUse">
<stop stop-color="#302A37"/>
<stop offset="1" stop-color="#3C3247"/>
</linearGradient>
<linearGradient id="paint16_linear_2_16149" x1="350.426" y1="271.608" x2="350.426" y2="289.551" gradientUnits="userSpaceOnUse">
<stop stop-color="#302A37"/>
<stop offset="1" stop-color="#3C3247"/>
</linearGradient>
<linearGradient id="paint17_linear_2_16149" x1="413.894" y1="271.608" x2="413.894" y2="289.551" gradientUnits="userSpaceOnUse">
<stop stop-color="#302A37"/>
<stop offset="1" stop-color="#3C3247"/>
</linearGradient>
<linearGradient id="paint18_linear_2_16149" x1="350.426" y1="436.88" x2="350.426" y2="454.822" gradientUnits="userSpaceOnUse">
<stop stop-color="#302A37"/>
<stop offset="1" stop-color="#3C3247"/>
</linearGradient>
<linearGradient id="paint19_linear_2_16149" x1="413.894" y1="436.88" x2="413.894" y2="454.823" gradientUnits="userSpaceOnUse">
<stop stop-color="#302A37"/>
<stop offset="1" stop-color="#3C3247"/>
</linearGradient>
<linearGradient id="paint20_linear_2_16149" x1="174.426" y1="436.88" x2="174.426" y2="454.822" gradientUnits="userSpaceOnUse">
<stop stop-color="#302A37"/>
<stop offset="1" stop-color="#3C3247"/>
</linearGradient>
<linearGradient id="paint21_linear_2_16149" x1="237.894" y1="436.88" x2="237.894" y2="454.823" gradientUnits="userSpaceOnUse">
<stop stop-color="#302A37"/>
<stop offset="1" stop-color="#3C3247"/>
</linearGradient>
</defs>
</svg>
