<svg width="37" height="13" fill="none" xmlns="http://www.w3.org/2000/svg"><path d="M4.924 10.992c-1.344 0-1.936-.512-2.32-1.296-.24-.464-.304-1.424-.352-2.064-.016-.336-.016-.768-.016-1.328 0-.784 0-1.2.08-1.952S2.524 3.2 2.78 2.64c.352-.752 1.04-1.216 2.144-1.216 1.568 0 2.4.864 2.496 2.576.016.24.16.336.4.288l.512-.112c.304-.064.368-.16.352-.464-.16-1.44-.528-2.544-2-3.152C6.188.384 5.612.288 4.924.288S3.66.4 3.164.64c-.976.464-1.504 1.136-1.824 2.272C1.02 4.016.956 4.944.956 6.304c0 1.552.08 2.528.4 3.568.16.512.384.928.672 1.232.576.624 1.536 1.024 2.896 1.024 1.328 0 2.256-.304 2.816-.928.56-.624.88-1.472.928-2.544.016-.256-.112-.4-.352-.448l-.48-.08c-.256-.048-.4.064-.416.32-.096 1.696-.928 2.544-2.496 2.544Zm14.18-6.528c0-2.832-.992-4.176-3.184-4.176s-3.168 1.344-3.168 4.176c0 2.864.976 4.192 3.168 4.192 2.224 0 3.184-1.328 3.184-4.192ZM15.92 7.616c-1.392 0-1.984-.944-1.984-3.136s.592-3.168 1.984-3.168c1.408 0 1.984.96 1.984 3.152 0 2.224-.576 3.152-1.984 3.152Zm-5.424 4c0 .256.128.384.384.384h7.744c.256 0 .384-.128.384-.384v-.352c0-.256-.128-.384-.384-.384H11.76V.8c0-.256-.128-.384-.384-.384h-.496c-.256 0-.384.128-.384.384v10.816Zm13.48-.608c-1.52 0-2.32-.736-2.464-1.76-.032-.256-.177-.368-.448-.32l-.433.064c-.207.016-.352.24-.335.448.08.768.431 1.408 1.024 1.936.607.528 1.488.784 2.623.768 2.576-.016 3.697-1.264 3.697-3.04 0-4.24-5.873-3.04-5.873-5.84 0-1.04.72-1.84 2.209-1.84 1.456 0 2.24.656 2.384 1.952.015.24.16.352.416.32l.448-.064c.256-.032.367-.176.352-.448-.128-1.792-1.377-2.896-3.633-2.896-1.136 0-1.984.304-2.576.896-.576.592-.864 1.28-.864 2.064 0 4.032 5.857 2.656 5.857 5.744 0 1.344-.8 2.016-2.384 2.016Zm6.737-4.352h4.24c.256 0 .384-.128.384-.384V5.92c0-.256-.128-.384-.384-.384h-4.24v-4h5.136c.256 0 .384-.128.384-.384V.8c0-.256-.128-.384-.384-.384h-6.016a.37.37 0 0 0-.384.384v10.816a.37.37 0 0 0 .384.384h6.016c.256 0 .384-.128.384-.384v-.352c0-.256-.128-.384-.384-.384h-5.136V6.656ZM.172 13.6h36.653v.8H.172v-.8Z" fill="#B7BAC6"/></svg>