<svg width="191" height="157" fill="none" xmlns="http://www.w3.org/2000/svg"><path d="M15.817 50.992s-26.554-23.694-3.312-42.011C35.747-9.336 44.96 20.184 44.96 20.184S20.432 37.586 15.817 51.085" fill="#fff"/><path d="M15.817 50.992s-26.554-23.694-3.312-42.011C35.747-9.336 44.96 20.184 44.96 20.184S20.432 37.586 15.817 51.085" stroke="#672938" stroke-width="4" stroke-linecap="round" stroke-linejoin="round"/><path d="M175.201 50.992s26.555-23.694 3.313-42.011C155.271-9.336 146.06 20.184 146.06 20.184s24.526 17.402 29.141 30.901" fill="#fff"/><path d="M175.201 50.992s26.555-23.694 3.313-42.011C155.271-9.336 146.06 20.184 146.06 20.184s24.526 17.402 29.141 30.901" stroke="#672938" stroke-width="4" stroke-linecap="round" stroke-linejoin="round"/><path d="M171.449 41.665s8.299-11.09 4.187-17.439c-2.289-3.547-6.848-6.199-10.44-7.842a6.62 6.62 0 0 0-4.433-.383 6.642 6.642 0 0 0-3.68 2.512l-3.61 4.929 17.976 18.223ZM19.338 42.883s-8.318-11.091-4.187-17.44c2.289-3.547 6.848-6.199 10.42-7.842a6.642 6.642 0 0 1 4.444-.384 6.66 6.66 0 0 1 3.689 2.513l3.61 4.929-17.976 18.224Z" fill="#000"/><path d="M5.862 84.32c0 38.95 39.897 70.524 89.098 70.524 49.202 0 89.099-31.574 89.099-70.523 0-38.95-39.525-78.664-88.726-78.664-49.202 0-89.471 39.715-89.471 78.664Z" fill="#fff" stroke="#672938" stroke-width="4" stroke-linecap="round" stroke-linejoin="round"/><path d="M113 123v9" stroke="#000"/><path d="M62.953 105.532c0-17.458 10.049-28.288 24.861-28.288 14.813 0 26.853 14.135 26.853 31.574s-10.998 28.344-25.81 28.344c-14.813 0-25.904-14.191-25.904-31.63Z" fill="#E5E3E8"/><path d="M95.426 138.002c14.819 0 26.833-14.136 26.833-31.574 0-17.438-12.014-31.573-26.833-31.573-14.82 0-26.834 14.135-26.834 31.573 0 17.438 12.014 31.574 26.834 31.574Z" fill="#fff"/><path d="M100.655 110.555h-10.83a5.696 5.696 0 0 1-3.253-1.03 5.728 5.728 0 0 1-2.088-2.705 5.748 5.748 0 0 1 .627-5.303 5.713 5.713 0 0 1 4.713-2.483h10.831a5.716 5.716 0 0 1 4.701 2.491 5.766 5.766 0 0 1 .639 5.295 5.74 5.74 0 0 1-2.09 2.702 5.724 5.724 0 0 1-3.25 1.033Z" fill="#000"/><path d="M131.024 94.721c-4.168 0-6.755-6.89-4.112-11.464a4.292 4.292 0 0 1 1.539-2.242 4.27 4.27 0 0 1 5.146 0 4.3 4.3 0 0 1 1.54 2.242c2.642 4.574 0 11.464-4.113 11.464ZM61.185 94.721c-4.168 0-6.754-6.89-4.112-11.464a4.295 4.295 0 0 1 1.54-2.242 4.27 4.27 0 0 1 5.146 0 4.295 4.295 0 0 1 1.54 2.242c2.623 4.574 0 11.464-4.114 11.464Z" fill="#fff"/><path d="M48.489 21a19.661 19.661 0 0 0-4.95 3.884 64.348 64.348 0 0 0-5.136 4.948c-10.532 11.203-15.668 25.262-16.748 40.61a122.96 122.96 0 0 0 2.736 36.055 63.957 63.957 0 0 0 21.065 33.366s-28.36-11.912-36.752-41.787C.31 68.202 25.656 39.111 25.656 39.111S39 23.763 48.49 21ZM18 43.472s-5.24-.959-8.404-13.189C6.433 18.053 21 6 21 6S5.3 12.09 4.5 26c.167 6.124 1.5 12.5 10.82 21.617L18 43.472Z" fill="#E5E3E8"/><path stroke="#000" stroke-width="5" d="m53.768 55.232 16 16M69.768 55.768l-16 16M123.768 55.232l16 16M139.768 55.768l-16 16"/><path d="M107.5 135.5c-3.2-2.4-3-10-2.5-13.5 5.167-1 15.874-1.006 16 0 1 8-.5 12-2.5 13.5-2.332 1.749-7 3-11 0Z" fill="#D03737" stroke="#000"/><ellipse cx="98.5" cy="121.5" rx="23.5" ry="1.5" fill="#000"/><path stroke="#000" d="M113 122v11"/></svg>