<svg width="446" height="345" fill="none" xmlns="http://www.w3.org/2000/svg"><path d="M0 258.106C0 144.582 92.028 52.554 205.552 52.554c113.523 0 205.552 92.028 205.552 205.552H0Z" fill="#CCFFDA"/><mask id="a" style="mask-type:alpha" maskUnits="userSpaceOnUse" x="63" y="0" width="237" height="258"><path fill="#C4C4C4" d="M63 0h237v258H63z"/></mask><g mask="url(#a)"><path d="M162.224 168.395c-4.41 6.028-10.144 9.409-16.024 9.409h-1.764c-5.881 0-11.614-3.381-16.025-9.409l-1.029-1.617v15.878l-4.41 1.764 1.764 2.499c4.704 6.763 12.349 10.732 20.582 10.732 8.232 0 15.877-3.969 20.581-10.732l1.765-2.499-4.411-1.764v-15.878l-1.029 1.617Z" fill="#BD6C67"/><path d="M144.582 177.804h1.764c5.881 0 11.614-3.381 16.025-9.409l1.176-1.617v-21.023h-36.165v21.023l1.176 1.617c4.263 6.028 9.997 9.409 16.024 9.409Z" fill="#3C3247"/><path d="M145.318 169.425c40.434 0 73.212-32.779 73.212-73.213C218.53 55.778 185.752 23 145.318 23c-40.434 0-73.213 32.778-73.213 73.212 0 40.434 32.779 73.213 73.213 73.213Z" fill="#302A37"/><path d="M104.21 136.494c6.757-2.781 9.98-10.514 7.199-17.271-2.781-6.757-10.514-9.98-17.27-7.199-6.758 2.781-9.981 10.514-7.2 17.271 2.781 6.757 10.514 9.98 17.271 7.199Z" fill="#A64F5A"/><path d="M106.506 124.292c0 4.116-3.381 7.497-7.498 7.497-4.116 0-7.497-3.381-7.497-7.497 0-4.117 3.381-7.498 7.497-7.498 4.264 0 7.498 3.381 7.498 7.498Z" fill="#8C404C"/><path d="M203.945 129.33c2.781-6.757-.442-14.489-7.199-17.27-6.757-2.781-14.49.442-17.271 7.199-2.781 6.757.442 14.489 7.199 17.27 6.757 2.782 14.49-.442 17.271-7.199Z" fill="#A64F5A"/><path d="M184.276 124.292c0 4.116 3.382 7.497 7.498 7.497s7.498-3.381 7.498-7.497c0-4.117-3.382-7.498-7.498-7.498-4.263 0-7.498 3.381-7.498 7.498Z" fill="#8C404C"/><path d="M101.066 118.705h4.117l2.646-23.669h-8.674l1.911 23.669Z" fill="url(#b)"/><path d="m182.806 95.036 2.793 23.669h4.116l1.911-23.669h-8.82Z" fill="url(#c)"/><path d="M145.318 72.543c-16.172 0-29.991 3.234-36.754 8.086-2.205 4.998-3.528 10.585-3.528 16.318v23.522c0 14.849 6.322 29.109 17.201 39.253l1.617 1.47c5.586 4.998 12.79 7.792 20.288 7.792h2.352c7.497 0 14.701-2.794 20.287-7.792l1.618-1.47c11.026-10.144 17.2-24.257 17.2-39.253V96.947c0-5.88-1.323-11.32-3.528-16.318-6.616-4.705-20.582-8.086-36.753-8.086Z" fill="#BD6C67"/><path d="M127.382 114.736a3.676 3.676 0 1 0 0-7.352 3.676 3.676 0 0 0 0 7.352ZM163.4 114.736a3.675 3.675 0 1 0 0-7.35 3.675 3.675 0 0 0 0 7.35Z" fill="#3C3247"/><path d="M154.727 129.878a45.106 45.106 0 0 0-18.818 0c2.205 2.94 5.881 5.146 9.556 5.293 3.822.147 7.645-2.059 9.262-5.293Z" fill="#A64F5A"/><path d="M126.5 96.212c-4.852-.294-9.409 1.617-12.644 4.999 8.233.882 16.466 1.47 24.699 1.47-2.794-3.675-7.057-6.175-12.055-6.469ZM164.135 96.212c4.852-.294 9.409 1.617 12.643 4.999-8.233.882-16.465 1.47-24.698 1.47 2.94-3.675 7.204-6.175 12.055-6.469Z" fill="#3C3247"/><path opacity=".3" d="M127.382 126.791c6.658 0 12.055-5.397 12.055-12.055 0-6.658-5.397-12.055-12.055-12.055-6.658 0-12.055 5.397-12.055 12.055 0 6.658 5.397 12.055 12.055 12.055ZM163.401 126.791c6.658 0 12.055-5.397 12.055-12.055 0-6.658-5.397-12.055-12.055-12.055-6.658 0-12.055 5.397-12.055 12.055 0 6.658 5.397 12.055 12.055 12.055Z" fill="#fff"/><path d="M163.401 99.594c-6.616 0-12.202 4.263-14.261 10.29a6.432 6.432 0 0 0-3.675-1.176c-1.47 0-2.646.441-3.675 1.176-2.058-6.027-7.645-10.29-14.261-10.29-8.379 0-14.995 6.762-14.995 14.995 0 8.38 6.763 14.995 14.995 14.995 8.38 0 15.143-6.762 15.143-14.995v-1.176c0-.882 1.176-1.764 2.94-1.764s2.94 1.029 2.94 1.764v1.176c0 8.38 6.763 14.995 14.996 14.995 8.379 0 14.995-6.762 14.995-14.995-.147-8.233-6.91-14.995-15.142-14.995Zm-48.074 15.142c0-6.616 5.44-12.055 12.055-12.055 6.616 0 12.203 5.439 12.203 12.055 0 6.615-5.44 12.055-12.203 12.055-6.615 0-12.055-5.44-12.055-12.055Zm35.872 0c0-6.616 5.439-12.055 12.055-12.055 6.615 0 12.055 5.439 12.055 12.055 0 6.615-5.44 12.055-12.055 12.055-6.616 0-12.055-5.44-12.055-12.055Z" fill="#454F6B"/><path d="m185.746 118.705-5.881 16.466c-.735 1.911-2.793 2.793-4.557 1.764l-4.117-2.205c-2.646-1.324-5.586-1.765-8.526-1.471l-17.348 1.912-17.053-1.912c-2.941-.294-5.881.294-8.38 1.618l-4.263 2.058c-1.764.882-3.97 0-4.558-1.764l-5.88-16.466h-4.117v10.291c0 9.556 2.647 18.965 7.498 27.197l1.176 2.059c6.028 9.996 16.76 16.171 28.521 16.171h14.407c11.761 0 22.493-6.175 28.52-16.171l1.176-2.059c4.852-8.232 7.498-17.641 7.498-27.197v-10.291h-4.116Zm-21.464 25.139-3.087 9.115c-.882 2.646-3.382 4.264-6.175 3.969h-1.176c-2.058-.147-3.822-1.029-5.292-2.499H142.377c-1.323 1.47-3.234 2.352-5.292 2.499l-1.324.148c-2.646.294-5.292-1.471-6.174-3.97l-3.087-9.115c-.588-1.764.882-3.381 2.646-3.234l6.321.735c3.235.441 6.469 0 9.556-1.029l.294-.147.441.147c3.088 1.029 6.322 1.47 9.556 1.029l6.322-.735c1.764-.294 3.234 1.323 2.646 3.087Z" fill="#3C3247"/><path d="M130.853 144.027h28.325a7.726 7.726 0 0 1-7.725 7.725h-12.875a7.725 7.725 0 0 1-7.725-7.725Z" fill="#fff"/><path d="m192.209 262.395 27.937-6.616-27.467-56.303a6.971 6.971 0 0 0-6.571-4.692H103.33a6.997 6.997 0 0 0-6.074 3.537h-.094L69 255.798l28.162 6.568-1.342 21.386a6.977 6.977 0 0 0 4.163 6.925 6.974 6.974 0 0 0 2.793.582h83.801a6.974 6.974 0 0 0 6.956-7.507l-1.324-21.357Z" fill="#FBE854" stroke="#672938" stroke-width="3" stroke-linecap="round" stroke-linejoin="round"/><path d="M144.493 197.28v93.285" stroke="#672938" stroke-width="3" stroke-linecap="round" stroke-linejoin="round"/><path d="m183.517 215.747-2.225-6.184M179.518 210.201l2.234 6.184M171.717 214.19l1.614-6.372M171.52 207.358l-1.624 6.362M166.422 214.039l-6.055-2.561M151.478 213.692l1.793-6.325M151.459 206.861l-1.783 6.315M145.769 213.326l-1.896-6.287M142.071 207.574l1.897 6.297M185.413 208.043l4.159 5.086M191.027 211.937l-4.159-5.086M185.413 208.043l4.159 5.086M191.027 211.937l-4.159-5.086M179.518 210.201l2.234 6.184M183.517 215.747l-2.225-6.184M171.52 207.358l-1.624 6.362M171.717 214.19l1.614-6.372M151.459 206.861l-1.783 6.315M151.478 213.692l1.793-6.325M142.071 207.574l1.897 6.297M145.769 213.326l-1.896-6.287" stroke="#42A54B" stroke-width=".3"/><path d="m156.894 186.235-3.915 6.831M154.932 194.193l3.924-6.841" stroke="#42A54B" stroke-width=".36"/><path d="m165.746 198.734 1.887 6.297M169.435 204.487l-1.896-6.297M183.488 199.748l-6.506.91M177.246 202.516l6.506-.91" stroke="#42A54B" stroke-width=".3"/><path d="m170.158 184.18-4.215 6.653" stroke="#42A54B" stroke-width=".36"/><path d="m159.344 196.773-3.99 5.208M156.838 203.126l3.999-5.217M152.031 200.911l-4.552-4.739M146.127 197.468l4.543 4.738M134.674 195.825l6.364 1.624M141.499 195.628l-6.364-1.614M135.641 205.19l6.242-2.064M141.292 201.352l-6.242 2.055M209.041 248.253l-2.403 6.118M137.266 235.266l6.12-2.393M141.452 248.253l-2.403 6.118M140.795 255.056l2.403-6.118M202.226 243.345l6.402 1.445M209.05 242.961l-6.411-1.455M183.517 215.747l-2.225-6.184M179.518 210.201l2.234 6.184M171.717 214.19l1.614-6.372M171.52 207.358l-1.624 6.362M166.422 214.039l-6.055-2.561M159.635 213.204l6.045 2.562M151.478 213.692l1.793-6.325M151.459 206.861l-1.783 6.315M145.769 213.326l-1.896-6.287M142.071 207.574l1.897 6.297M154.829 254.812l-3.267 5.697M153.195 261.437l3.267-5.696M183.047 224.606l-4.158-5.086M177.434 220.711l4.158 5.086M171.539 222.87l2.234 6.184M175.537 228.416l-2.225-6.184M196.64 251.143l-1.784 6.316M196.659 257.975l1.784-6.325M186.868 246.123l1.887 6.297M190.557 251.875l-1.896-6.296M168.516 241.15l3.266-5.697M170.149 234.515l-3.257 5.706M154.904 234.787l4.159 5.086M160.518 238.682l-4.159-5.087M147.601 236.476l2.234 6.184M151.6 242.022l-2.225-6.184M196.395 234.571l-1.624 6.363M196.594 241.403l1.614-6.372M181.536 237.978l6.055 2.562M188.322 238.813l-6.054-2.562M183.62 255.845l-1.465 6.4M183.986 262.667l1.465-6.4M165.888 253.095l-3.511 5.546M163.963 259.645l3.511-5.546M167.454 245.025l-6.026 2.628M162.188 249.37l6.018-2.618M154.764 250.289l1.793-6.324M154.745 243.458l-1.784 6.315M178.748 247.108l-1.896-6.287M175.049 241.356l1.896 6.297M165.869 225.375l-5.248 3.951M161.757 230.827l5.247-3.96M157.176 225.544l-1.83-6.306M153.543 219.754l1.831 6.316M147.281 219.426l-.385 6.559M148.773 226.098l.376-6.56M189.619 233.577l4.131-5.105M192.295 227.29l-4.131 5.104M192.463 224.033l.732-6.522M191.336 217.296l-.741 6.531M170.9 256.839l6.046 2.562M177.688 257.675l-6.055-2.562M185.413 208.043l4.159 5.086M191.027 211.937l-4.159-5.086M134.899 215.897l5.792 3.116M141.574 217.352l-5.783-3.106M137.266 235.266l6.12-2.393M142.701 231.127l-6.121 2.393M134.637 243.345l6.402 1.445M141.461 242.961l-6.411-1.455M185.413 208.043l4.159 5.086M191.027 211.937l-4.159-5.086M179.518 210.201l2.234 6.184M183.517 215.747l-2.225-6.184M171.52 207.358l-1.624 6.362M171.717 214.19l1.614-6.372M151.459 206.861l-1.783 6.315M151.478 213.692l1.793-6.325M142.071 207.574l1.897 6.297M145.769 213.326l-1.896-6.287M129.727 214.987l3.266-5.696M131.361 208.362l-3.267 5.696M115.928 215.747l-2.225-6.184M111.929 210.201l2.234 6.184M104.127 214.19l1.615-6.372M103.931 207.358l-1.624 6.362M98.833 214.039l-6.055-2.561M117.824 208.043l4.159 5.086M123.438 211.937l-4.159-5.086M134.674 195.825l6.364 1.624M141.499 195.628l-6.364-1.614M135.641 205.19l6.242-2.064M141.292 201.352l-6.242 2.055M131.361 208.362l-3.267 5.696M129.727 214.987l3.266-5.696M117.824 208.043l4.159 5.086M123.438 211.937l-4.159-5.086M111.929 210.201l2.234 6.184M115.928 215.747l-2.225-6.184M103.931 207.358l-1.624 6.362M104.127 214.19l1.615-6.372M128.873 200.433l-6.055-2.562M122.086 199.598l6.045 2.561" stroke="#42A54B" stroke-width=".3"/><path d="m125.982 181.843-2.14 7.573M126 190.026l2.15-7.573" stroke="#42A54B" stroke-width=".36"/><path d="m98.157 198.734 1.887 6.297M101.846 204.487l-1.896-6.297M115.9 199.748l-6.505.91M109.656 202.516l6.506-.91M137.266 235.266l6.12-2.393M141.452 248.253l-2.403 6.118M73.862 248.253l-2.403 6.118M73.205 255.056l2.403-6.118M134.899 215.897l5.792 3.116M141.574 217.352l-5.783-3.106M134.946 229.438l4.976-4.297M138.692 223.724l-4.975 4.288M137.266 235.266l6.12-2.393M142.701 231.127l-6.121 2.393M134.637 243.345l6.402 1.445M141.461 242.961l-6.411-1.455M129.727 214.987l3.266-5.696M131.361 208.362l-3.267 5.696M115.928 215.747l-2.225-6.184M111.929 210.201l2.234 6.184M104.127 214.19l1.615-6.372M103.931 207.358l-1.624 6.362M98.833 214.039l-6.055-2.561M92.046 213.204l6.045 2.562M87.24 254.812l-3.267 5.697M85.606 261.437l3.267-5.696M115.457 224.606l-4.158-5.086M109.845 220.711l4.158 5.086M103.949 222.87l2.234 6.184M107.948 228.416l-2.224-6.184M129.051 251.143l-1.783 6.316M129.07 257.975l1.784-6.325M119.279 246.123l1.887 6.297M122.969 251.875l-1.897-6.296M100.926 241.15l3.267-5.697M102.56 234.515l-3.257 5.706M87.314 234.787l4.16 5.086M92.928 238.682l-4.159-5.087M80.012 236.476l2.234 6.184M84.01 242.022l-2.225-6.184M128.808 234.571l-1.624 6.363M129.004 241.403l1.615-6.372M113.947 237.978l6.055 2.562M120.735 238.813l-6.055-2.562M116.031 255.845l-1.465 6.4M116.396 262.667l1.465-6.4M98.298 253.095l-3.51 5.546M96.373 259.645l3.51-5.546M99.866 245.025l-6.027 2.628M94.6 249.37l6.017-2.618M87.174 250.289l1.793-6.324M87.155 243.458l-1.784 6.315M111.159 247.108l-1.896-6.287M107.46 241.356l1.896 6.297M98.279 225.375l-5.248 3.951M94.168 230.827l5.247-3.96M89.586 225.544l-1.83-6.306M85.953 219.754l1.83 6.316M122.029 233.577l4.131-5.105M124.705 227.29l-4.131 5.104M124.873 224.033l.732-6.522M123.747 217.296l-.741 6.531M103.311 256.839l6.045 2.562M110.098 257.675l-6.055-2.562M117.824 208.043l4.159 5.086M123.438 211.937l-4.159-5.086M131.361 208.362l-3.267 5.696M129.727 214.987l3.266-5.696M117.824 208.043l4.159 5.086M123.438 211.937l-4.159-5.086M111.929 210.201l2.234 6.184M115.928 215.747l-2.225-6.184M103.931 207.358l-1.624 6.362M104.127 214.19l1.615-6.372" stroke="#42A54B" stroke-width=".3"/><path d="m97.284 263.549 5.971-48.825M192.04 263.868l-6.233-48.074" stroke="#672938" stroke-width="3" stroke-linecap="round" stroke-linejoin="round"/><path d="m217.921 254.681-4.956 1.361-21.666-55.825 26.622 54.464Z" fill="#FFF1A1" style="mix-blend-mode:screen"/><path d="m184.605 216.864 3.361 51.339 2.751-4.973-6.112-46.366Z" fill="#FFF1A1"/><path d="M120.451 195.544s18.559 31.53 24.238 37.32c0 0 14.354-17.933 23.337-36.598" stroke="#E5B656" stroke-width="1.48" stroke-miterlimit="10"/><path d="M144.633 241.956a6.138 6.138 0 1 0 0-12.274 6.138 6.138 0 1 0 0 12.274Z" fill="#E5B656"/><path d="M144.634 240.633a4.815 4.815 0 1 0 0-9.628 4.815 4.815 0 1 0 0 9.628Z" stroke="#CE9C52" stroke-width=".75" stroke-miterlimit="10"/><path d="m144.502 196.097-13.78 14.545-17.667-13.794L122.902 179l21.6 17.097Z" fill="#FBE854" stroke="#672938" stroke-width="3" stroke-linecap="round" stroke-linejoin="round"/><path d="m144.381 196.097 13.771 14.545 17.677-13.794L165.981 179l-21.6 17.097Z" fill="#FBE854" stroke="#672938" stroke-width="3" stroke-linecap="round" stroke-linejoin="round"/><path d="m165.445 181.468 8.261 14.939-3.379 2.365-7.181-15.362 2.299-1.942Z" fill="#FFF1A1"/><path d="m123.259 181.327 3.098 2.506-8.336 14.939-2.873-2.506 8.111-14.939ZM77.111 256.042l21.676-57.505-27.543 56.182 5.867 1.323Z" fill="#E2C727" style="mix-blend-mode:multiply"/><path d="m204.978 193.071 16.856 104.441a10.024 10.024 0 0 1-2.2 8.039 10.02 10.02 0 0 1-7.521 3.593l-12.438.228-2.902-45.134 8.205-71.167Z" fill="#6576B2" stroke="#313344" stroke-width="3.11" stroke-linecap="round" stroke-linejoin="round"/><path d="m205.241 203.107 15.243 94.922a8.364 8.364 0 0 1-1.998 6.881l-13.771-97.516.526-4.287Z" fill="#6576B2" style="mix-blend-mode:multiply" opacity=".58"/><path d="M105.639 116.109s-4.366 1.517-5.032 8.529c-.666 7.013 5.593 9.809 5.593 9.809l-.561-18.338Z" fill="#DBB08D"/><path d="M100.572 125.129s-.675-8.327 5.829-9.335" stroke="#313344" stroke-width="1.75" stroke-miterlimit="10"/><path d="M182.758 100.437v.613s.009-.219 0-.613Z" fill="#53152D"/><path d="M140.578 259.18c.702 0 1.271-.608 1.271-1.358 0-.751-.569-1.359-1.271-1.359s-1.271.608-1.271 1.359c0 .75.569 1.358 1.271 1.358Z" fill="#fff" stroke="#313344" stroke-width=".97" stroke-miterlimit="10"/><path d="m198.265 308.741-2.385 1.227-2.393-45.66 5.374-31.1-3.577 30.802 2.981 44.731Z" fill="#6576B2" style="mix-blend-mode:multiply" opacity=".58"/></g><path d="M444.115 257.05H3.551" stroke="#313344" stroke-width="3" stroke-miterlimit="10"/><path d="M30.324 266.167h-.672a5.365 5.365 0 0 1-5.374-5.374v-7.389c0-2.975 2.4-5.374 5.374-5.374h.672a5.365 5.365 0 0 1 5.374 5.374v7.389c0 2.975-2.4 5.374-5.374 5.374Z" fill="#BD6C67" stroke="#313344" stroke-width="3" stroke-miterlimit="10"/><path d="M103.255 141.607s-5.086 26.774 13.435 56.81 27.158 33.011 31.188 47.885c4.03 14.875 2.399 21.688 2.399 21.688" stroke="#000" stroke-miterlimit="10"/><path d="M190.774 126.253s4.702 17.657-9.692 42.512c-14.491 24.854-32.148 70.244-32.436 80.32" stroke="#000" stroke-width="1.114" stroke-miterlimit="10"/><path d="M102.584 115.218h5.566s4.031 16.217-1.439 27.541h-5.566c-.672.192 4.894-8.157 1.439-27.541Z" fill="#5E5E5E" stroke="#313344" stroke-miterlimit="10"/><path d="M190.773 128.556a3.55 3.55 0 1 0 .001-7.1 3.55 3.55 0 0 0-.001 7.1Z" fill="#313344"/><path d="M105.079 128.94c0 7.581-2.495 13.723-3.838 13.723-1.344 0-.96-7.581-.96-15.162s.96-12.283 2.303-12.283c1.44 0 2.495 6.141 2.495 13.722Z" fill="#8DFFE4" stroke="#313344" stroke-miterlimit="10"/><path d="M102.775 115.889c-.191.192-.287.48-.287.768-.096.288-.096.576-.096.768-.096.575-.096 1.055-.192 1.631-.096 1.056-.096 2.207-.192 3.263l-.096 6.525-.192 6.622-.096 3.262c-.096 1.056-.096 2.208-.192 3.263-.192-2.207-.384-4.414-.384-6.621-.096-2.207-.096-4.415-.096-6.622.096-2.207.096-4.414.384-6.621.096-1.056.288-2.207.384-3.263.096-.576.192-1.055.384-1.631.096-.288.192-.576.288-.768 0-.096.096-.384.383-.576Z" fill="#fff"/><path d="M103.256 128.94c0 3.551-1.152 6.334-1.728 6.334-.672 0-2.495-3.743-2.495-7.293 0-3.551 2.495-5.374 3.071-5.374.576 0 1.152 2.879 1.152 6.333Z" fill="#8DFFE4" stroke="#313344" stroke-miterlimit="10"/><path d="m195.188 240.737-2.111 2.207c-2.591 2.687-6.814 2.975-9.789.575l-5.469-4.414c-1.92-1.535-4.799-1.055-6.046 1.056l-2.303 3.838c-1.152 2.015-.48 4.511 1.535 5.662l11.132 6.238h15.834l-2.783-15.162Z" fill="#BD6C67" stroke="#313344" stroke-width="3" stroke-miterlimit="10"/><path d="M105.367 141.031c2.591 4.895 7.677 7.965 13.147 8.061l14.298.288" stroke="#313344" stroke-miterlimit="10"/><path d="M132.908 151.971a2.495 2.495 0 1 0 0-4.99 2.495 2.495 0 0 0 0 4.99Z" fill="#313344"/><path d="M201.233 247.742h-1.727a4.3 4.3 0 0 1-4.318-4.318v-5.47c0-1.344 1.151-2.495 2.495-2.495h5.373c1.344 0 2.495 1.151 2.495 2.495v5.47c0 2.303-1.919 4.318-4.318 4.318Z" fill="#BD6C67" stroke="#313344" stroke-width="3" stroke-miterlimit="10"/><path d="M211.693 247.742h-1.727a4.3 4.3 0 0 1-4.319-4.318v-5.47c0-1.344 1.152-2.495 2.495-2.495h5.374c1.344 0 2.495 1.151 2.495 2.495v5.47c0 2.303-2.015 4.318-4.318 4.318ZM222.537 247.742h-1.727a4.3 4.3 0 0 1-4.319-4.318v-5.47c0-1.344 1.152-2.495 2.495-2.495h5.374c1.344 0 2.495 1.151 2.495 2.495v5.47c-.096 2.303-2.015 4.318-4.318 4.318Z" fill="#FCDEC0" stroke="#313344" stroke-width="3" stroke-miterlimit="10"/><path d="m233.477 247.838-1.823.288c-2.495.383-4.798-1.344-5.182-3.743l-.864-5.662c-.192-1.439.768-2.783 2.208-2.975l5.565-.863c1.44-.192 2.783.767 2.975 2.207l.864 5.662c.48 2.399-1.248 4.702-3.743 5.086Z" fill="#FCDEC0" stroke="#313344" stroke-width="3" stroke-miterlimit="10"/><path d="M260.155 256.858H135.403v14.683h124.752v-14.683ZM148.358 249.181h-12.955v7.581h12.955v-7.581ZM180.506 249.181h-32.148v7.581h32.148v-7.581ZM192.501 249.277h-11.995v7.581h11.995v-7.581Z" fill="#DDD" stroke="#313344" stroke-width="2" stroke-miterlimit="10" stroke-linecap="round" stroke-linejoin="round"/><path d="M204.401 249.277h-11.996v7.581h11.996v-7.581Z" fill="#E54554" stroke="#313344" stroke-width="2" stroke-miterlimit="10" stroke-linecap="round" stroke-linejoin="round"/><path d="M216.396 249.277H204.4v7.581h11.996v-7.581Z" fill="#E54554" stroke="#313344" stroke-width="2" stroke-miterlimit="10" stroke-linecap="round" stroke-linejoin="round"/><path d="M228.391 249.277h-11.995v7.581h11.995v-7.581Z" fill="#E54554" stroke="#313344" stroke-width="2" stroke-miterlimit="10" stroke-linecap="round" stroke-linejoin="round"/><path d="M240.386 249.277h-11.995v7.581h11.995v-7.581ZM260.155 249.277h-8.541v7.581h8.541v-7.581Z" fill="#DDD" stroke="#313344" stroke-width="2" stroke-miterlimit="10" stroke-linecap="round" stroke-linejoin="round"/><path d="M71.012 274.036H32.148v-4.319c0-10.748 8.732-19.48 19.48-19.48 10.748 0 19.48 8.732 19.48 19.48v4.319h-.096Z" fill="#fff" stroke="#313344" stroke-width="2" stroke-miterlimit="10"/><path d="m223.401 251.868-24.375.096 1.056-2.687c2.303-6.141 3.167-12.667 2.399-19.192l-.384-3.071h23.031l-1.727 24.854Z" fill="#FFB450" stroke="#313344" stroke-miterlimit="10"/><path d="m241.442 251.868-16.314.096 1.727-2.687c2.303-6.141.768-11.035 0-17.561l-2.495-4.702h28.693l-1.055 15.066c-.48 5.47-5.086 9.788-10.556 9.788Z" fill="#EE9CFF" stroke="#313344" stroke-miterlimit="10"/><path d="m271.766 251.868-16.314.096 1.728-2.687c2.303-6.141.767-11.035 0-17.561l-2.495-4.702h28.692l-1.055 15.066c-.384 5.47-4.99 9.788-10.556 9.788Z" fill="#FFDB43" stroke="#313344" stroke-miterlimit="10"/><path d="m281.074 251.868-16.313.096 1.727-2.687c2.303-6.141.768-11.035 0-17.561l-2.495-4.702h28.597l-1.056 15.066c-.383 5.47-4.99 9.788-10.46 9.788ZM313.221 253.02l-16.313.096 2.495-2.495c2.111-3.263-.192-5.854-.48-9.693-.192-2.878-.768-5.757-1.152-9.116l-2.495-4.702h28.693l-1.055 15.066c-.384 5.374 1.055 10.652-9.693 10.844Z" fill="#FFDB43" stroke="#313344" stroke-miterlimit="10"/><path d="m339.036 253.02-16.314.096 2.495-2.495c2.111-3.263-.192-5.854-.48-9.693-.192-2.878-.767-5.757-1.151-9.116l-2.495-4.702h28.693l-1.056 15.066c-.384 5.374.96 10.652-9.692 10.844Z" fill="#FFB450" stroke="#313344" stroke-miterlimit="10"/><path d="M404.098 243.519H212.461c-4.51 0-8.253-3.646-8.253-8.252v-99.513c0-4.511 3.647-8.253 8.253-8.253h191.637c4.51 0 8.253 3.646 8.253 8.253v99.513c-.096 4.606-3.743 8.252-8.253 8.252Z" fill="#CCC" stroke="#313344" stroke-width="3" stroke-miterlimit="10"/><path d="M105.943 273.748H20.824v16.697h85.119v-16.697Z" fill="#FFEFE1" stroke="#313344" stroke-width="2" stroke-miterlimit="10"/><path d="M20.824 275.091h83.008M20.824 277.682l83.008-1.343M20.824 282.096l83.008-3.358M20.824 284.975l83.008-.959M20.824 287.566h83.008M105.942 273.748s4.511 8.54 0 16.697" stroke="#313344" stroke-width="2" stroke-miterlimit="10"/><path d="M223.4 226.054s.384.672 1.44 1.632c3.071 3.07 7.293 4.702 11.611 4.702h151.525s2.975-.192 5.758-2.591c2.495-2.111 3.742-5.278 3.742-8.541v-65.638c0-4.031-1.631-7.869-4.51-10.748l-.096-.096v77.25l-4.03 6.909-165.44-2.879Z" fill="#AAA"/><path d="M345.657 155.33s7.581.768 8.732 8.54v51.532s1.344 8.349-6.621 8.733h-77.442s-3.167-1.248-4.318-4.702h83.295v-57.866l-3.646-6.237Z" fill="#8C8C8C"/><path d="M344.41 220.68h-72.356c-3.647 0-6.526-2.879-6.526-6.525v-50.668c0-3.647 2.879-6.526 6.526-6.526h72.356c3.646 0 6.525 2.879 6.525 6.526v50.668c0 3.55-2.879 6.525-6.525 6.525Z" fill="#CCC" stroke="#313344" stroke-width="3" stroke-miterlimit="10"/><path d="M312.934 210.22h-9.405v64.007h9.405V210.22Z" fill="#CCC" stroke="#313344" stroke-width="3" stroke-miterlimit="10"/><path d="M279.059 274.228h58.346a10.73 10.73 0 0 1 10.747 10.747h-79.84a10.73 10.73 0 0 1 10.747-10.747Z" fill="#CCC" stroke="#313344" stroke-width="3" stroke-miterlimit="10"/><path d="m436.246 256.091-36.274 7.005v20.44c0 .288.288.48.575.48l38.961-10.364s5.95-2.015 4.319-10.556c-1.344-6.909-7.581-7.005-7.581-7.005Z" fill="#fff" stroke="#313344" stroke-width="2" stroke-miterlimit="10"/><path d="M51.628 250.237v15.834H70.82" fill="#fff"/><path d="M51.628 250.237v15.834H70.82M51.628 266.071h-19.48" stroke="#313344" stroke-width="2" stroke-miterlimit="10" stroke-linecap="round" stroke-linejoin="round"/><path d="M264.473 233.156h-9.788v4.414h9.788v-4.414ZM312.55 210.22h-8.541a4.505 4.505 0 0 1-4.51-4.51v-11.803a4.505 4.505 0 0 1 4.51-4.51h8.541a4.505 4.505 0 0 1 4.51 4.51v11.803c0 2.399-2.015 4.51-4.51 4.51Z" fill="#313344"/><path d="M365.137 278.162h9.98c5.182 0 9.981-2.495 12.859-6.717l9.021-12.955h-53.739l8.828 12.859c3.071 4.222 7.869 6.813 13.051 6.813Z" fill="#E54554" stroke="#313344" stroke-width="2" stroke-miterlimit="10"/><path d="M370.223 263.192c14.84 0 26.87-2.105 26.87-4.702s-12.03-4.703-26.87-4.703c-14.84 0-26.869 2.106-26.869 4.703 0 2.597 12.029 4.702 26.869 4.702Z" fill="#C43748" stroke="#313344" stroke-width="2" stroke-miterlimit="10"/><path d="m373.199 262.136 26.869-19.48 1.631 1.727-27.637 18.713h-1.343l.48-.96Z" fill="#313344"/><path d="M399.972 284.208c4.611 0 8.349-4.726 8.349-10.556 0-5.83-3.738-10.556-8.349-10.556-4.611 0-8.349 4.726-8.349 10.556 0 5.83 3.738 10.556 8.349 10.556Z" fill="#fff" stroke="#313344" stroke-width="2" stroke-miterlimit="10"/><path d="M399.972 281.617c3.498 0 6.334-3.566 6.334-7.965s-2.836-7.965-6.334-7.965c-3.498 0-6.333 3.566-6.333 7.965s2.835 7.965 6.333 7.965Z" fill="#fff" stroke="#313344" stroke-miterlimit="10"/><path d="M38.193 263.48h-.672a5.365 5.365 0 0 1-5.373-5.374v-7.389a5.365 5.365 0 0 1 5.373-5.374h.672a5.365 5.365 0 0 1 5.374 5.374v7.389c0 2.975-2.4 5.374-5.374 5.374Z" fill="#BD6C67" stroke="#313344" stroke-width="3" stroke-miterlimit="10"/><path d="M49.325 259.737h-.672a5.365 5.365 0 0 1-5.374-5.374v-7.389c0-2.975 2.4-5.374 5.374-5.374h.672a5.365 5.365 0 0 1 5.374 5.374v7.389a5.365 5.365 0 0 1-5.374 5.374Z" fill="#BD6C67" stroke="#313344" stroke-width="3" stroke-miterlimit="10"/><path d="M60.744 259.737h-.672a5.365 5.365 0 0 1-5.374-5.374v-7.389c0-2.975 2.4-5.374 5.374-5.374h.672a5.365 5.365 0 0 1 5.374 5.374v7.389c0 2.975-2.4 5.374-5.374 5.374Z" fill="#BD6C67" stroke="#313344" stroke-width="3" stroke-miterlimit="10"/><path d="M232.997 227.11s-4.99-.96-6.141-6.43v-69.86c0-.384.096-.768.288-1.152.671-1.535 3.166-5.662 9.404-5.95h-5.758s-4.894.384-6.717 6.046c-.096.384-.192.672-.192 1.056v69.764c.096.096.768 7.198 9.116 6.526Z" fill="#CCC"/><path d="m216.395 175.29 20.249 2.591-4.415 19.577-8.444-3.071-3.839 7.101-10.748-.48 7.197-25.718Z" fill="#FFB450" stroke="#313344" stroke-miterlimit="10" stroke-linecap="round" stroke-linejoin="round"/><path d="M232.23 197.457s-4.223 4.031-12.284 4.031l2.207-9.405 10.077 5.374Z" fill="#E8922D" stroke="#313344" stroke-miterlimit="10" stroke-linecap="round" stroke-linejoin="round"/><path d="m408.321 273.652 32.243-15.162s.384-1.344-4.318-2.399l-15.354 2.974s14.49 7.485 6.237 17.849l-23.318 6.238s3.646-2.111 4.51-9.5Z" fill="#2E49E5" stroke="#313344" stroke-width="2" stroke-miterlimit="10" stroke-linecap="round" stroke-linejoin="round"/><path d="M397.573 271.349s.384 2.015-.384 2.591c-.767.575-1.439 2.879.192 3.934 1.728 1.152 2.399 1.152 4.319.576 1.919-.576 1.343-4.031 0-4.702-1.344-.672.383-2.687.383-2.687l-4.51.288Z" fill="#313344"/><path d="M401.315 272.02h-3.454l-.48-1.919c0-.384.384-.768.768-.768h2.878c.384 0 .768.384.768.768l-.48 1.919Z" fill="#fff" stroke="#313344" stroke-width="1.689" stroke-miterlimit="10"/><path d="M292.206 233.251h-9.884v4.031h9.884v-4.031ZM200.369 263h-5.181v4.51h5.181V263Z" fill="#313344"/><path d="M390.663 129.036s16.506-1.631 17.849 6.814v99.321s.672 5.662-7.485 6.909c0 0 8.541 1.248 9.788-5.662V135.37s.864-6.622-9.596-6.526l-10.556.192Z" fill="#AAA"/><path d="m394.022 128.94-36.753.192-36.754.096-73.507.192H212.653a7.63 7.63 0 0 0-2.111.576c-2.687 1.151-4.606 3.934-4.51 6.909V164.446l-.096 36.754-.192 36.754-.192-36.754-.096-36.754V136.905a8.28 8.28 0 0 1 1.344-4.51c.863-1.344 2.207-2.399 3.646-3.071.768-.288 1.536-.48 2.303-.576.864-.096 1.536 0 2.303-.096H247.2l73.507.192 36.754.096h36.561Z" fill="#fff"/><path d="M344.985 158.593h-73.219s-4.798-.288-4.894 6.621c-.096 6.909 0 49.901 0 49.901s.671 2.015 2.111 3.07v-53.067s-.576-3.934 3.455-4.51l72.547-2.015Z" fill="#fff"/><path d="M259.099 267.03H136.555v3.551h122.544v-3.551Z" fill="#AAA"/><path d="M269.847 283.536c.384-1.919 1.343-3.647 2.687-5.086 1.343-1.44 3.166-2.399 5.182-2.879h.096a719.904 719.904 0 0 1 28.788-.576c9.597 0 19.193.096 28.789.48-9.596.672-19.192.96-28.789 1.056-9.596.191-19.192.191-28.788 0h.096a9.938 9.938 0 0 0-4.991 2.303 9.63 9.63 0 0 0-1.823 2.111 10.64 10.64 0 0 0-1.247 2.591Z" fill="#fff"/><path d="M51.628 270.101s-7.485 47.31 16.313 61.992c23.8 14.682 80.705-17.945 109.398-3.935 28.788 14.011 97.306 35.315 120.529-27.445 23.223-62.759-37.714-65.254-37.714-65.254" stroke="#313344" stroke-width="2" stroke-miterlimit="10"/><path d="M197.779 264.151s-2.399 29.845 12.571 30.9c14.97 1.056 66.694-8.828 76.482 0 9.788 8.829 41.36-46.541 2.495-59.688" stroke="#313344" stroke-width="2" stroke-miterlimit="10"/><defs><linearGradient id="b" x1="103.492" y1="95.036" x2="103.492" y2="118.705" gradientUnits="userSpaceOnUse"><stop stop-color="#302A37"/><stop offset="1" stop-color="#3C3247"/></linearGradient><linearGradient id="c" x1="187.216" y1="95.036" x2="187.216" y2="118.705" gradientUnits="userSpaceOnUse"><stop stop-color="#302A37"/><stop offset="1" stop-color="#3C3247"/></linearGradient></defs></svg>