<svg width="387" height="393" fill="none" xmlns="http://www.w3.org/2000/svg"><path d="M58.808 275.59 33.94 293.166a2.178 2.178 0 0 1-3.032-.515L6.602 258.347a2.175 2.175 0 0 1 .515-3.039l24.866-17.598a2.172 2.172 0 0 1 3.032.515l24.315 34.34a2.175 2.175 0 0 1-.522 3.025Zm-50.85-19.1a.725.725 0 0 0-.174 1.008l24.308 34.34a.716.716 0 0 0 .471.299.736.736 0 0 0 .544-.125l24.867-17.605a.726.726 0 0 0 .167-1.008l-24.308-34.34a.724.724 0 0 0-1.009-.174L7.958 256.49Z" fill="#EEEEF1"/><path d="m44.706 260.69-20.13 14.254a.731.731 0 0 1-.544.125.728.728 0 0 1-.471-.299l-11.73-16.582a.728.728 0 0 1 .167-1.009l20.13-14.246a.728.728 0 0 1 .542-.128.727.727 0 0 1 .473.294l11.737 16.583a.725.725 0 0 1-.174 1.008ZM24.33 273.341l18.947-13.413-10.903-15.363-18.94 13.376 10.896 15.4ZM37.691 283.431l-2.364 1.676a.729.729 0 0 1-1.016-.174l-1.255-1.778-1.777 1.255a.726.726 0 0 1-1.008-.166l-1.676-2.373a.724.724 0 0 1 .174-1.008l1.77-1.262-1.255-1.77a.726.726 0 0 1 .174-1.015l2.365-1.676a.731.731 0 0 1 .544-.125.726.726 0 0 1 .472.299l1.254 1.777 1.778-1.262a.724.724 0 0 1 1.008.174l1.683 2.372a.725.725 0 0 1-.174 1.008l-1.777 1.255 1.284 1.778a.718.718 0 0 1 .111.55.722.722 0 0 1-.315.465Zm-2.611.073 1.182-.842-1.27-1.777a.725.725 0 0 1 .175-1.008l1.792-1.219-.842-1.19-1.777 1.263a.729.729 0 0 1-1.008-.175l-1.24-1.813-1.183.841 1.24 1.799a.728.728 0 0 1-.174 1.009l-1.777 1.255.834 1.182 1.785-1.269a.714.714 0 0 1 .544-.125.726.726 0 0 1 .471.299l1.248 1.77ZM48.776 270.236a2.896 2.896 0 0 1-3.224.091 2.898 2.898 0 0 1-1.317-2.944 2.904 2.904 0 0 1 3.9-2.222 2.905 2.905 0 0 1 1.82 3.198 2.9 2.9 0 0 1-1.18 1.877Zm-2.517-3.554a1.452 1.452 0 1 0 2.023.348 1.449 1.449 0 0 0-2.002-.348h-.021ZM46.6 277.142a2.898 2.898 0 0 1-3.221.056 2.904 2.904 0 0 1-1.288-2.953 2.901 2.901 0 1 1 4.509 2.897Zm-2.54-3.562a1.452 1.452 0 0 0 1.428 2.51 1.445 1.445 0 0 0 .861-1.362 1.453 1.453 0 0 0-1.204-1.393 1.45 1.45 0 0 0-1.084.245Z" fill="#EEEEF1"/><path d="M36.32 248.852a6.53 6.53 0 0 1-9.096-1.56.723.723 0 0 1 .143-1.052.714.714 0 0 1 .567-.117.712.712 0 0 1 .473.335 5.08 5.08 0 0 0 5.27 2.013 5.07 5.07 0 0 0 1.81-.809.726.726 0 0 1 .834 1.19Z" fill="#EEEEF1"/><path d="M31.41 253.211a.726.726 0 0 1-.537.124.727.727 0 0 1-.595-.835l.522-3.032a.737.737 0 0 1 .845-.605.734.734 0 0 1 .606.845l-.522 3.039a.682.682 0 0 1-.32.464ZM27.544 251.514a.73.73 0 0 1-1.155-.58.725.725 0 0 1 .183-.486l1.951-2.256a.72.72 0 0 1 .503-.297.729.729 0 0 1 .81.698.726.726 0 0 1-.218.542l-1.944 2.27a1.04 1.04 0 0 1-.13.109ZM35.632 252.892a.726.726 0 0 1-1.095-.326l-1.081-2.786a.72.72 0 0 1 .168-.789.73.73 0 0 1 .518-.204.72.72 0 0 1 .51.224c.066.069.118.15.153.24l1.08 2.785a.726.726 0 0 1-.253.856ZM42.189 257.136l-20.13 14.268a.73.73 0 0 1-1.022-.174.733.733 0 0 1 .174-1.023l20.144-14.254a.724.724 0 0 1 .836-.058.72.72 0 0 1 .333.769.735.735 0 0 1-.335.472Z" fill="#EEEEF1"/><path d="M27.979 267.197a.724.724 0 0 1-1.009-.174l-2.517-3.547a.73.73 0 0 1 1.19-.842l2.51 3.555a.725.725 0 0 1-.174 1.008Z" fill="#EEEEF1"/><path d="M25.469 263.642a3.622 3.622 0 0 1-5.078-.863l-.841-1.182a3.636 3.636 0 0 1 5.94-4.193l.842 1.183a3.624 3.624 0 0 1-.863 5.055Zm-4.193-5.919a2.178 2.178 0 0 0-.522 3.032l.841 1.219a2.177 2.177 0 0 0 3.555-2.517l-.842-1.182a2.166 2.166 0 0 0-1.401-.905 2.174 2.174 0 0 0-1.63.353ZM38.62 259.653a.729.729 0 0 1-1.008-.174l-1.255-1.777a1.44 1.44 0 0 0-.942-.59 1.457 1.457 0 0 0-1.082.249l-1.182.834a1.443 1.443 0 0 0-.594.94 1.448 1.448 0 0 0 .245 1.084l1.27 1.755a.723.723 0 0 1-.143 1.052.714.714 0 0 1-.568.118.73.73 0 0 1-.472-.336l-1.255-1.77a2.9 2.9 0 0 1 .69-4.047l1.218-.82a2.9 2.9 0 0 1 4.048.725l1.255 1.778a.723.723 0 0 1-.225.979ZM96.317 61.382a.726.726 0 0 1-.979-.29l-.725-1.27a.725.725 0 0 0-.987-.29l-2.546 1.386a.727.727 0 0 0-.29.987l.725 1.27a.734.734 0 1 1-1.276.725l-.726-1.277a2.176 2.176 0 0 1 .87-2.953l2.554-1.385a2.176 2.176 0 0 1 2.952.87l.726 1.277a.726.726 0 0 1-.298.95ZM117.978 49.595a.727.727 0 0 1-.98-.29l-.725-1.277a.724.724 0 0 0-.987-.29l-2.546 1.385a.724.724 0 0 0-.29.987l.726 1.276a.727.727 0 0 1-.847 1.04.724.724 0 0 1-.43-.35l-.726-1.27a2.184 2.184 0 0 1 .219-2.408c.179-.223.401-.408.652-.544l2.546-1.393a2.178 2.178 0 0 1 2.952.87l.726 1.277a.719.719 0 0 1 .06.554.727.727 0 0 1-.35.433ZM101.177 70.305l-2.553 1.385a.725.725 0 0 1-.98-.29l-.348-.638-.638.348a.723.723 0 0 1-.986-.29l-1.386-2.525a.726.726 0 0 1 .29-.986l.639-.341-.349-.639a.726.726 0 0 1 .29-.986l2.554-1.4a.726.726 0 0 1 .98.29l.347.638.639-.348a.725.725 0 0 1 .979.29l1.393 2.547a.72.72 0 0 1 .06.553.728.728 0 0 1-.35.433l-.639.348.348.631a.725.725 0 0 1-.29.98Zm-2.604-.233 1.27-.725-.349-.638a.726.726 0 0 1 .29-.98l.639-.348-.725-1.276-.639.348a.723.723 0 0 1-.986-.29l-.348-.639-1.27.726.348.638a.725.725 0 0 1-.297.98l-.631.348.725 1.276.639-.348a.726.726 0 0 1 .986.29l.348.639ZM120.292 59.903l-2.554 1.385a.725.725 0 0 1-.979-.29l-.348-.638-.639.348a.718.718 0 0 1-.553.06.733.733 0 0 1-.433-.35L113.4 57.87a.72.72 0 0 1-.06-.553.728.728 0 0 1 .351-.433l.638-.348-.348-.639a.725.725 0 0 1 .29-.979l2.546-1.393a.729.729 0 0 1 .987.29l.348.639.638-.348a.725.725 0 0 1 .979.29l1.393 2.553a.725.725 0 0 1-.29.98l-.638.348.348.638a.719.719 0 0 1 .06.554.727.727 0 0 1-.35.433Zm-2.605-.24 1.277-.725-.348-.639a.72.72 0 0 1-.06-.553.727.727 0 0 1 .35-.433l.638-.348-.725-1.27-.631.349a.727.727 0 0 1-.987-.29l-.348-.639-1.269.69.341.638a.72.72 0 0 1 .06.553.728.728 0 0 1-.35.433l-.639.348.726 1.27.638-.341a.727.727 0 0 1 .987.29l.34.667ZM108.257 68.114l-1.276.725a.731.731 0 0 1-.726-1.27l1.277-.725a.729.729 0 0 1 .805.073c.074.06.136.134.181.218a.724.724 0 0 1-.261.979ZM113.335 65.336l-1.269.725a.725.725 0 0 1-1.072-.56.73.73 0 0 1 .157-.535.722.722 0 0 1 .218-.181l1.277-.726a.727.727 0 0 1 1.066.564.722.722 0 0 1-.377.712ZM108.765 64.523a2.901 2.901 0 1 1-2.773-5.097 2.901 2.901 0 0 1 2.773 5.097Zm-2.082-3.822a1.455 1.455 0 0 0-.75 1.427 1.448 1.448 0 0 0 1.032 1.239 1.45 1.45 0 1 0-.282-2.666Z" fill="#EEEEF1"/><path d="m127.843 70.675-.138.072a5.216 5.216 0 0 1-6.841-2.263l-1.334-2.365a.724.724 0 0 0-.987-.29l-.631.348a1.458 1.458 0 0 1 .12 1.107 1.455 1.455 0 0 1-.7.866l-10.199 5.55a1.451 1.451 0 0 1-1.966-.58l-.638.34a.724.724 0 0 0-.29.987L105.624 77a5.01 5.01 0 0 1 .392 3.939 5.072 5.072 0 0 1-2.561 3.025 5.208 5.208 0 0 1-6.804-2.3L89.107 67.81a3.627 3.627 0 0 1 1.45-4.925l26.76-14.566a3.628 3.628 0 0 1 4.918 1.45l7.632 14.015a5.09 5.09 0 0 1 .412 3.867 5.063 5.063 0 0 1-2.444 3.025h.008Zm-10.591-5.803.638-.349a2.178 2.178 0 0 1 2.916.87l1.299 2.387a3.749 3.749 0 0 0 4.911 1.662 3.616 3.616 0 0 0 1.823-2.153 3.614 3.614 0 0 0-.271-2.81l-7.638-14.014a2.186 2.186 0 0 0-1.296-1.047 2.177 2.177 0 0 0-1.657.177L91.225 64.16a2.178 2.178 0 0 0-.87 2.952l7.544 13.855a3.743 3.743 0 0 0 4.903 1.661 3.546 3.546 0 0 0 1.828-2.176 3.632 3.632 0 0 0-.275-2.815l-1.386-2.546a2.166 2.166 0 0 1-.176-1.656 2.184 2.184 0 0 1 1.047-1.296l.631-.348a1.446 1.446 0 0 1 1.61.144c.148.12.272.268.363.436l10.191-5.527a1.451 1.451 0 0 1 .581-1.966l.036-.008Z" fill="#EEEEF1"/><path d="M103.963 57.226a.725.725 0 0 1-.979-.29l-1.393-2.554a2.167 2.167 0 0 1-.176-1.656 2.185 2.185 0 0 1 1.047-1.296l2.553-1.385a.727.727 0 0 0 .29-.98l-.725-1.276a.722.722 0 0 0-.716-.376.729.729 0 0 0-.271.085l-6.369 3.468a2.176 2.176 0 0 1-2.952-.87l-.725-1.277a2.176 2.176 0 0 1 .87-2.953l2.546-1.385a.724.724 0 0 0 .29-.987l-.725-1.27a.735.735 0 1 1 1.277-.724l.725 1.276a2.175 2.175 0 0 1-.87 2.952l-2.46 1.415a.727.727 0 0 0-.29.986l.726 1.27a.725.725 0 0 0 .979.29l6.376-3.467a2.179 2.179 0 0 1 2.952.87l.726 1.277a2.167 2.167 0 0 1 .176 1.656 2.182 2.182 0 0 1-1.047 1.296l-2.618 1.386a.724.724 0 0 0-.29.986l1.385 2.546a.733.733 0 0 1 .051.559.729.729 0 0 1-.363.428ZM200.048 282.611a.723.723 0 0 1-.667-.783l.116-1.451a.723.723 0 0 0-.66-.776l-2.902-.239a.728.728 0 0 0-.706.393.717.717 0 0 0-.077.274l-.116 1.451a.731.731 0 0 1-.784.667.728.728 0 0 1-.667-.783l.116-1.451a2.177 2.177 0 0 1 2.329-1.98l2.901.232a2.166 2.166 0 0 1 1.485.761 2.171 2.171 0 0 1 .51 1.589l-.116 1.451a.723.723 0 0 1-.762.645ZM224.632 284.599a.719.719 0 0 1-.635-.501.71.71 0 0 1-.033-.282l.116-1.451a.726.726 0 0 0-.66-.784l-2.901-.232a.721.721 0 0 0-.784.668l-.116 1.45a.73.73 0 0 1-.501.635.721.721 0 0 1-.778-.221.74.74 0 0 1-.172-.53l.116-1.45a2.18 2.18 0 0 1 2.343-1.988l2.902.232a2.177 2.177 0 0 1 1.995 2.343l-.116 1.451a.726.726 0 0 1-.776.66ZM199.228 292.731l-2.901-.233a.725.725 0 0 1-.66-.783l.058-.725-.726-.058a.737.737 0 0 1-.635-.502.728.728 0 0 1-.032-.282l.239-2.901a.724.724 0 0 1 .776-.668l.726.058.058-.725a.723.723 0 0 1 .783-.66l2.902.232a.723.723 0 0 1 .66.783l-.058.726.725.058a.726.726 0 0 1 .66.776l-.232 2.901a.719.719 0 0 1-.501.635.71.71 0 0 1-.282.033l-.726-.058-.058.725a.725.725 0 0 1-.776.668Zm-2.053-1.625 1.451.123.058-.725a.719.719 0 0 1 .501-.635.713.713 0 0 1 .283-.033l.725.058.116-1.451-.725-.058a.725.725 0 0 1-.66-.783l.058-.725-1.451-.116-.058.725a.728.728 0 0 1-.776.667l-.726-.058-.116 1.451.726.058a.725.725 0 0 1 .667.784l-.073.718ZM220.917 294.486l-2.901-.232a.726.726 0 0 1-.66-.784l.058-.725-.726-.065a.729.729 0 0 1-.66-.776l.232-2.902a.734.734 0 0 1 .501-.635.734.734 0 0 1 .283-.032l.725.065.058-.725a.719.719 0 0 1 .501-.635.713.713 0 0 1 .283-.033l2.901.24a.721.721 0 0 1 .66.776l-.058.725.726.058a.719.719 0 0 1 .635.501c.029.091.04.187.032.283l-.239 2.901a.726.726 0 0 1-.777.66l-.725-.058-.058.726a.735.735 0 0 1-.255.499.735.735 0 0 1-.536.168Zm-2.052-1.618 1.45.116.066-.725a.721.721 0 0 1 .776-.66l.725.058.116-1.451-.725-.058a.721.721 0 0 1-.66-.776l.058-.725-1.451-.116-.058.725a.735.735 0 0 1-.253.497.721.721 0 0 1-.531.17l-.725-.058-.116 1.451.725.058a.723.723 0 0 1 .661.783l-.058.711ZM206.337 294.762l-1.451-.116a.734.734 0 0 1-.635-.502.727.727 0 0 1 .751-.942l1.451.116a.726.726 0 0 1 .66.776.726.726 0 0 1-.776.668ZM212.126 295.233l-1.451-.116a.727.727 0 1 1 .123-1.451l1.451.116a.729.729 0 0 1-.116 1.451h-.007ZM208.745 292.049a2.906 2.906 0 0 1-1.647-5.102 2.903 2.903 0 0 1 4.465 3.53 2.89 2.89 0 0 1-1.692 1.441 2.922 2.922 0 0 1-1.126.131Zm.349-4.353a1.456 1.456 0 0 0-1.56 1.614 1.452 1.452 0 0 0 1.045 1.228 1.45 1.45 0 0 0 1.842-1.282 1.45 1.45 0 0 0-1.335-1.545l.008-.015Z" fill="#EEEEF1"/><path d="M221.309 307.623h-.152a5.216 5.216 0 0 1-4.483-5.644l.217-2.705a.731.731 0 0 0-.17-.531.719.719 0 0 0-.497-.253l-.725-.058a1.466 1.466 0 0 1-.508.989 1.474 1.474 0 0 1-.496.275 1.471 1.471 0 0 1-.563.064l-11.563-.936a1.455 1.455 0 0 1-1.335-1.567l-.725-.058a.728.728 0 0 0-.53.171.719.719 0 0 0-.253.496l-.232 2.902a5.037 5.037 0 0 1-1.836 3.511 5.083 5.083 0 0 1-3.793 1.131 5.222 5.222 0 0 1-4.483-5.643l1.276-15.719a3.627 3.627 0 0 1 3.91-3.323l30.365 2.459a3.615 3.615 0 0 1 3.16 2.504c.146.454.201.931.162 1.406l-1.291 15.901a5.087 5.087 0 0 1-1.77 3.462 5.082 5.082 0 0 1-3.699 1.195l.014-.029Zm-5.694-10.656.725.065a2.176 2.176 0 0 1 1.988 2.343l-.218 2.706a3.749 3.749 0 0 0 3.199 4.084c.483.054.972.01 1.438-.128a3.643 3.643 0 0 0 2.182-1.8c.224-.431.36-.903.399-1.387l1.291-15.908a2.179 2.179 0 0 0-1.995-2.343l-30.365-2.459a2.18 2.18 0 0 0-1.589.509 2.178 2.178 0 0 0-.761 1.486l-1.269 15.719a3.756 3.756 0 0 0 3.191 4.084 3.64 3.64 0 0 0 2.712-.807 3.638 3.638 0 0 0 1.307-2.508l.239-2.902a2.176 2.176 0 0 1 2.343-1.995l.726.058a1.449 1.449 0 0 1 1.327 1.56l11.563.943a1.453 1.453 0 0 1 1.567-1.32Z" fill="#EEEEF1"/><path d="M208.724 283.308a.724.724 0 0 1-.668-.776l.24-2.902a2.176 2.176 0 0 1 2.343-1.995l2.901.24a.726.726 0 0 0 .776-.668l.124-1.451a.721.721 0 0 0-.668-.783l-7.254-.588a2.175 2.175 0 0 1-1.994-2.343l.123-1.45a2.175 2.175 0 0 1 2.343-1.988l2.901.232a.724.724 0 0 0 .777-.667l.116-1.451a.726.726 0 0 1 1.279-.414.726.726 0 0 1 .171.53l-.116 1.451a2.188 2.188 0 0 1-1.506 1.892 2.173 2.173 0 0 1-.844.095l-2.901-.232a.721.721 0 0 0-.784.668l-.116 1.451a.725.725 0 0 0 .66.783l7.254.587a2.176 2.176 0 0 1 1.995 2.344l-.116 1.45a2.175 2.175 0 0 1-2.343 1.995l-2.902-.232a.725.725 0 0 0-.783.66l-.232 2.902a.729.729 0 0 1-.776.66ZM293.319 104.217a.713.713 0 0 1-.291-.475.716.716 0 0 1 .131-.541l.849-1.175a.727.727 0 0 0-.16-1.008l-2.343-1.705a.723.723 0 0 0-1.015.16l-.885 1.167a.724.724 0 0 1-1.347-.288.72.72 0 0 1 .179-.56l.849-1.175a2.173 2.173 0 0 1 3.039-.48l2.357 1.706a2.175 2.175 0 0 1 .479 3.039l-.848 1.175a.728.728 0 0 1-.994.16ZM313.274 118.71a.722.722 0 0 1-.16-1.016l.849-1.168a.719.719 0 0 0 .131-.54.73.73 0 0 0-.291-.475l-2.35-1.705a.727.727 0 0 0-1.008.16l-.856 1.175a.736.736 0 0 1-.475.291.723.723 0 0 1-.831-.606.729.729 0 0 1 .131-.541l.856-1.175a2.172 2.172 0 0 1 3.039-.479l2.35 1.705a2.172 2.172 0 0 1 .479 3.039l-.87 1.175a.724.724 0 0 1-.994.16ZM287.349 112.428l-2.35-1.705a.726.726 0 0 1-.16-1.008l.428-.588-.588-.428a.72.72 0 0 1-.29-.474.734.734 0 0 1 .131-.541l1.705-2.343a.723.723 0 0 1 1.015-.16l.588.421.428-.588a.725.725 0 0 1 1.008-.159l2.35 1.705a.723.723 0 0 1 .16 1.015l-.428.588.587.428a.723.723 0 0 1 .16 1.008l-1.705 2.35a.722.722 0 0 1-1.015.16l-.581-.428-.428.587a.71.71 0 0 1-.474.291.715.715 0 0 1-.541-.131Zm-.907-2.452 1.175.856.421-.587a.722.722 0 0 1 1.016-.16l.587.428.856-1.175-.588-.428a.723.723 0 0 1-.29-.475.729.729 0 0 1 .131-.541l.421-.587-1.168-.849-.428.588a.723.723 0 0 1-.475.29.729.729 0 0 1-.541-.131l-.587-.428-.849 1.175.588.428a.727.727 0 0 1 .159 1.009l-.428.587ZM304.954 125.224l-2.343-1.705a.726.726 0 0 1-.167-1.015l.428-.588-.587-.428a.726.726 0 0 1-.16-1.008l1.705-2.35a.722.722 0 0 1 1.015-.16l.588.428.428-.588a.725.725 0 0 1 1.008-.159l2.35 1.704a.728.728 0 0 1 .16 1.009l-.428.587.588.428a.723.723 0 0 1 .29.475.729.729 0 0 1-.131.541l-1.705 2.343a.725.725 0 0 1-.979.138l-.587-.421-.428.587a.718.718 0 0 1-.483.318.715.715 0 0 1-.295-.01.714.714 0 0 1-.267-.126Zm-.907-2.452 1.175.849.428-.588a.73.73 0 0 1 1.009-.159l.587.428.856-1.176-.587-.428a.723.723 0 0 1-.16-1.008l.421-.587-1.168-.856-.428.587a.722.722 0 0 1-1.016.16l-.587-.428-.849 1.175.588.428a.719.719 0 0 1 .29.475.73.73 0 0 1-.131.54l-.428.588ZM292.368 117.868l-1.175-.856a.727.727 0 0 1 .289-1.347.722.722 0 0 1 .56.18l1.175.848a.727.727 0 0 1-.318 1.284.723.723 0 0 1-.531-.109ZM297.062 121.249l-1.176-.849a.728.728 0 0 1 .316-1.306c.19-.03.385.017.54.131l1.168.849a.71.71 0 0 1 .291.474.715.715 0 0 1-.131.541.727.727 0 0 1-1.008.16ZM295.828 116.802a2.904 2.904 0 0 1-1.116-3.024 2.896 2.896 0 0 1 2.365-2.189 2.903 2.903 0 0 1 2.806 4.568 2.915 2.915 0 0 1-3.026 1.119c-.37-.089-.72-.25-1.029-.474Zm2.561-3.525a1.453 1.453 0 0 0-1.61-.063 1.455 1.455 0 0 0-.675 1.462 1.447 1.447 0 0 0 1.091 1.185 1.454 1.454 0 0 0 1.194-2.592v.008Z" fill="#EEEEF1"/><path d="m298.454 136.641-.123-.094a5.223 5.223 0 0 1-.892-7.152l1.596-2.176a.723.723 0 0 0 .131-.541.73.73 0 0 0-.291-.475l-.588-.421a1.45 1.45 0 0 1-2.023.32l-9.394-6.819a1.449 1.449 0 0 1-.319-2.031l-.588-.428a.72.72 0 0 0-.538-.124.721.721 0 0 0-.47.291l-1.712 2.343a5.029 5.029 0 0 1-3.388 2.045 5.087 5.087 0 0 1-3.83-1.015 5.203 5.203 0 0 1-.885-7.145l9.271-12.767a3.619 3.619 0 0 1 2.373-1.454 3.629 3.629 0 0 1 2.704.656l24.664 17.902a3.63 3.63 0 0 1 .805 5.078l-9.394 12.883a5.078 5.078 0 0 1-7.094 1.124h-.015Zm.689-12.055.588.427c.466.34.779.851.869 1.421a2.182 2.182 0 0 1-.39 1.619l-1.596 2.176a3.743 3.743 0 0 0 .602 5.143 3.572 3.572 0 0 0 2.735.725 3.619 3.619 0 0 0 2.422-1.45l9.38-12.912a2.182 2.182 0 0 0 .39-1.619 2.18 2.18 0 0 0-.869-1.421l-24.663-17.902a2.174 2.174 0 0 0-3.04.479l-9.277 12.759a3.758 3.758 0 0 0 .609 5.15 3.634 3.634 0 0 0 4.093.246 3.615 3.615 0 0 0 1.064-.971l1.705-2.35a2.177 2.177 0 0 1 3.039-.479l.588.421a1.455 1.455 0 0 1 .558 1.516 1.444 1.444 0 0 1-.239.515l9.387 6.818c.112-.156.255-.288.42-.388a1.437 1.437 0 0 1 1.109-.169c.187.046.362.13.516.246Z" fill="#EEEEF1"/><path d="M300.362 109.331a.74.74 0 0 1-.291-.475.735.735 0 0 1 .131-.541l1.705-2.343a2.17 2.17 0 0 1 1.419-.873 2.17 2.17 0 0 1 1.621.387l2.343 1.705a.719.719 0 0 0 .54.131.73.73 0 0 0 .475-.291l.856-1.168a.734.734 0 0 0 .033-.807.722.722 0 0 0-.193-.208l-5.875-4.266a2.173 2.173 0 0 1-.479-3.039l.856-1.175a2.178 2.178 0 0 1 3.039-.479l2.343 1.705a.726.726 0 0 0 1.016-.16l.856-1.175a.724.724 0 1 1 1.168.856l-.849 1.168a2.177 2.177 0 0 1-3.039.486l-2.351-1.705a.722.722 0 0 0-1.015.16l-.849 1.175a.727.727 0 0 0 .16 1.008l5.868 4.266a2.172 2.172 0 0 1 .479 3.039l-.849 1.175a2.176 2.176 0 0 1-3.039.479l-2.329-1.705a.727.727 0 0 0-1.008.16l-1.712 2.35a.734.734 0 0 1-.481.298.741.741 0 0 1-.289-.013.745.745 0 0 1-.26-.125ZM54.63 103.789l-.987 2.727a.726.726 0 1 1-1.364-.493l.725-2.046-2.052-.725a.727.727 0 0 1-.436-.929l.726-2.045-2.046-.726a.725.725 0 0 1-.435-.928l.74-2.038-2.046-.726a.725.725 0 0 1-.435-.928l.725-2.046-2.045-.725a.725.725 0 0 1-.436-.929l.726-2.045-2.046-.726a.725.725 0 0 1-.435-.928l.725-2.046-2.045-.725a.725.725 0 0 1-.435-.929l.725-2.045-4.091-1.451-1.45 4.098 2.052.726a.725.725 0 0 1 .435.928l-.725 2.046 2.045.725a.726.726 0 0 1 .436.929l-.726 2.045 2.053.726a.726.726 0 0 1 .435.928l-.725 2.046 2.045.725a.725.725 0 0 1 .436.929l-.726 2.045 2.053.726a.726.726 0 0 1 .435.928l-.725 2.046 2.046.725a.727.727 0 0 1 .435.929l-.725 2.045 2.045.726a.724.724 0 1 1-.493 1.363l-2.728-.986a.727.727 0 0 1-.435-.929l.725-2.045-2.045-.726a.724.724 0 0 1-.435-.928l.725-2.046-2.045-.725a.729.729 0 0 1-.443-.929l.725-2.045-2.045-.726a.725.725 0 0 1-.435-.928l.725-2.046-2.053-.725a.725.725 0 0 1-.435-.929l.725-2.045-2.045-.726a.725.725 0 0 1-.436-.928l.726-2.046-2.053-.725a.725.725 0 0 1-.435-.929l1.973-5.462a.725.725 0 0 1 .928-.435l5.47 1.864a.725.725 0 0 1 .435.929l-.726 2.045 2.046.726a.725.725 0 0 1 .435.928l-.725 2.046 2.046.725a.725.725 0 0 1 .435.929l-.726 2.045 2.046.726a.725.725 0 0 1 .435.928l-.725 2.046 2.045.725a.725.725 0 0 1 .443.929l-.725 2.045 2.045.726a.725.725 0 0 1 .435.928l-.725 2.046 2.053.725a.728.728 0 0 1 .384 1.016Z" fill="#EEEEF1"/><path d="m65.162 104.5-1.45 4.098a.726.726 0 0 1-.929.435l-2.046-.725-.725 2.045a.72.72 0 0 1-.648.484.725.725 0 0 1-.28-.041l-2.046-.726-1.734 4.745a.724.724 0 0 1-.928.435l-4.773-1.719-.726 2.045a.726.726 0 0 1-.928.435l-2.046-.725-.725 2.053a.726.726 0 0 1-.929.435l-4.098-1.451a.724.724 0 0 1-.435-.928l1.45-4.091a.723.723 0 0 1 .929-.436l2.046.726.725-2.046a.726.726 0 0 1 .928-.435l2.046.725 1.726-4.78a.726.726 0 0 1 .929-.435l4.773 1.726.725-2.045a.72.72 0 0 1 .648-.484.726.726 0 0 1 .28.041l2.046.726.726-2.046a.726.726 0 0 1 .928-.435l4.092 1.45a.739.739 0 0 1 .425.376.728.728 0 0 1 .024.568Zm-2.59 2.901.98-2.727-2.728-.987-.725 2.046a.725.725 0 0 1-.928.435l-2.046-.725-.725 2.045a.726.726 0 0 1-.929.435l-4.773-1.726-1.726 4.78a.726.726 0 0 1-.929.435l-2.045-.725-.726 2.046a.724.724 0 0 1-.928.435l-2.046-.725-.986 2.727 2.69 1.001.726-2.053a.726.726 0 0 1 .929-.435l2.052.725.726-2.045a.726.726 0 0 1 .928-.436l4.78 1.72 1.72-4.773a.723.723 0 0 1 .928-.436l2.053.726.725-2.053a.726.726 0 0 1 .929-.435l2.075.725Z" fill="#EEEEF1"/><path d="m61.985 121.865-1.451 4.091a.723.723 0 0 1-.928.436l-4.099-1.451a.727.727 0 0 1-.435-.929l.725-2.045-2.045-.726a.724.724 0 0 1-.436-.928l.726-2.046-2.046-.725a.727.727 0 0 1-.435-.929l.986-2.727a.725.725 0 1 1 1.364.486l-.725 2.053 2.045.725a.727.727 0 0 1 .436.929l-.726 2.053 2.046.725a.724.724 0 0 1 .435.928l-.725 2.053 2.727.98.958-2.764-2.046-.726a.724.724 0 0 1-.435-.928l.725-2.046-2.053-.725a.724.724 0 0 1-.435-.928l.726-2.046-2.046-.725a.74.74 0 0 1-.419-.375.735.735 0 0 1 .905-1.011l2.727.987a.724.724 0 0 1 .436.928l-.726 2.046 2.053.725a.727.727 0 0 1 .435.929l-.725 2.045 2.046.726a.715.715 0 0 1 .413.377.724.724 0 0 1 .022.558ZM53.527 111.093a.726.726 0 0 1-.37.414.725.725 0 0 1-.965-.348l-.87-1.857a.727.727 0 0 1 1.313-.617l.87 1.857c.08.174.088.372.022.551ZM244.318 236.223l.182 2.901a.74.74 0 0 1-.179.527.73.73 0 0 1-1.026.067.729.729 0 0 1-.246-.499l-.138-2.177-2.176.138a.728.728 0 0 1-.769-.674l-.138-2.177-2.176.138a.715.715 0 0 1-.531-.178.737.737 0 0 1-.245-.504l-.131-2.176-2.176.138a.725.725 0 0 1-.769-.682l-.138-2.176-2.176.138a.727.727 0 0 1-.769-.682l-.137-2.176-2.177.138a.721.721 0 0 1-.768-.682l-.131-2.176-2.176.137a.722.722 0 0 1-.769-.681l-.138-2.177-4.352.276.275 4.352 2.177-.13a.723.723 0 0 1 .776.674l.13 2.177 2.176-.131a.723.723 0 0 1 .769.675l.138 2.176 2.176-.138a.723.723 0 0 1 .769.675l.138 2.176 2.176-.138a.723.723 0 0 1 .769.675l.138 2.176 2.176-.138a.724.724 0 0 1 .769.675l.138 2.176 2.176-.138a.724.724 0 0 1 .769.675l.138 2.176 2.176-.138a.725.725 0 0 1 .587 1.207.718.718 0 0 1-.5.244l-2.902.188a.727.727 0 0 1-.697-.407.709.709 0 0 1-.071-.275l-.138-2.176-2.176.138a.73.73 0 0 1-.698-.407.713.713 0 0 1-.071-.275l-.138-2.176-2.176.138a.722.722 0 0 1-.769-.682l-.138-2.176-2.176.13a.726.726 0 0 1-.769-.674l-.138-2.176-2.176.13a.73.73 0 0 1-.528-.176.713.713 0 0 1-.248-.499l-.131-2.176-2.176.138a.724.724 0 0 1-.769-.674l-.138-2.177-2.176.138a.724.724 0 0 1-.769-.674l-.37-5.804a.727.727 0 0 1 .408-.697.704.704 0 0 1 .274-.071l5.803-.363a.724.724 0 0 1 .769.674l.138 2.177 2.176-.138a.725.725 0 0 1 .769.682l.138 2.176 2.176-.138a.725.725 0 0 1 .769.682l.138 2.176 2.176-.138a.734.734 0 0 1 .531.179.714.714 0 0 1 .245.503l.131 2.176 2.176-.138a.745.745 0 0 1 .526.182.73.73 0 0 1 .243.5l.137 2.176 2.177-.137a.727.727 0 0 1 .769.682l.137 2.176 2.177-.138a.727.727 0 0 1 .697.407.709.709 0 0 1 .071.275Z" fill="#EEEEF1"/><path d="m254.271 232.69.268 4.352a.726.726 0 0 1-.674.769l-2.176.138.13 2.176a.726.726 0 0 1-.674.769l-2.176.138.319 5.078a.726.726 0 0 1-.675.769l-5.078.319.138 2.176a.724.724 0 0 1-.674.769l-2.177.138.138 2.176a.724.724 0 0 1-.674.769l-4.353.276a.745.745 0 0 1-.526-.182.73.73 0 0 1-.243-.5l-.275-4.353a.727.727 0 0 1 .682-.769l2.176-.137-.138-2.177a.727.727 0 0 1 .407-.697.709.709 0 0 1 .275-.071l2.176-.138-.319-5.078a.728.728 0 0 1 .674-.769l5.078-.319-.138-2.176a.722.722 0 0 1 .682-.769l2.176-.138-.138-2.176a.742.742 0 0 1 .182-.526.718.718 0 0 1 .5-.243l4.353-.276a.723.723 0 0 1 .754.682Zm-1.219 3.707-.188-2.902-2.902.182.138 2.176a.724.724 0 0 1-.675.769l-2.176.13.138 2.176a.73.73 0 0 1-.407.698.709.709 0 0 1-.275.071l-5.077.32.319 5.077a.722.722 0 0 1-.682.769l-2.176.138.138 2.176a.745.745 0 0 1-.182.526.718.718 0 0 1-.5.243l-2.177.138.182 2.901 2.901-.181-.137-2.176a.715.715 0 0 1 .178-.531.737.737 0 0 1 .503-.245l2.177-.131-.138-2.176a.725.725 0 0 1 .682-.769l5.077-.319-.319-5.078a.726.726 0 0 1 .675-.769l2.176-.13-.131-2.176a.727.727 0 0 1 .675-.769l2.183-.138Z" fill="#EEEEF1"/><path d="m258.261 249.882.275 4.352a.715.715 0 0 1-.178.531.737.737 0 0 1-.503.245l-4.353.269a.726.726 0 0 1-.769-.675l-.137-2.176-2.177.138a.73.73 0 0 1-.769-.675l-.137-2.176-2.177.138a.723.723 0 0 1-.776-.675l-.181-2.901a.724.724 0 0 1 .682-.769.727.727 0 0 1 .769.682l.138 2.176 2.176-.138a.725.725 0 0 1 .769.682l.137 2.176 2.177-.138a.727.727 0 0 1 .769.682l.13 2.176 2.902-.181-.182-2.902-2.176.138a.725.725 0 0 1-.769-.682l-.138-2.176-2.176.138a.725.725 0 0 1-.769-.682l-.137-2.176-2.177.138a.727.727 0 0 1-.087-1.451l2.902-.181a.725.725 0 0 1 .769.681l.138 2.177 2.176-.138a.725.725 0 0 1 .769.682l.137 2.176 2.177-.138a.726.726 0 0 1 .776.653ZM246.219 243.368a.716.716 0 0 1-.181.529.725.725 0 0 1-1.023.066l-1.538-1.357a.724.724 0 1 1 .958-1.088l1.537 1.357a.723.723 0 0 1 .247.493ZM204.734 78.095a.726.726 0 0 1-1.023-.08l-5.194-6.056-7.159 6.15a.736.736 0 0 1-.528.173.725.725 0 0 1-.415-1.275l7.703-6.615a.728.728 0 0 1 1.023.072l5.673 6.609a.724.724 0 0 1-.08 1.023ZM206.642 80.293l-7.711 6.616a.726.726 0 0 1-1.023-.073l-5.672-6.608a.726.726 0 1 1 1.102-.943l5.201 6.05 7.16-6.159a.725.725 0 1 1 .943 1.103v.014Z" fill="#EEEEF1"/><path d="M191.373 78.11a6.533 6.533 0 0 1-7.205.852 6.534 6.534 0 0 1-2.001-1.578.724.724 0 1 1 1.103-.943 5.076 5.076 0 0 0 7.16.544.725.725 0 1 1 .943 1.103v.022ZM198.322 95.091a.725.725 0 0 1-1.023-.072 6.528 6.528 0 0 1 .726-9.206.721.721 0 0 1 1.068.034.714.714 0 0 1 .171.559.728.728 0 0 1-.296.503 5.076 5.076 0 0 0-.545 7.16.709.709 0 0 1 .134.25c.028.09.038.187.028.282a.722.722 0 0 1-.263.49Z" fill="#EEEEF1"/><path d="M198.322 95.091a12.334 12.334 0 0 1-20.335-10.285 12.332 12.332 0 0 1 4.26-8.423.725.725 0 1 1 .943 1.103 10.882 10.882 0 0 0 14.181 16.51.727.727 0 0 1 1.183.602.725.725 0 0 1-.232.493ZM199.076 71.487a.727.727 0 1 1-.943-1.095 5.08 5.08 0 0 0 1.519-5.44 5.079 5.079 0 0 0-.975-1.727.724.724 0 1 1 1.103-.943 6.529 6.529 0 0 1-.704 9.205ZM214.824 80.91a.725.725 0 0 1-1.023-.073 5.076 5.076 0 0 0-7.159-.544.738.738 0 0 1-.528.172.728.728 0 0 1-.634-.498.743.743 0 0 1 .044-.554.713.713 0 0 1 .175-.222 6.528 6.528 0 0 1 9.19.71.723.723 0 0 1-.065 1.009Z" fill="#EEEEF1"/><path d="M214.824 80.91a.725.725 0 1 1-.943-1.096 10.882 10.882 0 0 0-14.181-16.51.737.737 0 0 1-.528.173.725.725 0 0 1-.415-1.275 12.324 12.324 0 0 1 9.015-3.068 12.332 12.332 0 0 1 7.052 21.776ZM221.302 104.035l-1.103.951a2.179 2.179 0 0 1-3.068-.233l-17.018-19.774a.724.724 0 1 1 1.103-.943l17.017 19.803a.716.716 0 0 0 .495.252.722.722 0 0 0 .528-.172l1.103-.943a.726.726 0 0 0 .072-1.023l-17.01-19.875a.715.715 0 0 1-.218-.542.728.728 0 0 1 .513-.671.724.724 0 0 1 .8.27l17.018 19.803a2.175 2.175 0 0 1-.232 3.097ZM196.878 73.373a.717.717 0 0 1-.528.172.718.718 0 0 1-.495-.252l-.943-1.095a.724.724 0 0 0-1.023-.08l-1.102.943a.713.713 0 0 0-.252.495.734.734 0 0 0 .172.528l.95 1.102a.725.725 0 0 1-1.102.943l-.943-1.095a2.17 2.17 0 0 1-.294-2.406c.129-.256.308-.483.526-.67l1.095-.942a2.177 2.177 0 0 1 3.068.232l.951 1.102a.724.724 0 0 1-.08 1.023ZM291.73 308.399a.741.741 0 0 1-.256-.493.728.728 0 0 1 .169-.53l5.165-6.079-7.203-6.086a.722.722 0 0 1-.08-1.022.722.722 0 0 1 1.023-.08l7.761 6.572a.717.717 0 0 1 .256.493.728.728 0 0 1-.169.53l-5.636 6.637a.722.722 0 0 1-.785.204.726.726 0 0 1-.245-.146ZM289.851 310.633l-7.74-6.586a.73.73 0 0 1-.087-1.023l5.637-6.637a.73.73 0 0 1 .495-.252.724.724 0 0 1 .607 1.195l-5.157 6.078 7.181 6.101a.717.717 0 0 1 .256.493.728.728 0 0 1-.944.753.726.726 0 0 1-.248-.136v.014Z" fill="#EEEEF1"/><path d="M289.605 295.211a6.527 6.527 0 0 1-.726-9.197.728.728 0 0 1 1.058-.13.722.722 0 0 1 .045 1.065 5.078 5.078 0 0 0 .587 7.16.73.73 0 0 1 .252.495.724.724 0 0 1-1.195.607h-.021ZM273.929 304.728a.715.715 0 0 1-.252-.494.722.722 0 0 1 .172-.528 6.527 6.527 0 0 1 9.198-.726.733.733 0 0 1 .255.494.719.719 0 0 1-.389.706.721.721 0 0 1-.554.047.728.728 0 0 1-.248-.137 5.082 5.082 0 0 0-5.606-.651 5.101 5.101 0 0 0-1.553 1.231.723.723 0 0 1-1.023.058Z" fill="#EEEEF1"/><path d="M273.929 304.728a12.326 12.326 0 0 1-1.314-17.288 12.329 12.329 0 0 1 17.272-1.514.737.737 0 0 1 .255.496.721.721 0 0 1-.667.785.726.726 0 0 1-.531-.171 10.89 10.89 0 0 0-8.003-2.757 10.89 10.89 0 0 0-7.558 3.813 10.89 10.89 0 0 0-2.537 8.076 10.876 10.876 0 0 0 4.019 7.451.729.729 0 0 1-.943 1.109h.007ZM297.366 301.783a.722.722 0 0 1-.271-.796.735.735 0 0 1 .377-.444.721.721 0 0 1 .83.138 5.074 5.074 0 0 0 5.607.645 5.08 5.08 0 0 0 1.553-1.233.725.725 0 0 1 1.102.943 6.53 6.53 0 0 1-9.198.747ZM290.518 318.816a.719.719 0 0 1-.218-.776.727.727 0 0 1 .139-.247 5.07 5.07 0 0 0 .645-5.608 5.076 5.076 0 0 0-1.233-1.552.723.723 0 0 1-.087-1.023.726.726 0 0 1 1.023-.087 6.527 6.527 0 0 1 1.97 6.983 6.529 6.529 0 0 1-1.245 2.222.723.723 0 0 1-.994.088Z" fill="#EEEEF1"/><path d="M290.519 318.816a.716.716 0 0 1-.252-.495.722.722 0 0 1 .172-.528.726.726 0 0 1 1.016-.087 10.868 10.868 0 0 0 12.142 1.601 10.883 10.883 0 0 0 5.477-6.428 10.876 10.876 0 0 0-.771-8.41 10.896 10.896 0 0 0-2.74-3.324.727.727 0 0 1 .143-1.198.719.719 0 0 1 .554-.043.73.73 0 0 1 .246.138 12.33 12.33 0 0 1-7.011 21.594 12.335 12.335 0 0 1-8.947-2.791l-.029-.029ZM268.692 328.826l-1.103-.936a2.188 2.188 0 0 1-.763-1.481 2.18 2.18 0 0 1 .509-1.587l16.902-19.905a.717.717 0 0 1 .493-.255.72.72 0 0 1 .706.389.723.723 0 0 1-.089.802l-16.902 19.904a.746.746 0 0 0-.139.247.743.743 0 0 0 .044.554c.043.085.102.16.175.222l1.102.943a.719.719 0 0 0 .53.169.723.723 0 0 0 .493-.256l16.909-19.904a.722.722 0 0 1 1.023-.08.725.725 0 0 1 .08 1.023l-16.902 19.904a2.171 2.171 0 0 1-1.483.759 2.174 2.174 0 0 1-1.585-.512ZM295.154 299.905a.733.733 0 0 1-.256-.494.723.723 0 0 1 .169-.529l.943-1.103a.736.736 0 0 0 .168-.529.735.735 0 0 0-.255-.494l-1.103-.935a.727.727 0 0 0-1.023.079l-.943 1.11a.724.724 0 0 1-1.344-.393.717.717 0 0 1 .271-.55l.935-1.102a2.188 2.188 0 0 1 1.482-.763 2.173 2.173 0 0 1 1.587.509l1.11.943a2.177 2.177 0 0 1 .246 3.061l-.935 1.11a.74.74 0 0 1-.227.186.736.736 0 0 1-.573.043.732.732 0 0 1-.252-.149ZM267.69 64.436a.867.867 0 0 1-.29-.123 41.441 41.441 0 0 1-6.695-6.434c-4.273-5.172-6.072-10.337-5.208-14.929a8.702 8.702 0 0 1 10.155-6.942c2.742.515 5.332 3.047 6.275 5.861 1.907-2.277 5.237-3.699 7.979-3.184a8.705 8.705 0 0 1 6.949 10.155c-.863 4.592-4.417 8.749-10.279 12.02a40.744 40.744 0 0 1-8.574 3.555.673.673 0 0 1-.312.021Zm-2.299-27.006a7.255 7.255 0 0 0-8.473 5.803c-1.748 9.285 9.155 18.23 11.055 19.709 2.307-.725 15.712-5.078 17.46-14.34a7.248 7.248 0 0 0-3.171-7.421 7.261 7.261 0 0 0-2.632-1.052c-2.945-.552-6.34 1.632-7.406 3.953a.727.727 0 0 1-1.207.178.722.722 0 0 1-.178-.44c-.138-2.567-2.503-5.831-5.448-6.39Z" fill="#EEEEF1"/><path d="M260.35 44.604a.729.729 0 0 1-.578-.565.733.733 0 0 1-.002-.284 4.352 4.352 0 0 1 5.077-3.474.737.737 0 1 1-.268 1.45 2.901 2.901 0 0 0-3.388 2.315.724.724 0 0 1-.841.558ZM142.873 282.626a.775.775 0 0 1-.312.087 41.272 41.272 0 0 1-9.249-.849c-6.528-1.371-11.192-4.28-13.383-8.4a8.703 8.703 0 0 1 3.627-11.773c2.466-1.313 6.071-.95 8.567.66.065-2.974 1.784-6.158 4.25-7.471a8.7 8.7 0 0 1 9.623.991 8.687 8.687 0 0 1 2.143 2.636c2.176 4.127 2.017 9.589-.522 15.799a40.511 40.511 0 0 1-4.476 8.131.65.65 0 0 1-.268.189Zm-18.657-19.658a7.248 7.248 0 0 0-3.536 4.285 7.259 7.259 0 0 0 .533 5.529c4.439 8.342 18.541 8.524 20.942 8.487 1.378-1.973 9.118-13.782 4.686-22.102a7.252 7.252 0 0 0-9.822-2.996c-2.64 1.407-3.932 5.23-3.315 7.711a.723.723 0 0 1-1.24.66c-1.72-1.908-5.608-2.981-8.248-1.574Z" fill="#EEEEF1"/><path d="M124.753 271.716a.722.722 0 0 1-.979-.297 4.35 4.35 0 0 1 1.799-5.883.727.727 0 0 1 .937.32.726.726 0 0 1-.256.956 2.92 2.92 0 0 0-.878.716 2.884 2.884 0 0 0-.651 2.124c.036.379.147.748.325 1.085a.724.724 0 0 1-.297.979ZM224.617 155.074a.785.785 0 0 1-.29 0l-5.078-1.045-4.28 2.967a.724.724 0 0 1-1.062-.278.723.723 0 0 1-.069-.404l.493-4.106-3.068-2.024a.72.72 0 0 1-.32-.681.723.723 0 0 1 .457-.602l3.809-1.451 1.276-3.714a.723.723 0 0 1 .54-.468.722.722 0 0 1 .679.221l2.633 2.902 4.077-.145a.72.72 0 0 1 .66.37.72.72 0 0 1 0 .725l-2.009 3.047 2.067 3.627a.719.719 0 0 1-.044.783.724.724 0 0 1-.471.276Zm-5.702-2.539a.681.681 0 0 1 .298 0l3.823.79-1.451-2.575a.72.72 0 0 1 0-.725l1.451-2.249-2.996.109a.729.729 0 0 1-.566-.232l-2.038-2.227-1.009 2.851a.722.722 0 0 1-.42.435l-2.8 1.073 2.248 1.488a.716.716 0 0 1 .319.689l-.355 2.952 3.206-2.227a.8.8 0 0 1 .29-.152Z" fill="#EEEEF1"/><path d="M221.418 164.612a.745.745 0 0 1-.29 0l-13.703-2.742a2.176 2.176 0 0 1-1.755-1.704l-3.293-16.075a2.166 2.166 0 0 1 .316-1.635 2.176 2.176 0 0 1 1.381-.933l24.163-4.947a2.173 2.173 0 0 1 2.568 1.69l3.293 16.082a2.176 2.176 0 0 1-.958 2.263l-11.483 7.907a.605.605 0 0 1-.239.094Zm-17.025-21.689a.734.734 0 0 0-.46.311.722.722 0 0 0-.106.545l3.294 16.082a.724.724 0 0 0 .594.566l13.398 2.706 11.186-7.74a.725.725 0 0 0 .326-.726l-3.228-16.118a.732.732 0 0 0-.31-.46.72.72 0 0 0-.546-.106l-24.148 4.94Z" fill="#EEEEF1"/><path d="M223.137 173.143a.645.645 0 0 1-.29 0l-13.681-2.756a2.174 2.174 0 0 1-1.755-1.712l-.667-3.279a.717.717 0 0 1 .166-.624.728.728 0 0 1 .653-.196l14.37 2.858 12.085-8.276a.722.722 0 0 1 .682-.073.722.722 0 0 1 .442.53l.668 3.278c.089.433.045.883-.127 1.29a2.186 2.186 0 0 1-.838.988l-11.468 7.899a.965.965 0 0 1-.24.073Zm-14.776-6.971.45 2.176a.723.723 0 0 0 .595.573l13.463 2.742 11.243-7.74a.72.72 0 0 0 .341-.776l-.449-2.176-11.44 7.834a.73.73 0 0 1-.551.109l-13.652-2.742Z" fill="#EEEEF1"/><path d="M224.885 181.674a1.006 1.006 0 0 1-.29 0l-13.681-2.764a2.175 2.175 0 0 1-1.755-1.705l-.675-3.286a.732.732 0 0 1 .198-.658.729.729 0 0 1 .658-.198l14.363 2.865 12.092-8.254a.73.73 0 0 1 1.117.449l.675 3.286a2.174 2.174 0 0 1-.965 2.271l-11.475 7.899a.744.744 0 0 1-.262.095Zm-14.754-6.971.45 2.212a.722.722 0 0 0 .595.573l13.405 2.699 11.236-7.74a.723.723 0 0 0 .348-.769l-.457-2.213-11.432 7.834a.71.71 0 0 1-.551.109l-13.594-2.705ZM96.383 326.853a.724.724 0 0 1-.065-.283l-.196-5.208-3.91-3.453a.725.725 0 0 1-.21-.726.726.726 0 0 1 .602-.507l4.105-.501 1.233-3.438a.723.723 0 0 1 .974-.422.724.724 0 0 1 .303.248l2.329 3.351 3.873.377a.73.73 0 0 1 .657.774.727.727 0 0 1-.12.351l-2.176 3.242 1.117 3.917a.732.732 0 0 1-.2.732.732.732 0 0 1-.743.153l-3.438-1.226-2.99 2.865a.724.724 0 0 1-.775.146.73.73 0 0 1-.37-.392Zm1.102-6.137a.726.726 0 0 1 .073.283l.145 3.903 2.176-2.053a.72.72 0 0 1 .726-.16l2.538.9-.826-2.902a.726.726 0 0 1 .094-.602l1.675-2.51-3.003-.297a.73.73 0 0 1-.529-.305l-1.712-2.466-.907 2.539a.727.727 0 0 1-.595.471l-2.952.363 2.902 2.582a.637.637 0 0 1 .195.269v-.015Z" fill="#EEEEF1"/><path d="M86.344 325.997a.626.626 0 0 1-.066-.283l-.58-13.942a2.175 2.175 0 0 1 1.233-2.111l14.798-7.029a2.169 2.169 0 0 1 1.666-.083 2.172 2.172 0 0 1 1.236 1.12l10.59 22.284a2.185 2.185 0 0 1 .087 1.665 2.19 2.19 0 0 1-1.117 1.237l-14.827 7.029a2.17 2.17 0 0 1-2.43-.385l-10.438-9.27a.786.786 0 0 1-.152-.232Zm17.003-21.711a.728.728 0 0 0-.965-.341l-14.827 7.029a.728.728 0 0 0-.413.726l.573 13.659 10.155 9.074a.72.72 0 0 0 .813.131l14.826-7.029a.723.723 0 0 0 .349-.965l-10.511-22.284Z" fill="#EEEEF1"/><path d="M78.517 329.725a.72.72 0 0 1-.073-.282l-.58-13.942a2.178 2.178 0 0 1 1.24-2.111l3.032-1.451a.728.728 0 0 1 .93.286.73.73 0 0 1 .1.338l.646 14.631 10.924 9.771a.723.723 0 0 1-.174 1.189l-3.032 1.451a2.178 2.178 0 0 1-2.437-.392l-10.439-9.255a.788.788 0 0 1-.137-.233Zm3.25-15.958-2.039.972a.72.72 0 0 0-.413.725l.565 13.659 10.163 9.017a.728.728 0 0 0 .834.152l2.039-.972-10.33-9.234a.731.731 0 0 1-.247-.508l-.573-13.811Z" fill="#EEEEF1"/><path d="M70.61 333.454a.726.726 0 0 1-.065-.283l-.58-13.942a2.177 2.177 0 0 1 1.24-2.125l3.025-1.451a.722.722 0 0 1 .725 0 .73.73 0 0 1 .348.587l.646 14.632 10.88 9.771a.716.716 0 0 1 .106.964.715.715 0 0 1-.272.225l-3.032 1.451a2.178 2.178 0 0 1-2.438-.392l-10.409-9.205a.792.792 0 0 1-.174-.232Zm3.257-15.995-2.046.972a.726.726 0 0 0-.413.725l.58 13.645 10.2 9.075a.724.724 0 0 0 .826.152l2.031-.987-10.33-9.226a.735.735 0 0 1-.239-.508l-.609-13.848ZM10.047 192.083l-1.45.29a2.168 2.168 0 0 1-1.636-.317 2.164 2.164 0 0 1-.932-1.38l-2.01-9.945a2.178 2.178 0 0 1 1.69-2.568l1.451-.298a2.187 2.187 0 0 1 1.636.317 2.181 2.181 0 0 1 .932 1.381l2.038 9.952a2.173 2.173 0 0 1-.929 2.244c-.24.159-.508.269-.79.324Zm-4.07-12.506a.714.714 0 0 0-.46.311.718.718 0 0 0-.105.545l2.038 9.952a.714.714 0 0 0 .311.461.733.733 0 0 0 .545.105l1.451-.29a.723.723 0 0 0 .559-.856l-2.032-9.952a.719.719 0 0 0-.308-.465.738.738 0 0 0-.547-.108l-1.451.297Z" fill="#EEEEF1"/><path d="m6.913 191.242-2.843.58a2.179 2.179 0 0 1-2.568-1.661l-1.45-7.109a2.175 2.175 0 0 1 1.697-2.568l2.843-.58a.722.722 0 0 1 .856.558.725.725 0 0 1-.566.863l-2.843.581a.73.73 0 0 0-.46.31.73.73 0 0 0-.106.546l1.45 7.101a.72.72 0 0 0 .312.46.729.729 0 0 0 .545.106l2.843-.58a.729.729 0 0 1 .545.105.734.734 0 0 1 .311.461.723.723 0 0 1-.566.827ZM41.311 185.678l-1.45.29a2.168 2.168 0 0 1-1.636-.317 2.176 2.176 0 0 1-.932-1.381l-2.01-9.945a2.174 2.174 0 0 1 1.698-2.568l1.45-.29a2.177 2.177 0 0 1 2.568 1.69l2.039 9.953a2.178 2.178 0 0 1-1.727 2.568Zm-4.04-12.499a.732.732 0 0 0-.567.573.725.725 0 0 0 .001.283l2.038 9.945a.72.72 0 0 0 .311.46.729.729 0 0 0 .545.106l1.451-.29a.714.714 0 0 0 .46-.311.719.719 0 0 0 .106-.545l-2.067-9.923a.725.725 0 0 0-.856-.559l-1.422.261Z" fill="#EEEEF1"/><path d="m45.286 183.385-2.843.581a.741.741 0 0 1-.76-1.136.742.742 0 0 1 .47-.315l2.843-.58a.732.732 0 0 0 .567-.573.725.725 0 0 0-.001-.283l-1.45-7.109a.73.73 0 0 0-.574-.567.729.729 0 0 0-.283.001l-2.843.58a.71.71 0 0 1-.545-.105.73.73 0 0 1-.313-.743.73.73 0 0 1 .306-.464.73.73 0 0 1 .261-.109l2.851-.537a2.168 2.168 0 0 1 1.636.317 2.166 2.166 0 0 1 .932 1.38l1.451 7.109a2.178 2.178 0 0 1-1.705 2.553ZM37.982 173.034a.729.729 0 0 1-.545-.105.733.733 0 0 1-.311-.461 15.231 15.231 0 0 0-17.93-11.693 15.234 15.234 0 0 0-11.92 17.779.725.725 0 0 1-.842.858.733.733 0 0 1-.463-.306.728.728 0 0 1-.11-.261 16.686 16.686 0 0 1 19.521-19.985 16.69 16.69 0 0 1 13.165 13.296.728.728 0 0 1-.565.878ZM35.617 200.911a.729.729 0 0 1-.682-.225.725.725 0 0 1 .058-1.023 15.313 15.313 0 0 0 4.752-14.406.739.739 0 1 1 1.45-.29 16.776 16.776 0 0 1-5.208 15.777.72.72 0 0 1-.37.167Z" fill="#EEEEF1"/><path d="m34.565 203.348-2.843.58a2.173 2.173 0 0 1-2.681-1.669 2.178 2.178 0 0 1 1.81-2.589l2.844-.587a2.176 2.176 0 1 1 .87 4.265Zm-3.424-2.263a.721.721 0 0 0-.57.578.725.725 0 0 0 .86.844l2.844-.581a.738.738 0 1 0-.29-1.45l-2.844.609ZM22.451 44.285a13.058 13.058 0 1 1 10.403-23.954 13.058 13.058 0 0 1-10.403 23.954Zm9.83-22.625a11.606 11.606 0 1 0-9.276 21.279A11.606 11.606 0 0 0 32.28 21.66Z" fill="#EEEEF1"/><path d="m28.087 40.404-6.651-2.901a.725.725 0 0 1-.378-.958l1.161-2.662a.725.725 0 0 1 .95-.363l.668.29 1.726-3.96-.667-.29a.725.725 0 0 1-.37-.98l1.16-2.662a.726.726 0 0 1 .537-.42l5.143-.936a.725.725 0 0 1 .42.05l1.328.58a.726.726 0 0 1 .378.951l-4.302 9.981.66.29a.725.725 0 0 1 .377.95l-1.182 2.641a.726.726 0 0 1-.958.4Zm-5.425-3.932 5.317 2.314.58-1.334-.668-.283a.725.725 0 0 1-.377-.958l4.36-9.988-.464-.196-4.549.82-.725 1.646.66.283a.725.725 0 0 1 .377.958l-2.3 5.324a.726.726 0 0 1-.95.377l-.667-.29-.595 1.327ZM20.347 65.51a.726.726 0 0 1-.384-.4l-3.105-7.913-7.936 3.12a.725.725 0 0 1-.769-.168.725.725 0 0 1-.145-.79l8.705-19.963a.723.723 0 0 1 .958-.377.724.724 0 0 1 .326.986l-7.98 18.352 6.957-2.741a.725.725 0 0 1 .95.348l2.742 6.964 7.98-18.36a.726.726 0 0 1 1.344.023.728.728 0 0 1-.01.557l-8.704 19.963a.725.725 0 0 1-.675.435.595.595 0 0 1-.254-.036Z" fill="#EEEEF1"/><path d="M16.409 52.728a.725.725 0 0 1-.377-.95l4.047-9.314a.725.725 0 0 1 1.328.573l-4.04 9.3a.724.724 0 0 1-.958.391ZM21.559 51.8a.725.725 0 0 1-.348-.914l2.901-6.652a.725.725 0 1 1 1.335.573l-2.902 6.66a.725.725 0 0 1-.986.333ZM287.472 210.892a13.058 13.058 0 0 1-17.718-9.666 13.059 13.059 0 0 1 20.166-13.24 13.054 13.054 0 0 1 4.683 15.895 13.059 13.059 0 0 1-7.131 7.011Zm-9.27-22.857a11.606 11.606 0 1 0 8.723 21.51 11.606 11.606 0 0 0-8.723-21.51Z" fill="#EEEEF1"/><path d="m288.655 204.146-6.725 2.735a.714.714 0 0 1-.556-.008.716.716 0 0 1-.387-.398l-1.088-2.684a.724.724 0 0 1 .399-.943l.667-.276-1.632-4.033-.674.275a.724.724 0 0 1-.943-.398l-1.096-2.692a.72.72 0 0 1 .073-.682l2.945-4.352a.724.724 0 0 1 .326-.268l1.342-.544a.724.724 0 0 1 .943.399l4.092 10.083.674-.269a.724.724 0 0 1 .943.399l1.096 2.684a.726.726 0 0 1-.399.972Zm-6.594 1.117 5.375-2.176-.544-1.349-.675.275a.724.724 0 0 1-.943-.399l-4.091-10.082-.471.188-2.597 3.823.667 1.661.675-.276a.728.728 0 0 1 .943.399l2.176 5.376a.738.738 0 0 1-.002.558.728.728 0 0 1-.397.392l-.675.268.559 1.342ZM301.16 227.257a.72.72 0 0 1-.551 0l-7.842-3.308-3.308 7.834a.725.725 0 0 1-1.342 0l-8.182-20.165a.73.73 0 0 1-.022-.576.743.743 0 0 1 .159-.247.735.735 0 0 1 .534-.216.725.725 0 0 1 .671.495l7.529 18.541 2.902-6.892a.726.726 0 0 1 .95-.384l6.891 2.901-7.522-18.541a.72.72 0 0 1 .382-.985.734.734 0 0 1 .575.013.73.73 0 0 1 .385.428l8.183 20.159a.736.736 0 0 1 .04.42.735.735 0 0 1-.2.371.729.729 0 0 1-.232.152Z" fill="#EEEEF1"/><path d="M289.278 221.12a.724.724 0 0 1-.943-.399l-3.823-9.43a.738.738 0 0 1 .002-.558.717.717 0 0 1 .397-.392.724.724 0 0 1 .943.399l3.823 9.43a.72.72 0 0 1-.001.558.736.736 0 0 1-.398.392ZM292.216 216.797a.72.72 0 0 1-.556-.008.708.708 0 0 1-.387-.398l-2.728-6.717a.73.73 0 0 1 .415-.904.726.726 0 0 1 .927.359l2.728 6.718a.738.738 0 0 1-.002.558.728.728 0 0 1-.397.392ZM101.003 232.69l-26.839-6.34a2.166 2.166 0 0 1-1.351-.974 2.178 2.178 0 0 1-.267-1.644l9.684-40.949a2.176 2.176 0 0 1 2.619-1.61l26.839 6.34a2.184 2.184 0 0 1 1.352.974 2.168 2.168 0 0 1 .266 1.645l-9.698 40.94a2.176 2.176 0 0 1-2.605 1.618Zm-16.488-50.11a.728.728 0 0 0-.878.537l-9.683 40.948a.725.725 0 0 0 .544.871l26.839 6.347a.725.725 0 0 0 .871-.544l9.676-40.941a.724.724 0 0 0-.537-.871l-26.832-6.347Z" fill="#EEEEF1"/><path d="m103.731 227.38-29.647-7.014a.732.732 0 0 1-.602-.587.726.726 0 0 1 .936-.82l29.646 7.007a.737.737 0 0 1 .452.325.72.72 0 0 1 .089.549.729.729 0 0 1-.874.54ZM91.994 217.145l-2.829-.667a10.157 10.157 0 0 1-7.544-12.216l1.168-4.947a.75.75 0 0 1 .33-.464.738.738 0 0 1 .562-.095.744.744 0 0 1 .567.602.748.748 0 0 1-.008.291l-1.168 4.947a8.703 8.703 0 0 0 6.463 10.474l2.83.668a8.702 8.702 0 0 0 6.577-1.066 8.714 8.714 0 0 0 3.897-5.405l1.168-4.94a.713.713 0 0 1 .268-.591.717.717 0 0 1 .634-.14.718.718 0 0 1 .546.754.731.731 0 0 1-.099.318l-1.168 4.94a10.154 10.154 0 0 1-12.194 7.537Z" fill="#EEEEF1"/><path d="M83.333 200.193a.734.734 0 0 1-.455-.325.73.73 0 0 1-.089-.553l2.336-9.88a.724.724 0 0 1 .878-.537c4.707 1.11 3.96 10.881 3.866 11.991a.728.728 0 1 1-1.45-.13c.224-2.452.217-8.611-2.075-10.156l-2.177 9.046a.728.728 0 0 1-.834.544ZM104.507 205.198a.73.73 0 0 1-.537-.871l2.176-9.045c-2.742.348-5.505 5.854-6.405 8.139a.727.727 0 1 1-1.356-.53c.413-1.037 4.12-10.097 8.828-8.987a.72.72 0 0 1 .555.592.739.739 0 0 1-.011.285l-2.401 9.887a.729.729 0 0 1-.849.53Z" fill="#EEEEF1"/><path d="m101.685 204.531-15.53-3.671a.724.724 0 0 1-.537-.878.73.73 0 0 1 .878-.536l15.53 3.677a.728.728 0 0 1 .484.858.727.727 0 0 1-.817.55h-.008ZM86.576 205.43a.733.733 0 0 1-.57-.599.744.744 0 0 1 .896-.852.732.732 0 0 1 .602.587.726.726 0 0 1-.936.821l.008.043ZM99.284 208.433a.714.714 0 0 1-.499-.307.723.723 0 0 1 .243-1.044.732.732 0 0 1 .583-.056.728.728 0 0 1 .483.858.725.725 0 0 1-.817.549h.007ZM91.573 212.575a4.35 4.35 0 0 1-3.235-5.237l.167-.726a.723.723 0 0 1 .892-.493l7.058 1.669a.722.722 0 0 1 .537.87l-.167.725a4.355 4.355 0 0 1-5.252 3.192Zm-1.82-4.904a2.905 2.905 0 0 0 2.132 3.573 2.917 2.917 0 0 0 2.226-.374 2.9 2.9 0 0 0 1.285-1.857l-5.644-1.342ZM88.947 226.865l-1.414-.333a.73.73 0 0 1-.54-.875.73.73 0 0 1 .874-.54l1.45.334a.744.744 0 1 1-.333 1.451l-.037-.037ZM172.817 226.43a.74.74 0 0 1-.558.011.733.733 0 0 1-.4-.388 1.45 1.45 0 0 0-2.682.049 1.45 1.45 0 0 0 .02 1.111.72.72 0 0 1 .045.581.738.738 0 0 1-.398.427.728.728 0 0 1-.974-.434 2.907 2.907 0 0 1-.124-2.284 2.892 2.892 0 0 1 1.57-1.664 2.899 2.899 0 0 1 3.871 1.641.725.725 0 0 1-.37.95Z" fill="#EEEEF1"/><path d="M176.821 224.682a.734.734 0 0 1-.557.01.735.735 0 0 1-.239-.153.753.753 0 0 1-.161-.234 1.448 1.448 0 0 0-1.358-.872 1.467 1.467 0 0 0-1.019.444 1.44 1.44 0 0 0-.285 1.588.736.736 0 0 1 .011.564.723.723 0 0 1-.396.401.734.734 0 0 1-.557.011.737.737 0 0 1-.4-.388 2.903 2.903 0 1 1 5.324-2.314.724.724 0 0 1-.363.943Z" fill="#EEEEF1"/><path d="M180.796 222.948a.721.721 0 0 1-.553.007.719.719 0 0 1-.397-.384 1.463 1.463 0 0 0-.796-.787 1.442 1.442 0 0 0-1.12.014 1.455 1.455 0 0 0-.873 1.37c.005.192.048.381.127.556a.727.727 0 0 1-.378.958.729.729 0 0 1-.957-.377 2.9 2.9 0 0 1 1.505-3.82 2.907 2.907 0 0 1 3.819 1.506.716.716 0 0 1 .011.557.721.721 0 0 1-.388.4ZM173.985 229.078l-2.662 1.153a2.176 2.176 0 0 1-2.865-1.124l-.573-1.335a.722.722 0 0 1 .399-.898.724.724 0 0 1 .928.325l.58 1.327a.729.729 0 0 0 .951.378l2.002-.871-.871-1.995a.728.728 0 0 1 .353-1.007.724.724 0 0 1 .975.434l1.16 2.655a.72.72 0 0 1-.143.796.728.728 0 0 1-.234.162Z" fill="#EEEEF1"/><path d="m177.975 227.344-3.99 1.734a.74.74 0 0 1-.278.061.742.742 0 0 1-.518-.205.7.7 0 0 1-.161-.234l-1.154-2.662a.732.732 0 0 1-.044-.581.718.718 0 0 1 .688-.485.724.724 0 0 1 .684.493l.87 1.995 2.662-1.161-.87-1.994a.724.724 0 0 1 .653-1.013.72.72 0 0 1 .681.432l1.154 2.662a.74.74 0 0 1 .01.558.735.735 0 0 1-.153.239.741.741 0 0 1-.234.161Z" fill="#EEEEF1"/><path d="m180.637 226.183-2.663 1.161a.726.726 0 0 1-.95-.377l-1.161-2.662a.73.73 0 0 1 .378-.951.72.72 0 0 1 .794.139.708.708 0 0 1 .163.231l.863 2.002 1.995-.87a.73.73 0 0 0 .388-.4.723.723 0 0 0-.011-.558l-.573-1.327a.715.715 0 0 1 .119-.821.741.741 0 0 1 .525-.23.725.725 0 0 1 .684.471l.58 1.334a2.178 2.178 0 0 1-1.131 2.858Z" fill="#EEEEF1"/><path d="M180.797 222.948a.724.724 0 0 1-.951-.377l-1.16-2.662a2.185 2.185 0 0 1-.029-1.668 2.18 2.18 0 0 1 1.16-1.197 7.98 7.98 0 0 0 4.135-10.497l-2.314-5.324a7.98 7.98 0 0 0-10.496-4.135l-14.639 6.362a7.977 7.977 0 0 0-4.134 10.496l2.314 5.324a7.976 7.976 0 0 0 10.496 4.135 2.18 2.18 0 0 1 2.382.432c.205.2.37.437.483.7l1.154 2.662a.732.732 0 0 1 .044.581.718.718 0 0 1-.397.426.73.73 0 0 1-.583-.003.74.74 0 0 1-.241-.174.742.742 0 0 1-.151-.257l-1.161-2.662a.722.722 0 0 0-.95-.37 9.439 9.439 0 0 1-7.218.127 9.424 9.424 0 0 1-5.193-5.016l-2.292-5.325a9.428 9.428 0 0 1 4.889-12.404l14.638-6.361a9.426 9.426 0 0 1 12.39 4.889l2.306 5.317a9.421 9.421 0 0 1 .127 7.218 9.421 9.421 0 0 1-5.016 5.193.73.73 0 0 0-.377.95l1.161 2.663a.734.734 0 0 1 .01.557.721.721 0 0 1-.387.4Z" fill="#EEEEF1"/><path d="M163.387 221.033a4.338 4.338 0 0 1-3.333.06 4.362 4.362 0 0 1-2.398-2.316c-.957-2.212-.725-2.851 1.509-3.815 1.451-.631 5.325-2.314 6.478.348a4.352 4.352 0 0 1-2.256 5.723Zm-3.627-4.758a3.39 3.39 0 0 0-1.168.645c.051.447.192.879.414 1.27a2.903 2.903 0 1 0 5.324-2.314c-.413-.871-1.951-.733-4.57.399ZM179.346 214.098a4.35 4.35 0 0 1-5.724-2.256c-1.16-2.662 2.706-4.352 4.164-4.976 2.176-.964 2.851-.725 3.816 1.502a4.351 4.351 0 0 1-2.256 5.73Zm-.98-5.904c-2.654 1.153-3.801 2.176-3.416 3.068a2.904 2.904 0 0 0 5.363-.092 2.913 2.913 0 0 0-.039-2.222 3.39 3.39 0 0 0-.645-1.168c-.447.05-.879.191-1.27.414h.007ZM170.518 221.091a.717.717 0 0 1-.556.014.732.732 0 0 1-.402-.384l-1.153-2.662a.731.731 0 0 1-.034-.572.714.714 0 0 1 .392-.418.72.72 0 0 1 .813.162.709.709 0 0 1 .156.248l1.161 2.662a.726.726 0 0 1-.377.95ZM174.507 219.358a.718.718 0 0 1-.557.01.721.721 0 0 1-.4-.388l-1.154-2.655a.734.734 0 0 1-.01-.557.721.721 0 0 1 .94-.407c.178.07.321.208.398.384l1.16 2.662a.726.726 0 0 1-.377.951ZM170.292 10.99 159.47 6.81a2.177 2.177 0 0 1-1.241-2.814l1.052-2.706a.725.725 0 0 1 .936-.413l12.172 4.715a.726.726 0 0 1-.522 1.356l-11.498-4.454-.783 2.024a.724.724 0 0 0 .413.943l10.816 4.193a.733.733 0 0 1 .404.38.72.72 0 0 1 .016.555.723.723 0 0 1-.943.4Z" fill="#EEEEF1"/><path d="m168.718 15.066-4.055-1.574a2.175 2.175 0 0 1-1.24-2.814l1.045-2.706a.72.72 0 0 1 .663-.464.729.729 0 0 1 .693.986l-1.052 2.706a.724.724 0 0 0 .414.943l4.062 1.567a.727.727 0 1 1-.53 1.356Z" fill="#EEEEF1"/><path d="M191.278 33.143a.733.733 0 0 1-.399-.392l-.95-2.176-2.176.943a.73.73 0 0 1-.559 0l-14.856-5.716a.728.728 0 0 1-.428-.442l-3.627-10.736a.73.73 0 0 1 0-.5l3.148-8.11a.72.72 0 0 1 .381-.405.728.728 0 0 1 .555-.016l20.311 7.87c.179.07.322.209.399.385l.537 1.211 1.211-.537a.73.73 0 0 1 .559 0l5.404 2.097a2.175 2.175 0 0 1 1.248 2.821l-4.868 12.55a2.173 2.173 0 0 1-2.132 1.385l-3.54-.167a.781.781 0 0 1-.218-.065Zm-18.098-8.567 14.283 5.535 2.538-1.125a.73.73 0 0 1 .795.139.733.733 0 0 1 .163.232l1.066 2.408 3.09.145a.727.727 0 0 0 .726-.457l4.86-12.557a.722.722 0 0 0-.414-.935l-5.128-1.988-1.603.725a.725.725 0 0 1-.958-.37l-.725-1.603-19.332-7.515-2.785 7.196 3.424 10.17ZM161.044 2.756a.726.726 0 0 1-.414-.943l.523-1.349a.72.72 0 0 1 .663-.464.725.725 0 0 1 .679.433.722.722 0 0 1 .014.554l-.522 1.356a.722.722 0 0 1-.386.403.722.722 0 0 1-.557.01Z" fill="#EEEEF1"/><path d="m186.085 26.462-1.35-.522a.728.728 0 0 1-.464-.61l-.907-9.69a.731.731 0 0 1 1.009-.74l5.411 2.096a.727.727 0 0 1 .406.384l2.481 5.63a.713.713 0 0 1 .014.555.734.734 0 0 1-.384.402l-5.629 2.48a.723.723 0 0 1-.587.015Zm-.407-1.69.653.254 4.693-2.075-2.074-4.707-4.033-1.56.761 8.088ZM182.029 24.888l-5.411-2.096a.724.724 0 0 1-.428-.457l-2.793-8.857a.724.724 0 0 1 0-.486l.53-1.35a.727.727 0 0 1 .936-.413l6.76 2.619a.722.722 0 0 1 .465.609l.914 9.691a.725.725 0 0 1-.62.779.726.726 0 0 1-.353-.039Zm-4.562-3.322 3.989 1.545-.725-8.074-5.665-2.176-.174.443 2.575 8.262Z" fill="#EEEEF1"/><path d="M179.803 18.584a4.351 4.351 0 0 1-2.481-5.629.734.734 0 0 1 .381-.404.726.726 0 0 1 .795.136.738.738 0 0 1 .224.51.743.743 0 0 1-.051.28 2.9 2.9 0 0 0 1.661 3.75c.372.146.77.212 1.168.197a.724.724 0 1 1 0 1.45 4.299 4.299 0 0 1-1.697-.29Z" fill="#EEEEF1"/><path d="M179.911 16.292a.62.62 0 0 1-.268-.188.724.724 0 0 1 .043-1.023l1.204-1.095a.727.727 0 0 1 1.023.05.721.721 0 0 1-.051 1.023l-1.196 1.095a.731.731 0 0 1-.755.138ZM163.837 11.614l-2.706-1.045a2.174 2.174 0 0 1-1.248-2.815l.53-1.356a.723.723 0 0 1 1.349.522l-.551 1.357a.726.726 0 0 0 .413.935l2.735 1.052a.726.726 0 0 1 .031 1.335.725.725 0 0 1-.553.014ZM179.984 10.097a.727.727 0 0 1-.413-.943l1.044-2.705a.738.738 0 0 1 .386-.403.722.722 0 0 1 .557-.01.716.716 0 0 1 .403.385.719.719 0 0 1 .011.557l-1.052 2.706a.725.725 0 0 1-.936.413ZM185.396 12.194a.717.717 0 0 1-.403-.386.723.723 0 0 1-.011-.558l1.045-2.705a.72.72 0 0 1 .663-.464.725.725 0 0 1 .52.203.737.737 0 0 1 .224.51.743.743 0 0 1-.051.28l-1.052 2.706a.723.723 0 0 1-.935.414Z" fill="#EEEEF1"/><path d="M189.146 10.533 178.33 6.34a2.174 2.174 0 0 1-1.248-2.815l.53-1.356a2.176 2.176 0 0 1 2.814-1.24l10.823 4.192a2.177 2.177 0 0 1 1.241 2.822l-.523 1.35a2.166 2.166 0 0 1-1.153 1.205 2.174 2.174 0 0 1-1.668.035Zm-9.249-8.248a.725.725 0 0 0-.936.413l-.522 1.35a.738.738 0 0 0 .173.79.726.726 0 0 0 .24.153l10.823 4.192a.725.725 0 0 0 .936-.413l.522-1.357a.724.724 0 0 0-.413-.936l-10.823-4.192ZM150.192 143.852l-13.978-3.881a.71.71 0 0 1-.253-.127.707.707 0 0 1-.275-.483.726.726 0 0 1 .913-.79l13.281 3.714 4.462-16.075a.726.726 0 0 0-.508-.892l-37.72-10.474a.711.711 0 0 0-.552.068.727.727 0 0 0-.341.439l-4.483 16.053 13.282 3.685a.729.729 0 0 1 .374 1.146.718.718 0 0 1-.483.275.743.743 0 0 1-.282-.021l-13.979-3.881a.724.724 0 0 1-.507-.892l4.657-16.778a2.173 2.173 0 0 1 2.676-1.516l37.72 10.474a2.189 2.189 0 0 1 1.316 1.028 2.18 2.18 0 0 1 .2 1.656l-4.657 16.764a.73.73 0 0 1-.329.427.732.732 0 0 1-.534.081Z" fill="#EEEEF1"/><path d="m144.135 160.238-37.72-10.474a2.175 2.175 0 0 1-1.516-2.677l4.809-17.475a.71.71 0 0 1 .341-.438.714.714 0 0 1 .551-.069.721.721 0 0 1 .501.892l-4.846 17.474a.728.728 0 0 0 .501.893l37.72 10.474a.722.722 0 0 0 .892-.5l4.897-17.504a.723.723 0 0 1 .892-.508.73.73 0 0 1 .508.893l-4.853 17.474a2.177 2.177 0 0 1-2.677 1.545Z" fill="#EEEEF1"/><path d="M128.365 143.816a7.262 7.262 0 0 1-5.266-6.097 7.26 7.26 0 0 1 3.613-7.201 7.25 7.25 0 0 1 4.105-.929 7.246 7.246 0 0 1 6.363 4.941 7.261 7.261 0 0 1-1.153 6.744 7.256 7.256 0 0 1-7.662 2.542Zm3.497-12.579a5.812 5.812 0 0 0-6.124 2.019 5.807 5.807 0 0 0-.479 6.43 5.807 5.807 0 0 0 10.643-1.304 5.814 5.814 0 0 0-.54-4.409 5.798 5.798 0 0 0-3.5-2.736Z" fill="#EEEEF1"/><path d="m130.541 141.407-2.792-.776a.726.726 0 0 1-.472-.406.732.732 0 0 1 0-.617l.979-1.937a.79.79 0 0 0-.058-.725 2.907 2.907 0 0 1 .175-3.252 2.9 2.9 0 1 1 3.67 4.318.783.783 0 0 0-.443.617l-.152 2.176a.732.732 0 0 1-.312.544.73.73 0 0 1-.595.058Zm-1.552-1.937 1.088.305.094-1.277a2.224 2.224 0 0 1 1.205-1.784 1.46 1.46 0 0 0 .725-.899 1.45 1.45 0 0 0-.203-1.205 1.45 1.45 0 0 0-1.074-.631 1.451 1.451 0 0 0-1.364 2.176 2.218 2.218 0 0 1 .109 2.177l-.58 1.138ZM110.586 150.924a.724.724 0 0 1-.508-.892l4.657-16.771a.744.744 0 0 1 .341-.439.73.73 0 0 1 .99.272.73.73 0 0 1 .069.552l-4.657 16.778a.722.722 0 0 1-.892.5ZM139.942 159.078a.721.721 0 0 1-.442-.344.72.72 0 0 1-.066-.556l4.657-16.771a.744.744 0 0 1 .127-.253.743.743 0 0 1 .483-.275.724.724 0 0 1 .79.913l-4.657 16.778a.724.724 0 0 1-.892.508ZM119.436 135.314a.723.723 0 0 1-.508-.892l5.078-18.135a.72.72 0 0 1 .608-.589.73.73 0 0 1 .752.389.728.728 0 0 1 .032.585l-5.077 18.178a.726.726 0 0 1-.885.464ZM140.407 141.132a.73.73 0 0 1-.508-.893l5.042-18.171a.72.72 0 0 1 .613-.525.726.726 0 0 1 .787.917l-5.042 18.171a.725.725 0 0 1-.892.501ZM146.631 145.912a.723.723 0 0 1-.508-.892.723.723 0 0 1 .892-.508.727.727 0 1 1-.392 1.4h.008ZM145.854 148.668a.724.724 0 0 1 .102-1.42.73.73 0 0 1 .283.02.727.727 0 0 1-.392 1.393l.007.007ZM145.078 151.468a.723.723 0 0 1-.165-1.333.726.726 0 1 1 .158 1.333h.007ZM144.302 154.261a.723.723 0 0 1-.508-.892.726.726 0 0 1 1.146-.379.724.724 0 0 1 .247.771.725.725 0 0 1-.885.5ZM143.526 157.061a.723.723 0 0 1-.508-.899.725.725 0 1 1 1.396.395.727.727 0 0 1-.896.504h.008ZM111.681 136.177a.71.71 0 0 1-.438-.341.715.715 0 0 1-.07-.551.744.744 0 0 1 .341-.439.736.736 0 0 1 .552-.069.727.727 0 0 1-.392 1.4h.007ZM110.905 138.97a.71.71 0 0 1-.253-.127.707.707 0 0 1-.275-.483.726.726 0 0 1 1.166-.661.726.726 0 0 1-.638 1.271ZM110.129 141.77a.71.71 0 0 1-.442-.344.74.74 0 0 1-.089-.271.73.73 0 0 1 .915-.785.725.725 0 0 1 .161 1.333.724.724 0 0 1-.552.067h.007ZM109.353 144.563a.744.744 0 0 1-.439-.341.73.73 0 0 1 .272-.99.732.732 0 0 1 .551-.069.721.721 0 0 1 .501.892.729.729 0 0 1-.885.508ZM108.577 147.363a.726.726 0 1 1 .384-1.4.724.724 0 0 1-.392 1.392l.008.008ZM385.232 275.59l-24.866 17.576a2.178 2.178 0 0 1-3.032-.515l-24.308-34.304a2.178 2.178 0 0 1 .515-3.039l24.867-17.598a2.174 2.174 0 0 1 3.032.515l24.315 34.34a2.177 2.177 0 0 1-.523 3.025Zm-50.849-19.1a.72.72 0 0 0-.295.468.72.72 0 0 0 .121.54l24.307 34.34a.716.716 0 0 0 .472.299.734.734 0 0 0 .544-.125l24.866-17.605a.725.725 0 0 0 .167-1.008l-24.308-34.34a.724.724 0 0 0-1.008-.174l-24.866 17.605Z" fill="#EEEEF1"/><path d="m371.131 260.69-20.129 14.254a.736.736 0 0 1-.544.125.727.727 0 0 1-.472-.299l-11.729-16.582a.728.728 0 0 1 .166-1.009l20.13-14.246a.723.723 0 0 1 1.015.166l11.737 16.583a.724.724 0 0 1-.174 1.008Zm-20.376 12.651 18.947-13.413-10.881-15.392-18.94 13.405 10.874 15.4ZM364.116 283.431l-2.364 1.676a.729.729 0 0 1-1.009-.174l-1.262-1.778-1.777 1.255a.727.727 0 0 1-1.008-.166l-1.676-2.373a.723.723 0 0 1 .174-1.008l1.77-1.262-1.255-1.77a.72.72 0 0 1-.022-.81.722.722 0 0 1 .196-.205l2.365-1.676a.728.728 0 0 1 1.016.174l1.255 1.777 1.777-1.262a.724.724 0 0 1 1.008.174l1.683 2.372a.724.724 0 0 1-.174 1.008l-1.777 1.255 1.255 1.778a.73.73 0 0 1 .022.809.716.716 0 0 1-.197.206Zm-2.611.073 1.182-.842-1.269-1.777a.724.724 0 0 1 .174-1.008l1.777-1.255-.841-1.19-1.777 1.262a.724.724 0 0 1-1.009-.174l-1.226-1.777-1.182.841 1.262 1.778a.724.724 0 0 1-.174 1.008l-1.777 1.255.834 1.182 1.763-1.247a.714.714 0 0 1 .544-.125.732.732 0 0 1 .471.299l1.248 1.77ZM375.2 270.236a2.901 2.901 0 1 1-3.313-4.763 2.901 2.901 0 0 1 3.313 4.763Zm-2.517-3.554a1.452 1.452 0 0 0 .592 2.614 1.457 1.457 0 0 0 1.697-1.467 1.46 1.46 0 0 0-.265-.799 1.45 1.45 0 0 0-2.002-.348h-.022ZM373.024 277.142a2.904 2.904 0 0 1-4.326-1.184 2.905 2.905 0 0 1 2.004-4.013 2.901 2.901 0 0 1 2.322 5.197Zm-2.539-3.562a1.454 1.454 0 0 0-.16 2.237 1.448 1.448 0 0 0 1.588.273 1.45 1.45 0 1 0-1.428-2.51Z" fill="#EEEEF1"/><path d="M362.745 248.852a6.529 6.529 0 0 1-9.096-1.56.726.726 0 0 1 1.182-.834 5.08 5.08 0 0 0 7.08 1.204.726.726 0 1 1 .834 1.19Z" fill="#EEEEF1"/><path d="M357.842 253.211a.71.71 0 0 1-.26.116.724.724 0 0 1-.879-.826l.522-3.033a.737.737 0 0 1 1.451.24l-.522 3.039a.73.73 0 0 1-.312.464ZM353.968 251.514a.73.73 0 0 1-.966-.095.725.725 0 0 1-.006-.971l1.952-2.271a.718.718 0 0 1 .503-.296.727.727 0 0 1 .74.408.723.723 0 0 1-.148.831l-1.944 2.271c-.04.045-.084.086-.131.123ZM362.056 252.892a.726.726 0 0 1-1.095-.326l-1.081-2.786a.714.714 0 0 1 .008-.555.729.729 0 0 1 .678-.438.72.72 0 0 1 .663.464l1.081 2.785a.728.728 0 0 1-.254.856ZM368.614 257.136l-20.13 14.268a.721.721 0 0 1-.967-.203.723.723 0 0 1 .133-.979l20.129-14.254a.736.736 0 0 1 .558-.158.735.735 0 0 1 .495.301.728.728 0 0 1-.218 1.039v-.014Z" fill="#EEEEF1"/><path d="M354.404 267.197a.724.724 0 0 1-1.008-.174l-2.518-3.547a.73.73 0 0 1 1.19-.842l2.51 3.555a.724.724 0 0 1-.174 1.008Z" fill="#EEEEF1"/><path d="M351.894 263.642a3.622 3.622 0 0 1-5.078-.863l-.841-1.182a3.627 3.627 0 0 1 5.919-4.193l.841 1.182a3.627 3.627 0 0 1-.841 5.056Zm-4.193-5.919a2.18 2.18 0 0 0-.522 3.032l.841 1.19a2.178 2.178 0 0 0 3.555-2.517l-.842-1.182a2.173 2.173 0 0 0-3.032-.523ZM365.045 259.653a.729.729 0 0 1-1.008-.174l-1.255-1.777a1.454 1.454 0 0 0-1.508-.574 1.452 1.452 0 0 0-.516.233l-1.182.834a1.445 1.445 0 0 0-.579 1.506c.042.186.12.362.23.518l1.255 1.777a.723.723 0 0 1-.71 1.169.714.714 0 0 1-.472-.335l-1.255-1.77a2.898 2.898 0 0 1-.09-3.225 2.91 2.91 0 0 1 .779-.823l1.233-.841a2.902 2.902 0 0 1 4.048.725l1.255 1.778a.723.723 0 0 1-.225.979ZM336.472 192.083l-1.451.29a2.166 2.166 0 0 1-1.636-.317 2.17 2.17 0 0 1-.932-1.38l-2.009-9.945a2.176 2.176 0 0 1 1.69-2.568l1.451-.298a2.185 2.185 0 0 1 1.635.317 2.176 2.176 0 0 1 .933 1.381l2.038 9.952a2.187 2.187 0 0 1-.325 1.642 2.164 2.164 0 0 1-1.394.926Zm-4.07-12.506a.717.717 0 0 0-.46.311.726.726 0 0 0-.106.545l2.039 9.952a.717.717 0 0 0 .311.461.726.726 0 0 0 .545.105l1.451-.29a.72.72 0 0 0 .455-.313.722.722 0 0 0 .103-.543l-2.031-9.952a.715.715 0 0 0-.309-.465.73.73 0 0 0-.547-.108l-1.451.297Z" fill="#EEEEF1"/><path d="m333.339 191.241-2.844.581a2.177 2.177 0 0 1-2.568-1.69l-1.451-7.109a2.19 2.19 0 0 1 .317-1.636 2.186 2.186 0 0 1 1.381-.932l2.843-.58a.722.722 0 0 1 .543.103.72.72 0 0 1 .317.74.733.733 0 0 1-.57.578l-2.843.581a.732.732 0 0 0-.46.31.72.72 0 0 0-.106.546l1.451 7.101a.725.725 0 0 0 .856.566l2.843-.58a.737.737 0 0 1 .871.58.74.74 0 0 1-.58.87v-.029ZM367.736 185.678l-1.45.29a2.171 2.171 0 0 1-1.636-.317 2.183 2.183 0 0 1-.932-1.381l-2.039-9.945a2.185 2.185 0 0 1 .317-1.635 2.176 2.176 0 0 1 1.381-.933l1.451-.29a2.178 2.178 0 0 1 2.567 1.69l2.039 9.953a2.185 2.185 0 0 1-.317 1.635 2.176 2.176 0 0 1-1.381.933Zm-4.04-12.499a.734.734 0 0 0-.46.311.715.715 0 0 0-.106.545l2.039 9.945a.725.725 0 0 0 .855.566l1.451-.29a.71.71 0 0 0 .261-.11.706.706 0 0 0 .199-.201.708.708 0 0 0 .107-.262.71.71 0 0 0-.001-.283l-2.067-9.923a.726.726 0 0 0-.856-.559l-1.422.261Z" fill="#EEEEF1"/><path d="m371.711 183.385-2.843.581a.74.74 0 0 1-.29-1.451l2.843-.58a.727.727 0 0 0 .566-.856l-1.451-7.109a.732.732 0 0 0-.31-.46.72.72 0 0 0-.546-.106l-2.843.58a.71.71 0 0 1-.545-.105.732.732 0 0 1-.206-1.006.725.725 0 0 1 .461-.31l2.85-.537a2.171 2.171 0 0 1 1.636.317 2.173 2.173 0 0 1 .932 1.38l1.451 7.109a2.176 2.176 0 0 1-1.705 2.553ZM364.407 173.034a.729.729 0 0 1-.747-.305.725.725 0 0 1-.109-.261 15.234 15.234 0 0 0-29.85 6.086.74.74 0 0 1-1.451.291 16.684 16.684 0 1 1 32.686-6.689.728.728 0 0 1-.529.878ZM362.042 200.911a.73.73 0 0 1-.682-.225.723.723 0 0 1 .058-1.023 15.312 15.312 0 0 0 4.751-14.406.74.74 0 0 1 1.451-.29 16.782 16.782 0 0 1-5.208 15.777.724.724 0 0 1-.37.167Z" fill="#EEEEF1"/><path d="m360.99 203.348-2.843.58a2.161 2.161 0 0 1-1.7-.258 2.17 2.17 0 0 1-.982-1.411 2.182 2.182 0 0 1 1.811-2.589l2.844-.587a2.178 2.178 0 0 1 2.251 3.333 2.176 2.176 0 0 1-1.381.932Zm-3.424-2.263a.726.726 0 1 0 .291 1.422l2.843-.581a.735.735 0 0 0 .58-.87.738.738 0 0 0-.87-.58l-2.844.609ZM348.876 44.285a13.06 13.06 0 0 1-7.854-12.198 13.059 13.059 0 0 1 22.444-8.853 13.064 13.064 0 0 1 2.588 14.276 13.06 13.06 0 0 1-17.178 6.775Zm9.829-22.625a11.605 11.605 0 0 0-15.431 14.906 11.602 11.602 0 0 0 10.616 7.338 11.608 11.608 0 0 0 10.836-7.01 11.604 11.604 0 0 0-6.021-15.234Z" fill="#EEEEF1"/><path d="m354.513 40.404-6.652-2.901a.719.719 0 0 1-.388-.4.723.723 0 0 1 .011-.558l1.16-2.662a.725.725 0 0 1 .95-.377l.668.29 1.726-3.946-.667-.29a.726.726 0 0 1-.377-.95l1.16-2.663a.721.721 0 0 1 .537-.428l5.15-.957a.726.726 0 0 1 .421.05l1.327.58a.726.726 0 0 1 .378.951l-4.353 9.981.66.29a.726.726 0 0 1 .378.95l-1.132 2.641a.726.726 0 0 1-.957.4Zm-5.426-3.932 5.324 2.314.58-1.334-.667-.283a.728.728 0 0 1-.438-.68.718.718 0 0 1 .061-.278l4.352-9.988-.464-.196-4.548.812-.726 1.647.66.283a.719.719 0 0 1 .388.4.723.723 0 0 1-.01.557l-2.314 5.325a.728.728 0 0 1-.951.377l-.667-.29-.58 1.334ZM346.772 65.51a.723.723 0 0 1-.384-.4l-3.105-7.913-7.935 3.12a.726.726 0 0 1-.929-.966l8.705-19.962a.728.728 0 1 1 1.334.58l-7.979 18.352 6.957-2.742a.72.72 0 0 1 .789.169c.066.068.118.149.154.238l2.742 6.963 7.979-18.36a.729.729 0 0 1 1.335.58l-8.705 19.964a.726.726 0 0 1-.675.435.596.596 0 0 1-.283-.058Z" fill="#EEEEF1"/><path d="M342.833 52.728a.728.728 0 0 1-.377-.95l4.048-9.314a.718.718 0 0 1 .392-.43.728.728 0 0 1 .98.422.721.721 0 0 1-.045.581l-4.04 9.3a.721.721 0 0 1-.397.396.72.72 0 0 1-.561-.005ZM347.984 51.8a.722.722 0 0 1-.348-.914l2.901-6.652a.726.726 0 1 1 1.335.573l-2.902 6.66a.718.718 0 0 1-.708.412.724.724 0 0 1-.278-.079ZM170.292 337.414l-10.822-4.192a2.176 2.176 0 0 1-1.241-2.815l1.052-2.705a.723.723 0 0 1 .936-.414l12.172 4.715a.725.725 0 0 1 .417.939.73.73 0 0 1-.939.418l-11.498-4.454-.783 2.024a.723.723 0 0 0 .413.943l10.816 4.192a.73.73 0 0 1 .304 1.205.719.719 0 0 1-.539.214.726.726 0 0 1-.288-.07Z" fill="#EEEEF1"/><path d="m168.718 341.491-4.055-1.574a2.176 2.176 0 0 1-1.24-2.814l1.045-2.706a.725.725 0 0 1 .939-.417.725.725 0 0 1 .417.939l-1.052 2.706a.723.723 0 0 0 .174.79c.069.067.15.118.24.153l4.062 1.567a.716.716 0 0 1 .463.663.723.723 0 0 1-.203.519.739.739 0 0 1-.232.163.74.74 0 0 1-.558.011Z" fill="#EEEEF1"/><path d="M191.278 359.568a.727.727 0 0 1-.399-.385l-.95-2.176-2.176.943a.728.728 0 0 1-.559 0l-14.877-5.767a.717.717 0 0 1-.428-.442l-3.627-10.736a.717.717 0 0 1 0-.5l3.148-8.11a.73.73 0 0 1 .656-.468.72.72 0 0 1 .28.047l20.311 7.871a.72.72 0 0 1 .398.384l.537 1.211 1.212-.536a.72.72 0 0 1 .558 0l5.404 2.096a2.172 2.172 0 0 1 1.248 2.822l-4.867 12.549a2.18 2.18 0 0 1-2.133 1.385l-3.54-.166a.807.807 0 0 1-.196-.022Zm-18.098-8.567 14.283 5.535 2.539-1.125a.75.75 0 0 1 .276-.062.74.74 0 0 1 .518.201.708.708 0 0 1 .163.231l1.066 2.409 3.091.145a.725.725 0 0 0 .725-.457l4.86-12.557a.727.727 0 0 0-.413-.936l-5.129-1.987-1.603.725a.712.712 0 0 1-.555.014.736.736 0 0 1-.403-.384l-.725-1.603-19.339-7.493-2.785 7.196 3.431 10.148ZM161.044 329.181a.72.72 0 0 1-.464-.663.723.723 0 0 1 .05-.28l.523-1.349a.725.725 0 0 1 .939-.417.725.725 0 0 1 .417.939l-.522 1.357a.723.723 0 0 1-.663.464.724.724 0 0 1-.28-.051Z" fill="#EEEEF1"/><path d="m186.084 352.887-1.349-.522a.726.726 0 0 1-.464-.61l-.907-9.691a.724.724 0 0 1 .979-.725l5.412 2.096a.722.722 0 0 1 .406.385l2.481 5.629a.712.712 0 0 1 .013.555.73.73 0 0 1-.383.402l-5.629 2.481a.724.724 0 0 1-.559 0Zm-.406-1.712.653.254 4.693-2.075-2.074-4.686-4.033-1.559.761 8.066ZM182.029 351.313l-5.411-2.096a.734.734 0 0 1-.428-.457l-2.793-8.857a.724.724 0 0 1 0-.486l.53-1.35a.725.725 0 0 1 .936-.413l6.76 2.619a.729.729 0 0 1 .465.609l.914 9.691a.726.726 0 0 1-.62.779.732.732 0 0 1-.353-.039Zm-4.562-3.322 3.989 1.545-.725-8.074-5.665-2.176-.174.443 2.575 8.262Z" fill="#EEEEF1"/><path d="M179.803 345.009a4.35 4.35 0 0 1-2.481-5.629.726.726 0 1 1 1.349.523 2.899 2.899 0 0 0 1.661 3.75c.372.145.77.211 1.168.196a.724.724 0 0 1 .755.696.725.725 0 0 1-.697.754 4.292 4.292 0 0 1-1.755-.29Z" fill="#EEEEF1"/><path d="M179.911 342.717a.62.62 0 0 1-.268-.189.722.722 0 0 1 .043-1.022l1.204-1.096a.741.741 0 0 1 .533-.217.724.724 0 0 1 .439 1.291l-1.196 1.095a.73.73 0 0 1-.755.138ZM163.837 338.038l-2.706-1.044a2.165 2.165 0 0 1-1.207-1.149 2.173 2.173 0 0 1-.041-1.666l.53-1.356a.718.718 0 0 1 .376-.441.72.72 0 0 1 .828.136.729.729 0 0 1 .145.827l-.522 1.357a.726.726 0 0 0 .413.935l2.706 1.052a.73.73 0 0 1 .363.387.729.729 0 0 1-.357.92.72.72 0 0 1-.528.042ZM179.984 336.522a.72.72 0 0 1-.464-.663.724.724 0 0 1 .051-.28l1.044-2.705a.725.725 0 0 1 .943-.414.725.725 0 0 1 .414.943l-1.052 2.706a.729.729 0 0 1-.936.413ZM185.396 338.619a.728.728 0 0 1-.414-.943l1.045-2.706a.725.725 0 0 1 .943-.414.731.731 0 0 1 .413.943l-1.052 2.706a.724.724 0 0 1-.935.414Z" fill="#EEEEF1"/><path d="m189.146 336.957-10.816-4.192a2.165 2.165 0 0 1-1.207-1.149 2.173 2.173 0 0 1-.041-1.666l.53-1.356a2.176 2.176 0 0 1 2.814-1.241l10.823 4.193a2.186 2.186 0 0 1 1.206 1.153 2.189 2.189 0 0 1 .035 1.669l-.523 1.349a2.167 2.167 0 0 1-1.984 1.389 2.157 2.157 0 0 1-.837-.149Zm-9.249-8.247a.726.726 0 0 0-.936.413l-.522 1.349a.74.74 0 0 0 .173.791.739.739 0 0 0 .24.153l10.823 4.192a.726.726 0 0 0 .936-.413l.522-1.357a.721.721 0 0 0-.413-.935l-10.823-4.193ZM22.451 370.71a13.062 13.062 0 0 1-7.854-12.199 13.054 13.054 0 0 1 8.264-11.924 13.058 13.058 0 1 1-.41 24.123Zm9.83-22.625a11.605 11.605 0 0 0-15.422 14.902 11.607 11.607 0 1 0 15.421-14.902Z" fill="#EEEEF1"/><path d="m28.087 366.829-6.651-2.902a.727.727 0 0 1-.377-.957l1.16-2.662a.726.726 0 0 1 .95-.377l.668.29 1.726-3.946-.667-.291a.723.723 0 0 1-.378-.95l1.161-2.662a.73.73 0 0 1 .537-.428l5.15-.958a.732.732 0 0 1 .42.051l1.328.581a.723.723 0 0 1 .378.95l-4.353 9.981.66.29a.728.728 0 0 1 .378.951l-1.132 2.64a.723.723 0 0 1-.958.399Zm-5.425-3.932 5.317 2.314.58-1.334-.668-.283a.726.726 0 0 1-.377-.958l4.353-9.981-.465-.196-4.548.812-.725 1.647.66.283a.736.736 0 0 1 .388.4.725.725 0 0 1-.01.557l-2.315 5.325a.724.724 0 0 1-.95.377l-.668-.29-.573 1.327ZM20.348 391.935a.728.728 0 0 1-.385-.399l-3.104-7.914-7.936 3.119a.728.728 0 0 1-.929-.965l8.705-19.963a.724.724 0 0 1 .68-.438c.096.002.19.023.278.061a.724.724 0 0 1 .34.994l-7.979 18.352 6.957-2.742a.737.737 0 0 1 .555.008.721.721 0 0 1 .388.399l2.742 6.963 7.979-18.359a.728.728 0 0 1 1.335.58l-8.705 19.963a.721.721 0 0 1-.675.435.608.608 0 0 1-.246-.094Z" fill="#EEEEF1"/><path d="M16.409 379.153a.723.723 0 0 1-.377-.95l4.047-9.314a.723.723 0 0 1 .928-.325.73.73 0 0 1 .4.898l-4.04 9.3a.724.724 0 0 1-.958.391ZM21.559 378.225a.728.728 0 0 1-.348-.914l2.901-6.652a.724.724 0 0 1 .954-.381.726.726 0 0 1 .38.954l-2.9 6.659a.729.729 0 0 1-.71.412.728.728 0 0 1-.277-.078ZM348.876 370.71a13.064 13.064 0 0 1-7.854-12.199 13.055 13.055 0 0 1 8.264-11.924 13.06 13.06 0 0 1 16.768 17.348 13.062 13.062 0 0 1-17.178 6.775Zm9.829-22.625a11.603 11.603 0 0 0-12.689 2.299 11.603 11.603 0 0 0-2.732 12.603 11.604 11.604 0 0 0 21.442.367 11.603 11.603 0 0 0-6.021-15.269Z" fill="#EEEEF1"/><path d="m354.513 366.829-6.652-2.902a.721.721 0 0 1-.377-.957l1.16-2.662a.726.726 0 0 1 .95-.377l.668.29 1.726-3.946-.667-.291a.724.724 0 0 1-.377-.95l1.16-2.662a.726.726 0 0 1 .537-.428l5.143-.928a.724.724 0 0 1 .421.05l1.327.581a.724.724 0 0 1 .377.95l-4.352 9.981.66.29a.729.729 0 0 1 .377.951l-1.124 2.611a.713.713 0 0 1-.395.401.734.734 0 0 1-.562-.002Zm-5.426-3.932 5.324 2.314.58-1.334-.667-.283a.728.728 0 0 1-.377-.958l4.352-9.981-.464-.196-4.548.812-.726 1.647.66.283a.73.73 0 0 1 .388.4.723.723 0 0 1-.01.558l-2.314 5.324a.727.727 0 0 1-.951.377l-.667-.29-.58 1.327ZM346.772 391.935a.726.726 0 0 1-.384-.399l-3.105-7.914-7.935 3.119a.728.728 0 0 1-.929-.965l8.705-19.963a.724.724 0 0 1 .957-.377.728.728 0 0 1 .377.958l-7.979 18.352 6.957-2.742a.714.714 0 0 1 .555.008.722.722 0 0 1 .388.398l2.742 6.964 7.979-18.359a.726.726 0 0 1 1.395.302.738.738 0 0 1-.06.278l-8.705 19.963a.727.727 0 0 1-.675.435.602.602 0 0 1-.283-.058Z" fill="#EEEEF1"/><path d="M342.833 379.153a.725.725 0 0 1-.377-.95l4.048-9.314a.714.714 0 0 1 .151-.256.709.709 0 0 1 .532-.237.716.716 0 0 1 .535.23.722.722 0 0 1 .109.836l-4.04 9.3a.72.72 0 0 1-.397.396.71.71 0 0 1-.561-.005ZM347.984 378.225a.725.725 0 0 1-.348-.914l2.901-6.652a.724.724 0 0 1 .954-.381.724.724 0 0 1 .381.954l-2.902 6.659a.712.712 0 0 1-.422.376.732.732 0 0 1-.564-.042Z" fill="#EEEEF1"/></svg>