<svg width="183" height="182" fill="none" xmlns="http://www.w3.org/2000/svg"><path fill-rule="evenodd" clip-rule="evenodd" d="M6.233 30.424C0 42.64 0 58.634 0 90.62c0 31.986 0 47.979 6.233 60.196a57.148 57.148 0 0 0 24.992 24.959C43.46 182 59.472 182 91.501 182c32.027 0 48.041 0 60.275-6.225a57.151 57.151 0 0 0 24.991-24.959C183 138.599 183 122.606 183 90.62c0-31.986 0-47.98-6.233-60.196a57.153 57.153 0 0 0-24.991-24.96C145.612 2.328 138.49.772 128.843 0H54.159c-9.648.772-16.77 2.328-22.934 5.464a57.15 57.15 0 0 0-24.992 24.96Z" fill="#6100D4"/><path fill-rule="evenodd" clip-rule="evenodd" d="M28.229 45.827c-4.668 9.167-4.668 21.168-4.668 45.17 0 24.002 0 36.002 4.668 45.17a42.84 42.84 0 0 0 18.713 18.729c9.16 4.671 21.15 4.671 45.133 4.671 23.982 0 35.973 0 45.133-4.671a42.843 42.843 0 0 0 18.713-18.729c4.667-9.168 4.667-21.168 4.667-45.17 0-24.002 0-36.003-4.667-45.17a42.843 42.843 0 0 0-18.713-18.73c-4.615-2.353-9.948-3.52-17.172-4.1H64.114c-7.223.58-12.556 1.747-17.172 4.1a42.839 42.839 0 0 0-18.713 18.73Z" fill="#fff"/><path fill-rule="evenodd" clip-rule="evenodd" d="M63.527 75.286c-8.671 0-15.7 7.035-15.7 15.714 0 8.678 7.029 15.714 15.7 15.714 8.672 0 15.701-7.036 15.701-15.714 0-8.679-7.03-15.714-15.7-15.714Z" fill="#FFA722"/><path fill-rule="evenodd" clip-rule="evenodd" d="M76.374 119.57c0 8.679 7.03 15.714 15.701 15.714s15.701-7.035 15.701-15.714c0-8.678-7.03-15.714-15.701-15.714-8.672 0-15.701 7.036-15.701 15.714Z" fill="#26E1ED"/><path fill-rule="evenodd" clip-rule="evenodd" d="M136.323 91c0-8.679-7.03-15.714-15.701-15.714-8.672 0-15.701 7.035-15.701 15.714 0 8.678 7.029 15.714 15.701 15.714 8.671 0 15.701-7.036 15.701-15.714Z" fill="#FF3815"/><path fill-rule="evenodd" clip-rule="evenodd" d="M92.075 46.715c-8.672 0-15.701 7.035-15.701 15.714 0 8.678 7.03 15.714 15.701 15.714s15.701-7.036 15.701-15.714c0-8.679-7.03-15.714-15.701-15.714Z" fill="#6100D4"/></svg>