<svg width="386" height="375" fill="none" xmlns="http://www.w3.org/2000/svg"><g clip-path="url(#a)"><path d="m266.659 112.201-146.809-.2a30.929 30.929 0 0 0-21.462 8.66 31.062 31.062 0 0 0-9.48 21.152l-3.956 101.396a27.738 27.738 0 0 0 1.779 10.921 27.695 27.695 0 0 0 5.903 9.351 27.58 27.58 0 0 0 19.904 8.505 27.625 27.625 0 0 0 19.555-8.08 27.748 27.748 0 0 0 8.137-19.567c0-2.626.516-5.226 1.519-7.651a19.967 19.967 0 0 1 10.802-10.813 19.888 19.888 0 0 1 7.636-1.512l66.13.09a19.892 19.892 0 0 1 14.095 5.88 19.999 19.999 0 0 1 5.807 14.15 27.743 27.743 0 0 0 8.084 19.589 27.625 27.625 0 0 0 19.533 8.134 27.56 27.56 0 0 0 10.828-2.203 27.62 27.62 0 0 0 9.101-6.28 27.696 27.696 0 0 0 5.918-9.351 27.77 27.77 0 0 0 1.787-10.928l-3.92-101.437a31.028 31.028 0 0 0-9.455-21.138 30.897 30.897 0 0 0-21.436-8.668Z" fill="#DDD" stroke="#672938" stroke-width="3" stroke-miterlimit="10"/><path d="m132.138 116.506-23.799 16.386-6.555 111.786s6.371 23.325 21.465 20.002c0 0-18.44 10.248-31.97-9.774l-1.793-7.684 5.541-117.692s8.469-16.377 37.111-13.024Z" fill="#C4C4C4"/><path d="M109.525 189.017c18.079.025 32.755-14.643 32.779-32.762.025-18.118-14.611-32.826-32.69-32.851-18.078-.024-32.754 14.644-32.779 32.762-.025 18.118 14.611 32.826 32.69 32.851Z" fill="#DDD" stroke="#672938" stroke-width="2" stroke-miterlimit="10"/><path d="M275.195 267.598s6.255-2.009 12.22-11.641a44.032 44.032 0 0 0 6.048-26.412l-7.057-93.729-9.69-13.961s5.5.519 12.01 10.379c6.509 9.86 6.685 79.118 6.685 79.118l2.002 30.881s.419 23.468-22.218 25.365Z" fill="#fff"/><path d="M276.324 189.244c18.079.025 32.754-14.643 32.779-32.761.025-18.119-14.611-32.827-32.69-32.851-18.079-.025-32.754 14.643-32.779 32.761-.025 18.119 14.611 32.827 32.69 32.851Z" fill="#FBE854" stroke="#672938" stroke-width="2" stroke-linecap="round" stroke-linejoin="round"/><path d="M137.808 234.846s.783-23.075 5.207-26.895c4.424-3.82 93.188-2.885 93.188-2.885a210.084 210.084 0 0 1 11.988 26.436c2.993 9.433-.921-8.346-20.125-10.692-19.205-2.346-71.571-.851-71.571-.851s-14.944 3.625-18.687 14.887Z" fill="#C4C4C4"/><path d="M158.08 226.017c12.435.017 22.528-10.072 22.545-22.533.017-12.462-10.049-22.578-22.483-22.595-12.435-.017-22.528 10.072-22.545 22.533-.017 12.462 10.049 22.578 22.483 22.595ZM229.712 226.114c12.434.017 22.528-10.071 22.545-22.533.017-12.461-10.049-22.577-22.484-22.594-12.434-.017-22.528 10.071-22.545 22.533-.017 12.462 10.049 22.577 22.484 22.594Z" fill="#DDD" stroke="#672938" stroke-width="2" stroke-miterlimit="10"/><path d="M193.861 174.401c5.645.007 10.227-4.572 10.234-10.229.008-5.657-4.561-10.249-10.206-10.256-5.644-.008-10.226 4.571-10.234 10.228-.008 5.657 4.562 10.249 10.206 10.257Z" fill="#DE2E5C" stroke="#672938" stroke-linecap="round" stroke-linejoin="round"/><path d="M229.727 214.817c6.209.009 11.249-5.029 11.258-11.251.008-6.223-5.018-11.274-11.227-11.282-6.209-.009-11.249 5.029-11.258 11.251-.008 6.223 5.018 11.274 11.227 11.282ZM109.547 172.629c9.048.012 16.392-7.328 16.405-16.396.012-9.067-7.313-16.428-16.36-16.441-9.048-.012-16.393 7.329-16.405 16.396-.012 9.068 7.312 16.429 16.36 16.441Z" fill="#DE2E5C" stroke="#672938" stroke-width="2" stroke-linecap="round" stroke-linejoin="round"/><path d="M276.378 149.449c5.645.008 10.227-4.572 10.234-10.228.008-5.657-4.561-10.249-10.206-10.257-5.644-.008-10.226 4.572-10.234 10.229-.008 5.656 4.562 10.248 10.206 10.256ZM276.331 183.942c5.644.008 10.226-4.571 10.234-10.228.008-5.657-4.562-10.249-10.206-10.257-5.645-.007-10.227 4.572-10.234 10.229-.008 5.657 4.561 10.249 10.206 10.256ZM259.16 166.657c5.645.008 10.227-4.572 10.235-10.228.007-5.657-4.562-10.249-10.207-10.257-5.644-.008-10.226 4.572-10.234 10.229-.007 5.657 4.562 10.249 10.206 10.256ZM293.578 166.704c5.645.008 10.227-4.572 10.235-10.228.007-5.657-4.562-10.249-10.207-10.257-5.644-.008-10.226 4.572-10.234 10.229-.007 5.656 4.562 10.248 10.206 10.256Z" fill="#672938"/><path d="m168.953 144.513-10.761-.015c-3.387-.005-6.136 2.743-6.141 6.137v.03c-.004 3.394 2.737 6.15 6.124 6.154l10.761.015c3.387.004 6.136-2.743 6.141-6.137v-.03c.004-3.395-2.737-6.15-6.124-6.154ZM228.049 144.593l-10.761-.014c-3.387-.005-6.136 2.743-6.141 6.137v.03c-.004 3.394 2.737 6.149 6.124 6.154l10.761.014c3.387.005 6.136-2.743 6.141-6.137v-.03c.004-3.394-2.737-6.149-6.124-6.154Z" fill="#FBE854" stroke="#672938" stroke-linecap="round" stroke-linejoin="round"/><path d="m120.922 97.783 15.721.022a12.63 12.63 0 0 1 8.943 3.727 12.687 12.687 0 0 1 3.694 8.973l-.005 3.464-41.03-.056.004-3.464a12.7 12.7 0 0 1 3.719-8.963 12.641 12.641 0 0 1 8.954-3.703ZM249.605 97.959l15.721.021a12.642 12.642 0 0 1 8.944 3.727 12.695 12.695 0 0 1 3.694 8.973l-.005 3.465-41.061-.056.005-3.465a12.701 12.701 0 0 1 3.73-8.973 12.631 12.631 0 0 1 8.972-3.692ZM170.202 198.228l-4.749-.007a2.103 2.103 0 0 1-1.487-.62 2.114 2.114 0 0 1-.615-1.491l.007-4.76a2.126 2.126 0 0 0-.614-1.492 2.11 2.11 0 0 0-1.487-.62l-6.253-.008a2.104 2.104 0 0 0-2.107 2.105l-.006 4.76a2.106 2.106 0 0 1-2.107 2.106l-4.75-.006a2.11 2.11 0 0 0-2.107 2.106l-.008 6.296a2.11 2.11 0 0 0 .614 1.492c.394.396.929.619 1.487.619l4.749.007a2.102 2.102 0 0 1 1.487.619c.394.396.615.933.615 1.492l-.007 4.76a2.126 2.126 0 0 0 .614 1.492 2.1 2.1 0 0 0 1.487.62l6.253.008a2.104 2.104 0 0 0 2.107-2.106l.006-4.82a2.113 2.113 0 0 1 .619-1.49c.395-.395.93-.616 1.488-.615l4.75.006a2.11 2.11 0 0 0 2.107-2.106l.008-6.296a2.108 2.108 0 0 0-2.101-2.051Z" fill="#672938"/></g><defs><clipPath id="a"><path fill="#fff" transform="rotate(.078 -71622.248 54247.46)" d="M0 0h238.31v178.733H0z"/></clipPath></defs></svg>