<svg width="487" height="507" fill="none" xmlns="http://www.w3.org/2000/svg"><g filter="url(#a)"><rect x="21.996" y="93.569" width="460" height="391" rx="8" fill="#fff"/><rect x="23.496" y="95.069" width="457" height="388" rx="6.5" stroke="#FF3815" stroke-width="3"/></g><path d="M1.066 73.288h37.042v18.158a18.52 18.52 0 1 1-37.042 0V73.288Z" fill="#FF240A"/><path d="M38.108 73.288H75.15v18.158a18.52 18.52 0 0 1-18.51 18.52 18.511 18.511 0 0 1-17.12-11.43 18.52 18.52 0 0 1-1.412-7.09V73.288Z" fill="#FFBF99"/><path d="M75.16 73.288h37.042v18.158a18.522 18.522 0 0 1-31.617 13.096 18.52 18.52 0 0 1-5.425-13.096V73.288ZM167.774 109.966a18.512 18.512 0 0 1-17.111-11.433 18.516 18.516 0 0 1-1.41-7.087V73.288h37.041v18.158a18.52 18.52 0 0 1-18.52 18.52Z" fill="#FF240A"/><path d="M204.816 109.966a18.53 18.53 0 0 1-18.521-18.52V73.288h37.052v18.158a18.532 18.532 0 0 1-18.531 18.52ZM130.732 109.966a18.532 18.532 0 0 1-18.531-18.52V73.288h37.052v18.158a18.52 18.52 0 0 1-18.521 18.52Z" fill="#FFBF99"/><path d="M241.867 109.966a18.522 18.522 0 0 1-18.52-18.52V73.288h37.041v18.158c0 4.912-1.951 9.622-5.424 13.096a18.525 18.525 0 0 1-13.097 5.424Z" fill="#FF240A"/><path d="M278.909 109.966a18.522 18.522 0 0 1-18.52-18.52V73.288h37.041v18.158c0 4.912-1.951 9.622-5.424 13.096a18.525 18.525 0 0 1-13.097 5.424Z" fill="#FFBF99"/><path d="M315.992 109.966a18.532 18.532 0 0 1-18.531-18.52V73.288h37.052v18.158a18.524 18.524 0 0 1-18.521 18.52Z" fill="#FF240A"/><path d="M353.002 109.966a18.52 18.52 0 0 1-18.521-18.52V73.288h37.042v18.158a18.52 18.52 0 0 1-18.521 18.52Z" fill="#FFBF99"/><path d="M390.044 109.966a18.52 18.52 0 0 1-18.521-18.52V73.288h37.052v18.158a18.526 18.526 0 0 1-18.531 18.52Z" fill="#FF240A"/><path d="M427.095 109.966a18.52 18.52 0 0 1-18.521-18.52V73.288h37.042v18.158a18.524 18.524 0 0 1-18.521 18.52Z" fill="#FFBF99"/><path d="M464.137 109.966a18.52 18.52 0 0 1-18.521-18.52V73.288h37.042v18.158a18.516 18.516 0 0 1-5.425 13.096 18.522 18.522 0 0 1-13.096 5.424Z" fill="#FF240A"/><path d="M1.066 73.288h481.592l-19.544-33.24a10 10 0 0 0-8.62-4.932H29.23a10 10 0 0 0-8.62 4.931L1.066 73.288Z" fill="#FFD9C2"/><path d="M1.066 73.288 20.59 40.051a10 10 0 0 1 8.623-4.935h27.873L38.108 73.288H1.066ZM75.16 73.288l15.522-38.172h33.597l-12.077 38.172H75.16ZM149.253 73.288l8.622-38.172h33.597l-5.178 38.172h-37.041ZM482.658 73.288l-19.523-33.237a10 10 0 0 0-8.622-4.935H426.64l18.977 38.172h37.041ZM408.564 73.288l-15.522-38.172h-33.597l12.078 38.172h37.041ZM334.471 73.288l-8.622-38.172h-33.597l5.177 38.172h37.042ZM223.336 73.288l1.733-38.172h33.586l1.733 38.172h-37.052Z" fill="#FF412B"/><g filter="url(#b)"><rect x="101.996" y=".569" width="300" height="50" rx="8" fill="#FF3815"/><rect x="103.496" y="2.069" width="297" height="47" rx="6.5" stroke="#D62000" stroke-width="3"/></g><path d="M204.224 31.981c-1.534 0-2.574-.91-2.6-1.924-.026-.546-.416-.728-1.222-.572l-2.002.338c-.754.13-1.04.572-.91 1.274.234 1.352.884 2.47 1.976 3.38 1.118.884 2.652 1.326 4.628 1.3 2.47-.026 4.29-.494 5.408-1.456 1.118-.962 1.69-2.236 1.69-3.77 0-6.864-9.126-5.46-9.126-8.346 0-1.118.702-1.846 2.158-1.846 1.56 0 2.6.962 2.678 2.21 0 .39.338.52 1.04.442l2.158-.364c.728-.13 1.04-.546.936-1.274-.442-3.016-2.782-4.836-6.942-4.836-4.602 0-6.552 2.938-6.552 5.564 0 6.864 9.074 5.018 9.074 8.008 0 1.248-.806 1.872-2.392 1.872Zm13.187-3.874h5.434c.728 0 1.118-.442 1.118-1.144v-1.612c0-.754-.364-1.144-1.118-1.144h-5.434v-3.536h7.124c.728 0 1.144-.442 1.144-1.144V17.89c0-.702-.416-1.144-1.144-1.144h-10.504c-.702 0-1.144.494-1.144 1.144v16.536c0 .65.442 1.144 1.144 1.144h10.504c.728 0 1.144-.442 1.144-1.144v-1.612c0-.702-.416-1.144-1.144-1.144h-7.124v-3.562Zm21.043-10.218c0-.65-.416-1.144-1.144-1.144h-1.638c-.728 0-1.144.494-1.144 1.144v10.868c0 .65.416 1.144 1.144 1.144h6.552c.728 0 1.144-.494 1.144-1.144v-.988c0-.65-.416-1.144-1.144-1.144h-3.77V17.89ZM227.69 34.425c0 .65.416 1.144 1.144 1.144h12.87c.754 0 1.144-.39 1.144-1.144v-1.612c0-.754-.39-1.144-1.144-1.144h-9.49V17.89c0-.65-.416-1.144-1.144-1.144h-2.236c-.728 0-1.144.494-1.144 1.144v16.536Zm32.623-.026c0 .78.39 1.17 1.144 1.17h2.21c.728 0 1.17-.442 1.17-1.17V17.915c0-.728-.442-1.17-1.17-1.17h-2.21c-.754 0-1.144.39-1.144 1.17v6.344h-6.136v-6.344c0-.78-.39-1.17-1.17-1.17h-2.21c-.754 0-1.144.39-1.144 1.17V34.4c0 .78.39 1.17 1.144 1.17h2.21c.78 0 1.17-.39 1.17-1.17v-6.24h6.136v6.24Zm11.612-6.292h5.434c.728 0 1.118-.442 1.118-1.144v-1.612c0-.754-.364-1.144-1.118-1.144h-5.434v-3.536h7.124c.728 0 1.144-.442 1.144-1.144V17.89c0-.702-.416-1.144-1.144-1.144h-10.504c-.702 0-1.144.494-1.144 1.144v16.536c0 .65.442 1.144 1.144 1.144h10.504c.728 0 1.144-.442 1.144-1.144v-1.612c0-.702-.416-1.144-1.144-1.144h-7.124v-3.562Zm29.363-3.432h3.354c.624 0 .936-.312.936-.91v-.936c0-.598-.312-.91-.936-.91h-3.354v-1.924h4.42c.754 0 1.118-.312 1.118-.962v-1.326c0-.65-.364-.962-1.118-.962h-7.202c-.728 0-1.144.494-1.144 1.144v10.868c0 .65.494 1.144 1.144 1.144h7.202c.754 0 1.118-.312 1.118-.962v-1.352c0-.65-.364-.962-1.118-.962h-4.42v-1.95Zm-19.084 9.75c0 .65.416 1.144 1.144 1.144h2.236c.728 0 1.144-.494 1.144-1.144v-5.2h1.924l2.548 2.704c1.066 1.144 1.872 1.794 3.432 2.626 1.586.806 3.822 1.196 6.708 1.196 1.586 0 2.912-.078 4.03-.26.728-.078 1.118-.624 1.118-1.248v-1.638c0-.65-.416-1.092-1.118-.988-1.248.13-2.366.208-3.38.208-3.406 0-5.954-.832-7.644-2.496l-1.274-1.248c2.158-1.04 3.224-2.652 3.224-4.81 0-4.706-2.704-6.526-7.566-6.526h-5.382c-.728 0-1.144.494-1.144 1.144v16.536Zm9.932-11.232c0 1.664-1.248 2.496-3.12 2.496h-2.288v-5.018h2.08c2.002 0 3.328.832 3.328 2.522Z" fill="#fff"/><g clip-path="url(#c)" fill="#871EF0"><path d="m392.046 185.634 13.166-8.489c.497-.343.631-.958.285-1.451-.346-.493-.965-.627-1.461-.283-.069.017-.051.086-.12.103l-11.87 10.12ZM387.347 183.559l.385-16.429a1.116 1.116 0 0 0-1.018-1.121 1.118 1.118 0 0 0-1.129 1.011l.035.137 1.727 16.402ZM382.772 185.661l-14.425-10.644c-.448-.322-1.152-.216-1.476.229-.324.445-.218 1.144.23 1.466l.086.05 15.585 8.899ZM382.212 190.594l-16.951 3.423c-.549.139-.924.67-.853 1.232.071.563.674.918 1.24.848l.138-.035 16.426-5.468ZM385.892 195.25l-7.126 14.653c-.238.496-.063 1.177.505 1.396.568.22 1.185.063 1.406-.501 0 0 .051-.085.033-.154l5.182-15.394ZM390.265 193.78l7.289 15.863c.209.528.862.798 1.376.523.532-.207.803-.857.526-1.367l-.035-.137-9.156-14.882ZM393.477 190.353l15.294 1.787c.601.065 1.08-.346 1.146-.944.066-.597-.349-1.073-.95-1.138-.069.017-.069.017-.155-.034l-15.335.329ZM422.015 325.388l.01-8.785a.651.651 0 0 0-.673-.628c-.361.019-.651.31-.633.668l.018.068 1.278 8.677ZM419.571 327.822l-9.024-5.262c-.345-.204-.756-.099-.892.226-.136.324-.1.751.227.885l.086.051 9.603 4.1ZM418.73 331.374l-9.942 3.97c-.326.155-.53.498-.374.821.156.323.5.526.826.371l.069-.017 9.421-5.145ZM421.484 332.709l-3.403 10.08c-.136.325.037.716.433.834.327.135.721-.038.839-.43 0 0-.017-.069.051-.086l2.08-10.398ZM424.642 332.199l6.103 8.398c.224.306.602.355.91.132.308-.223.358-.599.133-.905l-.017-.068-7.129-7.557ZM426.329 329.666l10.086.857c.378.049.668-.242.718-.618.05-.375-.244-.664-.622-.713l-.068.017-10.114.457ZM424.737 326.876l5.768-7.703a.6.6 0 0 0-.159-.903.608.608 0 0 0-.91.157l-.051.086-4.648 8.363ZM394.046 176.635l3.814-7.063a.339.339 0 0 0-.123-.477.342.342 0 0 0-.48.122l-3.211 7.418ZM403.738 184.777l9.298-2.21c.206-.052.308-.223.255-.428-.052-.204-.224-.306-.43-.254l-9.123 2.892ZM401.571 198.537l7.686 5.456c.172.102.378.05.498-.053a.433.433 0 0 0-.054-.495l-8.13-4.908ZM388.775 201.924l.52 11.699c-.016.222.156.323.379.339.224.017.326-.155.342-.376l-1.241-11.662ZM377.098 198.567l-8.796 6.729c-.188.12-.204.342-.083.529.121.187.345.203.533.083l8.346-7.341ZM373.415 186.217l-10.776-1.552c-.223-.016-.343.087-.427.326-.016.222.087.341.328.425l10.875.801ZM380.774 177.312l-4.067-10.148c-.052-.204-.293-.288-.482-.168-.188.12-.29.292-.169.479l4.718 9.837Z"/></g><path d="m95.188 344.152-14.668 5.554c-.558.232-.82.805-.585 1.359.233.554.81.814 1.368.582.071-.003.068-.073.14-.076l13.745-7.419ZM99.343 347.162l-3.85 15.982c-.12.568.184 1.12.758 1.309a1.122 1.122 0 0 0 1.318-.754l-.006-.14 1.78-16.397ZM104.261 346.061l11.853 13.416c.37.408 1.08.452 1.491.084.411-.367.455-1.073.085-1.481l-.073-.068-13.356-11.951ZM105.851 341.355l17.298.189a1.14 1.14 0 0 0 1.094-1.027c.049-.565-.465-1.038-1.034-1.087l-.141.006-17.217 1.919ZM103.238 336.035l10.065-12.84c.337-.435.31-1.138-.199-1.47-.508-.333-1.145-.309-1.48.197 0 0-.068.073-.065.143l-8.321 13.97ZM98.652 336.56l-3.773-17.03c-.092-.56-.674-.96-1.235-.798-.563.092-.966.67-.803 1.227l.005.141 5.806 16.46ZM94.786 339.241l-14.575-4.938c-.574-.189-1.129.113-1.32.684-.19.57.114 1.122.689 1.311.07-.003.07-.003.144.065l15.062 2.878ZM95.437 201.264l-1.867 8.587a.649.649 0 0 0 .525.755c.356.056.702-.168.76-.522l-.003-.07.585-8.75ZM98.34 199.394l7.711 7.028c.294.27.719.254.92-.035.202-.289.256-.714-.035-.914l-.073-.067-8.522-6.012ZM99.915 196.097l10.56-1.808c.351-.084.624-.376.539-.724-.084-.349-.378-.62-.729-.536l-.071.003-10.299 3.065ZM97.505 194.218l5.459-9.146c.201-.289.114-.708-.247-.906-.292-.2-.713-.114-.912.246 0 0 .002.07-.068.073l-4.232 9.733ZM94.31 194.057l-4.192-9.484c-.155-.346-.514-.473-.862-.319-.349.154-.477.511-.322.857l.003.07 5.372 8.876ZM92.123 196.181l-9.68-2.941c-.358-.127-.704.097-.832.454s.098.7.457.827l.07-.003 9.985 1.663ZM93.091 199.241l-7.268 6.329a.598.598 0 0 0-.036.916c.223.273.65.327.923.036l.068-.073 6.313-7.208ZM91.328 352.534l-5.222 6.11a.338.338 0 0 0 .02.492c.146.135.358.127.495-.019l4.707-6.583ZM83.576 342.551l-9.558.222c-.212.008-.349.154-.34.365.008.211.155.346.367.338l9.53-.925ZM88.603 329.551l-6.361-6.938a.44.44 0 0 0-.498-.052.431.431 0 0 0-.052.495l6.91 6.495ZM101.829 328.909l1.966-11.547c.062-.214-.084-.349-.299-.411-.215-.062-.352.084-.414.297l-1.253 11.661ZM112.536 334.626l10.022-4.743c.21-.079.272-.292.193-.5-.078-.208-.293-.271-.503-.192l-9.712 5.435ZM113.526 347.469l10.207 3.766c.215.062.354-.013.488-.23.062-.213-.014-.351-.232-.484l-10.463-3.052ZM104.448 354.64l1.831 10.77c.008.211.226.343.436.265.209-.078.345-.224.266-.432l-2.533-10.603Z" fill="#871EF0"/><path d="M272.798 231.825c-3.271 4.47-7.523 6.977-11.884 6.977h-1.308c-4.361 0-8.613-2.507-11.884-6.977l-.763-1.2V242.4l-3.271 1.308 1.309 1.854c3.489 5.015 9.158 7.959 15.263 7.959s11.775-2.944 15.264-7.959l1.308-1.854-3.271-1.308v-11.775l-.763 1.2Z" fill="#BD6C67"/><path d="M259.715 238.802h1.308c4.361 0 8.613-2.507 11.884-6.977l.872-1.2v-15.59h-26.82v15.59l.872 1.2c3.162 4.47 7.414 6.977 11.884 6.977Z" fill="#3C3247"/><path d="M260.26 232.588c29.986 0 54.294-24.308 54.294-54.294 0-29.986-24.308-54.294-54.294-54.294-29.986 0-54.294 24.308-54.294 54.294 0 29.986 24.308 54.294 54.294 54.294Z" fill="#302A37"/><path d="M229.773 208.167c5.011-2.063 7.401-7.797 5.339-12.808-2.063-5.011-7.797-7.402-12.808-5.339-5.011 2.062-7.402 7.797-5.339 12.808 2.062 5.011 7.797 7.401 12.808 5.339Z" fill="#A64F5A"/><path d="M231.476 199.118c0 3.052-2.508 5.56-5.56 5.56-3.053 0-5.561-2.508-5.561-5.56 0-3.053 2.508-5.561 5.561-5.561 3.161 0 5.56 2.508 5.56 5.561Z" fill="#8C404C"/><path d="M303.737 202.854c2.062-5.011-.328-10.745-5.339-12.808-5.011-2.062-10.746.328-12.808 5.339-2.063 5.011.328 10.745 5.339 12.808 5.011 2.063 10.745-.328 12.808-5.339Z" fill="#A64F5A"/><path d="M289.15 199.117c0 3.053 2.508 5.561 5.561 5.561 3.052 0 5.56-2.508 5.56-5.561 0-3.052-2.508-5.56-5.56-5.56-3.162 0-5.561 2.508-5.561 5.56Z" fill="#8C404C"/><path d="M227.443 194.975h3.052l1.963-17.553h-6.433l1.418 17.553Z" fill="url(#d)"/><path d="m288.06 177.422 2.071 17.553h3.053l1.417-17.553h-6.541Z" fill="url(#e)"/><path d="M260.26 160.741c-11.992 0-22.241 2.398-27.256 5.996-1.635 3.707-2.616 7.85-2.616 12.102v17.444c0 11.011 4.688 21.587 12.756 29.109l1.199 1.091c4.143 3.706 9.485 5.778 15.045 5.778h1.744c5.561 0 10.903-2.072 15.046-5.778l1.199-1.091c8.177-7.522 12.756-17.989 12.756-29.109v-17.444c0-4.361-.981-8.395-2.617-12.102-4.906-3.488-15.263-5.996-27.256-5.996Z" fill="#BD6C67"/><path d="M246.959 192.031a2.726 2.726 0 1 0 0-5.452 2.726 2.726 0 0 0 0 5.452ZM273.669 192.031a2.726 2.726 0 1 0 0-5.452 2.726 2.726 0 0 0 0 5.452Z" fill="#3C3247"/><path d="M267.237 203.261a33.42 33.42 0 0 0-13.955 0c1.636 2.18 4.361 3.815 7.087 3.924 2.834.109 5.669-1.526 6.868-3.924Z" fill="#A64F5A"/><path d="M246.305 178.294c-3.598-.218-6.978 1.199-9.376 3.707 6.105.654 12.21 1.09 18.316 1.09-2.072-2.726-5.233-4.579-8.94-4.797ZM274.215 178.294c3.598-.218 6.978 1.199 9.376 3.707-6.105.654-12.21 1.09-18.316 1.09 2.181-2.726 5.343-4.579 8.94-4.797Z" fill="#3C3247"/><path opacity=".3" d="M246.959 200.971a8.94 8.94 0 1 0-.001-17.881 8.94 8.94 0 0 0 .001 17.881ZM273.669 200.971a8.94 8.94 0 1 0 0-17.88 8.94 8.94 0 0 0 0 17.88Z" fill="#fff"/><path d="M273.67 180.802c-4.906 0-9.049 3.161-10.576 7.631a4.77 4.77 0 0 0-2.725-.872 4.52 4.52 0 0 0-2.726.872c-1.526-4.47-5.669-7.631-10.575-7.631-6.215 0-11.121 5.015-11.121 11.12 0 6.214 5.015 11.12 11.121 11.12 6.214 0 11.229-5.015 11.229-11.12v-.872c0-.654.872-1.309 2.181-1.309 1.308 0 2.18.764 2.18 1.309v.872c0 6.214 5.015 11.12 11.121 11.12 6.214 0 11.12-5.015 11.12-11.12-.109-6.105-5.124-11.12-11.229-11.12Zm-35.651 11.229c0-4.906 4.034-8.94 8.94-8.94s9.049 4.034 9.049 8.94-4.034 8.94-9.049 8.94c-4.906 0-8.94-4.034-8.94-8.94Zm26.602 0c0-4.906 4.034-8.94 8.94-8.94s8.94 4.034 8.94 8.94-4.034 8.94-8.94 8.94-8.94-4.034-8.94-8.94Z" fill="#454F6B"/><path d="m290.241 194.975-4.361 12.21c-.545 1.418-2.071 2.072-3.379 1.309l-3.053-1.636c-1.963-.981-4.143-1.308-6.324-1.09l-12.864 1.417-12.647-1.417a11.008 11.008 0 0 0-6.215 1.199l-3.161 1.527c-1.309.654-2.944 0-3.38-1.309l-4.361-12.21h-3.053v7.631c0 7.087 1.963 14.064 5.561 20.17l.872 1.526c4.47 7.414 12.429 11.993 21.15 11.993H265.711c8.722 0 16.681-4.579 21.15-11.993l.873-1.526c3.597-6.106 5.56-13.083 5.56-20.17v-7.631h-3.053Zm-15.917 18.643-2.29 6.759c-.654 1.963-2.507 3.162-4.579 2.944h-.872c-1.526-.109-2.835-.763-3.925-1.854H258.079c-.981 1.091-2.398 1.745-3.925 1.854l-.981.109c-1.962.218-3.925-1.09-4.579-2.944l-2.289-6.759c-.437-1.309.654-2.508 1.962-2.399l4.688.545c2.399.327 4.797 0 7.087-.763l.218-.109.327.109c2.289.763 4.688 1.09 7.086.763l4.688-.545c1.309-.218 2.399.981 1.963 2.29Z" fill="#3C3247"/><path d="M249.532 213.753h21.006a5.73 5.73 0 0 1-5.729 5.729h-9.548a5.73 5.73 0 0 1-5.729-5.729Z" fill="#fff"/><g clip-path="url(#f)"><path d="M247.016 444.745h-18.248v9.57h18.248v-9.57ZM292.143 454.308l-18.248 1.891v-11.454h18.248v9.563Z" fill="#E3A473" stroke="#672938" stroke-width="2.35" stroke-linecap="round" stroke-linejoin="round"/><path d="M247.015 437.816h-18.248v9.57h18.248v-9.57ZM292.143 437.816h-18.248v9.57h18.248v-9.57Z" fill="#2B2B2B" stroke="#672938" stroke-width="3" stroke-linecap="round" stroke-linejoin="round"/><path d="m302.017 430.317-9.402-105.924h-.986v-.229h-63.3v.528l-9.437 106.633a8.72 8.72 0 0 0 2.353 6.514 8.716 8.716 0 0 0 6.355 2.75h21.848a8.727 8.727 0 0 0 8.707-8.187l.125-86.659h4.711l1.335 85.77a9.666 9.666 0 0 0 9.652 9.076h18.387a9.673 9.673 0 0 0 9.652-10.272Z" fill="#2B2B2B" stroke="#672938" stroke-width="3" stroke-linecap="round" stroke-linejoin="round"/><path d="m295.277 302.807 20.681-4.9-20.333-41.7a5.17 5.17 0 0 0-4.865-3.475h-61.277a5.18 5.18 0 0 0-4.496 2.62h-.069l-20.848 42.569 20.848 4.865-.994 15.839a5.156 5.156 0 0 0 1.36 3.905 5.163 5.163 0 0 0 3.789 1.655h62.035a5.162 5.162 0 0 0 4.877-3.466 5.156 5.156 0 0 0 .272-2.094l-.98-15.818Z" fill="#FBE854" stroke="#672938" stroke-width="3" stroke-linecap="round" stroke-linejoin="round"/><path d="M259.955 254.581v69.089" stroke="#672938" stroke-width="3" stroke-linecap="round" stroke-linejoin="round"/><path d="m288.842 268.258-1.647-4.58M285.882 264.151l1.654 4.58M280.107 267.105l1.196-4.719M279.961 262.045l-1.202 4.712M276.188 266.994l-4.482-1.898M265.125 266.737l1.327-4.685M265.111 261.677l-1.32 4.677M260.9 266.465l-1.404-4.656M258.162 262.205l1.404 4.663M290.246 262.552l3.079 3.767M294.402 265.437l-3.079-3.767M290.246 262.552l3.079 3.767M294.402 265.437l-3.079-3.767M285.882 264.151l1.654 4.58M288.842 268.258l-1.647-4.58M279.961 262.045l-1.202 4.712M280.107 267.105l1.196-4.719M265.111 261.677l-1.32 4.677M265.125 266.737l1.327-4.685M258.162 262.205l1.404 4.663M260.9 266.465l-1.404-4.656" stroke="#42A54B" stroke-width=".3"/><path d="m269.135 246.401-2.898 5.059M267.683 252.295l2.904-5.067" stroke="#42A54B" stroke-width=".36"/><path d="m275.688 255.658 1.396 4.664M278.418 259.919l-1.403-4.664M288.822 256.409l-4.816.674M284.2 258.459l4.816-.674" stroke="#42A54B" stroke-width=".3"/><path d="m278.954 244.879-3.12 4.927" stroke="#42A54B" stroke-width=".36"/><path d="m270.948 254.206-2.953 3.857M269.093 258.911l2.96-3.864M265.535 257.271l-3.37-3.51M261.164 254.72l3.363 3.51M252.687 253.504l4.711 1.202M257.738 253.358l-4.712-1.196M253.402 260.44l4.621-1.529M257.585 257.597l-4.621 1.522M299.058 317.735l2.418-4.219M300.267 312.828l-2.418 4.219M288.842 318.298l-1.647-4.58M285.882 314.191l1.654 4.58M280.107 317.144l1.196-4.719M279.961 312.085l-1.202 4.712M276.188 317.033l-4.482-1.897M265.125 316.776l1.327-4.684M265.111 311.717l-1.32 4.677M260.9 316.505l-1.404-4.657M258.162 312.245l1.404 4.663M290.246 312.592l3.079 3.767M294.402 315.476l-3.079-3.767M307.737 292.333l-1.779 4.531M254.604 282.714l4.531-1.772M257.704 292.333l-1.779 4.531M257.217 297.372l1.779-4.532M302.692 288.698l4.74 1.071M307.744 288.413l-4.746-1.077M302.72 303.543l4.711 1.203M307.772 303.397l-4.711-1.195M303.436 310.479l4.621-1.529M307.619 307.637l-4.621 1.522M288.842 268.258l-1.647-4.58M285.882 264.151l1.654 4.58M280.107 267.105l1.196-4.719M279.961 262.045l-1.202 4.712M276.188 266.994l-4.482-1.898M271.164 266.375l4.475 1.897M265.125 266.737l1.327-4.685M265.111 261.677l-1.32 4.677M260.9 266.465l-1.404-4.656M258.162 262.205l1.404 4.663M300.267 312.828l-2.418 4.219M299.058 317.735l2.418-4.219M290.246 312.592l3.079 3.767M294.402 315.476l-3.079-3.767M285.882 314.191l1.654 4.58M288.842 318.298l-1.647-4.58M279.961 312.085l-1.202 4.712M280.107 317.144l1.196-4.719M265.111 311.717l-1.32 4.677M265.125 316.776l1.327-4.684M258.162 312.245l1.404 4.663M260.9 316.505l-1.404-4.657M267.606 297.191l-2.418 4.219M266.396 302.098l2.419-4.219M288.494 274.819l-3.078-3.767M284.34 271.935l3.078 3.767M279.976 273.533l1.653 4.58M282.936 277.641l-1.647-4.58M298.426 306.956l-4.483-1.898M293.401 306.337l4.476 1.897M298.558 294.474l-1.321 4.677M298.571 299.533l1.321-4.684M291.323 290.755l1.397 4.664M294.054 295.016l-1.404-4.664M277.737 287.072l2.419-4.219M278.946 282.158l-2.411 4.226M267.661 282.36l3.079 3.767M271.817 285.244l-3.079-3.767M262.255 283.611l1.654 4.58M265.215 287.718l-1.647-4.58M298.377 282.2l-1.202 4.712M298.522 287.26l1.196-4.719M287.376 284.723l4.482 1.897M292.4 285.341l-4.482-1.897M275.688 305.698l1.396 4.663M278.418 309.958l-1.403-4.663M288.822 306.448l-4.816.675M284.2 308.499l4.816-.675M288.919 297.956l-1.084 4.739M289.189 303.008l1.085-4.74M275.792 295.919l-2.599 4.108M274.367 300.77l2.599-4.107M276.953 289.942l-4.462 1.946M273.054 293.16l4.454-1.939M267.558 293.841l1.327-4.684M267.543 288.782l-1.32 4.677M285.312 291.485l-1.404-4.656M282.574 287.225l1.404 4.663M275.778 275.389l-3.884 2.926M272.734 279.427l3.885-2.933M269.343 275.514l-1.355-4.67M266.654 271.226l1.355 4.677M262.019 270.983l-.285 4.858M263.124 275.924l.278-4.858M270.948 304.245l-2.953 3.858M269.093 308.95l2.96-3.864M265.535 307.31l-3.37-3.509M261.164 304.76l3.363 3.509M293.359 281.463l3.058-3.78M295.34 276.807l-3.058 3.781M295.465 274.395l.542-4.83M294.631 269.405l-.549 4.837M279.503 298.692l4.475 1.897M284.527 299.311l-4.482-1.897M290.246 262.552l3.079 3.767M294.402 265.437l-3.079-3.767M252.853 268.37l4.287 2.307M257.793 269.447l-4.28-2.301M254.604 282.714l4.531-1.772M258.627 279.649l-4.53 1.773M252.658 288.698l4.739 1.071M257.71 288.413l-4.746-1.077M252.687 303.543l4.711 1.203M257.738 303.397l-4.712-1.195M253.402 310.479l4.621-1.529M257.585 307.637l-4.621 1.522M290.246 262.552l3.079 3.767M294.402 265.437l-3.079-3.767M285.882 264.151l1.654 4.58M288.842 268.258l-1.647-4.58M279.961 262.045l-1.202 4.712M280.107 267.105l1.196-4.719M265.111 261.677l-1.32 4.677M265.125 266.737l1.327-4.685M258.162 262.205l1.404 4.663M260.9 266.465l-1.404-4.656M299.058 317.735l2.418-4.219M300.267 312.828l-2.418 4.219M288.842 318.298l-1.647-4.58M285.882 314.191l1.654 4.58M280.107 317.144l1.196-4.719M279.961 312.085l-1.202 4.712M276.188 317.033l-4.482-1.897M271.164 316.415l4.475 1.897M265.125 316.776l1.327-4.684M265.111 311.717l-1.32 4.677M260.9 316.505l-1.404-4.657M258.162 312.245l1.404 4.663M288.494 324.859l-3.078-3.767M284.34 321.975l3.078 3.766M291.323 340.795l1.397 4.663M294.054 345.055l-1.404-4.663M277.737 337.111l2.419-4.218M298.377 332.24l-1.202 4.712M287.376 334.762l4.482 1.898M292.4 335.381l-4.482-1.897M285.312 341.525l-1.404-4.657M282.574 337.264l1.404 4.664M293.359 331.503l3.058-3.781M295.34 326.846l-3.058 3.781M295.465 324.435l.542-4.83M294.631 319.445l-.549 4.837M290.246 312.592l3.079 3.767M294.402 315.476l-3.079-3.767M252.853 318.409l4.287 2.308M257.793 319.486l-4.28-2.3M300.267 312.828l-2.418 4.219M299.058 317.735l2.418-4.219M290.246 312.592l3.079 3.767M294.402 315.476l-3.079-3.767M285.882 314.191l1.654 4.58M288.842 318.298l-1.647-4.58M279.961 312.085l-1.202 4.712M280.107 317.144l1.196-4.719M265.111 311.717l-1.32 4.677M265.125 316.776l1.327-4.684M258.162 312.245l1.404 4.663M260.9 316.505l-1.404-4.657M249.024 267.695l2.419-4.218M250.233 262.789l-2.419 4.218M238.809 268.258l-1.647-4.58M235.849 264.151l1.654 4.58M230.074 267.105l1.195-4.719M229.928 262.045l-1.202 4.712M226.155 266.994l-4.482-1.898M240.213 262.552l3.078 3.767M244.368 265.437l-3.078-3.767M252.687 253.504l4.711 1.202M257.738 253.358l-4.712-1.196M253.402 260.44l4.621-1.529M257.585 257.597l-4.621 1.522M250.233 262.789l-2.419 4.218M249.024 267.695l2.419-4.218M240.213 262.552l3.078 3.767M244.368 265.437l-3.078-3.767M235.849 264.151l1.654 4.58M238.809 268.258l-1.647-4.58M229.928 262.045l-1.202 4.712M230.074 267.105l1.195-4.719M248.391 256.916l-4.482-1.897M243.367 256.298l4.475 1.897" stroke="#42A54B" stroke-width=".3"/><path d="m246.251 243.148-1.584 5.609M246.266 249.209l1.591-5.609" stroke="#42A54B" stroke-width=".36"/><path d="m225.654 255.658 1.397 4.664M228.385 259.919l-1.404-4.664M238.788 256.409l-4.815.674M234.167 258.459l4.816-.674M249.024 317.735l2.419-4.219M250.233 312.828l-2.419 4.219M238.809 318.298l-1.647-4.58M235.849 314.191l1.654 4.58M230.074 317.144l1.195-4.719M229.928 312.085l-1.202 4.712M226.155 317.033l-4.482-1.897M215.092 316.776l1.327-4.684M215.078 311.717l-1.32 4.677M240.213 312.592l3.078 3.767M244.368 315.476l-3.078-3.767M254.604 282.714l4.531-1.772M257.704 292.333l-1.779 4.531M207.67 292.333l-1.779 4.531M207.184 297.372l1.779-4.532M252.853 268.37l4.287 2.307M257.793 269.447l-4.28-2.301M252.888 278.398l3.683-3.183M255.661 274.166l-3.683 3.176M254.604 282.714l4.531-1.772M258.627 279.649l-4.53 1.773M252.658 288.698l4.739 1.071M257.71 288.413l-4.746-1.077M252.687 303.543l4.711 1.203M257.738 303.397l-4.712-1.195M253.402 310.479l4.621-1.529M257.585 307.637l-4.621 1.522M249.024 267.695l2.419-4.218M250.233 262.789l-2.419 4.218M238.809 268.258l-1.647-4.58M235.849 264.151l1.654 4.58M230.074 267.105l1.195-4.719M229.928 262.045l-1.202 4.712M226.155 266.994l-4.482-1.898M221.13 266.375l4.475 1.897M250.233 312.828l-2.419 4.219M249.024 317.735l2.419-4.219M240.213 312.592l3.078 3.767M244.368 315.476l-3.078-3.767M235.849 314.191l1.654 4.58M238.809 318.298l-1.647-4.58M229.928 312.085l-1.202 4.712M230.074 317.144l1.195-4.719M215.078 311.717l-1.32 4.677M215.092 316.776l1.327-4.684M217.573 297.191l-2.419 4.219M216.363 302.098l2.419-4.219M238.461 274.819l-3.078-3.767M234.306 271.935l3.078 3.767M229.941 273.533l1.654 4.58M232.902 277.641l-1.647-4.58M248.391 306.956l-4.482-1.898M243.367 306.337l4.475 1.897M248.523 294.474l-1.32 4.677M248.538 299.533l1.32-4.684M241.29 290.755l1.397 4.664M244.021 295.016l-1.404-4.664M227.704 287.072l2.418-4.219M228.913 282.158l-2.411 4.226M217.628 282.36l3.078 3.767M221.784 285.244l-3.079-3.767M212.222 283.611l1.654 4.58M215.182 287.718l-1.647-4.58M248.343 282.2l-1.202 4.712M248.489 287.26l1.196-4.719M237.343 284.723l4.482 1.897M242.367 285.341l-4.482-1.897M225.654 305.698l1.397 4.663M228.385 309.958l-1.404-4.663M238.788 306.448l-4.815.675M234.167 308.499l4.816-.675M238.885 297.956l-1.084 4.739M239.156 303.008l1.084-4.74M225.758 295.919l-2.599 4.108M224.334 300.77l2.599-4.107M226.919 289.942l-4.461 1.946M223.021 293.16l4.454-1.939M217.523 293.841l1.328-4.684M217.51 288.782l-1.321 4.677M235.279 291.485l-1.404-4.656M232.541 287.225l1.404 4.663M225.745 275.389l-3.885 2.926M222.701 279.427l3.885-2.933M219.31 275.514l-1.355-4.67M216.62 271.226l1.355 4.677M220.915 304.245l-2.953 3.858M219.06 308.95l2.96-3.864M215.501 307.31l-3.37-3.509M211.131 304.76l3.363 3.509M243.326 281.463l3.058-3.78M245.307 276.807l-3.058 3.781M245.432 274.395l.542-4.83M244.598 269.405l-.549 4.837M229.47 298.692l4.475 1.897M234.494 299.311l-4.482-1.897M240.213 262.552l3.078 3.767M244.368 265.437l-3.078-3.767M250.233 262.789l-2.419 4.218M249.024 267.695l2.419-4.218M240.213 262.552l3.078 3.767M244.368 265.437l-3.078-3.767M235.849 264.151l1.654 4.58M238.809 268.258l-1.647-4.58M229.928 262.045l-1.202 4.712M230.074 267.105l1.195-4.719M252.853 318.409l4.287 2.308M257.793 319.486l-4.28-2.3M249.024 317.735l2.419-4.219M250.233 312.828l-2.419 4.219M238.809 318.298l-1.647-4.58M235.849 314.191l1.654 4.58M230.074 317.144l1.195-4.719M229.928 312.085l-1.202 4.712M226.155 317.033l-4.482-1.897M221.13 316.415l4.475 1.897M215.092 316.776l1.327-4.684M215.078 311.717l-1.32 4.677M236.78 322.885l-1.397-1.793M234.306 321.975l3.078 3.766M229.941 323.573l1.654 4.58M232.902 327.68l-1.647-4.58M227.704 337.111l2.418-4.218M228.913 332.198l-2.411 4.226M235.279 341.525l-1.404-4.657M225.745 325.429l-3.885 2.926M222.701 329.467l3.885-2.933M219.31 325.554l-1.355-4.671M216.62 321.266l1.355 4.677M245.64 322.864l.333-3.259M244.597 319.445l-.34 3.259M240.213 312.592l3.078 3.767M244.368 315.476l-3.078-3.767M250.233 312.828l-2.419 4.219M249.024 317.735l2.419-4.219M240.213 312.592l3.078 3.767M244.368 315.476l-3.078-3.767M235.849 314.191l1.654 4.58M238.809 318.298l-1.647-4.58M229.928 312.085l-1.202 4.712M230.074 317.144l1.195-4.719M215.078 311.717l-1.32 4.677M215.092 316.776l1.327-4.684" stroke="#42A54B" stroke-width=".3"/><path d="m225.008 303.662 4.419-36.161" stroke="#672938" stroke-width="3" stroke-linecap="round" stroke-linejoin="round"/><path d="m235.063 319.41 57.01-.236-.118 4.024h-59.498l2.606-3.788Z" fill="#E2C727" style="mix-blend-mode:multiply"/><path d="m295.152 303.898-4.614-35.605" stroke="#672938" stroke-width="3" stroke-linecap="round" stroke-linejoin="round"/><path d="M221.408 467.465H254v6.31a2.182 2.182 0 0 1-2.182 2.182h-28.235a2.181 2.181 0 0 1-2.182-2.182v-6.31h.007Z" fill="#fff" stroke="#672938" stroke-width="3" stroke-linecap="round" stroke-linejoin="round"/><path d="M253.937 466.631h-32.473a.208.208 0 0 0-.208.208v.549c0 .115.093.209.208.209h32.473a.209.209 0 0 0 .209-.209v-.549a.208.208 0 0 0-.209-.208Z" fill="#222"/><path d="M246.287 453.335h-17.178a2.555 2.555 0 0 0-2.301 1.453l-5.267 11.884h32.452l-5.406-11.884a2.547 2.547 0 0 0-2.3-1.453v0Z" fill="#FBE854" stroke="#672938" stroke-width="3" stroke-linecap="round" stroke-linejoin="round"/><path d="M246.982 460.876h-18.068l1.626-8.861a2.561 2.561 0 0 1 2.509-2.085h9.777a2.559 2.559 0 0 1 2.509 2.085l1.647 8.861Z" fill="#FBE854" stroke="#672938" stroke-width="3" stroke-linecap="round" stroke-linejoin="round"/><path d="M221.457 466.631s4.864-5.797 9.444-6.436l14.197.042a18.82 18.82 0 0 1 8.811 6.394" fill="#FBE854"/><path d="M221.457 466.631s4.864-5.797 9.444-6.436l14.197.042a18.82 18.82 0 0 1 8.811 6.394" stroke="#672938" stroke-width="3" stroke-linecap="round" stroke-linejoin="round"/><path d="m230.582 460.146-.355-6.95-2.084.362.153 5.462s-.112 1.251.548 1.634l1.738-.508ZM244.994 460.202l.577-6.999 1.744.306a.395.395 0 0 1 .327.424l-.424 5.122a3.519 3.519 0 0 1-.459 1.793l-1.765-.646Z" fill="#672938"/><path d="M246.224 453.078h-16.365c-.25 0-.459.348-.459.779v.987c0 .431.209.778.466.778l16.358-.069c.257 0 .459-.348.459-.779v-.917c0-.431-.202-.779-.459-.779ZM246.224 455.671h-16.365c-.25 0-.459.347-.459.778v.98c0 .431.209.785.466.785l16.358-.069c.257 0 .459-.355.459-.779v-.917c0-.431-.202-.778-.459-.778Z" fill="#fff" stroke="#672938" stroke-linecap="round" stroke-linejoin="round"/><path d="M266.821 467.465h32.599v6.31c0 .579-.23 1.134-.64 1.543-.409.41-.964.639-1.543.639h-28.22a2.18 2.18 0 0 1-2.182-2.182v-6.31h-.014Z" fill="#fff" stroke="#672938" stroke-width="3" stroke-linecap="round" stroke-linejoin="round"/><path d="M299.35 466.631h-32.474a.208.208 0 0 0-.208.208v.549c0 .115.093.209.208.209h32.474a.209.209 0 0 0 .208-.209v-.549a.208.208 0 0 0-.208-.208Z" fill="#672938"/><path d="M291.706 453.335h-17.178a2.555 2.555 0 0 0-2.3 1.453l-5.275 11.884h32.494l-5.406-11.884a2.548 2.548 0 0 0-2.335-1.453v0Z" fill="#FBE854" stroke="#672938" stroke-width="3" stroke-linecap="round" stroke-linejoin="round"/><path d="M292.401 460.876h-18.068l1.626-8.861a2.561 2.561 0 0 1 2.509-2.085h9.784a2.561 2.561 0 0 1 2.509 2.085l1.64 8.861Z" fill="#FBE854" stroke="#672938" stroke-width="3" stroke-linecap="round" stroke-linejoin="round"/><path d="M266.876 466.631s4.864-5.797 9.437-6.436l14.204.042a18.856 18.856 0 0 1 8.811 6.394" fill="#FBE854"/><path d="M266.876 466.631s4.864-5.797 9.437-6.436l14.204.042a18.856 18.856 0 0 1 8.811 6.394" stroke="#672938" stroke-width="3" stroke-linecap="round" stroke-linejoin="round"/><path d="m275.994 460.146-.355-6.95-2.084.362.153 5.462s-.112 1.251.549 1.634l1.737-.508ZM290.413 460.202l.577-6.999 1.737.306a.39.39 0 0 1 .327.424l-.417 5.122a3.468 3.468 0 0 1-.466 1.793l-1.758-.646Z" fill="#672938"/><path d="M291.643 453.078h-16.365c-.25 0-.459.348-.459.779v.987c0 .431.209.778.459.778l16.365-.069c.25 0 .459-.348.459-.779v-.917c0-.431-.209-.779-.459-.779Z" fill="#fff" stroke="#672938" stroke-linecap="round" stroke-linejoin="round"/><path d="M291.643 455.58h-16.365c-.25 0-.459.355-.459.779v.987c0 .431.209.778.459.778l16.365-.069c.25 0 .459-.348.459-.779v-.917c0-.424-.209-.779-.459-.779Z" fill="#fff" stroke="#672938" stroke-linecap="round" stroke-linejoin="round"/><path d="m295.674 302.668-17.603 34.2a2.23 2.23 0 0 0 .369 2.452c.197.217.387.635.653.759 3.121 2.46 6.826 3.908 10.722 4.691l2.85.577 18.595-39.142a12.074 12.074 0 0 0 1.084-7.443l-16.67 3.906Z" fill="#BD6C67" stroke="#672938" stroke-width="3" stroke-linecap="round" stroke-linejoin="round"/><path d="M274.485 333.435s4.781 13.956 18.61 11.697" stroke="#672938" stroke-width="3" stroke-linecap="round" stroke-linejoin="round"/><path d="m224.397 303.376-17.373-4.566a12.154 12.154 0 0 0 1.174 6.867l21.063 39.448c.306.646 2.891.729 3.474.34l5.56-1.939 5.767-4.865-19.665-35.285Z" fill="#BD6C67" stroke="#672938" stroke-width="3" stroke-linecap="round" stroke-linejoin="round"/><path d="M246.238 333.435s-4.788 13.956-18.61 11.697M260.97 345.417v-20.934" stroke="#672938" stroke-width="3" stroke-linecap="round" stroke-linejoin="round"/><path d="M293.491 346.042s.382.556-4.26.202l7.693 83.99s-.125 5.907-4.864 9.222c0 0 7.095.619 8.804-7.207 1.737-7.957-7.373-86.207-7.373-86.207Z" fill="#4C4C4C"/><path d="m230.567 346.835-7.276 86.297s-.444 3.642 1.244 5.678c0 0-3.731-.528-4.524-6.116-.792-5.588 7.644-86.77 7.644-86.77l2.912.911Z" fill="#000"/><path d="M292.08 344.166a23.196 23.196 0 0 1-3.203-.695l20.701-39.99c.17-.996.249-2.006.237-3.017l1.653-.41s.119 2.718-.646 4.254c-.764 1.536-18.742 39.858-18.742 39.858Z" fill="#F7C79A"/><path d="m314.311 297.094-3.669 1.008-16.038-41.346 19.707 40.338Z" fill="#FFF1A1" style="mix-blend-mode:screen"/><path d="m289.648 269.085 2.488 38.024 2.036-3.684-4.524-34.34Z" fill="#FFF1A1"/><path d="M242.158 253.295s13.738 23.352 17.943 27.64c0 0 10.625-13.281 17.275-27.105" stroke="#E5B656" stroke-width="1.48" stroke-miterlimit="10"/><path d="M260.059 287.67a4.545 4.545 0 1 0 0-9.09 4.545 4.545 0 0 0 0 9.09Z" fill="#E5B656"/><path d="M260.059 286.69a3.566 3.566 0 1 0-.001-7.131 3.566 3.566 0 0 0 .001 7.131Z" stroke="#CE9C52" stroke-width=".75" stroke-miterlimit="10"/><path d="m259.962 253.705-10.201 10.773-13.078-10.217 7.289-13.219 15.99 12.663Z" fill="#FBE854" stroke="#672938" stroke-width="3" stroke-linecap="round" stroke-linejoin="round"/><path d="m259.872 253.705 10.194 10.773 13.086-10.217-7.29-13.219-15.99 12.663Z" fill="#FBE854" stroke="#672938" stroke-width="3" stroke-linecap="round" stroke-linejoin="round"/><path d="m275.465 242.87 6.115 11.065-2.501 1.751-5.316-11.377 1.702-1.439Z" fill="#FFF1A1"/><path d="m244.236 242.766 2.294 1.856-6.171 11.064-2.127-1.856 6.004-11.064ZM210.075 298.101l16.045-42.589-20.389 41.61 4.344.979Z" fill="#E2C727" style="mix-blend-mode:multiply"/><path d="m223.646 304.308-14.197-2.572 23.071 42.59h-2.564l-21.848-40.727-.452-3.072a.459.459 0 0 1 .577-.507l15.413 4.288Z" fill="#CE8655"/><path d="m229.858 441.68-.062 4.615h2.988l-.028-4.615h-2.898Z" fill="#000"/><path d="m291.045 441.68.091 4.678-2.481-.021-.091-4.705 2.481.048Z" fill="#4C4C4C"/></g><defs><linearGradient id="d" x1="229.242" y1="177.422" x2="229.242" y2="194.975" gradientUnits="userSpaceOnUse"><stop stop-color="#302A37"/><stop offset="1" stop-color="#3C3247"/></linearGradient><linearGradient id="e" x1="291.33" y1="177.422" x2="291.33" y2="194.975" gradientUnits="userSpaceOnUse"><stop stop-color="#302A37"/><stop offset="1" stop-color="#3C3247"/></linearGradient><clipPath id="c"><path fill="#fff" transform="matrix(-.24873 -.96857 -.96937 .24559 464.699 373.222)" d="M0 0h240.848v315.824H0z"/></clipPath><clipPath id="f"><path fill="#fff" transform="translate(203 240)" d="M0 0h114v237H0z"/></clipPath><filter id="a" x="21.996" y="93.569" width="460" height="397" filterUnits="userSpaceOnUse" color-interpolation-filters="sRGB"><feFlood flood-opacity="0" result="BackgroundImageFix"/><feColorMatrix in="SourceAlpha" values="0 0 0 0 0 0 0 0 0 0 0 0 0 0 0 0 0 0 127 0" result="hardAlpha"/><feOffset dy="6"/><feColorMatrix values="0 0 0 0 1 0 0 0 0 0.219608 0 0 0 0 0.0823529 0 0 0 1 0"/><feBlend in2="BackgroundImageFix" result="effect1_dropShadow_2_17654"/><feBlend in="SourceGraphic" in2="effect1_dropShadow_2_17654" result="shape"/></filter><filter id="b" x="101.996" y=".569" width="300" height="68" filterUnits="userSpaceOnUse" color-interpolation-filters="sRGB"><feFlood flood-opacity="0" result="BackgroundImageFix"/><feColorMatrix in="SourceAlpha" values="0 0 0 0 0 0 0 0 0 0 0 0 0 0 0 0 0 0 127 0" result="hardAlpha"/><feMorphology radius="9" in="SourceAlpha" result="effect1_dropShadow_2_17654"/><feOffset dy="20"/><feGaussianBlur stdDeviation="3.5"/><feColorMatrix values="0 0 0 0 0 0 0 0 0 0 0 0 0 0 0 0 0 0 0.1 0"/><feBlend in2="BackgroundImageFix" result="effect1_dropShadow_2_17654"/><feColorMatrix in="SourceAlpha" values="0 0 0 0 0 0 0 0 0 0 0 0 0 0 0 0 0 0 127 0" result="hardAlpha"/><feOffset dy="6"/><feColorMatrix values="0 0 0 0 0.839216 0 0 0 0 0.12549 0 0 0 0 0 0 0 0 1 0"/><feBlend in2="effect1_dropShadow_2_17654" result="effect2_dropShadow_2_17654"/><feBlend in="SourceGraphic" in2="effect2_dropShadow_2_17654" result="shape"/></filter></defs></svg>