<svg width="117" height="21" fill="none" xmlns="http://www.w3.org/2000/svg"><path d="M.571 18.83c0 .78.39 1.17 1.144 1.17h2.21c.78 0 1.17-.39 1.17-1.17v-4.758H7.28c2.288 0 4.134-.546 5.512-1.638 1.378-1.092 2.08-2.678 2.08-4.732 0-4.706-2.73-6.526-7.54-6.526H1.715c-.65 0-1.144.494-1.144 1.144v16.51ZM7.41 5.102c2.002 0 3.302.832 3.302 2.522s-1.222 2.522-3.12 2.522H5.095V5.102H7.41Zm9.21 13.754c0 .65.415 1.144 1.143 1.144h14.612c.754 0 1.118-.39 1.118-1.144v-1.612c0-.754-.364-1.144-1.118-1.144H21.142V2.32c0-.65-.416-1.144-1.144-1.144h-2.236c-.728 0-1.144.494-1.144 1.144v16.536Zm13.051-6.5.234.884c.182.728.676 1.092 1.43 1.092h1.352c.702 0 .988-.494.806-1.092l-3.25-10.972c-.208-.728-.702-1.092-1.456-1.092h-1.794c-.754 0-1.248.364-1.456 1.092l-3.25 10.972c-.182.598.156 1.092.806 1.092h1.352c.832 0 1.222-.286 1.43-1.092l.234-.884h3.562Zm-2.886-2.704 1.118-4.368 1.118 4.368h-2.236Zm10.928 9.204c0 .65.416 1.144 1.118 1.144h2.262c.702 0 1.144-.494 1.144-1.144v-5.694l4.966-10.946c.208-.494-.052-1.04-.676-1.04h-2.34c-.754 0-1.274.364-1.56 1.066l-2.47 6.24-2.418-6.24c-.26-.702-.78-1.066-1.56-1.066h-2.704c-.624 0-.858.546-.65 1.066l4.888 11.024v5.59Zm22.707-8.632c-.702 0-1.144.416-1.144 1.118v.65c0 .702.442 1.144 1.144 1.144h1.768v.442c0 1.742-.754 2.6-2.704 2.6-2.08 0-2.73-1.612-2.73-5.486 0-3.848.676-5.694 2.73-5.694 1.586 0 2.626 1.326 2.652 3.016 0 .52.416.702 1.274.546l1.872-.312c.936-.13 1.118-.442 1.04-1.3-.13-1.846-.728-3.302-1.768-4.368-1.04-1.066-2.73-1.612-5.07-1.612-5.122 0-7.306 3.25-7.306 9.724 0 6.578 2.106 9.516 7.306 9.516 2.678 0 4.576-.754 5.512-2.08.962-1.352 1.326-2.756 1.326-4.706v-2.08c0-.65-.416-1.118-1.118-1.118H60.42Zm16.636-7.956c-.183-.728-.65-1.092-1.43-1.092h-2.237c-.754 0-1.248.364-1.456 1.092l-4.784 16.64c-.181.546.183 1.092.833 1.092h2.444c.728 0 1.17-.364 1.352-1.118l.493-2.21h4.368l.494 2.21c.182.65.703 1.118 1.43 1.118h2.47c.65 0 .989-.52.806-1.118L77.055 2.268ZM74.428 6.87l1.535 6.786H72.92l1.507-6.786Zm21.66 11.96c0 .728.442 1.17 1.17 1.17h2.21c.728 0 1.17-.442 1.17-1.17V2.32c0-.702-.416-1.144-1.144-1.144h-1.43c-.728 0-1.326.312-1.794.91l-4.342 6.032-4.342-6.032c-.468-.598-1.066-.91-1.82-.91h-1.404c-.728 0-1.144.442-1.144 1.144v16.51c0 .78.39 1.17 1.144 1.17h2.21c.78 0 1.17-.39 1.17-1.17V8.69l3.484 4.654a.882.882 0 0 0 1.378 0l3.484-4.654v10.14Zm11.662-6.292h5.434c.728 0 1.118-.442 1.118-1.144V9.782c0-.754-.364-1.144-1.118-1.144h-5.434V5.102h7.124c.728 0 1.144-.442 1.144-1.144V2.32c0-.702-.416-1.144-1.144-1.144H104.37c-.702 0-1.144.494-1.144 1.144v16.536c0 .65.442 1.144 1.144 1.144h10.504c.728 0 1.144-.442 1.144-1.144v-1.612c0-.702-.416-1.144-1.144-1.144h-7.124v-3.562Z" fill="#fff"/></svg>