<svg width="329" height="433" fill="none" xmlns="http://www.w3.org/2000/svg"><path opacity=".2" d="M197.364 251.458c0 17.123 35.506 102.489 35.506 102.489 2.988 10.306 13.288 9.657 19.417-9.117l20.336-69.14c10.707-37.503 11.868-45.663-15.725-72.618l-36.689-27.72c-12.567-9.497-22.85-3.263-22.85 13.86l.005 62.246ZM142.078 251.459c0 17.122-35.505 102.489-35.505 102.489-2.988 10.305-13.288 9.656-19.418-9.118L66.82 275.69c-10.707-37.503-11.868-45.662 15.725-72.618l36.689-27.72c12.567-9.496 22.851-3.262 22.851 13.86l-.006 62.247Z" fill="#231F20"/><path d="m187.86 240.454-.005-62.246c0-8.356 2.515-13.522 5.99-15.63 3.384-2.052 8.402-1.609 14.456 2.966v.001l36.613 27.662c13.747 13.437 20.004 21.911 21.729 31.48 1.746 9.681-1.08 20.722-6.464 39.581l-.002.006-20.327 69.107c-1.496 4.576-3.222 7.975-4.973 10.348-1.763 2.389-3.486 3.654-4.949 4.135-1.402.461-2.653.238-3.738-.564-1.136-.84-2.195-2.401-2.883-4.775l-.024-.081-.032-.077-1.385.576 1.385-.577-.002-.003-.004-.011-.019-.046-.076-.183a1644.107 1644.107 0 0 1-5.44-13.346c-3.326-8.265-7.76-19.46-12.194-31.188-4.434-11.731-8.862-23.98-12.179-34.354-1.659-5.189-3.034-9.891-3.994-13.817-.968-3.96-1.483-7.017-1.483-8.964ZM129.574 240.454c0 1.947-.515 5.004-1.483 8.964-.959 3.926-2.334 8.629-3.993 13.817-3.317 10.375-7.745 22.623-12.18 34.354-4.433 11.728-8.867 22.924-12.193 31.188a1679.211 1679.211 0 0 1-5.144 12.631l-.296.715-.076.183-.02.046-.004.011-.001.003 1.385.577-1.385-.576-.033.078-.023.08c-.688 2.374-1.748 3.936-2.883 4.775-1.085.802-2.337 1.025-3.739.564-1.462-.48-3.185-1.746-4.948-4.135-1.751-2.373-3.478-5.771-4.974-10.348l-20.326-69.107-.002-.006c-5.384-18.859-8.21-29.899-6.465-39.58 1.726-9.569 7.982-18.043 21.73-31.481l36.612-27.662c6.055-4.575 11.072-5.019 14.456-2.967 3.475 2.108 5.991 7.274 5.991 15.63l-.006 62.246Z" fill="#FF3815" stroke="#4F5D73" stroke-width="3"/><path opacity=".2" d="M136.917 310.398c0-55.836 31.973-70.775 31.973-70.775s31.979 14.933 31.973 70.775c-.005 55.841-24.93 121.328-31.973 121.328-6.828-.005-31.978-65.487-31.973-121.328Z" fill="#231F20"/><path d="M125.913 299.393c0-55.836 31.973-70.774 31.973-70.774s31.979 14.933 31.973 70.774c-.005 55.842-24.93 121.329-31.973 121.329-6.828-.006-31.978-65.487-31.973-121.329Z" fill="#FFA722"/><path d="M125.907 252.707c0-55.836 31.973-70.774 31.973-70.774s31.979 14.933 31.974 70.774c-.006 55.842-24.931 121.329-31.974 121.329-6.822 0-31.973-65.492-31.973-121.329Z" fill="#F5CF87"/><path opacity=".2" d="M246.52 173.647c0 85.943-77.635 140.063-77.635 140.063s-77.63-54.114-77.636-140.064c-.005-85.949 60.535-155.623 77.636-155.623 16.583 0 77.641 69.674 77.635 155.624Z" fill="#231F20"/><path d="M234.017 162.642h1.5-1.5c0 42.509-19.201 77.202-38.49 101.324a223.771 223.771 0 0 1-26.507 27.815 182.507 182.507 0 0 1-8.723 7.246c-1.04.808-1.858 1.419-2.416 1.829-.558-.41-1.376-1.021-2.416-1.828a182.686 182.686 0 0 1-8.722-7.246 223.753 223.753 0 0 1-26.506-27.814c-19.288-24.121-38.49-58.814-38.492-101.326-.002-42.631 15.016-81.268 32.182-109.258 8.581-13.993 17.677-25.286 25.655-33.061 3.991-3.89 7.676-6.873 10.852-8.873 3.226-2.032 5.744-2.931 7.447-2.931 1.63 0 4.095.892 7.292 2.927 3.143 2 6.807 4.985 10.787 8.875 7.956 7.777 17.068 19.072 25.682 33.065 17.232 27.991 32.377 66.628 32.375 109.256Z" fill="#F7F7F7" stroke="#4F5D73" stroke-width="3"/><path opacity=".2" d="M176.67 352.616c0 8.594.815 15.56-7.78 15.56-8.594 0-7.78-6.966-7.78-15.56l-15.566-124.498c0-8.594 14.752-31.126 23.346-31.126 8.595 0 23.346 22.532 23.346 31.126L176.67 352.616Z" fill="#231F20"/><path d="m164.178 341.425-.012.093v.093c0 .727.006 1.429.011 2.11.011 1.381.021 2.673-.017 3.901-.057 1.823-.219 3.337-.594 4.549-.366 1.184-.91 2-1.695 2.546-.801.557-2.028.954-3.985.954-1.956 0-3.184-.397-3.985-.954-.785-.546-1.328-1.362-1.695-2.546-.374-1.212-.537-2.726-.593-4.549-.039-1.228-.029-2.52-.018-3.901.006-.681.011-1.383.011-2.11v-.093l-.011-.093-15.554-124.4c.026-1.815.83-4.554 2.303-7.777 1.474-3.226 3.537-6.766 5.87-10.052 2.336-3.29 4.907-6.275 7.381-8.42 2.542-2.204 4.717-3.288 6.291-3.288 1.574 0 3.749 1.084 6.291 3.288 2.474 2.145 5.046 5.13 7.382 8.42 2.333 3.286 4.396 6.826 5.869 10.052 1.473 3.223 2.278 5.962 2.303 7.777l-15.553 124.4Z" fill="#FF3815" stroke="#4F5D73" stroke-width="3"/><path opacity=".2" d="M200.847 141.198c0-17.189-13.935-31.124-31.125-31.124-17.189 0-31.124 13.935-31.124 31.124 0 17.19 13.935 31.125 31.124 31.125 17.19 0 31.125-13.935 31.125-31.125ZM185.284 78.947c0-8.595-6.968-15.563-15.562-15.563-8.595 0-15.563 6.968-15.563 15.563 0 8.594 6.968 15.562 15.563 15.562 8.594 0 15.562-6.968 15.562-15.562Z" fill="#231F20"/><path d="M189.843 130.193c0-17.189-13.935-31.124-31.125-31.124-17.189 0-31.124 13.935-31.124 31.124 0 17.19 13.935 31.125 31.124 31.125 17.19 0 31.125-13.935 31.125-31.125Z" fill="#4F5D73"/><path fill-rule="evenodd" clip-rule="evenodd" d="m243.159 235.462.007-.001c1.675-.274 3.282.227 5.512.92l.24.075.111.035.13.04c2.229.692 3.828 1.188 5.043 2.319l.009.009.009.009a7.035 7.035 0 0 1 2.039 3.868v.002c.294 1.684-.208 3.296-.901 5.522l-.075.242-.026.085a13.73 13.73 0 0 0-.049.157c-.69 2.225-1.19 3.837-2.386 5.058a6.98 6.98 0 0 1-2.303 1.575 7.346 7.346 0 0 1 .747 6l-1.363 4.386a7.339 7.339 0 0 1-4.011 4.526c.501.788.837 1.666.999 2.593l.001.002c.293 1.685-.209 3.296-.901 5.522l-.076.242-.075.242c-.69 2.224-1.19 3.835-2.383 5.056-.256.266-.53.508-.819.727.102.132.197.279.282.442.623 1.183.272 2.303.106 2.833l-.018.057-3.816 12.28-.045.145c-.419 1.351-.697 2.244-1.221 3.065a7.32 7.32 0 0 1-6.491 3.41c-.974-.034-1.869-.312-3.22-.732l-.145-.045-6.438-2.001-.057-.017c-.531-.164-1.654-.51-2.277-1.693-.622-1.183-.271-2.303-.105-2.833l.018-.057 5.361-17.251.008-.026.009-.031c.164-.531.509-1.653 1.693-2.275.162-.085.322-.151.48-.203a7.182 7.182 0 0 1-.26-1.064c-.291-1.682.21-3.293.902-5.516v-.002a35.327 35.327 0 0 0 .15-.482l.001-.001v-.002c.69-2.223 1.189-3.832 2.364-5.043a6.98 6.98 0 0 1 2.305-1.577 7.346 7.346 0 0 1-.747-6l.091-.293-1.61-.5-.057-.018c-.531-.163-1.654-.509-2.276-1.692-.623-1.183-.272-2.303-.106-2.833l.018-.057.016-.053c.171-.549.278-.894.425-1.246l.003-.006.003-.007a7.384 7.384 0 0 1 7.965-4.342 6.66 6.66 0 0 1-.088-.447c-.292-1.682.21-3.293.902-5.516v-.002l.001-.001.074-.239.074-.24c.692-2.228 1.19-3.834 2.365-5.058l.003-.003.002-.002a7.04 7.04 0 0 1 3.87-2.035l.007-.002Zm-12.64 18.982c-.095.221-.18.492-.348 1.035-.129.414-.193.621-.104.789.088.169.295.233.709.361l3.365 1.046c.414.129.621.193.71.362.088.168.024.375-.104.788l-.182.585-.454 1.462a4.594 4.594 0 0 0 3.026 5.75l4.39 1.364c2.424.753 5-.6 5.753-3.022l.454-1.462.454-1.462.454-1.462a4.595 4.595 0 0 0-3.026-5.75l-8.926-2.773c-.543-.169-.815-.254-1.051-.301a4.596 4.596 0 0 0-5.12 2.69Zm10.403 7.743c-.547-.17-.82-.255-.987-.436a.913.913 0 0 1-.222-.421c-.054-.24.031-.513.2-1.06.17-.546.255-.819.436-.986a.923.923 0 0 1 .421-.222c.24-.054.514.031 1.061.201.547.17.82.255.988.436a.917.917 0 0 1 .221.421c.055.24-.03.513-.2 1.06-.17.546-.255.82-.436.987a.926.926 0 0 1-.421.221c-.24.054-.514-.031-1.061-.201Zm-17.444 33.356c.168-.088.375-.024.789.105l6.072 1.887a.382.382 0 1 0 .228-.731l-6.073-1.887c-.414-.129-.62-.193-.709-.362-.089-.168-.025-.375.104-.788l1.272-4.094c.128-.413.193-.62.361-.709.169-.088.376-.024.789.105l6.073 1.887a.383.383 0 0 0 .227-.731l-6.072-1.887c-.414-.129-.621-.193-.71-.362-.088-.168-.024-.375.104-.788l1.272-4.094c.129-.413.193-.62.362-.709.168-.088.375-.024.789.105l11.413 3.546c.414.129.621.193.709.362.089.168.025.375-.104.788l-1.544 4.971-.228.731-1.817 5.848-.227.731c-.422 1.36-.634 2.039-.957 2.551a4.595 4.595 0 0 1-4.067 2.137c-.605-.024-1.285-.236-2.646-.659l-6.438-2c-.414-.129-.621-.193-.709-.362-.089-.168-.025-.375.104-.788l1.272-4.094c.128-.413.192-.62.361-.709Zm6.561-14.658c.79.77 2.019 1.152 4.478 1.916 2.458.764 3.687 1.146 4.775.96a4.598 4.598 0 0 0 2.514-1.321c.77-.789 1.151-2.018 1.915-4.474.763-2.456 1.145-3.685.958-4.771a4.601 4.601 0 0 0-1.323-2.513c-.79-.77-2.02-1.152-4.478-1.916-2.458-.764-3.688-1.146-4.775-.96a4.597 4.597 0 0 0-2.514 1.321c-.77.79-1.152 2.018-1.915 4.474-.763 2.456-1.145 3.685-.958 4.772a4.585 4.585 0 0 0 1.323 2.512Zm2.253-4.867a.459.459 0 0 1-.302-.575l.636-2.047a.46.46 0 0 1 .575-.302l1.574.489a.457.457 0 0 1 .27.225l.707 1.342a.459.459 0 0 1-.193.62l-1.342.705a.46.46 0 0 1-.351.032l-1.574-.489Zm8.477 2.153a.459.459 0 0 1-.575.302l-1.574-.489a.459.459 0 0 1-.271-.225l-.706-1.342a.459.459 0 0 1 .193-.62l1.342-.705a.459.459 0 0 1 .35-.032l1.574.489a.46.46 0 0 1 .303.575l-.636 2.047Zm-4.308-6.789a.46.46 0 0 1 .575-.303l2.048.637a.46.46 0 0 1 .303.575l-.489 1.573a.46.46 0 0 1-.225.27l-1.342.705a.46.46 0 0 1-.621-.193l-.706-1.342a.458.458 0 0 1-.032-.35l.489-1.572Zm-2.151 8.469a.46.46 0 0 1-.303-.575l.489-1.572a.459.459 0 0 1 .225-.271l1.342-.705a.46.46 0 0 1 .621.193l.706 1.342a.459.459 0 0 1 .033.35l-.489 1.573a.46.46 0 0 1-.575.302l-2.049-.637Zm9.565-27.167c-2.458-.764-3.687-1.146-4.478-1.916a4.598 4.598 0 0 1-1.323-2.512c-.186-1.087.195-2.315.959-4.772.763-2.456 1.144-3.684 1.914-4.474a4.604 4.604 0 0 1 2.514-1.321c1.088-.186 2.317.196 4.776.96 2.458.764 3.687 1.146 4.478 1.916a4.593 4.593 0 0 1 1.322 2.513c.187 1.087-.194 2.315-.958 4.771-.763 2.456-1.145 3.685-1.915 4.474a4.591 4.591 0 0 1-2.514 1.321c-1.087.186-2.316-.196-4.775-.96Zm-2.355-8.427a1.684 1.684 0 0 0 1.11 2.108 1.683 1.683 0 1 0 .999-3.216 1.685 1.685 0 0 0-2.109 1.108Zm6.963 3.927a1.684 1.684 0 1 0 1-3.214 1.684 1.684 0 0 0-1 3.214Zm-1.019-7.05a1.684 1.684 0 1 0-1 3.217 1.684 1.684 0 0 0 1-3.217Zm-3.926 6.956a1.685 1.685 0 1 0 3.219 1 1.685 1.685 0 0 0-3.219-1Z" fill="#4F5D73"/><path fill-rule="evenodd" clip-rule="evenodd" d="M230.623 270.755c.289-.721.578-1.23.966-1.628a4.604 4.604 0 0 1 2.514-1.321c1.088-.186 2.317.196 4.775.96 2.459.764 3.688 1.146 4.478 1.916a4.588 4.588 0 0 1 1.323 2.513c.187 1.086-.195 2.315-.958 4.771-.763 2.456-1.145 3.685-1.915 4.474a4.591 4.591 0 0 1-2.514 1.321c-1.087.186-2.317-.196-4.775-.96s-3.688-1.146-4.478-1.916a4.598 4.598 0 0 1-1.323-2.512c-.094-.548-.044-1.131.127-1.89l1.78-5.728Zm-.452-15.275c.169-.544.253-.815.348-1.036a4.596 4.596 0 0 1 5.12-2.69c.236.047.508.132 1.052.301l8.925 2.773a4.595 4.595 0 0 1 3.155 5.233l-1.678 5.402a4.596 4.596 0 0 1-5.566 2.523l-4.389-1.364a4.594 4.594 0 0 1-3.027-5.75l.454-1.462.182-.585c.129-.413.193-.62.104-.788-.088-.169-.295-.233-.709-.362l-3.366-1.045c-.413-.129-.62-.193-.709-.362-.089-.168-.024-.375.104-.788Zm10.347 31.143a.401.401 0 0 0-.039-.225c-.089-.169-.296-.233-.71-.362l-11.413-3.546c-.414-.129-.621-.193-.789-.104-.169.088-.233.295-.361.708l-1.272 4.094c-.129.413-.193.62-.104.789.088.168.295.232.709.361l6.072 1.887a.383.383 0 1 1-.227.731l-6.072-1.887c-.414-.129-.621-.193-.789-.105-.169.089-.233.296-.362.709l-1.272 4.094c-.128.413-.192.62-.104.789.089.168.296.232.71.361l6.072 1.887a.382.382 0 1 1-.227.731l-6.072-1.887c-.414-.129-.621-.193-.79-.105-.168.089-.233.296-.361.709l-1.272 4.094c-.129.413-.193.62-.104.788.089.169.295.233.709.362l6.438 2c1.361.423 2.041.635 2.646.659a4.596 4.596 0 0 0 4.068-2.137c.136-.215.252-.46.372-.773l4.544-14.622Zm-.583-24.872c.167.181.441.266.988.436.547.17.82.255 1.06.201a.93.93 0 0 0 .422-.221c.18-.167.265-.441.435-.987.17-.547.255-.82.201-1.06a.918.918 0 0 0-.222-.421c-.167-.181-.441-.266-.988-.436-.547-.17-.82-.255-1.061-.201a.923.923 0 0 0-.421.222c-.181.167-.265.44-.435.986-.17.547-.255.82-.201 1.06a.913.913 0 0 0 .222.421Zm-.537-10.982c.79.769 2.019 1.151 4.478 1.915 2.458.764 3.687 1.146 4.775.96a4.598 4.598 0 0 0 2.514-1.321c.77-.789 1.151-2.017 1.915-4.474.763-2.456 1.145-3.684.958-4.771a4.601 4.601 0 0 0-1.323-2.513c-.79-.77-2.02-1.152-4.478-1.916-2.459-.764-3.688-1.146-4.775-.959a4.59 4.59 0 0 0-2.514 1.32c-.388.398-.677.907-.967 1.628l-1.78 5.728c-.17.759-.22 1.342-.126 1.89a4.591 4.591 0 0 0 1.323 2.513Z" fill="#fff"/><path fill-rule="evenodd" clip-rule="evenodd" d="M232.292 276.018a.46.46 0 0 1-.303-.575l.636-2.047a.46.46 0 0 1 .576-.302l1.574.489a.46.46 0 0 1 .27.225l.706 1.342a.459.459 0 0 1-.193.62l-1.342.705a.459.459 0 0 1-.35.032l-1.574-.489Zm8.476 2.153a.46.46 0 0 1-.575.302l-1.574-.489a.457.457 0 0 1-.27-.225l-.707-1.342a.46.46 0 0 1 .193-.62l1.342-.705a.46.46 0 0 1 .351-.032l1.574.489a.459.459 0 0 1 .302.575l-.636 2.047Zm-4.308-6.79a.46.46 0 0 1 .576-.302l2.048.637a.46.46 0 0 1 .303.575l-.489 1.573a.46.46 0 0 1-.225.27l-1.342.705a.46.46 0 0 1-.621-.193l-.706-1.342a.454.454 0 0 1-.032-.35l.488-1.573Zm-2.15 8.47a.46.46 0 0 1-.303-.575l.489-1.573a.46.46 0 0 1 .225-.27l1.342-.705a.46.46 0 0 1 .621.193l.706 1.342a.459.459 0 0 1 .032.35l-.489 1.573a.46.46 0 0 1-.575.302l-2.048-.637Z" fill="#C3C2CA"/><path fill-rule="evenodd" clip-rule="evenodd" d="M243.538 248.091a1.684 1.684 0 1 0 3.218.998 1.684 1.684 0 0 0-3.218-.998Z" fill="#FFA722"/><path fill-rule="evenodd" clip-rule="evenodd" d="M248.483 248.184a1.684 1.684 0 1 0 1-3.214 1.684 1.684 0 0 0-1 3.214Z" fill="#26E1ED"/><path fill-rule="evenodd" clip-rule="evenodd" d="M247.464 241.134a1.685 1.685 0 1 0-1 3.218 1.685 1.685 0 0 0 1-3.218Z" fill="#FF3815"/><path fill-rule="evenodd" clip-rule="evenodd" d="M241.52 244.257a1.684 1.684 0 0 0 1.11 2.108 1.683 1.683 0 1 0 .999-3.216 1.685 1.685 0 0 0-2.109 1.108Z" fill="#E2A135"/><path d="M174.28 67.942c0-8.594-6.968-15.562-15.562-15.562-8.595 0-15.563 6.967-15.563 15.562 0 8.595 6.968 15.563 15.563 15.563 8.594 0 15.562-6.968 15.562-15.563Z" fill="#4F5D73"/></svg>