<svg id="Layer_1" style="enable-background:new 0 0 50 50" version="1.1" viewBox="0 0 50 50" xml:space="preserve" xmlns="http://www.w3.org/2000/svg"><style>.st0{fill:#4d4c4d}.st1{fill:#ed6f62}.st2{fill:#656766}.st3{fill:#e8e4e7}.st4{fill:#53b2e4}.st7{fill:#d3d3d3}.st8{fill:#86be57}</style><path class="st0" d="M14.6 9.4h20.7v4.5H14.6zM24.5 17h1v10.7h-1z"/><path class="st0" d="M38.5 36.3h-1v-5.1c0-1.5-1.3-2.8-2.8-2.8H15.3c-1.5 0-2.8 1.3-2.8 2.8v5.1h-1v-5.1c0-2.1 1.7-3.8 3.8-3.8h19.3c2.1 0 3.8 1.7 3.8 3.8v5.1h.1z"/><circle class="st1" cx="25" cy="27.9" r="2.8"/><path class="st0" d="M6.7 45.8h8.7v1.5H6.7z"/><path class="st2" d="M16.2 47.2H5.9c-.5 0-.9.4-.9.9s.4.9.9.9h10.3c.5 0 .9-.4.9-.9s-.4-.9-.9-.9zM19.2 32.2H2.9c-1 0-1.9.8-1.9 1.9v10c0 1.1.9 1.9 1.9 1.9h16.3c1.1 0 1.9-.9 1.9-1.9v-10c0-1.1-.9-1.9-1.9-1.9z"/><path class="st3" d="M2.9 43.6c-.5 0-1-.4-1-1V34c0-.5.4-1 1-1h16.3c.5 0 1 .4 1 1v8.6c0 .5-.4 1-1 1H2.9z"/><path class="st4" d="M20.2 34.6V34c0-.5-.4-1-1-1H2.9c-.5 0-1 .4-1 1v.6h18.3z"/><path style="fill:#ffca65" d="M2.9 35.4h5.6v7.3H2.9z"/><path style="fill:#bc8d5d" d="M9.5 35.4h9.6v2.8H9.5z"/><path class="st7" d="M9.5 39h9.6v.8H9.5zM9.5 40.5h9.6v.8H9.5zM9.5 41.9h9.6v.8H9.5z"/><path class="st0" d="M34.6 45.8h8.7v1.5h-8.7z"/><path class="st2" d="M44.1 47.2H33.8c-.5 0-.9.4-.9.9s.4.9.9.9h10.3c.5 0 .9-.4.9-.9s-.4-.9-.9-.9zM47.1 32.2H30.8c-1.1 0-1.9.9-1.9 1.9v10c0 1.1.9 1.9 1.9 1.9h16.3c1.1 0 1.9-.9 1.9-1.9v-10c0-1.1-.9-1.9-1.9-1.9z"/><path class="st3" d="M30.8 43.6c-.5 0-1-.4-1-1V34c0-.5.4-1 1-1h16.3c.5 0 1 .4 1 1v8.6c0 .5-.4 1-1 1H30.8z"/><path class="st4" d="M48.1 34.6V34c0-.5-.4-1-1-1H30.8c-.5 0-1 .4-1 1v.6h18.3z"/><path class="st1" d="M30.8 35.4h5.6v7.3h-5.6z"/><path class="st8" d="M37.5 35.4h9.6v2.8h-9.6z"/><path class="st7" d="M37.5 39h9.6v.8h-9.6zM37.5 40.5h9.6v.8h-9.6zM37.5 41.9h9.6v.8h-9.6z"/><path class="st2" d="M36.6 1H13.4C12.1 1 11 2.1 11 3.4v4.2c0 1.3 1.1 2.4 2.4 2.4h23.1c1.3 0 2.4-1.1 2.4-2.4V3.4c0-1.3-1-2.4-2.3-2.4z"/><circle class="st1" cx="15.4" cy="5.5" r="1.7"/><circle class="st8" cx="19.8" cy="5.5" r="1.7"/><circle class="st4" cx="24.2" cy="5.5" r="1.7"/><path class="st2" d="M36.6 12.7H13.4c-1.3 0-2.4 1.1-2.4 2.4v4.2c0 1.3 1.1 2.4 2.4 2.4h23.1c1.3 0 2.4-1.1 2.4-2.4V15c0-1.3-1-2.3-2.3-2.3z"/><circle class="st1" cx="15.4" cy="17.1" r="1.7"/><circle class="st8" cx="19.8" cy="17.1" r="1.7"/><circle class="st4" cx="24.2" cy="17.1" r="1.7"/></svg>