<svg id="poststamp" style="enable-background:new 0 0 128 128" version="1.1" viewBox="0 0 128 128" xml:space="preserve" xmlns="http://www.w3.org/2000/svg"><style>.st1{opacity:.5}.st1,.st3{fill:#fff}.st6{fill:#0c508e}</style><circle cx="64" cy="64.1" r="64" style="fill:#ff4848"/><path class="st1" d="M113.5 49c-2.5 0-4.5-2-4.5-4.5s2-4.5 4.5-4.5 4.5 2 4.5 4.5c-.1 2.5-2.1 4.5-4.5 4.5zm0-6.8c-1.3 0-2.4 1.1-2.4 2.4 0 1.3 1.1 2.4 2.4 2.4 1.3 0 2.4-1.1 2.4-2.4-.1-1.4-1.1-2.4-2.4-2.4zM49 18c-2.2 0-4-1.8-4-4s1.8-4 4-4 4 1.8 4 4-1.8 4-4 4zm0-6.1c-1.2 0-2.1 1-2.1 2.1 0 1.2.9 2.1 2.1 2.1 1.2 0 2.1-1 2.1-2.1 0-1.2-.9-2.1-2.1-2.1zM17 53c-2.2 0-4-1.8-4-4s1.8-4 4-4 4 1.8 4 4-1.8 4-4 4zm0-6.1c-1.2 0-2.1 1-2.1 2.1 0 1.2 1 2.1 2.1 2.1 1.2 0 2.1-1 2.1-2.1 0-1.2-.9-2.1-2.1-2.1zM92 110c-2.2 0-4-1.8-4-4s1.8-4 4-4 4 1.8 4 4-1.8 4-4 4zm0-6.1c-1.2 0-2.1 1-2.1 2.1 0 1.2 1 2.1 2.1 2.1 1.2 0 2.1-1 2.1-2.1 0-1.2-.9-2.1-2.1-2.1zM19.7 72.3c0-.4-.4-.8-1-.9l-1.9-.3c-.5-.1-1.1-.6-1.1-1.1l-.3-1.9c-.1-.5-.5-1-.9-1s-.8.4-.9 1l-.1 1.9c-.1.5-.6 1.1-1.1 1.1l-1.9.3c-.5.1-1 .5-1 .9s.4.8 1 .9l1.9.3c.5.1 1.1.6 1.1 1.1l.3 1.9c.1.5.5 1 .9 1s.8-.4.8-1l.3-2.1c.1-.5.6-1 1.1-1.1l1.8-.1c.6-.2 1-.6 1-.9zM120.6 68.9c0-.4-.4-.8-1-.9l-1.9-.3c-.5-.1-1.1-.6-1.1-1.1l-.3-1.9c-.1-.5-.5-1-.9-1s-.8.4-.9 1l-.3 1.9c-.1.5-.6 1.1-1.1 1.1l-1.9.3c-.5.1-1 .5-1 .9s.4.8 1 .9l1.9.3c.5.1 1.1.6 1.1 1.1l.3 1.9c.1.5.5 1 .9 1s.8-.4.8-1l.3-2.1c.1-.5.6-1 1.1-1.1l1.8-.1c.7-.1 1.2-.5 1.2-.9z"/><path d="M92.5 25.4c.2 0 .4-.1.6-.1l-1.4-6-6.5 1.5c.3 2.1-1 4.1-3.1 4.6s-4.2-.7-4.9-2.8l-3.8.9c.3 2.1-1 4.1-3.1 4.6s-4.2-.7-4.9-2.8l-3.8.9c.3 2.1-1 4.1-3.1 4.6s-4.2-.7-4.9-2.8l-3.5 1c.3 2.1-1 4.1-3.1 4.6s-4.2-.7-4.9-2.8l-3.8.9c.3 2.1-1 4.1-3.1 4.6s-4.2-.7-4.9-2.8l-4.6 1.1 1.4 5.9c2.2-.5 4.4.9 5 3.1.5 2.2-.9 4.4-3.1 5l.9 3.7c2.2-.5 4.4.9 5 3.1.5 2.2-.9 4.4-3.1 5l.9 3.7c2.2-.5 4.4.9 5 3.1.5 2.2-.9 4.4-3.1 5l.9 3.7c2.2-.5 4.4.9 5 3.1.5 2.2-.9 4.4-3.1 5l.9 3.7c2.2-.5 4.4.9 5 3.1.5 2.2-.9 4.4-3.1 5l.9 3.7c2.2-.5 4.4.9 5 3.1.5 2.2-.9 4.4-3.1 5l1.1 4.6 3.5-.8c-.5-2.2.9-4.4 3.1-5 2.2-.5 4.4.9 5 3.1l3.7-.9c-.5-2.2.9-4.4 3.1-5 2.2-.5 4.4.9 5 3.1l3.7-.9c-.5-2.2.9-4.4 3.1-5 2.2-.5 4.4.9 5 3.1l3.7-.9c-.5-2.2.9-4.4 3.1-5 2.2-.5 4.4.9 5 3.1l3.7-.9c-.5-2.2.9-4.4 3.1-5 2.2-.5 4.4.9 5 3.1l7.5-1.8-1.1-4.7c-.2.1-.4.2-.6.2-2.2.5-4.4-.9-5-3.1-.5-2.2.9-4.4 3.1-5 .2 0 .4-.1.6-.1l-.9-3.8c-.2.1-.4.2-.6.2-2.2.5-4.4-.9-5-3.1-.5-2.2.9-4.4 3.1-5 .2 0 .4-.1.6-.1l-.9-3.8c-.2.1-.4.2-.6.2-2.2.5-4.4-.9-5-3.1-.5-2.2.9-4.4 3.1-5 .2 0 .4-.1.6-.1l-.9-3.8c-.2.1-.4.2-.6.2-2.2.5-4.4-.9-5-3.1-.5-2.2.9-4.4 3.1-5 .2 0 .4-.1.6-.1l-.9-3.8c-.2.1-.4.2-.6.2-2.2.5-4.4-.9-5-3.1-.5-2.2.9-4.4 3.1-5 .2 0 .4-.1.6-.1L95 33.2c-.2.1-.4.2-.6.2-2.2.5-4.4-.9-5-3.1-.5-2.2.9-4.4 3.1-4.9z" style="fill:#e8372e"/><path class="st3" d="M93.6 21.2c.2 0 .4-.1.6-.1l-1.4-6-6.5 1.5c.3 2.1-1 4.1-3.1 4.6s-4.2-.7-4.9-2.8l-3.8.9c.3 2.1-1 4.1-3.1 4.6s-4.2-.7-4.9-2.8l-3.8.9c.3 2.1-1 4.1-3.1 4.6s-4.2-.7-4.9-2.8l-3.8.9c.3 2.1-1 4.1-3.1 4.6s-4.2-.7-4.9-2.8l-3.8.9c.3 2.1-1 4.1-3.1 4.6s-4.2-.7-4.9-2.8l-4.6 1.1 1.4 5.9c2.2-.5 4.4.9 5 3.1.5 2.2-.9 4.4-3.1 5l.9 3.7c2.2-.5 4.4.9 5 3.1.5 2.2-.9 4.4-3.1 5l.9 3.7c2.2-.5 4.4.9 5 3.1.5 2.2-.9 4.4-3.1 5l.9 3.7c2.2-.5 4.4.9 5 3.1.5 2.2-.9 4.4-3.1 5l.9 3.7c2.2-.5 4.4.9 5 3.1.5 2.2-.9 4.4-3.1 5l.9 3.7c2.2-.5 4.4.9 5 3.1.5 2.2-.9 4.4-3.1 5l1.1 4.6 3.5-.8c-.5-2.2.9-4.4 3.1-5 2.2-.5 4.4.9 5 3.1l3.7-.9c-.5-2.2.9-4.4 3.1-5 2.2-.5 4.4.9 5 3.1l3.7-.9c-.5-2.2.9-4.4 3.1-5 2.2-.5 4.4.9 5 3.1l3.7-.9c-.5-2.2.9-4.4 3.1-5 2.2-.5 4.4.9 5 3.1l3.7-.9c-.5-2.2.9-4.4 3.1-5 2.2-.5 4.4.9 5 3.1l7.5-1.8-1.1-4.7c-.2.1-.4.2-.6.2-2.2.5-4.4-.9-5-3.1-.5-2.2.9-4.4 3.1-5 .2 0 .4-.1.6-.1l-.9-3.8c-.2.1-.4.2-.6.2-2.2.5-4.4-.9-5-3.1-.5-2.2.9-4.4 3.1-5 .2 0 .4-.1.6-.1l-.9-3.8c-.2.1-.4.2-.6.2-2.2.5-4.4-.9-5-3.1-.5-2.2.9-4.4 3.1-5 .2 0 .4-.1.6-.1l-.9-3.8c-.2.1-.4.2-.6.2-2.2.5-4.4-.9-5-3.1-.5-2.2.9-4.4 3.1-5 .2 0 .4-.1.6-.1l-.9-3.8c-.2.1-.4.2-.6.2-2.2.5-4.4-.9-5-3.1-.5-2.2.9-4.4 3.1-5 .2 0 .4-.1.6-.1l-.9-3.3c-.2.1-.4.2-.6.2-2.2.5-4.4-.9-5-3.1-.5-2.2.9-4.4 3.1-4.9z"/><path d="M98.7 78.5c1 4.3-1.7 8.6-6 9.6l-33.2 7.8c-4.3 1-8.6-1.7-9.6-6L39.3 44.3c-1-4.3 1.7-8.6 6-9.6l33.2-7.8c4.3-1 8.6 1.7 9.6 6l10.6 45.6z" style="fill:#28a5c6"/><circle cx="76.5" cy="43.5" transform="rotate(-13.186 76.514 43.506)" style="fill:#fbd000" r="6.5"/><path class="st3" d="M72.7 54c-.3-1.1-1.8-1.6-3.4-1.3l-13.6 3.2c-1.6.4-2.7 1.6-2.5 2.6.3 1.1-.7 2.2-2 2.5-1.4.3-2.3 1.5-2 2.5.3 1.1 1.8 1.6 3.4 1.3l9.7-2.3c1.6-.4 2.7-1.6 2.5-2.6-.3-1.1.9-2.3 2.5-2.6l2.9-.7c1.7-.4 2.8-1.5 2.5-2.6zM89.4 69.9c-.2-1.1-1.4-1.7-2.6-1.4l-1.8.4c-1.2.3-2.4-.3-2.6-1.2-.2-1-1.4-1.5-2.6-1.2l-12.6 3c-1.2.3-2 1.3-1.8 2.3.2 1-.6 2-1.8 2.3l-2.2.5c-1.2.3-2 1.4-1.7 2.4.2 1.1 1.4 1.7 2.6 1.4l6.2-1.5c1.2-.3 2.4.2 2.6 1s-.6 1.8-1.8 2.1l-1.1.3c-1.2.3-2 1.4-1.7 2.4.2 1.1 1.4 1.7 2.6 1.4l6-1.4c1.2-.3 2-1.3 1.8-2.3-.2-1 .6-2 1.8-2.3l.7-.2c1.2-.3 2-1.3 1.8-2.3-.2-1 .6-2 1.8-2.3l4.8-1.1c1.1-.1 1.9-1.2 1.6-2.3z"/><path class="st6" d="M45 108.8c-.2 0-.4-.1-.5-.2-.2-.1-.4-.4-.4-.6l-1.1-4.6c-.1-.3 0-.5.1-.8.1-.2.4-.4.6-.4h.1c.8-.2 1.5-.7 1.9-1.4.4-.7.6-1.5.4-2.4-.4-1.6-2.1-2.7-3.7-2.3h-.1c-.5.1-1-.2-1.2-.8l-.9-3.7c-.1-.5.2-1 .7-1.2h.1c.8-.2 1.5-.7 1.9-1.4.4-.7.6-1.5.4-2.4-.4-1.6-2.1-2.7-3.7-2.3h-.1c-.5.1-1-.2-1.2-.8l-.9-3.7c-.1-.5.2-1 .7-1.2h.1c1.7-.4 2.7-2.1 2.3-3.7-.4-1.6-2.1-2.7-3.7-2.3h-.1c-.5.1-1-.2-1.2-.8l-.9-3.7c-.1-.5.2-1 .7-1.2h.1c1.6-.4 2.7-2.1 2.3-3.7-.4-1.6-2.1-2.7-3.7-2.3h-.1c-.5.1-1-.2-1.2-.8l-.9-3.7c-.1-.3 0-.5.1-.8.1-.2.4-.4.6-.4h.1c1.7-.4 2.7-2.1 2.3-3.7-.3-1.4-1.6-2.4-3-2.4-.2 0-.5 0-.7.1-.5.1-1.1-.2-1.2-.7l-.9-3.7c-.1-.3 0-.5.1-.8.1-.2.4-.4.6-.4h.1c.8-.2 1.5-.7 1.9-1.4.4-.7.6-1.5.4-2.4-.4-1.6-2.1-2.7-3.7-2.3-.3.1-.5 0-.8-.1-.2-.1-.4-.4-.5-.6l-1.4-5.9c-.1-.3 0-.5.1-.8.1-.2.4-.4.6-.4l4.6-1.1c.5-.1 1 .2 1.2.7.5 1.5 2.1 2.5 3.7 2.1 1.6-.4 2.6-1.9 2.4-3.5-.1-.5.3-1 .8-1.1l3.8-.9c.5-.1 1 .2 1.2.7.5 1.5 2.1 2.5 3.7 2.1 1.6-.4 2.6-1.9 2.4-3.5-.1-.5.3-1 .8-1.1l3.8-.9c.5-.1 1 .2 1.2.7.5 1.5 2.1 2.5 3.7 2.1 1.6-.4 2.6-1.9 2.4-3.5-.1-.5.3-1 .8-1.1l3.8-.9c.5-.1 1 .2 1.2.7.5 1.5 2.1 2.5 3.7 2.1 1.6-.4 2.6-1.9 2.4-3.5-.1-.5.3-1 .8-1.1l3.8-.9c.5-.1 1 .2 1.2.7.5 1.5 2.1 2.5 3.7 2.1 1.6-.4 2.6-1.9 2.4-3.5-.1-.5.3-1 .8-1.1l6.5-1.5c.5-.1 1.1.2 1.2.7l1.4 6c.1.3 0 .6-.2.8-.2.2-.4.4-.7.4-.2 0-.3 0-.5.1-.8.2-1.5.7-1.9 1.4-.4.7-.6 1.5-.4 2.4.4 1.7 2.1 2.7 3.8 2.3.2 0 .3-.1.4-.2.3-.1.6-.1.8 0 .3.1.4.4.5.7l.9 3.8c.1.3 0 .6-.2.8-.2.2-.4.4-.7.4-.2 0-.3 0-.5.1-.8.2-1.5.7-1.9 1.4-.4.7-.6 1.5-.4 2.4.3 1.4 1.6 2.4 3 2.4.2 0 .5 0 .7-.1.2 0 .3-.1.4-.2.3-.1.6-.1.8 0 .3.1.4.4.5.7l.9 3.8c.1.3 0 .6-.2.8-.2.2-.4.4-.7.4-.2 0-.3 0-.5.1-.8.2-1.5.7-1.9 1.4-.4.7-.6 1.5-.4 2.4.4 1.7 2.1 2.7 3.8 2.3.2 0 .3-.1.4-.2.3-.1.6-.1.8 0 .3.1.4.4.5.7l.9 3.8c.1.3 0 .6-.2.8-.2.2-.4.4-.7.4-.2 0-.3 0-.5.1-.8.2-1.5.7-1.9 1.4-.4.7-.6 1.5-.4 2.4.4 1.7 2.1 2.7 3.8 2.3.2 0 .3-.1.4-.2.3-.1.6-.1.8 0 .3.1.4.4.5.7l.9 3.8c.1.3 0 .6-.2.8-.2.2-.4.4-.7.4-.2 0-.3 0-.5.1-1.7.4-2.7 2.1-2.3 3.8.4 1.7 2.1 2.7 3.8 2.3.2 0 .3-.1.4-.2.3-.1.6-.1.8 0 .3.1.4.4.5.7l.9 3.8c.1.3 0 .6-.2.8-.2.2-.4.4-.7.4-.2 0-.3 0-.5.1-1.7.4-2.7 2.1-2.3 3.8.4 1.7 2.1 2.7 3.8 2.3.2 0 .3-.1.4-.2.3-.1.6-.1.8 0 .3.1.4.4.5.7l1.1 4.7c.1.5-.2 1.1-.7 1.2l-7.5 1.8c-.3.1-.5 0-.8-.1-.2-.1-.4-.4-.4-.6-.3-1.4-1.6-2.4-3-2.4-.2 0-.5 0-.7.1-2.1 0-3.1 1.7-2.7 3.4.1.5-.2 1.1-.7 1.2l-3.7.9c-.3.1-.5 0-.8-.1-.2-.1-.4-.4-.4-.6-.3-1.4-1.6-2.4-3-2.4-.2 0-.5 0-.7.1-1.7.4-2.7 2.1-2.3 3.8.1.5-.2 1.1-.7 1.2l-3.7.9c-.3.1-.5 0-.8-.1-.2-.1-.4-.4-.4-.6-.3-1.4-1.6-2.4-3-2.4-.2 0-.5 0-.7.1-1.7.4-2.7 2.1-2.3 3.8.1.5-.2 1.1-.7 1.2l-3.7.9c-.5.1-1.1-.2-1.2-.7-.3-1.4-1.6-2.4-3-2.4-.2 0-.5 0-.7.1-1.7.4-2.7 2.1-2.3 3.8.1.5-.2 1.1-.7 1.2l-3.7.9c-.5.1-1.1-.2-1.2-.7-.4-1.7-2.1-2.7-3.8-2.3-.8.2-1.5.7-1.9 1.4-.4.7-.6 1.5-.4 2.4.1.3 0 .5-.1.8-.1.2-.4.4-.6.4l-3.5.8c-.6-.6-.7-.5-.7-.5zm.1-5 .6 2.8 1.7-.4c0-1 .2-2 .8-2.9.7-1.2 1.9-2 3.2-2.3.4-.1.8-.1 1.2-.1 2 0 3.8 1.2 4.7 3l1.9-.5c-.1-2.4 1.5-4.6 4-5.2.4-.1.8-.1 1.2-.1 2 0 3.8 1.2 4.7 3l1.9-.5c-.1-2.4 1.5-4.6 4-5.2.4-.1.8-.1 1.2-.1 2 0 3.8 1.2 4.7 3l1.9-.5c-.1-2.4 1.5-4.6 4-5.2.4-.1.8-.1 1.2-.1 2 0 3.8 1.2 4.7 3l1.9-.5c-.1-2.4 1.5-4.6 4-5.2.4-.1.8-.1 1.2-.1 2 0 3.8 1.2 4.7 3l5.7-1.3-.6-2.7c-.3 0-.5.1-.8.1-2.4 0-4.4-1.6-5-4-.6-2.6.9-5.3 3.5-6.1l-.4-1.8c-.3 0-.5.1-.8.1-2.4 0-4.4-1.6-5-4-.6-2.6.9-5.3 3.5-6.1l-.4-1.8c-.3 0-.5.1-.8.1-2.4 0-4.4-1.6-5-4-.3-1.3-.1-2.7.6-3.9.7-1.1 1.6-1.8 2.8-2.2l-.4-1.8c-.3 0-.5.1-.8.1-2.4 0-4.4-1.6-5-4-.3-1.3-.1-2.7.6-3.9.7-1.1 1.6-1.8 2.8-2.2l-.9-1.3c-.3 0-.5.1-.8.1-2.4 0-4.4-1.6-5-4-.3-1.3-.1-2.7.6-3.9.7-1.1 1.6-1.8 2.8-2.2l-.4-1.8c-.3 0-.5.1-.8.1-2.4 0-4.4-1.6-5-4-.3-1.3-.1-2.7.6-3.9.7-1.1 1.6-1.8 2.8-2.2l-.9-4-4.7 1.1c-.1 2.3-1.7 4.3-3.9 4.8-.4.1-.8.1-1.2.1-1.9 0-3.6-1.1-4.5-2.7l-2.1.5c-.1 2.3-1.7 4.3-3.9 4.8-.4.1-.8.1-1.2.1-1.9 0-3.6-1.1-4.5-2.7l-2.1.5c-.1 2.3-1.7 4.3-3.9 4.8-.4.1-.8.1-1.2.1-1.9 0-3.6-1.1-4.5-2.7l-2.1.5c-.1 2.3-1.7 4.3-3.9 4.8-.4.1-.8.1-1.2.1-1.9 0-3.6-1.1-4.5-2.7l-2.1.5c-.1 2.3-1.7 4.3-3.9 4.8-.4.1-.8.1-1.2.1-1.9 0-3.6-1.1-4.5-2.7l-2.8.7 1 4.1c2.5-.1 4.6 1.5 5.2 4 .3 1.3.1 2.7-.6 3.9-.6.9-1.3 1.6-2.3 2l.4 1.9c2.5-.1 4.6 1.5 5.2 4 .6 2.4-.7 4.9-2.9 5.9l.4 1.9c2.5-.1 4.6 1.6 5.2 4 .6 2.4-.7 4.9-2.9 5.9l.4 1.9c2.5-.1 4.6 1.6 5.2 4 .6 2.4-.7 4.9-2.9 5.9l.4 1.9c2.5-.1 4.6 1.6 5.2 4 .3 1.3.1 2.7-.6 3.9-.6.9-1.3 1.6-2.3 2l.4 1.9c2.5-.1 4.6 1.6 5.2 4 .3 1.3.1 2.7-.6 3.9-.4.7-1.2 1.4-2.1 1.8z"/><path class="st6" d="M48 119c-11.7 0-21.7-7.9-24.3-19.3-3.1-13.4 5.2-26.9 18.6-30 1.9-.4 3.8-.7 5.7-.7 11.7 0 21.7 7.9 24.3 19.3 3.1 13.4-5.2 26.9-18.6 30-1.9.5-3.8.7-5.7.7zm0-48c-1.8 0-3.5.2-5.3.6-12.4 2.9-20 15.3-17.2 27.6C28 109.7 37.3 117 48 117c1.8 0 3.5-.2 5.3-.6 12.4-2.9 20-15.3 17.2-27.6C68 78.3 58.7 71 48 71z"/><path class="st6" d="M48 113c-8.9 0-16.5-6-18.5-14.7-2.4-10.2 4-20.4 14.2-22.8 1.4-.3 2.9-.5 4.3-.5 8.9 0 16.5 6 18.5 14.7 1.2 4.9.3 10-2.4 14.3-2.7 4.3-6.9 7.3-11.8 8.5-1.4.3-2.9.5-4.3.5zm0-36c-1.3 0-2.6.2-3.9.5-9.1 2.1-14.8 11.3-12.6 20.4 1.8 7.7 8.6 13.1 16.5 13.1 1.3 0 2.6-.2 3.9-.5 4.4-1 8.2-3.7 10.6-7.6 2.4-3.9 3.1-8.4 2.1-12.8C62.7 82.4 55.9 77 48 77z"/><path class="st6" d="M8 102.6c-1.5 0-3-.4-4.3-1.2-.5-.3-.6-.9-.4-1.4.3-.5.9-.6 1.4-.4 3 1.8 7 .8 8.8-2.1 2.5-3.8 7.6-5 11.5-2.7 3 1.8 7 .8 8.8-2.1 2.5-3.8 7.6-5 11.5-2.7.5.3.6.9.4 1.4-.3.5-.9.6-1.4.4-3-1.8-7-.8-8.8 2.1-2.5 3.8-7.6 5-11.5 2.7-3-1.8-7-.8-8.8 2.1-1.6 2.5-4.4 3.9-7.2 3.9zM9.9 111c-1.5 0-3-.4-4.3-1.2-.5-.3-.6-.9-.4-1.4.3-.5.9-.6 1.4-.4 3 1.8 7 .8 8.8-2.1 2.5-3.8 7.6-5 11.5-2.7 3 1.8 7 .8 8.8-2.1 2.5-3.8 7.6-5 11.5-2.7.5.3.6.9.4 1.4-.3.5-.9.6-1.4.4-3-1.8-7-.8-8.8 2.1-2.5 3.8-7.6 5-11.5 2.7-3-1.8-7-.8-8.8 2.1-1.5 2.6-4.3 3.9-7.2 3.9zM12 119.6c-1.5 0-3-.4-4.3-1.2-.5-.3-.6-.9-.4-1.4.3-.5.9-.6 1.4-.4 3 1.8 7 .8 8.8-2.1 2.5-3.8 7.6-5 11.5-2.7 3 1.8 7 .8 8.8-2.1 2.5-3.8 7.6-5 11.5-2.7.5.3.6.9.4 1.4-.3.5-.9.6-1.4.4-3-1.8-7-.8-8.8 2.1-2.5 3.8-7.6 5-11.5 2.7-3-1.8-7-.8-8.8 2.1-1.6 2.5-4.4 3.9-7.2 3.9z"/><path class="st1" d="M94.6 77.8c-.5 0-.9-.3-1-.8l-9.5-40.6c-.6-2.7-3.3-4.4-6-3.7L63.9 36c-.5.1-1.1-.2-1.2-.7-.1-.5.2-1.1.7-1.2l14.2-3.3c1.8-.4 3.7-.1 5.3.9 1.6 1 2.7 2.5 3.1 4.3l9.5 40.6c.1.5-.2 1.1-.7 1.2h-.2zM47.8 39.8c-.5 0-.9-.3-1-.8-.1-.5.2-1.1.7-1.2l6.4-1.5c.5-.1 1.1.2 1.2.7.1.5-.2 1.1-.7 1.2L48 39.7s-.1.1-.2.1z"/></svg>