<svg width="502" height="78" fill="none" xmlns="http://www.w3.org/2000/svg"><path d="M.073 39.779h38.6V58.7a19.3 19.3 0 0 1-38.6 0V39.778Z" fill="#FF240A"/><path d="M38.673 39.779h38.6V58.7a19.3 19.3 0 1 1-38.6 0V39.778Z" fill="#FFBF99"/><path d="M77.284 39.779h38.6V58.7a19.298 19.298 0 0 1-19.3 19.3 19.3 19.3 0 0 1-19.3-19.3V39.778ZM173.794 78a19.305 19.305 0 0 1-17.831-11.914 19.298 19.298 0 0 1-1.469-7.386V39.778h38.6V58.7a19.298 19.298 0 0 1-19.3 19.3Z" fill="#FF240A"/><path d="M212.395 78a19.31 19.31 0 0 1-19.3-19.3V39.778h38.61V58.7a19.307 19.307 0 0 1-19.31 19.3ZM135.195 78a19.31 19.31 0 0 1-19.311-19.3V39.778h38.611V58.7a19.302 19.302 0 0 1-19.3 19.3Z" fill="#FFBF99"/><path d="M251.005 78a19.298 19.298 0 0 1-19.3-19.3V39.778h38.6V58.7a19.298 19.298 0 0 1-19.3 19.3Z" fill="#FF240A"/><path d="M289.606 78a19.302 19.302 0 0 1-19.3-19.3V39.778h38.6V58.7a19.302 19.302 0 0 1-19.3 19.3Z" fill="#FFBF99"/><path d="M328.249 78a19.31 19.31 0 0 1-19.311-19.3V39.778h38.611V58.7a19.302 19.302 0 0 1-19.3 19.3Z" fill="#FF240A"/><path d="M366.816 78a19.302 19.302 0 0 1-19.3-19.3V39.778h38.6V58.7a19.302 19.302 0 0 1-19.3 19.3Z" fill="#FFBF99"/><path d="M405.416 78a19.3 19.3 0 0 1-19.3-19.3V39.778h38.611V58.7A19.312 19.312 0 0 1 405.416 78Z" fill="#FF240A"/><path d="M444.027 78a19.302 19.302 0 0 1-19.3-19.3V39.778h38.599V58.7A19.3 19.3 0 0 1 444.027 78Z" fill="#FFBF99"/><path d="M482.627 78a19.298 19.298 0 0 1-19.3-19.3V39.778h38.6V58.7a19.298 19.298 0 0 1-19.3 19.3Z" fill="#FF240A"/><path d="M.073 39.779h501.853L481.439 4.931A10 10 0 0 0 472.819 0H29.181a10 10 0 0 0-8.62 4.932L.073 39.779Z" fill="#FFD9C2"/><path d="M.073 39.779 20.54 4.934A10 10 0 0 1 29.162 0H58.45L38.673 39.779H.073ZM77.284 39.779 93.46 0h35.011l-12.586 39.779h-38.6ZM154.494 39.779 163.479 0h35.01l-5.395 39.779h-38.6ZM501.927 39.779 481.46 4.934A9.998 9.998 0 0 0 472.838 0h-29.287l19.776 39.779h38.6ZM424.716 39.779 408.541 0H373.53l12.586 39.779h38.6ZM347.506 39.779 338.52 0h-35.01l5.396 39.779h38.6ZM231.694 39.779 233.5 0h34.999l1.806 39.779h-38.611Z" fill="#FF412B"/></svg>