<svg width="242" height="252" fill="none" xmlns="http://www.w3.org/2000/svg"><path d="M241.339 119.288h-6.808V89.601c-.025-15.688-12.756-28.41-28.44-28.449H29.101C13.413 61.191.687 73.913.657 89.601v133.443c.03 15.688 12.756 28.423 28.444 28.444h176.99c15.684-.021 28.414-12.756 28.44-28.444v-28.889l-.931-2.03h7.739v-72.837Z" fill="#4F5A69"/><path d="M211.356 192.126h8.423v30.918c-.008 7.487-6.209 13.675-13.688 13.688H29.101c-7.479-.013-13.688-6.201-13.697-13.688V89.601c.01-7.483 6.218-13.684 13.697-13.697h176.99c7.479.013 13.679 6.214 13.688 13.697v29.687h-49.397c-20.111.013-36.41 16.303-36.419 36.427.009 20.111 16.308 36.401 36.419 36.41h36.76" fill="#A8B6C0"/><path d="M170.382 177.382h56.209v-43.346h-56.209c-11.966.03-21.641 9.705-21.671 21.679.03 11.962 9.705 21.637 21.671 21.667ZM28.05 146.605h-4.205V131.87h4.205v14.735Zm0 6.32h-4.205v14.752h4.205v-14.752Zm0 21.064h-4.205v14.765h4.205v-14.765Zm0 21.081h-4.205v14.743h4.205V195.07Zm0 21.299v-.239h-4.205v.239c0 6.128 4.415 11.218 10.226 12.393l.838-4.132c-3.906-.782-6.876-4.227-6.86-8.261Zm170.537 8.432h-10.312v4.214h10.312c1.829 0 3.585-.389 5.162-1.086l-1.693-3.859a8.729 8.729 0 0 1-3.469.731Zm8.556-8.432a8.18 8.18 0 0 1-1.291 4.436l3.556 2.269a12.623 12.623 0 0 0 1.949-6.705v-8.863h-4.213v8.863h-.001ZM47.588 83.631H36.605c-1.556 0-3.04.282-4.42.786l1.449 3.957v-.004a8.68 8.68 0 0 1 2.97-.521h10.983v-4.218Zm98.546 145.383h14.756V224.8h-14.756v4.214ZM28.05 110.789h-4.205v14.748h4.205v-14.748Zm139.157 118.225h14.743V224.8h-14.743v4.214ZM28.05 96.28c0-1.829.594-3.5 1.598-4.889l-3.406-2.487a12.454 12.454 0 0 0-2.398 7.376v8.192h4.205V96.28Zm145.956-12.649h-14.748v4.218h14.748v-4.218Zm-42.145 0h-14.739v4.218h14.739v-4.218Zm-6.79 145.383h14.748V224.8h-14.748v4.214Zm27.871-145.383h-14.765v4.218h14.765v-4.218Zm54.201 34.623h4.213v-14.752h-4.213v14.752Zm-5.227-34.187-1.107 4.073h.008c3.633.987 6.338 4.286 6.325 8.141v.91h4.213v-.91c-.008-5.856-4.025-10.757-9.439-12.214Zm-6.85-.436h-14.735v4.218h14.735v-4.218ZM61.861 229.014h14.748V224.8H61.86v4.214ZM89.724 83.631H74.976v4.218h14.748v-4.218ZM40.793 229.014H55.54V224.8H40.793v4.214ZM68.657 83.631H53.9v4.218h14.756v-4.218Zm42.14 0H96.041v4.218h14.756v-4.218ZM82.925 229.014H97.68V224.8H82.925v4.214Zm21.073 0h14.744V224.8h-14.744v4.214Zm107.358-36.888v9.064h-4.213v-9.064" fill="#fff"/><path d="M172.98 142.844c-7.102 0-12.867 5.761-12.867 12.863 0 7.107 5.765 12.867 12.867 12.867 7.103 0 12.876-5.761 12.876-12.867 0-7.102-5.773-12.863-12.876-12.863Z" fill="#59616A"/><path d="M162.117 6.11c-1.889-4.594-7.201-6.799-11.795-4.91L31.165 50.315c-1.517.628-2.739 1.65-3.675 2.872h154.037L162.117 6.11Z" fill="#4F5A69"/></svg>