<svg width="591" height="561" fill="none" xmlns="http://www.w3.org/2000/svg"><path d="M331.229 22.89 294.71 204.05l18.849-164.974 17.67-16.186Z" fill="url(#a)"/><path d="M275.861 39.076 294.71 204.05 258.237 22.89l17.624 16.186Z" fill="url(#b)"/><path d="M294.709 51.87v152.18L270.3 63.862l24.409-11.992Z" fill="url(#c)"/><path d="M319.119 63.862 294.71 204.05V51.87l24.409 11.992Z" fill="url(#d)"/><path d="m294.71.53 11.215 19.132 25.304 3.228-17.671 16.186 5.561 24.786L294.71 51.87l-24.409 11.992 5.56-24.786-17.624-16.186 25.281-3.228L294.71.53ZM270.301 155.75l3.816 6.503 8.624 1.107-6.032 5.513 1.909 8.459-8.317-4.076-8.317 4.076 1.884-8.459-6.008-5.513 8.624-1.107 3.817-6.503Z" fill="#FFE029"/><path d="M464.528 61.397 351.199 214.284 448.53 75.911l15.998-14.514Z" fill="url(#e)"/><path d="m412.882 74.685-61.683 139.599 43.258-155.667 18.425 16.068Z" fill="url(#f)"/><path d="M454.538 98.411 351.199 214.284l80.296-127.23 23.043 11.357Z" fill="url(#g)"/><path d="m409.324 97.233-58.125 117.051 61.683-139.599-3.558 22.548Z" fill="url(#h)"/><path d="m431.495 87.055-80.296 127.229 58.125-117.05 22.171-10.18Z" fill="url(#i)"/><path d="m428.691 38.26 11.804 19.132 24.032 4.005-15.998 14.514 6.009 22.5-23.043-11.356-22.171 10.178 3.558-22.548-18.425-16.068 24.48-2.12 9.754-18.237Z" fill="#FFE029"/><path d="M121.523 63.703 234.852 216.59 137.521 78.216l-15.998-14.513Z" fill="url(#j)"/><path d="m173.169 76.991 61.683 139.599-43.258-155.668-18.425 16.069Z" fill="url(#k)"/><path d="M131.514 100.717 234.852 216.59 154.556 89.36l-23.042 11.357Z" fill="url(#l)"/><path d="m176.727 99.562 58.125 117.028-61.683-139.599 3.558 22.571Z" fill="url(#m)"/><path d="m154.556 89.36 80.296 127.23-58.125-117.028-22.171-10.201Z" fill="url(#n)"/><path d="m157.336 40.566-11.804 19.131-24.009 4.006 15.998 14.513-6.008 22.501 23.043-11.356 22.171 10.201-3.558-22.571 18.425-16.069-24.48-2.12-9.778-18.236ZM87.855 76.485 84.297 83.2l-7.02 1.532 4.64 4.806-1.743 7.493 6.692-3.817 6.502 3.369-.918-7.61 5.678-5.655-7.422-.565-2.85-6.268ZM229.446 25.959l-3.487 6.81-7.068 1.436 4.712 5.184-1.767 8.01 6.785-4.052 6.55 3.628-1.06-8.034 5.443-5.725-7.234-.754-2.874-6.503ZM189.181 171.472l-2.592 4.194-5.254.871 3.487 3.181-1.296 4.924 5.042-2.474 4.854 2.239-.778-4.948 4.053-3.534-5.372-.448-2.144-4.005ZM353.306 22.433l3.463 6.81 7.092 1.437-4.712 5.16 1.767 8.034-6.785-4.053-6.55 3.629 1.036-8.035-5.419-5.725 7.233-.754 2.875-6.503ZM485.875 95.058l3.464 6.809 7.092 1.438-4.713 5.16 1.767 8.034-6.785-4.053-6.55 3.629 1.037-8.035-5.419-5.725 7.233-.754 2.874-6.503ZM335.636 164.875l2.592 4.194 5.277.871-3.51 3.181 1.319 4.948-5.065-2.498-4.854 2.239.777-4.948-4.028-3.534 5.371-.448 2.121-4.005Z" fill="#FFE029"/><path fill-rule="evenodd" clip-rule="evenodd" d="M591 223.495c-86.458-23.752-177.498-36.437-271.5-36.437v50c94.231 0 185.332 13.402 271.5 38.404l-23.5-32.904 23.5-19.063Z" fill="#9E9E9E"/><path fill-rule="evenodd" clip-rule="evenodd" d="M591 223.495c-86.458-23.752-177.498-36.437-271.5-36.437v50c94.231 0 185.332 13.402 271.5 38.404l-23.5-32.904 23.5-19.063Z" fill="#9E9E9E"/><path fill-rule="evenodd" clip-rule="evenodd" d="M591 223.495c-86.458-23.752-177.498-36.437-271.5-36.437v50c94.231 0 185.332 13.402 271.5 38.404l-23.5-32.904 23.5-19.063Z" fill="#FF3815"/><path fill-rule="evenodd" clip-rule="evenodd" d="M.5 223.495c86.458-23.752 177.498-36.437 271.5-36.437v50c-94.231 0-185.332 13.402-271.5 38.404L24 242.558.5 223.495Z" fill="#9E9E9E"/><path fill-rule="evenodd" clip-rule="evenodd" d="M.5 223.495c86.458-23.752 177.498-36.437 271.5-36.437v50c-94.231 0-185.332 13.402-271.5 38.404L24 242.558.5 223.495Z" fill="#9E9E9E"/><path fill-rule="evenodd" clip-rule="evenodd" d="M.5 223.495c86.458-23.752 177.498-36.437 271.5-36.437v50c-94.231 0-185.332 13.402-271.5 38.404L24 242.558.5 223.495Z" fill="#FF3815"/><path fill-rule="evenodd" clip-rule="evenodd" d="M567 209.558c-86.458 23.752-177.498 35.904-271.5 35.904v-50c94.231 0 185.332-13.402 271.5-38.404v52.5Z" fill="#9E9E9E"/><path fill-rule="evenodd" clip-rule="evenodd" d="M567 209.558c-86.458 23.752-177.498 35.904-271.5 35.904v-50c94.231 0 185.332-13.402 271.5-38.404v52.5Z" fill="#9E9E9E"/><path fill-rule="evenodd" clip-rule="evenodd" d="M567 209.558c-86.458 23.752-177.498 35.904-271.5 35.904v-50c94.231 0 185.332-13.402 271.5-38.404v52.5Z" fill="#D62000"/><path fill-rule="evenodd" clip-rule="evenodd" d="M24.5 209.558c86.458 23.752 177.498 35.904 271.5 35.904v-50c-94.231 0-185.332-13.402-271.5-38.404v52.5Z" fill="#9E9E9E"/><path fill-rule="evenodd" clip-rule="evenodd" d="M24.5 209.558c86.458 23.752 177.498 35.904 271.5 35.904v-50c-94.231 0-185.332-13.402-271.5-38.404v52.5Z" fill="#9E9E9E"/><path fill-rule="evenodd" clip-rule="evenodd" d="M24.5 209.558c86.458 23.752 177.498 35.904 271.5 35.904v-50c-94.231 0-185.332-13.402-271.5-38.404v52.5Z" fill="#D62000"/><g filter="url(#o)"><rect x="66" y="163.058" width="460" height="391" rx="8" fill="#fff"/><rect x="67.5" y="164.558" width="457" height="388" rx="6.5" stroke="#FF3815" stroke-width="3"/></g><path fill-rule="evenodd" clip-rule="evenodd" d="M567 157.495c-86.458-23.752-177.498-36.437-271.5-36.437v50c94.231 0 185.332 13.402 271.5 38.404v-51.967Z" fill="#FF3815"/><path fill-rule="evenodd" clip-rule="evenodd" d="M24.5 157.495c86.458-23.752 177.498-36.437 271.5-36.437v50c-94.231 0-185.332 13.402-271.5 38.404v-51.967Z" fill="#FF3815"/><circle cx="205.731" cy="276.093" r="66.365" fill="#7E87D8"/><mask id="p" style="mask-type:alpha" maskUnits="userSpaceOnUse" x="139" y="209" width="134" height="134"><circle cx="205.731" cy="276.093" r="66.365" fill="#C4C4C4"/></mask><g mask="url(#p)"><path d="M218.317 327.22c-3.344 4.569-7.69 7.132-12.148 7.132H204.832c-4.458 0-8.805-2.563-12.148-7.132l-.78-1.226v12.036l-3.343 1.337 1.337 1.895c3.566 5.126 9.361 8.135 15.602 8.135s12.036-3.009 15.603-8.135l1.337-1.895-3.343-1.337v-12.036l-.78 1.226Z" fill="#BD6C67"/><path d="M204.943 334.352h1.338c4.458 0 8.804-2.563 12.147-7.132l.892-1.226v-15.937h-27.416v15.937l.892 1.226c3.232 4.569 7.578 7.132 12.147 7.132Z" fill="#3C3247"/><path d="M205.5 328c30.652 0 55.5-24.848 55.5-55.5S236.152 217 205.5 217 150 241.848 150 272.5s24.848 55.5 55.5 55.5Z" fill="#302A37"/><path d="M174.337 303.036c5.122-2.108 7.565-7.97 5.457-13.092-2.108-5.122-7.97-7.566-13.092-5.457-5.123 2.108-7.566 7.97-5.458 13.092 2.109 5.122 7.97 7.566 13.093 5.457Z" fill="#A64F5A"/><path d="M176.077 293.786c0 3.121-2.563 5.684-5.683 5.684-3.121 0-5.684-2.563-5.684-5.684 0-3.12 2.563-5.683 5.684-5.683 3.232 0 5.683 2.563 5.683 5.683Z" fill="#8C404C"/><path d="M249.942 297.606c2.109-5.122-.335-10.984-5.457-13.092-5.122-2.108-10.984.335-13.092 5.457-2.109 5.123.335 10.984 5.457 13.093 5.122 2.108 10.984-.335 13.092-5.458Z" fill="#A64F5A"/><path d="M235.033 293.787c0 3.12 2.563 5.683 5.684 5.683 3.12 0 5.684-2.563 5.684-5.683 0-3.121-2.564-5.684-5.684-5.684-3.232 0-5.684 2.563-5.684 5.684Z" fill="#8C404C"/><path d="M171.954 289.551h3.12l2.006-17.943h-6.575l1.449 17.943Z" fill="url(#q)"/><path d="m233.917 271.608 2.117 17.943h3.121l1.449-17.943h-6.687Z" fill="url(#r)"/><path d="M205.5 254.557c-12.259 0-22.735 2.452-27.861 6.13-1.672 3.789-2.675 8.024-2.675 12.37v17.831c0 11.256 4.792 22.067 13.039 29.756l1.226 1.115c4.235 3.789 9.696 5.907 15.379 5.907H206.392c5.683 0 11.144-2.118 15.379-5.907l1.226-1.115c8.358-7.689 13.039-18.388 13.039-29.756v-17.831c0-4.458-1.003-8.581-2.675-12.37-5.015-3.567-15.602-6.13-27.861-6.13Z" fill="#BD6C67"/><path d="M191.903 286.542a2.786 2.786 0 1 0 0-5.571 2.786 2.786 0 0 0 0 5.571ZM219.208 286.542a2.786 2.786 0 1 0 0-5.571 2.786 2.786 0 0 0 0 5.571Z" fill="#3C3247"/><path d="M212.632 298.021a34.19 34.19 0 0 0-14.265 0c1.672 2.229 4.458 3.901 7.244 4.012 2.898.112 5.795-1.56 7.021-4.012Z" fill="#A64F5A"/><path d="M191.236 272.5c-3.678-.223-7.133 1.226-9.585 3.789 6.241.669 12.482 1.115 18.723 1.115-2.117-2.787-5.349-4.681-9.138-4.904ZM219.766 272.5c3.677-.223 7.132 1.226 9.584 3.789-6.241.669-12.482 1.115-18.723 1.115 2.229-2.787 5.461-4.681 9.139-4.904Z" fill="#3C3247"/><path opacity=".3" d="M191.904 295.681a9.14 9.14 0 1 0 0-18.279 9.14 9.14 0 0 0 0 18.279ZM219.21 295.681a9.139 9.139 0 0 0 9.138-9.139 9.138 9.138 0 0 0-9.138-9.138 9.139 9.139 0 1 0 0 18.277Z" fill="#fff"/><path d="M219.209 275.063c-5.015 0-9.25 3.232-10.811 7.801a4.877 4.877 0 0 0-2.786-.891 4.623 4.623 0 0 0-2.786.891c-1.56-4.569-5.795-7.801-10.81-7.801-6.353 0-11.368 5.127-11.368 11.368 0 6.352 5.127 11.367 11.368 11.367 6.352 0 11.479-5.126 11.479-11.367v-.892c0-.669.891-1.337 2.229-1.337 1.337 0 2.229.78 2.229 1.337v.892c0 6.352 5.126 11.367 11.367 11.367 6.353 0 11.368-5.126 11.368-11.367-.112-6.241-5.238-11.368-11.479-11.368Zm-36.443 11.479c0-5.015 4.123-9.138 9.138-9.138 5.016 0 9.25 4.123 9.25 9.138s-4.123 9.139-9.25 9.139c-5.015 0-9.138-4.124-9.138-9.139Zm27.193 0c0-5.015 4.123-9.138 9.138-9.138s9.139 4.123 9.139 9.138-4.124 9.139-9.139 9.139-9.138-4.124-9.138-9.139Z" fill="#454F6B"/><path d="m236.147 289.551-4.458 12.482c-.557 1.449-2.117 2.117-3.455 1.337l-3.12-1.671c-2.006-1.003-4.235-1.338-6.464-1.115l-13.151 1.449-12.927-1.449a11.25 11.25 0 0 0-6.353 1.226l-3.232 1.56c-1.337.669-3.009 0-3.455-1.337l-4.457-12.482h-3.121v7.801c0 7.244 2.006 14.377 5.684 20.618l.891 1.56c4.57 7.578 12.705 12.259 21.621 12.259h10.922c8.915 0 17.051-4.681 21.62-12.259l.892-1.56c3.677-6.241 5.683-13.374 5.683-20.618v-7.801h-3.12Zm-16.271 19.057-2.341 6.91c-.668 2.006-2.563 3.232-4.68 3.009h-.892c-1.56-.112-2.897-.78-4.012-1.895h-4.681c-1.003 1.115-2.451 1.783-4.012 1.895l-1.003.111c-2.006.223-4.012-1.114-4.68-3.009l-2.341-6.909c-.446-1.338.669-2.564 2.006-2.452l4.792.557c2.452.334 4.904 0 7.244-.78l.223-.111.335.111c2.34.78 4.792 1.114 7.244.78l4.792-.557c1.337-.223 2.452 1.003 2.006 2.34Z" fill="#3C3247"/><path d="M194.534 308.747h21.473a5.856 5.856 0 0 1-5.856 5.856h-9.761a5.856 5.856 0 0 1-5.856-5.856Z" fill="#fff"/></g><circle cx="382.365" cy="276.093" r="66.365" fill="#95D87E"/><mask id="s" style="mask-type:alpha" maskUnits="userSpaceOnUse" x="316" y="209" width="133" height="134"><circle cx="382.365" cy="276.093" r="66.365" fill="#C4C4C4"/></mask><g mask="url(#s)"><path d="M394.95 327.22c-3.343 4.569-7.689 7.132-12.147 7.132h-1.338c-4.457 0-8.804-2.563-12.147-7.132l-.78-1.226v12.036l-3.344 1.337 1.338 1.895c3.566 5.126 9.361 8.135 15.602 8.135s12.036-3.009 15.603-8.135l1.337-1.895-3.344-1.337v-12.036l-.78 1.226Z" fill="#BD6C67"/><path d="M381.577 334.352h1.338c4.457 0 8.804-2.563 12.147-7.132l.892-1.226v-15.937h-27.416v15.937l.892 1.226c3.232 4.569 7.578 7.132 12.147 7.132Z" fill="#3C3247"/><path d="M382.134 328c30.652 0 55.5-24.848 55.5-55.5s-24.848-55.5-55.5-55.5-55.5 24.848-55.5 55.5 24.848 55.5 55.5 55.5Z" fill="#302A37"/><path d="M350.97 303.036c5.123-2.108 7.566-7.97 5.458-13.092-2.109-5.122-7.97-7.566-13.093-5.457-5.122 2.108-7.565 7.97-5.457 13.092 2.108 5.122 7.97 7.566 13.092 5.457Z" fill="#A64F5A"/><path d="M352.711 293.786c0 3.121-2.563 5.684-5.684 5.684-3.12 0-5.683-2.563-5.683-5.684 0-3.12 2.563-5.683 5.683-5.683 3.232 0 5.684 2.563 5.684 5.683Z" fill="#8C404C"/><path d="M426.576 297.606c2.108-5.122-.335-10.984-5.457-13.092-5.123-2.108-10.984.335-13.093 5.457-2.108 5.123.335 10.984 5.458 13.093 5.122 2.108 10.984-.335 13.092-5.458Z" fill="#A64F5A"/><path d="M411.667 293.787c0 3.12 2.563 5.683 5.684 5.683 3.12 0 5.683-2.563 5.683-5.683 0-3.121-2.563-5.684-5.683-5.684-3.232 0-5.684 2.563-5.684 5.684Z" fill="#8C404C"/><path d="M348.587 289.551h3.121l2.006-17.943h-6.575l1.448 17.943Z" fill="url(#t)"/><path d="m410.551 271.608 2.117 17.943h3.121l1.449-17.943h-6.687Z" fill="url(#u)"/><path d="M382.134 254.557c-12.259 0-22.735 2.452-27.862 6.13-1.671 3.789-2.674 8.024-2.674 12.37v17.831c0 11.256 4.792 22.067 13.039 29.756l1.226 1.115c4.235 3.789 9.696 5.907 15.379 5.907h1.783c5.684 0 11.145-2.118 15.38-5.907l1.226-1.115c8.358-7.689 13.039-18.388 13.039-29.756v-17.831c0-4.458-1.003-8.581-2.675-12.37-5.015-3.567-15.602-6.13-27.861-6.13Z" fill="#BD6C67"/><path d="M368.537 286.542a2.786 2.786 0 1 0 0-5.571 2.786 2.786 0 0 0 0 5.571ZM395.842 286.542a2.786 2.786 0 1 0 0-5.571 2.786 2.786 0 0 0 0 5.571Z" fill="#3C3247"/><path d="M389.266 298.021a34.19 34.19 0 0 0-14.265 0c1.672 2.229 4.458 3.901 7.244 4.012 2.898.112 5.795-1.56 7.021-4.012Z" fill="#A64F5A"/><path d="M367.869 272.5c-3.677-.223-7.132 1.226-9.584 3.789 6.241.669 12.482 1.115 18.723 1.115-2.117-2.787-5.349-4.681-9.139-4.904ZM396.399 272.5c3.678-.223 7.133 1.226 9.585 3.789-6.241.669-12.482 1.115-18.723 1.115 2.229-2.787 5.461-4.681 9.138-4.904Z" fill="#3C3247"/><path opacity=".3" d="M368.538 295.681a9.14 9.14 0 1 0 0-18.279 9.14 9.14 0 0 0 0 18.279ZM395.844 295.681a9.139 9.139 0 0 0 9.138-9.139 9.138 9.138 0 0 0-9.138-9.138 9.139 9.139 0 1 0 0 18.277Z" fill="#fff"/><path d="M395.842 275.063c-5.015 0-9.25 3.232-10.81 7.801a4.877 4.877 0 0 0-2.786-.891 4.623 4.623 0 0 0-2.786.891c-1.56-4.569-5.795-7.801-10.81-7.801-6.353 0-11.368 5.127-11.368 11.368 0 6.352 5.127 11.367 11.368 11.367 6.352 0 11.479-5.126 11.479-11.367v-.892c0-.669.891-1.337 2.229-1.337 1.337 0 2.228.78 2.228 1.337v.892c0 6.352 5.127 11.367 11.368 11.367 6.352 0 11.367-5.126 11.367-11.367-.111-6.241-5.238-11.368-11.479-11.368ZM359.4 286.542c0-5.015 4.123-9.138 9.138-9.138s9.25 4.123 9.25 9.138-4.123 9.139-9.25 9.139c-5.015 0-9.138-4.124-9.138-9.139Zm27.192 0c0-5.015 4.124-9.138 9.139-9.138s9.139 4.123 9.139 9.138-4.124 9.139-9.139 9.139-9.139-4.124-9.139-9.139Z" fill="#454F6B"/><path d="m412.781 289.551-4.458 12.482c-.557 1.449-2.118 2.117-3.455 1.337l-3.12-1.671c-2.006-1.003-4.235-1.338-6.464-1.115l-13.151 1.449-12.928-1.449a11.246 11.246 0 0 0-6.352 1.226l-3.232 1.56c-1.337.669-3.009 0-3.455-1.337l-4.458-12.482h-3.12v7.801c0 7.244 2.006 14.377 5.684 20.618l.891 1.56c4.569 7.578 12.705 12.259 21.621 12.259h10.921c8.916 0 17.052-4.681 21.621-12.259l.891-1.56c3.678-6.241 5.684-13.374 5.684-20.618v-7.801h-3.12Zm-16.271 19.057-2.341 6.91c-.668 2.006-2.563 3.232-4.68 3.009h-.892c-1.56-.112-2.898-.78-4.012-1.895h-4.681c-1.003 1.115-2.452 1.783-4.012 1.895l-1.003.111c-2.006.223-4.012-1.114-4.681-3.009l-2.34-6.909c-.446-1.338.669-2.564 2.006-2.452l4.792.557c2.452.334 4.904 0 7.244-.78l.223-.111.334.111c2.341.78 4.793 1.114 7.244.78l4.793-.557c1.337-.223 2.451 1.003 2.006 2.34Z" fill="#3C3247"/><path d="M371.168 308.747h21.473a5.856 5.856 0 0 1-5.857 5.856h-9.76a5.856 5.856 0 0 1-5.856-5.856Z" fill="#fff"/></g><circle cx="382.365" cy="441.365" r="66.365" fill="#FC4E4E"/><mask id="v" style="mask-type:alpha" maskUnits="userSpaceOnUse" x="316" y="375" width="133" height="133"><circle cx="382.365" cy="441.365" r="66.365" fill="#C4C4C4"/></mask><g mask="url(#v)"><path d="M394.95 492.491c-3.343 4.569-7.689 7.133-12.147 7.133h-1.338c-4.457 0-8.804-2.564-12.147-7.133l-.78-1.226v12.036l-3.344 1.338 1.338 1.894c3.566 5.127 9.361 8.136 15.602 8.136s12.036-3.009 15.603-8.136l1.337-1.894-3.344-1.338v-12.036l-.78 1.226Z" fill="#BD6C67"/><path d="M381.577 499.624h1.338c4.457 0 8.804-2.564 12.147-7.133l.892-1.226v-15.937h-27.416v15.937l.892 1.226c3.232 4.569 7.578 7.133 12.147 7.133Z" fill="#3C3247"/><path d="M382.134 493.271c30.652 0 55.5-24.848 55.5-55.5 0-30.651-24.848-55.5-55.5-55.5s-55.5 24.849-55.5 55.5c0 30.652 24.848 55.5 55.5 55.5Z" fill="#302A37"/><path d="M350.97 468.308c5.123-2.108 7.566-7.97 5.458-13.092-2.109-5.123-7.97-7.566-13.093-5.458-5.122 2.109-7.565 7.97-5.457 13.093 2.108 5.122 7.97 7.565 13.092 5.457Z" fill="#A64F5A"/><path d="M352.711 459.058c0 3.12-2.563 5.683-5.684 5.683-3.12 0-5.683-2.563-5.683-5.683 0-3.121 2.563-5.684 5.683-5.684 3.232 0 5.684 2.563 5.684 5.684Z" fill="#8C404C"/><path d="M426.576 462.878c2.108-5.123-.335-10.984-5.457-13.093-5.123-2.108-10.984.335-13.093 5.458-2.108 5.122.335 10.984 5.458 13.092 5.122 2.108 10.984-.335 13.092-5.457Z" fill="#A64F5A"/><path d="M411.667 459.058c0 3.12 2.563 5.684 5.684 5.684 3.12 0 5.683-2.564 5.683-5.684s-2.563-5.684-5.683-5.684c-3.232 0-5.684 2.564-5.684 5.684Z" fill="#8C404C"/><path d="M348.587 454.822h3.121l2.006-17.942h-6.575l1.448 17.942Z" fill="url(#w)"/><path d="m410.551 436.88 2.117 17.943h3.121l1.449-17.943h-6.687Z" fill="url(#x)"/><path d="M382.134 419.829c-12.259 0-22.735 2.451-27.862 6.129-1.671 3.789-2.674 8.024-2.674 12.371v17.831c0 11.256 4.792 22.066 13.039 29.756l1.226 1.114c4.235 3.79 9.696 5.907 15.379 5.907h1.783c5.684 0 11.145-2.117 15.38-5.907l1.226-1.114c8.358-7.69 13.039-18.389 13.039-29.756v-17.831c0-4.458-1.003-8.582-2.675-12.371-5.015-3.566-15.602-6.129-27.861-6.129Z" fill="#BD6C67"/><path d="M368.537 451.814a2.786 2.786 0 1 0 0-5.572 2.786 2.786 0 0 0 0 5.572ZM395.842 451.814a2.786 2.786 0 1 0 0-5.572 2.786 2.786 0 0 0 0 5.572Z" fill="#3C3247"/><path d="M389.266 463.293a34.19 34.19 0 0 0-14.265 0c1.672 2.229 4.458 3.9 7.244 4.012 2.898.111 5.795-1.56 7.021-4.012Z" fill="#A64F5A"/><path d="M367.869 437.771c-3.677-.222-7.132 1.226-9.584 3.79 6.241.668 12.482 1.114 18.723 1.114-2.117-2.786-5.349-4.681-9.139-4.904ZM396.399 437.771c3.678-.222 7.133 1.226 9.585 3.79-6.241.668-12.482 1.114-18.723 1.114 2.229-2.786 5.461-4.681 9.138-4.904Z" fill="#3C3247"/><path opacity=".3" d="M368.538 460.952a9.139 9.139 0 1 0 0-18.277 9.14 9.14 0 0 0 0 18.277ZM395.844 460.952a9.138 9.138 0 0 0 9.138-9.138 9.139 9.139 0 1 0-9.138 9.138Z" fill="#fff"/><path d="M395.842 440.335c-5.015 0-9.25 3.232-10.81 7.801a4.878 4.878 0 0 0-2.786-.892 4.624 4.624 0 0 0-2.786.892c-1.56-4.569-5.795-7.801-10.81-7.801-6.353 0-11.368 5.126-11.368 11.367 0 6.353 5.127 11.368 11.368 11.368 6.352 0 11.479-5.127 11.479-11.368v-.891c0-.669.891-1.338 2.229-1.338 1.337 0 2.228.78 2.228 1.338v.891c0 6.353 5.127 11.368 11.368 11.368 6.352 0 11.367-5.127 11.367-11.368-.111-6.241-5.238-11.367-11.479-11.367ZM359.4 451.814c0-5.015 4.123-9.139 9.138-9.139s9.25 4.124 9.25 9.139-4.123 9.138-9.25 9.138c-5.015 0-9.138-4.123-9.138-9.138Zm27.192 0c0-5.015 4.124-9.139 9.139-9.139s9.139 4.124 9.139 9.139-4.124 9.138-9.139 9.138-9.139-4.123-9.139-9.138Z" fill="#454F6B"/><path d="m412.781 454.823-4.458 12.481c-.557 1.449-2.118 2.118-3.455 1.338l-3.12-1.672c-2.006-1.003-4.235-1.337-6.464-1.114l-13.151 1.448-12.928-1.448a11.246 11.246 0 0 0-6.352 1.226l-3.232 1.56c-1.337.668-3.009 0-3.455-1.338l-4.458-12.481h-3.12v7.801c0 7.244 2.006 14.376 5.684 20.617l.891 1.56c4.569 7.579 12.705 12.259 21.621 12.259h10.921c8.916 0 17.052-4.68 21.621-12.259l.891-1.56c3.678-6.241 5.684-13.373 5.684-20.617v-7.801h-3.12ZM396.51 473.88l-2.341 6.909c-.668 2.006-2.563 3.232-4.68 3.009h-.892c-1.56-.111-2.898-.78-4.012-1.894h-4.681c-1.003 1.114-2.452 1.783-4.012 1.894l-1.003.112c-2.006.223-4.012-1.115-4.681-3.009l-2.34-6.91c-.446-1.337.669-2.563 2.006-2.452l4.792.558c2.452.334 4.904 0 7.244-.781l.223-.111.334.111c2.341.781 4.793 1.115 7.244.781l4.793-.558c1.337-.223 2.451 1.003 2.006 2.341Z" fill="#3C3247"/><path d="M371.168 474.018h21.473a5.856 5.856 0 0 1-5.857 5.856h-9.76a5.856 5.856 0 0 1-5.856-5.856Z" fill="#fff"/></g><circle cx="206.365" cy="441.365" r="66.365" fill="#D87ED4"/><mask id="y" style="mask-type:alpha" maskUnits="userSpaceOnUse" x="140" y="375" width="133" height="133"><circle cx="206.365" cy="441.365" r="66.365" fill="#C4C4C4"/></mask><g mask="url(#y)"><path d="M218.95 492.491c-3.343 4.569-7.689 7.133-12.147 7.133h-1.338c-4.457 0-8.804-2.564-12.147-7.133l-.78-1.226v12.036l-3.344 1.338 1.338 1.894c3.566 5.127 9.361 8.136 15.602 8.136s12.036-3.009 15.603-8.136l1.337-1.894-3.344-1.338v-12.036l-.78 1.226Z" fill="#BD6C67"/><path d="M205.577 499.624h1.338c4.457 0 8.804-2.564 12.147-7.133l.892-1.226v-15.937h-27.416v15.937l.892 1.226c3.232 4.569 7.578 7.133 12.147 7.133Z" fill="#3C3247"/><path d="M206.134 493.271c30.652 0 55.5-24.848 55.5-55.5 0-30.651-24.848-55.5-55.5-55.5s-55.5 24.849-55.5 55.5c0 30.652 24.848 55.5 55.5 55.5Z" fill="#302A37"/><path d="M174.97 468.308c5.123-2.108 7.566-7.97 5.458-13.092-2.109-5.123-7.97-7.566-13.093-5.458-5.122 2.109-7.565 7.97-5.457 13.093 2.108 5.122 7.97 7.565 13.092 5.457Z" fill="#A64F5A"/><path d="M176.711 459.058c0 3.12-2.563 5.683-5.684 5.683-3.12 0-5.683-2.563-5.683-5.683 0-3.121 2.563-5.684 5.683-5.684 3.232 0 5.684 2.563 5.684 5.684Z" fill="#8C404C"/><path d="M250.576 462.878c2.108-5.123-.335-10.984-5.457-13.093-5.123-2.108-10.984.335-13.093 5.458-2.108 5.122.335 10.984 5.458 13.092 5.122 2.108 10.984-.335 13.092-5.457Z" fill="#A64F5A"/><path d="M235.667 459.058c0 3.12 2.563 5.684 5.684 5.684 3.12 0 5.683-2.564 5.683-5.684s-2.563-5.684-5.683-5.684c-3.232 0-5.684 2.564-5.684 5.684Z" fill="#8C404C"/><path d="M172.587 454.822h3.121l2.006-17.942h-6.575l1.448 17.942Z" fill="url(#z)"/><path d="m234.551 436.88 2.117 17.943h3.121l1.449-17.943h-6.687Z" fill="url(#A)"/><path d="M206.134 419.829c-12.259 0-22.735 2.451-27.862 6.129-1.671 3.789-2.674 8.024-2.674 12.371v17.831c0 11.256 4.792 22.066 13.039 29.756l1.226 1.114c4.235 3.79 9.696 5.907 15.379 5.907h1.783c5.684 0 11.145-2.117 15.38-5.907l1.226-1.114c8.358-7.69 13.039-18.389 13.039-29.756v-17.831c0-4.458-1.003-8.582-2.675-12.371-5.015-3.566-15.602-6.129-27.861-6.129Z" fill="#BD6C67"/><path d="M192.537 451.814a2.786 2.786 0 1 0 0-5.572 2.786 2.786 0 0 0 0 5.572ZM219.842 451.814a2.786 2.786 0 1 0 0-5.572 2.786 2.786 0 0 0 0 5.572Z" fill="#3C3247"/><path d="M213.266 463.293a34.19 34.19 0 0 0-14.265 0c1.672 2.229 4.458 3.9 7.244 4.012 2.898.111 5.795-1.56 7.021-4.012Z" fill="#A64F5A"/><path d="M191.869 437.771c-3.677-.222-7.132 1.226-9.584 3.79 6.241.668 12.482 1.114 18.723 1.114-2.117-2.786-5.349-4.681-9.139-4.904ZM220.399 437.771c3.678-.222 7.133 1.226 9.585 3.79-6.241.668-12.482 1.114-18.723 1.114 2.229-2.786 5.461-4.681 9.138-4.904Z" fill="#3C3247"/><path opacity=".3" d="M192.538 460.952a9.139 9.139 0 1 0 0-18.277 9.14 9.14 0 0 0 0 18.277ZM219.844 460.952a9.138 9.138 0 0 0 9.138-9.138 9.139 9.139 0 1 0-9.138 9.138Z" fill="#fff"/><path d="M219.842 440.335c-5.015 0-9.25 3.232-10.81 7.801a4.878 4.878 0 0 0-2.786-.892 4.624 4.624 0 0 0-2.786.892c-1.56-4.569-5.795-7.801-10.81-7.801-6.353 0-11.368 5.126-11.368 11.367 0 6.353 5.127 11.368 11.368 11.368 6.352 0 11.479-5.127 11.479-11.368v-.891c0-.669.891-1.338 2.229-1.338 1.337 0 2.228.78 2.228 1.338v.891c0 6.353 5.127 11.368 11.368 11.368 6.352 0 11.367-5.127 11.367-11.368-.111-6.241-5.238-11.367-11.479-11.367ZM183.4 451.814c0-5.015 4.123-9.139 9.138-9.139s9.25 4.124 9.25 9.139-4.123 9.138-9.25 9.138c-5.015 0-9.138-4.123-9.138-9.138Zm27.192 0c0-5.015 4.124-9.139 9.139-9.139s9.139 4.124 9.139 9.139-4.124 9.138-9.139 9.138-9.139-4.123-9.139-9.138Z" fill="#454F6B"/><path d="m236.781 454.823-4.458 12.481c-.557 1.449-2.118 2.118-3.455 1.338l-3.12-1.672c-2.006-1.003-4.235-1.337-6.464-1.114l-13.151 1.448-12.928-1.448a11.246 11.246 0 0 0-6.352 1.226l-3.232 1.56c-1.337.668-3.009 0-3.455-1.338l-4.458-12.481h-3.12v7.801c0 7.244 2.006 14.376 5.684 20.617l.891 1.56c4.569 7.579 12.705 12.259 21.621 12.259h10.921c8.916 0 17.052-4.68 21.621-12.259l.891-1.56c3.678-6.241 5.684-13.373 5.684-20.617v-7.801h-3.12ZM220.51 473.88l-2.341 6.909c-.668 2.006-2.563 3.232-4.68 3.009h-.892c-1.56-.111-2.898-.78-4.012-1.894h-4.681c-1.003 1.114-2.452 1.783-4.012 1.894l-1.003.112c-2.006.223-4.012-1.115-4.681-3.009l-2.34-6.91c-.446-1.337.669-2.563 2.006-2.452l4.792.558c2.452.334 4.904 0 7.244-.781l.223-.111.334.111c2.341.781 4.793 1.115 7.244.781l4.793-.558c1.337-.223 2.451 1.003 2.006 2.341Z" fill="#3C3247"/><path d="M195.168 474.018h21.473a5.856 5.856 0 0 1-5.857 5.856h-9.76a5.856 5.856 0 0 1-5.856-5.856Z" fill="#fff"/></g><defs><linearGradient id="a" x1="294.71" y1="113.458" x2="331.229" y2="113.458" gradientUnits="userSpaceOnUse"><stop stop-color="#EDA826"/><stop offset=".33" stop-color="#EFAE2C"/><stop offset=".77" stop-color="#F3BF3D"/><stop offset="1" stop-color="#F6CB49"/></linearGradient><linearGradient id="b" x1="2965.22" y1="8705.91" x2="3529.81" y2="8705.91" gradientUnits="userSpaceOnUse"><stop stop-color="#EDA826"/><stop offset=".33" stop-color="#EFAE2C"/><stop offset=".77" stop-color="#F3BF3D"/><stop offset="1" stop-color="#F6CB49"/></linearGradient><linearGradient id="c" x1="270.3" y1="127.972" x2="294.709" y2="127.972" gradientUnits="userSpaceOnUse"><stop stop-color="#F2BA38"/><stop offset="1" stop-color="#EDA826"/></linearGradient><linearGradient id="d" x1="2484.21" y1="8283.31" x2="2737.09" y2="8283.31" gradientUnits="userSpaceOnUse"><stop stop-color="#F2BA38"/><stop offset="1" stop-color="#EDA826"/></linearGradient><linearGradient id="e" x1="12124.9" y1="9346.24" x2="17576" y2="9346.24" gradientUnits="userSpaceOnUse"><stop stop-color="#F2BA38"/><stop offset="1" stop-color="#EDA826"/></linearGradient><linearGradient id="f" x1="6759.41" y1="9420.46" x2="8374.27" y2="9420.46" gradientUnits="userSpaceOnUse"><stop stop-color="#F2BA38"/><stop offset="1" stop-color="#EDA826"/></linearGradient><linearGradient id="g" x1="11087" y1="8505.82" x2="15619.5" y2="8505.82" gradientUnits="userSpaceOnUse"><stop stop-color="#EDA826"/><stop offset=".33" stop-color="#EFAE2C"/><stop offset=".77" stop-color="#F3BF3D"/><stop offset="1" stop-color="#F6CB49"/></linearGradient><linearGradient id="h" x1="6759.41" y1="8944.8" x2="8374.27" y2="8944.8" gradientUnits="userSpaceOnUse"><stop stop-color="#EDA826"/><stop offset=".33" stop-color="#EFAE2C"/><stop offset=".77" stop-color="#F3BF3D"/><stop offset="1" stop-color="#F6CB49"/></linearGradient><linearGradient id="i" x1="8693.14" y1="8505.82" x2="11429.6" y2="8505.82" gradientUnits="userSpaceOnUse"><stop stop-color="#F2BA38"/><stop offset="1" stop-color="#EDA826"/></linearGradient><linearGradient id="j" x1="3065.79" y1="9348.55" x2="8516.89" y2="9348.55" gradientUnits="userSpaceOnUse"><stop stop-color="#F2BA38"/><stop offset="1" stop-color="#EDA826"/></linearGradient><linearGradient id="k" x1="3127.77" y1="9422.76" x2="4742.62" y2="9422.76" gradientUnits="userSpaceOnUse"><stop stop-color="#F2BA38"/><stop offset="1" stop-color="#EDA826"/></linearGradient><linearGradient id="l" x1="3254.4" y1="8508.13" x2="7786.83" y2="8508.13" gradientUnits="userSpaceOnUse"><stop stop-color="#EDA826"/><stop offset=".33" stop-color="#EFAE2C"/><stop offset=".77" stop-color="#F3BF3D"/><stop offset="1" stop-color="#F6CB49"/></linearGradient><linearGradient id="m" x1="3127.77" y1="8947.1" x2="4742.62" y2="8947.1" gradientUnits="userSpaceOnUse"><stop stop-color="#EDA826"/><stop offset=".33" stop-color="#EFAE2C"/><stop offset=".77" stop-color="#F3BF3D"/><stop offset="1" stop-color="#F6CB49"/></linearGradient><linearGradient id="n" x1="3366.39" y1="8508.13" x2="6102.87" y2="8508.13" gradientUnits="userSpaceOnUse"><stop stop-color="#F2BA38"/><stop offset="1" stop-color="#EDA826"/></linearGradient><linearGradient id="q" x1="173.793" y1="271.608" x2="173.793" y2="289.551" gradientUnits="userSpaceOnUse"><stop stop-color="#302A37"/><stop offset="1" stop-color="#3C3247"/></linearGradient><linearGradient id="r" x1="237.26" y1="271.608" x2="237.26" y2="289.551" gradientUnits="userSpaceOnUse"><stop stop-color="#302A37"/><stop offset="1" stop-color="#3C3247"/></linearGradient><linearGradient id="t" x1="350.426" y1="271.608" x2="350.426" y2="289.551" gradientUnits="userSpaceOnUse"><stop stop-color="#302A37"/><stop offset="1" stop-color="#3C3247"/></linearGradient><linearGradient id="u" x1="413.894" y1="271.608" x2="413.894" y2="289.551" gradientUnits="userSpaceOnUse"><stop stop-color="#302A37"/><stop offset="1" stop-color="#3C3247"/></linearGradient><linearGradient id="w" x1="350.426" y1="436.88" x2="350.426" y2="454.822" gradientUnits="userSpaceOnUse"><stop stop-color="#302A37"/><stop offset="1" stop-color="#3C3247"/></linearGradient><linearGradient id="x" x1="413.894" y1="436.88" x2="413.894" y2="454.823" gradientUnits="userSpaceOnUse"><stop stop-color="#302A37"/><stop offset="1" stop-color="#3C3247"/></linearGradient><linearGradient id="z" x1="174.426" y1="436.88" x2="174.426" y2="454.822" gradientUnits="userSpaceOnUse"><stop stop-color="#302A37"/><stop offset="1" stop-color="#3C3247"/></linearGradient><linearGradient id="A" x1="237.894" y1="436.88" x2="237.894" y2="454.823" gradientUnits="userSpaceOnUse"><stop stop-color="#302A37"/><stop offset="1" stop-color="#3C3247"/></linearGradient><filter id="o" x="66" y="163.058" width="460" height="397" filterUnits="userSpaceOnUse" color-interpolation-filters="sRGB"><feFlood flood-opacity="0" result="BackgroundImageFix"/><feColorMatrix in="SourceAlpha" values="0 0 0 0 0 0 0 0 0 0 0 0 0 0 0 0 0 0 127 0" result="hardAlpha"/><feOffset dy="6"/><feColorMatrix values="0 0 0 0 1 0 0 0 0 0.219608 0 0 0 0 0.0823529 0 0 0 1 0"/><feBlend in2="BackgroundImageFix" result="effect1_dropShadow_2_16149"/><feBlend in="SourceGraphic" in2="effect1_dropShadow_2_16149" result="shape"/></filter></defs></svg>