<svg viewBox="0 0 1440 523" fill="none" xmlns="http://www.w3.org/2000/svg">
<path fill-rule="evenodd" clip-rule="evenodd" d="M507.64 150H932.36C932.36 150 1075 493 1440 493V523H0V493C365 493 507.64 150 507.64 150Z" fill="#F9CA56"/>
<path fill-rule="evenodd" clip-rule="evenodd" d="M517.64 150H922.36C922.36 150 1065 523 1440 523H0C375 523 517.64 150 517.64 150Z" fill="#FF3815"/>
<mask id="mask0_1001_13777" style="mask-type:alpha" maskUnits="userSpaceOnUse" x="412" y="57" width="616" height="109">
  <path fill-rule="evenodd" clip-rule="evenodd" d="M1028 111.388V112.1H1027.97C1025.8 141.641 888.751 165.471 720 165.471C551.249 165.471 414.196 141.641 412.026 112.1H412V111.388V92.8864H430.495C473.53 72.129 586.907 57.3057 720 57.3057C853.093 57.3057 966.47 72.129 1009.51 92.8864H1028V111.388Z" fill="#DEDEE9"/>
</mask>
<g mask="url(#mask0_1001_13777)">
  <path fill-rule="evenodd" clip-rule="evenodd" d="M1028 111.388V112.1H1027.97C1025.8 141.641 888.751 165.471 720 165.471C551.249 165.471 414.196 141.641 412.026 112.1H412V111.388V92.8864H430.495C473.53 72.129 586.907 57.3057 720 57.3057C853.093 57.3057 966.47 72.129 1009.51 92.8864H1028V111.388Z" fill="#DEDEE9"/>
  <path d="M508 125H932V165.123L716.009 190L508 165.123V125Z" fill="#E7B539"/>
  <path d="M517 125L923 125V165.385C923 165.385 799.466 188 720 188C640.534 188 517 165.385 517 165.385V125Z" fill="#E62A09"/>
</g>
<mask id="mask1_1001_13777" style="mask-type:alpha" maskUnits="userSpaceOnUse" x="412" y="39" width="616" height="109">
  <ellipse cx="720" cy="93.5" rx="308" ry="54.5" fill="#ECECF1"/>
</mask>
<g mask="url(#mask1_1001_13777)">
  <ellipse cx="720" cy="93.5" rx="308" ry="54.5" fill="#F0F1F5"/>
  <path d="M547.983 102H892.017L932 133L702.5 206L508 133L547.983 102Z" fill="#F9CA56"/>
  <path d="M556 102L883 102L923 134.5L714.5 203L517 134.5L556 102Z" fill="#FF3815"/>
</g>
<ellipse cx="394.5" cy="204" rx="13.5" ry="5" fill="#F9CA56"/>
<rect x="381" y="200" width="27" height="4" fill="#F9CA56"/>
<ellipse cx="394.5" cy="200" rx="13.5" ry="5" fill="#FFE7A3"/>
<ellipse cx="394.5" cy="198" rx="8.5" ry="3" fill="#F9CA56"/>
<rect x="386" y="194" width="17" height="4" fill="#F9CA56"/>
<ellipse cx="394.5" cy="194" rx="8.5" ry="3" fill="#FFE7A3"/>
<ellipse cx="394.5" cy="193" rx="2.5" ry="1" fill="#F9CA56"/>
<rect x="392" y="123" width="5" height="70" fill="#F9CA56"/>
<circle cx="394.5" cy="118.5" r="6.5" fill="#FFE7A3"/>
<path d="M395.965 126.375C396.172 125.29 395.46 124.242 394.375 124.035C393.29 123.828 392.242 124.54 392.035 125.625L395.965 126.375ZM329.703 172.902C328.82 172.238 327.566 172.415 326.902 173.297C326.238 174.18 326.415 175.434 327.297 176.098L329.703 172.902ZM392.035 125.625C389.306 139.935 383.113 159.238 372.824 171.155C367.712 177.076 361.726 181.02 354.778 181.815C347.837 182.608 339.538 180.303 329.703 172.902L327.297 176.098C337.662 183.897 346.963 186.734 355.232 185.789C363.493 184.844 370.325 180.17 375.851 173.77C386.837 161.045 393.194 140.898 395.965 126.375L392.035 125.625Z" fill="#FF3815"/>
<ellipse cx="327" cy="271.037" rx="16" ry="5.92593" fill="#F9CA56"/>
<rect x="311" y="266.296" width="32" height="4.74074" fill="#F9CA56"/>
<ellipse cx="327" cy="266.296" rx="16" ry="5.92593" fill="#FFE7A3"/>
<ellipse cx="327" cy="263.926" rx="10.0741" ry="3.55556" fill="#F9CA56"/>
<rect x="316.926" y="259.185" width="20.1482" height="4.74074" fill="#F9CA56"/>
<ellipse cx="327" cy="259.185" rx="10.0741" ry="3.55556" fill="#FFE7A3"/>
<ellipse cx="327" cy="258" rx="2.96296" ry="1.18519" fill="#F9CA56"/>
<rect x="324.037" y="175.037" width="5.92593" height="82.963" fill="#F9CA56"/>
<circle cx="327" cy="169.704" r="7.7037" fill="#FFE7A3"/>
<path d="M329.453 179.484C329.72 178.129 328.838 176.815 327.484 176.547C326.129 176.28 324.815 177.162 324.547 178.516L329.453 179.484ZM244.471 226.612C243.354 225.799 241.791 226.046 240.978 227.162C240.166 228.279 240.413 229.843 241.529 230.655L244.471 226.612ZM324.547 178.516C321.8 192.44 311.557 211.953 296.967 224.172C289.707 230.253 281.505 234.415 272.742 235.316C264.032 236.212 254.506 233.913 244.471 226.612L241.529 230.655C252.442 238.595 263.178 241.326 273.254 240.29C283.277 239.26 292.387 234.53 300.177 228.006C315.688 215.015 326.496 194.471 329.453 179.484L324.547 178.516Z" fill="#FF3815"/>
<ellipse cx="241" cy="352.111" rx="21" ry="7.77778" fill="#F9CA56"/>
<rect x="220" y="345.889" width="42" height="6.22222" fill="#F9CA56"/>
<ellipse cx="241" cy="345.889" rx="21" ry="7.77778" fill="#FFE7A3"/>
<ellipse cx="241" cy="342.778" rx="13.2222" ry="4.66667" fill="#F9CA56"/>
<rect x="227.778" y="336.555" width="26.4444" height="6.22222" fill="#F9CA56"/>
<ellipse cx="241" cy="336.556" rx="13.2222" ry="4.66667" fill="#FFE7A3"/>
<ellipse cx="241" cy="335" rx="3.88889" ry="1.55556" fill="#F9CA56"/>
<rect x="237.111" y="226.111" width="7.77778" height="108.889" fill="#F9CA56"/>
<circle cx="241" cy="219.111" r="10.1111" fill="#FFE7A3"/>
<ellipse rx="13.5" ry="5" transform="matrix(-1 0 0 1 1045.5 204)" fill="#F9CA56"/>
<rect width="27" height="4" transform="matrix(-1 0 0 1 1059 200)" fill="#F9CA56"/>
<ellipse rx="13.5" ry="5" transform="matrix(-1 0 0 1 1045.5 200)" fill="#FFE7A3"/>
<ellipse rx="8.5" ry="3" transform="matrix(-1 0 0 1 1045.5 198)" fill="#F9CA56"/>
<rect width="17" height="4" transform="matrix(-1 0 0 1 1054 194)" fill="#F9CA56"/>
<ellipse rx="8.5" ry="3" transform="matrix(-1 0 0 1 1045.5 194)" fill="#FFE7A3"/>
<ellipse rx="2.5" ry="1" transform="matrix(-1 0 0 1 1045.5 193)" fill="#F9CA56"/>
<rect width="5" height="70" transform="matrix(-1 0 0 1 1048 123)" fill="#F9CA56"/>
<circle r="6.5" transform="matrix(-1 0 0 1 1045.5 118.5)" fill="#FFE7A3"/>
<path d="M1044.04 126.375C1043.83 125.29 1044.54 124.242 1045.63 124.035C1046.71 123.828 1047.76 124.54 1047.96 125.625L1044.04 126.375ZM1110.3 172.902C1111.18 172.238 1112.43 172.415 1113.1 173.297C1113.76 174.18 1113.59 175.434 1112.7 176.098L1110.3 172.902ZM1047.96 125.625C1050.69 139.935 1056.89 159.238 1067.18 171.155C1072.29 177.076 1078.27 181.02 1085.22 181.815C1092.16 182.608 1100.46 180.303 1110.3 172.902L1112.7 176.098C1102.34 183.897 1093.04 186.734 1084.77 185.789C1076.51 184.844 1069.67 180.17 1064.15 173.77C1053.16 161.045 1046.81 140.898 1044.04 126.375L1047.96 125.625Z" fill="#FF3815"/>
<ellipse rx="16" ry="5.92593" transform="matrix(-1 0 0 1 1113 271.037)" fill="#F9CA56"/>
<rect width="32" height="4.74074" transform="matrix(-1 0 0 1 1129 266.296)" fill="#F9CA56"/>
<ellipse rx="16" ry="5.92593" transform="matrix(-1 0 0 1 1113 266.296)" fill="#FFE7A3"/>
<ellipse rx="10.0741" ry="3.55556" transform="matrix(-1 0 0 1 1113 263.926)" fill="#F9CA56"/>
<rect width="20.1482" height="4.74074" transform="matrix(-1 0 0 1 1123.07 259.185)" fill="#F9CA56"/>
<ellipse rx="10.0741" ry="3.55556" transform="matrix(-1 0 0 1 1113 259.185)" fill="#FFE7A3"/>
<ellipse rx="2.96296" ry="1.18519" transform="matrix(-1 0 0 1 1113 258)" fill="#F9CA56"/>
<rect width="5.92593" height="82.963" transform="matrix(-1 0 0 1 1115.96 175.037)" fill="#F9CA56"/>
<circle r="7.7037" transform="matrix(-1 0 0 1 1113 169.704)" fill="#FFE7A3"/>
<path d="M1110.55 179.484C1110.28 178.129 1111.16 176.815 1112.52 176.547C1113.87 176.28 1115.19 177.162 1115.45 178.516L1110.55 179.484ZM1195.53 226.612C1196.65 225.799 1198.21 226.046 1199.02 227.162C1199.83 228.279 1199.59 229.843 1198.47 230.655L1195.53 226.612ZM1115.45 178.516C1118.2 192.44 1128.44 211.953 1143.03 224.172C1150.29 230.253 1158.49 234.415 1167.26 235.316C1175.97 236.212 1185.49 233.913 1195.53 226.612L1198.47 230.655C1187.56 238.595 1176.82 241.326 1166.75 240.29C1156.72 239.26 1147.61 234.53 1139.82 228.006C1124.31 215.015 1113.5 194.471 1110.55 179.484L1115.45 178.516Z" fill="#FF3815"/>
<ellipse rx="21" ry="7.77778" transform="matrix(-1 0 0 1 1199 352.111)" fill="#F9CA56"/>
<rect width="42" height="6.22222" transform="matrix(-1 0 0 1 1220 345.889)" fill="#F9CA56"/>
<ellipse rx="21" ry="7.77778" transform="matrix(-1 0 0 1 1199 345.889)" fill="#FFE7A3"/>
<ellipse rx="13.2222" ry="4.66667" transform="matrix(-1 0 0 1 1199 342.778)" fill="#F9CA56"/>
<rect width="26.4444" height="6.22222" transform="matrix(-1 0 0 1 1212.22 336.555)" fill="#F9CA56"/>
<ellipse rx="13.2222" ry="4.66667" transform="matrix(-1 0 0 1 1199 336.556)" fill="#FFE7A3"/>
<ellipse rx="3.88889" ry="1.55556" transform="matrix(-1 0 0 1 1199 335)" fill="#F9CA56"/>
<rect width="7.77778" height="108.889" transform="matrix(-1 0 0 1 1202.89 226.111)" fill="#F9CA56"/>
<circle r="10.1111" transform="matrix(-1 0 0 1 1199 219.111)" fill="#FFE7A3"/>
<mask id="mask2_1001_13777" style="mask-type:alpha" maskUnits="userSpaceOnUse" x="466" y="33" width="508" height="90">
  <path fill-rule="evenodd" clip-rule="evenodd" d="M973.294 78.1239V78.7099H973.273C971.486 103.038 858.618 122.662 719.647 122.662C580.676 122.662 467.808 103.038 466.022 78.7099H466V78.1239V62.887H481.231C516.672 45.7927 610.041 33.5853 719.647 33.5853C829.253 33.5853 922.622 45.7927 958.063 62.887H973.294V78.1239Z" fill="#DEDEE9"/>
</mask>
<g mask="url(#mask2_1001_13777)">
  <path fill-rule="evenodd" clip-rule="evenodd" d="M973.294 78.1239V78.7099H973.273C971.486 103.038 858.618 122.662 719.647 122.662C580.676 122.662 467.808 103.038 466.022 78.7099H466V78.1239V62.887H481.231C516.672 45.7927 610.041 33.5853 719.647 33.5853C829.253 33.5853 922.622 45.7927 958.063 62.887H973.294V78.1239Z" fill="#E4E6EE"/>
  <path d="M538.545 82L901.328 94.5V123H538.545V82Z" fill="#E7B539"/>
  <path d="M545.819 82H893.434V123H545.819V82Z" fill="#E62A09"/>
</g>
<mask id="mask3_1001_13777" style="mask-type:alpha" maskUnits="userSpaceOnUse" x="466" y="19" width="508" height="89">
  <ellipse cx="720" cy="63.5" rx="254" ry="44.5" fill="#ECECF1"/>
</mask>
<g mask="url(#mask3_1001_13777)">
  <ellipse cx="720" cy="63.5" rx="254" ry="44.5" fill="#F0F1F5"/>
  <path d="M582.697 68.9415H857.304L901.314 94.6626L705.014 158L538.552 94.6354L582.697 68.9415Z" fill="#F9CA56"/>
  <path d="M589.562 68.9415L849.582 68.9415L893.427 96.0094L715.29 155.431L545.823 95.8943L589.562 68.9415Z" fill="#FF3815"/>
</g>
<mask id="mask4_1001_13777" style="mask-type:alpha" maskUnits="userSpaceOnUse" x="519" y="11" width="403" height="72">
  <path fill-rule="evenodd" clip-rule="evenodd" d="M921.614 46.9757V47.4408H921.597C920.18 66.7486 830.602 82.3238 720.307 82.3238C610.012 82.3238 520.435 66.7486 519.017 47.4408H519V46.9757V34.8829H531.088C559.216 21.3161 633.318 11.6277 720.307 11.6277C807.296 11.6277 881.398 21.3161 909.526 34.8829H921.614V46.9757Z" fill="#DEDEE9"/>
</mask>
<g mask="url(#mask4_1001_13777)">
  <path fill-rule="evenodd" clip-rule="evenodd" d="M921.614 46.9757V47.4408H921.597C920.18 66.7486 830.602 82.3238 720.307 82.3238C610.012 82.3238 520.435 66.7486 519.017 47.4408H519V46.9757V34.8829H531.088C559.216 21.3161 633.318 11.6277 720.307 11.6277C807.296 11.6277 881.398 21.3161 909.526 34.8829H921.614V46.9757Z" fill="#E4E6EE"/>
  <path d="M577.614 45.3386L862.483 57.8386V86.3386H720.049H577.614V45.3386Z" fill="#E7B539"/>
  <path d="M583.219 43.3124H856.217V84.3124H583.219V43.3124Z" fill="#E62A09"/>
</g>
<mask id="mask5_1001_13777" style="mask-type:alpha" maskUnits="userSpaceOnUse" x="519" y="0" width="402" height="70">
  <ellipse cx="720" cy="35" rx="201" ry="35" fill="#ECECF1"/>
</mask>
<g mask="url(#mask5_1001_13777)">
  <ellipse cx="720" cy="35" rx="201" ry="35" fill="#F0F1F5"/>
  <path d="M720.037 41.7338C854.147 41.7338 862.974 60.3733 862.974 60.3733L717.384 80.3807L577.101 60.3733C577.101 60.3733 585.928 41.7338 720.037 41.7338Z" fill="#F9CA56"/>
  <path d="M719.667 43.3124C848.045 43.3124 856.494 61.1905 856.494 61.1905L717.127 80.3807L582.84 61.1905C582.84 61.1905 591.289 43.3124 719.667 43.3124Z" fill="#FF3815"/>
</g>
</svg>
