<svg width="173" height="223" viewBox="0 0 173 223" fill="none" xmlns="http://www.w3.org/2000/svg">
<g clip-path="url(#clip0_21_165)">
<path d="M66.9119 63.1766C67.9144 46.5676 73.7091 30.6079 83.5917 17.237L90.0826 8.47375L100.445 53.564C101.028 56.1391 100.783 58.8332 99.7455 61.2603C98.7075 63.6874 96.9297 65.7231 94.6666 67.0757C89.7166 69.971 89.1581 68.6199 84.5547 74.2562C84.4584 74.372 89.6011 69.6815 89.5048 69.778C81.4538 79.0045 61.6922 74.1017 66.9119 63.1766Z" fill="#FADCBE" stroke="#672938" stroke-width="4" stroke-linecap="round" stroke-linejoin="round"/>
<path d="M80.2594 74.4105L79.6816 69.8166C78.1793 57.8298 80.0476 37.9484 87.8674 28.7605L89.6009 36.5972L95.5524 65.8982L80.2594 74.4105Z" fill="#672938"/>
<path d="M119.147 220.105H53.7954L57.8016 154.612H115.122L119.147 220.105Z" fill="#FADCBE" stroke="#672938" stroke-width="4" stroke-linecap="round" stroke-linejoin="round"/>
<path d="M112.868 186.519L114.64 215.858H108.034L107.09 186.519H112.868Z" fill="white"/>
<path d="M114.139 49.3561C139.987 49.2017 149.502 70.1061 149.637 96.0098L144.417 110.583C152.295 123.4 160.095 137.819 161.444 150.771C161.81 154.303 156.571 164.128 155.858 167.371C152.218 183.778 138.157 189.356 86.789 188.854C27.5429 188.294 11.2869 141.428 13.4826 95.3536C13.7977 83.1792 18.8293 71.6058 27.5117 63.0849C36.194 54.5639 47.8452 49.7646 59.9973 49.7035L114.139 49.3561Z" fill="#FADCBE" stroke="#672938" stroke-width="4" stroke-linecap="round" stroke-linejoin="round"/>
<path d="M117.433 120.408C117.433 128.129 120.572 128.303 124.463 128.303C128.354 128.303 131.493 128.071 131.493 120.408C131.493 112.745 128.334 106.53 124.463 106.53C120.592 106.53 117.433 112.745 117.433 120.408Z" fill="#672938"/>
<path d="M142.125 132.974V132.549C142.128 131.937 142.01 131.33 141.777 130.763C141.545 130.196 141.204 129.681 140.772 129.247C140.341 128.813 139.829 128.469 139.264 128.234C138.7 127.999 138.095 127.878 137.483 127.878H106.223C104.99 127.878 103.808 127.389 102.934 126.517C102.06 125.645 101.567 124.462 101.562 123.226V121.778C101.567 120.543 102.06 119.36 102.934 118.488C103.808 117.616 104.99 117.127 106.223 117.127H107.475" stroke="#672938" stroke-width="3" stroke-miterlimit="10" stroke-linecap="round"/>
<path d="M138.562 155.616C139.648 157.235 141.126 158.553 142.856 159.447C144.587 160.341 146.515 160.783 148.462 160.731C154.587 160.731 159.556 156.542 159.556 151.388" stroke="#672938" stroke-width="2" stroke-linecap="round" stroke-linejoin="round"/>
<path d="M162.175 152.257C157.514 152.257 150.176 147.856 150.176 142.432C150.176 138.475 154.124 139.286 158.054 140C159.22 140.216 160.274 140.834 161.034 141.747C161.794 142.66 162.211 143.81 162.214 144.999L162.175 152.257Z" fill="#672938"/>
<path d="M55.9796 196H117.265L118 210L55 209.637L55.9796 196Z" fill="#672938"/>
<path d="M137.002 146.678L118.916 140.984" stroke="white" stroke-width="0.5" stroke-linecap="round" stroke-linejoin="round"/>
<path d="M135.808 149.265L117.645 152.295" stroke="white" stroke-width="0.5" stroke-linecap="round" stroke-linejoin="round"/>
<path d="M136.578 129.326H105.915C104.426 129.326 103.218 130.536 103.218 132.028V132.047C103.218 133.54 104.426 134.75 105.915 134.75H136.578C138.067 134.75 139.274 133.54 139.274 132.047V132.028C139.274 130.536 138.067 129.326 136.578 129.326Z" fill="#FFF9F3"/>
<path d="M136.578 130.793H105.915C104.426 130.793 103.218 132.003 103.218 133.495V133.514C103.218 135.007 104.426 136.217 105.915 136.217H136.578C138.067 136.217 139.274 135.007 139.274 133.514V133.495C139.274 132.003 138.067 130.793 136.578 130.793Z" fill="#FFF9F3"/>
<path d="M59.4387 47.947H121.843C134.19 47.947 146.032 52.8584 154.768 61.6024C163.504 70.3464 168.42 82.2079 168.435 94.5815V95.3536H12.8469V94.5815C12.8622 82.2079 17.7778 70.3464 26.5137 61.6024C35.2497 52.8584 47.0918 47.947 59.4387 47.947Z" fill="#672938" stroke="#672938" stroke-width="4" stroke-miterlimit="10"/>
<path opacity="0.48" d="M67.7015 50.7073C67.7015 50.7073 135.114 43.1022 152.275 60.3585C163.1 71.2064 164.256 78.7536 164.256 91.2422V93.1724L153.932 93.9252C154.579 86.8005 153.993 79.6172 152.198 72.6927C146.882 53.1587 64.196 56.0154 64.196 56.0154L67.7015 50.7073Z" fill="white"/>
<path d="M145.977 53.0814C145.631 55.3398 145.38 57.7719 145.245 60.3198H162.58C162.445 57.7719 162.195 55.3398 161.848 53.0814H145.977Z" fill="#E5B656" stroke="#672938" stroke-width="4" stroke-miterlimit="10"/>
<path d="M157.456 37.6395C155.338 37.6395 153.392 39.8979 151.871 43.6619H163.023C161.501 39.9172 159.575 37.6395 157.456 37.6395Z" fill="#E5B656" stroke="#2C3435" stroke-width="0.45" stroke-miterlimit="10"/>
<path d="M153.951 93.3268C155.689 91.1064 157.126 88.6661 158.227 86.0691H149.56C150.679 88.6816 152.157 91.1245 153.951 93.3268V93.3268Z" fill="#E5B656" stroke="#672938" stroke-width="2" stroke-miterlimit="10"/>
<path d="M146.459 76.7848H161.405C161.946 74.3939 162.326 71.9692 162.541 69.5271H145.361C145.571 71.9674 145.938 74.3917 146.459 76.7848V76.7848Z" fill="#E5B656" stroke="#672938" stroke-width="2" stroke-miterlimit="10"/>
<path d="M159.537 43.6812H156.879C154.273 43.6723 151.748 44.591 149.755 46.2738C147.762 47.9565 146.43 50.2938 145.997 52.8691V53.0815H161.944C161.494 49.868 160.686 46.715 159.537 43.6812V43.6812Z" fill="#67B1D1" stroke="#672938" stroke-width="2" stroke-miterlimit="10"/>
<path d="M145.13 64.3541C145.13 66.1685 145.13 67.8864 145.361 69.5271H162.541C162.695 67.8864 162.772 66.1492 162.772 64.3541C162.772 62.945 162.772 61.5746 162.657 60.2234H145.322C145.187 61.5746 145.13 62.945 145.13 64.3541Z" fill="#67B1D1" stroke="#672938" stroke-width="2" stroke-miterlimit="10"/>
<path d="M149.56 86.0691H158.227C159.583 83.09 160.628 79.9787 161.347 76.7847H146.401C147.127 79.9817 148.185 83.0936 149.56 86.0691V86.0691Z" fill="#67B1D1" stroke="#672938" stroke-width="2" stroke-miterlimit="10"/>
<path d="M155.242 83.5213L153.315 42.7933H161.347L163.447 59.4706C164.481 67.3102 163.342 75.284 160.153 82.5176C159.534 84.3606 158.574 86.0698 157.322 87.5555V87.5555C156.301 87.5555 155.338 85.8955 155.242 83.5213Z" fill="#E5B656" stroke="#672938" stroke-width="2" stroke-miterlimit="10"/>
<path d="M172.018 48.1014C172.018 53.8921 160.866 58.7949 157.437 58.7949C154.009 58.7949 151.235 54.0658 151.235 48.2365C151.235 42.4072 154.009 37.6395 157.437 37.6395C160.866 37.6395 172.018 42.2721 172.018 48.1014Z" fill="#E5B656" stroke="#672938" stroke-width="2" stroke-miterlimit="10"/>
<path d="M160.461 51.1126C161.153 51.1126 161.713 49.9286 161.713 48.4682C161.713 47.0077 161.153 45.8237 160.461 45.8237C159.77 45.8237 159.209 47.0077 159.209 48.4682C159.209 49.9286 159.77 51.1126 160.461 51.1126Z" fill="#672938" stroke="#672938" stroke-miterlimit="10"/>
<path d="M28.5636 57.5982C29.5441 40.9846 35.341 25.0189 45.2434 11.6587L51.7151 2.89539L62.0195 47.9664C62.5923 50.5538 62.3301 53.2567 61.2708 55.6852C60.2115 58.1136 58.4098 60.1421 56.1257 61.478C51.1757 64.3734 50.6364 63.0029 46.0138 68.6585C46.0138 68.6585 51.0794 64.0645 50.9831 64.1803C43.0862 73.4262 23.4017 68.5234 28.5636 57.5982Z" fill="#FADCBE" stroke="#672938" stroke-width="4" stroke-linecap="round" stroke-linejoin="round"/>
<path d="M47.7859 66.7089L46.5147 62.5202C45.0123 50.5528 41.8921 33.2772 49.712 24.0893L49.9624 23.1049L57.1466 60.3005L47.7859 66.7089Z" fill="#672938"/>
<path d="M79.9129 92.7477L90.41 197.405C90.5122 198.443 90.3965 199.49 90.0703 200.48C89.7442 201.47 89.2149 202.381 88.5164 203.154C87.8179 203.926 86.9657 204.544 86.0148 204.967C85.0638 205.39 84.035 205.608 82.9946 205.609H32.6856C28.4838 205.612 24.3288 204.724 20.4938 203.004C16.6588 201.283 13.2305 198.769 10.4344 195.626C7.63824 192.482 5.53751 188.782 4.27028 184.767C3.00305 180.752 2.59805 176.514 3.08182 172.331L12.5388 89.7559L79.9129 92.7477Z" fill="#672938" stroke="#672938" stroke-width="3" stroke-miterlimit="10"/>
<path d="M32.801 89.119C31.3773 89.5141 29.8892 89.6204 28.424 89.4314C26.9588 89.2425 25.546 88.7622 24.2685 88.0187C20.8016 85.8762 18.9333 81.8034 18.991 76.4373C19.2164 70.9502 20.8914 65.6214 23.8448 60.9955C25.825 58.0036 27.9593 55.1172 30.2393 52.348L30.4127 58.0036C29.2763 59.5864 28.1592 61.3429 27.1384 63.0222C24.532 67.0626 23.0492 71.7271 22.8432 76.5339C22.8432 80.3943 24.0181 83.3283 26.2716 84.718C31.1831 87.7485 39.8504 82.9036 45.2242 74.1597C47.8246 70.1165 49.3069 65.4536 49.5193 60.648C49.6383 58.3763 49.0675 56.1218 47.8822 54.1817C47.4168 53.5668 47.146 52.8261 47.1048 52.0554C47.0636 51.2847 47.2539 50.5193 47.651 49.858V49.858C47.7 49.7699 47.767 49.6931 47.8477 49.6328C47.9284 49.5725 48.0209 49.53 48.1192 49.5081C48.2174 49.4862 48.3192 49.4854 48.4178 49.5058C48.5164 49.5262 48.6095 49.5673 48.6911 49.6264C51.7343 51.8461 53.3715 55.7452 53.333 60.7252C53.1161 66.2436 51.4267 71.6027 48.4407 76.2443C44.2226 83.1546 38.3096 87.8257 32.801 89.119Z" fill="#E5B656"/>
<path d="M12.272 86L4.12472 173.492C4.12472 173.492 0.873389 200.313 27.5722 203.661L52.6263 204.665L79 205C79 205 26.0996 198.797 20.8975 194.11C10.13 184.402 12.5972 186.233 12.272 169.81C11.9469 153.387 16.4987 90.3717 16.4987 90.3717L12.272 86Z" fill="#562030"/>
<path d="M148.443 169.05C148.284 169.05 148.13 168.999 148.002 168.905C147.874 168.812 147.779 168.68 147.73 168.529L145.669 161.638C145.638 161.522 145.634 161.401 145.657 161.284C145.68 161.167 145.731 161.057 145.804 160.962C145.873 160.875 145.961 160.806 146.061 160.759C146.161 160.712 146.271 160.689 146.382 160.692L150.234 160.885C150.343 160.895 150.449 160.927 150.546 160.98C150.642 161.034 150.726 161.106 150.792 161.194C150.857 161.281 150.902 161.382 150.922 161.489C150.942 161.596 150.937 161.707 150.908 161.812L149.097 168.509C149.062 168.666 148.973 168.805 148.847 168.904C148.721 169.002 148.564 169.054 148.404 169.05H148.443Z" fill="white"/>
<path d="M146.382 161.426L150.234 161.619L148.423 168.316L146.382 161.426ZM146.382 159.939C146.15 159.941 145.921 159.997 145.715 160.103C145.509 160.209 145.33 160.361 145.193 160.549C145.056 160.737 144.966 160.954 144.928 161.183C144.89 161.413 144.906 161.648 144.976 161.869L147.017 168.76C147.11 169.063 147.296 169.329 147.549 169.519C147.801 169.71 148.107 169.816 148.423 169.822V169.822C148.745 169.816 149.056 169.706 149.31 169.507C149.564 169.309 149.746 169.033 149.829 168.722L151.64 162.024C151.708 161.807 151.725 161.577 151.691 161.352C151.656 161.127 151.57 160.913 151.44 160.726C151.31 160.54 151.138 160.386 150.939 160.276C150.74 160.166 150.519 160.104 150.292 160.094L146.44 159.901L146.382 159.939Z" fill="#672938"/>
</g>
<defs>
<clipPath id="clip0_21_165">
<rect width="173" height="223" fill="white"/>
</clipPath>
</defs>
</svg>
