<svg width="212" height="223" viewBox="0 0 212 223" fill="none" xmlns="http://www.w3.org/2000/svg">
<g clip-path="url(#clip0_18_2248)">
<path d="M192.026 178.996H19.9336C17.5579 178.995 15.2141 178.449 13.0831 177.4C10.9521 176.351 9.09095 174.826 7.64325 172.944C6.19555 171.062 5.20004 168.872 4.73362 166.544C4.26721 164.216 4.34235 161.813 4.95323 159.518L29.6184 67.3044C30.5046 64.0119 32.4529 61.1035 35.1613 59.0299C37.8697 56.9564 41.1869 55.8336 44.5988 55.8355H167.421C170.833 55.8336 174.151 56.9564 176.859 59.0299C179.567 61.1035 181.516 64.0119 182.402 67.3044L207.067 159.518C207.679 161.818 207.753 164.227 207.284 166.559C206.814 168.891 205.813 171.084 204.359 172.968C202.904 174.851 201.035 176.375 198.896 177.42C196.758 178.465 194.407 179.004 192.026 178.996V178.996Z" fill="#562030" stroke="#672938" stroke-width="4.44" stroke-linecap="round" stroke-linejoin="round"/>
<path d="M29.2962 77.7271L25.39 9.1148C25.2764 8.01624 25.4908 6.90867 26.0062 5.93168C26.5215 4.9547 27.3148 4.15203 28.2859 3.62485C29.257 3.09766 30.3626 2.86955 31.4633 2.96926C32.5639 3.06898 33.6104 3.49206 34.4708 4.18518L86.0564 45.3928" fill="#FADCBE"/>
<path d="M29.2962 77.7271L25.39 9.1148C25.2764 8.01624 25.4908 6.90867 26.0062 5.93168C26.5215 4.9547 27.3148 4.15203 28.2859 3.62485C29.257 3.09766 30.3626 2.86955 31.4633 2.96926C32.5639 3.06898 33.6104 3.49206 34.4708 4.18518L86.0564 45.3928" stroke="#672938" stroke-width="3" stroke-linecap="round" stroke-linejoin="round"/>
<path d="M182.825 79.2362L186.731 9.1148C186.827 8.02478 186.601 6.93047 186.082 5.96737C185.562 5.00428 184.771 4.21471 183.806 3.69643C182.842 3.17815 181.747 2.95393 180.656 3.05153C179.565 3.14913 178.527 3.56427 177.67 4.24554L126.085 45.4531" fill="#FADCBE"/>
<path d="M182.825 79.2362L186.731 9.1148C186.827 8.02478 186.601 6.93047 186.082 5.96737C185.562 5.00428 184.771 4.21471 183.806 3.69643C182.842 3.17815 181.747 2.95393 180.656 3.05153C179.565 3.14913 178.527 3.56427 177.67 4.24554L126.085 45.4531" stroke="#672938" stroke-width="3" stroke-linecap="round" stroke-linejoin="round"/>
<path d="M138.87 218.553H70.5525L74.7405 150.283H134.662L138.87 218.553Z" fill="#FADCBE" stroke="#672938" stroke-width="4.44" stroke-linecap="round" stroke-linejoin="round"/>
<path d="M134.5 182L136.5 216.5H129.594L128 183.5L134.5 182Z" fill="white"/>
<path d="M133.635 40.5437C140.061 40.5066 146.431 41.7354 152.382 44.1598C158.333 46.5842 163.747 50.1568 168.315 54.6732C172.883 59.1897 176.516 64.5615 179.006 70.4817C181.495 76.4019 182.793 82.7543 182.824 89.1759V91.9727C185.1 138.593 165.086 185.957 105.044 185.957C43.1087 185.957 26.1148 136.52 28.4102 88.4918C28.7393 75.8115 33.9909 63.7562 43.0544 54.8756C52.1178 45.9949 64.2824 40.9852 76.9755 40.9058L133.635 40.5437Z" fill="#FADCBE" stroke="#672938" stroke-width="4.44" stroke-linecap="round" stroke-linejoin="round"/>
<path d="M146.078 114.609C146.078 122.657 142.796 122.838 138.729 122.838C134.662 122.838 131.38 122.597 131.38 114.609C131.38 106.621 134.702 100.142 138.729 100.142C142.756 100.142 146.078 106.621 146.078 114.609Z" fill="#672938"/>
<path d="M92.4189 160.726C94.2698 161.473 96.2681 161.783 98.2585 161.633C100.249 161.483 102.178 160.877 103.896 159.861C106.896 157.969 107.419 156.601 107.419 156.601C107.419 156.601 110.822 162.637 123.527 161.148L122.581 159.257C122.581 159.257 112.05 160.022 109.735 155.233C107.419 150.444 106.997 151.551 106.997 151.551C106.997 151.551 102.527 158.674 97.4728 158.674C92.419 158.674 92.7613 158.15 92.7613 158.15L92.4189 160.726Z" fill="#E5B589"/>
<path d="M120.084 127.707V127.265C120.084 125.973 120.598 124.735 121.511 123.822C122.425 122.909 123.665 122.396 124.957 122.396H157.575C158.862 122.396 160.097 121.885 161.007 120.975C161.917 120.066 162.428 118.832 162.428 117.546V116.037C162.428 114.751 161.917 113.518 161.007 112.609C160.097 111.699 158.862 111.188 157.575 111.188H156.267" stroke="#672938" stroke-miterlimit="10" stroke-linecap="round"/>
<path d="M64.5925 114.609C64.5925 122.657 67.8745 122.838 71.9417 122.838C76.009 122.838 79.291 122.597 79.291 114.609C79.291 106.621 75.9888 100.142 71.9417 100.142C67.8946 100.142 64.5925 106.621 64.5925 114.609Z" fill="#672938"/>
<path d="M90.4055 127.707V127.265C90.4082 126.626 90.2846 125.994 90.042 125.403C89.7993 124.812 89.4423 124.275 88.9914 123.823C88.5405 123.371 88.0047 123.012 87.4147 122.767C86.8246 122.522 86.192 122.396 85.553 122.396H52.9346C51.6562 122.38 50.4353 121.863 49.5351 120.955C48.6349 120.048 48.1275 118.824 48.1223 117.546V116.037C48.1276 114.749 48.6434 113.516 49.5566 112.607C50.4698 111.698 51.7062 111.188 52.995 111.188H54.1628" stroke="#672938" stroke-miterlimit="10" stroke-linecap="round"/>
<path d="M85.5127 153.362C86.6485 155.05 88.1928 156.424 90.0021 157.356C91.8114 158.288 93.8271 158.748 95.862 158.694C102.285 158.694 107.48 154.327 107.48 148.955" stroke="#672938" stroke-linecap="round" stroke-linejoin="round"/>
<path d="M107.5 149.056C107.5 154.428 112.695 158.794 119.098 158.794C121.106 158.851 123.097 158.405 124.89 157.499C126.683 156.593 128.222 155.253 129.367 153.603" stroke="#672938" stroke-linecap="round" stroke-linejoin="round"/>
<path d="M99.3455 141.651C99.3455 137.949 104.379 140.343 107.56 140.343C110.742 140.343 115.715 137.949 115.715 141.651C115.715 145.353 110.702 148.311 107.52 148.311C104.339 148.311 99.3455 145.333 99.3455 141.651Z" fill="#672938"/>
<path d="M73.0092 192H136.248L137 206L72 205.657L73.0092 192Z" fill="#672938"/>
<path d="M85.0497 141.993L66.1431 136.058" stroke="white" stroke-width="0.5" stroke-linecap="round" stroke-linejoin="round"/>
<path d="M127.917 141.993L146.823 136.058" stroke="white" stroke-width="0.5" stroke-linecap="round" stroke-linejoin="round"/>
<path d="M129.004 145.293L147.991 148.452" stroke="white" stroke-width="0.5" stroke-linecap="round" stroke-linejoin="round"/>
<path d="M83.8011 144.71L64.814 147.848" stroke="white" stroke-width="0.5" stroke-linecap="round" stroke-linejoin="round"/>
<path d="M40.5 57L37.2092 24.1853L60.7872 42.9782L40.5 57Z" fill="#672938"/>
<path d="M152 41.7929L173.283 23L173.866 57.1653L152 41.7929Z" fill="#672938"/>
<g style="mix-blend-mode:multiply">
<path d="M74.5505 183.173L72 216.5L83.054 216.42L85.2622 185.728L74.5505 183.173Z" fill="#CDB1DA"/>
</g>
<path d="M75.0225 42H138.125C144.067 42 149.951 43.1702 155.441 45.4438C160.93 47.7175 165.917 51.0498 170.117 55.2505C174.317 59.4512 177.647 64.4378 179.917 69.9254C182.188 75.4129 183.353 81.2938 183.348 87.2318H29.7996C29.7943 81.2938 30.9601 75.4129 33.2304 69.9254C35.5007 64.4378 38.831 59.4512 43.0308 55.2505C47.2307 51.0498 52.2178 47.7175 57.7071 45.4438C63.1964 43.1702 69.0803 42 75.0225 42V42Z" fill="#672938"/>
<g style="mix-blend-mode:multiply">
<path d="M30.6255 83C30.1765 74.1039 34.9291 69.6469 39.5002 62C47.232 48.4989 58.8959 44.8914 68.5002 43C75.3422 41.8428 81.9407 40.9199 88.8755 41.1674C87.7131 43.5128 86.7435 45.9487 85.9761 48.4511C85.9761 48.4511 79.1101 46.439 59.9216 52.8979C40.7331 59.3567 38.3371 84.4072 38.3371 84.4072L30.6255 83Z" fill="#CDB1DA"/>
</g>
<path d="M88.9158 43.2599C88.1183 45.7055 87.5784 48.2275 87.3049 50.7851H125.561C125.281 48.2268 124.735 45.7047 123.93 43.2599H88.9158Z" fill="#E5B656" stroke="#672938" stroke-miterlimit="10"/>
<path d="M106.514 27.3644C104.138 27.44 101.808 28.0403 99.691 29.1222C97.5744 30.2041 95.7237 31.7408 94.2717 33.622H118.776C117.314 31.7465 115.458 30.2142 113.34 29.133C111.221 28.0518 108.891 27.4481 106.514 27.3644Z" fill="#E5B656" stroke="#672938" stroke-miterlimit="10"/>
<path d="M106.514 85.1315C110.023 83.0783 113.229 80.5454 116.037 77.6063H96.8489C99.6852 80.5731 102.941 83.1085 106.514 85.1315V85.1315Z" fill="#E5B656" stroke="#672938" stroke-miterlimit="10"/>
<path d="M89.9827 67.9684H122.823C123.98 65.6078 124.819 63.1044 125.319 60.5237H87.5464C88.0232 63.1026 88.8426 65.6063 89.9827 67.9684Z" fill="#E5B656" stroke="#672938" stroke-miterlimit="10"/>
<path d="M118.695 33.6221H94.1911C91.827 36.4646 90.0357 39.7374 88.9158 43.26H123.95C122.846 39.7351 121.06 36.4608 118.695 33.6221V33.6221Z" fill="#67B1D1" stroke="#672938" stroke-miterlimit="10"/>
<path d="M87.0632 55.0709C87.0568 56.8728 87.2186 58.6713 87.5464 60.4432H125.319C125.654 58.672 125.823 56.8734 125.823 55.0709C125.814 53.6392 125.734 52.2088 125.581 50.7852H87.3249C87.1658 52.2084 87.0784 53.6388 87.0632 55.0709V55.0709Z" fill="#67B1D1" stroke="#672938" stroke-miterlimit="10"/>
<path d="M96.7681 77.6063H115.957C118.739 74.7749 121.056 71.5222 122.823 67.9684H89.9827C91.705 71.5284 93.9969 74.7838 96.7681 77.6063V77.6063Z" fill="#67B1D1" stroke="#672938" stroke-miterlimit="10"/>
<path d="M101.56 74.9705L97.5332 32.7166H115.212L110.862 74.9705C110.743 76.1108 110.207 77.1668 109.355 77.9356C108.504 78.7044 107.399 79.1318 106.252 79.1355V79.1355C105.09 79.1518 103.965 78.7335 103.097 77.9627C102.229 77.192 101.681 76.1246 101.56 74.9705V74.9705Z" fill="#E5B656" stroke="#672938" stroke-miterlimit="10"/>
<path d="M106.413 49.3163C113.952 49.3163 120.064 44.4067 120.064 38.3504C120.064 32.2941 113.952 27.3845 106.413 27.3845C98.8734 27.3845 92.7615 32.2941 92.7615 38.3504C92.7615 44.4067 98.8734 49.3163 106.413 49.3163Z" fill="#E5B656" stroke="#672938" stroke-miterlimit="10"/>
<path d="M113.057 40.0808C113.88 40.0808 114.547 39.4142 114.547 38.5919C114.547 37.7695 113.88 37.1029 113.057 37.1029C112.234 37.1029 111.567 37.7695 111.567 38.5919C111.567 39.4142 112.234 40.0808 113.057 40.0808Z" fill="#672938" stroke="#672938" stroke-miterlimit="10"/>
<path d="M100.03 40.0808C100.853 40.0808 101.52 39.4142 101.52 38.5919C101.52 37.7695 100.853 37.1029 100.03 37.1029C99.2071 37.1029 98.54 37.7695 98.54 38.5919C98.54 39.4142 99.2071 40.0808 100.03 40.0808Z" fill="#672938" stroke="#672938" stroke-miterlimit="10"/>
<path d="M20.4369 72.898C18.889 72.9624 17.344 72.714 15.8944 72.1678C14.4448 71.6215 13.1204 70.7886 12.0004 69.7189C9.02045 66.7209 8.09425 62.1333 9.42315 56.7611C10.9737 51.2299 13.977 46.214 18.1214 42.2338C19.9322 40.4182 21.8847 38.7496 23.9605 37.2438L24.3028 41.7911C23.1476 42.8281 22.0455 43.9227 21.0007 45.0708C17.368 48.5334 14.7266 52.9026 13.3495 57.7269C12.383 61.751 12.9065 64.91 14.8797 66.8819C19.1281 71.1274 29.1151 68.3306 36.6858 60.8456C40.305 57.3757 42.9382 53.0085 44.3168 48.1895C45.3035 44.1654 44.7598 41.0064 42.8067 39.0547L42.9477 38.9138C43.3184 38.5395 43.7784 38.2658 44.2843 38.1185C44.7903 37.9713 45.3255 37.9553 45.8393 38.072C46.3532 38.1888 46.8287 38.4346 47.2211 38.786C47.6135 39.1375 47.9099 39.5831 48.0821 40.0808C49.0236 43.0256 49.0726 46.1828 48.223 49.1553C46.6724 54.6865 43.6692 59.7024 39.5248 63.6826C33.4642 69.6384 26.3566 72.898 20.4369 72.898Z" fill="#E5B656"/>
<path d="M89.7814 163.402C89.6298 163.395 89.4842 163.341 89.365 163.247C89.2457 163.153 89.159 163.025 89.117 162.879L87.3451 157.386C87.2945 157.245 87.2885 157.092 87.3282 156.948C87.3678 156.804 87.4511 156.676 87.5666 156.581C87.7052 156.456 87.8836 156.385 88.07 156.38C88.1764 156.359 88.2857 156.359 88.3921 156.38L92.0164 158.05C92.1127 158.088 92.199 158.148 92.2687 158.225C92.3385 158.301 92.3899 158.393 92.4191 158.492C92.459 158.588 92.4795 158.691 92.4795 158.794C92.4795 158.898 92.459 159 92.4191 159.096L90.5466 162.899C90.484 163.028 90.387 163.138 90.2663 163.216C90.1455 163.294 90.0057 163.337 89.862 163.342L89.7814 163.402Z" fill="white"/>
<path d="M88.07 157.104L91.6943 158.774L89.8419 162.577L88.07 157.104ZM88.07 155.555C87.6944 155.563 87.3327 155.698 87.0431 155.937C86.8235 156.14 86.6655 156.4 86.5871 156.688C86.5088 156.976 86.5133 157.281 86.6001 157.567L88.3922 163.14C88.4898 163.428 88.6697 163.68 88.9096 163.866C89.1494 164.052 89.4386 164.163 89.7412 164.187H89.862C90.1489 164.187 90.43 164.106 90.6725 163.953C90.915 163.8 91.1088 163.581 91.2312 163.321L93.1037 159.498C93.184 159.311 93.2254 159.109 93.2254 158.905C93.2254 158.701 93.184 158.499 93.1037 158.311C93.0357 158.12 92.9291 157.944 92.7906 157.795C92.6521 157.647 92.4846 157.528 92.2983 157.446L88.6741 155.756C88.47 155.669 88.2515 155.621 88.0298 155.615L88.07 155.555Z" fill="#672938"/>
<path d="M125.783 163.342C125.635 163.341 125.491 163.299 125.367 163.221C125.242 163.143 125.142 163.031 125.078 162.899L123.387 159.076C123.306 158.907 123.292 158.713 123.348 158.534C123.404 158.355 123.526 158.203 123.689 158.11L127.212 156.098C127.338 156.068 127.469 156.068 127.595 156.098C127.768 156.102 127.937 156.158 128.078 156.259C128.196 156.356 128.283 156.487 128.326 156.634C128.369 156.781 128.367 156.938 128.32 157.084L126.507 162.899C126.46 163.047 126.37 163.178 126.248 163.275C126.126 163.371 125.978 163.43 125.823 163.442L125.783 163.342Z" fill="white"/>
<path d="M127.595 156.762L125.783 162.577L124.071 158.774L127.595 156.762ZM127.595 155.233C127.334 155.238 127.078 155.307 126.85 155.434L123.326 157.446C122.977 157.63 122.713 157.944 122.593 158.321C122.472 158.697 122.504 159.105 122.682 159.458L124.393 163.281C124.514 163.547 124.71 163.773 124.956 163.93C125.203 164.087 125.49 164.169 125.783 164.166V164.166C126.088 164.144 126.38 164.034 126.624 163.848C126.867 163.662 127.05 163.409 127.152 163.12L128.964 157.285C129.04 157.055 129.061 156.811 129.025 156.572C128.988 156.332 128.895 156.105 128.754 155.909C128.612 155.712 128.426 155.552 128.211 155.442C127.995 155.331 127.756 155.273 127.514 155.273L127.595 155.233Z" fill="#672938"/>
<path d="M50.418 94.6085C50.418 94.6085 51.1025 99.7595 57.7873 100.262C64.4721 100.766 72.7677 97.9486 76.7141 105.655" stroke="#672938" stroke-miterlimit="10" stroke-linecap="round"/>
<path d="M160.354 94.6085C160.354 94.6085 159.67 99.7595 152.985 100.262C146.3 100.766 137.985 97.9486 134.038 105.655" stroke="#672938" stroke-miterlimit="10" stroke-linecap="round"/>
<path d="M174.592 87C175.085 101.859 173.927 116.728 171.141 131.312C166.526 155.26 137.574 175.081 127 180C142.868 176.852 156.979 167.525 166.446 153.926C181.815 131.312 181.173 99.7349 180.912 87.4169L174.592 87Z" fill="#FFF9F3"/>
<path d="M179.5 66L181 4.50003C181 4.50003 181.235 4.50002 182 4.50002C182.717 4.45657 184.061 5.18745 184.62 5.63783C185.179 6.08822 185.549 6.73093 185.658 7.43994C186.041 9.63312 181.937 71.1309 181.937 71.1309L179.5 66Z" fill="#FFF9F3"/>
<path d="M28.5 5L33 63.5L30.0806 66.2581L26.5 7.5L28.5 5Z" fill="#E5B589"/>
<path d="M30.5002 87C30.5002 87 28.5232 110.687 33.9596 129.541C39.396 148.394 45.0539 156.885 52.6044 163.907C60.155 170.929 68.0278 175.819 81.7396 179.4C81.7396 179.4 62.9336 174.39 49.2218 147.348C35.51 120.305 43.5678 87.0403 43.5678 87.0403L30.5002 87Z" fill="#E5B589"/>
<path d="M84.949 124.086H52.8943C51.3375 124.086 50.0754 125.347 50.0754 126.903V126.923C50.0754 128.478 51.3375 129.74 52.8943 129.74H84.949C86.5059 129.74 87.7679 128.478 87.7679 126.923V126.903C87.7679 125.347 86.5059 124.086 84.949 124.086Z" fill="#FFF9F3"/>
<path d="M157.092 124.086H125.038C123.481 124.086 122.219 125.347 122.219 126.903V126.923C122.219 128.478 123.481 129.74 125.038 129.74H157.092C158.649 129.74 159.911 128.478 159.911 126.923V126.903C159.911 125.347 158.649 124.086 157.092 124.086Z" fill="#FFF9F3"/>
<path d="M110.702 29.0144C110.702 29.0144 117.286 33.0386 117.89 37.7268C118.534 42.8173 111.265 47.5458 111.265 47.5458C111.265 47.5458 119.581 45.3123 118.997 37.6664C118.474 31.0064 110.702 29.0144 110.702 29.0144Z" fill="#FFF9F3"/>
<g style="mix-blend-mode:multiply">
<path d="M100.473 29.5576C100.473 29.5576 95.4595 32.9782 95.6608 37.8877C95.91 41.0221 97.1113 44.0057 99.1039 46.4391C97.5391 45.6612 96.2146 44.4739 95.2714 43.0035C94.3283 41.5331 93.8018 39.8346 93.748 38.0889C93.8085 32.3544 100.473 29.5576 100.473 29.5576Z" fill="#CDB1DA"/>
</g>
<path d="M112.393 49.2761L109.695 75.3126C109.555 75.8668 109.29 76.3817 108.92 76.8177C108.55 77.2537 108.085 77.5992 107.561 77.8277L111.165 49.6584L112.393 49.2761Z" fill="#FFF9F3"/>
<path opacity="0.48" d="M124 43C124 43 153 44 165 53.5C174.625 61.1202 179.997 71.0262 179.997 83.0662V86.5062H174.458C175.075 80.7155 172.096 70.8716 168 65C156.5 48.5131 125 45.5 125 45.5L124 43Z" fill="white"/>
<path d="M36 8L75.122 38.8655H71.0951L36 8Z" fill="white"/>
<g style="mix-blend-mode:multiply">
<path d="M92.097 40.604C92.097 40.604 87.6674 54.6886 93.3857 67.0428C99.104 79.3971 106.816 83.6828 106.816 83.6828L106.594 84.3267C106.594 84.3267 90.4862 77.3045 87.0633 65.2319C85.0498 57.9482 85.0498 45.9964 88.8754 41.0869C92.701 36.1774 92.097 40.604 92.097 40.604Z" fill="#CDB1DA"/>
</g>
</g>
<defs>
<clipPath id="clip0_18_2248">
<rect width="212" height="223" fill="white"/>
</clipPath>
</defs>
</svg>
