<svg width="154" height="257" viewBox="0 0 154 257" fill="none" xmlns="http://www.w3.org/2000/svg">
<g clip-path="url(#clip0_21_299)">
<path d="M151.507 31.3497L146.357 35.1107L147.043 36.0469L152.193 32.2858L151.507 31.3497Z" fill="#CACAD5"/>
<path d="M67.0122 156.582L53.4986 243.327C52.1243 257.425 102.972 257.114 101.304 242.853L86.1538 152.776L67.0122 156.582Z" fill="#E3A473" stroke="#672938" stroke-width="4" stroke-linecap="round" stroke-linejoin="round"/>
<path d="M92.5 202.5L99.4849 244.488C99.4849 244.488 97.5053 248.229 90.9285 249.274L88 206L92.5 202.5Z" fill="#F7C79A"/>
<path d="M61.266 207.144L55 244.488C55 244.488 56.9796 248.229 63.5564 249.274L66.485 206L61.266 207.144Z" fill="#CE8655"/>
<path d="M45.8907 94.7659C44.8219 95.5986 43.9317 96.6375 43.2731 97.8207C43.1749 98.0494 42.9786 98.4252 43.0931 98.6049C44.7292 96.6935 45.1545 93.704 45.7926 90.9595C48.2466 77.2535 45.3836 63.1881 38.6594 50.3806C31.7063 38.1448 22.1028 26.4155 21.4974 11.6313C21.2456 7.72509 22.4067 3.85846 24.7695 0.735117C25.0196 0.391662 25.3854 0.149782 25.7997 0.0539133C26.214 -0.0419551 26.649 0.0145991 27.0249 0.213197C27.4008 0.411794 27.6924 0.739096 27.8461 1.13505C27.9998 1.53099 28.0053 1.96905 27.8616 2.36873C24.7204 10.9289 32.5898 21.9721 40.1482 29.2906C58.5046 45.055 72.1982 66.9781 73.458 92.0214C73.8179 99.242 73.458 107.524 69.7769 114.271C68.6969 116.345 67.1673 118.152 65.2995 119.56C63.4317 120.969 61.2728 121.944 58.9799 122.414C56.6871 122.885 54.318 122.838 52.0454 122.279C49.7728 121.719 47.6538 120.66 45.8427 119.18C44.0317 117.699 42.5742 115.833 41.5764 113.719C40.5787 111.605 40.0657 109.295 40.075 106.958C40.0844 104.621 40.6156 102.315 41.6302 100.209C42.6448 98.1023 44.117 96.2485 45.9398 94.7822L45.8907 94.7659Z" fill="#672938"/>
<path d="M50.1283 78.1684C51.6872 77.2 52.8589 75.7188 53.4413 73.9802C54.0237 72.2415 53.9803 70.3545 53.3185 68.6444C50.1283 60.4764 43.5023 45.7738 33.9151 34.992C19.8125 19.3583 25.0642 0.408386 25.0642 0.408386C25.0642 0.408386 17.8002 6.22404 24.0989 23.426C30.3977 40.6279 39.3795 48.4203 43.4532 61.2441C47.5269 74.068 46.7253 80.2431 46.7253 80.2431L50.1283 78.1684Z" fill="#491A27"/>
<path d="M108.976 94.7659C110.033 95.6019 110.912 96.6406 111.561 97.8208C111.659 98.0495 111.872 98.4252 111.758 98.6049C110.122 96.6936 109.68 93.7041 109.058 90.9596C106.588 77.2536 109.451 63.1882 116.191 50.3807C123.128 38.1449 132.748 26.4155 133.337 11.6314C133.631 7.73321 132.498 3.86098 130.147 0.735181C129.906 0.374553 129.539 0.116212 129.118 0.010305C128.697 -0.0956019 128.252 -0.0415286 127.868 0.16206C127.485 0.365649 127.191 0.704188 127.044 1.11198C126.896 1.51977 126.906 1.96771 127.071 2.36879C130.212 10.9289 122.326 21.9721 114.784 29.2907C96.4279 45.0551 82.7343 66.9782 81.4582 92.0215C81.1147 99.2421 81.4582 107.524 85.1557 114.271C86.2335 116.349 87.7624 118.16 89.6306 119.572C91.4989 120.985 93.6594 121.963 95.9545 122.435C98.2496 122.907 100.621 122.862 102.896 122.302C105.172 121.742 107.293 120.682 109.106 119.199C110.918 117.716 112.376 115.847 113.373 113.73C114.37 111.613 114.881 109.3 114.869 106.96C114.857 104.62 114.321 102.312 113.302 100.206C112.282 98.0989 110.805 96.246 108.976 94.7823V94.7659Z" fill="#672938"/>
<path d="M46.0217 97.1183C46.0217 97.1183 28.4343 50.8381 9.669 18.0515C9.669 18.0515 -15.8859 82.7425 35.2239 106.103L46.0217 97.1183Z" fill="#E3A473" stroke="#672938" stroke-width="4" stroke-linecap="round" stroke-linejoin="round"/>
<path d="M108.256 82.1218C108.256 82.1218 109.892 81.7787 100.354 77.2209C89.9165 72.1894 112.543 45.9372 121.099 35.6618C125.647 30.2055 133.108 17.2673 132.175 7.40027C131.668 2.14004 129.77 0.620789 129.77 0.620789C129.77 0.620789 133.615 3.62663 133.32 12.9219C133.026 22.2172 125.386 37.5241 118.187 47.1298C110.989 56.7354 107.422 75.9794 108.256 82.1218Z" fill="#895264"/>
<path d="M107.978 97.1183C107.978 97.1183 125.566 50.8381 144.331 18.0515C144.331 18.0515 169.902 82.7425 118.776 106.103L107.978 97.1183Z" fill="#E3A473" stroke="#672938" stroke-width="4" stroke-linecap="round" stroke-linejoin="round"/>
<path d="M30.6594 123.959C30.6594 96.5629 48.4268 72.6794 75.8631 72.6794C103.299 72.6794 121.558 96.5629 121.558 123.959C121.558 145.522 113.263 161.532 100.698 183.291C92.5179 197.373 91.5854 212.86 76.1576 212.86C58.5047 212.86 59.6499 199.709 51.0771 183.291C40.0012 162.022 30.6594 146.96 30.6594 123.959Z" fill="#E3A473" stroke="#672938" stroke-width="4" stroke-linecap="round" stroke-linejoin="round"/>
<path d="M100.067 82.3625C100.067 82.3625 116.984 105.723 114.056 129.917C111.127 154.111 91.5001 182 91.5001 182L89.1714 200.603C89.1714 200.603 97.092 184.302 102 177C108.332 166.611 114.015 154.358 117.391 142.672C120.107 132.348 123.005 119.903 113.09 97.163C113.123 97.163 107.168 86.6426 100.067 82.3625Z" fill="#F7C79A"/>
<path d="M52.5671 85C52.5671 85 35.6505 108.361 38.579 132.554C41.5075 156.748 60.191 183.638 60.191 183.638L63.1522 206.345C63.1522 206.345 55.4956 185.108 50.5875 177.806C44.2555 167.416 39.3369 156.231 35.9613 144.545C33.2455 134.221 29.5971 122.54 39.5115 99.8005C39.4788 99.8005 44.7632 89.3454 52.5671 85Z" fill="#CE8655"/>
<path d="M117.304 120.136C115.668 111.184 107.929 94.2268 98.3257 92.9526C97.4067 92.816 96.4709 93.0463 95.7207 93.5936C94.9706 94.1409 94.4664 94.9611 94.3174 95.8768L83.0778 158.558C82.6197 161.826 84.7139 166.22 84.6157 169.553C84.6157 172.379 81.7036 174.372 82.1944 176.692C80.1494 184.958 71.3965 184.713 70.1532 176.3C70.6276 174.437 67.5846 172.542 67.65 170.435C67.7482 167.168 69.5478 161.809 69.0897 158.558C67.0447 143.938 60.4188 111.984 58.161 96.2525C57.9842 95.2305 57.4154 94.3175 56.5753 93.7075C55.7353 93.0974 54.6902 92.8384 53.6619 92.9853C44.0911 94.2595 36.3363 111.2 34.6839 120.152C33.0315 129.104 35.6001 144.771 45.3181 149.933C55.0362 155.095 62.0057 146.927 61.6785 160.584C61.4004 172.019 60.6641 177.999 60.7459 184.272C60.7459 188.486 60.1897 192.783 61.0404 196.948C61.6242 200.16 63.002 203.176 65.0487 205.721C66.9067 207.754 69.4304 209.057 72.1655 209.397C78.3497 210.311 84.7303 208.792 88.0841 203.336C90.9308 198.729 91.438 189.924 91.2253 184.566C90.8981 175.875 91.0126 169.863 91.0126 161.221C90.9308 148.675 96.9023 155.095 106.62 149.949C116.338 144.803 118.94 129.104 117.304 120.136Z" fill="white" stroke="#672938" stroke-width="0.95" stroke-miterlimit="10"/>
<path d="M103.692 140.164C107.297 140.164 110.22 135.644 110.22 130.068C110.22 124.493 107.297 119.973 103.692 119.973C100.087 119.973 97.1641 124.493 97.1641 130.068C97.1641 135.644 100.087 140.164 103.692 140.164Z" fill="#672938"/>
<path d="M49.2283 141.144C53.0865 141.144 56.2142 136.375 56.2142 130.493C56.2142 124.611 53.0865 119.842 49.2283 119.842C45.3701 119.842 42.2424 124.611 42.2424 130.493C42.2424 136.375 45.3701 141.144 49.2283 141.144Z" fill="#672938"/>
<path d="M46.1362 73.2185C46.1362 73.6433 46.2508 74.068 46.2998 74.5091C47.7559 71.7483 54.6927 62.2897 67.0447 65.0505L66.4721 63.8253C54.889 61.2278 48.3612 69.5919 46.1362 73.2185Z" fill="#F0CBFF"/>
<path d="M58.3573 49.2534C48.1321 48.4856 43.633 56.8824 42.5859 59.0551C42.6677 59.3001 42.7659 59.5289 42.8477 59.7576L43.0604 60.313C43.2404 59.8393 47.5104 49.0901 59.0772 50.4133C58.8809 50.1356 58.5537 49.6291 58.3573 49.2534Z" fill="#F0CBFF"/>
<path d="M49.3428 38.1938C49.0483 37.8998 48.6066 37.5077 48.3285 37.2137C45.6495 37.0136 42.9737 37.6415 40.6644 39.0121C38.3551 40.3828 36.5242 42.4298 35.4202 44.8753C35.5838 45.1367 35.8619 45.7085 36.0255 45.9699C37.0345 43.3588 38.9017 41.1673 41.3212 39.7546C43.7407 38.3418 46.5691 37.7915 49.3428 38.1938V38.1938Z" fill="#F0CBFF"/>
<path d="M39.6902 28.8496L38.8558 27.9838C36.763 27.8669 34.6845 28.3909 32.8981 29.4857C31.1118 30.5804 29.7027 32.1938 28.8596 34.1099L29.3341 34.9593C30.1029 32.9138 31.5493 31.1924 33.4331 30.081C35.3169 28.9696 37.5249 28.5351 39.6902 28.8496V28.8496Z" fill="#F0CBFF"/>
<path d="M31.8209 19.342C30.2701 19.5145 28.7815 20.0478 27.4745 20.8989C26.1675 21.75 25.0786 22.8953 24.2952 24.2428L24.6387 25.174C25.3611 23.7292 26.4524 22.5002 27.8025 21.6111C29.1525 20.7219 30.7136 20.2041 32.3281 20.1098L31.8209 19.342Z" fill="#F0CBFF"/>
<path d="M27.5509 10.6022C25.6665 10.6648 23.8599 11.3679 22.4301 12.5952C22.1476 12.8468 21.885 13.1199 21.6448 13.412C21.6448 13.8204 21.6448 14.2288 21.7593 14.6209C22.1012 14.0931 22.5079 13.6102 22.97 13.1833C24.3197 12.0516 26.0177 11.4172 27.7799 11.3863C27.6981 11.1249 27.6163 10.8636 27.5509 10.6022Z" fill="#F0CBFF"/>
<path d="M27.5018 3.2999C27.5018 3.03852 27.6654 2.79348 27.7472 2.5321C26.4994 2.05666 25.1272 2.01635 23.8535 2.41774L23.4444 2.59741C23.2318 3.02215 23.0518 3.43055 22.8718 3.87163C23.2459 3.57646 23.6659 3.3447 24.1152 3.18554C25.2237 2.8335 26.4197 2.8739 27.5018 3.2999V3.2999Z" fill="#F0CBFF"/>
<path d="M108.862 73.2186C108.862 73.6433 108.731 74.0681 108.698 74.5091C106.639 70.9416 103.491 68.1249 99.7148 66.4703C95.9385 64.8157 91.7314 64.4098 87.7078 65.3119L88.3949 63.9887C99.978 61.3912 106.637 69.5919 108.862 73.2186Z" fill="#F0CBFF"/>
<path d="M96.6405 49.2534C106.866 48.4856 111.365 56.8824 112.412 59.0551C112.314 59.3001 112.232 59.5289 112.15 59.7576L111.708 60.215C111.528 59.7412 107.291 49.3351 95.7244 50.6584L96.6405 49.2534Z" fill="#F0CBFF"/>
<path d="M105.442 38.4389C105.721 38.1449 106.375 37.3444 106.653 37.0503C109.356 36.8589 112.052 37.5024 114.376 38.8935C116.7 40.2846 118.539 42.3559 119.643 44.8263L118.94 45.9045C117.853 43.3297 115.932 41.1939 113.485 39.84C111.037 38.4862 108.205 37.9927 105.442 38.4389V38.4389Z" fill="#F0CBFF"/>
<path d="M114.833 29.16C115.128 28.8659 115.864 28.2778 116.142 27.9838C118.258 27.8904 120.353 28.4359 122.153 29.5491C123.954 30.6623 125.377 32.2915 126.236 34.2242C126.089 34.5182 125.697 35.2043 125.549 35.482C124.716 33.3926 123.211 31.6384 121.272 30.4944C119.333 29.3503 117.068 28.881 114.833 29.16Z" fill="#F0CBFF"/>
<path d="M123.259 19.2113C124.813 19.4065 126.299 19.9636 127.598 20.8375C128.896 21.7115 129.971 22.8779 130.736 24.2428L130.392 25.174C129.59 23.7661 128.439 22.5879 127.05 21.7525C125.66 20.9171 124.079 20.4527 122.457 20.4038C122.637 20.2241 123.095 19.4727 123.259 19.2113Z" fill="#F0CBFF"/>
<path d="M127.3 10.2755C129.262 10.4553 131.112 11.2697 132.568 12.5952C132.833 12.8321 133.074 13.0948 133.288 13.3793C133.288 13.7877 133.19 14.5229 133.141 14.9313C132.803 14.3953 132.396 13.9063 131.93 13.4773C130.493 12.3433 128.722 11.7119 126.891 11.6803C126.973 11.419 127.234 10.5532 127.3 10.2755Z" fill="#F0CBFF"/>
<path d="M127.414 3.38157C127.333 3.13653 127.251 2.87517 127.153 2.63013C127.847 2.37714 128.574 2.22846 129.312 2.18902C129.655 2.1564 130 2.1564 130.343 2.18902C130.663 2.21056 130.976 2.29965 131.259 2.4504C131.438 2.62649 131.588 2.83066 131.701 3.05483C131.783 3.18552 132.028 3.90434 132.093 3.95335C131.737 3.62214 131.327 3.35168 130.883 3.15284C129.733 2.8402 128.512 2.92074 127.414 3.38157V3.38157Z" fill="#F0CBFF"/>
<path d="M54.6109 123.812C53.6113 123.322 52.6585 122.742 51.7642 122.08L51.8787 122.178C48.2631 120.267 44.582 121.524 40.77 120.43C45.9235 118.29 52.1241 117.816 54.6109 123.812V123.812Z" fill="#672938"/>
<path d="M98.8984 123.844C101.369 117.833 107.569 118.323 112.739 120.446C108.927 121.541 105.246 120.283 101.614 122.194L101.729 122.096C100.841 122.764 99.8932 123.349 98.8984 123.844V123.844Z" fill="#672938"/>
<path d="M41.0483 112.687L41.1465 112.605C42.2979 111.703 43.6171 111.038 45.0276 110.649C46.4382 110.26 47.912 110.155 49.3638 110.339C50.8155 110.522 52.2163 110.992 53.4849 111.721C54.7535 112.449 55.8648 113.421 56.7542 114.582L58.1776 116.95" stroke="#672938" stroke-linecap="round" stroke-linejoin="round"/>
<path d="M111.496 112.687L111.398 112.605C110.246 111.703 108.927 111.038 107.517 110.649C106.106 110.26 104.632 110.155 103.181 110.339C101.729 110.522 100.328 110.992 99.0594 111.721C97.7907 112.449 96.6795 113.421 95.79 114.582L94.3667 117.228" stroke="#672938" stroke-linecap="round" stroke-linejoin="round"/>
<path d="M84.3176 175.726C85.1977 173.464 85.1601 171.339 84.2337 170.979C83.3072 170.62 81.8427 172.163 80.9625 174.425C80.0824 176.687 80.12 178.812 81.0464 179.172C81.9729 179.531 83.4374 177.988 84.3176 175.726Z" fill="#672938"/>
<path d="M70.7764 179.158C71.6228 178.843 71.6192 176.744 70.7684 174.47C69.9176 172.197 68.5418 170.61 67.6954 170.926C66.849 171.241 66.8526 173.34 67.7034 175.614C68.5542 177.887 69.93 179.474 70.7764 179.158Z" fill="#672938"/>
<path d="M76.1084 100.059C73.3697 100.058 70.7095 99.1454 68.5492 97.4646C66.3888 95.7839 64.8518 93.4314 64.1817 90.7799C63.7107 92.5979 63.6628 94.4995 64.0416 96.3388C64.4205 98.1782 65.2161 99.9065 66.3674 101.391C67.5187 102.876 68.9951 104.078 70.6836 104.905C72.3721 105.732 74.2278 106.162 76.1084 106.162C77.9891 106.162 79.8447 105.732 81.5332 104.905C83.2217 104.078 84.6982 102.876 85.8495 101.391C87.0008 99.9065 87.7963 98.1782 88.1752 96.3388C88.554 94.4995 88.5061 92.5979 88.0351 90.7799C87.365 93.4314 85.8281 95.7839 83.6677 97.4646C81.5073 99.1454 78.8471 100.058 76.1084 100.059V100.059Z" fill="#FBE854" stroke="#672938" stroke-width="0.95" stroke-linecap="round" stroke-linejoin="round"/>
<path d="M9.06383 31.9698C9.06383 31.9698 3.10865 63.0085 11.6651 79.3446C20.2216 95.6808 32.0338 100.729 32.0338 100.729L35.3058 94.8803C35.3058 94.8803 32.9009 87.0553 20.8924 68.2851C13.8019 57.4379 9.72018 44.9066 9.06383 31.9698V31.9698Z" fill="#CE8655"/>
<path d="M10.2744 23.2463C10.2744 23.2463 10.4053 44.3853 15.428 56.0656C20.4506 67.7459 37.7108 91.9234 35.4694 98.1802" stroke="#672938" stroke-width="2" stroke-linecap="round" stroke-linejoin="round"/>
<path d="M145.051 31.9698C145.051 31.9698 151.006 63.0085 142.433 79.3446C137.631 88.8209 130.045 96.6066 120.69 101.66L118.727 94.8803C118.727 94.8803 121.132 87.0553 133.141 68.2851C140.254 57.4434 144.364 44.9131 145.051 31.9698V31.9698Z" fill="#CE8655"/>
<path d="M143.824 23.2463C143.824 23.2463 143.693 44.3853 138.687 56.0656C133.68 67.7459 116.011 93.7531 118.236 100.01" stroke="#672938" stroke-width="2" stroke-linecap="round" stroke-linejoin="round"/>
<path d="M76.3702 182.85C76.3702 182.85 74.2433 191.018 82.4562 192.799C83.3931 193.079 84.3785 193.159 85.3482 193.032C86.318 192.906 87.2501 192.577 88.0839 192.067C88.9176 191.557 89.6342 190.877 90.1868 190.071C90.7394 189.265 91.1156 188.352 91.2908 187.392" stroke="#672938" stroke-linecap="round" stroke-linejoin="round"/>
<path d="M75.8467 182.85C75.8467 182.85 77.9736 191.018 69.777 192.799C63.9528 194.041 61.4005 189.711 60.697 186.869" stroke="#672938" stroke-linecap="round" stroke-linejoin="round"/>
<path d="M89.7856 190.986C75.5685 205.378 61.2696 190.675 61.2696 190.675C61.2696 190.675 60.5334 207.747 73.5562 208.857C86.579 209.968 89.573 199.889 89.9165 195.919C90.131 194.278 90.0868 192.613 89.7856 190.986V190.986Z" fill="#E5E3E8" stroke="#672938" stroke-linecap="round" stroke-linejoin="round"/>
<path d="M116.895 67.746L125.877 81.3376C135.006 95.1417 138.327 109.468 135.791 124.922C135.037 129.184 133.876 133.363 132.322 137.403L127.202 148.381L122.539 122.554C121.565 112.813 118.525 103.391 113.623 94.913L105.164 80.2104L116.895 67.746Z" fill="#D77EDA" stroke="#672938" stroke-width="2" stroke-linecap="round" stroke-linejoin="round"/>
<path d="M118.187 78.054C122.956 84.6708 126.492 92.0917 128.625 99.9608C132.388 113.405 132.666 131.833 132.666 131.833C135.452 122.416 136.282 111.55 134 102C128.634 82.0373 118.384 73.1532 118.384 73.1532L118.187 78.054Z" fill="#F0CBFF"/>
<path d="M64.2145 71.781C65.4681 67.2772 67.1443 62.9016 69.2207 58.7121C73.0163 51.2138 85.1721 37.4751 101.663 43.2254C110.645 46.3456 113.819 57.1765 115.864 65.4426C118.302 75.2442 119.987 88.3948 115.946 97.9514C113.859 102.293 111.231 106.355 108.126 110.04C105.396 113.868 103.471 118.208 102.465 122.799C100.175 131.392 99.3565 150.668 99.3892 151.322C99.3892 151.322 89.573 130.526 86.8572 121.704C83.307 110.269 88.935 84.5885 78.6771 74.1497C75.9449 71.3726 65.7687 72.9572 63.4783 74.3784C63.4783 74.4438 63.7891 73.3166 64.2145 71.781Z" fill="#D77EDA" stroke="#672938" stroke-width="2" stroke-linecap="round" stroke-linejoin="round"/>
<g style="mix-blend-mode:multiply" opacity="0.81">
<path d="M65.8667 71.9117C65.8667 71.9117 82.8815 53.7622 88.9348 62.9431C94.9881 72.1241 88.5258 90.0448 90.1945 109.24C91.4223 121.571 94.232 133.694 98.5547 145.31C98.5547 145.31 87.007 128.781 86.4999 113C86.14 97.9871 88.9348 64.5 65.8667 71.9117Z" fill="#CDB1DA"/>
</g>
<path d="M103.14 45C104.286 45.6208 105.382 47.8261 106.069 48.8717C110.437 55.4061 112.024 63.4271 112.613 71.1868C113.169 79.3549 113.48 87.8987 111.501 95.838C110.11 101.458 106.821 106.211 104.253 111.341C102.257 115.311 100.441 119.346 101.161 123.724C105.333 113.024 108.703 109.446 113.137 101.343C115.592 97.2057 116.98 92.5244 117.178 87.719C117.585 82.3892 117.249 77.0288 116.18 71.7913C114.658 64.3747 114.053 56.0596 109.128 49.9172C107.479 47.897 105.444 46.2253 103.14 45V45Z" fill="#F0CBFF"/>
<path d="M64.9179 72.124L61.4004 67.5989C59.4256 65.0595 56.8421 63.0575 53.8882 61.7777C50.9344 60.4979 47.7053 59.9816 44.499 60.2762C41.2926 60.5708 38.2121 61.6669 35.5418 63.4634C32.8715 65.26 30.6972 67.6991 29.2196 70.5558L26.9128 75.0972C17.116 94.0212 14.5236 115.85 19.6161 136.537L36.0746 191.901C37.1871 196.36 41.1627 196.262 40.9827 191.672L37.7924 118.339C37.4069 109.606 39.8447 100.98 44.7456 93.7367L57.6212 74.8685L64.9179 72.124Z" fill="#D77EDA" stroke="#672938" stroke-width="2" stroke-linecap="round" stroke-linejoin="round"/>
<g style="mix-blend-mode:multiply" opacity="0.81">
<path d="M62.0712 71.4869C62.0712 71.4869 56.3614 69.2325 53.5802 71.3562C50.7989 73.4799 30.6757 92.3481 30.463 108.75C30.2667 120.332 35.1421 167.298 38.0215 193.877C38.0345 194.046 38.1142 194.203 38.2431 194.313C38.3719 194.424 38.5394 194.478 38.7086 194.465C38.8778 194.452 39.035 194.373 39.1454 194.244C39.2559 194.115 39.3106 193.948 39.2976 193.779L36.0255 115.284C36.0255 115.284 36.1728 103.751 45.3673 89.9794C54.5618 76.2081 57.1958 73.1532 57.1958 73.1532L62.0712 71.4869Z" fill="#CDB1DA"/>
</g>
</g>
<defs>
<clipPath id="clip0_21_299">
<rect width="154" height="257" fill="white"/>
</clipPath>
</defs>
</svg>
