<svg width="128" height="248" viewBox="0 0 128 248" fill="none" xmlns="http://www.w3.org/2000/svg">
<g clip-path="url(#clip0_21_353)">
<path d="M98.0663 52.5406L93.2632 56.0531L93.9027 56.9274L98.7058 53.4149L98.0663 52.5406Z" fill="#CACAD5"/>
<path d="M57.4619 113.938C57.4619 113.938 73.8643 70.7307 91.3654 40.095C91.3654 40.095 115.198 100.512 67.5323 122.329L57.4619 113.938Z" fill="#E3A473" stroke="#672938" stroke-width="4" stroke-linecap="round" stroke-linejoin="round"/>
<path d="M92.0063 53.0938C92.0063 53.0938 97.545 82.0818 89.565 97.3386C85.0866 106.189 78.0117 113.46 69.287 118.179L67.4561 111.848C67.4561 111.848 69.699 104.54 80.8984 87.0097C87.5342 76.885 91.367 65.1821 92.0063 53.0938V53.0938Z" fill="#CE8655"/>
<path d="M90.8923 44.9467C90.8923 44.9467 90.7702 64.689 86.086 75.5976C81.4018 86.5063 64.9383 110.795 67.0287 116.639" stroke="#672938" stroke-width="2" stroke-linecap="round" stroke-linejoin="round"/>
<path d="M32.637 154.216L20.0338 235.23C18.7521 248.397 66.1743 248.107 64.6027 234.787L50.489 150.661L32.637 154.216Z" fill="#E3A473" stroke="#672938" stroke-width="4" stroke-linecap="round" stroke-linejoin="round"/>
<path d="M51.4349 175.057L61.6578 236.084C61.6578 236.084 60.9712 238.022 57.172 239.334L48.4138 175.499L51.4349 175.057Z" fill="#F7C79A"/>
<path d="M34.285 163.859L22.8872 236.023C20.1255 236.603 30.7298 243.362 48.124 241.623L39.0607 168.619L34.285 163.859Z" fill="#CE8655"/>
<path d="M78.274 96.4843C77.2882 97.265 76.4685 98.2351 75.8632 99.3373C75.7717 99.5509 75.5886 99.9018 75.6801 100.07C77.2059 98.2846 77.6179 95.4926 78.213 92.9294C80.5017 80.1289 77.8315 66.9928 71.5605 55.0314C65.0758 43.6041 56.1192 32.6496 55.5547 18.8422C55.298 15.2035 56.3535 11.5933 58.53 8.66591C58.7548 8.32911 59.0967 8.08783 59.4893 7.98892C59.882 7.89001 60.2974 7.94051 60.6548 8.13065C61.0123 8.32079 61.2864 8.63696 61.4238 9.01781C61.5613 9.39866 61.5523 9.81701 61.3986 10.1916C58.4843 18.1862 65.8234 28.4998 72.8726 35.3348C89.9922 50.0577 102.763 70.5324 103.938 93.9212C104.259 100.665 103.938 108.4 100.505 114.701C99.4948 116.634 98.0665 118.317 96.324 119.629C94.5816 120.94 92.5687 121.847 90.4318 122.283C88.2948 122.719 86.0875 122.674 83.9704 122.15C81.8532 121.626 79.8794 120.637 78.1925 119.255C76.5056 117.873 75.1479 116.132 74.2183 114.159C73.2886 112.186 72.8102 110.031 72.8181 107.85C72.8259 105.669 73.3196 103.518 74.2634 101.552C75.2072 99.5855 76.5772 97.8545 78.274 96.4843V96.4843Z" fill="#672938"/>
<path d="M78.9453 84.6755C78.9453 84.6755 77.4195 84.3551 86.315 80.0984C96.0496 75.3993 74.9477 50.8816 66.9677 41.285C62.726 36.1892 55.7683 24.1058 56.638 14.8907C57.111 9.97796 58.881 8.55908 58.881 8.55908C58.881 8.55908 55.2953 11.3663 55.5699 20.0475C55.8446 28.7286 62.9701 43.0243 69.6989 51.9953C76.4277 60.9663 79.7998 78.9389 78.9453 84.6755Z" fill="#491A27"/>
<path d="M33.1557 157.328C18.035 136.686 18.2181 108.903 38.8623 93.7837C59.5065 78.6642 90.4345 83.0124 97.5295 107.591C102.931 126.342 106.944 145.26 118.601 163.431C126.795 176.201 128.061 190.726 116.419 199.254C103.129 208.988 98.2314 195.364 82.7292 187.72C62.6344 177.818 45.8504 174.645 33.1557 157.328Z" fill="#E3A473" stroke="#672938" stroke-width="4" stroke-linecap="round" stroke-linejoin="round"/>
<path d="M62.4666 89.222C70.2023 91.4749 77.2063 95.7296 82.7709 101.556C88.3354 107.383 92.2633 114.575 94.1576 122.406C96.9194 132.379 100.805 142.007 105.738 151.104C110.926 160.502 115.824 175.286 120.676 184.852L119.761 190.436C119.761 190.436 128.198 182.518 112.62 159.403C106.807 150.814 104.213 138.242 100.52 129.088C96.8277 119.934 98.8418 106.34 78.8232 94.6687C78.8232 94.6076 70.1719 88.5354 62.4666 89.222Z" fill="#F7C79A"/>
<path d="M29.1278 110.093C29.1278 110.093 39.8084 101.839 40.3272 104.357C42.3107 112.946 37.7028 143.17 49.7414 156.032C57.9502 164.804 70.3703 172.128 80.2575 177.086C91.0755 182.518 108.973 185.676 116.877 194.86C116.019 195.76 115.101 196.601 114.13 197.378C112.178 198.755 109.852 199.506 107.463 199.529V199.529C104.905 199.107 102.52 197.97 100.581 196.249C98.6588 194.723 95.5309 192.267 90.45 188.529C86.888 185.919 82.9529 183.862 78.7775 182.426C69.1191 179.085 53.8001 172.25 47.6358 167.169C39.8847 160.883 31.1876 155.604 26.1066 133.009C26.1066 133.009 24.0621 119.644 29.1278 110.093Z" fill="#CE8655"/>
<path d="M95.9429 175.637C95.9429 175.637 95.4547 188.681 97.011 192.77C97.957 195.288 101.833 197.561 104.64 198.964C107.008 200.151 109.746 200.364 112.269 199.559C114.077 199.098 115.719 198.139 117.009 196.79C118.298 195.442 119.183 193.758 119.562 191.931C121.165 183.814 95.9429 175.637 95.9429 175.637Z" fill="#E5E3E8" stroke="#672938" stroke-linecap="round" stroke-linejoin="round"/>
<path d="M120.997 178.627C117.167 180.839 112.376 176.979 107.737 166.635C107.737 166.635 91.3349 135.481 87.4288 125.442C86.552 122.917 85.3133 120.532 83.7516 118.363C80.0286 113.587 72.781 112.504 67.3034 114.503C61.307 116.684 57.523 122.772 56.3328 128.813C54.807 136.274 57.6603 143.643 61.6121 149.883C63.4922 152.64 65.928 154.974 68.7632 156.734C71.5984 158.495 74.7704 159.643 78.0756 160.105C82.5615 160.899 87.2304 160.746 91.5637 162.134C93.3283 162.543 94.8719 163.606 95.8818 165.109C96.843 167.017 95.8818 169.503 95.8055 171.502C95.4691 175.237 96.1052 178.995 97.6517 182.411C99.1417 184.982 101.11 187.245 103.45 189.078C105.518 190.903 107.916 192.317 110.514 193.243C112.345 193.823 115.199 194.891 117.426 194.128C121.927 192.602 122.538 187.72 122.675 183.189C122.736 182.395 122.858 177.574 120.997 178.627Z" fill="white" stroke="#672938" stroke-width="0.95" stroke-miterlimit="10"/>
<path d="M78.091 147.215C81.6836 147.013 84.3458 142.402 84.0371 136.917C83.7285 131.432 80.566 127.149 76.9734 127.351C73.3809 127.553 70.7187 132.164 71.0273 137.649C71.3359 143.134 74.4985 147.417 78.091 147.215Z" fill="#672938"/>
<path d="M52.3352 88.4744C52.1046 89.4312 51.6011 90.3004 50.8857 90.9765C34.7427 106.447 23.8484 126.983 24.5655 146.328C25.2827 165.323 25.9082 190.039 32.8659 209.614C33.6746 211.872 23.8332 203.755 6.3932 166.284C-5.81326 140.104 5.58452 86.8419 38.4352 77.2911C38.9307 77.1461 39.4447 77.0742 39.961 77.0775H48.6733C49.45 77.0783 50.2163 77.2555 50.9145 77.5958C51.6126 77.9361 52.2244 78.4305 52.7034 79.0418C53.1825 79.6531 53.5164 80.3652 53.68 81.1244C53.8435 81.8836 53.8323 82.6701 53.6474 83.4244L52.3352 88.4744Z" fill="#D77EDA" stroke="#672938" stroke-width="2.18" stroke-linecap="round" stroke-linejoin="round"/>
<path d="M78.3809 76.3604C78.3809 76.7571 78.5029 77.1538 78.5487 77.5657C80.4667 74.2352 83.3996 71.6051 86.9188 70.0598C90.438 68.5144 94.3592 68.1347 98.1095 68.9761L97.4687 67.7403C86.6812 65.3145 80.456 72.9734 78.3809 76.3604Z" fill="#F0CBFF"/>
<path d="M89.7937 53.9787C80.2574 53.2616 76.0615 61.1036 75.085 63.1328C75.085 63.3616 75.2528 63.5753 75.3291 63.7889L75.7258 64.216C75.8936 63.7736 79.8607 54.055 90.633 55.2908L89.7937 53.9787Z" fill="#F0CBFF"/>
<path d="M81.6461 43.8786C81.3715 43.604 80.7764 42.8564 80.5017 42.5818C77.9812 42.3905 75.4634 42.9864 73.296 44.2873C71.1287 45.5882 69.4186 47.5298 68.4021 49.844L69.043 50.851C70.0611 48.4467 71.856 46.4532 74.1407 45.1892C76.4255 43.9252 79.0681 43.4638 81.6461 43.8786V43.8786Z" fill="#F0CBFF"/>
<path d="M72.8116 35.2127C72.5523 34.9381 71.8504 34.3889 71.591 34.1142C69.6181 34.0292 67.6654 34.5395 65.9864 35.5789C64.3075 36.6183 62.9801 38.1386 62.1768 39.9424L62.8328 41.1171C63.6075 39.167 65.0076 37.5291 66.8136 36.4605C68.6196 35.3919 70.7293 34.953 72.8116 35.2127Z" fill="#F0CBFF"/>
<path d="M64.9536 25.9214C63.5059 26.1084 62.1218 26.6305 60.9113 27.4462C59.7008 28.262 58.6974 29.3489 57.9807 30.6205C58.0875 30.9104 58.1943 31.2002 58.3164 31.4901C59.0606 30.1755 60.1311 29.0749 61.4247 28.2945C62.7183 27.5142 64.1912 27.0804 65.7013 27.0351C65.5335 26.8673 65.1062 26.1655 64.9536 25.9214Z" fill="#F0CBFF"/>
<path d="M61.185 17.5758C59.3596 17.7437 57.6393 18.5046 56.2872 19.7423C56.035 19.9634 55.805 20.2087 55.6006 20.4746C55.6006 20.856 55.7074 21.5426 55.7531 21.924C56.0581 21.4165 56.4389 20.9586 56.8823 20.5661C58.2226 19.507 59.8737 18.9174 61.5817 18.8879C61.4902 18.6438 61.246 17.8352 61.185 17.5758Z" fill="#F0CBFF"/>
<path d="M61.0934 11.1374C61.1611 10.8989 61.2426 10.6646 61.3376 10.4356C60.685 10.1994 60.0013 10.0605 59.3082 10.0236C58.9937 9.99293 58.6768 9.99293 58.3623 10.0236C58.063 10.0414 57.7713 10.1247 57.5078 10.2678C57.3358 10.4316 57.1915 10.6222 57.0805 10.8323C56.9725 11.1179 56.8503 11.398 56.7144 11.6714C57.0502 11.3586 57.4373 11.1057 57.8587 10.9238C58.9307 10.633 60.069 10.7082 61.0934 11.1374V11.1374Z" fill="#F0CBFF"/>
<g style="mix-blend-mode:multiply" opacity="0.81">
<path d="M28.8987 202.321C28.8987 202.321 16.9516 167.23 17.2415 151.104C17.3183 142.233 18.0116 133.378 19.3166 124.603C21.6969 110.215 31.2942 102.785 43.0429 94.0889L45.0265 92.5632C45.0265 92.5632 29.0513 117.874 26.9762 123.336C24.9011 128.798 18.63 147.976 28.8987 202.321Z" fill="#CDB1DA"/>
</g>
<path d="M82.18 130.782C81.2224 130.362 80.3077 129.852 79.4488 129.256L79.5557 129.347C76.0921 127.822 72.72 129.119 69.1191 128.295C73.8034 126.037 79.5557 125.243 82.18 130.736V130.782Z" fill="#672938"/>
<path d="M66.1743 125.915V125.808C66.837 124.615 67.7293 123.566 68.7999 122.72C69.8705 121.874 71.0981 121.248 72.4118 120.88C73.7255 120.511 75.0993 120.406 76.4538 120.571C77.8083 120.736 79.1166 121.168 80.3033 121.841L82.3937 123.367" stroke="#672938" stroke-linecap="round" stroke-linejoin="round"/>
<path d="M98.7045 112.672C93.8219 114.899 88.2222 111.695 85.7046 107.21C85.7102 108.163 85.8384 109.112 86.086 110.032C86.4527 111.506 87.1134 112.89 88.0282 114.102C88.943 115.314 90.0932 116.329 91.4098 117.085C92.7265 117.842 94.1824 118.325 95.6902 118.505C97.198 118.685 98.7267 118.559 100.184 118.134C102.687 117.31 100.52 111.848 98.7045 112.672Z" fill="#FBE854" stroke="#672938" stroke-width="0.95" stroke-linecap="round" stroke-linejoin="round"/>
<path d="M57.4315 88.7795C57.7367 80.6171 63.3669 62.9192 81.9665 58.8151C92.0674 56.5876 100.017 63.7583 105.723 69.4949C112.513 76.2384 120.035 86.079 120.432 96.057C120.6 100.71 119.364 105.44 118.265 110.124C117.29 114.88 117.332 119.788 118.388 124.526C120.02 132.78 120.646 147.915 120.966 148.434C120.966 148.434 112.467 138.975 105.281 129.149C98.5521 119.995 96.3396 100.161 81.7224 97.0182C77.8163 96.1943 58.6522 94.6381 57.0806 97.0182C57.0501 97.0487 57.2637 93.3108 57.4315 88.7795Z" fill="#D77EDA" stroke="#672938" stroke-width="2.18" stroke-linecap="round" stroke-linejoin="round"/>
<g style="mix-blend-mode:multiply" opacity="0.81">
<path d="M58.3164 97.8573C58.3164 97.8573 65.0452 82.692 75.8784 83.7142C84.2551 84.4923 95.7139 85.1026 101.161 102.282C105.844 116.52 111.857 130.287 119.12 143.399C119.12 143.399 105.464 128.92 102.687 121.46C94.1881 99.0931 88.8326 89.0694 58.3164 97.8573Z" fill="#CDB1DA"/>
</g>
<path d="M71.0569 65.6349C72.4454 65.5434 81.3408 62.8582 88.0544 64.4906C99.2996 67.2369 105.784 77.3979 111.064 86.964C113.388 90.7759 114.632 95.1476 114.664 99.6119C114.481 103.838 112.818 107.851 112.605 112.061C112.597 116.566 113.271 121.047 114.603 125.35C115.244 128.522 116.398 131.568 118.021 134.367C117.599 133.117 117.373 131.81 117.35 130.492C117.106 128.966 116.862 127.44 116.663 125.991C116.065 121.808 115.916 117.573 116.221 113.358C116.602 109.178 118.296 105.272 118.586 101.153C118.952 96.057 119.166 93.5244 116.816 87.7421C114.745 83.0636 111.937 78.7472 108.5 74.9568C103.679 69.7085 99.1165 63.5905 91.579 61.2257C89.0919 60.4323 82.058 57.7013 71.0569 65.6349Z" fill="#F0CBFF"/>
<path d="M47.7577 78.3896C47.0101 65.406 41.3493 53.2006 32.4996 43.07C23.5431 33.4735 12.2827 24.8991 8.52921 11.5951C7.43088 8.11717 7.61492 4.36084 9.04798 1.00688C9.20098 0.64244 9.47989 0.345169 9.83384 0.169219C10.1878 -0.00673109 10.5932 -0.0495953 10.9761 0.0484417C11.3591 0.146479 11.694 0.378876 11.9199 0.703264C12.1457 1.02765 12.2474 1.42237 12.2064 1.81549C11.2146 10.2678 20.7662 18.598 29.2039 23.6023C49.2683 33.9312 66.4489 50.8815 73.0404 73.3549C74.9324 79.839 76.5192 87.4522 74.5662 94.3635C73.9558 96.4385 70.3702 100.695 51.2823 102.389C43.1803 103.151 47.7577 81.029 47.7577 78.3896Z" fill="#672938"/>
<path d="M45.9726 94.1652C46.1018 96.252 47.03 98.209 48.5643 99.6295C50.0986 101.05 52.1212 101.825 54.212 101.794C57.6603 101.656 64.084 100.802 65.4877 99.3983C66.2353 98.6507 65.7318 91.1444 64.9079 87.8184C59.3845 65.5434 44.4774 42.8412 25.4658 29.7356C20.7277 26.4302 16.8066 22.0872 14.0011 17.0372C11.1957 11.9873 9.57994 6.36377 9.27695 0.594971C9.27695 0.594971 3.93664 7.44529 13.3966 21.7104C22.8567 35.9756 32.7591 41.0561 39.1675 51.858C49.2378 68.8541 47.9104 81.8376 46.6135 87.2538C46.0804 89.4494 45.8646 91.7101 45.9726 93.9669V94.1652Z" fill="#491A27"/>
<path d="M44.2026 62.2021C44.3552 62.5835 44.5078 62.9649 44.6451 63.3311C45.3622 60.5086 49.604 50.4238 61.429 50.256L60.6356 49.2643C49.5429 49.4169 45.4385 58.4337 44.2026 62.2021Z" fill="#F0CBFF"/>
<path d="M47.5288 77.5353C47.6509 78.0235 47.5288 80.1137 47.6661 80.5866C48.9783 77.2149 56.2412 65.0094 70.6448 66.5351L69.8361 65.2078C65.2889 64.6127 60.6705 65.4883 56.6567 67.7065C52.6429 69.9246 49.4443 73.3688 47.5288 77.5353V77.5353Z" fill="#F0CBFF"/>
<path d="M50.0922 37.7911C40.6475 39.3168 38.3435 47.9217 37.8857 50.1339L38.2825 50.7137L38.5876 51.1714C38.5876 50.6984 40.1897 40.0034 50.9619 38.6913C50.8093 38.4777 50.3211 38.0047 50.0922 37.7911Z" fill="#F0CBFF"/>
<path d="M39.488 29.6593C39.1675 29.4457 38.6793 29.1864 38.3589 28.988C35.8876 29.3875 33.5989 30.5371 31.803 32.281C30.0071 34.0249 28.7908 36.2788 28.3191 38.7371C28.5327 38.9355 28.8989 39.3932 29.0972 39.6068C29.4461 37.0169 30.6641 34.6223 32.5519 32.8151C34.4396 31.0078 36.8852 29.8952 39.488 29.6593V29.6593Z" fill="#F0CBFF"/>
<path d="M28.7158 23.3125L27.7698 22.7021C25.8471 23.0471 24.0758 23.9714 22.6932 25.3512C21.3106 26.731 20.3827 28.5003 20.0339 30.4221L20.6595 31.1087C20.9093 29.0843 21.845 27.2065 23.3108 25.788C24.7767 24.3695 26.6842 23.4959 28.7158 23.3125Z" fill="#F0CBFF"/>
<path d="M19.4847 16.3859C18.1139 16.8799 16.8789 17.6899 15.8795 18.7501C14.8801 19.8104 14.1446 21.0911 13.7324 22.4886L14.2512 23.2514C14.5863 21.7793 15.3069 20.4227 16.3392 19.3208C17.3715 18.2189 18.6783 17.4113 20.1256 16.9809L19.4847 16.3859Z" fill="#F0CBFF"/>
<path d="M13.7474 9.35242C12.0529 9.82482 10.5685 10.8574 9.53624 12.2818C9.33014 12.5696 9.15134 12.8761 9.0022 13.1972C9.109 13.5633 9.24631 13.9142 9.36838 14.2651C9.56277 13.7259 9.82422 13.2134 10.1466 12.7394C11.1462 11.413 12.5753 10.4747 14.1899 10.0848L13.7474 9.35242Z" fill="#F0CBFF"/>
<path d="M12.115 2.73092C12.115 2.48681 12.115 2.24273 12.115 1.99862C10.8762 1.82929 9.61661 2.0876 8.54452 2.73092C8.43112 2.80889 8.324 2.89563 8.22412 2.9903C8.13257 3.40224 8.04101 3.82941 7.97998 4.2566C8.25638 3.90731 8.58592 3.60357 8.95652 3.35645C9.90743 2.79455 11.0216 2.57388 12.115 2.73092Z" fill="#F0CBFF"/>
<path d="M52.8236 106.279C52.8236 106.279 31.6607 69.2813 14.1902 38.6455C14.1902 38.6455 -4.88245 92.8531 42.7838 114.67" fill="#E3A473"/>
<path d="M52.8236 106.279C52.8236 106.279 31.6607 69.2813 14.1902 38.6455C14.1902 38.6455 -4.88245 92.8531 42.7838 114.67" stroke="#672938" stroke-width="4" stroke-linecap="round" stroke-linejoin="round"/>
<path d="M15.716 47.4792C15.716 47.4792 13.1526 72.6683 20.2934 88.2455C28.3497 105.654 39.717 109.605 39.717 109.605L45.8202 113.175C45.8202 113.175 45.1031 98.7117 33.9036 81.1358C27.0443 70.3661 20.9662 59.1184 15.716 47.4792V47.4792Z" fill="#CE8655"/>
<path d="M116.11 179.278C117.062 178.498 116.391 176.106 114.612 173.936C112.833 171.766 110.62 170.639 109.668 171.419C108.717 172.199 109.388 174.59 111.166 176.76C112.945 178.93 115.159 180.057 116.11 179.278Z" fill="#672938"/>
</g>
<defs>
<clipPath id="clip0_21_353">
<rect width="128" height="248" fill="white"/>
</clipPath>
</defs>
</svg>
