<svg width="179" height="187" viewBox="0 0 179 187" fill="none" xmlns="http://www.w3.org/2000/svg">
<path d="M68.1836 24.2058C76.8172 24.0747 85.4292 25.0983 93.7878 27.249C94.7035 25.2027 105.762 -0.734557 78.9782 3.00824C63.8869 5.14199 60.0833 15.4784 59.7839 24.5206C62.4841 24.3107 65.284 24.2058 68.1836 24.2058Z" fill="#E5E3E8" stroke="#672938" stroke-width="4" stroke-linecap="round" stroke-linejoin="round"/>
<path d="M97.8028 184.534H2.50049L7.43113 108.926L105.005 126.783L97.8028 184.534Z" fill="#2B2B2B" stroke="#672938" stroke-width="4" stroke-linecap="round" stroke-linejoin="round"/>
<path d="M6.53296 94.6368C6.53296 131.12 33.81 143.048 81.4788 151.653C127.263 159.908 171.991 173.445 171.991 105.201C138.023 70.4135 133.779 26.322 85.1063 15.4434C65.0315 10.9485 6.53296 24.538 6.53296 94.6368Z" fill="white" stroke="#672938" stroke-width="4" stroke-linecap="round" stroke-linejoin="round"/>
<path d="M109.408 93.57C104.917 85.3323 105.164 75.1358 111.168 67.93C112.801 65.797 114.946 64.1045 117.407 63.0076C119.868 61.9107 122.567 61.4444 125.256 61.6512C136.332 62.6481 142.143 75.643 140.682 91.6636C139.22 107.684 132.969 113.928 121.893 112.931H121.452C119.26 112.638 117.228 111.628 115.678 110.06C114.128 108.493 113.149 106.456 112.894 104.274C112.378 100.529 111.197 96.9053 109.408 93.57Z" fill="#2B2B2B"/>
<path d="M170.952 117.846H162.465C161.311 117.8 160.201 117.396 159.291 116.69C158.381 115.983 157.717 115.011 157.393 113.91V113.91C156.055 109.94 158.679 105.69 162.465 105.69H170.952C174.739 105.69 177.345 109.94 176.006 113.91C175.686 115.01 175.026 115.982 174.119 116.688C173.212 117.394 172.104 117.799 170.952 117.846Z" fill="#2B2B2B" stroke="#672938" stroke-width="3" stroke-linecap="round" stroke-linejoin="round"/>
<path d="M130.38 93.9547C126.436 93.9547 123.988 87.501 126.489 83.2335C126.726 82.3922 127.234 81.651 127.935 81.1231C128.636 80.5952 129.492 80.3094 130.372 80.3094C131.251 80.3094 132.107 80.5952 132.808 81.1231C133.509 81.651 134.017 82.3922 134.254 83.2335C136.755 87.501 134.254 93.9547 130.38 93.9547Z" fill="white"/>
<path d="M36.6628 28.5432C36.6628 28.5432 27.8581 67.178 25.8682 93.2551C23.8784 119.332 50.3806 138.728 68.1309 142.821C85.8812 146.914 112.5 156 112.5 156C112.5 156 64.571 148.636 45.5 141.5C26.429 134.364 12.0923 128.522 8.49998 101.5C4.90766 74.4784 20.0518 46.6986 25 40C27.9919 35.9519 33.0673 32.0738 36.6628 28.5432Z" fill="#E5E3E8"/>
<path d="M104.847 69.2973C104.847 69.2973 113.088 47.1204 132.423 60.9548" stroke="#2B2B2B" stroke-width="2" stroke-linecap="round" stroke-linejoin="round"/>
<path d="M39.3219 53.3611C39.3219 53.3611 -4.84255 40.5237 26.5727 16.9126C49.0247 0.0524954 57.4949 27.4064 57.4949 27.4064C57.4949 27.4064 66.3524 46.1904 39.3219 53.3611Z" fill="white" stroke="#672938" stroke-width="4" stroke-linecap="round" stroke-linejoin="round"/>
<path d="M45.7119 49.4513C45.7119 49.4513 34.4243 43.6097 35.023 37.0511C35.3561 35.0666 36.0835 33.1678 37.1628 31.4652C38.2421 29.7627 39.6517 28.2905 41.3096 27.1344C42.4322 26.2694 43.8509 25.8748 45.2625 26.0349C46.6742 26.1951 47.9668 26.8973 48.864 27.9914L56.4889 36.0542C56.4889 36.0542 58.9719 43.6447 45.7119 49.4513Z" fill="#2B2B2B"/>
<path d="M167.729 130L148.623 130.752C147.95 130.781 147.298 130.987 146.732 131.35C146.167 131.712 145.709 132.218 145.406 132.815C145.103 133.412 144.965 134.078 145.008 134.746C145.05 135.413 145.271 136.057 145.647 136.611L155.315 150.725C155.315 150.725 167.201 141.683 167.729 130Z" fill="#2B2B2B"/>
<path d="M43.5 50C43.5 50 28.8782 48.244 27.6956 36.3258C26.5131 24.4076 30.4993 20.3085 36.4691 18.8097C40.5711 17.8921 45.2924 17.2651 49.5 17.5C48 14.7197 45.369 14.0543 43 13.5C40.631 12.9457 38.1432 13.0522 35.8367 13.8067C27.1967 16.1181 18.369 26.0689 17.1484 29.1027C16.0598 31.1951 15.7332 33.5699 16.2197 35.8564C16.7062 38.143 17.9783 40.2129 19.8376 41.7432C25.0636 46.691 39.063 52 39.063 52L43.5 50Z" fill="#E5E3E8"/>
</svg>
