<svg width="191" height="192" viewBox="0 0 191 192" fill="none" xmlns="http://www.w3.org/2000/svg">
<path d="M142.71 127.714H47.2104V189.367H142.71V127.714Z" fill="black" stroke="#672938" stroke-width="2.83" stroke-linecap="round" stroke-linejoin="round"/>
<path d="M15.8175 50.9922C15.8175 50.9922 -10.7371 27.2979 12.5052 8.98107C35.7475 -9.33576 44.9588 20.184 44.9588 20.184C44.9588 20.184 20.4325 37.5859 15.8175 51.0855" fill="white"/>
<path d="M15.8175 50.9922C15.8175 50.9922 -10.7371 27.2979 12.5052 8.98107C35.7475 -9.33576 44.9588 20.184 44.9588 20.184C44.9588 20.184 20.4325 37.5859 15.8175 51.0855" stroke="#672938" stroke-width="3.18" stroke-linecap="round" stroke-linejoin="round"/>
<path d="M175.201 50.9922C175.201 50.9922 201.756 27.2979 178.513 8.98107C155.271 -9.33576 146.06 20.184 146.06 20.184C146.06 20.184 170.586 37.5859 175.201 51.0855" fill="white"/>
<path d="M175.201 50.9922C175.201 50.9922 201.756 27.2979 178.513 8.98107C155.271 -9.33576 146.06 20.184 146.06 20.184C146.06 20.184 170.586 37.5859 175.201 51.0855" stroke="#672938" stroke-width="3.18" stroke-linecap="round" stroke-linejoin="round"/>
<path d="M171.449 41.6655C171.449 41.6655 179.748 30.5745 175.636 24.2262C173.347 20.6786 168.788 18.0272 165.196 16.3841C163.806 15.749 162.24 15.6138 160.762 16.0015C159.285 16.3892 157.985 17.2761 157.083 18.5127L153.473 23.442L171.449 41.6655Z" fill="black"/>
<path d="M19.3379 42.8825C19.3379 42.8825 11.0198 31.7916 15.1509 25.4432C17.4398 21.8956 21.999 19.2442 25.5718 17.6011C26.9647 16.9647 28.5336 16.8288 30.0146 17.2165C31.4956 17.6041 32.7983 18.4916 33.7038 19.7297L37.3139 24.659L19.3379 42.8825Z" fill="black"/>
<path d="M5.86182 84.3209C5.86182 123.27 45.7589 154.844 94.9604 154.844C144.162 154.844 184.059 123.27 184.059 84.3209C184.059 45.372 144.534 5.65753 95.3326 5.65753C46.1311 5.65753 5.86182 45.372 5.86182 84.3209Z" fill="white" stroke="#672938" stroke-width="3.18" stroke-linecap="round" stroke-linejoin="round"/>
<path d="M62.9534 105.532C62.9534 88.0739 73.0021 77.2444 87.8146 77.2444C102.627 77.2444 114.667 91.3788 114.667 108.818C114.667 126.257 103.669 137.162 88.8567 137.162C74.0442 137.162 62.9534 122.971 62.9534 105.532Z" fill="#E5E3E8"/>
<path d="M132.587 50.0772C120.827 50.0772 111.299 63.9129 111.28 80.9974C117.773 86.8578 121.681 95.0642 122.148 103.814C125.346 105.572 128.941 106.472 132.587 106.428C144.367 106.428 153.894 98.1192 153.894 81.0347C153.894 63.9502 144.367 50.0772 132.587 50.0772Z" fill="black"/>
<path d="M80.5387 80.1571C80.2223 63.4647 72.2206 51.5896 60.6646 51.5896C49.1085 51.5896 37.9619 63.9315 37.9619 81.0347C37.9619 98.1379 47.4896 106.428 59.2689 106.428C62.519 106.456 65.7328 105.741 68.6663 104.337C68.835 99.6946 69.98 95.1405 72.026 90.9734C74.0721 86.8063 76.9731 83.1203 80.5387 80.1571Z" fill="black"/>
<path d="M95.4256 138.002C110.245 138.002 122.259 123.866 122.259 106.428C122.259 88.9904 110.245 74.8544 95.4256 74.8544C80.6057 74.8544 68.5918 88.9904 68.5918 106.428C68.5918 123.866 80.6057 138.002 95.4256 138.002Z" fill="white"/>
<path d="M100.655 110.554H89.8242C88.661 110.552 87.5264 110.193 86.572 109.525C85.6176 108.858 84.889 107.914 84.4836 106.82C84.1513 105.951 84.0348 105.015 84.1441 104.09C84.2534 103.166 84.5853 102.283 85.1111 101.516C85.6369 100.75 86.3408 100.123 87.1619 99.6908C87.9831 99.2583 88.8968 99.033 89.8242 99.0341H100.655C101.58 99.0373 102.492 99.2656 103.31 99.6993C104.129 100.133 104.831 100.759 105.356 101.525C105.881 102.29 106.213 103.171 106.325 104.093C106.436 105.016 106.323 105.951 105.995 106.82C105.588 107.913 104.858 108.855 103.905 109.522C102.951 110.189 101.817 110.549 100.655 110.554Z" fill="black"/>
<path d="M131.024 94.721C126.856 94.721 124.269 87.8312 126.912 83.2566C127.169 82.3616 127.709 81.5747 128.451 81.0147C129.193 80.4546 130.096 80.1517 131.024 80.1517C131.952 80.1517 132.856 80.4546 133.597 81.0147C134.339 81.5747 134.88 82.3616 135.137 83.2566C137.779 87.8312 135.137 94.721 131.024 94.721V94.721Z" fill="white"/>
<path d="M61.1855 94.721C57.0172 94.721 54.4306 87.8312 57.073 83.2566C57.3302 82.3616 57.8704 81.5747 58.6122 81.0147C59.354 80.4546 60.2572 80.1517 61.1855 80.1517C62.1139 80.1517 63.0171 80.4546 63.7589 81.0147C64.5007 81.5747 65.0409 82.3616 65.2981 83.2566C67.9219 87.8312 65.2981 94.721 61.1855 94.721V94.721Z" fill="white"/>
<path d="M115.932 53.7929C115.932 53.7929 125.441 35.6814 145.855 50.4694" stroke="black" stroke-linecap="round" stroke-linejoin="round"/>
<path d="M44.4189 53.7929C44.4189 53.7929 53.928 35.6814 74.3604 50.4694" stroke="black" stroke-linecap="round" stroke-linejoin="round"/>
<path d="M48.489 21C46.6421 22.0198 44.9708 23.3311 43.5391 24.8837C41.7373 26.4365 40.0226 28.0884 38.4031 29.8317C27.8705 41.0346 22.7345 55.0943 21.6552 70.4424C20.7854 82.5303 21.7072 94.6807 24.3907 106.497C27.7265 119.571 35.1002 131.251 45.4558 139.863C45.4558 139.863 17.0961 127.951 8.70354 98.0763C0.310998 68.2018 25.6561 39.1114 25.6561 39.1114C25.6561 39.1114 38.9986 23.7634 48.489 21Z" fill="#E5E3E8"/>
<path d="M18 43.4716C18 43.4716 12.7598 42.5134 9.59636 30.2835C6.43287 18.0536 21 6 21 6C21 6 5.30018 12.0897 4.5 26C4.66748 32.1243 6 38.5 15.3203 47.6167L18 43.4716Z" fill="#E5E3E8"/>
<path d="M82.1576 117.836L111.541 115.969C111.948 115.912 112.362 115.969 112.739 116.134C113.115 116.299 113.438 116.567 113.672 116.906C113.905 117.245 114.04 117.642 114.062 118.054C114.083 118.466 113.99 118.875 113.792 119.237C109.475 127.751 96.7282 147.244 80.52 121.272C80.3203 120.95 80.2047 120.582 80.1838 120.203C80.163 119.824 80.2376 119.446 80.4008 119.104C80.564 118.762 80.8104 118.466 81.1175 118.245C81.4245 118.023 81.7822 117.883 82.1576 117.836Z" fill="black"/>
</svg>
