<svg width="176" height="198" viewBox="0 0 176 198" fill="none" xmlns="http://www.w3.org/2000/svg">
<path d="M41.7244 26.4772L7.94158 1.70978C4.10219 5.67637 1.88983 10.9436 1.74292 16.4677C1.59601 21.9917 3.52526 27.3696 7.14838 31.5354L18.9742 45.0663C20.8336 40.2577 23.9082 36.016 27.8965 32.7572C31.8849 29.4984 36.6499 27.3343 41.7244 26.4772V26.4772Z" fill="#E3A473" stroke="#672938" stroke-width="3" stroke-linecap="round" stroke-linejoin="round"/>
<path d="M168.167 1.70978L134.456 26.3507C139.564 27.0562 144.399 29.0855 148.484 32.2381C152.569 35.3906 155.762 39.5572 157.747 44.3256L168.852 31.68C172.527 27.5169 174.498 22.117 174.371 16.5603C174.244 11.0037 172.028 5.69988 168.167 1.70978Z" fill="#E3A473" stroke="#672938" stroke-width="3" stroke-linecap="round" stroke-linejoin="round"/>
<path d="M119.061 135.772C113.509 140.953 106.204 143.832 98.6181 143.829H79.2209C71.7217 143.834 64.4926 141.024 58.9584 135.952L46.3394 124.427V196.272L130.67 194.122V124.933L119.061 135.772Z" fill="#E3A473" stroke="#672938" stroke-width="3" stroke-linecap="round" stroke-linejoin="round"/>
<path d="M148.084 108.674L119.061 135.772C113.509 140.953 106.204 143.832 98.6179 143.829H79.2208C71.7216 143.834 64.4925 141.024 58.9582 135.952L29.3577 108.71C24.6479 104.389 20.9728 99.0581 18.6067 93.1147C16.2406 87.1714 15.2446 80.7692 15.6931 74.3861L17.1533 53.7015C17.7028 46.2215 21.0493 39.225 26.5238 34.1107C31.9983 28.9964 39.1974 26.1412 46.6818 26.1159H130.31C137.821 26.1109 145.054 28.9606 150.551 34.0902C156.048 39.2197 159.399 46.2474 159.928 53.7557L161.406 74.6571C161.855 80.9636 160.891 87.2907 158.587 93.1762C156.282 99.0616 152.694 104.356 148.084 108.674Z" fill="#E3A473" stroke="#672938" stroke-width="3" stroke-linecap="round" stroke-linejoin="round"/>
<path d="M44 28C44 28 26.7391 38.3654 26 48.5C25.2609 58.6346 23.9577 87.5919 23.9577 87.5919L62.6439 129.684L61.9228 136.314L25.0573 102.387C22.3326 98.4571 19.8347 94.3737 17.5761 90.1572C15.539 85.9118 19.559 50.1969 19.559 50.1969C19.559 50.1969 22.5 30 44 28Z" fill="#CE8655"/>
<path d="M107 99.5L104 67L100 101.5L107 99.5Z" fill="#F7C79A"/>
<path d="M88.7393 42.212V63.4386" stroke="#672938" stroke-width="1.2" stroke-linecap="round" stroke-linejoin="round"/>
<path d="M112 135L113 138.5L144.515 110.078L142.172 102.906L112 135Z" fill="#F7C79A"/>
<path d="M67.7736 108.276L88.3786 116.442L109.398 107.409L112.607 147.315C112.734 148.909 112.53 150.512 112.008 152.023C111.485 153.534 110.655 154.92 109.571 156.093C108.487 157.266 107.171 158.201 105.708 158.839C104.245 159.477 102.665 159.804 101.07 159.798L75.2909 159.69C73.6886 159.685 72.105 159.345 70.6414 158.691C69.1777 158.038 67.8661 157.086 66.7905 155.896C65.7148 154.706 64.8988 153.304 64.3945 151.78C63.8902 150.256 63.7087 148.643 63.8617 147.044L67.7736 108.276Z" fill="white" stroke="#672938" stroke-width="2.4" stroke-linecap="round" stroke-linejoin="round"/>
<path d="M68.6567 110.79L65.0003 148C64.926 149.805 65.3817 151.592 66.311 153.139C67.2402 154.687 69.3742 156.72 71.0002 157.5C71.0002 157.5 69.3602 154.108 70.0813 145.87C70.8024 137.632 71.0002 112 71.0002 112L68.6567 110.79Z" fill="#EAEAEA"/>
<path d="M73.1182 55.5569L56.7856 131.901L63.8162 138.061L73.1182 55.5569Z" fill="#CE8655"/>
<path d="M68.9095 100.96L74.4258 55.0202C74.4258 52.1455 73.2863 49.3885 71.2578 47.3558C69.2294 45.3231 66.4782 44.1811 63.6095 44.1811H49.4402" stroke="#672938" stroke-width="2.4" stroke-linecap="round" stroke-linejoin="round"/>
<path d="M58.1472 79.0831C61.373 79.0831 63.988 75.3625 63.988 70.7731C63.988 66.1836 61.373 62.4631 58.1472 62.4631C54.9214 62.4631 52.3064 66.1836 52.3064 70.7731C52.3064 75.3625 54.9214 79.0831 58.1472 79.0831Z" fill="#672938"/>
<path d="M108.191 100.725L105.541 67.9368C105.541 64.8896 106.748 61.9672 108.899 59.8125C111.049 57.6579 113.965 56.4474 117.006 56.4474H130.075" stroke="#672938" stroke-width="2.4" stroke-linecap="round" stroke-linejoin="round"/>
<path d="M117.853 78.9024C120.999 78.9024 123.55 75.2628 123.55 70.7731C123.55 66.2834 120.999 62.6437 117.853 62.6437C114.707 62.6437 112.156 66.2834 112.156 70.7731C112.156 75.2628 114.707 78.9024 117.853 78.9024Z" fill="#672938"/>
<path d="M101.178 137.416V137.885C101.078 139.001 100.68 140.069 100.027 140.978C99.3736 141.887 98.4885 142.603 97.4643 143.052C94.3381 144.329 90.9849 144.954 87.6096 144.889C84.2342 144.823 80.9076 144.069 77.8328 142.673C76.7757 142.165 75.8861 141.364 75.2695 140.365C74.6528 139.366 74.3349 138.211 74.3536 137.036V137.036" stroke="#672938" stroke-width="2.4" stroke-linecap="round" stroke-linejoin="round"/>
<path d="M88.5229 143.305V114.238" stroke="#672938" stroke-width="2.4" stroke-linecap="round" stroke-linejoin="round"/>
<path d="M109.489 109.162L88.2165 117.526L67.6655 109.36L68.7652 100.111L87.892 106.38L108.876 99.9304L109.489 109.162Z" fill="#FF8496" stroke="#672938" stroke-width="2.4" stroke-linecap="round" stroke-linejoin="round"/>
<path d="M72.677 109.216L73.0375 106.398L84.5028 112.323L84.1603 113.714L72.677 109.216Z" fill="#3A3A3A"/>
<path d="M104.243 108.981L103.612 106.524L92.1284 112.179L92.3087 113.66L104.243 108.981Z" fill="#3A3A3A"/>
<path d="M74.6239 120.38L42.4995 126.757" stroke="#CACAD5" stroke-width="0.58" stroke-miterlimit="10"/>
<path d="M101.448 115.99L116.465 118.122L135.7 120.85" stroke="#CACAD5" stroke-width="0.58" stroke-miterlimit="10"/>
<path d="M101.16 120.38L133.284 126.757" stroke="#CACAD5" stroke-width="0.58" stroke-miterlimit="10"/>
<path d="M74.3356 115.99L40.084 120.85" stroke="#CACAD5" stroke-width="0.58" stroke-miterlimit="10"/>
<path d="M145.235 97.9497L152.284 85.7737L150.211 44.567C150.211 44.567 148.552 35.426 143 31C145.632 32.4091 155.206 38.4085 157.423 48.4709L158 51L160 76.5C160 76.5 160.203 93.3596 150 104L145.235 97.9497Z" fill="#F7C79A"/>
<path d="M18.3974 76.0003L32.3144 76.5242C32.6978 76.5381 33.0706 76.6547 33.3937 76.862C33.7168 77.0694 33.9786 77.3597 34.1516 77.7029C34.3247 78.0461 34.4027 78.4295 34.3776 78.8131C34.3525 79.1968 34.2252 79.5667 34.009 79.8843L23.4451 95.2939C23.2389 95.5863 22.9638 95.823 22.6442 95.9829C22.3245 96.1427 21.9704 96.2208 21.6133 96.2101C21.2562 96.1993 20.9074 96.1001 20.5979 95.9214C20.2884 95.7426 20.0279 95.4898 19.8396 95.1855C16.7263 89.9886 15.4558 83.8902 16.2342 77.8791C16.3007 77.354 16.5582 76.8719 16.9574 76.5252C17.3565 76.1785 17.8693 75.9916 18.3974 76.0003V76.0003Z" fill="#672938"/>
<path d="M25.3558 99.8548L36.1721 95.1759C36.5523 95.0115 36.972 94.9609 37.3803 95.0302C37.7887 95.0996 38.1683 95.2859 38.4733 95.5667C38.7783 95.8475 38.9956 96.2108 39.0991 96.6127C39.2026 97.0145 39.1877 97.4378 39.0564 97.8315L35.0724 109.989C34.9538 110.343 34.7456 110.659 34.4682 110.907C34.1908 111.155 33.8538 111.327 33.4902 111.405C33.1266 111.484 32.7489 111.466 32.3942 111.354C32.0395 111.242 31.72 111.039 31.467 110.766L24.6527 103.269C24.4232 103.018 24.2563 102.716 24.1659 102.388C24.0756 102.06 24.0642 101.715 24.1329 101.382C24.2015 101.048 24.3482 100.736 24.5608 100.471C24.7734 100.205 25.0459 99.9941 25.3558 99.8548V99.8548Z" fill="#672938"/>
<path d="M160.77 76.0003L146.853 76.5242C146.47 76.5381 146.097 76.6547 145.774 76.862C145.451 77.0694 145.189 77.3597 145.016 77.7029C144.843 78.0461 144.765 78.4295 144.79 78.8131C144.815 79.1968 144.942 79.5667 145.158 79.8843L155.722 95.2939C155.926 95.5903 156.2 95.8309 156.52 95.9936C156.84 96.1562 157.196 96.2358 157.555 96.225C157.913 96.2142 158.264 96.1134 158.573 95.9318C158.883 95.7502 159.143 95.4936 159.328 95.1856C162.441 89.9886 163.712 83.8902 162.933 77.8791C162.867 77.354 162.609 76.8719 162.21 76.5252C161.811 76.1785 161.298 75.9916 160.77 76.0003V76.0003Z" fill="#672938"/>
<path d="M153.811 99.8548L142.995 95.1759C142.615 95.0115 142.195 94.9609 141.787 95.0302C141.378 95.0996 140.999 95.2859 140.694 95.5667C140.389 95.8475 140.172 96.2108 140.068 96.6127C139.965 97.0145 139.979 97.4378 140.111 97.8315L144.113 109.989C144.231 110.343 144.44 110.659 144.717 110.907C144.994 111.155 145.331 111.327 145.695 111.405C146.059 111.484 146.436 111.466 146.791 111.354C147.146 111.242 147.465 111.039 147.718 110.766L154.532 103.269C154.761 103.017 154.927 102.714 155.016 102.385C155.106 102.056 155.115 101.71 155.045 101.377C154.974 101.043 154.826 100.731 154.611 100.467C154.397 100.202 154.123 99.9923 153.811 99.8548V99.8548Z" fill="#672938"/>
</svg>
