<svg width="155" height="193" viewBox="0 0 155 193" fill="none" xmlns="http://www.w3.org/2000/svg">
<path d="M107.176 144.44C106.98 142.498 107.326 140.539 108.177 138.781L118.205 128.839L130.769 97.1365L146.94 117.193L152.118 102.452L116.669 68.4789C114.943 66.0535 116.669 60.205 113.752 55.5606C106.728 44.2399 96.0173 35.6658 83.4111 31.2722C77.7907 29.3829 71.9105 28.3732 65.9799 28.2791L50.2227 28.0211C42.787 27.9819 35.4518 29.7335 28.8411 33.1267C22.2304 36.5199 16.5399 41.4544 12.2536 47.5103C6.30237 55.6703 2.93102 65.4154 2.57153 75.4971V75.4971V76.6324C2.57153 77.2688 2.57153 77.8881 2.57153 78.5073V190.454L89.3653 190.145V145.421L112.958 151.269C109.334 149.584 107.573 147.657 107.176 144.44Z" fill="#E3A473" stroke="#672938" stroke-width="4" stroke-linecap="round" stroke-linejoin="round"/>
<path d="M75.8208 61.1573C75.8208 61.1573 78.4614 83.6912 98.2571 90.7266C118.053 97.7619 124 109 124 109L129 96.5L107.836 69.5C107.836 69.5 107.249 58.6631 75.8208 61.1573Z" fill="#CE8655"/>
<path d="M45.0451 28.0211L60.8023 28.2791C61.4409 28.2791 62.0622 28.2791 62.7007 28.3823V2.5802C49.3943 2.5802 38.5386 14.088 37.9346 28.5028C40.2878 28.1512 42.6658 27.9901 45.0451 28.0211V28.0211Z" fill="#E3A473" stroke="#672938" stroke-width="4" stroke-linecap="round" stroke-linejoin="round"/>
<path d="M51.1411 25.9888H48C48 25.9888 48.4315 23.3116 48.7076 22.5719C50.7768 17.5943 54.1728 13.2758 58.5278 10.0837C59.1562 9.66525 59.8204 9.30263 60.5125 9V26.1436C60.5125 26.1436 56.4567 25.9372 51.1411 25.9888Z" fill="#F7C79A"/>
<path d="M40.1781 36.8454V2.5802C26.3712 2.5802 15.1875 14.9996 15.3601 30.1025L15.3946 60.5662C22.0737 53.2384 28.5457 39.7869 40.1781 36.8454Z" fill="#E3A473" stroke="#672938" stroke-width="4" stroke-linecap="round" stroke-linejoin="round"/>
<path d="M118.205 128.839L130.769 97.1365L147.199 117.589L143.747 146.092C142.557 157.307 137.241 159.268 130.683 157.359L117.877 153.162C110.818 150.96 107.763 148.93 107.211 144.561C107.014 142.618 107.361 140.66 108.212 138.902L118.205 128.839Z" fill="white" stroke="#672938" stroke-width="4" stroke-linecap="round" stroke-linejoin="round"/>
<path d="M147.717 118.449L127.921 104.034L131.39 96.9816L152.031 102.469L147.717 118.449Z" fill="#FF8496" stroke="#672938" stroke-width="4" stroke-linecap="round" stroke-linejoin="round"/>
<path d="M136 107.821L136.897 105L144.681 111.296L143.835 113.532L136 107.821Z" fill="#3A3A3A"/>
<path d="M76.8701 60.6522L89.21 60.8586C99.7206 60.8586 105.416 60.8586 110.576 71.6267L130.786 96.9472" stroke="#672938" stroke-width="4" stroke-linecap="round" stroke-linejoin="round"/>
<path d="M129.302 135.238C129.302 135.238 132.011 143.202 144.023 139.005" stroke="#672938" stroke-width="2.4" stroke-linecap="round" stroke-linejoin="round"/>
<path d="M132.201 114.854L101.55 120.53" stroke="#CACAD5" stroke-width="0.83" stroke-miterlimit="10"/>
<path d="M132.201 119.223L105.968 126.155" stroke="#CACAD5" stroke-width="0.83" stroke-miterlimit="10"/>
<path d="M29.5986 70.4398L26.6819 88.3465C25.0945 98.0126 27.0608 107.925 32.2196 116.262C37.3784 124.598 45.3829 130.799 54.7618 133.724L113.269 151.631" stroke="#672938" stroke-width="2.4" stroke-linecap="round" stroke-linejoin="round"/>
<path d="M98.012 87.0736C101.1 87.0736 103.604 83.531 103.604 79.1609C103.604 74.7909 101.1 71.2483 98.012 71.2483C94.9237 71.2483 92.4202 74.7909 92.4202 79.1609C92.4202 83.531 94.9237 87.0736 98.012 87.0736Z" fill="#672938"/>
<path d="M30.5 73C30.5 73 23.9895 115.129 53.2084 127.033C82.4273 138.936 106.5 137.5 106.5 137.5C105.638 140.395 104.5 141.5 105.5 147.5C105.5 147.5 50 133 44 127.033C44 127.033 18.16 113.699 30.5 73Z" fill="#CE8655"/>
<path d="M28.2525 81.6036L60.6125 82.0164C61.0843 81.9636 61.5605 82.0661 61.9683 82.3082C62.3762 82.5504 62.6933 82.9189 62.8713 83.3576C63.0493 83.7962 63.0784 84.2809 62.9541 84.7376C62.8298 85.1942 62.559 85.5978 62.1831 85.8867L29.0001 108C25.1422 99.7274 25.3365 90.2507 28.2525 81.6036Z" fill="#672938"/>
<path d="M31.9111 114.923L51.8276 102.882C52.2265 102.641 52.6922 102.532 53.157 102.573C53.6218 102.614 54.0613 102.802 54.4117 103.109C54.7621 103.416 55.0051 103.826 55.1053 104.28C55.2055 104.735 55.1576 105.209 54.9687 105.634L44.9999 128C44.9999 128 33.102 120.186 31.9111 114.923Z" fill="#672938"/>
<path d="M28.1914 41.1447C27.7115 35.5302 28.189 28.0434 29.0129 22.4687C29.7635 17.4679 32.4686 12.9661 36.5377 9.94608C37.074 9.56479 37.6532 9.24728 38.2635 9V35C38.2635 35 33.6914 36.6447 28.1914 41.1447Z" fill="#F7C79A"/>
<path d="M87.905 144.943L87.8705 188.345L78.3264 188.5L79.5 142.5L87.905 144.943Z" fill="#F7C79A"/>
<path d="M15.5663 76.5292L14 48.5292C5.0001 60 5 76.7528 5 76.7528V77.7236V187.788H15.5836L15.7044 76.5292H15.5663Z" fill="#CE8655"/>
<path d="M109.659 141C109.659 141 107.675 145.335 110.591 147.537C113.508 149.738 133.286 156.18 133.286 156.18C133.286 156.18 137.963 157.986 140.5 152L109.659 141Z" fill="#EAEAEA"/>
<path d="M20.0202 22.2242C23.1847 22.2242 25.75 19.6674 25.75 16.5134C25.75 13.3593 23.1847 10.8025 20.0202 10.8025C16.8556 10.8025 14.2903 13.3593 14.2903 16.5134C14.2903 19.6674 16.8556 22.2242 20.0202 22.2242Z" fill="#EAEAEA" stroke="#672938" stroke-width="4" stroke-linecap="round" stroke-linejoin="round"/>
</svg>
