<svg width="193" height="238" viewBox="0 0 193 238" fill="none" xmlns="http://www.w3.org/2000/svg">
<path d="M169.327 93.1951L176.334 232.337L89.2561 233.385L90.0497 162.132L169.327 93.1951Z" fill="#F0CBFF" stroke="#672938" stroke-width="4" stroke-linecap="round" stroke-linejoin="round"/>
<path d="M119.65 79.925L141.432 113.853L146.801 101.157C152.458 87.7856 146.903 76.2736 139.963 63.5106L128.97 35.1447C128.092 33.5387 127.417 29.1097 125.593 29.1435C122.25 29.2112 119.65 79.925 119.65 79.925Z" fill="#F0CBFF" stroke="#672938" stroke-width="4" stroke-linecap="round" stroke-linejoin="round"/>
<path d="M123.213 76.8821L136.974 102.729L137.869 93.026C138.73 85.3344 136.485 76.1214 133.361 66.1646C133.361 66.1646 126.1 38.1368 124.766 38.1537L123.213 76.8821Z" fill="#805623"/>
<path d="M89.3236 70.4246L9.96229 143.808C6.96886 146.591 4.76652 150.12 3.57997 154.035C2.39343 157.949 2.26515 162.108 3.20813 166.088L8.59452 189.112C4.32252 192.493 5.62269 194.471 7.37877 196.026L16.7839 202.145C19.3714 203.827 22.3827 204.739 25.4674 204.775C28.5522 204.811 31.5838 203.969 34.2097 202.348V202.348L108.353 174.895C110.454 173.684 112.855 173.098 115.276 173.205L123.314 173.509C132.319 173.859 141.233 171.593 148.98 166.984V166.984C156.285 162.628 162.266 156.359 166.277 148.852C170.288 141.346 172.177 132.886 171.741 124.384L169.428 80.1447C169.288 77.4011 168.269 74.7754 166.524 72.656L162.91 68.2946C150.415 53.0805 109.654 59.9944 92.0759 68.7003C91.09 69.1575 90.1654 69.7368 89.3236 70.4246V70.4246Z" fill="#F0CBFF" stroke="#672938" stroke-width="4" stroke-linecap="round" stroke-linejoin="round"/>
<path d="M10 146C10 146 13.0186 143.013 23.724 153.376C24.7202 154.339 135.708 69.8498 135.708 69.8498L99.3874 63.3923L10 146Z" fill="white" stroke="#672938" stroke-width="2" stroke-miterlimit="10"/>
<path d="M152.272 64.4065C152.272 64.4065 130.862 34.4685 111.207 40.9429C91.5525 47.4174 81.4213 80.8885 72.2018 85.8416C62.9824 90.7946 48.8494 87.4137 48.8494 87.4137C48.8494 87.4137 64.0462 107.479 84.6126 94.8856C105.179 82.2916 107.323 73.3491 107.323 73.3491C107.323 73.3491 103.744 80.6857 98.695 90.372C98.7626 90.372 134.019 69.1398 152.272 64.4065Z" fill="#DE2E5C" stroke="#672938" stroke-width="4" stroke-linecap="round" stroke-linejoin="round"/>
<path d="M37.9996 176.419C37.9996 187.659 37.9996 199.5 37.9996 199.5C37.9996 199.5 19.8843 210.945 6.22668 194.119C6.22668 194.119 9.7626 186.939 7.65111 180.205C5.53962 173.472 -1.46516 158.924 7.29921 147.77L12.0249 144C23.4538 146.313 38.0834 157.314 37.9996 176.419Z" fill="white" stroke="#672938" stroke-width="2" stroke-miterlimit="10"/>
<path opacity="0.48" d="M52.2095 89.1042C52.2095 89.1042 67.018 99.602 85.9802 86.6023C104.943 73.6027 116.914 46.2679 132.618 53.4017L141.55 59.2337C141.55 59.2337 138.325 47.4005 123.213 43.7153C108.1 40.0301 94.6256 62.3104 87.635 73.0617C80.6445 83.813 76.4231 92.688 52.2095 89.1042Z" fill="white"/>
<path d="M93.393 76.8821C92.1435 76.7131 91.2654 75.7495 90.6069 74.2112L88.1248 68.3791C89.5845 68.8479 91.1238 69.0162 92.6502 68.8739C94.1766 68.7315 95.6584 68.2815 97.0065 67.5508C98.5253 66.6407 99.8167 65.3957 100.782 63.9104C101.748 62.4252 102.362 60.739 102.579 58.9801L105.584 62.9865C107.273 65.218 107.644 65.742 106.766 68.3284C105.476 71.0033 103.371 73.1992 100.755 74.6C98.695 75.7495 95.8414 77.2033 93.393 76.8821Z" fill="#E5B656" stroke="#672938" stroke-width="2.52" stroke-linecap="round" stroke-linejoin="round"/>
<path d="M97.0065 67.5508C95.6584 68.2815 94.1766 68.7316 92.6502 68.8739C91.1238 69.0163 89.5845 68.848 88.1248 68.3792L84.1736 59.0985C86.6977 59.5738 89.3084 59.1491 91.5525 57.8983C94.0998 56.4167 95.9575 53.9855 96.7194 51.1364L102.579 58.9464C102.367 60.7112 101.755 62.4041 100.789 63.8956C99.8235 65.387 98.5295 66.6373 97.0065 67.5508V67.5508Z" fill="#E5B656" stroke="#672938" stroke-width="2.52" stroke-linecap="round" stroke-linejoin="round"/>
<path d="M84.1735 59.0985L80.1379 49.615C82.3518 49.7731 84.5595 49.2317 86.4498 48.0671C88.34 46.9025 89.8177 45.1735 90.6744 43.1237L96.7194 51.1702C95.9575 54.0193 94.0998 56.4505 91.5524 57.9321C89.3042 59.1714 86.6938 59.584 84.1735 59.0985V59.0985Z" fill="#E5B656" stroke="#672938" stroke-width="2.52" stroke-linecap="round" stroke-linejoin="round"/>
<path d="M80.1379 49.615L76.0347 39.9625C77.7484 39.8707 79.4137 39.3606 80.8852 38.4767C82.3568 37.5927 83.5901 36.3617 84.4774 34.8911L90.6574 43.1405C89.8007 45.1904 88.3231 46.9194 86.4328 48.084C84.5425 49.2486 82.3349 49.79 80.121 49.6319L80.1379 49.615Z" fill="#E5B656" stroke="#672938" stroke-width="2.52" stroke-linecap="round" stroke-linejoin="round"/>
<path d="M76.0347 39.9625L71.864 30.1578C74.3563 29.7546 76.6084 28.4343 78.1792 26.4557L84.4943 34.908C83.607 36.3786 82.3738 37.6096 80.9022 38.4936C79.4306 39.3775 77.7653 39.8876 76.0516 39.9794L76.0347 39.9625Z" fill="#E5B656" stroke="#672938" stroke-width="2.52" stroke-linecap="round" stroke-linejoin="round"/>
<path d="M71.8641 30.1578L67.761 20.5222C69.3174 20.0631 70.7455 19.247 71.9317 18.1386L78.1793 26.4557C76.6085 28.4344 74.3564 29.7546 71.8641 30.1578V30.1578Z" fill="#E5B656" stroke="#672938" stroke-width="2.52" stroke-linecap="round" stroke-linejoin="round"/>
<path d="M67.7611 20.4546L59.9431 2.07925L71.9318 18.071C70.7455 19.1793 69.3175 19.9955 67.7611 20.4546V20.4546Z" fill="#E5B656" stroke="#672938" stroke-width="2.52" stroke-linecap="round" stroke-linejoin="round"/>
<path d="M25.4989 173.053C27.255 172.123 27.4916 169.122 26.0273 166.348C24.563 163.575 21.9524 162.08 20.1963 163.01C18.4402 163.939 18.2036 166.94 19.6679 169.714C21.1322 172.487 23.7428 173.982 25.4989 173.053Z" fill="#672938"/>
<path d="M34.9189 187.709C34.9189 187.709 26.2061 196.33 11.5158 190.616C9.9333 189.954 8.44566 189.084 7.0918 188.03" stroke="#672938" stroke-width="2" stroke-linecap="round" stroke-linejoin="round"/>
<path d="M32.6899 167.525C32.6899 167.525 33.0614 156.672 20.9714 156.486Z" fill="white"/>
<path d="M32.6899 167.525C32.6899 167.525 33.0614 156.672 20.9714 156.486" stroke="#672938" stroke-width="2" stroke-linecap="round" stroke-linejoin="round"/>
<path d="M134.104 113.328C134.104 113.328 126.64 128.019 113.199 117.69" stroke="#672938" stroke-width="3" stroke-linecap="round" stroke-linejoin="round"/>
<path d="M132.094 116.709L135.741 121.477" stroke="#672938" stroke-width="3" stroke-miterlimit="10" stroke-linecap="round"/>
<path d="M127 120.5L128.447 125.043" stroke="#672938" stroke-width="3" stroke-miterlimit="10" stroke-linecap="round"/>
<path d="M120.5 121.5L119.582 126.21" stroke="#672938" stroke-width="3" stroke-miterlimit="10" stroke-linecap="round"/>
<path d="M115 119.5L113.47 123.285" stroke="#672938" stroke-width="3" stroke-miterlimit="10" stroke-linecap="round"/>
<path d="M131.487 105.704C131.487 105.704 116.29 96.5084 112.913 108.544" stroke="#672938" stroke-width="3" stroke-linecap="round" stroke-linejoin="round"/>
<path d="M169.36 82.5621C170.188 67.8551 171.387 59.893 168.837 47.2145L164.869 21.6548C164.44 20.8682 163.804 20.2144 163.03 19.7644C162.256 19.3143 161.373 19.0853 160.479 19.1022V19.1022C157.98 19.1022 149.199 42.1939 144.775 54.213C143.967 56.4088 143.678 58.7626 143.933 61.0889C144.188 63.4151 144.979 65.6504 146.244 67.6184" fill="#F0CBFF"/>
<path d="M169.36 82.5621C170.188 67.8551 171.387 59.893 168.837 47.2145L164.869 21.6548C164.44 20.8682 163.804 20.2144 163.03 19.7644C162.256 19.3143 161.373 19.0853 160.479 19.1022V19.1022C157.98 19.1022 149.199 42.1939 144.775 54.213C143.967 56.4088 143.678 58.7626 143.933 61.0889C144.188 63.4151 144.979 65.6504 146.244 67.6184" stroke="#672938" stroke-width="4" stroke-linecap="round" stroke-linejoin="round"/>
<g style="mix-blend-mode:multiply" opacity="0.81">
<path d="M150.314 70.171L156.747 79.3333C157.006 79.7064 157.374 79.9905 157.8 80.1472C158.226 80.304 158.69 80.3256 159.129 80.2093C159.568 80.0931 159.96 79.8444 160.253 79.4972C160.546 79.15 160.725 78.7209 160.766 78.2683L161.12 74.5493C162.256 66.6166 162.787 58.6089 162.708 50.5955C162.708 50.5955 162.708 24.7821 161.374 24.816L148.862 59.3352C148.215 61.1251 148.01 63.0447 148.263 64.931C148.515 66.8174 149.219 68.6149 150.314 70.171V70.171Z" fill="#A285B1"/>
</g>
<path d="M89.8134 182.029L89.3406 227.671C97.8163 204.379 114.554 185.023 136.366 173.289L151.935 164.837C146.286 168.762 139.798 171.309 132.989 172.275C126.296 172.973 119.554 173.064 112.845 172.545L89.8134 182.029Z" fill="#672938"/>
<path d="M161.374 24.8159C161.374 24.8159 155.126 55.988 153.37 74.3803C153.37 74.3803 147.409 68.3791 148.169 62.547C148.372 60.9918 148.507 59.8423 148.575 58.9971C148.76 57.1105 149.215 55.2603 149.925 53.5031L161.374 24.8159Z" fill="#672938"/>
<g style="mix-blend-mode:multiply" opacity="0.81">
<path d="M125.509 133.208C117.387 134.73 111.815 126.108 112.929 132.109C114.044 138.111 119.397 142.573 127.501 141.069C135.606 139.564 137.025 133.276 135.944 127.275C134.864 121.274 133.614 131.687 125.509 133.208Z" fill="#CDB1DA"/>
</g>
<path opacity="0.48" d="M144.067 65.5658C144.067 65.5658 109.435 80.9659 106.227 83.6706C103.018 86.3754 134.932 62.6075 134.932 62.6075L135.658 62.3708C137.2 61.8466 138.876 61.8791 140.397 62.4626C141.917 63.0462 143.186 64.144 143.982 65.5658H144.067Z" fill="white"/>
<path d="M170.5 143.5L174.5 231H165V154L170.5 143.5Z" fill="white"/>
<path d="M160.5 20.5C162.442 22.63 163.062 25.8133 163.417 28.6702C164.008 33.319 165.105 37.5282 165.663 42.1939C166.22 46.8596 166.625 51.3055 166.845 55.8866C167.03 58.5825 167.03 61.288 166.845 63.9839C165.899 73.7379 165.156 86.1966 165.156 86.1966C165.156 86.1966 169.192 127.495 163.13 140.9C157.068 154.305 146.768 159.396 132.5 171.5C132.5 171.5 155.633 167.271 166.507 145.785C170.426 137.232 171.882 127.754 170.711 118.417C169.749 109.254 169.242 100.041 168.888 90.8285C168.753 87.4476 168.516 84.0666 168.651 80.5843C168.888 75.2086 169.158 70.6274 169.411 65.2518C169.481 60.1506 169.051 55.0549 168.128 50.0376C167.351 44.8648 166.439 39.4384 165.882 34.2318C165.498 30.8234 164.935 27.4378 164.194 24.089C164.176 23.6862 164.075 23.2913 163.897 22.9294C163.719 22.5674 163.5 22 163.5 21.5C163.192 21.2396 162.386 20.6152 162 20.5C161.614 20.3848 160.9 20.4506 160.5 20.5Z" fill="white"/>
<g style="mix-blend-mode:multiply">
<path d="M63.4551 8.18182L92.4642 75.7157C92.4642 75.7157 96.5842 77.085 98.0363 74.5324L63.4551 8.18182Z" fill="#CDB1DA"/>
</g>
</svg>
