<svg width="142" height="254" viewBox="0 0 142 254" fill="none" xmlns="http://www.w3.org/2000/svg">
<path d="M53.8831 75.9387C53.8831 75.9387 -2.64868 114.446 2.8638 155.169C8.37627 195.892 48.9335 218.123 21.2222 238.419C0.695222 253.471 92.6525 244.952 92.6525 244.952L110.746 246.011L93.8941 71.9027C93.8941 71.9027 65.2723 67.9495 53.8831 75.9387Z" fill="#DE2E5C" stroke="#672938" stroke-width="3" stroke-linecap="round" stroke-linejoin="round"/>
<path d="M130.594 96.4988C130.594 96.4988 147.148 61.0189 135.196 35.0995C135.196 35.0995 118.361 43.8827 110.365 85.6316L130.594 96.4988Z" fill="#F0CBFF" stroke="#672938" stroke-width="3" stroke-linecap="round" stroke-linejoin="round"/>
<path d="M28.3071 94.5966C28.3071 94.5966 11.389 58.6866 24.45 33.3958C24.45 33.3958 40.8716 42.9068 47.0793 84.9699L28.3071 94.5966Z" fill="#F0CBFF" stroke="#672938" stroke-width="3" stroke-linecap="round" stroke-linejoin="round"/>
<path d="M39.3322 244.423L41.8981 154.21H113.924L116.49 244.423C116.904 253.884 38.9184 253.884 39.3322 244.423Z" fill="#F0CBFF" stroke="#672938" stroke-width="3" stroke-linecap="round" stroke-linejoin="round"/>
<g style="mix-blend-mode:multiply" opacity="0.81">
<path d="M43 165.5L40.7656 245.307C40.7656 245.307 44.8544 247.904 55.3166 248.814C55.3166 248.814 56.972 204.65 60.1669 198.315C63.3618 191.98 49.6547 152.416 43 165.5Z" fill="#CDB1DA"/>
</g>
<path d="M115 244.5L113 167L109.786 167.508L108.5 247.5C108.5 247.5 113.626 246.286 115 244.5Z" fill="white"/>
<path d="M78.085 64.9225C61.3655 64.9225 24.3508 70.1329 24.3508 113.304C24.3508 139.356 24.7978 153.465 38.6203 161.703C46.4173 166.367 48.5527 174.092 48.172 182.693C47.5926 199.531 50.7544 226.84 73.4003 226.84H85.5012C108.677 226.84 109.538 197.629 108.495 180.973C107.882 171.28 109.554 166.235 117.649 160.859C129.75 152.837 131.803 138.182 131.803 113.304C131.803 70.1329 94.788 64.9225 78.085 64.9225Z" fill="#F0CBFF" stroke="#672938" stroke-width="3" stroke-linecap="round" stroke-linejoin="round"/>
<path d="M113.459 161.477C113.459 161.477 123.491 150.278 124.434 146.59C126.353 138.822 127.244 130.837 127.083 122.837C126.553 114.071 126.984 104.642 125.08 97.1826C123.176 89.7227 111.903 80.0795 107.218 76.3743L105 73.8436V71.5C105 71.5 119 76.3743 124.517 89.2596C130.112 100.557 129.732 101.831 130.328 115.543C130.94 129.536 128.325 142.934 126.106 148.062C123.393 153.742 118.971 158.432 113.459 161.477Z" fill="white"/>
<path d="M61.5808 97.3755L66.9112 174.621L90.3351 174.985L94.9536 98.0867L61.5808 97.3755Z" fill="white" stroke="#672938" stroke-width="0.95" stroke-miterlimit="10"/>
<path d="M60.9186 59.249C55.1081 66.0142 53.2541 72.614 55.4061 81.9761C60.6537 104.868 90.2853 111.749 90.2853 111.749C90.2853 111.749 81.28 97.8056 82.3891 89.7337C82.3891 89.7337 91.6262 116.1 108.445 125.131C108.445 125.131 102.32 108.177 102.949 92.2975C103.578 76.4184 106.392 63.4669 92.934 55.0146C89.7847 52.9678 86.2117 51.6617 82.484 51.1947C78.7564 50.7277 74.9713 51.1119 71.4138 52.3185C67.3538 53.6405 63.7273 56.0353 60.9186 59.249V59.249Z" fill="#DE2E5C" stroke="#672938" stroke-width="3" stroke-linecap="round" stroke-linejoin="round"/>
<path d="M107.336 115.438C107.336 115.438 117.599 125.181 125.545 112.973" stroke="#672938" stroke-width="2.52" stroke-linecap="round" stroke-linejoin="round"/>
<path d="M109.935 117.605L108.346 122.517" stroke="#672938" stroke-width="2.52" stroke-linecap="round" stroke-linejoin="round"/>
<path d="M115.315 119.672L115.282 123.311" stroke="#672938" stroke-width="2.52" stroke-linecap="round" stroke-linejoin="round"/>
<path d="M120.778 117.952L122.814 121.724" stroke="#672938" stroke-width="2.52" stroke-linecap="round" stroke-linejoin="round"/>
<path d="M125.181 115.421L126.936 117.605" stroke="#672938" stroke-width="2.52" stroke-linecap="round" stroke-linejoin="round"/>
<g style="mix-blend-mode:multiply" opacity="0.81">
<path d="M51.7642 74.7477L53.4999 70.5C53.4999 70.5 34.86 76.6995 28.9999 93.4223C23.1398 110.145 26.9999 139.5 26.9999 139.5C26.9999 139.5 28.5378 154.012 38.9999 160C49.462 165.988 49.4999 177 49.4999 177C49.4999 177 49.5992 185.374 49.4999 188.5C49.4006 191.626 51.4497 204.041 51.3834 205L53.0388 193.411C53.0388 193.411 55.3564 174.092 51.3834 166.284C47.4105 158.477 39.6632 156.145 36.6008 151.712C33.5383 147.279 31.8332 144.318 31.4194 129.431C31.0055 114.545 31.5187 98.5003 34.7301 93.4223C37.9416 88.3442 38.8852 84.6722 51.7642 74.7477Z" fill="#CDB1DA"/>
</g>
<path d="M105.901 201.847C105.901 215.857 98.0379 226.215 78.9015 226C61.2715 225.802 52.1172 215.857 52.1172 201.847C52.1172 187.837 48.6905 173 78.9015 173C108.467 173 105.901 187.837 105.901 201.847Z" fill="white" stroke="#672938" stroke-width="0.95" stroke-miterlimit="10"/>
<path d="M31.0222 115.438C31.0222 115.438 41.3022 125.181 49.2316 112.973" stroke="#672938" stroke-width="2.52" stroke-linecap="round" stroke-linejoin="round"/>
<path d="M33.6378 117.605L32.0486 122.517" stroke="#672938" stroke-width="2.52" stroke-linecap="round" stroke-linejoin="round"/>
<path d="M39.0343 119.325L38.9846 123.311" stroke="#672938" stroke-width="2.52" stroke-linecap="round" stroke-linejoin="round"/>
<path d="M44.5798 118.085L46.5001 121.724" stroke="#672938" stroke-width="2.52" stroke-linecap="round" stroke-linejoin="round"/>
<path d="M48.0894 114.892L50.6221 117.605" stroke="#672938" stroke-width="2.52" stroke-linecap="round" stroke-linejoin="round"/>
<path d="M91.0966 195.363C93.885 195.363 96.1455 192.845 96.1455 189.739C96.1455 186.633 93.885 184.115 91.0966 184.115C88.3081 184.115 86.0476 186.633 86.0476 189.739C86.0476 192.845 88.3081 195.363 91.0966 195.363Z" fill="#672938"/>
<path d="M64.6433 195.363C67.5506 195.363 69.9075 192.845 69.9075 189.739C69.9075 186.633 67.5506 184.115 64.6433 184.115C61.736 184.115 59.3792 186.633 59.3792 189.739C59.3792 192.845 61.736 195.363 64.6433 195.363Z" fill="#672938"/>
<path d="M31.0386 106.771C31.0386 106.771 39.8287 95.0763 47.2946 105.117" stroke="#672938" stroke-width="2.52" stroke-linecap="round" stroke-linejoin="round"/>
<path d="M107.667 107.432C107.667 107.432 113.527 96.7966 123.377 106.506" stroke="#672938" stroke-width="2.52" stroke-linecap="round" stroke-linejoin="round"/>
<path d="M79.4094 75.7733C76.9538 75.7878 74.5853 74.8648 72.7878 73.1929C73.2882 73.8392 73.8924 74.3981 74.5757 74.847C76.0149 75.7747 77.7025 76.243 79.4145 76.1898C81.1264 76.1367 82.7816 75.5645 84.1604 74.5492C84.5408 74.292 84.8907 73.9923 85.2033 73.656C83.5627 74.9883 81.5231 75.7336 79.4094 75.7733Z" fill="#E5B656" stroke="#DE2E5C" stroke-width="3" stroke-linecap="round" stroke-linejoin="round"/>
<path d="M85.137 73.4576C85.7983 72.824 86.305 72.0469 86.6179 71.1865C86.9307 70.3261 87.0414 69.4053 86.9414 68.4953L86.2461 62.9872C85.3708 63.9834 84.3012 64.7906 83.1029 65.3594C81.9046 65.9283 80.6027 66.2468 79.2769 66.2954C77.7556 66.2778 76.2584 65.9141 74.8988 65.232C73.5393 64.5499 72.3531 63.5673 71.4303 62.3587L70.9337 66.6262C70.7861 67.8016 70.8803 68.9947 71.2105 70.1324C71.5407 71.2701 72.1 72.3284 72.8539 73.2425C73.8927 74.2859 75.1751 75.0545 76.5854 75.479C77.9957 75.9035 79.4896 75.9705 80.9323 75.674C82.5267 75.3792 83.9934 74.6061 85.137 73.4576V73.4576Z" fill="#E5B656" stroke="#672938" stroke-width="2" stroke-linecap="round" stroke-linejoin="round"/>
<path d="M79.277 66.2954C80.6028 66.2468 81.9047 65.9283 83.103 65.3594C84.3014 64.7906 85.3709 63.9834 86.2462 62.9872L85.1536 54.3861C83.4844 55.8383 81.3574 56.6579 79.1446 56.7018C76.6205 56.7042 74.1959 55.7185 72.3906 53.956L71.4304 62.2264C72.3395 63.4593 73.5197 64.4673 74.8801 65.1728C76.2404 65.8782 77.7447 66.2623 79.277 66.2954V66.2954Z" fill="#E5B656" stroke="#672938" stroke-width="2" stroke-linecap="round" stroke-linejoin="round"/>
<path d="M85.1537 54.4191L84.0446 45.636C82.4669 46.7112 80.5918 47.2655 78.6826 47.221C76.7734 47.1765 74.9262 46.5354 73.4004 45.3879L72.3906 53.9891C74.196 55.7516 76.6206 56.7373 79.1446 56.7348C81.3575 56.691 83.4845 55.8713 85.1537 54.4191V54.4191Z" fill="#E5B656" stroke="#672938" stroke-width="2" stroke-linecap="round" stroke-linejoin="round"/>
<path d="M84.0446 45.636L82.9189 36.6874C81.6007 37.3673 80.1356 37.7138 78.6522 37.6965C77.1688 37.6792 75.7122 37.2987 74.4102 36.5882L73.4004 45.3879C74.9262 46.5354 76.7734 47.1765 78.6826 47.221C80.5918 47.2655 82.4669 46.7112 84.0446 45.636V45.636Z" fill="#E5B656" stroke="#672938" stroke-width="2" stroke-linecap="round" stroke-linejoin="round"/>
<path d="M82.9189 36.6874L81.7601 27.6231C80.795 27.9796 79.7762 28.1698 78.7473 28.1855C77.6168 28.2054 76.493 28.0089 75.4365 27.6065L74.4102 36.522C75.7122 37.2325 77.1687 37.613 78.6522 37.6303C80.1356 37.6476 81.6006 37.3012 82.9189 36.6212V36.6874Z" fill="#E5B656" stroke="#672938" stroke-width="2" stroke-linecap="round" stroke-linejoin="round"/>
<path d="M81.76 27.6231L80.6343 18.6911C79.9772 18.8462 79.3061 18.9349 78.6313 18.9557C77.9132 18.9559 77.1971 18.8782 76.4958 18.7241L75.4529 27.6065C76.5094 28.0089 77.6332 28.2054 78.7637 28.1855C79.787 28.1679 80.8 27.9778 81.76 27.6231V27.6231Z" fill="#E5B656" stroke="#672938" stroke-width="2" stroke-linecap="round" stroke-linejoin="round"/>
<path d="M80.6343 18.6911L78.4658 1.65408L76.4958 18.7242C77.1972 18.8783 77.9132 18.9559 78.6313 18.9557C79.3062 18.9349 79.9772 18.8462 80.6343 18.6911V18.6911Z" fill="#E5B656" stroke="#672938" stroke-width="2" stroke-linecap="round" stroke-linejoin="round"/>
<path d="M51.3835 207.554C66.1662 221.712 87.0905 224.094 105.896 209.042" stroke="#672938" stroke-width="1.26" stroke-linecap="round" stroke-linejoin="round"/>
<path d="M89.623 178.921C91.9771 178.912 94.2579 179.738 96.0589 181.253C97.8598 182.768 99.0638 184.873 99.4561 187.192L99.8865 189.59" stroke="#672938" stroke-width="1.26" stroke-linecap="round" stroke-linejoin="round"/>
<g style="mix-blend-mode:multiply" opacity="0.81">
<path d="M27.9999 89.5L26 85C20.4015 73.9969 19.9839 51.9937 23 39L38 71V76.5L33.4187 81.1085L27.9999 89.5Z" fill="#A285B1"/>
</g>
<path d="M66.4974 178.921C64.1434 178.912 61.8625 179.738 60.0616 181.253C58.2606 182.768 57.0567 184.873 56.6643 187.192L56.2505 189.59" stroke="#672938" stroke-width="1.26" stroke-linecap="round" stroke-linejoin="round"/>
<path d="M23.8708 35.3311C23.8708 35.3311 26.7016 54.8161 29.7972 59.3317C32.8928 63.8474 39.3654 71.0757 38.8025 75.5913" fill="#F0CBFF"/>
<path d="M23.8708 35.3311C23.8708 35.3311 26.7016 54.8161 29.7972 59.3317C32.8928 63.8474 39.3654 71.0757 38.8025 75.5913" stroke="#672938" stroke-width="2" stroke-linecap="round" stroke-linejoin="round"/>
<path d="M117.781 76.9311L125.711 63.6985C127.537 60.691 128.605 57.2852 128.823 53.774C129.088 49.1095 130.247 41.9804 134.617 37.0844" fill="#F0CBFF"/>
<path d="M117.781 76.9311L125.711 63.6985C127.537 60.691 128.605 57.2852 128.823 53.774C129.088 49.1095 130.247 41.9804 134.617 37.0844" stroke="#672938" stroke-width="2" stroke-linecap="round" stroke-linejoin="round"/>
<path d="M128.773 90.406C128.773 90.406 135.086 71.1862 135.5 65C135.914 58.8138 133.557 40.5 133.557 40.5L135 38.5C135 38.5 139 47.5 137.5 62.5C137.5 71.8645 134.402 83.5085 130.031 93.7803L128.773 90.406Z" fill="white"/>
<path opacity="0.48" d="M86 53C86 53 100.833 58.2344 101.743 70.9047C102.2 75.7293 102.2 80.5863 101.743 85.4109C101.39 88.3689 101.252 91.3485 101.329 94.3264C101.329 96.5098 101.511 99.1894 101.66 102.167C101.763 104.103 102.023 106.028 102.438 107.923C103.216 111.363 104.458 116.855 104.673 117.566C104.988 118.625 99.2435 101.406 97.7702 94.4091C96.2969 87.4124 99.4256 80.184 97.7702 71.4505C95.9789 62 86.5 57.5 86.5 57.5L86 53Z" fill="white"/>
<g style="mix-blend-mode:multiply" opacity="0.81">
<path d="M114.5 73.5C114.5 73.5 122 49 130.5 41C129.636 44.2787 127.549 52.6099 127.5 56C127.649 60.0029 117.5 75.5 117.5 75.5L114.5 73.5Z" fill="#CDB1DA"/>
</g>
<g style="mix-blend-mode:multiply" opacity="0.46">
<path d="M69.5927 55.6266C66.0099 57.3776 62.9648 60.0602 60.7774 63.3926C58.5899 66.7251 57.3406 70.5845 57.1607 74.5658C56.2006 88.8239 68.9968 100.436 76.3964 102.966L85.0542 107.515C85.0542 107.515 77.1248 101.18 69.841 83.3324C62.5573 65.4849 69.5927 55.6266 69.5927 55.6266Z" fill="#DE2E5C"/>
</g>
<g style="mix-blend-mode:multiply" opacity="0.81">
<path d="M64.681 175C64.681 175 57.2814 178.474 56.404 184.924C55.5267 191.375 55.7584 209.835 59.4665 214.582C61.0801 217.978 63.2954 221.055 66.0053 223.663C61.9618 221.478 58.3062 219.351 55.7584 214.698C50.4777 207.933 52.3062 186.851 52.3062 186.851C53.1218 184.287 54.8062 179.351 57.5543 178.481C59.5714 176.698 62.0343 175.495 64.681 175Z" fill="#CDB1DA"/>
</g>
<g style="mix-blend-mode:multiply">
<path d="M77.1249 73.7553L78.3995 15.5483L72.4732 67.354C72.4732 67.354 72.1256 73.0606 77.1249 73.7553Z" fill="#CDB1DA"/>
</g>
<g style="mix-blend-mode:multiply" opacity="0.46">
<path d="M20.7682 109.516C20.7682 109.516 -4.31105 134.857 6.81323 165.259C17.9375 195.661 27.8037 199.895 32.4553 220.869C34.014 229.341 26.9145 235.717 20.6536 241.441C20.1144 241.934 20.2739 242.815 20.9633 243.057C23.9755 244.115 27.4315 244.819 30.4999 245C30.4999 245 36.1138 228.461 35.6999 218.9C35.2861 209.34 17.9375 180.741 15.2723 168.633C12.6071 156.525 5.25717 136.958 20.7682 109.516Z" fill="#DE2E5C"/>
</g>
</svg>
