<svg width="1153" height="1313" fill="none" xmlns="http://www.w3.org/2000/svg"><path d="m354.739 889.755-9.15.722c-5.011.395-10.268.631-15.362.86-3.23.145-6.396.287-9.392.465-8.035.477-15.702 1.237-23.141 2.962-2.769.642-5.512 1.938-9.194 3.676l-.326.153c-3.51 1.657-8.009 3.765-12.951 4.582-8.06 1.334-16.184 1.039-23.464.775l-.987-.036c-7.809-.28-14.717-.448-21.361.826-6.616 1.269-13.131 3.867-20.43 6.778l-.803.32c-7.333 2.923-15.525 6.138-24.109 7.375-3.958.571-7.871.441-11.061.336l-.251-.008c-3.465-.115-6.15-.183-8.688.182-13.526 1.949-26.355 5.566-39.694 9.326-6.676 1.882-13.48 3.801-20.564 5.564l-1.812-7.278 1.812 7.278c-1.573.391-3.126.77-4.658 1.143-13.903 3.386-26.073 6.351-35.019 14.754-10.575 9.935-17.609 24.818-20.114 40.962-2.503 16.138-.368 32.808 6.516 46.068 1.387 2.68 4.231 5.04 8.792 8.83l.32.27.089.07c3.91 3.26 9.782 8.14 11.92 15.11l-7.17 2.2 7.17-2.2c2.451 7.99 2.08 16.64 1.551 24.04-.095 1.33-.195 2.63-.293 3.88-.48 6.22-.891 11.53-.335 16.41.972 8.54 5.695 17.16 12.774 23.99 7.082 6.83 15.955 11.32 24.444 12.23 18.685 2 40.334-2.87 58.232-10.59m186.709-242.025-183.74 248.915m183.74-248.915-2.53-8.823m2.53 8.823-2.53-8.823M168.03 1131.78l2.969 6.89m-2.969-6.89 2.969 6.89m-2.969-6.89c2.392-1.03 4.73-2.69 7.877-4.92.393-.28.799-.57 1.219-.86 3.353-2.37 7.811-5.44 12.93-6.81 8.033-2.16 16.868-1.49 24.38-.79.929.09 1.841.17 2.734.26 6.873.66 12.721 1.22 17.948.61 11.724-1.39 22.648-3.4 33.489-7.05 1.958-.66 3.813-1.51 6.055-2.53.832-.38 1.717-.78 2.681-1.21 3.246-1.44 7.228-3.07 11.589-3.69 6.124-.88 12.349-.59 17.789-.32h.112c5.65.28 10.529.52 15.179-.05 5.033-.6 10.105-1.81 15.664-3.16l.483-.12c5.279-1.28 11.017-2.68 16.871-3.44 27.784-3.62 56.203-5.61 84.177-7.57 11.497-.81 22.92-1.61 34.191-2.51 29.259-2.35 59.124-2.2 88.556-2.04 14.794.08 29.478.16 43.92-.08 1.569-.03 3.209-.55 6.2-1.6l.299-.1c2.573-.91 6.415-2.27 10.671-2.24 4.921.03 9.315 1.99 12.207 3.29l.221.1c3.437 1.54 5.326 2.34 7.129 2.48 6.124.49 12.088 1.11 17.963 1.72 9.702 1.01 19.163 1.99 28.708 2.34 4.581.16 9.2.01 14.131-.16 1.114-.04 2.244-.07 3.394-.11 6.075-.18 12.562-.27 19.042.46l-.84 7.45m-554 39.54c3.172-1.37 6.205-3.53 9.233-5.68 3.841-2.73 7.674-5.46 11.767-6.56 7.333-1.96 15.906-1.13 24.454-.3 6.738.65 13.46 1.3 19.546.58 12.019-1.42 23.496-3.51 35-7.38 2.357-.8 4.706-1.87 7.068-2.95 3.905-1.78 7.849-3.58 11.932-4.17 5.438-.78 11.101-.51 16.793-.23 5.403.26 10.831.53 16.117-.11 5.656-.68 11.261-2.04 16.87-3.4 5.387-1.31 10.778-2.62 16.22-3.33 27.551-3.59 55.611-5.56 83.491-7.51 11.551-.81 23.07-1.62 34.509-2.54 28.956-2.32 58.233-2.17 87.459-2.01 14.877.08 29.741.16 44.541-.09 2.966-.04 5.738-1.02 8.487-1.99 2.801-.98 5.578-1.96 8.513-1.94 3.344.02 6.531 1.45 9.758 2.89 2.995 1.34 6.024 2.7 9.242 2.96 5.744.46 11.555 1.06 17.379 1.66 9.922 1.03 19.883 2.06 29.621 2.41 4.869.18 9.808.01 14.754-.15 7.127-.25 14.271-.49 21.246.3m0 0 .84-7.45c6.272.7 12.605 1.93 18.671 3.18 1.177.25 2.341.49 3.493.73 4.893 1.02 9.585 1.99 14.208 2.75 3.045.5 6.288.38 10.456.2l.291-.01c3.839-.17 8.533-.38 13.254.39 33.217 5.44 66.169 11.37 99.338 18.38 7.24 1.53 14.82 2.51 22.767 3.53 1.269.16 2.546.32 3.833.49 9.181 1.2 18.769 2.57 27.85 5.09 24.147 6.68 48.372 13.23 72.76 19.14h.01l.74.18c14.04 3.41 26.86 6.51 37.91 2.47 15.87-5.8 25.03-17.05 29.75-31.03 4.82-14.26 4.97-31.38 2.17-47.92-.31-1.89-1.48-4.16-3.43-7.94-.16-.32-.33-.65-.51-.99-.98-1.92-2.1-4.17-2.94-6.49-.83-2.3-1.56-5.13-1.41-8.2.26-5.25 2.92-9.97 4.62-13l.12-.21c2.11-3.73 3.24-5.8 3.55-7.66v-.01c2.16-12.75 2.68-27.385.15-40.825-2.54-13.458-8.01-25.093-17.3-32.841v-.001c-9.87-8.24-20.78-11.203-34.07-14.81-2.63-.715-5.36-1.456-8.19-2.268-3.99-1.145-7.96-2.347-11.9-3.541-15.467-4.683-30.588-9.262-45.371-9.933-.777-.035-1.549-.072-2.315-.109-6.6-.316-12.717-.61-17.838.44-.408.084-1.07.288-2.178.71-.241.092-.704.275-1.237.485-.838.33-1.85.73-2.454.955-2.35.878-6.676 2.424-11.069 1.569M724.999 1099.13c7.019.79 14.232 2.29 21.41 3.79 4.905 1.02 9.793 2.04 14.59 2.82 3.939.65 7.964.47 11.99.29 4.031-.17 8.062-.35 12.01.3 33.142 5.42 65.976 11.33 99 18.31 7.561 1.6 15.476 2.61 23.401 3.63 10.447 1.34 20.91 2.68 30.599 5.36 24.167 6.69 48.486 13.27 73.001 19.21l1.74.42c13.18 3.21 28.02 6.83 41.26 1.98 36.59-13.38 42.58-52.68 36.74-87.24-.53-3.12-2.27-6.49-4.02-9.87-2.18-4.2-4.36-8.41-4.18-12.13.17-3.49 2.12-6.95 4.1-10.45 1.77-3.13 3.55-6.29 4.1-9.55 4.52-26.792 2.37-62.222-19.74-80.674-11.23-9.38-23.95-12.81-37.29-16.407-2.55-.687-5.12-1.381-7.71-2.123-3.73-1.069-7.51-2.218-11.35-3.381-15.548-4.717-31.834-9.658-47.651-10.376-.765-.035-1.544-.073-2.335-.112-6.422-.315-13.549-.666-19.665.588-1.49.305-3.191.981-4.953 1.68-3.106 1.233-6.398 2.54-9.047 2.024m-1.431 7.362L315.999 661.627c28.918-15.484 58.242-30.262 87.591-45.052 16.151-8.139 32.308-16.281 48.409-24.547 2.949-1.514 5.898-3.019 8.844-4.523 8.75-4.466 17.483-8.924 26.156-13.581 1.186-.637 2.639-1.235 4.168-1.865 3.78-1.558 8.021-3.305 9.804-6.283m428.597 358.805h-.002l1.433-7.362m-1.431 7.362 1.431-7.362m-1.431 7.362c-4.464-.868-7.8-3.816-9.699-5.589-.578-.54-1.319-1.265-1.937-1.87-.347-.34-.655-.642-.873-.851-.836-.801-1.38-1.265-1.771-1.537-6.181-4.306-13.754-7.637-21.289-9.722-7.846-2.171-15.786-2.86-24.271-3.224-2.053-.088-4.167-.156-6.324-.227-6.515-.212-13.43-.438-20.28-1.242-4.922-.578-9.329-2.483-12.747-4.012l-1.075-.482c-3.198-1.437-5.562-2.498-7.985-3.056h-.001c-5.238-1.207-10.784-1.733-16.875-2.237l-1.494-.122c-5.515-.45-11.49-.938-17.336-2.04l-12.308-2.318 7.855-9.755c7.856-9.759 19.205-15.903 28.93-21.168a350.357 350.357 0 0 0 5.355-2.937c11.302-6.372 19.775-12.622 23.565-23.633m90.56 96.022-90.56-96.022m91.991 88.66c-2.818-.548-5.289-2.974-7.645-5.287-1.281-1.257-2.528-2.481-3.779-3.352-6.993-4.872-15.372-8.526-23.576-10.796-10.911-3.02-21.729-3.373-32.604-3.729-6.435-.21-12.89-.421-19.396-1.185-4.053-.476-7.866-2.194-11.678-3.912-3.066-1.382-6.132-2.764-9.322-3.498-6.293-1.449-12.837-1.985-19.386-2.521-2.545-.208-5.091-.416-7.623-.679a37.987 37.987 0 0 0-3.149 3.443L786.999 881l1.389-7.37a87.36 87.36 0 0 0 5.122.797c5.89-4.933 12.84-8.714 19.787-12.492 13.637-7.418 27.258-14.827 32.802-30.935m0 0c1.255-3.647 1.775-7.457 2.294-11.265.448-3.281.895-6.561 1.812-9.735m-4.106 21-7.091-2.441m7.091 2.441-7.092-2.44.001-.001M850.205 810c1.064-3.681 2.982-6.915 4.893-10.138 1.875-3.16 3.743-6.31 4.793-9.862 3.486-11.791 4.765-25.335 5.986-38.274.443-4.692.878-9.305 1.408-13.726.206-1.717.449-3.523.7-5.394 1.588-11.829 3.52-26.22-1.288-36.606-7.484-16.17-27.75-24.99-44.866-32.439-3.827-1.666-7.497-3.263-10.832-4.859-44.418-21.254-88.632-44.213-132-67.542M850.205 810 843 807.919c1.33-4.606 3.663-8.537 5.471-11.586l.121-.203c1.982-3.342 3.357-5.719 4.107-8.257 3.264-11.038 4.437-23.465 5.635-36.153.459-4.854.921-9.746 1.505-14.613.231-1.927.491-3.861.752-5.806.654-4.872 1.317-9.811 1.563-14.868.341-7.035-.246-12.926-2.263-17.283-3.548-7.665-11.149-13.832-21.242-19.369-4.954-2.718-10.244-5.146-15.559-7.486-1.369-.602-2.753-1.205-4.136-1.807-3.87-1.684-7.726-3.362-11.192-5.021-44.561-21.322-88.887-44.341-132.316-67.702l3.553-6.605M850.205 810 544.923 374.214c4.251-1.735 10.453-2.594 17.5-2.696 6.9-.1 13.953.529 19.501 1.333 5.089.737 14.035 5.071 22.802 11.541 4.231 3.121 8.113 6.519 11.17 9.827 3.141 3.4 5.031 6.3 5.811 8.396 1.875 5.04 2.445 11.146 2.424 18.133-.011 3.456-.161 6.957-.317 10.552l-.006.137c-.152 3.493-.309 7.104-.309 10.563v111c0 .686-.044 1.494-.107 2.648l-.004.065c-.06 1.096-.133 2.456-.13 3.845.006 2.546.23 6.517 2.311 10.041l6.458-3.812m46.972 25.373c-4.887-2.629-9.898-5.042-14.911-7.456-6.793-3.272-13.59-6.545-20.089-10.361-1.085-.637-2.374-1.221-3.71-1.827-3.196-1.449-6.662-3.02-8.262-5.729m46.972 25.373-3.553 6.605c-4.727-2.543-9.565-4.873-14.581-7.289l-2.711-1.308c-5.914-2.858-12.023-5.876-17.952-9.357-.549-.323-1.295-.684-2.417-1.195l-.543-.246c-.93-.422-2.063-.935-3.145-1.483-2.437-1.233-6.227-3.389-8.528-7.287l6.458-3.813m0 0c-1.539-2.608-1.326-6.475-1.14-9.852.058-1.042.112-2.038.112-2.935V442c0-3.295.151-6.767.306-10.319.466-10.73.963-22.188-2.569-31.681-5.073-13.634-31.833-32.558-45.737-34.572-11.689-1.693-29.833-2.68-40.911 1.843-4.91 2.005-9.216 5.567-13.436 9.058-1.916 1.585-3.814 3.155-5.743 4.558l-.979.711c-6.815 4.943-15.561 11.286-18.293 19.402-2.911 8.651-2.421 19.093-1.962 28.88.164 3.494.324 6.904.324 10.12v112c0 .972.066 2.07.135 3.226.217 3.626.468 7.829-1.163 10.55m0 0 6.434 3.854m-6.434-3.854 6.434 3.854m0 0c2.206-3.682 2.399-7.934 2.387-10.615-.007-1.482-.094-2.939-.164-4.117-.076-1.276-.129-2.165-.129-2.898V440c0-3.258-.153-6.66-.307-9.951l-.023-.483c-.149-3.179-.294-6.274-.332-9.342-.082-6.521.346-12.188 1.909-16.832.85-2.525 2.888-5.268 6.104-8.252 2.91-2.7 6.222-5.104 9.519-7.497l.952-.691M507.405 569.63c-2.523 4.212-6.912 6.487-9.656 7.761-1.295.601-2.637 1.154-3.756 1.615l-.559.23c-1.333.552-2.234.945-2.886 1.295l-.001.001c-8.748 4.697-17.581 9.206-26.348 13.681a3733.262 3733.262 0 0 0-8.774 4.487c-16.211 8.322-32.417 16.489-48.587 24.638-29.287 14.758-58.452 29.455-87.298 44.901h-.001c-4.139 2.216-8.61 4.281-12.919 6.272l-1.932.893c-4.994 2.315-9.773 4.591-14.193 7.156-8.853 5.138-15.414 10.959-18.603 19.159-1.751 4.502-2.023 8.605-1.658 13.17.189 2.362.541 4.776.954 7.529l.065.437c.387 2.57.815 5.417 1.108 8.415.409 4.185.757 8.373 1.103 12.537.992 11.943 1.969 23.694 4.322 34.612l249.535-391.467m0 0-4.41-6.063 4.41 6.063Zm-175.112 493.98c-1.951-6.801-7.597-11.285-11.917-14.154-2.318-1.54-4.737-2.915-6.833-4.095l-.504-.283c-1.968-1.107-3.555-2-4.867-2.853a761.323 761.323 0 0 0-5.73-3.681c-14.967-9.551-25.541-16.298-29.516-31.736m59.367 56.802-69.011-88.709m4.136 8.956c-1.267-3.117-2.783-6.202-4.136-8.956m4.136 8.956-6.948 2.825 6.948-2.826v.001Zm0 0c1.682 4.135 2.63 8.454 3.367 12.293.216 1.125.412 2.191.6 3.214.493 2.687.932 5.076 1.541 7.444m-9.644-31.907c-.545-1.11-1.064-2.167-1.53-3.149m1.53 3.149-1.53-3.149m11.174 35.056-7.235 1.863 7.236-1.862-.001-.001Zm-11.174-35.056c-1.727-3.647-3.09-6.981-3.882-10.654l3.882 10.654Z" fill="#fff" stroke="#fff" stroke-width="15"/><path d="M381.999 889c-13.328 1.795-26.757 5.404-40 6.826-11.462 1.232-22.57.398-34 2.549-10.433 1.964-20.027 8.208-30 9.957-11.771 2.064-24.966-1.486-37-.046-18.561 2.219-34.263 11.495-52 15.324-6.486 1.4-13.431-.212-20 .574-11.027 1.321-22.222 4.695-33 7.341-27.91 6.854-70.587 10.383-82.533 41.475-6.473 16.847-7.253 48.5 2.943 64 4.942 7.51 17.756 11.41 20.848 19.04 2.157 5.33.742 13.3.742 18.96 0 22.54-2.749 47.86 22 58.91 19.258 8.59 52.028 1.22 70-8.56 5.95-3.23 10.886-11.2 17.17-13.2 3.51-1.12 8.171 1.61 11.83 1.81 10.904.59 22.064 2.05 33 .75 11.311-1.33 23.235-3.26 34-7.09 6.9-2.46 13.922-6.99 21-8.6 6.129-1.39 12.757 1.89 19 1.46 16.211-1.09 31.225-5.56 47-8.22 8.499-1.43 17.433.48 26-.55 57.744-6.9 116.766-10.92 175-12.25 15.074-.34 30.678 1.91 46 1.52 8.17-.2 15.475-6.46 23-6.58 3.866-.06 8.503 3.75 12 5.29 5.482 2.41 12.026 3.8 18 4.22 15.534 1.09 31.429 2.09 47 2.09 8.891 0 19.284-1.62 28-.28 5.444.84 10.424 3.92 16 4.87 14.74 2.49 29.304 1.81 44 3.59 17.493 2.13 33.87 6.85 51.714 7.72 5.474.27 10.939 3.42 16.286 4.65 12.143 2.79 24.766 4.22 37 6.79 15.848 3.31 32.313 4.71 48 8.05 16.634 3.54 33.234 9.46 50 13.22 20.821 4.68 43.971 15.43 65.001 6.11 25.96-11.51 27.37-49.69 20.98-73.72-1.84-6.94-9.06-13.33-9.69-20-.63-6.56 8.21-14.21 9.95-21 3.99-15.58 3.83-38.949-1.99-54-8.58-22.18-32.54-28.333-53.25-33.235-32.699-7.739-64.712-22.453-95.001-1.765-7.704-22.045-33.886-27.27-54-30.17-7.502-1.081-14.323-2.163-22-1.79-3.368.164-7.287 2.239-10.576 1.519-6.149-1.345-12.108-5.933-18.424-7.683-10.634-2.947-22.039-3.663-33-4.706-6.292-.599-13.78-2.3-20-1.96-8.427.46-15.679 3.8-24 .79v-2c23.472-11.498 45.48-28.563 67.576-42.543 6.937-4.39 14.839-9.074 18.906-16.461 5.791-10.52 4.083-23.337 8.947-33.996 1.961-4.297 5.406-7.453 7.032-12 2.826-7.907 2.76-17.661 3.825-26 1.53-11.994 4.694-23.86 4.714-36 .012-7.399 1.742-17.305-1.863-23.999-9.116-16.934-39.881-25.024-56.137-33.553-41.438-21.742-83.366-42.596-125-63.937-12.658-6.489-25.454-12.678-38-19.377-4.755-2.539-11.788-4.627-15.397-8.768-2.636-3.025-1.603-8.656-1.603-12.366V444c0-11.236 3.254-28.536-1.009-38.999-3.579-8.784-24.784-24.371-33.991-26.367-20.644-4.474-36.985.534-53 12.941-4.962 3.844-11.671 7.207-13.968 13.425-4.032 10.92-1.032 27.438-1.032 39v117c0 3.975.923 9.395-1.603 12.787-3.297 4.425-10.671 6.624-15.397 9.201-12.478 6.804-25.42 12.71-38 19.311-42.465 22.28-85.63 43.636-128 65.592-15.429 7.995-40.798 14.891-51.387 29.113-7.347 9.866-5.186 18.838-3.797 29.996 2.781 22.341 2.25 49.528 14.171 69 7.068 11.546 3.482 27.911 11.872 38.985 18.915 24.968 58.43 30.763 79.141 54.015Z" fill="#393435"/><path d="M544.999 410c7.097 14.533 35.689 14.308 43 0-16.408-9.545-26.765-10.782-43 0Zm-43.667-5.333.334.666-.334-.666Zm130 1 .334.666-.334-.666ZM583.999 674l10.397-6.329.603-16.671V425c-4.083.813-8.732 2.91-10.397 7.09-1.784 4.483-.603 11.15-.603 15.91v226Z" fill="#A39798"/><path d="M585.999 672c9.167-4.377 8-10.987 8-20V487c0-18.261 4.169-42.515-1-60-8.966 3.81-8 10.487-8 19v41c0 61.658 1 123.433 1 185Z" fill="#FFFEFE"/><path d="M539 428v223c0 8.933-1.339 15.722 7 21 5.086-17.207 1-41.031 1-59V486c0-14.633 6.743-50.589-8-58Zm21 7v244h12V435h-12ZM347 733c5.213 6.085 14.152 9.882 21 14 14 8.418 28.163 16.693 42 25.369 20.155 12.637 40.572 24.913 61 37.084 9.723 5.793 20.02 14.79 31 17.91 12.973 3.686 24.455.292 37-.323 10.767-.527 21.665 2.474 32 2.125 4.047-.137 7.84-2.047 12-2.15 15.53-.388 32.782 4.566 48 .181 11.499-3.313 22.792-13.058 33-19.196 23.741-14.275 47.245-28.946 71-43.2 22.748-13.65 45.444-27.407 68-41.376 7.4-4.583 21.505-9.129 26-16.424-19.577-13.153-42.89-22.579-64-33.119-35.115-17.532-70.307-35.268-105-53.583-13.232-6.986-26.491-14.029-40-20.465-2.509-1.196-12.814-8.147-13.307-1.685-.252 3.3.33 15.716 2.335 18.249 2.558 3.231 13.965 3.13 17.972 3.737 13.632 2.067 27.302 7.284 40 12.469 44.636 18.229 89.769 65.56 55.56 114.397-6.536 9.331-14.482 16.809-23.56 23.625-14.005 10.516-30.515 17.545-47 23.197-55.25 18.943-125.813 17.486-179-7.603-16.161-7.623-31.688-16.894-43.833-30.234-5.18-5.689-9.436-18.053-15.557-21.957C409.422 731.357 400.801 733 396 733c-15.686 0-33.607-2.45-49 0Zm46-71v2c9.07 4.309 19.428 9.295 30 5.397 6.897-2.543 12.31-11.331 18-15.936 11.396-9.225 25.26-16.894 39-21.98 9.904-3.667 19.744-7.044 30-9.608 3.718-.929 10.422-.993 13.258-3.731 4.59-4.432.858-16.535.742-22.142-14.577 2.6-29.783 14.145-43 20.753-29.108 14.554-60.501 27.891-88 45.247Z" fill="#A39798"/><path d="M608 596c1.296 6.088 6.873 7.682 12 10.247a1113.241 1113.241 0 0 1 29 15.061c41.992 22.575 84.827 43.661 127 65.911 11.933 6.296 23.994 12.373 36 18.523 5.135 2.631 10.305 6.034 15 1.258-48.697-25.52-97.822-50.38-147-74.969-23.031-11.515-47.255-28.903-72-36.031Z" fill="#FFFEFE"/><path d="m691 596 1 1-1-1Zm3 1 1 1-1-1Zm-257 1 1 1-1-1Z" fill="#A39798"/><path d="m438 598 1 1-1-1Z" fill="#F36572"/><path d="m695 598 1 1-1-1Zm-261 1 1 1-1-1ZM730 616l1 1-1-1Zm-330 1 1 1-1-1Z" fill="#A39798"/><path d="m401.668 617.333.666.334-.666-.334ZM516 632v1l7-1h-7Zm101-1v4h1l-1-4Z" fill="#F36572"/><path d="M618 631v4l11 2c-1.524-4.607-6.585-5.252-11-6Z" fill="#F20C26"/><path d="M621 631v1l9 5c.083-5.152-4.653-5.435-9-6Z" fill="#F36572"/><path d="m760 631 1 1-1-1Zm-390 1 1 1-1-1Zm143 0-13 4 3 6c6.027-.384 13-2.771 10-10Z" fill="#A39798"/><path d="M515 633v4c4.664-.042 8.444-.074 10-5l-10 1Z" fill="#F20C26"/><path d="M629 632v6l13 4 3-6-16-4Zm133 0 1 1-1-1Z" fill="#A39798"/><path d="M514 633v5h1l-1-5Z" fill="#F36572"/><path d="m764 633 1 1-1-1Zm-398 1 1 1-1-1Zm400 0 1 1-1-1ZM768 635l1 1-1-1Zm-406 1 1 1-1-1Zm408 0 1 1-1-1Zm-410 1 1 1-1-1Zm128 139c-2.038-2.904-7.475-4.08-8.654-7.327-2.075-5.71 11.189.75 12.654 1.327l-3 7 15 4c-2.56-9.033 7.166-4.573 12-3l-2 6 13 3c1.308-8.203 13.707-7.168 13 1 8.645 2.579 9.283-1.036 16.143-3.311 3.097-1.027 7.584.284 10.857.311l-1 4 13 1-1-4 13-3 1 6 13-1c-.631-7.285 7.462-6.954 13-7v6l13-3c-1.815-7.586 4.777-8.56 11-10l-1 7c31.108-3.101 75.187-30.823 81.621-63 7.986-39.933-40.546-77.405-76.621-81v1l18 15c2.967-4.714 7.661-5.237 11.624-.61 2.599 3.034-.649 6.177 1.123 9.325 4.827 8.574 14.311 13.969 18.983 23.285 13.581 27.079-2.537 54.233-25.73 69.644-51.466 34.198-123.917 32.95-179 9.128-33.819-14.626-61.782-50.696-37.651-85.772 4.48-6.513 10.38-12.222 16.651-17v-2c-6.055-5.895 3.576-10.29 9-11l1 5 19-15c-6.447-2.287-16.106 3.692-22 6.284-20.628 9.072-44.888 24.243-52.63 46.716-13.373 38.816 27.113 78.692 63.63 85Z" fill="#A39798"/><path d="M489 644h1c3.123-3.416 8.825-6.836 12-2 2.589-7.892-11.136-2.686-13 2Zm153-5c4.612-.201 9.51.915 12 5 1.114-5.031-8.891-8.415-12-5Z" fill="#F36572"/><path d="m772.001 637 1 1-1-1Zm-414.333 1.333.666.334-.666-.334Z" fill="#A39798"/><path d="M642 639v3l11 4 1-5-12-2Z" fill="#F20C26"/><path d="m774 638 1 1-1-1Z" fill="#A39798"/><path d="M490 645c4.868-.223 10.259-.916 12-6-5.034.118-10.285.69-12 6Z" fill="#F20C26"/><path d="m347 642 1 1-1-1Zm434 0 1 1-1-1Zm-436 1 1 1-1-1Zm-2 1 1 1-1-1Z" fill="#A39798"/><path d="m654 644 1 1-1-1Z" fill="#393435"/><path d="m785 644 1 1-1-1Zm-444 1 1 1-1-1Zm446 0 1 1-1-1Zm2 1 1 1-1-1Zm-451 1 1 1-1-1Zm271 0c0 7.727 2.283 19.707-.603 26.907-2.558 6.379-19.864 17.755-26.567 19.619-16.52 4.595-32.657-.508-45.869-9.605-6.229-4.288-12.696-7.748-12.961-15.921h-1c-2.016 3.918-6.241 8.687-6.887 13-1.579 10.538 9.996 19.246 17.887 23.445 20.62 10.973 49.513 11.462 71 2.69 11.544-4.713 26.58-14.421 22.853-29.135-1.602-6.323-6.944-11.058-10.853-16 22.684 4.514 30.109 32.401 13.907 47.711-23.387 22.098-64.115 23.332-92.907 13.311-12.856-4.475-28.17-12.934-32.352-27.022-4.919-16.571 10.493-21.873 17.324-33.325C523.86 659.51 523 654.544 523 651c-31.472 4.064-82.402 34.092-63.482 72 12.627 25.301 47.381 37.825 73.482 42.755 41.781 7.893 92.289 5.264 129-18.591 6.075-3.947 12.308-8.693 16.985-14.254 3.478-4.134 6.308-8.858 8.229-13.91 16.681-43.851-47.097-64.884-78.214-72Zm182 0 1 1-1-1Z" fill="#A39798"/><path d="M466.999 657h1c1.059-4.398 5.531-8.254 10-6 1.654-4.387-11.672-1.187-11 6Zm199-9-1 2 1-2Z" fill="#F36572"/><path d="m665 651 11 6 1-1c-2.287-4.473-7.494-8.943-12-5Z" fill="#F20C26"/><path d="m668.668 648.333.666.334-.666-.334Z" fill="#F36572"/><path d="m335 649 1 1-1-1Z" fill="#A39798"/><path d="m467 656 12-4-1-3c-4.796.855-8.701 2.574-11 7Z" fill="#F20C26"/><path d="m670.668 649.333.666.334-.666-.334Zm1.333.667v1l5 5h1l-6-6Z" fill="#F36572"/><path d="m816 660 1 1-1-1Zm3 1 1 1-1-1Zm-508 1 1 1-1-1Z" fill="#A39798"/><path d="M446 672h1l9-9 1 4c2.925-8.59-9.307 1.739-11 5Zm241-10-1 4h1l1-3 9 9c.823-5.332-5.437-9.077-10-10Z" fill="#F36572"/><path d="m820 662 1 1-1-1Zm-511 1 1 1-1-1Z" fill="#A39798"/><path d="M455.001 663c-3.87 3.181-7.751 5.727-6 11h1c3.076-3.113 7.867-6.593 5-11Zm233 0c-.781 5.409 3.911 9.163 9 10-1.36-4.845-4.486-7.893-9-10Z" fill="#F20C26"/><path d="M450 674h-1l-2-2 2 4h1l8-9-8 7Zm237-7 1 1-1-1Z" fill="#393435"/><path d="m299 668 1 1-1-1Z" fill="#A39798"/><path d="m502 670 2 5 6-5h-8Zm133-2-1 1v1l1 1h1l1-1v-1l-2-1Zm53 0 1 1-1-1Z" fill="#393435"/><path d="m833 668 1 1-1-1Z" fill="#A39798"/><path d="M637.999 669c3.718 11.6 14.858 16.671 11.468 31-4.29 18.13-25.189 28.61-41.468 33.41-28.473 8.394-60.031 7.188-87-5.577C509 722.154 494.996 712.375 493.184 698c-1.301-10.328 4.399-16.924 7.815-26-4.928 1.906-8.553 5.277-12.155 9.09-22.465 23.775-6.463 54.106 20.155 65.97 39.677 17.685 91.308 19.308 129.999-2.394 9.969-5.592 21.076-14.56 25.032-25.666 7.076-19.864-6.861-43.368-26.031-50Zm51 0 4 4-4-4Z" fill="#393435"/><path d="m835 669 1 1-1-1Zm2 1 1 1-1-1Z" fill="#A39798"/><path d="M372.999 671.465c-6.467.597-26.24 4.818-18.397 15.321 5.071 6.791 17.873 6.81 25.397 6.11 5.5-.512 19.397-3.85 17.149-11.881-2.266-8.093-17.209-10.192-24.149-9.55Z" fill="#F20C26"/><path d="m291 672 1 1-1-1Z" fill="#A39798"/><path d="m697 672-4 1v1c2.074.507 5.025.756 4-2Z" fill="#393435"/><path d="m841 672 1 1-1-1Zm-551 1 1 1-1-1Zm-3 1 1 1-1-1Z" fill="#A39798"/><path d="M642 678c1.198 5.238 3.29 10.55 2.546 16-2.601 19.048-24.525 28.656-40.546 34-25.532 8.517-53.753 6.355-78-5.223-10.57-5.047-21.634-12.432-26.172-23.777-2.455-6.139-.846-12.628-.828-19h-1c-10.364 21.822 4.752 38.039 24 47.255 30.29 14.502 72.199 13.897 102-1.513 15.41-7.969 36.96-31.487 18-47.742Z" fill="#FFFEFE"/><path d="m279 679 1 1-1-1Zm574 0 1 1-1-1Zm-576 1 1 1-1-1Zm-1 1 1 1-1-1Zm65 8c-14.7 5.012-9.315 22.662 3 26.892 6.982 2.398 15.709 1.108 23 1.108h44l5-36c-11.118.365-5.323 17.251-12.34 24.561C385.981 723.978 341.086 719.033 341 689Zm515-8 1 1-1-1Zm-581 1 1 1-1-1Z" fill="#A39798"/><path d="M433 695h1c.793-2.774 3.504-12.522 7-8h1l-1-5c-5.481 1.715-7.097 7.753-8 13Zm269-9h1l1-3h2l3 7c1.254-5.185-3.775-9.81-7-4Z" fill="#F36572"/><path d="M517 683c1.43 13.961 15.934 21.032 28 24.576 24.775 7.275 71.748 6.997 81-23.576-9.531 4.438-16.71 11.961-27 15.772-28.819 10.673-59.668 3.794-82-16.772Z" fill="#FFFEFE"/><path d="m704 683-1 1 4 11 4-1-5-11h-2ZM434 695h4l3-11c-4.776 1.542-6.175 6.36-7 11Z" fill="#F20C26"/><path d="m703.332 686.667.334.666-.334-.666Z" fill="#393435"/><path d="m440 688 1 1-1-1Z" fill="#F36572"/><path d="m268 689 1 1-1-1Z" fill="#A39798"/><path d="m440 689 1 1-1-1Z" fill="#393435"/><path d="m704 689 1 1-1-1Z" fill="#F36572"/><path d="m439 690 1 1-1-1Z" fill="#393435"/><path d="m705.332 690.667.334.666-.334-.666ZM710 691l2 3-2-3Zm-272 1v3h1l-1-3Z" fill="#F36572"/><path d="m865 692 1 1-1-1Z" fill="#A39798"/><path d="m706.332 693.667.334.666-.334-.666Z" fill="#F36572"/><path d="m866 693 1 1-1-1Z" fill="#A39798"/><path d="m710 694-4 1v1c2.13.311 4.994.649 4-2Z" fill="#393435"/><path d="m867 694 1 1-1-1Z" fill="#A39798"/><path d="m434 697 4-1-4 1Z" fill="#393435"/><path d="M361 703v1c7.687 1.13 21.3 5.589 27-2l-27 1Z" fill="#F20C26"/><path d="M432 707v13h1l-1-11h3l2 11c1.217-5.065.161-11.026-5-13Zm276 8h1l2-7v13h1v-14c-3.498 1.928-3.875 4.122-4 8Z" fill="#F36572"/><path d="m710 708-2 13c5.367-1.781 5.004-9.035 2-13ZM432 709l1 12h4l-2-12h-3Z" fill="#F20C26"/><path d="M707 716v5h1l-1-5Z" fill="#F36572"/><path d="m832 719-75 47.061L650 831v3c10.453 3.729 29.075-13.168 38-18.552 36.092-21.77 72.165-43.669 108-65.872 10.157-6.294 20.773-11.553 30.999-17.721 4.975-3.001 9.158-7.36 5.001-12.855Zm-532 2c-1.337 6.056 3.234 8.398 8 11.15 9.816 5.666 19.337 11.862 29 17.789 34.942 21.433 69.884 42.904 105 64.061 8.831 5.321 27.687 22.428 38 18v-2c-36.709-24.29-75.447-45.809-113-68.745-21.24-12.974-43.769-31.45-67-40.255Z" fill="#A39798"/><path d="M433 721v1h4l-4-1Zm275 0v1h3l-3-1Z" fill="#393435"/><path d="M832 721c-6.757 4.555-18.621 8.705-21 17 6.335-.843 23.973-9.072 21-17Z" fill="#FFFEFE"/><path d="m439 734 11 8c-1.723-3.374-6.798-12.543-11-8Zm256 8h1c1.941-2.697 5.754-10.003 9-6 1.885-8.378-8.733 2.988-10 6Z" fill="#F36572"/><path d="M439 734c1.794 4.665 4.467 9.817 10 9-1.918-4.559-4.511-9.813-10-9Zm257 9 4 1 5-11c-4.935 1.448-7.424 5.248-9 10Z" fill="#F20C26"/><path d="m439 736 1 1-1-1Z" fill="#F36572"/><path d="m440 737 1 1-1-1Z" fill="#393435"/><path d="m704 737 1 1-1-1Z" fill="#F36572"/><path d="m868 737 1 1-1-1Z" fill="#A39798"/><path d="m703 738 1 1-1-1Zm-262 1 1 1-1-1Zm261.333.667.334.666-.334-.666Z" fill="#F36572"/><path d="m264.332 740.667.334.666-.334-.666Z" fill="#A39798"/><path d="m442 740 1 1-1-1Zm1 1 1 1-1-1Z" fill="#F36572"/><path d="m701 741 1 1-1-1Z" fill="#393435"/><path d="M667 876c14.206-4.18 28.51-16.04 41-23.947 23.819-15.078 48-29.66 72-44.441 13.046-8.035 35.217-15.314 44.387-27.797 6.38-8.687 6.772-28.245 7.613-38.815-14.409 1.563-28.766 16.668-41 23.861-30.298 17.814-60.134 36.545-90 55.075-10.233 6.349-30.419 13.592-37.353 23.404-2.302 3.255.478 7.379 1.44 10.66 2.139 7.293 1.913 14.482 1.913 22ZM302 742c.083 9.872.734 28.777 6.653 36.96 8.222 11.368 26.749 17.889 38.347 25.384 24.99 16.151 50.711 31.178 76 46.848 11.344 7.03 24.957 18.816 38 21.808l1.36-19 3.48-11.787-10.84-7.87-32-19.626L340 764l-38-22Z" fill="#A39798"/><path d="M695 742v2h2l-2-2Z" fill="#393435"/><path d="m700 742 1 1-1-1Zm-256 1 1 1-1-1Zm4 0 1 1-1-1Z" fill="#F36572"/><path d="M804 792c6.475-3.059 15.069-7.112 19.347-13.04 5.803-8.041 6.452-26.23 6.653-35.96-25.599 5.871-23.317 27.767-26 49Z" fill="#FFFEFE"/><path d="M445 744v1h3l-3-1Zm252.667.333.666.334-.666-.334Z" fill="#393435"/><path d="m866.332 750.667.334.666-.334-.666Z" fill="#A39798"/><path d="M456 754c5.236-1.166 9.71 1.799 11 7 2.819-5.172-7.289-12.63-11-7Zm220 6h1c1.927-2.769 8.673-10.559 10-4 4.281-6.811-9.078-2.288-11 4Z" fill="#F36572"/><path d="M456 754v1c3.789 2.91 7.086 5.799 12 5v-2c-4.051-2.988-6.971-6.124-12-4Zm221 7c5.12-.748 8.733-3.352 11-8-5.467-.818-9.527 2.86-11 8Z" fill="#F20C26"/><path d="m456 755 1 1-1-1Z" fill="#F36572"/><path d="m457 756 1 1-1-1Zm229 0 1 1-1-1Z" fill="#393435"/><path d="m459 757 1 1-1-1Z" fill="#F36572"/><path d="m685 757 1 1-1-1Zm-225 1 1 1-1-1Zm223.667.333.666.334-.666-.334ZM462 759l1 1-1-1Zm220 0 1 1-1-1Z" fill="#393435"/><path d="m865.332 759.667.334.666-.334-.666Z" fill="#A39798"/><path d="m463 760 1 1-1-1Zm218 0 1 1-1-1Zm-217 1v1h3l-3-1Zm214 0v2l2-2h-2Z" fill="#393435"/><path d="M478 770h1v-4l7 2c-3.569-3.33-7.13-3.207-8 2Zm181-3v1l7-2v4c1.757-5.362-3.662-4.573-7-3Z" fill="#F36572"/><path d="M479 766v4l11 4c-.261-5.811-5.869-7.474-11-8Zm175 4 2 4h1l9-4v-4l-12 4Z" fill="#F20C26"/><path d="m268 771 1 1-1-1Z" fill="#A39798"/><path d="m482 771 1 1-1-1Zm179.667.333.666.334-.666-.334ZM484 772v1l4 1v-1l-4-1Z" fill="#393435"/><path d="m490 772 1 1-1-1Zm164 0 1 1-1-1Z" fill="#F36572"/><path d="M657 773v1l4-1h-4Z" fill="#393435"/><path d="m655 773 1 1-1-1Zm-153 5h1c3.787-2.623 8.644-.76 12 2 .144-5.537-10.504-6.293-13-2Zm128 4h1l-1-4 12-2-1 4h1v-6c-4.961.733-12.949 1.736-12 8Z" fill="#F36572"/><path d="M503 776c1.656 5.117 9.893 8.327 12 2l-12-2Zm127 2c2.035 6.071 10.383 2.921 12-2l-12 2Z" fill="#F20C26"/><path d="m502 778 1 1-1-1Z" fill="#393435"/><path d="m503 779 1 1-1-1Z" fill="#F36572"/><path d="m270.332 782.667.334.666-.334-.666Z" fill="#A39798"/><path d="M528 782c1.729 5.262 7.153 4.96 12 5-1.688-5.102-7.26-4.902-12-5Zm77 5c4.847-.04 10.271.262 12-5-4.74.098-10.312-.102-12 5Z" fill="#F20C26"/><path d="M585 784v1l7 3-1-5-6 1Zm-32 4h1v-3h6c-3.499-1.417-5.807-.596-7 3Z" fill="#F36572"/><path d="M554 785c1.785 5.378 7.394 4.097 12 3v-2l-12-1Z" fill="#F20C26"/><path d="M564 785v1l2 2h1l-3-3Zm14 3h2l2-2-4 2Z" fill="#F36572"/><path d="m579 787 12 2v-4l-12 2Z" fill="#F20C26"/><path d="m271 788 1 1-1-1Zm590 0 1 1-1-1Zm-589 3 1 1-1-1Zm588 0 1 1-1-1Z" fill="#A39798"/><path d="M806 824c6.678-5.271 7.375-13.124 9-21-9.324 1.899-9.894 12.999-9 21Z" fill="#FFFEFE"/><path d="m835 849 4-4-4 4Z" fill="#F36572"/><path d="m294 846 1 1-1-1Zm1 1 1 1-1-1Zm1 1 1 1-1-1Zm1 1 1 1-1-1Z" fill="#A39798"/><path d="M541.279 859.742C536.669 861.963 538 869.865 538 874c0 11.552 1.006 27.55 17.867 20.397C561.294 892.094 560 883.704 560 879c0-11.531 1.919-20.067-12-19.999-2.156.01-4.718-.224-6.721.741ZM584 859v13h7v-13h-7Zm43 22c-.02 5.551-4.476 13.528-6 4h-7c.007 9.058 11.788 17.713 19.397 8.682 3.142-3.729 2.683-14.657-1.625-17.364-3.12-1.96-8.405-.323-9.986-4.465-4.437-11.627 11.941 4.476 12.927-4.911.806-7.673-12.474-9.034-17.565-6.593-4.509 2.162-4.485 13.812-1.545 17.218 2.57 2.976 7.771 3.144 11.397 3.433Zm-131.566-19.972c-3.971 2.733-2.412 10.878-2.318 14.972.25 10.968.864 29.052 17.736 18.825 4.635-2.81 3.177-10.272 2.952-14.825-.583-11.774 3.027-20.1-11.804-19.999-2.111.014-4.729-.238-6.566 1.027Z" fill="#F20C26"/><path d="m819 860 1 1-1-1Zm-504 1 1 1-1-1Zm502 0 1 1-1-1Zm-501 1 1 1-1-1Zm500 0 1 1-1-1Zm-499 1 1 1-1-1Zm2 1 1 1-1-1Z" fill="#A39798"/><path d="M551.999 889v-16c-.004-1.848-.82-12.457-4.977-7.377-4.306 5.262-2.415 22.801 4.977 23.377Z" fill="#393435"/><path d="m321 865 1 1-1-1Z" fill="#A39798"/><path d="M500 875c14.416-.473 1.07-15.772.059-5.005-.155 1.646-.058 3.354-.059 5.005ZM501.599 881.086c-3.554 2.396-.967 12.426 3.802 8.867 3.336-2.489.637-11.86-3.802-8.867Z" fill="#393435"/><path d="M401.999 980c-3.04-2.702-12.254-9.265-12.799-13.104-1.809-12.765 17.079-28.029 10.107-40.788-3.606-6.599-11.263-4.621-17.308-4.197-13.153.921-28.942 1.324-35 15.089h-1c-5.753-14.538-40.638-9.866-49.772.108-4.726 5.162-3.027 13.424-4.228 19.892h-1c-5.355-13.846-19.7-17-33-17-25.584 0-48.105 7.807-67 25-2.857-11.982-14.775-9.023-24-7.26-17.884 3.418-35.28 8.743-53 12.839-8.295 1.918-20.456 3.686-26.786 9.761-7.009 6.728-4.218 20.82-4.214 29.66.002 3.77-.636 8.58 3.148 10.82 6.536 3.87 15.983-.51 22.852-.82v57c0 6.98-1.921 17.5 1.573 23.81 2.79 5.04 9.519 4.59 14.427 3.73 11.062-1.96 31.227-4.43 36.725-15.56 3.099-6.26 2.275-14.21 2.275-20.98v-40c0-5.38-2.21-17.25 1.603-21.49 3.235-3.59 11.016-3.63 15.397-5.51 5.078 21.33-7.785 54.65 7.789 72.67 5.964 6.9 14.932 7.68 23.211 9.13 19.601 3.42 48.192-4.45 64-16.07 6.672-4.91 13.37-11.3 15-19.73h1c.703 5.56-.376 14.55 4.228 18.49 3.974 3.4 10.011 2.61 14.772 1.93 10.744-1.54 27.447-.26 33.312-11.46 4.987-9.52-4.356-32.42 5.688-37.96 0 10.03-3.89 30.55 2.854 38.66 3.477 4.17 9.276 3.36 14.146 3.34 11.154-.05 30.698.61 35-12 8.412 9.1 16.89 6.14 28 6 18.879-.23 38.171-1.59 57-3.09 4.808-.38 9.478-4.6 14-4.28 12.336.89 33.354 8.21 44.956-.28 9.625-7.05 3.589-25.04 6.044-35.35h1c4.435 9.56.237 23.95 5.603 31.96 6.806 10.15 44.869 10.39 49.655-1.96 3.464-8.95.742-23.45.742-33v-58c0-8.628 1.828-19.675-.573-27.999-2.886-10.009-14.213-9.001-22.427-9.001-16.934 0-29-1.223-29 19-6.517-5.272-10.01-13.923-18.015-17.467-7.857-3.478-21.784-2.407-29.985-.395-3.035.745-5.895 3.474-9 3.551-4.487.111-9.126-3.488-14-3.646-13.235-.428-26.881 1.475-40 2.786-11.127 1.113-32.563-2.347-40.487 7.36-3.921 4.803-3.513 12.002-3.513 17.811v38ZM667.001 1004v1c-7.061 0-16.795-1.74-22.725 2.97-7.894 6.27-6.769 34.14.938 40.18 7.139 5.59 17.457 3.37 25.787 3.94 14.947 1.02 32.131 4.44 47 1.4 7.081-1.46 11.693-5.6 18-8.49 2.774 15.32 17.139 13.4 29 15.33 6.887 1.11 15.13 3.9 20.486-2.54 3.101-3.74.696-23.58 5.514-23.58 4.473 0 3.145 19.13 4.804 22.79 5.064 11.18 23.598 11.04 34.196 12.17 5.774.61 11.804 1.68 15-4.17 21.108 14.64 50.94 15.89 76 20.25 8.557 1.49 20.463 7.3 28 .75h1c6.652 8.96 17.798 9.72 28 11.8 14.476 2.95 28.579 7.78 42.999 10.99 6.54 1.46 16.46 6.05 22.58 1.2 4.67-3.7 3.42-11.77 3.42-16.99 0-17.48-4.78-28.32-24-30v-1c18.16-.54 13.44-28.84 8-40 4.36 0 9.96.73 13.35-2.65 6.14-6.14 4.04-30.816-.86-37.307-4.69-6.205-13.45-7.575-20.49-9.595-16.46-4.724-33.253-8.967-49.999-12.528-6.563-1.396-16.914-5.445-22.347.499-3.669 4.013-2.653 10.595-2.653 15.581v39c-7.947-7.23-40.356-19.037-47-6h-1c-1.712-13.544-1-27.351-1-41 0-5.715 1.34-13.769-1.938-18.815-6.046-9.305-29.806-12.241-40.062-12.102-4.032.054-7.761 1.687-9.862 5.246-6.768 11.463-2.138 35.588-2.138 48.671h-1c-3.344-11.786-7.569-23.289-11.138-35-2.185-7.17-3.487-15.228-9.166-20.66-10.675-10.211-33.977-8.114-47.696-9.916-5.664-.743-13.136-1.298-17.61 2.995-4.581 4.396-6.196 12.723-8.097 18.581-3.782 11.653-8.799 22.948-11.293 35l-21-15c5.224-1.544 11.804-.141 16.12-4.214 6.667-6.291 4.763-34.66-2.31-40.083-5.067-3.885-12.809-3.292-18.81-3.873-15.568-1.506-34.697-5.457-50-1.221-35.245 9.756-32.005 79.993 4 86.391Z" fill="#F20C26"/><path d="m995 917 1 1-1-1Zm-866 1 1 1-1-1ZM1004.67 919.333l.66.334-.66-.334Zm-884.002 1 .666.334-.666-.334ZM521 920v1h12l-12-1Zm48.667.333.666.334-.666-.334Z" fill="#A39798"/><path d="M567.001 960c-19.92-9.512-19.046-39-45-39-3.01 0-6.786-.57-9.656.514-6.349 2.398-3.344 20.916-3.344 26.486v66c0 6.42-2.607 20.23 1.028 25.68 3.184 4.77 26.884 3.06 30.23-1 3.365-4.08 1.742-12.74 1.742-17.68 0-12.51-1.904-26.803 1-39 7.392 9.59 18.867 21.71 23.157 33 2.462 6.48-2.597 19.35 2.446 24.4 4.052 4.05 28.184 3.48 29.963-2.46 2.93-9.78.434-23.74.434-33.94v-53c0-7.641 1.684-17.559-.318-24.945-2.238-8.256-15.762-4.399-21.682-4.18-2.838.105-6.823-1.044-8.821 1.654-1.964 2.653-1.179 7.38-1.179 10.471v27Z" fill="#FFFEFE"/><path d="M572 920v1h9l-9-1Zm22.667.333.666.334-.666-.334Zm414.003 0 .66.334-.66-.334ZM534 921l1 1-1-1Zm63 0 1 1-1-1Zm-484 1 1 1-1-1Zm352 0v1h12l-12-1Z" fill="#A39798"/><path d="M444.999 956c7.798-.001 15.246-1.962 23-1.999 5.554-.027 16.123 2.017 20.682-1.743 4.121-3.399 4.44-26.094-.116-29.23-4.234-2.915-11.88-.273-16.566-.067-14.351.628-28.724 1.068-43 2.753-4.347.514-11.063-.715-14.397 2.85-4.169 4.459-1.603 18.636-1.603 24.436v67c0 5.71-2.806 22.25 1.603 26.36 3.315 3.08 12.315-.14 16.397-.32 14.695-.64 29.284-1.69 44-2.06 3.818-.09 12.624.22 14.972-3.3 1.982-2.97 1.028-8.29 1.028-11.68 0-4.22 1.487-12.04-1.603-15.41-4.376-4.78-23.086-.73-29.397-.57-4.525.11-13.081 3.52-15.297-2.14-7.653-19.569 24.148-10.41 31.979-15.893 4.407-3.085 2.772-17.153 2.209-21.968-.738-6.318-7.021-5.019-11.891-5.019-12.749 0-24.133 4.896-22-12Z" fill="#FFFEFE"/><path d="m489 922 1 1-1-1Zm20.667.333.666.334-.666-.334ZM535 922l1 1-1-1Zm32 0 1 1-1-1Z" fill="#A39798"/><path d="M726 958c0-6.379 3.125-24.629-1.603-29.258-3.282-3.212-13.958-2.57-18.397-2.731-15.118-.55-36.844-7.262-48.87 5.093-13.412 13.778-11.001 55.001 6.871 63.634 7.146 3.452 33.614 4.96 34.533 14.262.626 6.33-7.374 6.08-11.534 5.98-7.266-.17-33.487-7.46-36.424 2.08-1.602 5.2-2.526 22.27 2.152 25.91 3.91 3.04 13.491.75 18.272 1.32 17.297 2.04 50.008 9.29 58.518-11.29 6.272-15.17 5.84-46.688-9.522-56.021-8.724-5.3-19.387-5.554-28.995-8.372-3.338-.978-8.016-3.277-7.169-7.588.854-4.353 5.578-4.994 9.168-4.59 10.978 1.235 21.948 1.571 33 1.571ZM335.999 979l-1-43c-6.9.001-25.387-.254-30.062 5.514-3.795 4.683-1.938 14.864-1.938 20.486v55c0 11-.128 22 .004 33 .04 3.33-.268 9.52 4.14 10.13 5.417.74 24.702-1.36 27.538-6.28 2.845-4.94 1.318-13.36 1.318-18.85 0-7.18-3.313-22.66 6.005-24.66 2.584-.55 5.369-.58 7.995-.92 20.927-2.64 2.795 31.84 11.742 40.98 3.612 3.69 12.787 1.22 17.258.77 3.379-.34 7.631.1 10.682-1.68 4.794-2.8 2.318-17.6 2.318-22.49 0-18.39 7.426-48.843-17-52 4.778-14.333 14.948-30.87 15-46-8.052.635-26.925-.384-31.725 7.109-5.86 9.146-8.221 21.822-12.311 31.891-2.333 5.742-2.962 10.467-9.964 11Z" fill="#FFFEFE"/><path d="m1041.67 929.333.66.334-.66-.334ZM83 930l1 1-1-1ZM373.668 930.333l.666.334-.666-.334ZM542.001 930l1 1-1-1Zm115 0 1 1-1-1Z" fill="#A39798"/><path d="M767.394 934.028c-5.201 3.354-7.724 17.243-9.53 22.972-7.218 22.904-11.864 41.871-11.864 66 0 6.75-3.185 24.02 4.059 27.49 3.715 1.78 23.252 5.2 25.913 1.9 5.696-7.05-5.925-27.32 9.029-27.42 2.359-.01 4.668.29 6.999.61 2.63.35 5.428.37 7.981 1.14 10.214 3.08 2.258 21.41 6.533 28.98 2.444 4.32 13.022 4.38 17.486 5.01 3.009.43 8.752 2.09 11.397.1 2.529-1.91 1.603-7.08 1.603-9.81v-27c0-22.4-6.154-40.727-12.445-62-1.862-6.295-3.507-18.107-8.833-22.4-5.101-4.113-14.6-3.179-20.722-4.484-6.295-1.343-21.924-4.754-27.606-1.088Z" fill="#FFFEFE"/><path d="m1070 943 1 1-1-1Zm-308.001 1 1 1-1-1ZM1071 944l1 1-1-1Zm-716.668 1.667.334.666-.334-.666ZM552.999 945l1 1-1-1Zm304 0 1 1-1-1Z" fill="#A39798"/><path d="M909.001 1043c-5.179-.04-15.795-.01-19.397-4.32-3.42-4.08-1.603-13.67-1.603-18.68v-48c0-5.203 2.054-16.029-1.028-20.427-3.226-4.604-20.523-6.287-25.913-6.135-5.707.16-4.059 8.705-4.059 12.562v89c0 4.73-1.713 13.75 1.603 17.57 2.495 2.87 8.826 3.35 12.397 4.06 11.27 2.24 22.706 3.72 34 5.97 7.984 1.59 16.141 2.36 24 4.55 2.862.8 7.678 2.7 10.397.66 3.086-2.33 1.603-10.42 1.603-13.81v-35c0-4.13 1.033-10.21-2.434-13.27-2.76-2.44-7.149-2.46-10.566-3.23-4.02-.9-11.928-4.52-15.772-2.43-6.59 3.58-3.228 24.42-3.228 30.93Z" fill="#FFFEFE"/><path d="m862.667 945.333.666.334-.666-.334ZM1072 945l1 1-1-1ZM55 946l1 1-1-1Z" fill="#A39798"/><path d="M247.001 948.424c-18.788 2.497-41.202 6.889-50.471 25.576-9.254 18.655-3.529 49.58-3.529 70 0 8.23-.557 17.31 5.34 23.9 6.978 7.79 20.003 7.87 29.66 6.93 17.432-1.69 42.432-7 51.334-23.84 10.172-19.26 4.674-49.78 4.666-70.99-.003-8.661-.478-18.911-6.764-25.61-7.159-7.629-20.724-7.23-30.236-5.966Z" fill="#FFFEFE"/><path d="m265.001 948 1 1-1-1Zm290 0 1 1-1-1Zm323.667.333.666.334-.666-.334ZM1075 948l1 1-1-1Zm-836.999 1 1 1-1-1Zm31 0 1 1-1-1Zm551 0 1 1-1-1Zm65 0 1 1-1-1ZM1076 949l1 1-1-1Zm-841.332 1.333.666.334-.666-.334ZM557.001 950l1 1-1-1Zm203 0 1 1-1-1Z" fill="#A39798"/><path d="m382 955-3 11h1l2-11Z" fill="#F36572"/><path d="M485 961c3.531 9.721 7.119 23.606 3.106 33.996-1.513 3.92-5.233 6.294-7.106 10.004l17 2c4.265-14.429 1-33.944 1-49l-14 3Z" fill="#393435"/><path d="m205 962 1 1-1-1Zm174 0 1 1-1-1Zm445 0 1 1-1-1Zm-782 1 1 1-1-1Zm162 0 1 1-1-1Zm78 0 1 1-1-1Zm804 0 1 1-1-1Zm-916 1v1h3l-3-1Z" fill="#A39798"/><path d="m93 1014 25.999-5c5.155 27.77 1 59.75 1 88 7.589-.16 26.195-2.4 31.397-8.43 3.91-4.54 1.603-16.89 1.603-22.57v-43c0-5.69-1.398-13.62.742-18.98 3.581-8.969 17.389-4.932 23.744-10.109 4.289-3.494 2.514-13.029 2.514-17.911 0-2.991.83-7.878-1.179-10.396-3.12-3.909-15.766.635-19.821 1.665-14.602 3.712-29.293 7.86-44 11.069-5.537 1.208-16.179 2.139-20.257 6.39-4.854 5.058-1.743 22.552-1.743 29.272Z" fill="#FFFEFE"/><path d="m179.332 964.667.334.666-.334-.666Zm23.667-.667 1 1-1-1ZM755 964l1 1-1-1ZM1087 964l1 1-1-1ZM41 965l1 1-1-1Zm126 0 1 1-1-1Zm35 0 1 1-1-1Zm176.333.667.334.666-.334-.666ZM684 965l1 1-1-1Zm276 0v1h3l-3-1Zm-799 1 1 1-1-1Zm524 0 1 1-1-1Zm104 0 1 1-1-1ZM792 966l1 1-1-1Z" fill="#A39798"/><path d="M991.999 1046c5.967 2.89 23.331 9.46 29.771 7.29 5.75-1.94 4.26-22.07 1.37-26.06-8.76-12.11-36.67 0-31.141-23.23 6.974 1.81 13.971 3.61 21.001 5.21 5.29 1.2 15.4 6.43 20.68 4.15 4.39-1.9 3.74-25.541.72-28.797-3.67-3.95-13.33-4.968-18.4-6.011-12.69-2.614-25.454-6.287-38.001-9.552-4.421-1.151-14.126-5.313-18.258-1.972-4.507 3.644-1.742 20.564-1.742 25.972v69c0 6.27-2.447 19.61 3.419 23.86 4.83 3.5 13.847 3.53 19.581 4.74 12.414 2.63 24.761 6.45 37.001 9.84 3.79 1.06 16.03 5.9 17.68.41 1.54-5.11 2.35-23.47-2-27-14.77-11.96-46.852 0-41.681-27.85Z" fill="#FFFEFE"/><path d="m968 966 1 1-1-1Zm-928 1 1 1-1-1Zm118 0 1 1-1-1Zm42 0 1 1-1-1Zm146 0 1 1-1-1Z" fill="#A39798"/><path d="m378 967-1 4h1v-4Z" fill="#F36572"/><path d="m782 994 19 2c-.412-5.041-3.146-26.815-9.194-27.534-7.022-.834-9.59 20.571-9.806 25.534Z" fill="#F20C26"/><path d="m376 971-1 3 15 7-14-10Z" fill="#F36572"/><path d="M236.001 983.61c-14.335 3.702-9 27.75-9 39.39 0 4.07-1.331 11.15 1.028 14.68 2.249 3.37 8.6 2.57 11.972 1.79 14.502-3.35 9-28.9 9-40.47 0-3.731 1.423-11.302-1.028-14.397-2.223-2.806-8.995-1.762-11.972-.993Z" fill="#F20C26"/><path d="m249 983 1 1-1-1Zm295 0 1 1-1-1Zm108 0 1 1-1-1Zm75 0 1 1-1-1Zm104.333.667.334.666-.334-.666ZM229 984l1 1-1-1Zm553 0 1 1-1-1Zm-689 1 1 1-1-1Zm135 0 1 1-1-1Zm22 0 1 1-1-1Zm141 0 1 1-1-1Zm154 0 1 1-1-1Zm108 0 1 1-1-1Zm75 0 1 1-1-1Zm53.333.667.334.666-.334-.666ZM227 986l1 1-1-1Zm319 0 1 1-1-1Z" fill="#A39798"/><path d="m653 986 4 5-4-5Z" fill="#F36572"/><path d="m236 990 1 44c4.733-2.61 4-7.1 4-12v-32h-5Z" fill="#393435"/><path d="m657 991 1 1-1-1Z" fill="#F36572"/><path d="m747.333 991.667.334.666-.334-.666ZM225 992l1 1-1-1Zm325 0 1 1-1-1ZM659 992l1 1-1-1ZM1016 1010v1h3l-3-1Zm-907 1 1 1-1-1ZM1086 1129l1 1-1-1Z" fill="#A39798"/><path d="M576.5 1313c318.392 0 576.5-32.46 576.5-72.5S894.892 1168 576.5 1168 0 1200.46 0 1240.5s258.108 72.5 576.5 72.5Z" fill="url(#a)" fill-opacity=".5"/><defs><radialGradient id="a" cx="0" cy="0" r="1" gradientUnits="userSpaceOnUse" gradientTransform="matrix(0 72.5 -576.5 0 576.5 1240.5)"><stop/><stop offset="1" stop-opacity="0"/></radialGradient></defs></svg>