<svg width="136" height="93" fill="none" xmlns="http://www.w3.org/2000/svg"><rect x="4" y="4" width="128" height="85" rx="4" fill="#fff" stroke="#fff" stroke-width="8"/><circle opacity=".1" cx="18.5" cy="18.5" r="10.5" fill="#FF3815"/><circle opacity=".1" cx="18.5" cy="46.5" r="10.5" fill="#FF3815"/><circle opacity=".1" cx="18.5" cy="74.5" r="10.5" fill="#FF3815"/><path d="M15.493 15.264c-.406.056-.602.294-.602.714v.84c0 .322.21.546.602.532.574-.028 1.162-.238 1.778-.63v6.664c0 .35.238.616.616.616h1.204c.406 0 .616-.21.616-.616V14.48a.604.604 0 0 0-.616-.616h-.574c-.42 0-.798.14-1.134.42a3.266 3.266 0 0 1-1.89.98ZM18.163 49.872c0-.546 1.498-1.344 2.674-2.268.798-.658 1.456-1.624 1.456-2.674 0-.938-.322-1.708-.952-2.296-.63-.588-1.54-.882-2.716-.882-1.19 0-2.086.294-2.688.882-.602.574-.924 1.288-.938 2.114 0 .322.182.518.532.588l1.008.182c.49.098.7.07.714-.252.014-.686.518-1.344 1.246-1.344.77 0 1.218.504 1.218 1.19 0 .686-.728 1.442-1.638 2.114-1.288.924-3.01 2.128-2.982 3.5v.658c0 .406.196.616.602.616h5.74c.406 0 .616-.21.616-.616v-.868c0-.35-.224-.616-.616-.616h-3.276v-.028ZM17.083 76.864c-.014-.224-.14-.266-.546-.196l-1.19.21c-.462.07-.518.182-.504.686.014.686.336 1.274.966 1.792.63.504 1.526.756 2.66.756 2.534 0 4.004-1.162 4.004-2.898 0-1.302-.756-2.1-2.086-2.324 1.05-.238 1.764-.994 1.764-2.38 0-1.638-1.33-2.758-3.682-2.758-2.66-.014-3.598 1.512-3.64 2.548 0 .406.168.644.504.686l1.106.182c.49.098.63.042.63-.196.042-.518.546-1.036 1.274-1.05.742-.014 1.232.42 1.232 1.078 0 .7-.588 1.036-1.75 1.022h-.14c-.098 0-.14.042-.14.112v1.414c0 .084.042.126.14.126h.14c1.386-.014 2.072.35 2.072 1.12 0 .686-.532 1.148-1.358 1.148-.826 0-1.442-.504-1.456-1.078Z" fill="#FF5151"/><rect x="35" y="14" width="85" height="9" rx="4.5" fill="#D5D5E2"/><rect x="35" y="42" width="85" height="9" rx="4.5" fill="#D5D5E2"/><rect x="35" y="70" width="85" height="9" rx="4.5" fill="#D5D5E2"/></svg>