<svg width="216" height="56" fill="none" xmlns="http://www.w3.org/2000/svg"><rect width="216" height="56" rx="8" fill="#fff"/><g clip-path="url(#a)"><rect x="172" y="12" width="50" height="50" rx="6" fill="#F6F6F7"/><path d="M181.476 21.506a2.141 2.141 0 0 0-3.027-3.026 2.141 2.141 0 0 0 3.027 3.026Z" fill="#000061"/><path d="M185.498 18.196a2.14 2.14 0 1 0-4.223-.69 2.14 2.14 0 0 0 4.223.69Z" fill="#000061"/><path d="M187.668 20.447a2.14 2.14 0 1 0 0-4.28 2.14 2.14 0 0 0 0 4.28Z" fill="#000061"/><path d="M192.511 21.97a2.142 2.142 0 1 0-1.652-3.954 2.142 2.142 0 0 0 1.652 3.953Z" fill="#000061"/><path d="M194.194 24.568a2.143 2.143 0 0 0-1.64-3.957 2.143 2.143 0 0 0 1.64 3.957ZM194.832 27.685a2.14 2.14 0 1 0-4.225-.688 2.14 2.14 0 0 0 4.225.688Z" fill="#000061"/><path d="M193.938 31.024a2.14 2.14 0 1 0-4.164-.988 2.14 2.14 0 0 0 4.164.988ZM181.475 27.359a2.14 2.14 0 1 0-3.025-3.027 2.14 2.14 0 0 0 3.025 3.027Z" fill="#000061"/><path d="M181.475 24.101a2.14 2.14 0 1 0-3.025-3.026 2.14 2.14 0 0 0 3.025 3.026ZM184.012 21.33a2.14 2.14 0 1 0 0-4.279 2.14 2.14 0 0 0 0 4.28Z" fill="#000061"/><path d="M183.954 20.21a2.14 2.14 0 1 0-4.164-.989 2.14 2.14 0 0 0 4.164.988ZM189.754 20.487a2.14 2.14 0 1 0-4.168-.977 2.14 2.14 0 0 0 4.168.977Z" fill="#000061"/><path d="M192.666 23.084a2.14 2.14 0 1 0-4.168-.978 2.14 2.14 0 0 0 4.168.978Z" fill="#000061"/><path d="M191.858 26.284a2.14 2.14 0 1 0 0-4.28 2.14 2.14 0 0 0 0 4.28ZM190.58 21.527a2.14 2.14 0 1 0-2.977-3.075 2.14 2.14 0 0 0 2.977 3.075Z" fill="#000061"/><path d="M186.108 20.807a2.14 2.14 0 1 0 0-4.28 2.14 2.14 0 0 0 0 4.28Z" fill="#000061"/><path d="M187.329 39.656s-4.698-1.053-7.499 2.29c-2.8 3.342-2.988 4.731-2.988 4.731s9.286.505 14.339-1.01c5.053-1.514 13.14.38 13.14.38s-2.843-7.01-9.917-6.885c-7.075.125-7.075.494-7.075.494Z" fill="#FF5776"/><path d="M191.646 26.206s-.91-6.259-6.031-6.486c-5.121-.227-7.056 8.08-4.779 12.974 2.276 4.894 6.145 3.527 6.145 3.527l-.827 4.557a6.04 6.04 0 0 0 5.979-.51l.282-.184-.769-13.878Z" fill="#CE8463"/><path d="M189.845 34.11s.724 3.797-3.621 5.974l.757-3.86s1.892-.958 2.864-2.113Z" fill="#000061"/><path d="M189.952 25.002s1.622-1.386 3.046-.635c1.424.75.738 4.234 0 4.947-.738.714-3.56-.831-3.046-4.313Z" fill="#CE8463"/><path d="M185.123 22.322a2.14 2.14 0 1 0-3.024-3.026 2.14 2.14 0 0 0 3.024 3.026Z" fill="#000061"/><path d="M187.778 21.97a2.142 2.142 0 1 0-1.652-3.954 2.142 2.142 0 0 0 1.652 3.953Z" fill="#000061"/><path d="M188.227 22.948a1.736 1.736 0 1 0 0-3.471 1.736 1.736 0 0 0 0 3.471Z" fill="#000061"/><path d="M191.232 23.592a1.736 1.736 0 1 0 0-3.471 1.736 1.736 0 0 0 0 3.471Z" fill="#000061"/><path d="M189.89 26.06a1.736 1.736 0 1 0 0-3.472 1.736 1.736 0 0 0 0 3.473Z" fill="#000061"/><path d="M189.093 24.325a1.736 1.736 0 1 0-.001-3.472 1.736 1.736 0 0 0 .001 3.471ZM180.981 23.869a1.736 1.736 0 1 0 0-3.472 1.736 1.736 0 0 0 0 3.472Z" fill="#000061"/><path fill-rule="evenodd" clip-rule="evenodd" d="m182.626 25.19.182.026-.596 4.158 2.21-.341v-.645h.184v.803l-2.612.403.632-4.404ZM184.212 26.8l-.174-.063-.173-.063.001-.002.002-.006.008-.02.029-.067c.026-.056.065-.133.119-.22.108-.175.277-.397.524-.573a1.58 1.58 0 0 1 .983-.297c.407.011.88.161 1.43.516l-.2.31c-.51-.329-.918-.448-1.24-.457a1.21 1.21 0 0 0-.758.228 1.607 1.607 0 0 0-.425.466 1.803 1.803 0 0 0-.098.182l-.023.052-.005.012v.003ZM179.93 27.247l-.173-.063-.174-.063.001-.001v-.002l.002-.005.007-.017.025-.058a1.807 1.807 0 0 1 .55-.677 1.36 1.36 0 0 1 .844-.255c.348.01.752.138 1.217.438l-.2.31c-.425-.274-.763-.372-1.027-.38a.993.993 0 0 0-.62.187c-.159.114-.273.26-.348.383a1.48 1.48 0 0 0-.081.15l-.019.042-.003.01-.001.001Zm0 0Z" fill="#000061"/><path d="M182.717 31.02s2.09.665 3.437-1.065 2.074-.332 2.075.798c.002 1.131-.131 3.223-3.091 3.358-2.961.135-3.775-2.559-2.421-3.092Z" fill="#fff"/><path fill-rule="evenodd" clip-rule="evenodd" d="M193.331 41.122c-.868.965-2.311 1.928-4.604 1.928-2.287 0-3.583-.824-4.306-1.66a4.1 4.1 0 0 1-.701-1.145 3.619 3.619 0 0 1-.154-.487.375.375 0 0 1-.006-.029l-.002-.008v-.003l.091-.016.091-.015v.001l.001.006.005.025.025.1c.023.085.061.209.121.358.119.297.325.695.669 1.093.685.792 1.929 1.596 4.166 1.596 2.233 0 3.628-.935 4.467-1.868.42-.467.701-.934.877-1.284a5.02 5.02 0 0 0 .231-.54l.01-.03.003-.007v-.002l.089.027.088.027h-.001v.003l-.003.009-.011.033a4.979 4.979 0 0 1-.242.562 6.065 6.065 0 0 1-.904 1.326Z" fill="#fff"/><path fill-rule="evenodd" clip-rule="evenodd" d="M195.895 42.313c-1.373 1.317-3.652 2.628-7.276 2.628-3.615 0-5.457-.951-6.395-1.922a3.525 3.525 0 0 1-.828-1.338 2.654 2.654 0 0 1-.124-.571l-.002-.035-.001-.01v-.003l.093-.002.092-.002v.008l.002.03a2.553 2.553 0 0 0 .115.528c.114.343.34.804.786 1.266.892.924 2.678 1.867 6.262 1.867 3.574 0 5.808-1.291 7.148-2.577a8.138 8.138 0 0 0 1.4-1.768c.14-.241.238-.442.301-.581.032-.07.054-.125.069-.162l.016-.041.004-.01.001-.003.087.03.087.03v.001h-.001l-.001.004-.004.012a6.408 6.408 0 0 1-.4.812 8.303 8.303 0 0 1-1.431 1.81Z" fill="#fff"/><path d="M191.613 25.787s.285-.96 1.241-.435c.956.526.096 2.878-.422 2.926-.519.048-.5-.458-.401-.878.1-.42-.016-.838-.487-.663" fill="#FF8080" style="mix-blend-mode:multiply" opacity=".53"/></g><rect x="100" y="32" width="62" height="9" rx="4.5" fill="#D5D5E2"/><rect x="29" y="15" width="133" height="9" rx="4.5" fill="#D5D5E2"/><defs><clipPath id="a"><path d="M172 28c0-8.837 7.163-16 16-16s16 7.163 16 16-7.163 16-16 16-16-7.163-16-16Z" fill="#fff"/></clipPath></defs></svg>