<svg width="216" height="56" fill="none" xmlns="http://www.w3.org/2000/svg"><rect width="216" height="56" rx="8" fill="#fff"/><g clip-path="url(#a)"><rect x="12" y="12" width="50" height="50" rx="6" fill="#F6F6F7"/><path d="M27.918 40.119s-5.128-1.151-8.183 2.5c-3.055 3.65-3.262 5.165-3.262 5.165s10.135.553 15.65-1.107c5.516-1.66 14.343.413 14.343.413s-3.102-7.65-10.819-7.512c-7.716.139-7.73.54-7.73.54Z" fill="#00CCBE"/><path d="M25.713 39.953s-.507 3.302 4.489 3.302c4.995 0 5.445-3.677 5.445-3.677" fill="#00CCBE"/><path fill-rule="evenodd" clip-rule="evenodd" d="M34.87 41.474c-.756.943-2.145 1.873-4.668 1.873-2.52 0-3.678-.834-4.197-1.696a2.807 2.807 0 0 1-.384-1.7v-.009l.001-.002v-.001l.091.014.092.014v.001l-.001.006a2.521 2.521 0 0 0 0 .486c.03.3.12.698.36 1.096.475.79 1.561 1.607 4.038 1.607 2.471 0 3.805-.908 4.524-1.804.36-.45.568-.9.686-1.237a3.563 3.563 0 0 0 .138-.518l.004-.028.001-.007v-.002l.092.011.092.012v.003l-.002.009-.005.033c-.005.028-.012.07-.024.12-.023.105-.06.252-.122.428-.123.352-.34.822-.716 1.291Z" fill="#fff"/><path d="M32.633 25.437s-.994-6.826-6.584-7.08c-5.59-.255-7.702 8.82-5.219 14.162 2.483 5.342 6.71 3.85 6.71 3.85l-.904 4.98a6.595 6.595 0 0 0 6.526-.553l.308-.207-.837-15.152Z" fill="#FFB2A8"/><path d="M30.666 34.066s.792 4.143-3.951 6.516l.826-4.214s2.065-1.042 3.125-2.302Z" fill="#000061"/><path d="M30.783 24.121s1.77-1.512 3.32-.691c1.55.82.797 4.611 0 5.399-.797.788-3.883-.908-3.32-4.708Z" fill="#FFB2A8"/><path d="M31.22 21.622s-2.177-1.671-4.59-.028c-2.413 1.644-7.113.506-7.877-3.243-.763-3.748 2.41-4.863 3.937-2.808 1.527 2.056 2.398-3.093 5.05-1.018 2.654 2.075 5.103.47 5.94 3.826.403 1.594.211 2.918-2.46 3.27Z" fill="#000061"/><path fill-rule="evenodd" clip-rule="evenodd" d="M21.017 13.92c.472 0 .98.14 1.453.536.472.395.906 1.04 1.242 2.041l-.174.059c-.33-.98-.748-1.592-1.186-1.959a2.03 2.03 0 0 0-1.335-.492 2.267 2.267 0 0 0-2.178 1.726v.001c-.434 1.685.14 3 .826 3.899a6.155 6.155 0 0 0 1.446 1.353l.026.016.006.004.002.001-.047.08-.048.079-.003-.002-.007-.005-.028-.017a5.702 5.702 0 0 1-.464-.34 6.333 6.333 0 0 1-1.03-1.057c-.71-.93-1.31-2.301-.858-4.056a2.451 2.451 0 0 1 2.356-1.867ZM32.62 15.844c.947.505 1.63 1.522 1.62 2.915-.005.688-.202 1.211-.497 1.608-.296.395-.686.66-1.071.836a4.167 4.167 0 0 1-1.528.363H31.135l-.002-.092-.001-.092h.007l.024-.001.092-.006a3.98 3.98 0 0 0 1.34-.34 2.555 2.555 0 0 0 1-.779c.27-.363.456-.848.46-1.498.01-1.327-.638-2.28-1.522-2.751-.886-.473-2.016-.467-2.982.14l-.098-.156c1.022-.642 2.223-.651 3.167-.147ZM23.171 24.18l.185.009-.27 5 1.916.488-.046.178-2.062-.526.277-5.15Z" fill="#000061"/><path d="M21.295 27.64c.296 0 .535-.495.535-1.106 0-.61-.24-1.105-.535-1.105-.295 0-.535.495-.535 1.105s.24 1.105.535 1.105ZM25.71 27.64c.295 0 .535-.495.535-1.106 0-.61-.24-1.105-.535-1.105-.296 0-.535.495-.535 1.105s.24 1.105.535 1.105Z" fill="#000061"/><path fill-rule="evenodd" clip-rule="evenodd" d="m23.971 32.862.014-.09.013-.092h.007a1.432 1.432 0 0 0 .103.012 4.426 4.426 0 0 0 1.314-.099c.782-.181 1.696-.637 2.245-1.737l.165.082c-.58 1.163-1.55 1.645-2.368 1.835a4.613 4.613 0 0 1-1.46.094.962.962 0 0 1-.024-.003l-.006-.001h-.002Z" fill="#000061"/><path d="M32.576 24.922s.312-1.05 1.356-.478c1.044.572.105 3.136-.462 3.195-.566.06-.553-.5-.437-.957.116-.458-.018-.923-.531-.725" fill="#FF8080"/><path fill-rule="evenodd" clip-rule="evenodd" d="M24.565 25.18c-.3.395-.488.945-.488 1.555 0 .611.188 1.16.488 1.556.3.394.706.63 1.148.63.443 0 .85-.236 1.15-.63.299-.395.487-.945.487-1.556 0-.61-.188-1.16-.488-1.555s-.706-.63-1.149-.63c-.442 0-.849.235-1.148.63Zm-.147-.111c.326-.43.783-.704 1.295-.704.513 0 .97.274 1.296.704.326.43.525 1.019.525 1.666 0 .648-.199 1.237-.525 1.667-.326.43-.783.704-1.296.704-.512 0-.97-.274-1.295-.704-.326-.43-.525-1.02-.525-1.667s.199-1.237.525-1.666ZM19.612 25.014c-.3.395-.488.945-.488 1.555 0 .611.188 1.16.488 1.556.3.394.706.63 1.148.63.443 0 .85-.236 1.15-.63.299-.395.487-.945.487-1.556 0-.61-.188-1.16-.488-1.555s-.706-.63-1.149-.63c-.442 0-.849.235-1.148.63Zm-.147-.111c.326-.43.783-.704 1.295-.704.513 0 .97.274 1.296.704.326.43.525 1.019.525 1.666 0 .648-.199 1.237-.525 1.667-.326.43-.783.704-1.296.704-.512 0-.97-.274-1.295-.704-.326-.43-.525-1.02-.525-1.667s.199-1.237.525-1.666Z" fill="#000061"/><path fill-rule="evenodd" clip-rule="evenodd" d="M24.629 25.057h-2.642v-.185h2.642v.185ZM27.155 25.478l4.878-2.177.075.169-4.878 2.176-.075-.168Z" fill="#000061"/></g><rect x="54" y="32" width="62" height="9" rx="4.5" fill="#D5D5E2"/><rect x="54" y="15" width="133" height="9" rx="4.5" fill="#D5D5E2"/><defs><clipPath id="a"><path d="M12 28c0-8.837 7.163-16 16-16s16 7.163 16 16-7.163 16-16 16-16-7.163-16-16Z" fill="#fff"/></clipPath></defs></svg>