<svg width="73" height="386" fill="none" xmlns="http://www.w3.org/2000/svg"><path d="M36.604 1.49c2.124 0 4.328 1.136 6.592 3.593 2.263 2.455 4.493 6.131 6.646 10.96 4.304 9.648 8.203 23.673 11.487 41.081 6.565 34.8 10.631 82.918 10.631 136.097s-4.066 101.297-10.63 136.097c-3.285 17.408-7.184 31.433-11.488 41.082-2.153 4.828-4.383 8.504-6.646 10.959-2.264 2.457-4.468 3.594-6.592 3.594-2.123 0-4.327-1.137-6.591-3.594-2.263-2.455-4.494-6.131-6.647-10.959-4.303-9.649-8.203-23.674-11.486-41.082-6.565-34.8-10.632-82.918-10.632-136.097S5.315 91.924 11.88 57.124c3.283-17.408 7.183-31.433 11.486-41.082 2.154-4.828 4.384-8.504 6.647-10.96 2.264-2.456 4.468-3.593 6.591-3.593Z" stroke="#DEDEE8" stroke-width="2"/></svg>