<svg width="101" height="532" fill="none" xmlns="http://www.w3.org/2000/svg"><path d="M50.604 530.805c-3.072 0-6.202-1.647-9.361-5.074-3.158-3.425-6.25-8.533-9.226-15.204-5.947-13.336-11.328-32.695-15.855-56.695C7.111 405.848 1.506 339.517 1.506 266.221c0-73.296 5.605-139.627 14.656-187.61 4.527-24 9.908-43.36 15.855-56.696 2.975-6.67 6.068-11.779 9.226-15.204 3.159-3.427 6.289-5.074 9.361-5.074 3.073 0 6.203 1.647 9.362 5.074 3.157 3.425 6.25 8.533 9.226 15.204C75.139 35.251 80.519 54.61 85.047 78.61c9.05 47.984 14.656 114.315 14.656 187.611 0 73.296-5.605 139.627-14.657 187.611-4.527 24-9.907 43.359-15.855 56.695-2.975 6.671-6.068 11.779-9.226 15.204-3.158 3.427-6.288 5.074-9.36 5.074Z" stroke="#DEDEE8" stroke-width="2"/></svg>