<svg width="616" height="166" fill="none" xmlns="http://www.w3.org/2000/svg"><mask id="a" style="mask-type:alpha" maskUnits="userSpaceOnUse" x="0" y="57" width="616" height="109"><path fill-rule="evenodd" clip-rule="evenodd" d="M616 111.388v.712h-.026c-2.17 29.541-139.223 53.371-307.974 53.371-168.751 0-305.804-23.83-307.974-53.371H0V92.886h18.495C61.53 72.13 174.907 57.306 308 57.306s246.47 14.823 289.505 35.58H616v18.502Z" fill="#DEDEE9"/></mask><g mask="url(#a)"><path fill-rule="evenodd" clip-rule="evenodd" d="M616 111.388v.712h-.026c-2.17 29.541-139.223 53.371-307.974 53.371-168.751 0-305.804-23.83-307.974-53.371H0V92.886h18.495C61.53 72.13 174.907 57.306 308 57.306s246.47 14.823 289.505 35.58H616v18.502Z" fill="#DEDEE9"/><path d="M96 125h424v40.123L304.009 190 96 165.123V125Z" fill="#E7B539"/><path d="M105 125h406v40.385S387.466 188 308 188s-203-22.615-203-22.615V125Z" fill="#E62A09"/></g><mask id="b" style="mask-type:alpha" maskUnits="userSpaceOnUse" x="0" y="39" width="616" height="109"><ellipse cx="308" cy="93.5" rx="308" ry="54.5" fill="#ECECF1"/></mask><g mask="url(#b)"><ellipse cx="308" cy="93.5" rx="308" ry="54.5" fill="#F0F1F5"/><path d="M135.983 102h344.034L520 133l-229.5 73L96 133l39.983-31Z" fill="#F9CA56"/><path d="M144 102h327l40 32.5L302.5 203 105 134.5l39-32.5Z" fill="#FF3815"/></g><mask id="c" style="mask-type:alpha" maskUnits="userSpaceOnUse" x="54" y="33" width="508" height="90"><path fill-rule="evenodd" clip-rule="evenodd" d="M561.294 78.124v.586h-.021c-1.787 24.328-114.655 43.952-253.626 43.952S55.808 103.038 54.022 78.71H54V62.887h15.231c35.441-17.094 128.81-29.302 238.416-29.302s202.975 12.208 238.416 29.302h15.231v15.237Z" fill="#DEDEE9"/></mask><g mask="url(#c)"><path fill-rule="evenodd" clip-rule="evenodd" d="M561.294 78.124v.586h-.021c-1.787 24.328-114.655 43.952-253.626 43.952S55.808 103.038 54.022 78.71H54V62.887h15.231c35.441-17.094 128.81-29.302 238.416-29.302s202.975 12.208 238.416 29.302h15.231v15.237Z" fill="#E4E6EE"/><path d="m126.545 82 362.783 12.5V123H126.545V82Z" fill="#E7B539"/><path d="M133.819 82h347.615v41H133.819V82Z" fill="#E62A09"/></g><mask id="d" style="mask-type:alpha" maskUnits="userSpaceOnUse" x="54" y="19" width="508" height="89"><ellipse cx="308" cy="63.5" rx="254" ry="44.5" fill="#ECECF1"/></mask><g mask="url(#d)"><ellipse cx="308" cy="63.5" rx="254" ry="44.5" fill="#F0F1F5"/><path d="M170.697 68.942h274.607l44.01 25.72L293.014 158 126.552 94.635l44.145-25.694Z" fill="#F9CA56"/><path d="M177.562 68.942h260.02l43.845 27.067-178.137 59.422-169.467-59.537 43.739-26.953Z" fill="#FF3815"/></g><mask id="e" style="mask-type:alpha" maskUnits="userSpaceOnUse" x="107" y="11" width="403" height="72"><path fill-rule="evenodd" clip-rule="evenodd" d="M509.614 46.976v.465h-.017c-1.417 19.308-90.995 34.883-201.29 34.883-110.295 0-199.872-15.575-201.29-34.883H107V34.883h12.088c28.128-13.567 102.23-23.255 189.219-23.255 86.989 0 161.091 9.688 189.219 23.255h12.088v12.093Z" fill="#DEDEE9"/></mask><g mask="url(#e)"><path fill-rule="evenodd" clip-rule="evenodd" d="M509.614 46.976v.465h-.017c-1.417 19.308-90.995 34.883-201.29 34.883-110.295 0-199.872-15.575-201.29-34.883H107V34.883h12.088c28.128-13.567 102.23-23.255 189.219-23.255 86.989 0 161.091 9.688 189.219 23.255h12.088v12.093Z" fill="#E4E6EE"/><path d="m165.614 45.339 284.869 12.5v28.5H165.614v-41Z" fill="#E7B539"/><path d="M171.219 43.312h272.998v41H171.219v-41Z" fill="#E62A09"/></g><mask id="f" style="mask-type:alpha" maskUnits="userSpaceOnUse" x="107" y="0" width="402" height="70"><ellipse cx="308" cy="35" rx="201" ry="35" fill="#ECECF1"/></mask><g mask="url(#f)"><ellipse cx="308" cy="35" rx="201" ry="35" fill="#F0F1F5"/><path d="M308.037 41.734c134.11 0 142.937 18.64 142.937 18.64L305.384 80.38 165.101 60.373s8.827-18.64 142.936-18.64Z" fill="#F9CA56"/><path d="M307.667 43.312c128.378 0 136.827 17.879 136.827 17.879L305.127 80.38 170.84 61.19s8.449-17.879 136.827-17.879Z" fill="#FF3815"/></g></svg>