<svg width="209" height="380" fill="none" xmlns="http://www.w3.org/2000/svg"><path d="m128.719 29.128-.46.53 2.896 2.512.46-.53-2.896-2.512Z" fill="#CACAD5"/><path d="M151.49 70.703s-8.222-28.65-17.826-49.28c0 0-18.575 37.555 10.905 54.078l6.921-4.798Z" fill="#E3A473" stroke="#672938" stroke-width="3.42" stroke-linecap="round" stroke-linejoin="round"/><path d="M132.535 29.754s-5.136 18.34-.818 28.534a31.433 31.433 0 0 0 11.931 14.486l1.508-3.97s-1.047-4.82-7.301-16.683a44.064 44.064 0 0 1-5.32-22.367Z" fill="#CE8655"/><path d="M133.71 24.576s-.979 12.657 1.439 19.951c2.419 7.295 11.7 23.76 10.054 27.395" stroke="#672938" stroke-width="1.71" stroke-linecap="round" stroke-linejoin="round"/><path d="m165.298 97.914 3.742 52.742c.115 8.526-30.367 5.753-28.64-2.681l13.555-53.294 11.343 3.233Z" fill="#E3A473" stroke="#672938" stroke-width="3.42" stroke-linecap="round" stroke-linejoin="round"/><path d="m152.089 110.294-9.858 38.625s.334 1.288 2.707 2.301l9.063-40.546-1.912-.38Z" fill="#F7C79A"/><path d="m163.708 104.023 3.455 46.978c1.751.53-5.435 4.303-16.525 2.244l9.754-46.414 3.316-2.808Z" fill="#CE8655"/><path d="M139.042 58.415a6.11 6.11 0 0 1 1.405 1.967c0 .138.149.368.069.472-.853-1.22-.991-3.038-1.233-4.718a38.072 38.072 0 0 1 6.311-24c4.791-6.996 11.136-13.554 12.241-22.39a9.877 9.877 0 0 0-1.359-6.708 1.056 1.056 0 0 0-1.336-.447 1.058 1.058 0 0 0-.598 1.275c1.451 5.281-3.835 11.506-8.729 15.533-11.792 8.537-21.109 21.01-23.135 35.978-.565 4.315-.783 9.297 1.151 13.53a9.466 9.466 0 0 0 6.065 5.469 9.481 9.481 0 0 0 10.909-4.35 9.461 9.461 0 0 0-1.704-11.612h-.057Z" fill="#672938"/><path d="M139.249 50.752s.979-.138-4.491-3.36c-6.012-3.555 8.878-18.167 14.533-23.909 2.994-3.049 8.13-10.436 8.061-16.407 0-3.176-1.152-4.188-1.152-4.188s2.154 2.002 1.52 7.56c-.633 5.556-6 14.37-10.802 19.766-4.802 5.396-7.853 16.798-7.669 20.538Z" fill="#491A27"/><path d="M164.791 99.893c10.836-12.45 12.207-30.318-.253-41.145-12.461-10.827-32.59-9.688-38.475 5.753-4.479 11.748-8.061 23.69-16.548 34.736-5.953 7.778-7.554 17.04-.53 23.15 8.061 6.961 11.908-1.531 22.295-5.615 13.462-5.304 24.413-6.432 33.511-16.88Z" fill="#E3A473" stroke="#672938" stroke-width="3.42" stroke-linecap="round" stroke-linejoin="round"/><path d="M149.602 54.549a29.525 29.525 0 0 0-13.705 6.837 29.491 29.491 0 0 0-8.429 12.78 88.4 88.4 0 0 1-8.982 17.822c-3.835 5.753-7.785 14.958-11.412 20.895l.276 3.636s-4.998-5.546 6.265-19.56c4.191-5.212 6.552-13.117 9.408-18.881 2.856-5.764 2.303-14.52 15.788-20.94-.023 0 5.931-3.44 10.791-2.59Z" fill="#F7C79A"/><path d="M169.927 69.76s-6.391-5.88-6.91-4.292c-1.738 5.407-.403 25.082-8.832 32.699-5.758 5.189-14.142 9.205-20.729 11.885-7.255 2.911-18.92 3.981-24.494 9.458a16.409 16.409 0 0 0 1.636 1.76 7.532 7.532 0 0 0 4.168 1.749 8.882 8.882 0 0 0 4.607-1.737c1.324-.897 3.454-2.301 6.909-4.418a28.421 28.421 0 0 1 7.842-3.348c6.403-1.634 16.618-5.201 20.855-8.054 5.309-3.625 11.194-6.547 15.673-20.791-.023-.023 2.016-8.503-.725-14.912Z" fill="#CE8655"/><path d="M123.426 108.281s-.38 8.41-1.612 10.953c-.749 1.565-3.363 2.819-5.274 3.567a6.644 6.644 0 0 1-4.929 0 6.443 6.443 0 0 1-4.284-5.258c-.587-5.362 16.099-9.262 16.099-9.262Z" fill="#E5E3E8" stroke="#672938" stroke-width=".86" stroke-linecap="round" stroke-linejoin="round"/><path d="M107.131 108.856c2.304 1.622 5.632-.598 9.213-6.996 0 0 12.218-19.145 15.27-25.37a17.821 17.821 0 0 1 2.752-4.349c2.649-2.865 7.37-3.176 10.779-1.6 3.731 1.727 5.85 5.846 6.288 9.792.541 4.867-1.647 9.458-4.526 13.255a15.485 15.485 0 0 1-11.136 5.684c-2.936.276-5.919-.081-8.786.575a4.606 4.606 0 0 0-2.937 1.68c-.725 1.15-.253 2.83-.299 4.107a14.053 14.053 0 0 1-1.774 6.904 15.124 15.124 0 0 1-4.088 3.981 14.272 14.272 0 0 1-4.767 2.301c-1.152.276-3.098.805-4.492.195-2.821-1.231-2.936-4.395-2.786-7.317-.012-.507.172-3.625 1.289-2.842Z" fill="#fff" stroke="#672938" stroke-width=".81" stroke-miterlimit="10"/><path d="M138.753 91.355c2.316-.151 4.007-3.136 3.777-6.668-.231-3.532-2.295-6.273-4.612-6.122-2.316.15-4.007 3.136-3.777 6.668.231 3.532 2.295 6.273 4.612 6.122Z" fill="#672938"/><path d="M156.143 54.618a3.3 3.3 0 0 0 .794 1.68c9.558 10.803 15.454 24.587 13.946 36.99-1.486 12.162-3.213 28.005-8.741 40.213-.633 1.404 6.127-3.268 19.347-26.463 9.212-16.166 4.802-51.005-15.788-58.91a3.235 3.235 0 0 0-.933-.207l-5.597-.471a3.317 3.317 0 0 0-3.547 3.808l.519 3.36Z" fill="#D77EDA" stroke="#672938" stroke-width="1.86" stroke-linecap="round" stroke-linejoin="round"/><path d="M140.055 45.436c0 .253-.115.506-.161.76a11.662 11.662 0 0 0-12.126-6.57l.483-.76c7.071-.978 10.652 4.28 11.804 6.57ZM133.929 30.433c6.172.057 8.475 5.327 8.97 6.684-.069.139-.138.277-.195.415l-.288.253c-.081-.3-2.096-6.754-9.098-6.547l.611-.805ZM139.71 24.38c.195-.16.621-.61.806-.77a7.963 7.963 0 0 1 7.393 5.315l-.472.622a7.507 7.507 0 0 0-7.727-5.166ZM145.893 19.295c.185-.15.657-.472.841-.633a6.335 6.335 0 0 1 5.758 4.257l-.484.714a6.153 6.153 0 0 0-6.115-4.338ZM151.41 13.75a6.03 6.03 0 0 1 4.226 3.382c-.081.184-.161.368-.254.54a5.757 5.757 0 0 0-4.514-3.256l.542-.667ZM154.277 8.583a5.422 5.422 0 0 1 3.04 1.646c.149.16.283.334.403.517l-.173.92a3.799 3.799 0 0 0-.656-.931 5.023 5.023 0 0 0-2.925-1.335c.058-.15.265-.656.311-.817ZM154.692 4.453c0-.161-.07-.31-.116-.472a4.617 4.617 0 0 1 1.313-.15c.209 0 .418.024.622.07.19.027.372.098.53.207.098.114.179.242.242.38 0 .08.149.528.184.563a2.702 2.702 0 0 0-.68-.552 3.305 3.305 0 0 0-2.095-.046Z" fill="#F0CBFF"/><path d="M165.102 129.071s9.581-21.964 10.283-32.33a123.37 123.37 0 0 0 .081-17.133c-.748-9.365-6.529-14.67-13.612-20.86l-1.151-1.047s8.901 17.132 9.949 20.71c1.048 3.579 4.031 16.258-5.55 50.66Z" fill="#CDB1DA" style="mix-blend-mode:multiply" opacity=".81"/><path d="M134.838 81.23c1.221-3.681 5.033-3.658 8.188-2.577-2.303.806-4.514.196-6.61 1.484l.069-.069c-.511.435-1.062.82-1.647 1.151v.012Z" fill="#672938"/><path d="M144.742 75.604h-.069a6.672 6.672 0 0 0-9.432.863l-.898 1.404" stroke="#672938" stroke-width=".86" stroke-linecap="round" stroke-linejoin="round"/><path d="M125.038 67.677c3.018 1.691 6.795-.07 8.66-2.808a8.137 8.137 0 0 1-.403 1.784 7.266 7.266 0 0 1-9.5 4.441c-1.543-.656.126-4.05 1.243-3.417Z" fill="#FBE854" stroke="#672938" stroke-width=".81" stroke-linecap="round" stroke-linejoin="round"/><path d="M152.861 54.537c.241-5.258-2.419-16.936-14.153-20.572-6.38-1.968-11.885 2.21-15.858 5.546-4.733 3.97-10.099 9.895-10.882 16.28a34.386 34.386 0 0 0 .633 9.205 22.4 22.4 0 0 1-.852 9.205c-1.497 5.223-2.717 14.957-2.948 15.222 0 0 5.965-5.615 11.124-11.506 4.825-5.557 7.313-18.19 16.883-19.387 2.556-.322 14.97-.288 15.845 1.323.012-.023.069-2.393.208-5.316Z" fill="#D77EDA" stroke="#672938" stroke-width="1.86" stroke-linecap="round" stroke-linejoin="round"/><path d="M151.813 60.325s-3.513-10.102-10.537-10.033c-5.424 0-12.829-.173-17.274 10.562a154.217 154.217 0 0 1-13.819 25.474s9.558-8.572 11.769-13.198c6.725-13.944 10.71-20.1 29.861-12.805Z" fill="#CDB1DA" style="mix-blend-mode:multiply" opacity=".81"/><path d="M145.352 38.935c-.898-.138-6.472-2.3-10.871-1.656-7.381 1.15-12.091 7.352-16.007 13.208a15.98 15.98 0 0 0-2.994 7.94c-.115 2.726.737 5.384.645 8.11a28.595 28.595 0 0 1-1.992 8.434 19.37 19.37 0 0 1-2.683 5.604 8.036 8.036 0 0 0 .633-2.451c.242-.955.472-1.898.691-2.865.606-2.643.926-5.343.956-8.054 0-2.704-.887-5.304-.852-7.985a15.396 15.396 0 0 1 1.854-8.514 30.749 30.749 0 0 1 6.034-7.767c3.386-3.118 6.645-6.8 11.619-7.938 1.647-.415 6.311-1.75 12.967 3.934Z" fill="#F0CBFF"/><path d="M159.632 48.382a38.086 38.086 0 0 1 11.734-21.861c6.276-5.696 13.98-10.597 17.113-18.939a9.796 9.796 0 0 0 .23-6.834 1.058 1.058 0 0 0-2.061.345c.173 5.488-6.414 10.355-12.103 13.094-13.474 5.557-25.427 15.52-30.886 29.615-1.554 4.062-2.994 8.871-2.084 13.416.276 1.37 2.303 4.292 14.544 6.409 5.148.874 3.363-13.554 3.513-15.245Z" fill="#672938"/><path d="M159.943 58.61a5.236 5.236 0 0 1-5.758 4.487c-2.211-.264-6.299-1.15-7.117-2.14-.449-.517.288-5.315.99-7.41 4.756-14.025 15.558-27.809 28.49-35.195A24.486 24.486 0 0 0 188.525.495s3.063 4.683-3.777 13.346c-6.841 8.664-13.497 11.38-18.195 17.984-7.393 10.355-7.244 18.789-6.702 22.344a15.308 15.308 0 0 1 0 4.35l.092.091Z" fill="#491A27"/><path d="M162.799 38.176c-.115.23-.231.46-.334.702-.311-1.852-2.499-8.56-10.077-9.308l.565-.587c7.105.667 9.258 6.708 9.846 9.193ZM159.839 47.852c-.104.3-.15 1.646-.253 1.945-.668-2.21-4.676-10.505-14.027-10.24l.599-.817a13.83 13.83 0 0 1 8.345 2.302 13.808 13.808 0 0 1 5.336 6.81ZM160.334 22.172c5.989 1.472 7.002 7.133 7.163 8.583l-.288.345-.219.276c0-.299-.437-7.26-7.289-8.675.161-.127.461-.403.633-.53ZM167.578 17.512l.771-.368a7.842 7.842 0 0 1 5.931 6.8c-.15.114-.403.402-.553.517a7.413 7.413 0 0 0-1.854-4.553 7.432 7.432 0 0 0-4.295-2.396ZM174.856 14.014l.633-.345a6.17 6.17 0 0 1 4.606 5.384l-.426.403a5.75 5.75 0 0 0-4.813-5.442ZM181.166 10.09a6 6 0 0 1 3.375 4.223l-.369.46a5.582 5.582 0 0 0-3.455-4.35l.449-.332ZM185.231 5.845a5.064 5.064 0 0 1 2.557 2.105c.115.198.211.406.288.622-.092.23-.196.448-.3.667a3.597 3.597 0 0 0-.414-1.047 4.607 4.607 0 0 0-2.407-1.933l.276-.414ZM186.648 1.68v-.472a3.526 3.526 0 0 1 2.303.667c.069 0 .127.115.196.173 0 .276.069.552.092.828a2.994 2.994 0 0 0-.587-.62 3.102 3.102 0 0 0-2.004-.576Z" fill="#F0CBFF"/><path d="m154.887 66.031 28.502-41.42s9.351 35.852-22.479 47.311" fill="#E3A473"/><path d="m154.887 66.031 28.502-41.42s9.351 35.852-22.479 47.311" stroke="#672938" stroke-width="3.42" stroke-linecap="round" stroke-linejoin="round"/><path d="M181.915 30.237s.288 16.338-5.182 25.957c-6.115 10.746-13.635 12.656-13.635 12.656l-4.076 1.968s1.243-9.262 9.385-19.928a170.338 170.338 0 0 0 13.508-20.653Z" fill="#CE8655"/><path d="M113.562 108.172c1.262-1.3 1.822-2.802 1.251-3.355-.57-.553-2.056.053-3.318 1.353s-1.822 2.802-1.251 3.355c.57.553 2.056-.053 3.318-1.353Z" fill="#672938"/><path d="M162.211 258.707H148.98v117.968h13.231V258.707Z" fill="#BCBCBC" stroke="#672938" stroke-width="3" stroke-miterlimit="10"/><path d="M197.392 254.795a12.911 12.911 0 0 0-3.788-9.137 12.94 12.94 0 0 0-9.144-3.784h-79.862a12.95 12.95 0 0 0-9.145 3.784 12.92 12.92 0 0 0-3.787 9.137v122.329l12.575-.426V259.765a1.335 1.335 0 0 1 .399-.956 1.345 1.345 0 0 1 .96-.39h78.733a1.335 1.335 0 0 1 .96.39 1.335 1.335 0 0 1 .399.956v116.91h12.575l-.875-121.88Z" fill="#DDD" stroke="#672938" stroke-width="3" stroke-miterlimit="10"/><path d="M110.909 160.574c0-9.699 8.141-16.833 16.122-16.833 7.98 0 8.613 6.455 8.613 16.108 0 9.654-.702 18.973-8.613 18.973-7.912 0-16.122-8.537-16.122-18.248Z" fill="#E5B656"/><path d="M183.538 206.678a62.61 62.61 0 0 0-5.32-7.226l-.541-.644a3.734 3.734 0 0 0-2.879-1.646l-39.534-3.451c-1.831-.104-2.591 1.737-3.823 2.968l-8.706 9.93-39.35 7.363a23.67 23.67 0 0 0-12.29 6.443 23.636 23.636 0 0 0-6.56 12.22l-15.858 80.54a8.39 8.39 0 0 0 1.7 6.333 8.408 8.408 0 0 0 5.74 3.182l6.678.702-.852 6.086 24.414 3.452.967-6.903 4.503.471a8.424 8.424 0 0 0 8.524-4.85c.488-1.06.75-2.21.769-3.376l-6.91-76.87 68.681 1.047c5.666-.127 11.423.633 15.938-1.047 8.061-2.992 10.468-10.712 10.606-18.156.069-5.88-2.707-11.448-5.897-16.568Z" fill="#7CAFDD" stroke="#672938" stroke-width="3" stroke-linecap="round" stroke-linejoin="round"/><path d="m173.071 199.935 3.374.15a50.328 50.328 0 0 1 10.145 16.741c3.386 9.791-1.612 18.11-3.973 20.319-2.36 2.209-6.529 3.613-12.022 3.636-5.493.023-66.941-.656-66.941-.656l6.541-3.567 59.099.874s11.078.553 14.97-7.858a12.899 12.899 0 0 0 .852-7.341c-1.739-10.734-12.045-22.298-12.045-22.298Z" fill="#88BDE5"/><path d="m156.258 201.719 3.662 6.167a14.242 14.242 0 0 0 12.92 6.903l3.801-.172" stroke="#672938" stroke-width="3" stroke-linecap="round" stroke-linejoin="round"/><path d="m66.803 327.649-2.718-.219.288-5.753-9.696-.736a7.404 7.404 0 0 1-4.41-6.903c.218-4.994 16.536-83.647 16.536-83.647a19.498 19.498 0 0 1 12.299-12.507s-8.672 6.535-10.215 12.772c-1.543 6.236-15.362 83.29-15.362 83.29a4.83 4.83 0 0 0 2.304 5.131l11.619.299-.645 8.273Z" fill="#629DC4"/><path d="m139.686 257.073-35.445-45.114 44.67 1.07-.438-5.212-20.302-5.949-42.816-7.962-.772-.149-1.151-.219.069.069a15.948 15.948 0 0 0-14.15 6.219 15.92 15.92 0 0 0-2.214 15.285l26.417 69.748a8.68 8.68 0 0 0 8.821 4.659 8.685 8.685 0 0 0 3.328-1.138l8.188-4.833 5.458 7.41 19.842-14.624-3.961-5.373 1.992-1.15a8.668 8.668 0 0 0 4.102-5.815 8.66 8.66 0 0 0-1.638-6.922v0Z" fill="#7CAFDD" stroke="#672938" stroke-width="3" stroke-linecap="round" stroke-linejoin="round"/><path d="m146.826 209.14.288 2.059-43.506-.886s-1.97.886-1.279 1.669c.691.782 24.114 31.065 24.114 31.065l12.437 15.959s1.97 3.716-.092 6.754l-39.591-53.951s-1.37-3.325 1.958-3.624c3.328-.299 45.671.955 45.671.955Z" fill="#88BDE5"/><path d="m124.025 211.383 39.683-6.903v1.381l-38.128 8.445-1.555-2.923Z" fill="#DDD" stroke="#672938" stroke-linecap="round" stroke-linejoin="round"/><path d="m125.154 199.061 38.554 5.419-37.956 7.249-.598-12.668Z" fill="#fff" stroke="#672938" stroke-linecap="round" stroke-linejoin="round"/><path d="M206.421 167.57a178.96 178.96 0 0 0-9.985-27.039c-3.454-7.456-13.623-8.215-16.651-8.284l-8.499-.84-30.747-1.887-14.579-.069c-7.278-.288-9.823 4.165-11.401 6.904l-21.166 36.818-15.707 7.467c-4.17 1.841-7.75 4.89-7.75 9.4v2.888c0 4.741 3.8 5.753 8.532 5.753l19.911-4.199c4.503-.863 9.674-2.566 12.196-6.904l8.061-11.368 1.485 14.544a4.24 4.24 0 0 0 4.203 4.05l51.487 3.451a4.237 4.237 0 0 0 4.192-3.371l4.607-20.296 10.203 4.856s11.631-11.794 11.608-11.874Z" fill="#3B92E2" stroke="#672938" stroke-width="3" stroke-linecap="round" stroke-linejoin="round"/><path d="m141.552 131.361-17.435 1.599a6.819 6.819 0 0 0-5.758 3.521l-21.684 38.245a6.334 6.334 0 0 1-3.12 2.808l-16.699 6.96a9.353 9.353 0 0 0-2.902 1.887 7.192 7.192 0 0 0-2.303 3.878s-.414-4.349 4.607-7.145c4.825-2.658 18.287-8.71 18.287-8.71l22.317-39.407a15.143 15.143 0 0 1 4.802-3.452c2.845-1.139 19.888-.184 19.888-.184Z" fill="#96C5EF" style="mix-blend-mode:multiply"/><path d="m181.731 164.452-1.463-5.949" stroke="#672938" stroke-width="3.65" stroke-linecap="round" stroke-linejoin="round"/><path d="M121.802 177.338s-8.061-4.671-10.076-11.402a14.264 14.264 0 0 1 2.153-12.426l7.14-9.907" fill="#FF3815"/><path d="M121.802 177.338s-8.061-4.671-10.076-11.402a14.264 14.264 0 0 1 2.153-12.426l7.14-9.907" stroke="#672938" stroke-width="3" stroke-linecap="round" stroke-linejoin="round"/><path d="m144.742 150.898 1.531 9.872 9.881 1.254a3.253 3.253 0 0 1 1.777.825 3.25 3.25 0 0 1-.441 5.146l-9.213 5.811 1.659 10.746a3.246 3.246 0 0 1-3.791 3.696 3.244 3.244 0 0 1-1.783-.969l-6.507-6.904-8.061 5.063a3.261 3.261 0 0 1-4.902-2.008 3.252 3.252 0 0 1 .169-2.019l4.296-9.999-7.474-7.915a3.252 3.252 0 0 1 .856-5.101 3.265 3.265 0 0 1 1.931-.353l9.88 1.254 3.939-9.205a3.254 3.254 0 0 1 3.437-2.007 3.258 3.258 0 0 1 2.816 2.813Z" stroke="#fff" stroke-width="1.07" stroke-miterlimit="10"/><path d="m142.611 153.912 1.452 9.412 8.901 1.151a1.491 1.491 0 0 1 1.275 1.16 1.5 1.5 0 0 1-.664 1.589l-8.119 5.132 1.509 9.803a1.497 1.497 0 0 1-2.569 1.254l-6.149-6.524-7.577 4.787a1.5 1.5 0 0 1-2.258-.923 1.499 1.499 0 0 1 .081-.93l3.916-9.124-6.599-6.995a1.485 1.485 0 0 1 1.278-2.497l8.913 1.15 3.755-8.755a1.493 1.493 0 0 1 2.403-.519c.237.22.395.511.452.829Z" fill="#fff"/><path d="m187.35 161.794-43.598 28.235a8.04 8.04 0 0 0-3.53 5.159 8.07 8.07 0 0 0-.006 3.188 8.068 8.068 0 0 0 1.232 2.94 8.061 8.061 0 0 0 9.754 3.003l48.136-19.755c6.749-3.222 10.065-11.886 6.518-18.467" fill="#3B92E2"/><path d="m187.35 161.794-43.598 28.235a8.04 8.04 0 0 0-3.53 5.159 8.07 8.07 0 0 0-.006 3.188 8.068 8.068 0 0 0 1.232 2.94 8.061 8.061 0 0 0 9.754 3.003l48.136-19.755c6.749-3.222 10.065-11.886 6.518-18.467" stroke="#672938" stroke-width="3" stroke-linecap="round" stroke-linejoin="round"/><path d="m122.689 147.492-7.082 10.677s-1.981 5.753 1.393 9.769c2.453 2.922 5.597 4.959 6.91 6.408a4.263 4.263 0 0 1 1.059 2.118l2.015 16.74-3.523-.333a1.632 1.632 0 0 1-1.624-1.485l-1.152-12.656s4.607.76 2.223-2.566c0 0-7.301-4.337-9.132-9.469a13.908 13.908 0 0 1-.426-8.629c.22-.678.542-1.318.956-1.899l8.429-12.173a3.208 3.208 0 0 1-.046 3.498Z" fill="#E2C727" style="mix-blend-mode:multiply"/><path d="m86.138 332.332-3.409 17.247-22.04-4.223 1.07-16.695 24.38 3.671ZM139.157 276.322l5.907 8.491-14.682 18.697-11.067-12.564 19.842-14.624ZM136.738 194.85l-14.187 1.518v4.603a9.088 9.088 0 0 0 7.709 8.982 9.09 9.09 0 0 0 4.244-.353l5.943-1.956a5.884 5.884 0 0 0 3.879-6.96 5.882 5.882 0 0 0-1.346-2.555l-1.232-1.369a5.87 5.87 0 0 0-5.01-1.91v0Z" fill="#E3A473" stroke="#672938" stroke-width="3" stroke-linecap="round" stroke-linejoin="round"/><path d="m124.209 214.179-67.425-15.843a4.077 4.077 0 0 1-3.132-3.958V138.61a4.06 4.06 0 0 1 4.998-3.958l67.413 15.809a4.07 4.07 0 0 1 3.144 3.957v55.769a4.066 4.066 0 0 1-1.531 3.206 4.084 4.084 0 0 1-3.467.786v0Z" fill="#fff" stroke="#672938" stroke-linecap="round" stroke-linejoin="round"/><path d="M86.702 180.548c2.335 0 4.227-2.72 4.227-6.075s-1.892-6.075-4.227-6.075c-2.334 0-4.226 2.72-4.226 6.075s1.892 6.075 4.226 6.075Z" fill="#DDD"/><path d="m89.12 336.071 14.361 32.055a6.757 6.757 0 0 1-.422 6.517 6.774 6.774 0 0 1-5.74 3.125H40.018a56.7 56.7 0 0 1-22.386-3.624l-9.524-3.602a10.726 10.726 0 0 1-4.41-2.98c-1.67-1.967-2.304-4.349-1.774-8.376.426-2.865 4.526-6.362 8.061-7.145l11.424-3.014a32.93 32.93 0 0 0 9.892-4.465l20.164-18.179a8.549 8.549 0 0 1 12.886 1.22v0a31.584 31.584 0 0 1 3.87 6.984l.426 1.07c1.382 3.567.472 5.166 3.051 5.868l3.075.828a4.329 4.329 0 0 0 5.113-2.496l.748-1.795a6.028 6.028 0 0 1 4.319-3.556l1.06-.23a2.744 2.744 0 0 1 3.143 1.795h-.034Z" fill="#FADCBE" stroke="#672938" stroke-width="3" stroke-linecap="round" stroke-linejoin="round"/><path d="m99.266 358.887 3.984 9.308a7.146 7.146 0 0 1-.605 6.742 7.153 7.153 0 0 1-2.574 2.359 7.157 7.157 0 0 1-3.384.863l-62.393.127s-21.88-2.946-29.411-9.401L2.21 362.58a45.617 45.617 0 0 0 3.616 1.795c11.804 5.293 25.945 5.569 38.486 3.038 5.573-1.151 10.755-3.452 16.294-4.672 8.43-1.818 17.01.76 25.508 0a23.037 23.037 0 0 0 12.725-5.166l.426 1.312Z" fill="#fff" stroke="#672938" stroke-width="3" stroke-linecap="round" stroke-linejoin="round"/><path d="M94.717 351.569c-3.915 4.062-13.266 3.648-18.31 2.612-7.923-1.634-15.788.058-23.365 2.393a85.707 85.707 0 0 1-19.715 4.269c-7.44.702-15.858.92-23.032-1.519-1.22-.425-6.69-2.738-6.69-2.738" stroke="#672938" stroke-width="3" stroke-linecap="round" stroke-linejoin="round"/><path d="M79.021 347.301c8.695 3.037 6.369-4.534 8.591-7.422 2.223-2.887 3.144.277 3.144.277l-2.453-5.673-5.01.679-2.763 4.787c-.541 2.554-4.215 2.243-6.829 2.243l5.32 5.109Z" fill="#672938"/><path d="M86.219 354.285 73.7 342.837a5.247 5.247 0 0 0-5.217-1.151c-6.218 2.082-20.302 6.455-26.601 17.351M41.365 358.967l-.23-5.35a2.174 2.174 0 0 0-2.903-2.105l-6.483 2.301c-2.395.851-4.86-.184-6.979-1.323-1.52-.817-6.817-4.326-7.508-.932-.253 1.219.714 2.692 0 3.843a2.201 2.201 0 0 1-1.612.886 5.875 5.875 0 0 1-4.606-1.358l-2.741-2.221" stroke="#672938" stroke-width="3" stroke-linecap="round" stroke-linejoin="round"/><path d="m29.734 354.112 1.22-1.542a1.586 1.586 0 0 0-.714-2.646l-3.662-2.048M70.189 341.352l-8.983-6.742a5.768 5.768 0 0 0-6.38-.357l-9.212 5.442-12.667 6.904a2.11 2.11 0 0 1-2.442 0" stroke="#672938" stroke-width="3" stroke-linecap="round" stroke-linejoin="round"/><path d="m49.61 350.534 7.681-6.835a2.302 2.302 0 0 0-.438-3.831 2.305 2.305 0 0 0-1.485-.161l-6.391 3.21a3.46 3.46 0 0 1-3.858-.403 1.955 1.955 0 0 1-.703-1.15M49.241 337.693c.093-.932-2.97-6.408-6.77-3.129M41.1 341.905c.092-.932-1.394-4.741-5.194-1.473" stroke="#672938" stroke-width="3" stroke-linecap="round" stroke-linejoin="round"/><path d="m124.428 322.115-3.029-15.176a5.94 5.94 0 0 1 3.167-6.478l23.631-11.817a5.92 5.92 0 0 1 7.139 1.416l10.733 12.345-41.641 19.71Z" fill="#FADCBE" stroke="#672938" stroke-width="3" stroke-linecap="round" stroke-linejoin="round"/><path d="m130.923 307.859-6-8.526a6.219 6.219 0 0 1-.954-5.049 6.208 6.208 0 0 1 3.177-4.04l11.159-5.811a6.249 6.249 0 0 1 7.412 1.258 6.22 6.22 0 0 1 1.374 2.286l3.593 10.758a3.265 3.265 0 0 1-1.773 4.027l-13.981 6.213a3.273 3.273 0 0 1-4.007-1.116v0Z" fill="#FADCBE" stroke="#672938" stroke-width="3" stroke-linecap="round" stroke-linejoin="round"/><path d="m125.395 333.874-.38-1.404a23.103 23.103 0 0 1 .572-13.811 23.13 23.13 0 0 1 8.353-11.019 72.845 72.845 0 0 1 7.923-4.843 46.69 46.69 0 0 1 5.435-2.152 23.051 23.051 0 0 1 14.458-.047 23.026 23.026 0 0 1 11.637 8.573v0l-47.998 24.703Z" fill="#FADCBE" stroke="#672938" stroke-width="3" stroke-linecap="round" stroke-linejoin="round"/><path d="M125.395 333.874s16.883-25.313 47.998-24.703l4.468 4.429a5.271 5.271 0 0 1 .781 4.279 5.261 5.261 0 0 1-2.704 3.407l-42.608 21.746a5.27 5.27 0 0 1-6.362-1.219 5.249 5.249 0 0 1-1.1-2.025l-.473-5.914Z" fill="#fff" stroke="#672938" stroke-width="3" stroke-linecap="round" stroke-linejoin="round"/><path d="m130.474 311.38 6.161-.644a18.12 18.12 0 0 0 12.587-7.111l2.026-2.692M126.42 319.388s17.481 3.371 35.837-17.662M130.025 305.121s4.145-10.448 19.058-9.884M127.526 304.591l-3.858 8.492" stroke="#672938" stroke-width="3" stroke-linecap="round" stroke-linejoin="round"/><path d="m147.506 133.858 28.087-11.897c7.197-4.925 15.938-5.983 17.63 2.566l1.152 7.225a3.446 3.446 0 0 1-.924 3.006 3.46 3.46 0 0 1-2.98 1.01l-42.965-1.91Z" fill="#3B92E2" stroke="#672938" stroke-width="3" stroke-linecap="round" stroke-linejoin="round"/><path d="m149.279 293.753 9.201 1.323" stroke="#672938" stroke-width="3" stroke-linecap="round" stroke-linejoin="round"/><path d="M179.416 136.504a38.288 38.288 0 0 1 11.827 3.751c.716.791 1.353 1.65 1.9 2.566 2.303 3.866 8.522 24.588 8.522 24.588s1.255 4.096.414 7.168c-.99 3.67-3.812 4.786-4.825 5.614-1.014.829-48.171 21.251-48.171 21.251l-2.625.656s.299 1.715 6.667-.84c6.369-2.554 45.741-18.742 45.741-18.742s5.758-2.474 6.702-8.193c.945-5.718-3.086-14.462-3.086-14.462l-6.909-17.259s-1.44-3.889-3.536-4.602c-2.096-.713-2.119-.909-12.621-1.496Z" fill="#1871C4"/><path d="M184.805 243.588s9.017 1.151 9.892 10.275c.876 9.124.737 120.304.737 120.304" stroke="#fff" stroke-linecap="round" stroke-linejoin="round"/><path d="m67.24 214.651 6.91-2.301a4.39 4.39 0 0 1 5.046 1.724 4.383 4.383 0 0 1-.347 5.317l-6.714 7.732-4.894-12.472Z" fill="#E3A473" stroke="#672938" stroke-width="3.42" stroke-linecap="round" stroke-linejoin="round"/><path d="m149.129 134.525-10.157-2.945a6.458 6.458 0 0 1-4.06-8.047 6.452 6.452 0 0 1 1.757-2.78l.461-.426a5.497 5.497 0 0 1 3.915-1.473v0a5.616 5.616 0 0 1 5.321 6.698 5.614 5.614 0 0 1-1.486 2.829l4.249 6.144Z" fill="#3B92E2" stroke="#672938" stroke-width="3" stroke-linecap="round" stroke-linejoin="round"/><path d="M163.778 131.419s-8.131 4.797-11.516 16.936M142.807 128.968s-4.905 6.466-8.233 18.605" stroke="#672938" stroke-width="3" stroke-linecap="round" stroke-linejoin="round"/><path d="M151.824 152.555a2.74 2.74 0 1 0 0-5.477 2.74 2.74 0 1 0 0 5.477ZM133.894 151.381a2.74 2.74 0 1 0 0-5.477 2.74 2.74 0 1 0 0 5.477Z" fill="#672938"/><path d="m113.857 283.547 21.995-13.289M60.48 323.047l31.347 3.394" stroke="#672938" stroke-width="3" stroke-linecap="round" stroke-linejoin="round"/><path d="m62.83 239.906 7.301 5.603a2.74 2.74 0 0 1 .989 2.902 2.735 2.735 0 0 1-2.325 2l-8.06.955 2.095-11.46Z" fill="#E3A473" stroke="#672938" stroke-width="3.42" stroke-linecap="round" stroke-linejoin="round"/></svg>