<svg width="290" height="340" fill="none" xmlns="http://www.w3.org/2000/svg"><path fill-rule="evenodd" clip-rule="evenodd" d="M.779 55.738S-14.55 312.13 145 340C304.549 312.131 289.221 55.738 289.221 55.738L145 26.475.779 55.738Z" fill="#3E0086"/><g filter="url(#a)"><path fill-rule="evenodd" clip-rule="evenodd" d="M.779 43.197S-14.55 299.59 145 327.459C304.549 299.59 289.221 43.197 289.221 43.197 211.189 43.197 145 0 145 0S83.689 43.197.779 43.197Z" fill="#6100D4"/></g><path d="M8.167 50.75c39.642-1.181 73.985-11.663 98.783-22.087 13.181-5.54 23.721-11.087 30.995-15.27a208.06 208.06 0 0 0 7.19-4.319 251.018 251.018 0 0 0 7.756 4.404c7.626 4.16 18.593 9.686 32.047 15.21 25.192 10.344 59.411 20.805 96.895 22.05.027 1.099.052 2.317.072 3.647.106 6.938.082 16.911-.438 28.978-1.043 24.166-4.073 56.569-11.98 89.737C253.63 239.611 219.062 306.028 145 319.673 70.938 306.028 36.37 239.611 20.514 173.1c-7.908-33.168-10.938-65.571-11.98-89.737-.521-12.067-.545-22.04-.44-28.978.021-1.325.046-2.539.073-3.635Z" stroke="#4B00A3" stroke-width="15.328"/><path d="M167.295 132.755c0 11.929-9.67 19.13-21.598 19.13-11.929 0-21.599-7.201-21.599-19.13 0-11.928 9.67-24.067 21.599-24.067 11.928 0 21.598 12.139 21.598 24.067ZM182.623 182.282c0-18.085-18.841-24.823-36.926-24.823s-38.32 5.345-38.32 23.43 12.541 39.275 38.32 39.275c25.778 0 36.926-19.797 36.926-37.882Z" fill="#3E0086"/><defs><filter id="a" x=".381" y="0" width="289.239" height="327.459" filterUnits="userSpaceOnUse" color-interpolation-filters="sRGB"><feFlood flood-opacity="0" result="BackgroundImageFix"/><feBlend in="SourceGraphic" in2="BackgroundImageFix" result="shape"/><feColorMatrix in="SourceAlpha" values="0 0 0 0 0 0 0 0 0 0 0 0 0 0 0 0 0 0 127 0" result="hardAlpha"/><feOffset dy="26.475"/><feComposite in2="hardAlpha" operator="arithmetic" k2="-1" k3="1"/><feColorMatrix values="0 0 0 0 0.241684 0 0 0 0 0 0 0 0 0 0.52526 0 0 0 1 0"/><feBlend in2="shape" result="effect1_innerShadow_511_13778"/></filter></defs></svg>