<svg width="188" height="248" fill="none" xmlns="http://www.w3.org/2000/svg"><ellipse cx="174.5" cy="92" rx="13.5" ry="5" fill="#F9CA56"/><path fill="#F9CA56" d="M161 88h27v4h-27z"/><ellipse cx="174.5" cy="88" rx="13.5" ry="5" fill="#FFE7A3"/><ellipse cx="174.5" cy="86" rx="8.5" ry="3" fill="#F9CA56"/><path fill="#F9CA56" d="M166 82h17v4h-17z"/><ellipse cx="174.5" cy="82" rx="8.5" ry="3" fill="#FFE7A3"/><ellipse cx="174.5" cy="81" rx="2.5" ry="1" fill="#F9CA56"/><path fill="#F9CA56" d="M172 11h5v70h-5z"/><circle cx="174.5" cy="6.5" r="6.5" fill="#FFE7A3"/><path d="M175.965 14.375a2 2 0 0 0-3.93-.75l3.93.75Zm-66.262 46.527a2 2 0 0 0-2.406 3.196l2.406-3.196Zm62.332-47.277c-2.729 14.31-8.922 33.613-19.211 45.53-5.112 5.92-11.098 9.865-18.046 10.66-6.941.793-15.24-1.512-25.075-8.913l-2.406 3.196c10.365 7.8 19.666 10.636 27.935 9.69 8.261-.944 15.093-5.618 20.619-12.018 10.986-12.725 17.343-32.872 20.114-47.395l-3.93-.75Z" fill="#FF3815"/><ellipse cx="107" cy="159.037" rx="16" ry="5.926" fill="#F9CA56"/><path fill="#F9CA56" d="M91 154.296h32v4.741H91z"/><ellipse cx="107" cy="154.296" rx="16" ry="5.926" fill="#FFE7A3"/><ellipse cx="107" cy="151.926" rx="10.074" ry="3.556" fill="#F9CA56"/><path fill="#F9CA56" d="M96.926 147.185h20.148v4.741H96.926z"/><ellipse cx="107" cy="147.185" rx="10.074" ry="3.556" fill="#FFE7A3"/><ellipse cx="107" cy="146" rx="2.963" ry="1.185" fill="#F9CA56"/><path fill="#F9CA56" d="M104.037 63.037h5.926V146h-5.926z"/><circle cx="107" cy="57.704" r="7.704" fill="#FFE7A3"/><path d="M109.453 67.484a2.5 2.5 0 0 0-4.906-.968l4.906.968Zm-84.982 47.128a2.5 2.5 0 1 0-2.942 4.043l2.942-4.043Zm80.076-48.096c-2.747 13.924-12.99 33.437-27.58 45.656-7.26 6.081-15.462 10.243-24.225 11.144-8.71.896-18.236-1.403-28.271-8.704l-2.942 4.043c10.913 7.94 21.649 10.671 31.725 9.635 10.023-1.03 19.133-5.76 26.923-12.284 15.51-12.991 26.319-33.535 29.276-48.522l-4.906-.968Z" fill="#FF3815"/><ellipse cx="21" cy="240.111" rx="21" ry="7.778" fill="#F9CA56"/><path fill="#F9CA56" d="M0 233.889h42v6.222H0z"/><ellipse cx="21" cy="233.889" rx="21" ry="7.778" fill="#FFE7A3"/><ellipse cx="21" cy="230.778" rx="13.222" ry="4.667" fill="#F9CA56"/><path fill="#F9CA56" d="M7.778 224.555h26.444v6.222H7.778z"/><ellipse cx="21" cy="224.556" rx="13.222" ry="4.667" fill="#FFE7A3"/><ellipse cx="21" cy="223" rx="3.889" ry="1.556" fill="#F9CA56"/><path fill="#F9CA56" d="M17.111 114.111h7.778V223h-7.778z"/><circle cx="21" cy="107.111" r="10.111" fill="#FFE7A3"/></svg>