<svg width="1153" height="1266" fill="none" xmlns="http://www.w3.org/2000/svg"><path d="M368 172c-11.811 2.105-26.472 10.662-29.319 23-1.943 8.417-.037 17.451-.851 26-1.3 13.66-4.69 27.17-9.578 40-5.12 13.438-19.007 29.152-10.835 43.996 5.819 10.569 32.297 26.846 44.583 25.816 6.716-.563 13.711-8.067 19.848-7.56 4.302.356 1.857 6.571.762 8.733-5.705 11.262-18.423 13.685-28.61 19.098-21.957 11.668-43.203 23.155-63 38.417-62.36 48.074-110.632 116.301-141.225 188.5-9.058 21.375-24.316 50.214-22.685 74 1.578 23.032 32.412 42.159 49.486 54 4.911 3.406 12.998 6.452 16.49 11.39 3.043 4.303 1.998 11.567 2.934 16.61-15.85-1.261-29.185-7.507-44-12.255-21.698-6.956-43.37-13.528-65-20.745-13.845-4.619-32.077-15.453-47-11.211-11.486 3.264-20.389 15.078-18.7 27.211.926 6.642 5.06 12.339 5.607 19 2.076 25.303-6.54 56.332 28.093 61v221c0 18.2 1.161 36.84-.09 55-.738 10.73-4.411 21.67.583 31.99 8.336 17.2 29.246 16.25 42.506 5.63 8.47-6.78 14.431-17.1 21.012-25.62 14.28-18.48 31.306-32.37 27.989-57 18.932 15.36 43.353 48.68 71 34.18 8.962-4.71 14.995-14.08 23-20.18 3.21 17.99 24.11 22.8 39 16.09 8.091-3.64 13.567-11.1 20-16.92 16.876-15.27 31.287-32.69 51-43.17-1.043 7.1-3.151 13.77-1.236 21 4.742 17.9 24.057 21.24 39.236 15.07 7.586-3.08 13.587-9.81 20-14.73 15.84-12.17 33.481-28.654 52-36.34-.168 8.091-3.137 15.806-1.671 24 2.173 12.14 15.9 20.1 27.671 18.71 18.896-2.23 35.224-16.82 51-26.441 4.903-2.99 7.556-8.42 12.209-11.256 3.388-2.065 8.113-2.133 11.791-3.805 14.304-6.503 33.68-15.866 43.66-28.208 6.682-8.265 4.591-16.352 4.355-26-.424-17.311-.015-34.683-.015-52 9.286 4.599 17.783 13.059 29 10.471 4.353-1.005 7.934-3.786 12-5.471.052 6.19 3.673 11.212 3.948 17 .234 4.947-3.656 9.824-3.908 15-1.082 22.233-.041 44.779-.04 67 .001 13.288-5.044 27.59 7.043 37.61 9.152 7.59 21.326 7.18 31.957 3.64 23.353-7.77 48.487-25.719 69-39.25 2.619 14.108-5.197 30.78.533 44 14.097 32.53 58.328 3.21 76.467-8.7 4.605-3.02 7.776-7.45 12.17-10.57 4.957-3.52 13.116-5.35 18.83-7.73 3.208 13.47-4.456 27.4 2.417 40 6.715 12.31 23.918 16.11 36.583 11.56 25.926-9.33 47.068-32 70-46.56 0 9.21.807 18.84-.174 28-1.527 14.26-7.394 29.45 5.217 40.79 13.266 11.92 31.157 6.48 43.957-2.65 27.35-19.51 52.29-42.43 76-66.14 8.74-8.737 22.57-18.357 25.47-31 1.85-8.074-1.43-15.946-1.47-24-.11-22.859 7.44-60.745-24-65 4.42-23.814 4.69-56.901-9-77 10.48-2.713 20.42-3.792 27.47-13.001 5.09-6.644 5.53-13.981 5.53-21.999 0-17.585 5.73-46.719-9.04-59.674-32.55-28.549-65.62-8.309-100.96 2.263-14.11 4.221-35.126 7.207-41.521 22.411-5.439 12.933 2.521 25.679 2.521 39v108h-20c0-33.494-1.831-67.564.043-101 .369-6.586 4.467-12.371 4.693-19 .288-8.455-6.131-12.848-8.083-20.089-1.666-6.179 1.051-19.682 2.664-25.907 1.971-7.608 15.589-12.548 21.683-16.675 15.416-10.441 31.3-23.676 41.64-39.329 7.18-10.869 3.3-23.597-.47-35-7.53-22.732-15.49-45.183-25.479-67C960.443 491.569 908.975 424.072 845 379.809c-13.054-9.031-26.724-17.707-41-24.7-8.592-4.21-18.873-6.943-26.911-12.032-7.296-4.62-12.953-12.297-12.089-21.077 7.713 2.226 13.736 8.334 22 8.903 15.177 1.045 47.642-19.475 47.817-35.903.095-8.85-5.804-16.42-9.569-24-4.848-9.757-8.182-20.433-10.773-31-2.247-9.161-3.429-19.575-3.474-29-.032-6.588 1.345-14.885-1.574-21-4.742-9.935-17.485-15.158-27.427-18 8.796-32.158 6.371-61.841-22-84.181-8.45-6.654-24.641-9.562-31.182-17.237-4.617-5.417-6.558-14.366-10.271-20.582-7.629-12.772-19.242-24.342-32.547-31.179C669.846 10.519 652.793 9 635 9c-13.876 0-26.253 3.684-27 20-21.892-12.188-44.478-16.53-66 0-6.854-33.119-58.153-20.797-80-9.218-12.49 6.62-24.698 17.825-31.652 30.218-3.431 6.114-5.203 15.608-9.858 20.698-6.529 7.14-20.56 8.919-28.49 15.122-28.368 22.189-36 53.145-24 86.18Z" fill="#A7351D"/><path d="m395 307-4.019 28.999L378 355c-9.401-3.442-17.709 3.247-26 7.222-21.133 10.133-40.666 22.936-59 37.492C233.342 447.082 185.611 513.464 157.079 584c-8.043 19.881-22.39 46.069-21.035 68 .483 7.817 7.861 14.639 12.995 20 9.796 10.229 21.151 19.224 32.961 26.997 5.679 3.737 13.979 6.55 18.683 11.397 6.057 6.241 4.952 27.114 5.317 35.606-18.151-1.583-35.208-8.601-52-13.95-24.012-7.649-47.966-15.49-72-23.075-13.128-4.143-34.27-18.095-46.66-6.294-3.453 3.289-5.46 8.569-4.836 13.319.777 5.898 4.161 10.992 4.456 17 .706 14.404-4.294 34.611 4.688 46.985 6.572 9.053 24.101 4.943 24.347 18.015 1.403 74.607.005 149.378.005 224 0 17.71 1.711 36.39-.174 54-.91 8.49-4.707 19.23.827 26.98 6.007 8.42 15.127 7.47 23.347 3.31 12.372-6.26 20.428-22.78 28.757-33.38 7.196-9.16 19.348-19.47 22.312-30.91 2.166-8.37-4.068-17.2-4.069-26V807c3.064.607 6.809.925 8.258 4.147 1.961 4.362.742 11.165.742 15.853v139c0 13.102-3.655 32.733 1.148 45 3.277 8.37 12.552 13.92 19.137 19.48 13.784 11.63 28.507 32.81 48.715 24.05 16.607-7.19 24.539-28.34 39-38.53-.058 6.96-3.921 14.28-3.332 21 1.274 14.51 17.269 17.75 28.332 12.16 6.75-3.41 11.436-10.03 16.996-14.98 9.294-8.26 19.78-15.54 27.779-25.18 2.685-3.24 2.914-8.53 5.814-11.258 2.907-2.739 8.791-2.312 12.411-4.12 7.689-3.841 14.572-10.007 21-15.622 3.316 13.929-8.898 33 .51 44.9 7.27 9.19 21.794 5.11 29.49-1 25.253-20.03 51.523-40.023 79-56.9 0 7.914.629 16.119-.104 24-.538 5.788-3.101 11.09-1.243 17 2.839 9.04 12.952 11.99 21.347 10.18 15.158-3.27 32.537-16.911 44.985-25.93 4.025-2.916 5.196-8.638 9.24-11.071 3.589-2.159 8.801-1.274 12.775-2.738 12.446-4.586 34.849-15.774 42.405-26.905 4.729-6.967 1.596-16.667 1.595-24.536-.001-20.137-3.665-44.407 1-64 8.016 5.873 21.713 18.605 32.004 18.862 8.093.202 14.325-13.133 21.937-8.753 6.394 3.678 2.995 12.037 4.697 17.887 1.854 6.373 7.094 8.657 11.362 13.004-11.587 2.247-12 12.156-12 22v63c-.014 9.008-3.953 18.7 4.105 25.61 10.496 9 22.84 2.1 32.895-3.18 24.224-12.725 47.792-26.936 71-41.43 0 12.585.77 25.445-.089 38-.493 7.19-2.849 15.6 1.893 21.91 7.562 10.05 24.211 4.96 33.196-.08 10.153-5.69 21.569-10.84 30.826-17.92 3.645-2.79 4.91-7.66 8.448-10.271 3.241-2.394 8.894-1.54 12.726-3.139 7.829-3.267 14.031-9.484 22-12.5 0 11.294.508 22.72-.04 34-.366 7.52-3.297 12.88 1.254 19.96 7.804 12.13 24.01 7.54 33.786 1.34 25.34-16.06 47.865-36.33 73-52.3 0 15.75 1.503 32.34-.174 48-1.085 10.14-6.557 20.55-.267 29.96 14.581 21.81 44.391-6.39 56.441-16.69 18.39-15.71 36.37-31.53 53.58-48.55 6.79-6.722 17.17-14.286 21.5-22.809 3.49-6.868.58-12.904.01-19.911-1.22-15.235 6.35-44.651-4.77-56.671-6.56-7.083-16.9-4.325-25.32-6.329 12.09-13.48 7-39.002 7-56 0-8.011-.42-15.162-7.04-20.722-8.76-7.363-19.87-2.361-29.96-2.278v-9c15.71-.324 50.48-3.799 58.43-19 4.54-8.681 1.57-24.365 1.57-34 0-9.898 2.43-23.091-5.19-30.815-27.78-28.178-61.78-5.852-92.81 3.106-11.53 3.329-31.128 5.512-36.401 17.709-4.177 9.662 3.401 22.449 3.401 33v95c0 5.574 2.153 16.916-1.028 21.682-1.912 2.866-6.008 2.254-8.972 2.333-6.358.169-22.435 3.343-27.397-1.618C942.559 888.352 946 867.912 946 861c0-24.964-.718-50.047.015-75 .284-9.642 8.299-17.032 3.99-26.996-1.631-3.773-5.757-6.078-6.825-10.043-2.121-7.877 2.425-18.841 2.781-26.961.155-3.546-.622-7.742 1.642-10.787 3.897-5.238 12.997-7.955 18.397-11.546 12.711-8.454 24.378-17.599 34.96-28.667 5.04-5.266 12.7-12.254 12.98-20 .3-8.396-3.83-17.156-6.33-25-5.41-16.982-11.48-33.741-18.84-50-30.565-67.521-74.276-130.143-132.785-176.424-18.18-14.381-37.428-26.531-57.985-37.213-8.85-4.598-17.987-10.51-28-7.363l-12.046-19.001L754 307c11.498 2.731 21.581 13.194 33 14.782 6.798.945 12.559-4.205 18-7.474 6.344-3.813 17.445-8.935 20.092-16.309 2.309-6.433-3.112-13.532-5.845-18.999-6.083-12.165-10.594-24.803-13.872-38-2.707-10.897-3.375-22.811-3.375-34 0-6.18 1.137-12.846-4.109-17.239-14.35-12.017-39.613-17.708-57.891-18.725-8.819-.492-23.843 1.904-28-7.036 10.113-3.798 20.044-7.758 31-5.1 9.382 2.275 22.169 14.911 30.722 5.886 12.83-13.536 3.468-43.015-5.741-55.786-6.601-9.154-15.84-16.901-25.981-21.87-5.709-2.797-15.165-4.182-19.686-8.56-5.254-5.087-6.958-16.144-10.768-22.57-9.358-15.784-23.941-28.375-41.546-33.95-12.326-3.903-24.224-4.05-37-4.05-6.376 0-13.577.206-15.174 8-2.054 10.03 13.799 21.798 17.174 31-7.737-4.515-16.449-6.682-23.961-11.616-5.986-3.932-9.887-10.25-16.039-14.044-10.118-6.238-26.248-5.95-37-1.577-7.717 3.139-11.694 9.624-18.039 14.452C532.58 49.833 522.862 53.467 514 56c4.627-8.31 19.061-19.947 17.732-30-1.21-9.148-10.928-8-17.732-8-17.425 0-32.219 2.156-48 10.015-12.522 6.235-23.155 17.64-29.572 29.985-2.937 5.65-4.629 16.075-8.991 20.437-4.624 4.623-16.369 6.96-22.437 10.088-11.438 5.895-19.982 14.673-26.766 25.475-7.101 11.305-8.552 25.989-6.948 39 .781 6.336 2.638 12.9 9.718 14.452 8.431 1.849 18.524-7.229 26.996-8.938 7.246-1.462 15.204-.165 21.999 2.58 2.245.907 6.515 2.622 5.504 5.802-1.637 5.147-17.982 3.483-22.503 3.935-19.822 1.982-43.538 5.263-59.956 17.806C346.111 193.934 347 202.206 347 210c0 11.357-1.111 22.003-3.873 33-2.73 10.866-5.968 21.935-10.988 32-2.845 5.703-8.964 13.447-8.876 20 .099 7.339 8.533 11.029 13.737 14.448 6.364 4.181 15.153 11.897 23 12.379 10.632.653 24.66-11.457 35-14.827Z" fill="#333213"/><path d="m484 41 1 1-1-1Z" fill="#A7351D"/><path d="M432 103v1h5c-2.242 4.936-11.197 8.966-10.534 14.852.527 4.672 7.679 2.726 10.534 2.144 8.634-1.76 21.121-6.446 26.258-14.089 4.527-6.737 3.389-20.822 5.473-28.907 3.717-14.416 11.211-24.806 19.269-37-16.317 2.909-30.145 20.124-35.492 35-2.155 5.997-2.876 16.996-7.072 21.683-2.893 3.231-9.473 3.751-13.436 5.317Zm230-62c5.973 10.916 14.583 19.496 17.971 32 2.517 9.287 1.578 27.597 7.463 34.826 5.773 7.093 16.905 11.323 25.566 13.286 2.854.647 10.014 2.352 10.534-2.26.631-5.596-8.372-10.903-11.534-14.852l9 1c-4.718-3.771-13.687-3.14-17.062-8.148-3.603-5.348-4.227-14.677-6.446-20.852-5.163-14.362-19.337-32.887-35.492-35Z" fill="#AEB2A1"/><path d="m487 42 1 1-1-1Zm-1 1 1 1-1-1Zm84 0v1h10l-10-1Zm93 0 1 1-1-1ZM485 44l1 1-1-1Zm179 0 1 1-1-1ZM484 45l1 1-1-1Zm181 0 1 1-1-1ZM674 46l1 1-1-1Z" fill="#A7351D"/><path d="m474 49 1 1-1-1Z" fill="#fff"/><path d="m481 49 1 1-1-1Zm187 0 1 1-1-1Z" fill="#A7351D"/><path d="m675 49 1 1-1-1Z" fill="#fff"/><path d="m470 50 1 1-1-1Zm209 0 1 1-1-1Z" fill="#A7351D"/><path d="m767 50 1 1-1-1Z" fill="#333213"/><path d="m469 51 1 1-1-1Zm211 0 1 1-1-1Z" fill="#A7351D"/><path d="m471 52 1 1-1-1Z" fill="#fff"/><path d="m479 52 1 1-1-1Zm191 0 1 1-1-1Z" fill="#A7351D"/><path d="m678 52 1 1-1-1Zm-209 1c-8.15 10.042-15.293 20.218-18.41 33-1.187 4.868-3.237 10.648 1.41 14 .227-11.006 3.944-22.165 9.109-31.83 2.412-4.514 8.321-9.99 7.891-15.17Zm211 0c6.335 16.475 17.611 28.13 18 47 4.62-3.332 2.662-9.17 1.36-14-3.183-11.8-9.307-25.595-19.36-33Z" fill="#fff"/><path d="m478 54 1 1-1-1Zm193 0 1 1-1-1Zm-194 1 1 1-1-1Zm195 0 1 1-1-1ZM685 56l1 1-1-1Zm-209 1 1 1-1-1ZM475 59l1 1-1-1Zm199 0 1 1-1-1ZM528 169c4.634-15.675 3.546-33.748 7.885-50 5.979-22.396 17.278-39.226 30.115-58-12.596.26-19.041 8.39-26.116 18-11.888 16.148-17.919 33.893-23.177 53-1.902 6.913-4.886 17.82-2.107 24.829 2.042 5.153 8.811 9.529 13.4 12.171Zm56-108c13.959 20.418 25.428 38.612 31.525 63 3.644 14.578 2.327 30.966 6.475 45 16.776-8.656 15.017-20.996 11.13-37-4.726-19.453-11.926-37.842-24.025-54-6.884-9.194-12.975-16.748-25.105-17ZM473 63l1 1-1-1Zm10 0 1 1-1-1Z" fill="#A7351D"/><path d="m536 87 25-23c-10.017-3.86-21.031 15.872-25 23Z" fill="#D0A837"/><path d="M570 63c-21.569 20.705-30.67 54.382-34.576 83-.977 7.155-5.472 26.182 2.635 30.289 4.798 2.43 8.511-3.157 11.941-5.676 6.207-4.56 13.304-7.544 21-7.613l1.155-75L570 63Zm9 0-1.004 30L579 163c8.08.072 15.639 3.399 22 8.376 3.452 2.7 7.122 7.49 11.852 4.432 6.94-4.487 2.735-22.998 1.727-29.808-3.321-22.432-9.066-44.271-20.591-64-3.967-6.792-8.06-14.873-14.988-19Z" fill="#A7351D"/><path d="m589 63 27 31c.959-10.196-17.016-30.274-27-31Z" fill="#D0A837"/><path d="m666 63 1 1-1-1Zm10 0 1 1-1-1Zm15 1 1 1-1-1Zm-152 3 2 1v1c-9.096-.7-17.109 8.624-22.572 15-13.336 15.566-34.146 50.516-9.428 66 .703-32.984 19.931-57.446 36-84l-6 1Zm66-1c3.942 8.287 11.775 14.978 16.547 23 10.316 17.341 18.527 39.729 19.453 60 11.616-3.835 12.545-20.384 9.845-30-5.447-19.399-23.458-50.706-45.845-53Zm63 0 1 4h1l-2-4Zm24 0 1 1-1-1ZM481 67l-1 3 1-3Zm-10 1 1 1-1-1Z" fill="#A7351D"/><path d="M538 68v1h3l-3-1Zm71 0v1l17 12-17-13Z" fill="#D0A837"/><path d="m678 68 1 1-1-1Zm-208 2 1 1-1-1Z" fill="#A7351D"/><path d="m480.333 70.666.334.667-.334-.666Z" fill="#AEB2A1"/><path d="m525 80 13-9c-5.242-.495-10.141 5.082-13 9Z" fill="#D0A837"/><path d="m669 70 1 1-1-1Z" fill="#AEB2A1"/><path d="m679 70 1 1-1-1Zm-10 1v2l2-2h-2ZM479 72l2 2v-2h-2Z" fill="#A7351D"/><path d="M670 72c1.169 14.311 4.391 27.403 2.826 42-2.777 25.907-21.094 50.58-42.826 64v1c9.652-2.534 19.139-12.451 25.192-20C672.457 137.47 685.97 98.107 670 72Zm-191 1c-9.433 36.075-2.043 87.764 38 104v-1c-19.994-14.821-38.013-38.127-39.91-64-.564-7.701-.827-16.327.094-24 .601-5.007 3.741-10.065 1.816-15Z" fill="#AEB2A1"/><path d="m478 74 1 1-1-1Zm193 0 1 1-1-1Zm-202 1 1 1-1-1Zm211 0 1 1-1-1Zm-10 1 1 1-1-1ZM468 78l1 1-1-1Zm204 0 1 1-1-1Zm9 0 1 1-1-1Zm-230 1 1 1-1-1Zm26 0 1 1-1-1Zm39 0c-8.09 5.177-23.308 13.83-25.523 24-.929 4.264 1.483 9.538 1.523 14 6.932-2.019 13.192-22.801 18.245-29 2.223-2.726 5.415-5.481 5.755-9Z" fill="#A7351D"/><path d="M563 79c-10.719 16.591-15.093 36.563-17 56 12.295-7.231 13.796-28.373 15.576-41 .647-4.593 2.48-10.53 1.424-15Zm23 0c.055 20.046 5.089 40.279 16 57h1c-.048-17.244-5.176-43.802-17-57Z" fill="#D0A837"/><path d="m632 79 1 1-1-1Zm41.333.667.334.666-.334-.666ZM698 79l1 1-1-1ZM634 80l22 38h1c5.213-17.596-5.878-31.72-23-38Zm37.333.667.334.666-.334-.666ZM476 81l1 1-1-1Zm2 1 1 1-1-1Z" fill="#A7351D"/><path d="m522 82 1 1-1-1Zm105 0 1 1-1-1Z" fill="#D0A837"/><path d="m467 83 1 1-1-1Z" fill="#A7351D"/><path d="m628.667 84.333.666.334-.666-.334ZM639 84l1 1-1-1Z" fill="#D0A837"/><path d="m682 84 1 1-1-1Zm-205 1 1 1-1-1Zm195 0 1 1-1-1ZM466.333 86.667l.334.666-.334-.666ZM674 86l1 1-1-1Zm9.333.667.334.666-.334-.666ZM475 87l1 1-1-1Z" fill="#A7351D"/><path d="m535 88 1 1-1-1ZM503 89l-12 16 14-16h-2Zm142 0 13 16c-1.05-6.832-7.282-12.512-13-16Z" fill="#D0A837"/><path d="m474 90 1 1-1-1Zm201 0 1 1-1-1Z" fill="#A7351D"/><path d="m533.333 91.666.334.667-.334-.666Z" fill="#D0A837"/><path d="m447 93 1 1-1-1Zm255 0 1 1-1-1ZM465 95v6h1l-1-6Z" fill="#A7351D"/><path d="m618 95 1 1-1-1Z" fill="#D0A837"/><path d="M684 96v6h1l-1-6ZM444 99l1 1-1-1Zm229 0 1 1-1-1Zm32.667.333.666.334-.666-.334ZM438 100l1 1-1-1Zm38 0 1 1-1-1Zm235 0 1 1-1-1ZM436 101l1 1-1-1Zm237 0v3h1l-1-3Zm40 0 1 1-1-1Zm-281 1 1 1-1-1Zm285 0 1 1-1-1ZM431 103v2h2l-2-2Zm-4 3 3-2-3 2Z" fill="#A7351D"/><path d="m430 104 1 1-1-1Z" fill="#AEB2A1"/><path d="m436 104 1 1-1-1Zm276 0 1 1-1-1Zm5.667.333.666.334-.666-.334ZM721 104l3 2v-1l-3-1ZM464 105l1 1-1-1Zm221 0 1 1-1-1Zm-249 1 1 1-1-1Z" fill="#A7351D"/><path d="M392 141c7.355-2.116 6.711-9.156 9.904-15 3.96-7.246 10.415-12.355 15.096-19-14.704 3.455-23.851 19.929-25 34Z" fill="#AEB2A1"/><path d="m422.667 107.333.666.334-.666-.334Zm304 0 .666.334-.666-.334Z" fill="#A7351D"/><path d="M733 107c4.462 6.334 10.765 11.183 14.64 18 3.353 5.896 2.958 13.859 10.36 16-.64-14-10.627-30.702-25-34Z" fill="#AEB2A1"/><path d="m412 108 1 1-1-1Zm22 0 1 1-1-1Zm281 0 1 1-1-1Zm22 0 1 1-1-1Zm-318 1 1 1-1-1Zm311 0 1 1-1-1ZM409 110l1 1-1-1Zm50 0 1 1-1-1Zm231 0 1 1-1-1Zm1 1 1 1-1-1Zm-235 1 1 1-1-1Zm18.333.667.334.666-.334-.666ZM428 113l1 1-1-1Zm247 0 1 1-1-1Z" fill="#A7351D"/><path d="M407 114c-7.343 7.405-12.748 15.248-13 26h1l12-26Zm335 0 1 1-1-1Z" fill="#fff"/><path d="m451 115 1 1-1-1Zm26 0 1 1-1-1Zm221 0 1 1-1-1Zm-223 1 1 1-1-1Zm197 0 1 1-1-1Z" fill="#A7351D"/><path d="m744 116 11 23h1c-.469-9.163-4.502-17.604-12-23Z" fill="#fff"/><path d="m407 117 1 1-1-1Zm267 0 1 1-1-1Zm68 0 1 1-1-1Zm-316.667 1.667.334.666-.334-.666ZM445 118l1 1-1-1Zm16 0 1 1-1-1Z" fill="#A7351D"/><path d="m431 136 17 7.411L473 145l-7-27c-11.166.912-32.41 5.2-35 18Zm253-18-7 27c12.304-3.935 30.827 2.237 40.353-8.724 3.225-3.711-2.555-8.102-5.357-9.747-8.134-4.775-18.635-7.764-27.996-8.529Z" fill="#AEB2A1"/><path d="m688 118 1 1-1-1Zm16 0 1 1-1-1Zm20.333.667.334.666-.334-.666Zm-267.666.666.666.334-.666-.334Zm9.666.334.334.666-.334-.666ZM478 119l1 1-1-1Zm193.333.667.334.666-.334-.666Zm12 0 .334.666-.334-.666Zm9.334-.334.666.334-.666-.334Zm-253 1 .666.334-.666-.334Zm270 0 .666.334-.666-.334ZM404 121l1 1-1-1Zm22 0 1 1-1-1Zm8.667.333.666.334-.666-.334ZM449 121l1 1-1-1Zm251 0 1 1-1-1Zm14 0 1 1-1-1Zm-267 1 1 1-1-1Zm29 0 1 1-1-1Zm206 0 1 1-1-1Zm-238 1 1 1-1-1Zm23 0 1 1-1-1Zm12 0 1 1-1-1Zm194 0 1 1-1-1Zm32 0 1 1-1-1Zm-263 1 1 1-1-1Zm35 0 1 1-1-1Zm193 0 1 1-1-1Zm37 0 1 1-1-1ZM480 125l1 1-1-1Zm192 0 1 1-1-1Zm38 0 1 1-1-1Zm-274 2 1 1-1-1Zm277 0 1 1-1-1Zm-245 1 1 1-1-1Zm201 0 1 1-1-1Zm12 0 1 1-1-1Zm-203 1 1 1-1-1Zm3 0 1 1-1-1Zm-49 1 1 1-1-1Zm285 0 1 1-1-1Zm-49 1 1 1-1-1Zm12.333.667.334.666-.334-.666ZM431 132l1 1-1-1Zm48 0 1 1-1-1Zm3 0 1 1-1-1Zm188 0 1 1-1-1Zm48 0 1 1-1-1Zm38 0 1 1-1-1Zm-89 2 1 1-1-1ZM669 135l1 1-1-1Zm82 0 1 1-1-1Zm-359 1 1 1-1-1Zm6.333.667.334.666-.334-.666ZM432 136l1 1-1-1Zm38 0 1 1-1-1Zm209 0 1 1-1-1Zm-195 1 1 1-1-1Zm184 0 1 1-1-1Zm-231 1 1 1-1-1Zm275 0 1 1-1-1Zm-316 1 1 1-1-1Zm271 0 1 1-1-1Zm11 0 1 1-1-1Zm75 0 1 1-1-1Zm-358 1 1 1-1-1Zm269 0 1 1-1-1Zm90 0 1 1-1-1ZM443 141l1 1-1-1Zm263 0 1 1-1-1Zm-261 1 1 1-1-1Zm10 0 1 1-1-1Zm28 0 1 1-1-1Zm202 0 1 1-1-1Zm9 0 1 1-1-1ZM446 143l1 1-1-1Zm5.667.333.666.334-.666-.334ZM465 143l1 1-1-1Zm8 0 1 1-1-1Zm14 0 1 1-1-1Zm194.667.333.666.334-.666-.334Zm16 0 .666.334-.666-.334ZM703 143l1 1-1-1Zm-232 1 1 1-1-1Zm191 0 1 1-1-1Zm39 0 1 1-1-1ZM490 148l1 1-1-1ZM465.667 149.333l.666.334-.666-.334Z" fill="#A7351D"/><path d="M521 198c-6.684-6.331-15.266-10.559-21.996-17.039-7.528-7.248-12.621-16.115-19.522-23.776-2.891-3.21-10.578-9.02-15.159-6.146-6.244 3.918 7.064 12.389 9.676 14.537C488.273 177.309 503.21 191.932 521 198Z" fill="#AEB2A1"/><path d="m469 150 1 1-1-1Zm22 0 1 1-1-1Zm170 0 1 1-1-1Z" fill="#A7351D"/><path d="M629 197c4.826.956 10.024-3.444 14-5.914 11.695-7.266 22.559-16.275 33-25.217 2.623-2.247 14.68-9.894 10.377-14.137-3.991-3.937-12.652 1.669-15.591 4.739C656.543 171.346 647.405 186.105 629 197Z" fill="#AEB2A1"/><path d="m685 150 1 1-1-1ZM489 151l1 1-1-1Zm3 0 1 1-1-1Zm168 0 1 1-1-1Zm18 0 1 1-1-1Zm-2 1 1 1-1-1ZM461 153l1 1-1-1Zm32 0 1 1-1-1Zm195.333.667.334.666-.334-.666ZM476 154l1 1-1-1Zm182 0 1 1-1-1Zm15 0 1 1-1-1Zm-195 1 1 1-1-1Zm-15 1 1 1-1-1Zm191 0 1 1-1-1Zm3 0 1 1-1-1Zm29 0 1 1-1-1Zm-190 1 1 1-1-1Zm157 0 1 1-1-1Zm32 0 1 1-1-1Zm-205 1 1 1-1-1Zm17 0 1 1-1-1Zm157 1 1 1-1-1Zm14 0 1 1-1-1Zm-172 1 1 1-1-1Zm3 0 1 1-1-1Zm-30 1 1 1-1-1Zm13 0 1 1-1-1Zm185 0 1 1-1-1Zm-197 1 1 1-1-1Zm196 0 1 1-1-1Zm13 0 1 1-1-1Zm-195 2 1 1-1-1Zm16 0 1 1-1-1Zm165 0 1 1-1-1Zm-164 1 1 1-1-1Zm163 0 1 1-1-1Zm-189 1 1 1-1-1Zm27 0 1 1-1-1Zm-26 1 1 1-1-1Zm215 0-6 8c4.639-.518 9.505-3.095 6-8Zm-234 1-1 4 4 2v-1l-3-1 1-3 3 6c6.194-1.334-.692-6.416-4-7Zm30 0 1 1-1-1Zm17 0 1 1-1-1Zm141 0 1 1-1-1Zm17 0 1 1-1-1Z" fill="#A7351D"/><path d="m458 169-1 3 5 2-4-5Z" fill="#D0A837"/><path d="m505 169 1 1-1-1Zm3 0 1 1-1-1Zm133 0 1 1-1-1Zm3 0 1 1-1-1Zm17 0 1 1-1-1Z" fill="#A7351D"/><path d="m687 174 5-5-5 5Z" fill="#D0A837"/><path d="m480 170 1 1-1-1Zm29 0 1 1-1-1Zm0 2 1 1-1-1Zm129 0 1 1-1-1Zm29 0 1 1-1-1Zm-184 1 1 1-1-1Zm8 0 1 1-1-1Zm22 0 1 1-1-1Zm123 0 1 1-1-1ZM512 174l1 1-1-1Zm2 0 1 1-1-1Zm56.667.333.666.334-.666-.334Z" fill="#A7351D"/><path d="M606 203c-8.073 1.476-7.121 6.824-10.414 13-3.761 7.055-12.208 13.792-20.586 13.792-24.572 0-32.587-35.278-13-47.822 14.436-9.245 23.46 1.609 37 5.03-13.989-29.746-60.446-5.405-56.711 23 2.447 18.606 22.851 34.299 41.711 27.157 15.026-5.691 22-19.069 22-34.157Z" fill="#AEB2A1"/><path d="m578.667 174.333.666.334-.666-.334Z" fill="#A7351D"/><path d="m305 175 1 1-1-1Z" fill="#333213"/><path d="m486 175 1 1-1-1Zm7 0 1 1-1-1Zm20 0 1 1-1-1Zm143 0 1 1-1-1Zm-169 1 1 1-1-1Zm7 0 1 1-1-1Zm69 0 1 1-1-1Zm92 0 1 1-1-1Zm7 0 1 1-1-1Z" fill="#A7351D"/><path d="m517 177 3 2v-1l-3-1Z" fill="#AEB2A1"/><path d="m561 177 1 1-1-1Zm14 0 1 1-1-1Zm13 0 1 1-1-1Zm45 0 1 1-1-1Zm-116 1 1 1-1-1Zm3 0v2h2l-2-2Zm51 0 1 1-1-1Zm8 0 1 1-1-1Zm12 0 1 1-1-1Zm62 0 1 1-1-1Zm-162 1 1 1-1-1Zm75 0 1 1-1-1Zm26 0 1 1-1-1Zm37 0v2l2-2h-2Zm23 0 1 1-1-1ZM498 180l1 1-1-1Z" fill="#A7351D"/><path d="m521.667 180.333.666.334-.666-.334Z" fill="#AEB2A1"/><path d="m523 180 1 1-1-1Zm41 0 1 1-1-1Zm21 0 1 1-1-1Z" fill="#A7351D"/><path d="m627.667 180.333.666.334-.666-.334Z" fill="#AEB2A1"/><path d="m651 180 1 1-1-1Zm-152 1 1 1-1-1Zm25 0 1 1-1-1Zm126 0 1 1-1-1ZM495 182l1 1-1-1Zm5 0 1 1-1-1Zm60 0 1 1-1-1Zm29 0 1 1-1-1Zm60 0 1 1-1-1Zm-148 1 1 1-1-1Zm51 0 1 1-1-1Zm45 0 1 1-1-1Zm51 0 1 1-1-1Zm5 0 1 1-1-1Zm-151 1 1 1-1-1Zm48 0 1 1-1-1Zm42 0 1 1-1-1Zm6 0 1 1-1-1Zm49 0 1 1-1-1Zm-117 1 1 1-1-1Z" fill="#A7351D"/><path d="m531 185 1 1-1-1Z" fill="#AEB2A1"/><path d="m593 185 1 1-1-1Z" fill="#A7351D"/><path d="m618 185 1 1-1-1Z" fill="#AEB2A1"/><path d="m619 185 1 1-1-1Zm26 0 1 1-1-1ZM596 186l1 1-1-1Zm3 0-1 2h2l-1-2Zm-93 1 1 1-1-1Zm142 0 1 1-1-1ZM507 188l1 1-1-1Zm47 0 1 1-1-1Zm88 0 1 1-1-1Zm-276 45h1l1-19h1l-9 60 33-5.83 30 .83v1c-16.806 0-33.767-1.144-50 4v1l50-3v1c-21.64-.014-56.965-.158-72 19 3.866 2.549 9.095 6.791 14 5.022 7.297-2.631 13.311-7.994 21-10.241 19.443-5.681 42.515-7.601 61 2.658 13.529 7.509 21.042 16.405 16 31.561 7.558-4.508 6.27-16.148 2.672-23-7.327-13.954-24.698-22.341-39.672-25v-1c22.334 1.948 39.265 16.3 48 36h1c.001-6.629 2.394-14.693.005-21-4.346-11.479-16.041-18.888-27.005-22.861-25.099-9.094-49.212-5.177-75-3.139 4.293-18.126 7-34.26 7-53l33-7.911 28.775.218L447 192c-18.153-6.145-42.012-2.343-60 2.475-5.238 1.402-15.945 3.923-18.972 8.8-3.678 5.924-1.881 22.604-2.028 29.725Zm180-44 1 1-1-1Zm158 2 4.225 9.307 28.775-.218L770 208c0 18.856 2.775 34.738 7 53-25.482-2.014-50.302-6.458-75 3.19-10.645 4.158-22.019 10.732-26.683 21.81-2.528 6.005-.321 15.518-.317 22h2c2.394-15.913 17.836-27.067 32-32.075 29.561-10.452 59.23-2.623 88 6.075-.612-6.109-3.805-11.203-5.561-17-3.971-13.113-6.962-26.325-8.269-40-.534-5.584 1.278-19.048-2.773-23.182-4.417-4.507-14.452-6.605-20.397-8.05-19.053-4.628-36.559-3.603-56-2.768ZM506 190l1 1-1-1Zm4 0 1 1-1-1Z" fill="#A7351D"/><path d="m560 216 1-8c6.435 2.622 13.196 4.663 19.7.812 8.731-5.17 8.093-15.096-1.7-18.058-11.703-3.54-31.261 17.297-19 25.246Z" fill="#AEB2A1"/><path d="m639 190 1 1-1-1Zm-183 24h1v-4h1l7 26-8-14h-1c1.059 10.335 9.023 17.958 17 23.844 17.44 12.868 43.231 22.86 65 21.156v1h-4v1c26.892 3.399 54.155 5.002 81 0v-1h-4v-1c25.568 1.095 58.472-10.393 75.815-30.004C696.447 226.105 697.97 198.655 683 191l-1 1c2.59 9.494 6.349 18.94 4.535 29-4.402 24.418-36.564 35.144-57.535 40.232-38.242 9.277-75.985 9.132-114-1.526-16.337-4.58-35.112-11.994-45.876-25.71-11.825-15.068-.237-27.702-2.124-42.996-7.385 4.431-10.577 14.745-11 23Zm124-23 1 1-1-1ZM513 192l1 1-1-1Zm39 0 1 1-1-1Z" fill="#A7351D"/><path d="M559 207h1l13-14c-7.455-1.979-13.182 7.753-14 14Z" fill="#fff"/><path d="m636 192 1 1-1-1Zm4 0 1 1-1-1Zm-126 1 1 1-1-1Zm121 0 1 1-1-1Zm-119 1 1 1-1-1Z" fill="#A7351D"/><path d="M545 194c-2.303 18.224 1.812 41.455 25 42v-1c-17.707-3.832-26.993-24.228-23-41h-2Z" fill="#fff"/><path d="m633 194 1 1-1-1Zm-116 1 1 1-1-1Zm34 0 1 1-1-1Zm-35 1 1 1-1-1Zm4 0 1 1-1-1Zm109 0 1 1-1-1Zm-110 1 1 1-1-1Zm2.333.667.334.666-.334-.666ZM587 197v4h1l-1-4Zm41.333.667.334.666-.334-.666ZM480 198c-18.512 30.55 6.304 49.18 34 58.164 41.775 13.552 86.641 13.103 128-1.96 26.438-9.628 44.661-28.735 28-56.204-11.002 4.514-21.762 9.557-33 13.495-5.714 2.002-13.732 3.247-18.725 6.644-4.442 3.021-6.488 10.621-9.944 14.822-9.111 11.073-22.144 16.643-36.331 16-12.122-.55-23.739-7.49-31.1-16.976-3.107-4.003-4.902-11.059-9.125-13.846-5.386-3.555-13.688-4.8-19.775-7-10.856-3.924-21.329-8.761-32-13.139Z" fill="#A7351D"/><path d="m522 198 1 1-1-1Z" fill="#AEB2A1"/><path d="m550.333 198.667.334.666-.334-.666Zm49.334-.334.666.334-.666-.334Z" fill="#A7351D"/><path d="M598 199v1l7-1h-7Z" fill="#AEB2A1"/><path d="m605 198 1 1-1-1Zm21 0 1 1-1-1Z" fill="#A7351D"/><path d="m627 198 1 1-1-1Z" fill="#AEB2A1"/><path d="m524 199 1 1-1-1Zm79 0 1 1-1-1Zm21.667.333.666.334-.666-.334ZM559 200l1 1-1-1Zm-31 1 1 1-1-1Z" fill="#A7351D"/><path d="m529 201 1 1-1-1Zm91.667.333.666.334-.666-.334Z" fill="#AEB2A1"/><path d="m602 203 1 1-1-1Zm4 0v5h1l-1-5ZM585 204l1 1-1-1Zm-35 2 1 1-1-1Zm33 0 1 1-1-1Zm15 0 1 1-1-1Zm-16 1 1 1-1-1Z" fill="#A7351D"/><path d="m458.333 208.667.334.666-.334-.666Z" fill="#D0A837"/><path d="M558 208v3h1l-1-3Z" fill="#fff"/><path d="M691 208c-.032 11.68-3.636 20.802-9 31 9.556-6.878 13.963-19.945 9-31Z" fill="#D0A837"/><path d="M387 253c19.745-3.666 44.296-1.769 63 5.616 8.104 3.199 14.94 9.596 23 12.384-.002-15.218-14.676-18.633-23.076-30-4.314-5.839-6.847-11.938-8.344-19-.671-3.168-.048-8.928-2.912-10.987-8.013-5.761-26.897-1.645-35.668.336-3.343.756-8.816 1.093-10.972 4.161-1.713 2.437-1.074 6.648-1.452 9.49-1.223 9.197-3.174 18.777-3.576 28Zm192-44 1 1-1-1Zm99 62c16.79-8.569 29.716-16.206 49-18.711 12.134-1.576 25.082 1.728 37-.289l-5-38c-11.887-1.748-22.8-5.141-35-4.996-3.332.039-10.683-.304-12.972 2.599-2.178 2.761-2.334 9.891-3.249 13.397-1.716 6.568-4.931 12.741-9.247 17.996-7.581 9.233-23.547 14.139-20.532 28.004Z" fill="#A7351D"/><path d="M457 210c-1.156 9.146-1.065 20.655 8 26l-8-26Z" fill="#D0A837"/><path d="m551 210 1 1-1-1Zm15 0 1 1-1-1Zm11 0 1 1-1-1Zm-35 1 1 1-1-1Zm55 0 1 1-1-1Zm-37 1 1 1-1-1Z" fill="#A7351D"/><path d="M368 214c0 23.786-8.654 43.44-14 66l31-8.69 38-1.31v-1c-22.459-1.773-40.924 2.802-63 5 4.317-16.148 14.86-43.651 8-60Z" fill="#D0A837"/><path d="m596 214 1 1-1-1Zm9 0 1 1-1-1Zm-52 1 1 1-1-1Zm1 1 1 1-1-1Zm5 0 1 1-1-1Zm36 0 1 1-1-1Zm9 1 1 1-1-1Zm-49 1 1 1-1-1Zm39 0 1 1-1-1Z" fill="#A7351D"/><path d="M780 218c0 19.378 4.703 37.258 9 56l-44-6.907L726 269v1l38 1.261L796 280l-11.537-36L780 218Z" fill="#D0A837"/><path d="m593 219 1 1-1-1ZM602 221l1 1-1-1Zm-44 1 1 1-1-1Zm43 0 1 1-1-1Zm-42 1 1 1-1-1Zm31 0 1 1-1-1Zm10 1 1 1-1-1ZM548 225l1 1-1-1Zm51 0 1 1-1-1Zm-35 1 1 1-1-1Zm21 0 1 1-1-1ZM571 229v1h3l-3-1Zm5 0v1h3l-3-1Zm19 0 1 1-1-1Zm-1 1 1 1-1-1Zm-1 1 1 1-1-1ZM591 232l1 1-1-1ZM365 234l-1 12h1v-12Z" fill="#A7351D"/><path d="m414 243 32 4c-3.911-11.495-27.598-18.868-32-4Z" fill="#D0A837"/><path d="m587 235 1 1-1-1Z" fill="#A7351D"/><path d="m703 248 32-5c-4.473-15.109-29.032-7.481-32 5ZM465.333 236.667l.334.666-.334-.666Z" fill="#D0A837"/><path d="M571 236v1h5l-5-1Z" fill="#fff"/><path d="m467.333 238.667.334.666-.334-.666ZM469 240l1 1-1-1Zm211 0 1 1-1-1ZM471 242l1 1-1-1Zm207 0 1 1-1-1ZM522 244v1c33.761 23.104 71.828 19.466 106 0v-1c-11.53 2.049-22.154 7.875-34 9.572-26.009 3.726-47.429-2.548-72-9.572Zm153 0 1 1-1-1Z" fill="#D0A837"/><path d="m363 247-1 7h1v-7Z" fill="#A7351D"/><path d="m481 249 1 1-1-1Zm186.667.333.666.334-.666-.334ZM485 251l1 1-1-1Zm179 0 1 1-1-1ZM657 254l1 1-1-1Z" fill="#D0A837"/><path d="m361 255-1 7h1v-7Z" fill="#A7351D"/><path d="M495 256v1h3l-3-1Zm157.667.333.666.334-.666-.334Zm-152 2 .666.334-.666-.334Zm147 0 .666.334-.666-.334ZM642 260l1 1-1-1Zm-132 1v1l4 1v-1l-4-1Zm125 1v1l4-1h-4Z" fill="#D0A837"/><path d="M359 262v3h1l-1-3Z" fill="#A7351D"/><path d="m517 263 1 1-1-1Zm114.667.333.666.334-.666-.334Z" fill="#D0A837"/><path d="M358 265v3h1l-1-3Z" fill="#A7351D"/><path d="M525 265v1h3l-3-1Zm96 0v1h4l-4-1Zm-88 2v1h5l-5-1Zm78 0v1h6l-6-1Z" fill="#D0A837"/><path d="m357.333 268.667.334.666-.334-.666Z" fill="#A7351D"/><path d="m602.667 269.333.666.334-.666-.334Z" fill="#D0A837"/><path d="m356.333 271.667.334.666-.334-.666Z" fill="#A7351D"/><path d="m436.667 272.333.666.334-.666-.334ZM712 272l1 1-1-1Z" fill="#D0A837"/><path d="M687 321c-5.041-15.154 2.469-24.056 16-31.561 18.448-10.232 41.535-9.034 61-3.003 7.775 2.409 13.964 7.998 21.424 10.728 4.595 1.68 9.427-2.645 13.576-4.164-2.648-8.019-18.432-12.888-26-14.87-25.193-6.598-53.122-9.518-75.911 6.156-9.271 6.377-24.464 27.45-10.089 36.714Zm-331.667-47.333.334.666-.334-.666ZM506 275l3-1-3 1Zm136-2 1 1-1-1Z" fill="#A7351D"/><path d="m440 274 1 1-1-1Z" fill="#D0A837"/><path d="M507 274c2.276 6.478 7.674 7.193 12 2-5.625 1.736-7.25.995-12-2Zm134 0c-2.29 4.108-4.927 3.437-9 2 3.515 6.374 9.449 3.482 12-2h-3Z" fill="#AEB2A1"/><path d="M359 278v1l13-3-13 2Zm284-3 1 1-1-1Zm-289 1-1 5h4v-1h-3v-4Zm153 0 1 1-1-1Zm2 0 1 1-1-1Zm122 0 1 1-1-1Zm2 0 1 1-1-1Zm-123 1 1 1-1-1Zm5 0 1 1-1-1Zm124 0 1 1-1-1Zm-131 1 1 1-1-1Zm9 0 1 1-1-1Zm-159.333 1.333.666.334-.666-.334ZM509 279l1 1-1-1Zm7 0 1 1-1-1Zm124 0 1 1-1-1Z" fill="#A7351D"/><path d="m490 310 11 11c13.774-5.222 26.121-32.736 42-29.343 17.818 3.807 12.504 32.973 32 32.973 19.417 0 14.255-29.182 32-32.973 15.888-3.395 28.261 24.134 42 29.343l11-11c-4.358-1.478-8.908-2.105-13-4.352-15.516-8.518-49.856-37.312-62-8.648h-2c-3.296-5.143-12.734-5.181-16 0h-2c-8.244-21.265-37.233-9.01-50.911-.01-3.956 2.603-6.864 6.336-11.089 8.658-4.09 2.248-8.642 2.874-13 4.352Z" fill="#AEB2A1"/><path d="m605 284 1 1-1-1Zm-53 1 1 1-1-1Zm45 0 1 1-1-1Zm-56.333 1.333.666.334-.666-.334Z" fill="#A7351D"/><path d="m551 286 12 19h1c1.029-9.807-4.098-15.467-13-19Z" fill="#fff"/><path d="m555 286 1 1-1-1Zm39 0 1 1-1-1Z" fill="#A7351D"/><path d="M598 286c-8.123 4.522-13.021 9.276-12 19h1l11-19Z" fill="#fff"/><path d="m609 286 1 1-1-1Zm-73 1 1 1-1-1Zm81 1 1 1-1-1Zm-86 1 1 1-1-1Zm-5 2 1 1-1-1Zm12 0 1 1-1-1Zm5 0 1 1-1-1Zm63 0 1 1-1-1Zm5 0 1 1-1-1Zm12 0 1 1-1-1Zm-87 1 1 1-1-1Zm9 0 1 1-1-1Zm42 0 1 1-1-1Zm17 0 1 1-1-1Zm9 0 1 1-1-1Zm-65 1 1 1-1-1Zm23 0 1 1-1-1Zm6 0v1h3l-3-1Zm24 0 1 1-1-1Zm-113.667 1.667.334.666-.334-.666ZM519 294l1 1-1-1Zm12 0 1 1-1-1Zm87 0 1 1-1-1Zm44 0 1 1-1-1Zm-232 1-1 1v2l12 7c2.256-6.739-5.706-8.552-11-10Z" fill="#A7351D"/><path d="m488 295 1 1-1-1Z" fill="#AEB2A1"/><path d="m489 295 1 1-1-1Zm27 0 1 1-1-1Zm117 0 1 1-1-1Zm27 0 1 1-1-1Z" fill="#A7351D"/><path d="m661.667 295.333.666.334-.666-.334Z" fill="#AEB2A1"/><path d="m709 305 12-7v-2l-1-1c-5.216 1.437-13.217 3.416-11 10Zm-218.667-8.333.334.666-.334-.666ZM514 296l1 1-1-1Zm52 0 1 1-1-1Zm17 0 1 1-1-1Zm52 0 1 1-1-1Zm23 0 2 2v-2h-2Z" fill="#A7351D"/><path d="M491 297v1h6l-6-1Z" fill="#AEB2A1"/><path d="m497.667 297.333.666.334-.666-.334ZM505 297l1 1-1-1Z" fill="#A7351D"/><path d="m506.667 297.333.666.334-.666-.334Z" fill="#AEB2A1"/><path d="m508 297 1 1-1-1Zm129 0 1 1-1-1Zm4 0 1 1-1-1Z" fill="#A7351D"/><path d="m642.667 297.333.666.334-.666-.334Z" fill="#AEB2A1"/><path d="m644 297 1 1-1-1Zm7 0 1 1-1-1Z" fill="#A7351D"/><path d="M652 297v1h7l-7-1Z" fill="#AEB2A1"/><path d="m526 298 1 1-1-1Zm97 0 1 1-1-1Zm-98 1 1 1-1-1Zm70 0 1 1-1-1Zm29 0 1 1-1-1Zm14 0 1 1-1-1Zm-128 1 1 1-1-1Zm14 0 1 1-1-1Zm70 0 1 1-1-1Zm31 0 1 1-1-1Zm14 0 1 1-1-1Zm-213 1 6 4v-1l-6-3Zm83 0 1 1-1-1Zm14 0 1 1-1-1Zm103 0 1 1-1-1Zm14 0 1 1-1-1Zm83 0-5 3v1l5-4Z" fill="#A7351D"/><path d="m512 303-15 8v1c6.449 3.099 18.225.325 15-9Z" fill="#fff"/><path d="m556 303 1 1-1-1Zm37 0 1 1-1-1Z" fill="#A7351D"/><path d="M637 303c.938 9.09 7.775 12.957 16 9l-16-9Z" fill="#fff"/><path d="M421 304c-2.138 10.154 18.255 16.776 26 20 2.761-5.471 8.953-16.153 2-20l-6 12-22-12Zm84 0 1 1-1-1Zm139 0 1 1-1-1Zm86 6-1-5-22 11-6-12c-5.434 2.999-3.279 18.004 3.144 18.784 7.78.945 18.93-9.796 25.856-12.784Zm-173-5 1 1-1-1Zm35 0 1 1-1-1Zm-159 1 1 1-1-1Zm86 0 1 1-1-1Z" fill="#A7351D"/><path d="m536 325-2-14c4.815 1.962 9.555 3.787 14.89 2.852 5.365-.94 2.849-5.932-.934-7.199-12.09-4.05-21.447 9.312-11.956 18.347Z" fill="#AEB2A1"/><path d="m548 306 1 1-1-1Zm53 0 1 1-1-1Z" fill="#A7351D"/><path d="m615 311-2 15c10.823-8.794 2.582-24.678-10.981-19.258-2.788 1.115-6.499 5.536-1.866 6.94 4.977 1.509 10.558-.28 14.847-2.682Z" fill="#AEB2A1"/><path d="m630 306 1 1-1-1Zm85.667.333.666.334-.666-.334ZM518 307l1 1-1-1Zm96 0 1 1-1-1Zm17 0 1 1-1-1Zm-194 1 1 1-1-1Zm58 0 1 1-1-1Zm39 0 1 1-1-1Zm64 0 1 1-1-1Zm114 0 1 1-1-1Zm-222 1 1 1-1-1Zm43 0 1 1-1-1Zm19 0 1 1-1-1Zm45 0 1 1-1-1Zm62 0 1 1-1-1Zm-68 1 1 1-1-1Zm-135 1-4 12c3.15-2.512 5.147-8.111 4-12Zm59 0 1 1-1-1Zm19.667.333.666.334-.666-.334ZM614 311l1 1-1-1Zm3 0 1 1-1-1Zm-85 1 1 1-1-1Zm20 0 1 1-1-1Zm7.333.667.334.666-.334-.666ZM636 312l1 1-1-1Zm58 0 4 11-4-11Zm-277 1c-1.057 12.614 17.421 10.692 20.226 20.105 1.291 4.331-1.567 10.496-2.059 14.895-1.357 12.127-2.167 23.781-2.167 36l-33-16c-1.475 18.711 25.458 28.556 42 30l-1-18h-1l1 17c-9.379-9.185-2.502-33.313-2-45h1v13h1l2-38 2 4c2.259-7.112-21.923-16.916-28-18Z" fill="#A7351D"/><path d="m449 313 1 1-1-1Z" fill="#D0A837"/><path d="m491 313 1 1-1-1Zm48 0 1 1-1-1Zm51 0 1 1-1-1Zm20 0 1 1-1-1Zm8 0 1 1-1-1Zm19 0 1 1-1-1Zm82 6v1l4-1v1l-12 5v-1l7-3v-1c-6.889 2.499-15.327 4.366-14 13h1l-1-6h3v1l.911 23 .089 47c17.059-1.49 42.808-11.121 42-30l-20 11v1l15-8c-2.243 4.486-17.155 12.62-16 8l-12 4c0-12.225-.939-23.882-2.171-36-.458-4.513-3.162-10.411-1.939-14.895 2.557-9.378 22.183-7.624 20.11-20.105l-14 6Zm-208-5 1 1-1-1Zm20 0v3h1l-1-3Z" fill="#A7351D"/><path d="m700 314 1 1-1-1Zm-279 1 1 1-1-1Z" fill="#D0A837"/><path d="m510 315 1 1-1-1Zm129 0 1 1-1-1Zm-51 1 1 1-1-1ZM498 317l1 1-1-1Zm9 0 1 1-1-1Zm80 0 1 1-1-1Zm31.333.667.334.666-.334-.666ZM651 317l1 1-1-1Z" fill="#A7351D"/><path d="m426 318 1 1-1-1Zm297 0 1 1-1-1Z" fill="#D0A837"/><path d="m532 319 1 1-1-1Zm2 0 1 1-1-1Zm51 0 1 1-1-1Zm30 0 1 1-1-1Z" fill="#A7351D"/><path d="M711 324v1l12-5-12 4ZM428 320v1l15 6v-1l-15-6Z" fill="#D0A837"/><path d="m500 320 1 1-1-1Zm117 0 1 1-1-1Zm32 0 1 1-1-1ZM499.333 321.667l.334.666-.334-.666ZM566 321l1 1-1-1Zm17 0 1 1-1-1ZM494 322l-2 1v1l2-2Z" fill="#A7351D"/><path d="M495 322v1h4l-4-1Z" fill="#AEB2A1"/><path d="m535 322 1 1-1-1Zm32 0 1 1-1-1Zm15 0 1 1-1-1Zm32 0 1 1-1-1Z" fill="#A7351D"/><path d="M651 322v1h4l-4-1Z" fill="#AEB2A1"/><path d="m655 322 3 2v-1l-3-1Zm-167 2v1h3l-3-1Zm48.333.667.334.666-.334-.666ZM572 324l1 1-1-1Zm5 0 1 1-1-1Zm36 0 1 1-1-1Zm46 0v1h3l-3-1Zm-47 1-2 3 2-3Z" fill="#A7351D"/><path d="M707 326v1l4-1h-4Z" fill="#D0A837"/><path d="M416 327c-9.515 15.463-10.598 35.821 11 40l3-31-14-9Z" fill="#A7351D"/><path d="m443 327 1 5h1l-2-5Z" fill="#D0A837"/><path d="m538.667 327.333.666.334-.666-.334Z" fill="#A7351D"/><path d="m611 327 1 1-1-1Z" fill="#AEB2A1"/><path d="m704 327 1 8h1l1-8h-3Z" fill="#D0A837"/><path d="m733 327-11.883 9.379L724 367c5.512-1.759 14.288-6.646 16.957-12.04 2.97-6.004-3.365-23.732-7.957-27.96ZM450 329c-5.529 22.442-8.254 46.087-4 69 7.035-3.959 3.449-11.28 3.015-18-1.132-17.49 2.974-33.774 2.985-51h-2Zm141 0 1 1-1-1Zm107 0c.36 17.428 4.121 34.33 2.911 52-.388 5.652-3.94 13.847 3.089 16 3.383-16.4 1.145-31.637-.025-48-.399-5.583-1.201-16.641-5.975-20ZM589 332l-2 5h1l1-5Zm-27.667 1.667.334.666-.334-.666Z" fill="#A7351D"/><path d="M442 334v5h1l-1-5Z" fill="#D0A837"/><path d="m563 335 3 3-3-3Z" fill="#A7351D"/><path d="M586 335c-8.365 7.06-13.843 5.798-23 1 2.128 4.548 6.525 9.232 12 9.356 4.756.109 12.717-5.197 11-10.356Z" fill="#AEB2A1"/><path d="m567 338 1 1-1-1Z" fill="#A7351D"/><path d="M707 338v3h1l-1-3Z" fill="#D0A837"/><path d="m569 339 1 1-1-1Zm11 0 1 1-1-1Z" fill="#A7351D"/><path d="M510.001 340.703c-5.833 1.986-8.37 7.4-7.802 13.297 1.157 12.007 9.204 24.052 11.913 36 2.008 8.858.467 17.733 8.353 24.347 4.765 3.997 14.152 3.513 19.535 1.085 11.86-5.349 22.853-16.56 37-14.103 15.193 2.639 29.717 21.568 45.985 14.813 4.937-2.05 7.715-7.264 9.135-12.142 2.997-10.302 4.16-21.454 7.178-32 1.756-6.137 5.843-11.64 6.768-18 .717-4.926-1.561-10.469-6.084-12.821-6.771-3.52-15.425.215-21.982 2.326-14.478 4.661-30.46 13.149-46 12.781-13.84-.327-28.192-7.087-41-11.766-6.959-2.542-15.509-6.368-22.999-3.817Z" fill="#AEB2A1"/><path d="m521 340 1 1-1-1Zm107 0 1 1-1-1Zm-105 1 1 1-1-1Zm103 0 1 1-1-1Zm-120 1 1 1-1-1Zm117 0 1 1-1-1Zm-93 1 1 1-1-1Z" fill="#A7351D"/><path d="M440 344v6h1l-1-6Z" fill="#D0A837"/><path d="m517.667 344.333.666.334-.666-.334Z" fill="#A7351D"/><path d="M519 344.559c-5.275.898-8.552 4.041-8.891 9.441-.512 8.152 3.729 15.292 5.373 23 2.233 10.466-1.02 25.884 8.623 33.351 14.791 11.454 35.526-12.755 51.895-11.853 14.835.818 29.446 17.892 44 14.534 15.401-3.553 12.125-23.387 14.376-35.032.995-5.149 3.49-9.91 4.724-15 1.284-5.295 2.354-13.498-3.209-16.697-6.736-3.873-15.439-.583-21.891 2.327-12.183 5.496-25.186 12.77-39 12.77-11.016 0-23.301-5.118-33-9.921-6.539-3.238-15.397-8.215-23-6.92Z" fill="#333213"/><path d="m523.667 344.333.666.334-.666-.334ZM532 344l1 1-1-1Zm39 0 1 1-1-1Zm7 0 1 1-1-1Zm39 0 1 1-1-1Zm9 0 1 1-1-1Zm4.667.333.666.334-.666-.334ZM526 345l1 1-1-1Zm10 0 1 1-1-1Zm37 0 1 1-1-1Zm4 0 1 1-1-1Zm36 0 1 1-1-1Zm10 0 1 1-1-1Zm11 0 1 1-1-1Zm-103 1 1 1-1-1Zm6 0 1 1-1-1Zm81 0 1 1-1-1Zm-85 1 1 1-1-1Zm75 0 1 1-1-1Zm39 0 1 1-1-1Zm-145 1 1 1-1-1Zm41 0 1 1-1-1Zm62.667.333.666.334-.666-.334ZM614 348l1 1-1-1Zm-68 1 1 1-1-1Zm57 0 1 1-1-1Zm-93 1 1 1-1-1Zm29 0 1 1-1-1Zm11 0 1 1-1-1Zm49 0 1 1-1-1Zm11 0 1 1-1-1Zm38.333.667.334.666-.334-.666ZM552 351l1 1-1-1Zm45 0 1 1-1-1Z" fill="#A7351D"/><path d="m439 352-1.715 34L441 397l-2-45Z" fill="#D0A837"/><path d="m543 352 1 1-1-1Zm13 0 1 1-1-1Zm36 0 1 1-1-1Zm48 0v5h1l-1-5Zm-148 1 1 1-1-1Z" fill="#A7351D"/><path d="M529 353v6h1l1-5c12.982 5.152 4.079 13.66-5 18l3-12h-1l-6 14c13.268-1.167 27.741-19.936 7-21Z" fill="#AEB2A1"/><path d="m546 353 1 1-1-1Zm12 0 1 1-1-1Zm31.667.333.666.334-.666-.334ZM603 353l1 1-1-1Z" fill="#A7351D"/><path d="m628 374-6-14h-1l4 12c-9.787-3.341-19.312-12.745-6-18l1 5h1v-6c-20.906 1.073-5.884 19.255 7 21Z" fill="#AEB2A1"/><path d="m648.333 353.667.334.666-.334-.666Z" fill="#A7351D"/><path d="m657 353-5.999 27 3.949 17-9.95 25h1c5.452-8.486 14.851-20.721 15.698-31 .528-6.419-2.166-13.533-2.609-20-.415-6.069.625-12.353-2.089-18Zm-165 1-3.487 38L504 422h1c-2.429-8.414-9.908-17.038-10.052-26-.077-4.786 3.818-9.194 4.573-14 1.349-8.593-2.812-20.907-7.521-28Z" fill="#AEB2A1"/><path d="m531 354-5 18c9.342-3.196 19.083-14.104 5-18Z" fill="#fff"/><path d="m563 354 1 1-1-1Zm22 0 1 1-1-1Zm17 0 1 1-1-1Z" fill="#A7351D"/><path d="m625 372-6-18c-14.606 4.04-3.816 15.666 6 18Z" fill="#fff"/><path d="m567.667 355.333.666.334-.666-.334Zm14 0 .666.334-.666-.334ZM599 355l1 1-1-1Zm-106 1 1 1-1-1Zm9 0 1 1-1-1Zm51 0 1 1-1-1Zm20 0v1h3l-3-1Zm23 0 1 1-1-1Zm51.333.667.334.666-.334-.666ZM656 356l1 1-1-1Zm2.333.667.334.666-.334-.666ZM556 357l1 1-1-1Z" fill="#A7351D"/><path d="m710 357-1 40h2c.527-12.281 4.038-28.322-1-40Z" fill="#D0A837"/><path d="m491 358 1 1-1-1Zm3 0 1 1-1-1Zm66 0 1 1-1-1Zm30 0 1 1-1-1Zm65 0 1 1-1-1Zm-152 1 1 1-1-1Zm7.333.667.334.666-.334-.666Z" fill="#A7351D"/><path d="M543 359c.428 20.069 19.626 1.724 0 0Z" fill="#AEB2A1"/><path d="m562.667 359.333.666.334-.666-.334ZM587 359l1 1-1-1Z" fill="#A7351D"/><path d="M607 359c-19.641 1.726-.43 20.173 0 0Z" fill="#AEB2A1"/><path d="m621 359 1 1-1-1Zm25 0 1 1-1-1Zm-243 2v3l24 13c-1.925-6.157-17.686-15.862-24-16Zm166.667-.667.666.334-.666-.334Zm10 0 .666.334-.666-.334ZM725 377l22-13v-3c-5.997.131-22.1 9.656-22 16Zm-230-16 1 1-1-1Z" fill="#A7351D"/><path d="M545 361c.233 7.146 4.446 8.605 8 2l-8-2Z" fill="#fff"/><path d="m573 361 1 1-1-1Z" fill="#A7351D"/><path d="m597 363 7 6 1-8-8 2Z" fill="#fff"/><path d="m639 361 1 1-1-1Z" fill="#A7351D"/><path d="m492 362-2 28c6.647-6.143 5.331-20.277 2-28Z" fill="#fff"/><path d="m610 362 1 1-1-1Z" fill="#A7351D"/><path d="M657 362c-.194 9.414-5.069 20.55 3 28l-3-28Z" fill="#fff"/><path d="m496.333 363.667.334.666-.334-.666ZM644 363l1 1-1-1Zm9 0 1 1-1-1Zm-142 1 1 1-1-1Z" fill="#A7351D"/><path d="m556 365 1 6c3.234.6 13.706 3.126 15.248-1.325 1.812-5.227-13.599-5.403-16.248-4.675Zm37 6 1-7c-3.125.065-15.793.408-15.793 4.999 0 5.165 12.037 2.513 14.793 2.001Z" fill="#AEB2A1"/><path d="m526 365 1 1-1-1Zm17 0 1 1-1-1Z" fill="#A7351D"/><path d="M558 365v5c4.644.199 10.095 2.476 13-2l-13-3Zm33 0c-4.155 1.632-10.6 1.215-12 6l13-1-1-5Z" fill="#fff"/><path d="m606 365 1 1-1-1Zm17 0 1 1-1-1Zm15 0 1 1-1-1Zm5 0 1 1-1-1ZM507 367l1 1-1-1Zm70 0 1 1-1-1Zm65 0 1 1-1-1Zm-130 1 1 1-1-1Zm87 0 1 1-1-1Zm38 0 1 1-1-1Zm-113 1 1 1-1-1Zm101 0 1 1-1-1Zm-126.667 1.667.334.666-.334-.666ZM532 370l1 1-1-1Zm45 0 1 1-1-1Zm40 0 1 1-1-1Zm34 0 1 1-1-1Z" fill="#A7351D"/><path d="m746 370 1 1-1-1Zm-343 1c4.087 6.748 11.169 10.598 19 11v-1l-19-10Z" fill="#D0A837"/><path d="m508 371 1 1-1-1Zm51 0 1 1-1-1Zm12 0 1 1-1-1Zm7 0 1 1-1-1Zm12 0 1 1-1-1Zm51 0 1 1-1-1Z" fill="#A7351D"/><path d="m744 372-16 9v1c5.186-.52 16.139-3.64 16-10Z" fill="#D0A837"/><path d="m624 373 1 1-1-1ZM499 374v3h1l-1-3Zm10 0 1 1-1-1Zm126 0 1 1-1-1Zm5 0 1 1-1-1Zm-150 1 1 1-1-1Zm160 0v10h1l-1-10Zm-135 1 1 1-1-1Zm119 0 1 1-1-1ZM510 379l1 1-1-1Z" fill="#A7351D"/><path d="M535 379c-7.86 10.2-6.316 21.694 8 22l-8-22Zm79 0-7 22c13.411-.287 17.814-13.455 7-22Z" fill="#AEB2A1"/><path d="m536 380 1 1-1-1Zm77 0 1 1-1-1ZM511 381l1 1-1-1Zm127 0 1 1-1-1Zm-149 1 1 1-1-1Zm10 0v3h1l-1-3Z" fill="#A7351D"/><path d="M534 382c-3.938 8.471-4.304 16.664 7 17l-7-17Zm81 0-6 17c10.48-.311 12.687-9.561 6-17Z" fill="#fff"/><path d="m398 383-1 1c.895 15.139 13.89 19.593 27 25.456 3.35 1.498 8.688 2.203 11.146 5.057 5.063 5.88 5.796 20.026 8.198 27.487 4.468 13.877 12.585 25.016 18.656 38l-21-4v1l8 1v1c-14.427-.119-25.852-6.223-39-11v-1l8 2v-1l-22-10c.125 15.147 9.964 18.671 23 23.479C440.109 489.265 461.64 492 484 492l-15.935-23L450 431h-1c5.397 22.785 20.125 41.152 33 60-7.422-2.263-11.424-11.817-15.319-18-8.9-14.129-16.028-29.211-21.453-45-2.263-6.588-2.14-17.07-6.216-22.682-2.151-2.961-7.723-2.969-11.012-3.897-7.334-2.07-13.078-6.552-20-9.421v-1l19 7-29-15Zm114 0 1 1-1-1Zm223 9v1l4-1c-5.046 4.149-10.706 7.327-17 9.14-3.465.997-9.613 1.075-11.86 4.178-4.194 5.791-4.604 17.73-6.882 24.682-4.918 15.012-12.026 29.731-20.602 43-3.941 6.097-8.32 15.842-15.656 18 7.166-8.89 16.486-18.971 20-30h-1l-20 31c22.284 0 43.962-2.585 65-10.37 13.37-4.947 22.807-8.319 23-23.63l-17 8 1 3-25 8.576L688 480c6.425-13.584 14.977-25.371 19.431-40 2.113-6.941 2.873-20.38 8.002-25.57C725.73 404.011 758.369 404.546 752 383l-17 9ZM531 384l1 1-1-1Zm106 0 1 1-1-1Zm-139 2 1 1-1-1Zm135 0v6h1l-1-6Zm-120 1 1 1-1-1Zm3 0v4h1l-1-4Zm135 0 1 1-1-1Zm-39 1 1 1-1-1Zm24 0 1 1-1-1Zm-139 1 1 1-1-1Z" fill="#A7351D"/><path d="M566 393h-1c-3.269-4.978-7.97-1.115-10 3h-1l-4-6h-1c-9.296 16.202 16.716 4.373 24 3v-4c-3.692.12-5.777.313-7 4Zm11-4v4c7.176 1.353 33.877 13.142 24-3h-1l-4 6h-1c-1.679-4.429-6.761-7.934-10-3l-8-4Z" fill="#AEB2A1"/><path d="m496 390 1 1-1-1Z" fill="#A7351D"/><path d="M568 391v1h4l-4-1Zm10 0v1h4l-4-1Z" fill="#fff"/><path d="M408 391v1c6.206 3.737 11.968 7.436 19 9.421 3.868 1.091 9.629 1.037 12.012 4.727 3.936 6.098 3.85 15.964 6.216 22.852 5.291 15.398 12.18 30.192 20.822 44 3.883 6.204 8.051 16.676 15.95 18-8.958-19.561-23.966-35.098-31.586-56-2.871-7.877-3.992-26.659-9.978-32.157C434.52 397.41 415.917 392.696 408 391Z" fill="#D0A837"/><path d="m514 391 1 1-1-1Z" fill="#A7351D"/><path d="m557 395 7-1-1-3-6 4Z" fill="#fff"/><path d="m573 391 1 1-1-1Zm3 0 1 1-1-1Z" fill="#A7351D"/><path d="m586 394 7 1c-1.997-3-4.721-4.267-7-1Z" fill="#fff"/><path d="m635 391 1 1-1-1Z" fill="#A7351D"/><path d="m739.667 391.333.666.334-.666-.334Z" fill="#D0A837"/><path d="m549 392-1 7c4.561-1.395 4.976-4.381 1-7Z" fill="#fff"/><path d="m556 392 1 1-1-1Zm28 0 1 1-1-1Z" fill="#A7351D"/><path d="m603 398-2-6c-4.241 2.793-3.298 6.777 2 6Z" fill="#fff"/><path d="M667 491c7.788-1.259 12.397-11.851 16.305-18 8.265-13.007 15.156-27.357 19.953-42 2.398-7.316 2.793-18.5 6.882-24.852 2.28-3.543 7.167-3.424 10.86-4.443 6.595-1.82 13.462-4.407 18-9.705l-30.258 10.924L704.92 415l-7.428 24L667 491Z" fill="#D0A837"/><path d="M494 393v3h1l-1-3Zm76 0 1 1-1-1Zm9 0 1 1-1-1Zm15 0 1 1-1-1Zm61 0v3h1l-1-3Zm78 0 1 1-1-1Zm-244 1 1 1-1-1Zm75 0 1 1-1-1Zm21 0 1 1-1-1Zm18 0 1 1-1-1Zm127 0v1h3l-3-1Zm-184 1 1 1-1-1Zm8 0 1 1-1-1Zm8 0 1 1-1-1Zm25 0 1 1-1-1Zm140 0v1h3l-3-1Zm-210 1v3h1l-1-3Zm76 0 1 1-1-1Zm39.333.667.334.666-.334-.666ZM722 397v1l5-1h-5Zm-63 0 1 1-1-1Zm-317 7v1l6-3-9 9 2-6c-5.232 4.621-4.108 14.352-3.83 21 .819 19.603 4.751 42.4 13.729 60 2.425 4.753 9.495 21.572 16.116 20.113 3.79-.835 13.307-7.796 12.617-12.202-.644-4.116-5.08-8.389-7.179-11.911-4.369-7.329-8.066-15.092-11.252-23-8.27-20.525-8.38-39.427-8.201-61l-11 6Zm87.667-5.667.666.334-.666-.334ZM491 398l1 1-1-1Zm55 0 1 1-1-1Zm27 0v1h5l-5-1Zm34 0 1 1-1-1Zm108 1v1l6-1h-6Zm82-1c.002 20.026.755 37.746-6.618 57-3.279 8.564-7.03 17.047-11.613 25-2.395 4.155-7.42 9.075-8.111 13.91-.624 4.368 9.318 12.246 13.327 12.338 7.564.175 15.498-20.313 17.695-26.248 6.517-17.608 10.29-36.182 10.32-55 .008-5.177 1.466-13.168-1.179-17.816-2.555-4.49-9.18-7.485-13.821-9.184Zm-366 1v1h3l-3-1Zm64 0 1 1-1-1Zm74 0 1 1-1-1Zm11 0 1 1-1-1Zm74 0 1 1-1-1Zm4 0 1 1-1-1Z" fill="#A7351D"/><path d="m2 400 1 1-1-1Z" fill="#333213"/><path d="m350 400 1 1-1-1Z" fill="#D0A837"/><path d="M435 400v1h3l-3-1Zm16 0-4 2c3.103 24.428 12.514 47.264 25.576 67.996 2.122 3.368 13.175 22.209 17.762 16.627 3.61-4.392-8.424-15.968-10.877-19.623-8.395-12.507-15.661-26.725-20.523-41-2.856-8.388-4.099-18.077-7.938-26Zm247 0c-2.06 23.623-15.43 48.565-28.178 68-1.85 2.819-15.491 17.431-8.582 19.654 5.193 1.672 13.576-12.98 15.851-16.743 9.839-16.276 17.361-32.613 22.612-50.911 1.933-6.738 6.081-16.297-1.703-20Zm10 1v1l6-1h-6Z" fill="#A7351D"/><path d="m799 400 1 1-1-1Z" fill="#D0A837"/><path d="M438 401v1l4 1-4-2Zm124 0 1 1-1-1Zm7 0 1 1-1-1Zm18 0 1 1-1-1Zm44 0 1 1-1-1Z" fill="#A7351D"/><path d="m339 411 9-9c-4.681 1.728-8.241 3.821-9 9Z" fill="#D0A837"/><path d="m496 402 1 1-1-1Zm22 0 1 1-1-1Zm41 0 1 1-1-1Zm7 0 1 1-1-1Zm17 0 1 1-1-1Zm7 0 1 1-1-1Zm63 0 1 1-1-1Zm4 0 1 1-1-1Zm50.333.667.334.666-.334-.666Z" fill="#A7351D"/><path d="m801 402 10 9c-1.451-5.058-5.125-7.443-10-9Z" fill="#D0A837"/><path d="m442 403 2 12h1l-3-12Zm73 0 1 1-1-1Zm42 0 1 1-1-1Zm35 0 1 1-1-1Zm42 0 1 1-1-1Zm22 0 1 1-1-1Zm-137 1 1 1-1-1Zm35 0 1 1-1-1Zm7 0 1 1-1-1Zm27 0 1 1-1-1Zm7 0 1 1-1-1Zm35 0 1 1-1-1Zm-136 1 1 1-1-1Zm58 0 1 1-1-1Zm7 0 1 1-1-1Zm74 0 1 1-1-1Zm22 0 1 1-1-1Zm51 0v5h1l-1-5Zm-211 1 1 1-1-1Zm25 0 1 1-1-1Zm31 0 1 1-1-1Zm5 0 1 1-1-1Zm37 0 1 1-1-1Zm5 0 1 1-1-1Zm53 0 1 1-1-1Zm-153 1 1 1-1-1Zm57 0 1 1-1-1Zm73 0 1 1-1-1Zm-132 1 1 1-1-1Zm51 0 1 1-1-1Zm55 0 1 1-1-1Zm-84 1 1 1-1-1Zm26 0 1 1-1-1Zm8 0 1 1-1-1Zm157 49c11.078-3.487 34.419-8.949 39.258-21.039 3.039-7.594.742-19.833.742-27.961-6.892 2.285-22.555 9.152-27.487 14.419C715.604 429.73 711.021 449.492 709 458Zm-380-48c-2.26 7.645-.8 16.199-.075 24 2.289 24.615 10.865 61.547 31.075 78l-11.972-22-12.514-33-4.479-31L329 410Zm72 0c0 7.86-2.198 19.613.742 26.961C406.572 449.028 429.94 454.456 441 458c-2.21-8.844-6.238-26.687-11.728-33.775-4.173-5.389-21.641-12.906-28.272-14.225Zm142 0 1 1-1-1Zm7 0 1 1-1-1Zm56 0 1 1-1-1Zm99.333.667.334.666-.334-.666ZM820 410l-10.079 62L790 512c6.045-3.788 9.533-11.932 12.999-18 10.279-17.993 17.649-40.153 17.998-61 .119-7.149 3.304-16.705-.997-23Zm-301 1 1 1-1-1Zm6 0 1 1-1-1Zm23 0 1 1-1-1Zm53 0 1 1-1-1Zm7 0 1 1-1-1Zm16 0 1 1-1-1Zm6 0 1 1-1-1Zm22 0 1 1-1-1Zm-154 1 1 1-1-1Zm2 0 1 1-1-1Zm20 0 1 1-1-1Zm7 0 1 1-1-1Zm11 0 1 1-1-1Zm65 0 1 1-1-1Zm8 0 1 1-1-1Zm11 0 1 1-1-1Zm27 0 1 1-1-1Zm-128 1 1 1-1-1Zm9 0 1 1-1-1Zm4.667.333.666.334-.666-.334Zm80 0 .666.334-.666-.334Zm4 0 .666.334-.666-.334ZM648 413l1 1-1-1Zm56 0-1 8h1v-8Zm-218 1c-6.412 8.828-10 19.063-8 30h1c.786-8.947 13.279-22.74 7-30Zm178 0c-4.852 8.245 5.624 20.645 7 30h1c2.348-9.976-1.157-22.435-8-30Zm-219 1 1 8h1l-2-8Zm55 0 1 1-1-1Zm41 0 1 1-1-1Zm67 0 1 1-1-1Zm41 0 1 1-1-1Zm-124 1 1 1-1-1Zm15 0 1 1-1-1Zm69 0 1 1-1-1Zm-108 1 1 1-1-1Zm2 0 1 1-1-1Zm28 0v1h4l-4-1Zm84 0v1h5l-5-1Zm31 0 1 1-1-1Zm-144 1 1 1-1-1Zm2 1 1 1-1-1Zm141 0 1 1-1-1Zm-142 1 1 1-1-1Zm65 0 1 1-1-1Z" fill="#A7351D"/><path d="M569.004 420.703c-5.262 1.805-10.239 9.893-4.49 14.31 2.038 1.566 16.788 1.51 19.353.584 4.758-1.717 4.705-8.925 1.699-12.064-3.833-4.003-11.515-4.561-16.562-2.83Z" fill="#AEB2A1"/><path d="m581 420 1 1-1-1Zm-75.667 1.667.334.666-.334-.666ZM566 421l1 1-1-1Zm17 0 1 1-1-1Zm61 0-1 4h1v-4Zm-79 1 1 1-1-1Zm19 0 1 1-1-1Zm118 0-1 7h1v-7Zm-255 1 1 7h1l-2-7Z" fill="#A7351D"/><path d="m506 423 1 1-1-1Zm137 0 1 1-1-1Z" fill="#AEB2A1"/><path d="m508.333 425.667.334.666-.334-.666ZM562 425l1 1-1-1Zm25 0 1 1-1-1Zm54.333.667.334.666-.334-.666ZM292 454h1c.01-12.678 11.014-20.395 21-27 .465 14.945-21.848 20.484-20.556 34.004 2.211 23.115 10.987 46.055 25.806 63.996 3.121 3.779 7.514 10.797 12.75 11.744 4.716.853 18.028-12.415 19.029-16.914 1.368-6.145-11.714-20.327-14.884-25.83-7.924-13.758-13.831-29.62-17.767-45-1.939-7.576-1.643-15.696-4.378-23-11.544 5.145-21.999 15.199-22 28Zm544-28-1 3c11.87 1.71 22.793 15.657 20 27-6.076-7.975-19.208-15.493-20-26h-1c-.002 20.953-9.104 43.732-18.886 62-3.403 6.356-16.775 20.029-16.078 27 .487 4.866 14.776 19.591 19.875 17.839 6.057-2.082 12.182-11.9 15.8-16.839 11.673-15.94 18.707-35.53 21.419-55 .775-5.556 3.282-14.589 1.127-19.911-2.978-7.354-14.58-15.234-21.257-19.089Z" fill="#A7351D"/><path d="M293 456c9.825-5.368 21.854-17.677 21-29-12.638 5.633-21 15.465-21 29Z" fill="#D0A837"/><path d="M561 427v3h1l-1-3Zm27.333 1.667.334.666-.334-.666Z" fill="#A7351D"/><path d="M836 428c-3.218 11.018 11.719 21.269 19 28 3.98-12.586-7.603-23.485-19-28Z" fill="#D0A837"/><path d="m700 429-1 5h1v-5Z" fill="#A7351D"/><path d="M527 433c-2.649 10.518 8.225 17.077 16 21.797 2.471 1.5 7.397 5.684 10.483 4.043 7.599-4.038 8.937-25.326-.526-28.326-9.14-2.897-10.624 7.996-17.932 7.738-3.029-.106-5.74-3.565-8.025-5.252Z" fill="#AEB2A1"/><path d="m554 430 1 1-1-1Zm41 0-1 2 1-2Z" fill="#A7351D"/><path d="M623 433c-2.271 1.677-5.019 5.181-8.039 5.248-7.435.166-8.867-10.583-17.921-7.734-9.775 3.075-6.276 13.922-3.679 20.486.893 2.255.837 6.521 3.167 7.864 2.896 1.67 7.115-1.936 9.472-3.3 7.99-4.624 19.934-11.862 17-22.564Z" fill="#AEB2A1"/><path d="m544 431 1 1-1-1Zm11 0 1 1-1-1Zm32 0 1 1-1-1Zm18 0 1 1-1-1Zm-43 1 1 1-1-1Zm-5 1 1 1-1-1Zm35 0 1 1-1-1Zm15 0 1 1-1-1Zm14 0 1 1-1-1Zm2 0 1 1-1-1Zm-82 1 1 1-1-1Zm45 0 1 1-1-1Zm5 0 1 1-1-1Zm17 0 1 1-1-1Zm-50 1 1 1-1-1Zm6 0 1 1-1-1Zm16 0 1 1-1-1Zm29 0 1 1-1-1Zm89 0 1 1-1-1Zm-133 1 1 1-1-1Zm2 0 1 1-1-1Zm15 0 1 1-1-1Zm2 0 1 1-1-1Z" fill="#A7351D"/><path d="M528 437c1.579 10.792 16.062 17.773 25 22l1-4c-10.593-3.619-18.321-10.174-26-18Z" fill="#fff"/><path d="m531 437 1 1-1-1Zm87 0 1 1-1-1Z" fill="#A7351D"/><path d="M621 437c-5.584 8.743-15.299 14.686-25 18l1 4c6.648-3.144 26.97-12.624 24-22Z" fill="#fff"/><path d="M697 437v3h1l-1-3Zm-171 1 1 1-1-1Zm33 0 1 1-1-1Zm31 0 1 1-1-1Zm106.333 2.667.334.666-.334-.666Zm-1 3 .334.666-.334-.666ZM530 445l1 1-1-1Zm60 0 1 1-1-1Zm29 0 1 1-1-1Zm75 0 1 1-1-1Zm-298 5v1c14.051 10.216 34.438 18.988 52 19-5.207-9.718-22.539-10.609-32-15.273-4.272-2.106-8.489-6.259-12.998-7.596-2.984-.884-4.896 1.113-7.002 2.869Zm306 20c13.588-.009 27.841-5.675 40-11.492 2.668-1.276 12.982-5.816 10.11-9.946-3.185-4.58-9.097.969-12.11 2.82-10.282 6.314-32.339 8.053-38 18.618Zm-85-23 1 1-1-1Zm76.333.667.334.666-.334-.666ZM592 448l1 1-1-1Zm100.333 1.667.334.666-.334-.666ZM691.333 451.667l.334.666-.334-.666Z" fill="#A7351D"/><path d="m1122 451 1 1-1-1Z" fill="#333213"/><path d="m539 452 1 1-1-1Zm55 0 1 1-1-1Zm-310 1c.003 24.495 10.37 49.503 24.735 69 5.366 7.284 11.891 16.115 20.265 20l-29.727-42.004L289.285 473 284 453Zm271 0 1 1-1-1Zm135 0v3h1l-1-3Zm175 0c-2.769 6.561-2.459 14.093-4.427 21-4.281 15.017-10.344 28.899-18.917 42-4.397 6.72-20.79 19.552-20.656 27 21.524-13.492 34.928-41.339 41.282-65 2.055-7.653 5.984-17.216 2.718-25Zm-323 1 1 1-1-1Zm32.667.333.666.334-.666-.334ZM594 454l1 1-1-1Zm-50 1 1 1-1-1Z" fill="#A7351D"/><path d="M572.515 455.877c-9.387 4.278-4.334 21.324 5.441 16.506 8.807-4.34 3.177-20.434-5.441-16.506Z" fill="#AEB2A1"/><path d="m577 455 1 1-1-1Zm28 0 1 1-1-1Zm-50 1 1 1-1-1Zm16 0 1 1-1-1Zm23 0 1 1-1-1Zm95 0 1 1-1-1ZM579 457l1 1-1-1Zm-30 1 1 1-1-1Zm139 0 1 1-1-1ZM568 459l1 1-1-1Zm13 0 1 1-1-1Zm106 0 1 1-1-1Zm-120 1 1 1-1-1Zm15 0 1 1-1-1Z" fill="#A7351D"/><path d="m405.667 464.333.666.334-.666-.334Zm338 0 .666.334-.666-.334ZM408.667 466.333l.666.334-.666-.334Zm331 0 .666.334-.666-.334Z" fill="#D0A837"/><path d="M255 492h1c.115-10.295 8.122-17.103 15-24l1 5h1l-1-6c-9.414 4.39-16.965 14.652-17 25Z" fill="#A7351D"/><path d="M410 467v1c12.225 6.406 25.056 10.962 39 11v-1l-39-11Z" fill="#D0A837"/><path d="M732 468v1l4-1h-4Z" fill="#A7351D"/><path d="M700 478v1c10.518-.007 31.712-2.407 38-12l-38 11Z" fill="#D0A837"/><path d="m877 470 3-2 13.088 18L892 497c-7.393-5.317-15.968-14.526-15-24h-1c-3.919 20.798-14.656 38.41-27.499 55-3.82 4.934-19.066 15.753-19.199 21.87-.134 6.175 12.902 16.273 16.698 21.13 23.708-9.973 40.667-41.925 45.6-66 1.148-5.606 3.527-12.26 3.177-18-.312-5.112-13.324-23.149-17.777-17Z" fill="#A7351D"/><path d="m135 468 1 1-1-1Z" fill="#333213"/><path d="M270 468c-7.735 7.8-19.487 18.595-11 30 6.72-9.065 18.856-18.097 11-30Zm609 0c-5.917 10.918 2.532 24.016 13 29 1.81-13.439-2.494-19.905-13-29Z" fill="#D0A837"/><path d="m169 469 1 1-1-1Z" fill="#333213"/><path d="M419 469v1l4 1v-1l-4-1Zm149 0 1 1-1-1Z" fill="#A7351D"/><path d="M570 469v1h10l-10-1Z" fill="#fff"/><path d="m729.667 469.333.666.334-.666-.334ZM726 470v1h3l-3-1Zm-301.333 1.333.666.334-.666-.334Zm300 0 .666.334-.666-.334ZM426 472v1h4l-4-1Zm294 0v1h4l-4-1ZM430 473v1h3l-3-1Zm287 0v1h3l-3-1Zm-444 1c-.031 7.42-4.945 11.483-9.389 17-1.341 1.665-3.97 6.4-5.611 5h-1c1.115 24.408 16.847 49.64 34 65.96 2.757 2.623 7.781 8.038 11.96 7.877 4.649-.179 17.641-15.413 17.694-19.822.068-5.625-14.081-15.532-17.72-20.015-8.403-10.352-16.201-21.849-21.756-34-3.162-6.917-4.378-15.666-8.178-22Zm160 0v1h4l-4-1Zm126 .597c-4.496.199-13.251 1.428-16.4 4.913-4.24 4.691-7.203 24.528-1.452 28.566 5.24 3.68 11.895 2.606 17.852 3.013 13.7.939 27.293 1.087 41-.193 13.779-1.288 16.883-23.895 6.697-32.053-3.792-3.036-15.202-5.618-19.697-3.629-4.058 1.797-7.265 7.264-12 7.355-6.28.122-9.362-8.265-16-7.972ZM710 475v1l6-1h-6Zm-273 0v1h3l-3-1ZM701 477v1l7-1h-7Z" fill="#A7351D"/><path d="M515 518c11.316-1.171 11.164-23.419 12-33-12.783 1.724-12 23.04-12 33Zm108-33c.778 9.525 1.108 31.873 12 33-.007-9.875.477-31.317-12-33Zm-376 7c-2.218 8.067 2.374 18.571 5.568 26 9.088 21.139 25.861 46.974 47.432 57l-35.964-42-10.845-25L247 492Zm603 83c21.482-9.071 38.248-35.682 47.27-56 2.743-6.176 4.338-12.448 5.895-19 .379-1.594 2.462-6.484-.353-7.079-2.938-.62-6.947 18.216-8.162 21.079-6.451 15.203-13.709 29.552-24.824 42-6.098 6.829-14.126 11.936-19.826 19Zm-594-82v3h1l-1-3ZM384.985 503.887c-3.639.801-12.564 7.265-13.064 11.202-.621 4.893 11.225 15.969 16.04 15.249 3.838-.574 12.742-8.145 11.693-12.339-.775-3.099-4.351-5.648-6.329-7.998-2.136-2.537-4.354-6.992-8.34-6.114Zm377.199.25c-3.258 1.438-11.977 11.295-11.977 14.848 0 4.581 10.425 12.732 14.793 10.929 3.838-1.585 13.661-10.233 13.079-14.825-.542-4.267-11.658-12.823-15.895-10.952ZM227 523h1l6-10h2c3.409 13.677-2.838 22.224-12 33l-1-5h-1c3.01 20.085 19.726 43.01 35 55.535 3.891 3.191 13.339 11.832 18.815 10.498 6.403-1.56 14.081-17.861 18.185-23.033v-1c-26.101-20.135-42.459-42.509-58-71l-9 11Zm684-5h1l2-5 5 4-3-5-5 6Z" fill="#A7351D"/><path d="M234 513c-8.107 12.018-13.863 18.551-10 33 10.192-8.444 16.444-20.653 12-33h-2Zm680 0c-7.188 14.117 3.493 20.398 9 33h2c4.895-12.389-.518-24.79-11-33Z" fill="#D0A837"/><path d="m919 518 3 6h1l-4-6Zm-8.667 1.667.334.666-.334-.666ZM368 521c2.645 6.155 8.759 12.49 15 15l-15-15Zm413 0-14 15c4.848-1.347 15.313-9.51 14-15Zm128 0c-4.202 17.529-21.943 34.394-34.286 46.714-3.744 3.738-16.776 10.785-16.851 16.379-.097 7.322 11.581 17.521 15.137 23.907 23.031-4.441 40.362-32.527 49.309-52 3.288-7.157 8.714-15.906 6.691-24h-1l-3 14h-2l-14-25Zm-684 3v2l2-2h-2Zm698 0 2 3-2-3Zm-698.667 2.667.334.666-.334-.666ZM374 546c-1.066-3.796-3.216-6.1-5.911-8.961-2.516-2.67-5.178-7.403-8.415-9.152-3.737-2.021-7.36 2.819-9.674 5.114-2.522 2.502-8.603 6.821-8.079 10.906.685 5.332 16.301 13.57 21.079 11.277 4.136-1.986 7.227-6.527 11-9.184Zm416.209-17.914c-3.336 1.6-13.002 12.243-13.002 15.914 0 7.158 10.891 13.138 16.793 10.505 3.769-1.681 13.481-5.945 14.079-10.598.632-4.927-12.883-18.212-17.87-15.821ZM925 527l1 1-1-1Zm-702 1-1 3 1-3Zm703 0 1 4h1l-2-4Zm-384 2v1l31-1h-31Z" fill="#A7351D"/><path d="M460 546c1.87 5.317 7.443 3.906 12 2.88 12.335-2.775 24.569-4.623 37-6.634 43.079-6.969 88.883-6.122 132 .025a462.366 462.366 0 0 1 34 6.153c5.458 1.197 10.702 2.965 15-1.424-12.899-5.709-27.306-7.469-41-10.286-41.839-8.603-88.713-10.23-131-3.389-19.472 3.15-38.644 9.827-58 12.675Z" fill="#D0A837"/><path d="M576 529v1l31 1-31-2Zm-354.667 2.667.334.666-.334-.666ZM520 532v1l19-1h-19Zm91-1v1l18 1-18-2Zm-391 2 1 7h1l-2-7Zm294 0v1h3l-3-1Zm118 0v1h4l-4-1Zm-124 1v1h6l-6-1Zm128 0v1h6l-6-1Zm-134 1v1h4l-4-1Zm142 0v1h3l-3-1Zm-148 1v1h6l-6-1Zm151 0v1l12 1-12-2Zm-156 1v1h5l-5-1Zm-5 1v1h5l-5-1Zm-27 8-2 45c25.701-.215 50.955-12.367 77-13.015 17.863-.444 32.573 2.299 40 21.015h2c8.005-18.553 21.785-21.49 40-21.015 26.024.68 51.334 12.8 77 13.015-.447-11.035-1-21.927-1-33 0-4.394 1.037-9.383-3-12-1.671 5.409-7.642 3.628-12 2.651-12.661-2.84-25.163-4.998-38-6.781-42.282-5.875-87.781-6.699-130 .21-11.41 1.868-22.645 3.571-34 5.923-6.353 1.316-11.031 3.111-16-2.003Zm200-8v1h5l-5-1Zm-177 1v1h4l-4-1Zm182 0v1h3l-3-1Zm-185.333 1.333.666.334-.666-.334ZM669 540v1l6 1v-1l-6-1Zm-194 1v1h3l-3-1Zm-3.333 1.333.666.334-.666-.334ZM676 542v1l7 1v-1l-7-1Zm-209 1v1h4l-4-1Zm-255 1c4.575 21.883 21.964 41.374 39 54.789 6.422 5.057 13.917 11.312 22 13.211v-1c-24.168-12.916-49.556-39.992-57-67h-4Zm252 0v1h3l-3-1Zm219 0v1h3l-3-1Zm251 0c-7.548 27.376-32.441 53.926-57 67v1c7.035-1.614 13.205-6.56 18.986-10.72 17.445-12.552 38.95-34.984 42.014-57.28h-4Zm-474 1v1h4l-4-1Zm226 0v1h3l-3-1Zm-349 4v1h3l-3-1Zm466 5v1l10-5-10 4Zm-462-3v1l6 3v-1l-6-3Zm62 132c17.33-7.676 19.528-19.558 27.248-35 4.402-8.804 11.467-16.926 15.064-26 4.085-10.302 3.688-23.128 3.688-34 0-8.893.753-18.176-.424-27-.307-2.297-.053-7.377-2.894-8.183C433.897 549.473 438 570.656 438 576c0 22.083-1.475 44.739-11.258 65C419.378 656.248 403 665.937 403 683Zm345 1c-.142-17.152-16.328-26.155-23.752-41-10.429-20.856-12.257-44.075-12.248-67 .002-5.257 4.416-26.617-7.682-23.183-2.911.826-2.434 5.869-2.742 8.183-1.23 9.22-1.511 19.758-.742 29 .883 10.607.182 21.799 4.029 32 3.66 9.704 11.227 18.613 15.889 28 7.478 15.055 10.366 26.522 27.248 34ZM312 577c6.049 2.518 16.068 10.172 22.907 8.307 5.863-1.599 11.927-11.52 15.093-16.307-5.819-3.24-12.704-11.015-19-12.507-6.95-1.647-17.653 14.84-19 20.507Zm37.667-20.667.666.334-.666-.334ZM799 556v1h3l-3-1Zm39 21c-.964-4.055-3.102-6.81-5.755-10-8.642-10.395-11.346-11.519-22.245-4.232-2.49 1.665-7.643 3.806-7.833 7.311-.52 9.557 13.466 16.353 20.833 13.74 5.187-1.84 9.928-4.707 15-6.819Zm-485.333-18.667.666.334-.666-.334ZM795 558v1h3l-3-1Zm-2 2 1 1-1-1Zm-589 3c-3.838 5.391-10.755 16.183-10.407 23 .231 4.524 3.651 9.081 5.652 13 6.591 12.909 15.149 25.223 26.179 34.731 4.955 4.271 18.084 16.497 25.363 14.477 6.506-1.804 14.018-21.389 17.213-27.208-21.759-14.667-42.948-28.872-58-51h-1l-9 24c-9.919-8.532.313-19.252 3-29h3l3 4-5-6Zm740 0c-13.585 24.494-36.789 43.574-61 57 1.13 5.858 10.134 26.522 16.213 28.208 5.215 1.447 14.859-6.053 18.787-8.969 14.915-11.07 34.779-32.972 37.886-52.239 1.041-6.453-6.314-21.011-11.886-24Z" fill="#A7351D"/><path d="M203 565c-3.169 8.053-13.933 22.774-3 29 3.664-10.743 12.284-17.987 6-29h-3Zm741 0c-6.675 10.262.466 19.519 6 29 9.443-8.247.515-20.21-4-29h-2Z" fill="#D0A837"/><path d="M308 581v1c7.53 2.85 14.481 10.242 23 9l-23-10Zm511 10c8.172 1.578 15.694-6.235 23-9-5.54-1.819-18.537 5.394-23 9Zm-329 4v2c10.517 4.186 19.093 12.279 29.039 16.265 8.923 3.576 19.533 4.452 28.961 5.981 11.447 1.856 23.978 6.795 21-9.246h-1l1 11c-8.691-1.807-7.129-11.14-9.36-18-2.688-8.27-7.778-14.259-15.64-18v-1c14.421.307 21.223 11.815 23 25 3.792-9.74-6.756-23.334-16-25.471-17.967-4.153-44.277 5.236-61 11.471Zm109-12v1h6c-5.223 5.04-10.744 7.963-13.826 15-3.084 7.044-1.632 19.522-10.174 22v-9h-1v10c15.486-.128 37.656-2.758 51.911-9.008 4.593-2.015 7.735-6.658 12.089-9.189 5.495-3.194 12.562-4.123 17-8.803-20.589-5.504-40.462-12-62-12Z" fill="#A7351D"/><path d="M544 584v1c6.648 4.54 12.011 9.3 14.934 17 2.638 6.949.81 17.938 10.066 19-.711-16.556-5.141-36.834-25-37Z" fill="#D0A837"/><path d="M594 585v1l4-1h-4Z" fill="#A7351D"/><path d="M581 621c9.06-1.445 7.926-18.036 12.272-24.999 3.108-4.977 8.549-7.367 11.728-12.001-19.688.176-23.998 20.764-24 37Z" fill="#D0A837"/><path d="m592 586 1 1-1-1Zm-1 1 1 1-1-1Zm-307 25c16.28 8.578 31.088 8.945 38-11-4.552-2.761-14.885-11.797-19.91-11.658-6.406.177-15.267 17.588-18.09 22.658Zm306-24 1 1-1-1Zm238 13c8.125 19.195 21.116 19.897 38 11-2.791-5.013-11.734-22.713-18.089-22.797C842.9 589.137 832.64 598.289 828 601Zm-239-12 1 1-1-1Zm-1 1 1 1-1-1Zm-.667 1.667.334.666-.334-.666ZM187 593c2.862 16.105 21.773 37.621 36 45l-24.255-29L187 593Zm399 0 1 1-1-1Zm332 50v1c16.744-6.441 43.086-32.313 45-51-6.264 3.339-9.673 13.28-13.884 19-8.798 11.951-18.92 22.467-31.116 31Zm-332.667-47.333.334.666-.334-.666ZM584.333 597.667l.334.666-.334-.666Z" fill="#A7351D"/><path d="m1037.67 597.333.66.334-.66-.334Z" fill="#333213"/><path d="M583 600v3h1l-1-3Z" fill="#A7351D"/><path d="m1037 602 4 15-4-15Z" fill="#333213"/><path d="M582 603v3h1l-1-3ZM581 608v3h1l-1-3ZM177 609l-3 11h1l3-10c2.713 3.108 7.004 6.852 7.958 11 1.942 8.453-7.545 23.661-9.958 32l-8-8c-.288 5.715 6.987 11.021 11 14.41 11.73 9.906 24.184 18.553 38 25.332 3.728 1.828 10.401 6.336 14.725 5.19 4.406-1.168 14.339-24.587 11.439-28.117-2.612-3.181-8.661-4.745-12.164-6.877-9.865-6.003-19.639-11.883-28-19.949-6.94-6.695-17.246-23.297-26-25.989Zm789 6 4-5h1c4.127 12.219 17.488 34.727 2 43l-11-32c-13.164 10.059-23.414 22.281-38 30.861-4.088 2.405-16.034 6.737-17.582 11.352-2.004 5.978 7.912 22.146 10.582 27.787 18.858-4.375 37.574-17.572 52-30 4.774-4.113 12.382-9.353 13.646-16 1.867-9.822-6.707-27.114-10.646-36l-6 6Z" fill="#A7351D"/><path d="M178 610c-3.314 12.366-18.229 35.368-2 43 5.719-14.45 16.509-31.292 2-43Zm792 0-7.202 11L973 653c14.968-4.813 4.533-34.621-3-43Z" fill="#D0A837"/><path d="M671 616c4.967 21.664 15.439 46.74 38 55-2.718-21.051-15.309-49.56-38-55Z" fill="#AEB2A1"/><path d="m673 616 1 1-1-1Zm292 0 1 1-1-1Zm-681 1v1l21 7v-1l-21-7Z" fill="#A7351D"/><path d="M474 617c-11.609 8.819-20.352 17.252-26 31 7.674-3.981 27.31-21.445 26-31Z" fill="#AEB2A1"/><path d="m475 617 1 1-1-1Zm390 0-20 7v1c3.563-.06 21.632-4.01 20-8Z" fill="#A7351D"/><path d="m964 617 1 1-1-1Z" fill="#AEB2A1"/><path d="m472 618 1 1-1-1Zm27 0c-2.542 9.045-4.298 18.889 8 15-1.26-6.765-1.657-11.243-8-15Zm144 23c10.773-4.709 12.443-12.471 8-23-11.045 4.294-8.079 13.472-8 23Zm28-23 1 1-1-1Zm292 0 1 1-1-1Zm-489 1 1 1-1-1Z" fill="#A7351D"/><path d="M644 633c4.805-3.082 6.836-8.461 7-14-6.4 2.777-8.094 7.344-7 14Z" fill="#D0A837"/><path d="m962 619 1 1-1-1ZM173 621l-1 5h1v-5Zm295 0 1 1-1-1Zm204 0 1 1-1-1ZM466 622l1 1-1-1Zm-1 1 1 1-1-1Zm6 0 1 1-1-1Zm213 0 1 1-1-1Zm-424 30c5.312 2.604 16.002 6.603 21.906 4.382 5.937-2.234 13.943-17.436 15.094-23.382-5.848-1.673-13.978-8.738-19.816-8.404-6.536.373-15.418 21.823-17.184 27.404Zm413-28 1 1-1-1Zm180 9c1.563 6.073 9.086 20.947 15.174 23.393 5.85 2.35 16.55-1.807 21.826-4.393-1.75-5.531-10.746-27.035-17.185-27.404-5.835-.335-13.968 6.732-19.815 8.404ZM469 626l1 1-1-1Zm-298 1-2 10h1l1-10Zm297 0 1 1-1-1Zm166 1-1.319 7.972-9.681 1.453-26 3.489-90 13.421L469 663l4-5v-1c-5.948 1.804-6.73 9.511-8 15 11.393 3.366 28.244-2.191 40-3.718 33.004-4.289 66.347-8.99 99-15.482 13.155-2.615 32.102-.536 31.999-16.8-.02-3.194-.07-5.454-1.999-8Zm40.333.667.334.666-.334-.666Zm-43.666.666.666.334-.666-.334Z" fill="#A7351D"/><path d="M469 663c40.493-11.406 85.032-19.09 127-21.975 9.292-.639 18.738-2.338 28-3.6 2.71-.369 7.147.32 9.397-1.453 1.976-1.557 1.577-4.76 1.603-6.972-42.378 6.231-84.731 13.73-127 20.919-8.64 1.469-37.363 3.185-39 13.081Z" fill="#D0A837"/><path d="m458 630 1 1-1-1Zm8 0 1 1-1-1Zm49 1v1h4l-4-1Zm109-1v1h5l-5-1Zm-167 1 1 1-1-1Zm8 0 1 1-1-1Zm155 0v1h4l-4-1Zm55 0 1 1-1-1Zm-70 2v1l13-1h-13Zm88-1 1 1-1-1Zm-326 2-1 2h2l-1-2Zm226 1v1l9-1h-9Zm83-1 1 1-1-1Zm-214 1 1 1-1-1Zm321 0 1 1-1-1Z" fill="#A7351D"/><path d="M366 636c-7.026 23.876-33.215 40.283-46.086 61-13.908 22.387-13.401 45.888-22.914 69 7.406 2.082 15.768 6.919 23 8.14 3.59.606 7.319-1.215 11-.956 9.955.701 20.196 2.547 30 4.28 7.877 1.392 23.345 6.707 30.907 3.779 5.277-2.043 11.002-10.895 14.424-15.243 12.109-15.387 23.566-33.283 29.669-52-17.519 3.753-36.807 19.706-48.745 32.464-4.09 4.371-11.135 18.538-16.475 20.329-4.412 1.48-7.568-7.921-8.626-10.793-4.983-13.533-2.267-24.546.846-38-16.861 3.996-32.163 14.088-41 29-7.248-28.013 10.938-51.037 27.279-71.714 6.67-8.44 21.468-27.84 16.721-39.286Z" fill="#AEB2A1"/><path d="M587 636v1h3l-3-1Zm90 0 1 1-1-1Zm19 0 1 1-1-1Z" fill="#A7351D"/><path d="M783 636c.739 25.539 23.769 43.891 36.294 64 9.163 14.712 11.039 29.108 9.706 46-13.258-12.108-22.791-22.795-41-28 1.174 14.367 4.892 23.559-.004 38-1.029 3.036-3.501 11.887-7.96 11.23-2.647-.39-4.146-4.282-5.416-6.23-3.746-5.748-8.257-11.045-12.941-16.049C749.534 731.973 731.917 719.676 715 714c2.906 19.666 20.313 42.474 33.156 56.996 3.815 4.314 9.666 13.149 15.844 13.973 5.285.705 16.84-6.014 23-7.165 21.996-4.112 44.275-6.183 66-11.804-7.407-17.996-6.656-37.814-15.299-56-9.193-19.345-24.528-33.921-38.111-50-6.394-7.569-10.829-16.082-16.59-24Z" fill="#AEB2A1"/><path d="M168 637v4h1l-1-4Zm292 0 1 1-1-1Zm118 0v1h8l-8-1Zm206.333.667.334.666-.334-.666ZM224 638l5 4-5-4Zm141 0 1 1-1-1Zm94 0 1 1-1-1Zm113 0v1h6l-6-1Zm125 0 1 1-1-1Zm-239 1 1 1-1-1Zm105 0v1h8l-8-1Zm222 0 1 1-1-1Zm-421 1 1 1-1-1Zm93 0 1 1-1-1Zm103 0v1h3l-3-1Zm119 0 1 1-1-1Zm-511.667 1.667.334.666-.334-.666ZM456 641l1 1-1-1Zm96 0v1h4l-4-1Zm-189 1 1 1-1-1Zm87 0 1 1-1-1Zm5 0 1 1-1-1Zm92 0v1h5l-5-1Zm239 0 1 1-1-1Zm-555 1 1 1-1-1Zm131 0 1 1-1-1Zm92 0 1 1-1-1Zm78 1v1l12-1h-12Zm124-1c-8.13 2.743-18.41 18.3-7.49 24.918 10.595 6.422 12.947-8.786 11.076-14.918-1.039-3.409-2.142-6.743-3.586-10Zm24 0 1 1-1-1Zm104 0 1 1-1-1Zm3 0 1 1-1-1Zm-422 1 1 1-1-1Zm84 0 1 1-1-1Zm4 0 1 1-1-1Zm247 0 1 1-1-1ZM233 645v1l6 2v-1l-6-2Zm128 0 1 1-1-1Zm166 0v1h4l-4-1Zm154 0 1 1-1-1Zm230 2v1l6-2-6 1Zm-463-1 1 1-1-1Zm73 0v1h6l-6-1Zm268 0 1 1-1-1Zm-340 1 1 1-1-1Zm68 0v1h3l-3-1Zm-153 1 1 1-1-1Zm142 1v1l10-1h-10Zm177-1 1 1-1-1Zm19 0 1 1-1-1Zm88 0 1 1-1-1Zm-547 2 1 1-1-1Zm115 0 1 1-1-1Zm5 0 1 1-1-1Zm137 0v1h5l-5-1Zm286 0 1 1-1-1Zm116 2v1l5-2-5 1Zm-545-1 1 1-1-1Zm138 0v1h5l-5-1Zm190 0 1 1-1-1Zm107 0 1 1-1-1Zm-547 1v1h3l-3-1Zm246.667.333.666.334-.666-.334ZM793 652l1 1-1-1Zm-307 1v1h5l-5-1Zm218 0 1 1-1-1Zm83 0 1 1-1-1Zm7 0 1 1-1-1Zm-432 1 1 1-1-1Zm121.667.333.666.334-.666-.334ZM354 655l1 1-1-1Zm124 0v1h4l-4-1Zm-18 34-2 49 38-11.279 98-34.518 30-11.519 15.381-6.758L637 655l-48 7.714L460 689Zm228-34 1 1-1-1Zm107 0 1 1-1-1Zm-442 1 1 1-1-1Zm8 0 1 1-1-1Zm113 0v1h4l-4-1Zm322 0 1 1-1-1Zm-106 1 1 1-1-1Zm107 0 1 1-1-1Zm-534 2v1h3l-3-1Zm527 0 1 1-1-1Zm94 0v1h4l-4-1Zm-534 1 1 1-1-1Zm441 0 1 1-1-1Zm-523 1v1l12 2-12-3Zm81 0 1 1-1-1Zm9 0 1 1-1-1Zm442 0 1 1-1-1Zm71 2v1l11-2-11 1Zm-523-1 1 1-1-1Zm347 0 1 1-1-1Zm12 0 1 1-1-1Zm94 0 1 1-1-1Zm-105 1 1 1-1-1Zm96 0 1 1-1-1Zm10 0 1 1-1-1Zm-105 1 1 1-1-1Zm96 0 1 1-1-1Zm10 0 1 1-1-1Zm-105 1 1 1-1-1Zm106 0 1 1-1-1Zm-531 8c-4.723-1.289-14.163-7.388-18.725-6.183-4.335 1.145-14.095 23.908-11.462 27.623 1.428 2.014 4.973 2.693 7.187 3.358 13.459 4.045 22.116-12.058 23-24.798Zm427-7 1 1-1-1Zm105 0 1 1-1-1Zm87.982.897c-3.356.964-13.221 4.288-14.821 7.521-1.539 3.107 2.251 7.916 3.591 10.582 4.66 9.267 5.502 16.422 17.248 13.091 12.787-3.626 6.963-11.534 2.988-21.091-1.585-3.811-3.56-11.666-9.006-10.103ZM344 667l1 1-1-1Zm10 0 1 1-1-1Zm354 0 1 1-1-1Zm98 0 1 1-1-1Zm-103 1 1 1-1-1Zm92 0 1 1-1-1Zm-453 1 1 1-1-1Zm363 0 1 1-1-1Zm91 0 1 1-1-1Zm12 0 1 1-1-1Zm-467 1 1 1-1-1Zm456 0 1 1-1-1Zm-457 1 1 1-1-1Z" fill="#A7351D"/><path d="M619 671c-30.829.636-65.107 8.715-94 19.139-5.366 1.936-27.664 8.091-25.248 16.543.842 2.948 5.092 2.032 7.248 1.738 7.565-1.034 14.61-3.387 22-5.189 22.355-5.45 44.456-13.23 66-21.281 6.869-2.567 19.529-4.991 24-10.95Z" fill="#D0A837"/><path d="m339 672 1 1-1-1Zm333 16-6-16c-3.518 1.006-11.9 2.93-13.608 6.499-5.715 11.941 14.057 11.38 19.608 9.501Zm138-16 1 1-1-1Zm1 1 1 1-1-1Zm-462 1 1 1-1-1Zm464 0 1 1-1-1Zm1 1 1 1-1-1Zm-480 3 1 1-1-1Zm12 0 1 1-1-1Zm457 0 1 1-1-1Zm-470 1 1 1-1-1Zm471 0 1 1-1-1Zm12 0 1 1-1-1Zm-484 1 1 1-1-1Zm485 0 1 1-1-1Zm-173 1c-9.239 1.384-18.259 6.249-27 9.47-15.678 5.777-31.541 11.221-47 17.591-17.251 7.108-34.823 13.495-52 20.811l-39 16.701c-4.363 1.867-13.203 4.016-15.958 8.076-2.581 3.804 1.463 11.595 2.819 15.351 5.052 13.989 7.717 24.234 24.139 22.907 13.198-1.067 26.811-12.62 38-19.057 29.85-17.172 59.836-35.139 88-54.994 7.947-5.603 16.053-10.973 24-16.577 2.882-2.032 7.356-4.56 8.184-8.294.844-3.808-2.77-8.588-4.184-11.985Zm174 0 1 1-1-1Zm-488 1 1 1-1-1Zm476 0 1 1-1-1Zm13 0 1 1-1-1Zm-477 1 1 1-1-1Zm-13 1 1 1-1-1Zm-1 1 1 1-1-1Zm12 0 1 1-1-1Zm469 0 1 1-1-1Zm12 0 1 1-1-1Zm-494 1 1 1-1-1Zm495 0 1 1-1-1Zm-483 1 1 1-1-1Zm484 0 1 1-1-1Zm-485 1 1 1-1-1Zm473 0 1 1-1-1Zm13 0 1 1-1-1Zm-500 2 1 1-1-1Zm501 0 1 1-1-1Zm-489 1 1 1-1-1Zm477 0 1 1-1-1Zm13 0 1 1-1-1Zm-491 1 1 1-1-1Zm-13 1 1 1-1-1Z" fill="#A7351D"/><path d="M599 715c11.19-2.659 28.245-11.788 34-22-12.09 3.458-27.99 10.416-34 22Z" fill="#D0A837"/><path d="m827 693 1 1-1-1Zm-506 1 1 1-1-1Zm13 0 1 1-1-1Zm494 0 1 1-1-1Zm-495 1 1 1-1-1ZM319 697l1 1-1-1Zm13 0 1 1-1-1Zm333 2c2.843 8.264 8.815 6.567 16 6-2.13-8.927-8.593-7.825-16-6Zm165-2 1 1-1-1Zm-12 1 1 1-1-1ZM318 699l1 1-1-1Zm501 1 1 1-1-1Zm13 0 1 1-1-1Zm-515 1 1 1-1-1Zm503 0 1 1-1-1Zm-504 1 1 1-1-1Zm201 90c8.181 4.901 18.184 3.534 27 3.043 7.953-.443 18.553 2.585 26 .102 6.871-2.291 11.78-9.142 16.961-13.856C600.79 768.705 613.781 755.219 627 742c8.333-8.333 16.695-16.638 24.999-25 2.398-2.414 7.252-6.027 5.825-9.981-1.657-4.594-6.185-4.688-9.824-2.767-8.866 4.678-17.747 10.629-26 16.314-34.757 23.942-69.766 48.225-105 71.434Zm316-90 1 1-1-1Zm-505 1 1 1-1-1Zm-13 1 1 1-1-1Zm-1 1 1 1-1-1Zm521 0 1 1-1-1Zm-508 1 1 1-1-1Zm496 1 1 1-1-1Zm13 0 1 1-1-1Zm-523 1 1 1-1-1Zm524 1 1 1-1-1Zm-525 1 1 1-1-1Zm512 0 1 1-1-1Zm1 1 1 1-1-1Zm13 0 1 1-1-1Zm-793 2 1 1-1-1Z" fill="#A7351D"/><path d="M45 714c3.86 12.769 5 22.556 5 36 0 5.23-1.894 15.166 1.028 19.697 5.549 8.605 26.434 1.761 27.863 14.308C82.361 814.48 79 847.308 79 878c0 41.913 2.798 84.049.96 126-.947 21.65-.706 43.29-.964 65-.094 7.95-4.136 17.48-1.996 25 12.592-6.83 22.264-26.83 31.2-38 3.513-4.39 9.328-9.54 11.018-15 1.376-4.45-2.452-8.66-3.03-13-1.392-10.46-1.059-22.44-1.184-33-.497-41.725.996-83.323.996-125v-61c0-4.535-2.195-17.213 2.318-19.932 5.359-3.229 21.735 3.572 27.682 4.932 3.118-10.547-.609-22.237 1.329-33 .667-3.7 5.553-9.048 3.585-12.697-2.725-5.052-19.536-7.679-24.914-9.151-18.962-5.191-37.447-12.157-56-18.657-7.376-2.585-17.144-8.131-25-6.495Z" fill="#FFE609"/><path d="m49.667 713.333.666.334-.666-.334ZM52 714v1h3l-3-1Zm258 0 1 1-1-1Zm404 0 1 1-1-1Zm112 0 1 1-1-1Zm13 0 1 1-1-1Zm-794 1 1 1-1-1Zm10 0v1h3l-3-1Zm376 0 1 1-1-1Zm4 0 1 1-1-1Zm283 0 1 1-1-1Zm-660 1 1 1-1-1Zm251 0 1 1-1-1Zm119 0 1 1-1-1Zm293 0 1 1-1-1Zm106 0 1 1-1-1Zm-765 1 1 1-1-1Zm260 0 1 1-1-1Zm104 0 1 1-1-1Zm289 0 1 1-1-1Zm8 0 1 1-1-1Zm-659 1 1 1-1-1Zm296 0 1 1-1-1Zm74 0 1 1-1-1Zm353.333.667.334.666-.334-.666ZM841 718l1 1-1-1Zm-774 1 1 1-1-1Zm241 0 1 1-1-1Zm49 0 1 1-1-1Zm66 0 1 1-1-1Zm369 0 1 1-1-1Zm-745 1 1 1-1-1Zm22.667.333.666.334-.666-.334ZM247 720l1 1-1-1Z" fill="#A7351D"/><path d="m264 760-5-38c-2.772-.572-7.825-2.785-10.397-.933C245.628 723.209 247 730.826 247 734c.001 11.726.619 29.844 17 26Z" fill="#AEB2A1"/><path d="m252 720 1 1-1-1Zm103 0 1 1-1-1Zm7 0 1 1-1-1Zm354 0 1 1-1-1Zm12 0 1 1-1-1Zm66 0 1 1-1-1Zm34 0 1 1-1-1Zm69 0 1 1-1-1Z" fill="#A7351D"/><path d="M886 759c21.992-.947 17-22.202 17-39-17.577.766-12.701 25.442-17 39Z" fill="#AEB2A1"/><path d="m73 721 1 1-1-1Zm183 0 1 1-1-1Zm51 0 1 1-1-1Zm45 0 1 1-1-1Zm67 0 1 1-1-1Zm243 8 30 9 1-17c-10.581 0-24.264-1.332-31 8Zm68-8 1 1-1-1Zm67 0 1 1-1-1Zm45 0 1 1-1-1Zm51 0 1 1-1-1Zm178 1v1c7.37.338 22.14 5.734 25.26 13.105 2.92 6.902.74 18.467.74 25.895 0 6.218 1.87 15.887-2 21 9.23 1.855 6-19.482 6-25 0-6.899 1.99-17.461-.6-23.907-4.05-10.064-20.4-12.802-29.4-12.093Zm-996 0v1h3l-3-1Zm246 0 1 1-1-1Zm29 0 1 1-1-1Zm68 0 1 1-1-1Zm314 0 1 1-1-1Zm56 0 1 1-1-1Zm11 0 1 1-1-1Zm92 0 1 1-1-1Zm-813 1 1 1-1-1Zm181 0v9h1l-1-9Zm102 0 1 1-1-1Zm71 0 1 1-1-1Zm458 0 1 1-1-1Z" fill="#A7351D"/><path d="M995 748c9.96 31.527 4 71.739 4 105 0 49.546 3.48 99.552.089 149-1.238 18.08 1.891 36.28-3.089 54 9.21 1.06 20.22-11.43 27-16.91 20.12-16.23 41.14-32.65 58.29-52.09 4.66-5.289 14.11-11.144 16.36-18.001 1.12-3.404-.63-8.382-.65-11.999-.05-10.666 0-21.334 0-32 0-3.315 1.35-10.632-1.6-12.972-2.63-2.081-8.27-1.013-11.4-1.029-8.79-.043-16.14-1.667-25 .001 0 18.761-7.12 26.665-22 38-4.69-19.678 0-42.906 0-63 7.21-.02 30.48.697 35.4-4.564 2.54-2.72 1.6-8.033 1.6-11.436v-28c0-3.151 1.22-9.739-1.6-11.972-2.9-2.294-8.26-.685-11.4.112-7.87 1.999-16.11 1.959-24 3.86v-31c0-4.077-1.06-9.981.6-13.786 3.73-8.516 20.27-9.272 20.4 1.786 9.12-.721 18.02-3.493 27-5.196 3.22-.61 7.87-.432 10.4-2.813 3.62-3.418 1.6-14.386 1.6-18.991 0-18.823 3.09-32.827-18-39.895-8.64-2.897-17.93 2.796-26 5.621-19.12 6.692-39.05 11.21-58 18.274Z" fill="#FFE609"/><path d="m81 724 1 1-1-1Zm225 0 1 1-1-1Zm40 0 1 1-1-1Zm68 0 1 1-1-1Zm17 0 1 1-1-1Zm287 0 1 1-1-1Zm17 0 1 1-1-1Zm68 0 1 1-1-1Zm40 0 1 1-1-1Zm223 0 1 1-1-1ZM49.333 725.667l.334.666-.334-.666Zm34.334-.334.666.334-.666-.334ZM344 725l1 1-1-1Zm69 0 1 1-1-1Zm392 0 1 1-1-1Zm259.67.333.66.334-.66-.334ZM87 726v1h3l-3-1Zm273 0 1 1-1-1Zm51 0 1 1-1-1Zm308 0 1 1-1-1Zm19 0 1 1-1-1Zm69 0 1 1-1-1Zm253 0v1h3l-3-1Zm-970 1 1 1-1-1Zm215.333.667.334.666-.334-.666ZM341 727l1 1-1-1Zm69 0 1 1-1-1Zm20 0 1 1-1-1Zm414 0 1 1-1-1Zm215 0 1 1-1-1Zm-651 1 1 1-1-1Zm21 0 1 1-1-1Zm291 0 1 1-1-1Zm335 0 1 1-1-1Zm-959.333 1.333.666.334-.666-.334ZM337 729l1 1-1-1Zm70 0 1 1-1-1Zm405 0 1 1-1-1Zm240 0v1h3l-3-1Zm-954 1 1 1-1-1Zm222 0v11h1l-1-11Zm424 0 1 1-1-1Zm46.333.667.334.666-.334-.666ZM890 730v7h1l-1-7Zm160 0 1 1-1-1Zm-949 1 1 1-1-1Zm234 0 1 1-1-1Zm24.333.667.334.666-.334-.666ZM404 731l1 1-1-1Zm24 0 1 1-1-1Zm317 0 1 1-1-1Zm84 0v11h1l-1-11Zm16 0 1 1-1-1Zm202 0 1 1-1-1Zm-943 1 1 1-1-1Zm200 0 1 1-1-1Zm512 0 1 1-1-1Zm228.67.333.66.334-.66-.334Zm-937.003 1 .666.334-.666-.334ZM332 733l1 1-1-1Zm69 0 1 1-1-1Zm26 0 1 1-1-1Zm321 0 1 1-1-1Zm69 0 1 1-1-1Zm224.67.333.66.334-.66-.334ZM110 734l1 1-1-1Zm221 0 1 1-1-1Zm69 0 1 1-1-1Zm323 0 1 1-1-1Zm26 0 1 1-1-1Zm290 0 1 1-1-1Zm-926 1 1 1-1-1Zm217 0 1 1-1-1Zm69 0 1 1-1-1Zm392 0v4h1l-1-4Zm55.333.667.334.666-.334-.666ZM1036 735l1 1-1-1Zm-921 1v1h3l-3-1Zm214 0 1 1-1-1Zm96 0 1 1-1-1Zm299 0 1 1-1-1Zm308 0v1h3l-3-1Zm-912.333 1.333.666.334-.666-.334Zm183.666.334.334.666-.334-.666ZM328 737l1 1-1-1Zm397 0 1 1-1-1Zm28 0 1 1-1-1Zm68 0 1 1-1-1Zm207.67.333.66.334-.66-.334Zm-905.003 1 .666.334-.666-.334ZM327 738l1 1-1-1Zm68 0 1 1-1-1Zm29 0 1 1-1-1Zm330 0 1 1-1-1Zm68 0 1 1-1-1Zm203 0 1 1-1-1Zm-898 1 1 1-1-1Zm133 0v3h1l-1-3Zm66 0 1 1-1-1Zm68 0 1 1-1-1Zm230 35c11.414 6.986 37.862 28.287 51.182 15.262 3.89-3.804 6.242-12.193 7.987-17.262 1.565-4.548 6.326-12.784 4.213-17.61-1.938-4.427-11.251-6.682-15.382-8.4-4.494-1.869-12.987-7.585-17.911-6.257-3.569.963-6.403 5.61-8.668 8.267-6.827 8.01-16.992 16.502-21.421 26Zm199-35 1 1-1-1Zm24.333.667.334.666-.334-.666Zm174.337-.334.66.334-.66-.334ZM130 740v1h3l-3-1Zm172.333.667.334.666-.334-.666ZM393 740l1 1-1-1Zm30 0 1 1-1-1Zm303 0 1 1-1-1Zm30 0 1 1-1-1Zm35 0v3h1l-1-3Zm33 0 1 1-1-1Zm65 0v3h1l-1-3Zm128.67.333.66.334-.66-.334ZM133 741l1 1-1-1Zm259 0 1 1-1-1Zm335 0 1 1-1-1Zm289 0 1 1-1-1Zm-880 1 1 1-1-1Zm188 0 1 1-1-1Zm67 0 1 1-1-1Zm434 0 1 1-1-1Zm187 0 1 1-1-1Zm-872.333 1.333.666.334-.666-.334ZM728 743l1 1-1-1Zm98 0 1 1-1-1Zm182 0v1h3l-3-1Zm-864.333 1.333.666.334-.666-.334Zm103.666.334.334.666-.334-.666ZM323 744l1 1-1-1Zm406 0 1 1-1-1Zm275 0v1h3l-3-1Zm-857.333 1.333.666.334-.666-.334Zm212.666.334.334.666-.334-.666ZM388 745l1 1-1-1Zm32 0 1 1-1-1Zm408 0 1 1-1-1Zm173.67.333.66.334-.66-.334ZM150 746l1 1-1-1Zm111 0 1 1-1-1Zm61 0 1 1-1-1Zm408 0 1 1-1-1Zm-579 1-3.815 14L146 794c10.688-.833 5.308-23.979 6.105-32 .359-3.613 2.818-6.473 3.248-9.956.389-3.142-1.882-4.135-4.353-5.044Zm235 0 1 1-1-1Zm377 0 1 1-1-1Zm27 0 1 1-1-1Zm58 0v4h1l-1-4Zm40.333.667.334.666-.334-.666ZM902 747l1 1-1-1Zm94 0 1 1-1-1Zm-695 1v3h1l-1-3Zm84 0 1 1-1-1Zm33 0 1 1-1-1Zm313 0 1 1-1-1Zm-482.667 1.667.334.666-.334-.666ZM384 749l1 1-1-1Zm348 0 1 1-1-1Zm33 0 1 1-1-1Zm-382 1 1 1-1-1Zm383 0 1 1-1-1Zm229 0 1 1-1-1Zm-733 1v3h1l-1-3Zm98 0 1 1-1-1Zm56 0 1 1-1-1Zm317 0 1 1-1-1Zm34 0 1 1-1-1Zm134.333.667.334.666-.334-.666ZM734 752l1 1-1-1Zm262 0 1 1-1-1Zm-227 1 1 1-1-1Zm118.333.667.334.666-.334-.666ZM997 753l1 1-1-1Zm-827 1 1 1-1-1Z" fill="#A7351D"/><path d="M171.09 755.042C151.635 764.991 158 797.44 158 815c0 42.03 1 84.034 1 126 0 19.55-4.287 41.708-.772 61 2.218 12.17 24.148 23.9 32.772 32.04 3.204 3.02 7.936 9.03 13 6.88 5.848-2.49 10.656-10.25 14.718-14.92 8.449-9.71 17.475-18.82 26.027-28.424 3.462-3.887 8.613-7.604 10.513-12.576 5.681-14.873-.258-38.306-.258-54 0-32.284 1-64.646 1-97 0-12.705 3.006-29.79-.51-42-7.498-26.04-37.831-26.492-59.49-32.555-5.869-1.642-19.275-7.284-24.91-4.403Z" fill="#FFE609"/><path d="m176.667 754.333.666.334-.666-.334ZM361 754l1 1-1-1Zm374 0 1 1-1-1Zm53 0 1 1-1-1Zm-609 1v1h3l-3-1Zm200 0 1 1-1-1Zm357 0 1 1-1-1Zm34 0 1 1-1-1ZM183 756v1h4l-4-1Zm66 0 1 1-1-1Zm14 0 1 1-1-1Zm508 0 1 1-1-1Zm78 0v4h1l-1-4Zm50 0 1 1-1-1Zm-711 1 1 1-1-1Zm62 0 1 1-1-1Zm50 0v3h1l-1-3Zm112 0 1 1-1-1Zm325 0 1 1-1-1Zm50 0 1 1-1-1Zm99 0 1 1-1-1Zm10 0 1 1-1-1Zm-729 1 1 1-1-1Zm26 0 1 1-1-1Zm59 0 1 1-1-1Zm125 0 1 1-1-1Zm34 0 1 1-1-1Zm327 0 1 1-1-1Zm153 0 1 1-1-1Zm-696 1 1 1-1-1Zm59 0 1 1-1-1Zm122 0 1 1-1-1Zm397 0 1 1-1-1Zm115 0 1 1-1-1Zm-688 1 1 1-1-1Zm62.667.333.666.334-.666-.334ZM363 760l1 1-1-1Zm47 0 1 1-1-1Zm-207 1v1h3l-3-1Zm172 0 1 1-1-1Zm34 0 1 1-1-1Zm331 0 1 1-1-1Zm110 0 1 1-1-1Zm-686 1 1 1-1-1Zm44.667.333.666.334-.666-.334ZM298 762l1 1-1-1Zm443 0 1 1-1-1Zm34 0 1 1-1-1Zm10 0 1 1-1-1Zm66 0 1 1-1-1Zm-688 1 1 1-1-1Zm48 0v1h4l-4-1Zm86 0 1 1-1-1Zm555 0 1 1-1-1Zm-690 1 1 1-1-1Zm54 0 1 1-1-1Zm568 0 1 1-1-1Zm-563 1 1 1-1-1Zm75 0 1 1-1-1Zm110 0 1 1-1-1Zm377 0 1 1-1-1Zm70 0 1 1-1-1Zm75 0-3 1v1l4-1-1-1Z" fill="#A7351D"/><path d="M886 776c10.73 22.719 5 55.906 5 81v173c7.77-2.24 14.206-7.59 21-11.81 18.203-11.31 35.181-24.62 52-37.851 6.756-5.315 20.286-13.124 23.397-21.354 4.795-12.687.603-34.395.603-47.985h-38c0 12.039-1.969 16.924-11.714 24.655-2.16 1.713-7.532 7.404-10.258 3.918-2.08-2.658-1.028-8.416-1.028-11.573 0-10.054 1-19.976 1-30v-84c0-16.602-2.083-32.826 5-48-14.377-1.671-32.742 7.235-47 10Z" fill="#FFE609"/><path d="M931 765v1l2 1c-8.487 9.074-5 26.422-5 38 0 32.634.784 65.377-.015 98-.228 9.34-.986 18.604-.985 28 0 5.771-.498 12.405 7 9-6.226-11.195-2-33.308-2-46v-77c0-18.266-1.408-34.971 5-52h-6Zm-770 1 1 1-1-1Zm61.667.333.666.334-.666-.334ZM298 766l1 1-1-1Zm74 0 1 1-1-1Zm372 0 1 1-1-1Zm33 0 1 1-1-1Zm74.667.333.666.334-.666-.334ZM160 767l1 1-1-1Zm66 0v1h4l-4-1Zm76 0 1 1-1-1Zm443 0 1 1-1-1Zm33 0 1 1-1-1Zm4 0 1 1-1-1Zm64 0 1 1-1-1Zm74.667.333.666.334-.666-.334ZM159 768l1 1-1-1Zm72.667.333.666.334-.666-.334ZM307 768l1 1-1-1Zm533.667.333.666.334-.666-.334Zm76 0 .666.334-.666-.334ZM158 769l1 1-1-1Zm78 0 1 1-1-1Zm74 0 1 1-1-1Zm527 0 1 1-1-1Zm75 0 1 1-1-1Zm-672.333 1.333.666.334-.666-.334ZM831 770l1 1-1-1Zm76 0v1h4l-4-1Zm-856 1 1 1-1-1Zm190 0 14.49 22 .51 41-1 93 1 40-.742 17-17.273 20L204 1042c12.322-4.19 21.921-19.93 30.025-29.54 7.148-8.47 21.527-17.033 25.372-27.46 4.163-11.292.603-29.962.603-42v-95c0-22.053 8.566-67.623-19-77Zm73 0 1 1-1-1Zm87 0 1 1-1-1Zm427.667.333.666.334-.666-.334ZM906 771l1 1-1-1Zm-853 1v1h3l-3-1Zm263 0 1 1-1-1Zm84 0 1 1-1-1Zm349 0 1 1-1-1Zm71 0v1h3l-3-1Zm81 0 1 1-1-1Zm-843.333 1.333.666.334-.666-.334ZM317 773l1 1-1-1Zm8 0v1h9l-9-1Zm74 0 1 1-1-1Zm351 0 1 1-1-1Zm65 0 1 1-1-1Zm81 0v1h3l-3-1Zm-834.333 1.333.666.334-.666-.334ZM318 774l1 1-1-1Zm3 0 1 1-1-1Zm20 0 1 1-1-1Zm410 0 1 1-1-1Zm56 0 1 1-1-1Zm82 0v1h5l-5-1Zm-823.333 1.333.666.334-.666-.334ZM346 775v1h3l-3-1Zm51 0 1 1-1-1Zm355 0 1 1-1-1Zm49 0v1h3l-3-1Zm87 0 1 1-1-1Zm-819 1v1h3l-3-1Zm194 0 1 1-1-1Z" fill="#A7351D"/><path d="m264 776-1 1c8.685 29.527 5 62.874 5 94 0 48.316 4.37 98.916-.104 147-.598 6.43-3.365 12.5-3.896 19 11.67-3.97 24.212-19.35 33-28 2.794-2.75 8.075-6.03 9.045-10.039C307.298 993.776 304 983.927 304 978c0-24.535-3.471-51.931 1-76l19.851 11.213L326.999 932 326 982c10.847-3.598 20.865-14.552 30-21.374 2.929-2.188 8.239-4.889 9.188-8.716C367.046 944.412 364 931.178 364 923c0-6.124 3.029-17.52-.028-22.867-4.108-7.188-23.364-13.965-30.972-17.133v-2c7.66-3.189 26.48-8.359 30.972-15.39C368.009 859.292 365 843.401 365 836v-30c0-3.177.945-8.646-1.742-11.012-4.273-3.762-14.85-3.247-20.258-3.988-4.028-.552-9.865-2.294-13.852-1.111C323.202 791.654 326 810.953 326 816c0 8.465 3.418 26.448-1.028 33.736-3.381 5.542-15.001 8.849-20.972 10.264v-55c0-4.879 2.126-16.428-1.603-20.107-7.066-6.971-28.847-6.71-38.397-8.893Z" fill="#FFE609"/><path d="m266 776 1 1-1-1Zm86 0 1 1-1-1Zm444.667.333.666.334-.666-.334ZM72 777l1 1-1-1Zm197 0v1h5l-5-1Zm92 0 1 1-1-1Zm393 0 1 1-1-1Zm34 0 1 1-1-1Zm98 0 1 1-1-1Zm-809 1 1 1-1-1Zm198.667.333.666.334-.666-.334Zm89 0 .666.334-.666-.334ZM395 778l1 1-1-1Zm388.667.333.666.334-.666-.334ZM263 779l1 1-1-1Zm18.667.333.666.334-.666-.334ZM372 779v1h4l-4-1Zm404 0 1 1-1-1Zm111 0 1 1-1-1Zm-599.333 1.333.666.334-.666-.334Zm91 0 .666.334-.666-.334ZM394 780l1 1-1-1Zm494 0 1 1-1-1Zm-624 1 1 1-1-1Zm28 0v1h3l-3-1Zm93.667.333.666.334-.666-.334ZM392 781l1 1-1-1Zm379 0 1 1-1-1Zm84 0v1c6.648.9 21.56 4.166 24.397 11.105 3.803 9.302.603 25.854.603 35.895 0 29.031-.276 58.042-.985 87-.286 11.664 4.67 30.131.382 40.91-3.866 9.714-25.529 20.038-34.397 25.09 4.057 2.182 7.541-.594 11-3 7.276-5.061 25.437-12.23 28.307-21.09 3.116-9.617-.307-26.564-.307-36.91v-87c0-11.446 4.074-32.254-.603-42.671-3.486-7.763-21.048-10.324-28.397-10.329Zm-559.333 1.333.666.334-.666-.334Zm320.619.804c-3.135 1.387-5.541 5.351-7.711 7.863-2.674 3.094-6.819 6.148-8.377 10-5.109 12.623 10.48 21.988 18.802 27.656 4.647 3.165 13.89 11.99 19.985 9.273 3.094-1.379 5.345-4.688 7.666-7.045 16.085-16.34 4.411-25.75-10.651-36.733-4.009-2.923-14.447-13.347-19.714-11.014ZM759 782l1 1-1-1Zm94 0 1 1-1-1Z" fill="#A7351D"/><path d="M778 796c9.821 19.373 5 47.31 5 69 0 50.745 4.117 103.796-2 154 10.87-3.13 21.325-10.44 31-16.2 2.766-1.65 8.264-3.63 9.267-7.013 1.17-3.948-2.26-11.257-2.267-15.787-.024-15.174 1.196-30.889-.169-46-.53-5.863-3.204-20.072 1.603-24.411C825.155 905.327 835.16 907 841 907v76c10.32-1.121 21.686-11.634 30-17.579 2.886-2.063 6.973-4.149 8.397-7.595C883.154 948.731 879 933.71 879 924c0-26.931 1-53.991 1-81v-38c0-4.099 1.322-11.045-1.603-14.363-4.344-4.925-17.005-8.808-23.397-8.311-12.886 1.001-26.226 5.135-39 7.353-12.627 2.193-25.62 2.842-38 6.321Z" fill="#FFE609"/><path d="m1053 782 1 1-1-1Zm2.67.333.66.334-.66-.334ZM301 783l1 1-1-1Zm459 0 1 1-1-1Zm8 0 1 1-1-1Zm79 0 1 1-1-1Zm43 0 1 1-1-1Zm158.67.333.66.334-.66-.334ZM1057 783v4h1l-1-4Zm-791 1 1 1-1-1Zm36 0v1l2 21v54l6-1v-1c-3.228-4.261-2-10.838-2-16v-39c0-6.755 2.428-17.201-6-19Zm539 0v1h5l-5-1Zm205 0 1 1-1-1Zm47 0 1 1-1-1Zm-330 1 1 1-1-1Zm72 0v1h5l-5-1Zm202 49 5-1c-2.95-12.378-3.98-36.253 1-48-7.13 2.19-6 7.559-6 14v35Zm49.67-48.667.66.334-.66-.334ZM267 786v123h1v-86c0-10.634 3.108-27.211-1-37Zm563 0v1h4l-4-1Zm251 0v1h4l-4-1Zm-254 1 1 1-1-1Zm249 0v1h3l-3-1ZM80 1093c13.372-6.29 22.829-26.77 32.084-38 3.549-4.3 10.241-9.38 11.438-15 1.015-4.76-2.86-10.17-3.351-15-1.132-11.13-.171-22.81-.171-34V809c0-6.498-1.522-14.801 3-20-9.119-3.692-7 9.679-7 15v56c0 44.024-1.003 87.943-1 132 .001 11.75.092 24.29 1.094 36 .337 3.94 3.737 8.13 2.944 12-1.154 5.63-8.133 11.62-11.638 16-9.428 11.79-19.919 23.87-27.4 37Zm739.667-304.667.666.334-.666-.334ZM1071 788v1h4l-4-1Zm-946 1 1 1-1-1Zm202 0 1 1-1-1Zm3 0v1h3l-3-1Zm486.667.333.666.334-.666-.334ZM1068 789l1 1-1-1Zm-938.333 1.333.666.334-.666-.334ZM326 790l1 1-1-1Zm13 0v1h3l-3-1Zm469.667.333.666.334-.666-.334ZM1062 790v1h3l-3-1Zm-931 1v1h5l-5-1Zm215 0v1h3l-3-1Zm455 0v1h4l-4-1Zm257 0v1h3l-3-1Zm-920 1v1h3l-3-1Zm216 0v1h4l-4-1Zm438 0v1h4l-4-1Zm-649 1 1 1-1-1Zm216 0v1h4l-4-1Zm426 0v1h6l-6-1Zm-421 1 1 53-1.603 18.61L333 881v2l30.397 17.133L364 922l.597 29.91-9.597 8.716L328 981v1c11.947-1.89 22.365-14.489 32-21.279 3.195-2.252 9.074-4.962 10.268-9.01C372.29 944.853 369 930.716 369 923c0-6.008 2.363-18.453-1.028-23.582C363.445 892.57 344.551 886.432 337 883v-2c7.223-2.121 27.059-8.727 30.972-15.225C370.95 860.832 369 850.623 369 845v-50l-5-1Zm418.667.333.666.334-.666-.334ZM372 795l1 1-1-1Z" fill="#A7351D"/><path d="M371 796c9.183 21.046 5 48.019 5 71 0 41.271 2.771 82.717.961 124-.347 7.907-3.797 15.1-3.961 23 24.887-14.369 47.208-35.925 71-52.34 7.55-5.209 24.808-12.547 28.883-20.844C476.056 934.354 472 918.5 472 911h-37c-.01 12.756-11.453 19.579-23 23v-28c.001-3.15-.737-7.934 2.318-9.972 7.208-4.81 32.334 5.122 35.133-5.087.972-3.545.244-7.385-.166-10.941-.458-3.985 1.713-10.229-.479-13.682-6.025-9.495-27.708 2.133-35.203-5.882-4.122-4.409-3.521-26.135 3.441-27.288 10.184-1.685 13.076 4.714 21.014 6.874 10.707 2.913 23.9 2.75 34.942 2.978 0-6.673 2.731-21.226-1.603-26.61-3.11-3.862-10.023-6.446-14.397-8.631-16.99-8.488-42.302-7.141-61-8.929-8.127-.777-16.892-3.568-25-2.83Z" fill="#FFE609"/><path d="m374 795 1 1-1-1Zm405 0 1 1-1-1Zm-402 1v1h3l-3-1Zm-6 1 1 1-1-1Zm15 0v1h4l-4-1Zm392 0 1 1-1-1Zm-384.333 1.333.666.334-.666-.334ZM372 799l1 1-1-1Zm34 0 1 1-1-1Zm336.667.333.666.334-.666-.334Z" fill="#A7351D"/><path d="M669 808c9.796 14.579 5 39.746 5 57 0 5.375-1.814 14.918 1.179 19.61 2.577 4.039 9.58 5.928 13.821 7.54 9.833 3.739 19.373 8.452 29 12.712 4.34 1.92 12.593 4.351 14.382 9.193C736.056 924 717.129 931.458 710 933c0-4.027 1.351-11.11-1.028-14.566C704.832 912.419 681.788 916 675 916l-.985 53-1.015 32c12.65-.84 27.23-12.821 38-19.139 14.418-8.457 28.99-16.728 43-25.861 4.727-3.081 12.9-6.208 15.821-11.21 3.883-6.648 1.314-21.31.844-28.79-.298-4.745 2.029-11.457-.014-15.867-2.152-4.648-10.314-6.341-14.651-8.145-10.709-4.454-21.342-9.125-32-13.707-3.956-1.701-9.679-2.926-12.397-6.506-4.467-5.882-1.895-22.588-1.584-29.775.351-8.081 8.982-9.867 15.976-8.848 4.061.591 5.459 4.501 9.134 5.53 7.439 2.083 20.448-.238 27.871-1.937 2.224-.509 6.3-.249 7.731-2.348 1.657-2.43.283-7.589.27-10.397-.08-16.817-3.506-18.046-19.001-23.41-7.439-2.574-17.222.204-25 1.124-13.637 1.615-27.365 2.392-41 4-5.923.699-11.479-.371-17 2.286Z" fill="#FFE609"/><path d="M749 799v1c5.74 1.868 16.525 3.384 20.397 8.278 4.228 5.344 1.995 21.111 1.603 27.722 6.863-2.083 7.46-22.021 3.972-27.736-3.701-6.065-19.406-9.11-25.972-9.264Zm-340 1v1h5l-5-1Zm327 0v1h5l-5-1Zm-541 1v135c0 18.984-2.264 40.485 21 47l1-5c-17.398-1.736-17-20.277-17-33V841c0-9.774-3.947-31.151 2-39l-7-1Zm226.667.333.666.334-.666-.334Zm306 0 .666.334-.666-.334Z" fill="#A7351D"/><path d="M200 802v129c0 19.508-4.655 38.172 16 48l1-42-1-95v-26l-1.028-10.401L200 802Z" fill="#333213"/><path d="M203 802v1h5l-5-1Zm229 0v1h3l-3-1Zm283 0v1h3l-3-1Zm67 0v106h1v-74l-1-32Zm-573 1v1h4l-4-1Zm230 0v1h8l-8-1Zm264 0v1h8l-8-1Zm-488 1 1 1-1-1Zm234 0v1c6.497 1.872 19.56 6.95 22.972 13.105C475.323 824.149 473 836.198 473 843h4c0-7.072 2.159-18.318-.603-24.867-2.755-6.532-20.74-13.787-27.397-14.133Zm240 0v1h10l-10-1Zm-473 1v104h1v-72l-1-32Zm470.667.333.666.334-.666-.334ZM671 806l1 1-1-1Zm-191 1 3 5-3-5Z" fill="#A7351D"/><path d="M480 808c9.433 15.371 5 39.279 5 57 0 45.232 1.915 91.099-2 136 10.709-1.933 20.944-11.202 30-16.947 2.831-1.795 8.192-3.884 9.268-7.379C523.498 972.679 521 964.543 521 960c0-16.35-1-32.613-1-49 9.398 4.885 14.712 28.257 18.424 38 1.216 3.19 3.248 12.148 6.878 13.263 3.171.974 7.159-2.51 9.698-3.98 6.671-3.861 23.399-10.053 26.397-17.388 2.929-7.167-.688-17.334-.358-24.895 1.048-23.965.961-47.964.961-72 0-8.344 3.086-24.184-.603-31.682-1.447-2.94-5.693-2.312-8.397-2.318-6.064-.012-26.313-3.166-29.972 2.318C540.918 815.48 542 821.382 542 825v32c-12.213-11.503-10.111-34.786-21.839-46.258-2.254-2.204-6.258-1.78-9.161-2.166-8.774-1.167-22.573-2.893-31-.576Z" fill="#FFE609"/><path d="M486 807v1h8l-8-1Zm183 0 1 1-1-1Zm-159 1v1h8l-8-1Zm9 1v1l15.281 34L542 857v-13h-1v4c-5.17-9.084-8.344-19.48-12.691-29-2.342-5.127-3.046-9.513-9.309-10Zm26 0v1h35l-35-1Zm-2 1 1 1-1-1Zm38 0 1 39-.714 63-.314 28.895-8.972 6.789L544 963v1c11.149-.124 22.619-9.457 32-15.051 3.113-1.856 8.185-3.723 9.883-7.137 1.455-2.929.133-7.622.118-10.812-.042-8.666-.001-17.334-.001-26v-95h-5Zm-39 1 1 1-1-1Zm-58 3v97h1v-67l-1-30Zm347 8v1h6l-6-1Z" fill="#A7351D"/><path d="M824 824v47l15.397-1.179L841 857v-35l-17 2Z" fill="#333213"/><path d="m827.667 823.333.666.334-.666-.334ZM838 872v-1h-14v-47c-9.075 2.755-5 26.965-5 35 0 3.121-1.046 8.779 1.028 11.397C822.842 873.95 833.866 872 838 872Zm231-44v1c6.11 1.854 5 7.596 5 13 0 12.523 2.93 29.357-2 41 7.38-1.177 6-7.986 6-14 0-11.1 5.82-40.825-9-41Zm-7 1 1 1-1-1Zm-6 1v1h5l-5-1Zm-6 1v1h4l-4-1Zm-5.33 1.333.66.334-.66-.334ZM423 863v-1c-7.475-1.192-9.447-21.343-4.397-26.397 2.072-2.073 5.733-1.594 8.397-1.603-13.739-5.765-15 4.348-15 15 0 3.218-1.008 8.688 1.028 11.436 2.065 2.788 6.907 2.5 9.972 2.564Zm296-30v1h11l-11-1Zm-287 1 1 1-1-1Zm241 167v1c15.26-.33 31.181-13.379 44-20.858 14.1-8.226 28.202-16.355 42-25.089 4.958-3.138 12.83-5.896 15.821-11.227C778.48 938.304 776 925.335 776 918c0-5.129 1.477-13.024-.603-17.786-2.034-4.656-11.048-6.669-15.397-8.414-10.401-4.173-20.709-8.663-31-13.087-3.683-1.583-9.749-3.025-12.397-6.142C714.282 869.838 715 865.318 715 862c-.001-9.134-1.124-19.077 1-28-9.881 1.576-6.003 21.273-6 29 .002 3.504-.561 7.711 2.318 10.301 9.845 8.857 30.401 13.58 42.682 18.687 4.657 1.937 12.124 3.559 15.088 7.975 2.355 3.509.479 9.166.287 13.037-.432 8.721 4.352 24.212-1.117 31.79-5.058 7.008-17.841 12.476-25.258 16.786-15.749 9.15-31.131 18.883-47 27.848-7.263 4.103-15.653 10.484-24 11.576ZM433.333 835.667l.334.666-.334-.666ZM731 835v3h1l-1-3Zm32 1v1h7l-7-1Zm-2.333 1.333.666.334-.666-.334ZM732 838l1 1-1-1Zm13 0v1h3l-3-1Zm-311 1 1 1-1-1Zm299 0v1h6l-6-1Zm-298 1v1h6l-6-1Zm8 1v1h7l-7-1Zm22.667 1.333.666.334-.666-.334Zm4 1 .666.334-.666-.334ZM325 850l1 1-1-1Zm-1 1 1 1-1-1Zm-3 1 1 1-1-1Zm444 0-9 1v1l9-2Zm-445 1 1 1-1-1Zm-3 1 1 1-1-1Zm-1 1 1 1-1-1Zm-2.333 1.333.666.334-.666-.334ZM311 857l1 1-1-1Zm128 6v1h9l-9-1Zm9 1c2.924 8.504 2.535 22.372 0 31 9.569-.746 9.551-29.901 0-31Zm391 6 1 1-1-1Z" fill="#A7351D"/><path d="M469 881v14h1l-1-14Zm599 2v1h3l-3-1Zm-393.667 1.667.334.666-.334-.666ZM1050 884v1h13l-13-1Zm-5 1v1h4l-4-1Zm-369 1 1 1-1-1Zm361 0c0 19.453-5.55 44.224 0 63l6-4-2-18 1-41h-5Zm-359.333 1.333.666.334-.666-.334ZM682 889l1 1-1-1Zm5 2 1 1-1-1Zm2 1 1 1-1-1Zm3.667 1.333.666.334-.666-.334ZM694 894l1 1-1-1Zm-282 40 7-2c-5.234-9.411-2-26.389-2-37-9.199 1.535-5 31.054-5 39Zm286-38 1 1-1-1Zm6 2 1 1-1-1Zm2 1 1 1-1-1Zm2 1 1 1-1-1Zm-403 2c-5.464 22.885-1 51.378-1 75 0 5.916 2.994 16.792 1.431 21.961-1.2 3.969-6.582 7.239-9.431 10.039-9.118 8.97-20.599 16.49-28 27 8.058-1.63 13.168-9.55 19-14.83 6.808-6.16 19.209-13.58 22.918-22.17 1.645-3.811-.916-10.715-.918-15v-71c0-4.66.893-9.033-4-11Zm407 0 1 1-1-1Zm2 1 1 1-1-1Zm-404 1 1 1-1-1Zm407 0 1 1-1-1Zm-405 1 1 1-1-1Zm407 0 1 1-1-1Zm-403 2 1 1-1-1Zm407 0 1 1-1-1Zm102 0v1h16l-16-1Zm-507 1 1 1-1-1Zm407 0 1 1-1-1Zm60 109v1c11.048-.51 21.655-9.07 31-14.43 2.858-1.64 8.39-3.78 9.829-6.949C827.494 992.953 824 979.026 824 974v-66c-8.806 1.438-5.905 14.241-5.825 21 .198 16.621.824 33.316.825 50 0 4.356 3.094 13.165 1.709 16.787-1.181 3.089-6.071 4.843-8.709 6.413-8.718 5.19-17.632 10.88-27 14.8Zm-58-108 1 1-1-1Zm164 0v76h1v-52l-1-24Zm59 1v1h38v33c0 4.531 1.099 10.835-1.028 14.985-4.561 8.9-18.163 16.857-25.972 22.895-20.982 16.227-43.455 36.53-68 47.12 5.601 2.28 10.42-1.8 15-4.72 9.21-5.85 18.083-11.96 27-18.24 14.443-10.189 28.577-20.506 42-32.039 4.466-3.837 11.893-7.809 14.682-13.094C994.99 954.638 993 943.91 993 937c0-5.196 2.811-23.88-2.318-26.651-2.943-1.59-8.412-.35-11.682-.349h-29Zm49-1v90h1v-62l-1-28Zm59 1v16h1v-15l9-1h-10Zm11-1v1h3l-3-1Zm4 0v1c5.5 1.022 18.43-1.361 22.4 2.603 2.87 2.876 1.6 9.703 1.6 13.397v31c.01 3.546 1.72 9.249.09 12.424-5.84 11.321-21.59 23.331-31.09 31.736-20.47 18.1-42.06 42.97-67 54.84 4.89 3.17 8.95-.89 13-3.85 9.17-6.69 18.38-13.76 27-21.15 15.78-13.54 31.29-27.29 46-42 5.38-5.377 13.6-11.218 17.15-18 2.08-3.962-.75-8.843-1.06-13-.8-10.889-.09-22.081-.09-33 0-3.476 1.48-11.532-1.6-13.972-4.49-3.55-20.61-2.027-26.4-2.028Zm-994 1v99h1v-69l-1-30Zm243 0 1 1-1-1Zm54 0v86h1v-59l-1-27Zm59 0v1h37c0 7.265 3.907 23.784.227 29.816-5.357 8.78-21.813 15.681-30.227 21.528-22.806 15.85-44.135 34.024-67 49.656v1c9.372-1.81 16.55-10.51 24-15.986 17.193-12.631 34.545-24.99 52-37.244 7.168-5.032 21.625-10.625 26.292-17.983 1.807-2.849-.078-6.692-.249-9.787-.403-7.292-.043-14.697-.043-22h-42Zm294.667.333.666.334-.666-.334ZM841 910v47h1c0-13.265 4.11-34.824-1-47Zm-683 1v54h1v-36l-1-18Zm59 0v21h1l-1-21Zm107 0 1 1-1-1Zm110 0v10h1l-1-10Zm86 0 1 49 .713 16.674-9.713 7.379L483 1001c6.735 2.39 14.629-4.54 20-7.947 6.255-3.967 19.265-8.821 22.929-15.432 1.663-2.999-.707-7.413-.886-10.621-.498-8.946-.043-18.04-.043-27 0-8.058 4.627-25.988-5-29Zm211 0 1 1-1-1Zm218 0v15h1l-1-15Zm-217 1v8h1l-1-8Zm-407 2 1 1-1-1Zm1 1v6h1l-1-6Zm381 1v1c4.229 4.141 3 10.439 3 16l8-2v-1h-3c0-7.321 1.013-13.707-8-14Zm-33 1v47h1c0-13.265 4.11-34.824-1-47Zm-241 4 1 1-1-1Zm298.333.667.334.666-.334-.666Zm-204 1 .334.666-.334-.666ZM326 923v17h1l-1-17Zm105 0 1 1-1-1Zm297.667.333.666.334-.666-.334ZM430 924l1 1-1-1Zm98 0 1 1-1-1Zm199 0 1 1-1-1Zm-2 1 1 1-1-1Zm-298 1 1 1-1-1Zm297 0 1 1-1-1Zm224 0 1 1-1-1Zm-523 1 1 1-1-1Zm104.333.667.334.666-.334-.666Zm193.334-.334.666.334-.666-.334ZM947 927l1 1-1-1Zm-524 1 1 1-1-1Zm297.667.333.666.334-.666-.334ZM946 928l1 1-1-1Zm111 0v3h1l-1-3Zm-573 1v65h1v-44l-1-21Zm46.333.667.334.666-.334-.666ZM945 929l1 1-1-1Zm-526 1 1 1-1-1Zm525 0 1 1-1-1Zm-1 1 1 1-1-1Zm113 0 1 1-1-1Zm-525 1 1 1-1-1Zm411 0 1 1-1-1Zm113 0 1 1-1-1Zm-114 1 1 1-1-1Zm113 0 1 1-1-1Zm-522 1v3h1l-1-3Zm407 0 1 1-1-1Zm114 0 1 1-1-1Zm-115 1 1 1-1-1Zm114 0 1 1-1-1Zm-1 1 1 1-1-1Zm-518 1 1 1-1-1Zm403 0 1 1-1-1Zm114 0 1 1-1-1Zm-1 1 1 1-1-1Zm-514.667 1.667.334.666-.334-.666ZM1048 939l1 1-1-1Zm-2 1 1 1-1-1Zm-510.667 1.667.334.666-.334-.666ZM1045 941l1 1-1-1Zm-1 1 1 1-1-1Zm-508 1v3h1l-1-3Zm507 0 1 1-1-1Zm-505.667 3.667.334.666-.334-.666ZM538 949l1 1-1-1Zm1.333 2.667.334.666-.334-.666ZM540 954l1 1-1-1Zm1.333 2.667.334.666-.334-.666Zm1 2 .334.666-.334-.666ZM543 962l1 1-1-1ZM158.333 970.667l.334.666-.334-.666ZM325 977l1 1-1-1Zm0 4 1 1-1-1Zm517.667 2.333.666.334-.666-.334ZM483 996l1 1-1-1ZM375 999v3h1l-1-3Zm107.333.667.334.663-.334-.663ZM673 999l1 1-1-1ZM374 1003l1 1-1-1ZM158 1004l1 1-1-1Zm214 5v4h1l-1-4Zm410 0v5h1l-1-5Zm-619 1 1 1-1-1Zm1 1 1 1-1-1Zm210 2 1 1-1-1Zm-206 1 1 1-1-1Zm1 1 1 1-1-1Zm1 1 1 1-1-1Zm97 1v5h1l-1-5Zm-94 1 1 1-1-1Zm1 1 1 1-1-1Zm1 1 1 1-1-1Zm3 2 1 1-1-1Zm1 1 1 1-1-1Zm87 0 1 1-1-1Zm-86 1 1 1-1-1Zm1 1 1 1-1-1Zm1 1 1 1-1-1Zm1 1 1 1-1-1Zm707 0v3h1l-1-3Zm-706 1 1 1-1-1Zm81 0 1 1-1-1Zm-80 1 1 1-1-1Zm2 1 1 1-1-1Zm77 0v3h1l-1-3Zm-76 1 1 1-1-1Zm1 1 1 1-1-1ZM190 1033l1 1-1-1Zm1 1 1 1-1-1Zm72.333 1.67.334.66-.334-.66ZM193 1036l1 1-1-1Zm73.667.33.666.34-.666-.34ZM195 1038l1 1-1-1Zm3 2 1 1-1-1Zm800 2 1 1-1-1Zm-1 5v4h1l-1-4ZM996 1052v3h1l-1-3ZM996 1056l1 1-1-1Zm2 1 1 1-1-1ZM78 1075l1 1-1-1Z" fill="#A7351D"/><path d="m1150 1078 3 3-3-3Z" fill="#fff"/><path d="M77 1083v3h1l-1-3ZM76 1086l1 1-1-1ZM76 1093v2h2l-2-2Zm2.667.33.666.34-.666-.34Z" fill="#A7351D"/><path d="M51 1120v1h19c-6.408-3.86-12.161-1.35-19-1Z" fill="#fff"/><ellipse cx="576.5" cy="1193.5" rx="576.5" ry="72.5" fill="url(#a)" fill-opacity=".5"/><defs><radialGradient id="a" cx="0" cy="0" r="1" gradientUnits="userSpaceOnUse" gradientTransform="matrix(0 72.5 -576.5 0 576.5 1193.5)"><stop/><stop offset="1" stop-opacity="0"/></radialGradient></defs></svg>